<?xml version="1.0" encoding="UTF-8"?>
<svg width="121px" height="31px" viewBox="0 3 121 25" version="1.1" xmlns="http://www.w3.org/2000/svg" xmlns:xlink="http://www.w3.org/1999/xlink">
    <!-- Generator: Sketch 49.2 (51160) - http://www.bohemiancoding.com/sketch -->
    <title>logo accor hotels</title>
    <desc>Created with Sketch.</desc>
    <defs></defs>
    <g id="une-chance-pour-chaque-jeune" stroke="none" stroke-width="1" fill="none" fill-rule="evenodd">
        <g id="une-chance-pour-chaque-jeune---consultation" transform="translate(-686.000000, -336.000000)" fill-rule="nonzero">
            <g id="une" transform="translate(0.000000, 80.000000)">
                <g id="identite" transform="translate(395.000000, 233.000000)">
                    <g id="partenaires">
                        <g id="Group-5" transform="translate(22.000000, 19.000000)">
                            <g id="logo-accor-hotels" transform="translate(269.000000, 4.000000)">
                                <path d="M11.7878704,24.7013782 L7.47199553,14.5933744 L5.42897685,14.5933744 L1.11327101,24.7013782 L3.37180289,24.7013782 L4.29254877,22.4505103 L8.5508358,22.4505103 L9.47158168,24.7013782 L11.7878704,24.7013782 Z M7.75946139,20.5006183 L5.08371363,20.5006183 L6.42167201,17.2457342 L7.75946139,20.5006183 Z M21.9705161,23.0812626 L20.5607741,21.6618089 C19.7693997,22.3789633 19.0645084,22.8370461 17.9137154,22.8370461 C16.1872709,22.8370461 14.9932144,21.4036131 14.9932144,19.6831498 L14.9932144,19.6545175 C14.9932144,17.9340542 16.216129,16.5292535 17.9137154,16.5292535 C18.9207754,16.5292535 19.7119808,16.9593777 20.4887809,17.6620139 L21.8986919,16.0417636 C20.9634561,15.1239811 19.8269841,14.4933298 17.9280803,14.4933298 C14.8351166,14.4933298 12.6772637,16.8302293 12.6772637,19.6832845 L12.6772637,19.7119168 C12.6772637,22.593537 14.8783396,24.8732056 17.8417628,24.8732056 C19.7839335,24.8732056 20.9348954,24.1848518 21.9705161,23.081229 L21.9705161,23.0812626 Z M32.7310916,23.081229 L31.3211839,21.6617752 C30.5299751,22.3789296 29.8249588,22.8370124 28.6739968,22.8370124 C26.9476807,22.8370124 25.7536648,21.4035794 25.7536648,19.6831161 L25.7536648,19.6544838 C25.7536648,17.9340206 26.9764104,16.5292198 28.6739968,16.5292198 C29.6812258,16.5292198 30.4725597,16.959344 31.2492346,17.6619802 L32.6591423,16.0417299 C31.7238626,15.1239137 30.5874345,14.4932961 28.6885307,14.4932961 C25.5955265,14.4932961 23.4375046,16.8301956 23.4375046,19.6832508 L23.4375046,19.7118831 C23.4375046,22.5935033 25.638621,24.8731719 28.6022166,24.8731719 C30.54434,24.8731719 31.6950078,24.1848181 32.7310916,23.0811953 L32.7310916,23.081229 Z M44.9014513,19.6830824 L44.9014513,19.6544501 C44.9014513,16.8015633 42.6715207,14.4932625 39.5640672,14.4932625 C36.4566136,14.4932625 34.197955,16.8301619 34.197955,19.6832172 L34.197955,19.7118494 C34.197955,22.5647026 36.4278839,24.8731382 39.5353375,24.8731382 C42.6423685,24.8731382 44.9014513,22.536744 44.9014513,19.6830487 L44.9014513,19.6830824 Z M42.5853316,19.711681 C42.5853316,21.4320769 41.3478427,22.836743 39.5640672,22.836743 C37.7802917,22.836743 36.514073,21.4033436 36.514073,19.6828803 L36.514073,19.654248 C36.514073,17.9337848 37.7511395,16.528984 39.5353375,16.528984 C41.319113,16.528984 42.5853316,17.9625855 42.5853316,19.6829814 L42.5853316,19.7119505 L42.5853316,19.711681 Z M56.007165,24.7011087 L53.5473969,21.1162797 C54.8275579,20.6434428 55.7050808,19.6253126 55.7050808,18.005197 L55.7050808,17.9765648 C55.7050808,15.9123457 54.2808488,14.6649214 51.9072698,14.6649214 L47.3037601,14.6649214 L47.3037601,24.7012098 L49.5189034,24.7012098 L49.5189034,21.4897794 L51.2600069,21.4897794 L53.4176908,24.7012098 L56.007165,24.7012098 L56.007165,24.7011087 Z M53.4607853,18.1203325 C53.4607853,18.9657596 52.8422521,19.5397863 51.7631989,19.5397863 L49.5189034,19.5397863 L49.5189034,16.6577956 L51.7201043,16.6577956 C52.7991575,16.6577956 53.4607853,17.1451507 53.4607853,18.0915318 L53.4607853,18.1201641 L53.4607853,18.1203325 Z" id="path137718" fill="#000000"></path>
                                <path d="M53.2212338,9.75778626 C53.2212338,9.89000003 53.7848426,9.8788166 54.3484481,9.8788166 C56.4706424,9.8788166 58.5818518,9.69179727 60.5823709,9.21808459 C63.2462043,8.58995971 63.9648689,7.6539199 65.4567001,6.81656714 C68.496551,5.10928146 72.3429524,5.40651149 72.3429524,5.12014488 C72.3429524,5.04300615 72.2876055,5.02094245 71.2157347,4.74544264 C71.1160258,4.33823096 70.5853716,4.07388763 70.0547174,4.07388763 C68.8062435,4.07388763 66.7605209,5.51687041 64.9260459,5.51687041 C64.7270506,5.51687041 64.5390401,5.49463828 64.3400448,5.46158653 C63.5998329,4.08475106 61.9085839,2.86185958 59.8197667,2.59738825 C58.6148099,2.4432792 57.7529193,2.30016159 57.0676318,2.1791043 C54.6467332,1.73829517 54.0167926,1.11049029 53.7404806,1.11049029 C53.6851337,1.11049029 53.663164,1.16560575 53.663164,1.20969272 C53.663164,1.67218828 54.4920999,2.9722185 55.807328,4.43739297 C56.6696411,5.39547964 58.0951405,6.78334359 58.0951405,7.44436528 C58.0951405,7.80786052 57.2885969,8.2486966 55.7519811,8.89851465 C53.9618682,9.65875225 53.2212338,9.64753513 53.2212338,9.75778626" id="path137722" fill="#000000"></path>
                                <path d="M69.8367097,24.7013782 L69.8367097,14.6650898 L67.621144,14.6650898 L67.621144,18.637061 L62.5816156,18.637061 L62.5816156,14.6650898 L60.3664757,14.6650898 L60.3664757,24.7013782 L62.5816156,24.7013782 L62.5816156,20.6724793 L67.621144,20.6724793 L67.621144,24.7013782 L69.8367097,24.7013782 Z M82.9425132,19.6831498 L82.9425132,19.6545175 C82.9425132,16.8016644 80.7125825,14.4933298 77.6051324,14.4933298 C74.4981013,14.4933298 72.2398635,16.8302293 72.2398635,19.6832845 L72.2398635,19.7119168 C72.2398635,22.56477 74.4693716,24.8732056 77.5772477,24.8732056 C80.6838562,24.8732056 82.9425132,22.5368114 82.9425132,19.6831161 L82.9425132,19.6831498 Z M80.6259743,19.7117484 C80.6259743,21.432178 79.3893304,22.836844 77.6051324,22.836844 C75.821776,22.836844 74.5551348,21.403411 74.5551348,19.6829477 L74.5551348,19.6543154 C74.5551348,17.9338521 75.7930497,16.5290514 77.5772477,16.5290514 C79.3601748,16.5290514 80.6259743,17.9626528 80.6259743,19.6830824 L80.6259743,19.7117147 L80.6259743,19.7117484 Z M92.5378092,16.7009798 L92.5378092,14.6648877 L84.1935254,14.6648877 L84.1935254,16.7009798 L87.2583069,16.7009798 L87.2583069,24.7011761 L89.4738727,24.7011761 L89.4738727,16.7009798 L92.5378092,16.7009798 Z M102.334206,24.7011761 L102.334206,22.7364963 L96.8675419,22.7364963 L96.8675419,20.6295309 L101.615545,20.6295309 L101.615545,18.6648174 L96.8675419,18.6648174 L96.8675419,16.6292643 L102.262385,16.6292643 L102.262385,14.6648877 L94.66676,14.6648877 L94.66676,24.7011761 L102.334206,24.7011761 Z M111.496441,24.7011761 L111.496441,22.6937163 L106.952081,22.6937163 L106.952081,14.6648877 L104.73736,14.6648877 L104.73736,24.7011761 L111.496441,24.7011761 Z M120.875416,21.7331875 L120.875416,21.7045552 C120.875416,19.9553249 119.724961,19.2242248 117.681774,18.6937866 C115.941515,18.249683 115.509302,18.0342335 115.509302,17.3748489 L115.509302,17.3465535 C115.509302,16.85903 115.955457,16.4718878 116.804673,16.4718878 C117.653044,16.4718878 118.530989,16.8445454 119.422032,17.461049 L120.573332,15.7980187 C119.551738,14.9808534 118.300729,14.5219621 116.83298,14.5219621 C114.776273,14.5219621 113.308524,15.7264717 113.308524,17.5468784 L113.308524,17.5755107 C113.308524,19.5688228 114.617837,20.1272533 116.646237,20.6437123 C118.329881,21.0738365 118.674638,21.3608331 118.674638,21.9200384 L118.674638,21.9479969 C118.674638,22.5368788 118.128351,22.8946139 117.221676,22.8946139 C116.071221,22.8946139 115.121452,22.4217096 114.215199,21.6757882 L112.905886,23.2391444 C114.1138,24.3140339 115.653796,24.8444722 117.178582,24.8444722 C119.35063,24.8444722 120.875416,23.7260279 120.875416,21.7333896 L120.875416,21.7331875 Z" id="path137724" fill="#000000"></path>
                                <path d="M10.7878704,23.7013782 L6.47199553,13.5933744 L4.42897685,13.5933744 L0.113271012,23.7013782 L2.37180289,23.7013782 L3.29254877,21.4505103 L7.5508358,21.4505103 L8.47158168,23.7013782 L10.7878704,23.7013782 Z M6.75946139,19.5006183 L4.08371363,19.5006183 L5.42167201,16.2457342 L6.75946139,19.5006183 Z M20.9705161,22.0812626 L19.5607741,20.6618089 C18.7693997,21.3789633 18.0645084,21.8370461 16.9137154,21.8370461 C15.1872709,21.8370461 13.9932144,20.4036131 13.9932144,18.6831498 L13.9932144,18.6545175 C13.9932144,16.9340542 15.216129,15.5292535 16.9137154,15.5292535 C17.9207754,15.5292535 18.7119808,15.9593777 19.4887809,16.6620139 L20.8986919,15.0417636 C19.9634561,14.1239811 18.8269841,13.4933298 16.9280803,13.4933298 C13.8351166,13.4933298 11.6772637,15.8302293 11.6772637,18.6832845 L11.6772637,18.7119168 C11.6772637,21.593537 13.8783396,23.8732056 16.8417628,23.8732056 C18.7839335,23.8732056 19.9348954,23.1848518 20.9705161,22.081229 L20.9705161,22.0812626 Z M31.7310916,22.081229 L30.3211839,20.6617752 C29.5299751,21.3789296 28.8249588,21.8370124 27.6739968,21.8370124 C25.9476807,21.8370124 24.7536648,20.4035794 24.7536648,18.6831161 L24.7536648,18.6544838 C24.7536648,16.9340206 25.9764104,15.5292198 27.6739968,15.5292198 C28.6812258,15.5292198 29.4725597,15.959344 30.2492346,16.6619802 L31.6591423,15.0417299 C30.7238626,14.1239137 29.5874345,13.4932961 27.6885307,13.4932961 C24.5955265,13.4932961 22.4375046,15.8301956 22.4375046,18.6832508 L22.4375046,18.7118831 C22.4375046,21.5935033 24.638621,23.8731719 27.6022166,23.8731719 C29.54434,23.8731719 30.6950078,23.1848181 31.7310916,22.0811953 L31.7310916,22.081229 Z M43.9014513,18.6830824 L43.9014513,18.6544501 C43.9014513,15.8015633 41.6715207,13.4932625 38.5640672,13.4932625 C35.4566136,13.4932625 33.197955,15.8301619 33.197955,18.6832172 L33.197955,18.7118494 C33.197955,21.5647026 35.4278839,23.8731382 38.5353375,23.8731382 C41.6423685,23.8731382 43.9014513,21.536744 43.9014513,18.6830487 L43.9014513,18.6830824 Z M41.5853316,18.711681 C41.5853316,20.4320769 40.3478427,21.836743 38.5640672,21.836743 C36.7802917,21.836743 35.514073,20.4033436 35.514073,18.6828803 L35.514073,18.654248 C35.514073,16.9337848 36.7511395,15.528984 38.5353375,15.528984 C40.319113,15.528984 41.5853316,16.9625855 41.5853316,18.6829814 L41.5853316,18.7119505 L41.5853316,18.711681 Z M55.007165,23.7011087 L52.5473969,20.1162797 C53.8275579,19.6434428 54.7050808,18.6253126 54.7050808,17.005197 L54.7050808,16.9765648 C54.7050808,14.9123457 53.2808488,13.6649214 50.9072698,13.6649214 L46.3037601,13.6649214 L46.3037601,23.7012098 L48.5189034,23.7012098 L48.5189034,20.4897794 L50.2600069,20.4897794 L52.4176908,23.7012098 L55.007165,23.7012098 L55.007165,23.7011087 Z M52.4607853,17.1203325 C52.4607853,17.9657596 51.8422521,18.5397863 50.7631989,18.5397863 L48.5189034,18.5397863 L48.5189034,15.6577956 L50.7201043,15.6577956 C51.7991575,15.6577956 52.4607853,16.1451507 52.4607853,17.0915318 L52.4607853,17.1201641 L52.4607853,17.1203325 Z" id="path137718" fill="#FFFFFF"></path>
                                <path d="M52.2212338,8.75778626 C52.2212338,8.89000003 52.7848426,8.8788166 53.3484481,8.8788166 C55.4706424,8.8788166 57.5818518,8.69179727 59.5823709,8.21808459 C62.2462043,7.58995971 62.9648689,6.6539199 64.4567001,5.81656714 C67.496551,4.10928146 71.3429524,4.40651149 71.3429524,4.12014488 C71.3429524,4.04300615 71.2876055,4.02094245 70.2157347,3.74544264 C70.1160258,3.33823096 69.5853716,3.07388763 69.0547174,3.07388763 C67.8062435,3.07388763 65.7605209,4.51687041 63.9260459,4.51687041 C63.7270506,4.51687041 63.5390401,4.49463828 63.3400448,4.46158653 C62.5998329,3.08475106 60.9085839,1.86185958 58.8197667,1.59738825 C57.6148099,1.4432792 56.7529193,1.30016159 56.0676318,1.1791043 C53.6467332,0.738295168 53.0167926,0.11049029 52.7404806,0.11049029 C52.6851337,0.11049029 52.663164,0.165605748 52.663164,0.209692724 C52.663164,0.672188283 53.4920999,1.9722185 54.807328,3.43739297 C55.6696411,4.39547964 57.0951405,5.78334359 57.0951405,6.44436528 C57.0951405,6.80786052 56.2885969,7.2486966 54.7519811,7.89851465 C52.9618682,8.65875225 52.2212338,8.64753513 52.2212338,8.75778626" id="path137722" fill="#FFFFFF"></path>
                                <path d="M68.8367097,23.7013782 L68.8367097,13.6650898 L66.621144,13.6650898 L66.621144,17.637061 L61.5816156,17.637061 L61.5816156,13.6650898 L59.3664757,13.6650898 L59.3664757,23.7013782 L61.5816156,23.7013782 L61.5816156,19.6724793 L66.621144,19.6724793 L66.621144,23.7013782 L68.8367097,23.7013782 Z M81.9425132,18.6831498 L81.9425132,18.6545175 C81.9425132,15.8016644 79.7125825,13.4933298 76.6051324,13.4933298 C73.4981013,13.4933298 71.2398635,15.8302293 71.2398635,18.6832845 L71.2398635,18.7119168 C71.2398635,21.56477 73.4693716,23.8732056 76.5772477,23.8732056 C79.6838562,23.8732056 81.9425132,21.5368114 81.9425132,18.6831161 L81.9425132,18.6831498 Z M79.6259743,18.7117484 C79.6259743,20.432178 78.3893304,21.836844 76.6051324,21.836844 C74.821776,21.836844 73.5551348,20.403411 73.5551348,18.6829477 L73.5551348,18.6543154 C73.5551348,16.9338521 74.7930497,15.5290514 76.5772477,15.5290514 C78.3601748,15.5290514 79.6259743,16.9626528 79.6259743,18.6830824 L79.6259743,18.7117147 L79.6259743,18.7117484 Z M91.5378092,15.7009798 L91.5378092,13.6648877 L83.1935254,13.6648877 L83.1935254,15.7009798 L86.2583069,15.7009798 L86.2583069,23.7011761 L88.4738727,23.7011761 L88.4738727,15.7009798 L91.5378092,15.7009798 Z M101.334206,23.7011761 L101.334206,21.7364963 L95.8675419,21.7364963 L95.8675419,19.6295309 L100.615545,19.6295309 L100.615545,17.6648174 L95.8675419,17.6648174 L95.8675419,15.6292643 L101.262385,15.6292643 L101.262385,13.6648877 L93.66676,13.6648877 L93.66676,23.7011761 L101.334206,23.7011761 Z M110.496441,23.7011761 L110.496441,21.6937163 L105.952081,21.6937163 L105.952081,13.6648877 L103.73736,13.6648877 L103.73736,23.7011761 L110.496441,23.7011761 Z M119.875416,20.7331875 L119.875416,20.7045552 C119.875416,18.9553249 118.724961,18.2242248 116.681774,17.6937866 C114.941515,17.249683 114.509302,17.0342335 114.509302,16.3748489 L114.509302,16.3465535 C114.509302,15.85903 114.955457,15.4718878 115.804673,15.4718878 C116.653044,15.4718878 117.530989,15.8445454 118.422032,16.461049 L119.573332,14.7980187 C118.551738,13.9808534 117.300729,13.5219621 115.83298,13.5219621 C113.776273,13.5219621 112.308524,14.7264717 112.308524,16.5468784 L112.308524,16.5755107 C112.308524,18.5688228 113.617837,19.1272533 115.646237,19.6437123 C117.329881,20.0738365 117.674638,20.3608331 117.674638,20.9200384 L117.674638,20.9479969 C117.674638,21.5368788 117.128351,21.8946139 116.221676,21.8946139 C115.071221,21.8946139 114.121452,21.4217096 113.215199,20.6757882 L111.905886,22.2391444 C113.1138,23.3140339 114.653796,23.8444722 116.178582,23.8444722 C118.35063,23.8444722 119.875416,22.7260279 119.875416,20.7333896 L119.875416,20.7331875 Z" id="path137724" fill="#FFFFFF"></path>
                            </g>
                        </g>
                    </g>
                </g>
            </g>
        </g>
    </g>
</svg>