<svg xmlns="http://www.w3.org/2000/svg" width="127" height="26" viewBox="0 0 127 26">
    <defs>
        <filter id="a" width="100.3%" height="103.8%" x="-.1%" y="-.9%" filterUnits="objectBoundingBox">
            <feOffset dx="1" dy="1" in="SourceAlpha" result="shadowOffsetOuter1"/>
            <feColorMatrix in="shadowOffsetOuter1" result="shadowMatrixOuter1" values="0 0 0 0 0 0 0 0 0 0 0 0 0 0 0 0 0 0 1 0"/>
            <feMerge>
                <feMergeNode in="shadowMatrixOuter1"/>
                <feMergeNode in="SourceGraphic"/>
            </feMerge>
        </filter>
    </defs>
    <g fill="#FFF" fill-rule="nonzero" filter="url(#a)" transform="translate(-150 -11)">
        <path d="M161.327 35.689l-4.531-10.53h-2.146l-4.531 10.53h2.371l.967-2.345h4.471l.967 2.345h2.432zm-4.23-4.376h-2.81l1.406-3.39 1.404 3.39zm14.922 2.688l-1.48-1.478c-.831.747-1.571 1.224-2.78 1.224-1.812 0-3.066-1.493-3.066-3.285v-.03c0-1.792 1.284-3.256 3.066-3.256 1.058 0 1.889.448 2.704 1.18l1.48-1.687c-.981-.957-2.175-1.613-4.169-1.613-3.247 0-5.513 2.434-5.513 5.406v.03c0 3.001 2.311 5.376 5.423 5.376 2.04 0 3.248-.717 4.335-1.867zm11.299 0l-1.48-1.478c-.832.747-1.572 1.224-2.78 1.224-1.813 0-3.067-1.493-3.067-3.285v-.03c0-1.792 1.284-3.256 3.067-3.256 1.057 0 1.888.448 2.704 1.18l1.48-1.688c-.982-.956-2.175-1.612-4.169-1.612-3.248 0-5.514 2.434-5.514 5.406v.03c0 3.001 2.312 5.376 5.423 5.376 2.04 0 3.248-.717 4.336-1.867zm12.779-3.54v-.03c0-2.971-2.342-5.376-5.605-5.376-3.263 0-5.634 2.435-5.634 5.407v.03c0 2.971 2.341 5.376 5.604 5.376 3.262 0 5.635-2.434 5.635-5.406zm-2.432.03c0 1.792-1.3 3.256-3.173 3.256s-3.202-1.494-3.202-3.286v-.03c0-1.792 1.299-3.255 3.172-3.255 1.873 0 3.203 1.493 3.203 3.285v.03zm14.093 5.198l-2.583-3.735c1.344-.492 2.265-1.553 2.265-3.24v-.03c0-2.15-1.495-3.45-3.987-3.45h-4.834V35.69h2.326v-3.345h1.828l2.266 3.345h2.719zm-2.674-6.855c0 .88-.65 1.478-1.783 1.478h-2.356V27.31h2.311c1.133 0 1.828.508 1.828 1.494v.03zM204.832 20.123c0 .137.592.126 1.184.126 2.228 0 4.445-.195 6.545-.688 2.798-.655 3.552-1.63 5.119-2.502 3.191-1.778 7.23-1.469 7.23-1.767 0-.08-.058-.104-1.183-.39-.105-.425-.662-.7-1.22-.7-1.31 0-3.458 1.503-5.385 1.503a3.72 3.72 0 0 1-.615-.058c-.777-1.434-2.553-2.708-4.746-2.983-1.265-.16-2.17-.31-2.89-.436-2.542-.459-3.203-1.113-3.493-1.113-.059 0-.082.058-.082.103 0 .482.87 1.836 2.252 3.363.905.998 2.402 2.443 2.402 3.132 0 .379-.847.838-2.46 1.515-1.88.792-2.658.78-2.658.895M222.279 35.689V25.234h-2.327v4.138h-5.291v-4.138h-2.326V35.69h2.326v-4.197h5.291v4.197h2.327zm13.76-5.227v-.03c0-2.972-2.34-5.376-5.604-5.376-3.262 0-5.633 2.434-5.633 5.406v.03c0 2.971 2.34 5.376 5.604 5.376 3.262 0 5.634-2.434 5.634-5.406zm-2.432.03c0 1.792-1.298 3.255-3.172 3.255-1.872 0-3.202-1.493-3.202-3.286v-.03c0-1.792 1.3-3.255 3.173-3.255 1.872 0 3.201 1.493 3.201 3.286v.03zm12.508-3.137v-2.12h-8.762v2.12h3.218v8.334h2.327v-8.334h3.217zM256.4 35.69v-2.047h-5.74v-2.195h4.985v-2.046h-4.985v-2.12h5.665v-2.047h-7.976V35.69h8.05zm9.62 0v-2.091h-4.771v-8.364h-2.326V35.69h7.097zm9.848-3.092v-.03c0-1.822-1.208-2.583-3.353-3.136-1.827-.463-2.281-.687-2.281-1.374v-.03c0-.507.468-.91 1.36-.91.89 0 1.813.388 2.748 1.03l1.209-1.732c-1.073-.852-2.386-1.33-3.927-1.33-2.16 0-3.701 1.255-3.701 3.151v.03c0 2.077 1.375 2.658 3.505 3.196 1.767.448 2.13.747 2.13 1.33v.029c0 .613-.574.986-1.526.986-1.208 0-2.205-.493-3.157-1.27l-1.375 1.629c1.268 1.12 2.885 1.672 4.487 1.672 2.28 0 3.881-1.165 3.881-3.24z"/>
    </g>
</svg>
