<svg xmlns="http://www.w3.org/2000/svg" width="123" height="27" viewBox="0 0 123 27">
    <defs>
        <filter id="a" width="100.3%" height="103.8%" x="-.1%" y="-.9%" filterUnits="objectBoundingBox">
            <feOffset dx="1" dy="1" in="SourceAlpha" result="shadowOffsetOuter1"/>
            <feColorMatrix in="shadowOffsetOuter1" result="shadowMatrixOuter1" values="0 0 0 0 0 0 0 0 0 0 0 0 0 0 0 0 0 0 1 0"/>
            <feMerge>
                <feMergeNode in="shadowMatrixOuter1"/>
                <feMergeNode in="SourceGraphic"/>
            </feMerge>
        </filter>
    </defs>
    <g fill="none" fill-rule="evenodd" filter="url(#a)" transform="translate(0 -15)">
        <path fill="#110F11" d="M.356 40.447h25.151v-25.09H.356z"/>
        <path fill="#FFFFFE" d="M19.978 21.965c-1.552.91-2.027.987-3.716 1.994.984-1.063 1.325-1.515 1.934-2.406-1.557.083-3.818.27-5.433.626 1.406-.749 4.192-1.582 5.663-1.78-.341-.47-3.102-1.96-3.788-2.248 2.185.17 4.856.984 6.151 1.774.51-.159 1.039-.166 1.988-.25-.241.413-.252.652-1.183 1.268.258.687-.357 4.469-.866 5.47-.019-1.582-.157-3.58-.75-4.448M8.613 35.53c-.893-.33-1.535-.714-2.242-1.374.212-.583.453-1.038.848-1.622-.726.108-1.26.19-1.885.308-.508-.888-.739-1.744-.998-2.937-.139 1.264-.191 2.165-.013 3.172a9.42 9.42 0 0 0-1.451.51c.662.404 1.195.714 1.934 1.058a6.574 6.574 0 0 0 1.472 2.077 3.85 3.85 0 0 1-.133-1.586c.825.24 1.53.366 2.468.394M10.935 22.954c-.278.36-.6 1.031-.688 1.342 2.3.312 4.143 1.49 4.143 1.49-2.01-.356-3.068-.312-3.819-.245-.745.07-.898.158-.898.158-.542 1.185-.868 3.22-.868 3.22-.365-.88-.894-2.641-.894-2.641-1.014.541-3.347 2.73-3.347 2.73 1.282-2.562 2.584-3.728 2.584-3.728-.447-.453-1.623-.679-2.48-.716.444-.182 1.589-.395 2.468-.435.88-.025 1.412.025 1.412.025.785-.618 1.976-1.139 2.387-1.2M13.373 33.941c-.406.55-.755.981-1.205 1.483a7.406 7.406 0 0 1-2.145.297 5.33 5.33 0 0 0 1.395.482 9.685 9.685 0 0 1-1.36 1.044c.786-.186 1.819-.519 2.588-.972.402.015.778-.01 1.053-.065a5.973 5.973 0 0 1-.174-.708c.725-.56 1.251-1.067 1.853-1.676-.641.447-1.194.78-1.937 1.13-.032-.34-.05-.63-.068-1.015"/>
        <path fill="#FFF" d="M34.971 24.517c1.693.014 2.314.357 2.314 1.277 0 .254-.078.479-.229.651-.323.389-.955.59-1.761.54h-.041l-.473 1.23h.473c.935-.027 1.747.266 2.165.776.192.232.289.51.289.795 0 .961-.848 1.458-2.523 1.458-.282 0-.742 0-1.026-.01a122.27 122.27 0 0 1-.069-3.544c0-.605.04-1.955.07-3.109.192-.039.512-.064.811-.064zm-3.137-.884c.053.911.107 3.217.107 4.057 0 .775-.002 3.368-.137 4.487l-.01.088h4.063c1.996 0 4.108-.62 4.108-2.388 0-1.108-.804-1.926-2.307-2.374 1.115-.298 1.858-1.058 1.858-1.928 0-1.443-1.663-1.987-3.225-2.024h-4.48l.023.082zM49.34 23.55h-1.978l.08 2.199c.039 1.085.076 2.202.153 3.287-.128-.34-.247-.515-.847-1.387-.003-.03-2.057-3.183-2.77-4.078l-.02-.02h-2.294v.082c.073.911.102 3.217.102 4.057 0 .775 0 3.368-.11 4.487l-.02.088h2.044v-.088c-.115-2.127-.115-4.273-.115-6.355.071.252.161.47.484.945.025.056 3.546 5.168 3.717 5.462l.018.036h1.637l-.003-.088c-.124-1.119-.135-3.712-.135-4.487 0-.84.057-3.146.11-4.057l.025-.082h-.078M54.7 24.602c1.14-.02 1.935.21 2.312.686a1.2 1.2 0 0 1 .27.786c0 1.26-1.423 1.535-2.612 1.535l-.482-.027-.2-.02c-.008-.292-.008-.676-.008-1.107 0-.548 0-1.2.026-1.802.167-.022.42-.05.694-.05zm-2.998-.97c.081.912.112 3.218.112 4.058 0 .775 0 3.368-.12 4.487v.088h2.43l-.01-.088c-.082-.805-.126-2.34-.134-3.512l.46.023.344.008c3.198 0 4.754-.845 4.754-2.622 0-2.021-2.183-2.486-4.002-2.523h-3.834v.082zM67.171 24.602c1.142-.02 1.936.21 2.32.686.174.205.263.476.263.786 0 1.26-1.42 1.535-2.595 1.535l-.481-.027s-.128-.011-.201-.02c-.014-.292-.014-.678-.014-1.107 0-.554 0-1.2.023-1.802.152-.022.414-.05.685-.05zm-2.993-.97c.077.912.122 3.218.122 4.058 0 .775-.008 3.368-.135 4.487v.088h2.433l-.014-.088c-.077-.805-.121-2.34-.121-3.512l.437.023.353.008c3.197 0 4.767-.845 4.767-2.622 0-2.021-2.196-2.486-4.02-2.523h-3.822v.082zM75.864 26.117c.192.416.694 1.573 1.26 2.956-.088.004-.196.004-.196.004l-1.064.014s-1.103-.014-1.285-.018c.458-1.105.913-2.104 1.285-2.956zm-.593-2.566h-.03l-.019.044c-.452 1.24-3.369 7.589-3.83 8.561l-.039.11h2.071l.018-.05c.182-.597.427-1.27.694-1.99.083 0 1.728-.025 1.728-.025l1.43.011s.23.015.3.015c.368.937.65 1.642.773 2.002l.024.036h2.4l-3.878-8.714h-1.642zM81.766 23.633c.07.911.105 3.217.105 4.057 0 .775 0 3.368-.133 4.487v.088h2.446l-.01-.088c-.13-1.126-.14-3.712-.14-4.487 0-.605.02-1.955.081-3.046.186-.013.468-.042.66-.042 1.131-.02 1.93.212 2.305.686.18.205.26.482.26.786 0 1.007-.94 1.517-1.818 1.563-.295.012-.513-.026-.513-.026l-.171-.03.093.16c.87 1.263 2.168 3.452 2.704 4.488l.016.036h2.613l-.065-.118a744.948 744.948 0 0 1-2.531-3.713s-.033-.03-.064-.065c1.34-.4 1.987-1.148 1.987-2.295 0-2.007-2.182-2.484-4.024-2.523H81.76l.007.082M93.722 23.55h-2.328l.012.083c.06.911.107 3.217.107 4.057 0 .771-.01 3.36-.12 4.487l-.009.088H93.8l-.013-.088c-.092-1.126-.122-3.716-.122-4.487 0-.84.058-3.146.122-4.057v-.082h-.064M99.136 24.517c1.706.014 2.326.357 2.326 1.277 0 .254-.078.479-.233.651-.308.389-.965.59-1.765.54h-.039l-.47 1.23h.47c.938-.027 1.743.266 2.16.776.204.232.3.51.3.795 0 .961-.852 1.458-2.535 1.458-.271 0-.726 0-1.01-.01-.071-1.283-.071-3.02-.071-3.544 0-.605.023-1.955.07-3.109.184-.039.503-.064.797-.064zM96 23.633c.07.911.113 3.217.113 4.057 0 .775 0 3.368-.123 4.487l-.02.088h4.068c1.99 0 4.108-.62 4.108-2.388 0-1.108-.805-1.926-2.321-2.374 1.116-.298 1.868-1.058 1.868-1.928 0-1.443-1.665-1.987-3.214-2.024H95.99l.01.082zM109.122 26.112c.197.407.694 1.566 1.26 2.952-.086 0-.192.009-.192.009l-1.068.015s-1.114-.024-1.279-.024a81.905 81.905 0 0 1 1.28-2.952zm1.006-2.561h-1.636l-.01.039c-.49 1.319-3.57 8.003-3.828 8.557l-.046.118h2.082l.013-.052c.173-.597.415-1.267.686-2 .066 0 1.72-.027 1.72-.027l1.433.022.304.004c.376.937.656 1.649.777 2.001l.023.052h2.409l-3.875-8.714h-.052zM114.736 25.804c0 1.53 1.537 2.147 2.899 2.71 1.059.42 2.168.865 2.168 1.595 0 .22-.044.406-.168.537-.255.3-.77.425-1.589.38-.812-.033-1.726-.288-2.756-.76l-.403-.194v1.9l.275.069.16.027c.508.125 1.49.356 2.465.356 2.565 0 4.095-1.021 4.095-2.709 0-1.584-1.58-2.2-2.976-2.756-1.03-.416-2.094-.828-2.094-1.508 0-.195 0-.767 1.328-.767.98 0 1.932.397 2.473.604l.493.205-.003-.326v-1.579l-.49-.088c-.498-.1-1.33-.265-2.186-.265-2.214 0-3.691 1.042-3.691 2.569"/>
    </g>
</svg>
