<?xml version="1.0" encoding="UTF-8"?>
<svg width="162px" height="34px" viewBox="0 0 162 34" version="1.1" xmlns="http://www.w3.org/2000/svg" xmlns:xlink="http://www.w3.org/1999/xlink">
    <!-- Generator: Sketch 49.2 (51160) - http://www.bohemiancoding.com/sketch -->
    <title>logo bnp paribas</title>
    <desc>Created with Sketch.</desc>
    <defs></defs>
    <g id="une-chance-pour-chaque-jeune" stroke="none" stroke-width="1" fill="none" fill-rule="evenodd">
        <g id="une-chance-pour-chaque-jeune---consultation" transform="translate(-417.000000, -338.000000)">
            <g id="une" transform="translate(0.000000, 80.000000)">
                <g id="identite" transform="translate(395.000000, 233.000000)">
                    <g id="partenaires">
                        <g id="Group-5" transform="translate(22.000000, 19.000000)">
                            <g id="logo-bnp-paribas" transform="translate(0.000000, 6.000000)">
                                <g id="Group-4" transform="translate(4.000000, 5.000000)" fill="#000000">
                                    <path d="M23.3644818,5.10765957 C21.3168545,6.29910638 20.6889545,6.39893617 18.4605682,7.71625532 C19.7588136,6.32587234 20.2088818,5.73412766 21.0124182,4.56944681 C18.9582045,4.67723404 15.97385,4.92174468 13.8435273,5.38761702 C15.6979545,4.40885106 19.3753409,3.31940426 21.3168545,3.06042553 C20.8660545,2.44625532 17.2230636,0.495957447 16.3170727,0.120510638 C19.2011682,0.34187234 22.7256045,1.40744681 24.4351318,2.44046809 C25.1069409,2.23285106 25.8058273,2.2227234 27.0579682,2.11276596 C26.7396273,2.65387234 26.7249909,2.96565957 25.497,3.77153191 C25.8372955,4.67 25.0257091,9.61519149 24.3539,10.9245532 C24.32975,8.85634043 24.1467955,6.24412766 23.3644818,5.10765957" id="Fill-2"></path>
                                    <path d="M8.36586818,22.8469787 C7.18837273,22.4158298 6.34092727,21.9130638 5.40785909,21.050766 C5.68741364,20.2882979 6.00575455,19.6929362 6.52607727,18.9290213 C5.56885909,19.0708085 4.86411818,19.1771489 4.03935909,19.331234 C3.36828182,18.1701702 3.06384545,17.0510638 2.72208636,15.4906809 C2.53913182,17.1436596 2.46960909,18.3228085 2.70525455,19.6386809 C1.94855455,19.8470213 1.41286364,20.0285957 0.790086364,20.306383 C1.66314545,20.8337447 2.36715455,21.2402979 3.34193636,21.6895319 C3.86518636,22.799234 4.40673182,23.5494043 5.28491364,24.4051915 C5.07927273,23.676 5.02438636,23.0965532 5.10927727,22.3311915 C6.19749091,22.6451489 7.12909545,22.8100851 8.36586818,22.8469787" id="Fill-3"></path>
                                    <path d="M11.4299909,6.40182979 C11.06335,6.87276596 10.6381636,7.75025532 10.5232682,8.15680851 C13.5573864,8.56408511 15.9906818,10.1042128 15.9906818,10.1042128 C13.3385727,9.63906383 11.9408,9.69693617 10.95065,9.78446809 C9.96708636,9.87634043 9.76510455,9.9906383 9.76510455,9.9906383 C9.04938636,11.5408936 8.61980909,14.2015745 8.61980909,14.2015745 C8.13754091,13.0513617 7.44011818,10.7480426 7.44011818,10.7480426 C6.10162273,11.4562553 3.02286364,14.3173191 3.02286364,14.3173191 C4.71482727,10.967234 6.43313636,9.44302128 6.43313636,9.44302128 C5.84255909,8.85055319 4.29183636,8.55540426 3.15898182,8.50621277 C3.74663182,8.26893617 5.25710455,7.99042553 6.41703636,7.93761702 C7.57843182,7.90578723 8.28097727,7.97017021 8.28097727,7.97017021 C9.3165,7.16212766 10.8884455,6.48140426 11.4299909,6.40182979" id="Fill-4"></path>
                                    <path d="M14.6485273,20.7693617 C14.1128364,21.4877021 13.6517909,22.0519574 13.0582864,22.7080851 C12.0374,22.9916596 11.2228864,23.0965532 10.2276136,23.0965532 C10.8386818,23.4083404 11.4299909,23.5949787 12.0674045,23.7266383 C11.4299909,24.2966809 10.8913727,24.703234 10.2722545,25.0924255 C11.3099727,24.8493617 12.67335,24.4138723 13.6891136,23.8206809 C14.2196818,23.8409362 14.7158545,23.8069362 15.0788364,23.7360426 C14.9844318,23.4322128 14.9258864,23.2050638 14.8490455,22.8100851 C15.8048,22.078 16.5000273,21.4153617 17.29405,20.6188936 C16.4480682,21.2034043 15.7177136,21.6388936 14.7378091,22.0968085 C14.6953636,21.6504681 14.6712136,21.2728511 14.6485273,20.7693617" id="Fill-5"></path>
                                    <path d="M43.15065,8.44544681 C45.3848909,8.46353191 46.2037955,8.91276596 46.2037955,10.1150638 C46.2037955,10.4471064 46.1013409,10.7415319 45.9022864,10.9665106 C45.4749045,11.4750638 44.6420955,11.738383 43.5773,11.6725532 L43.5231455,11.6725532 L42.8989045,13.2799574 L43.5231455,13.2799574 C44.7569909,13.245234 45.8298364,13.6293617 46.3808955,14.295617 C46.6348364,14.5987234 46.7621727,14.9625957 46.7621727,15.3358723 C46.7621727,16.5924255 45.6424909,17.2420426 43.4324,17.2420426 C43.0599045,17.2420426 42.4539591,17.2420426 42.0792682,17.2297447 C42.0156,15.5507234 41.9877909,13.2799574 41.9877909,12.5948936 C41.9877909,11.8034894 42.03975,10.038383 42.0792682,8.5293617 C42.3339409,8.478 42.7562,8.44544681 43.15065,8.44544681 Z M39.0107545,7.2887234 C39.0802773,8.48089362 39.1512636,11.4960426 39.1512636,12.5948936 C39.1512636,13.608383 39.1490682,16.9989787 38.9712364,18.4617021 L38.9587955,18.5774468 L44.3200955,18.5774468 C46.9539091,18.5774468 49.7406727,17.7665106 49.7406727,15.4545106 C49.7406727,14.0062553 48.6795364,12.9363404 46.6955773,12.350383 C48.1679955,11.9604681 49.1486318,10.9665106 49.1486318,9.82931915 C49.1486318,7.94195745 46.9539091,7.23085106 44.8916455,7.18165957 L38.9800182,7.18165957 L39.0107545,7.2887234 Z" id="Fill-6"></path>
                                    <path d="M62.1120591,7.18165957 L59.5023955,7.18165957 L59.6085091,10.0557447 C59.6590045,11.4750638 59.7080364,12.9363404 59.8097591,14.3542128 C59.6414409,13.9100426 59.4841,13.6814468 58.6915409,12.5406383 C58.6878818,12.5008511 55.9772273,8.37817021 55.0368409,7.20842553 L55.0090318,7.18165957 L51.9829636,7.18165957 L51.9829636,7.2887234 C52.0788318,8.48089362 52.1168864,11.4960426 52.1168864,12.5948936 C52.1168864,13.608383 52.1168864,16.9989787 51.9727182,18.4617021 L51.9471045,18.5774468 L54.6438545,18.5774468 L54.6438545,18.4617021 C54.4909045,15.6809362 54.4909045,12.8741277 54.4909045,10.1519574 C54.5853091,10.4818298 54.7045955,10.7654043 55.1297818,11.3875319 C55.1634455,11.4613191 59.8097591,18.1462979 60.0351591,18.5297021 L60.0585773,18.5774468 L62.2189045,18.5774468 L62.2152455,18.4617021 C62.0513182,16.9989787 62.0374136,13.608383 62.0374136,12.5948936 C62.0374136,11.4960426 62.1120591,8.48089362 62.1815818,7.2887234 L62.2152455,7.18165957 L62.1120591,7.18165957" id="Fill-7"></path>
                                    <path d="M69.1858136,8.55685106 C70.6897,8.5293617 71.7391273,8.83029787 72.2367636,9.45387234 C72.4650909,9.72225532 72.5924273,10.076 72.5924273,10.4818298 C72.5924273,12.1297447 70.7153136,12.4885532 69.1462955,12.4885532 L68.5103455,12.4531064 C68.5103455,12.4531064 68.3588591,12.4386383 68.2468909,12.4270638 C68.2359136,12.0458298 68.2359136,11.5430638 68.2359136,10.9802553 C68.2359136,10.2626383 68.2359136,9.41119149 68.2703091,8.62268085 C68.4905864,8.59446809 68.8250273,8.55685106 69.1858136,8.55685106 Z M65.2303364,7.2887234 C65.3371818,8.48089362 65.3774318,11.4960426 65.3774318,12.5948936 C65.3774318,13.608383 65.3774318,16.9989787 65.2186273,18.4617021 L65.2186273,18.5774468 L68.4269182,18.5774468 L68.4130136,18.4617021 C68.3039727,17.4098723 68.2468909,15.4031489 68.2359136,13.8695319 C68.3874,13.8760426 68.8418591,13.8999149 68.8418591,13.8999149 L69.2963182,13.9100426 C73.5174455,13.9100426 75.5701955,12.8054043 75.5701955,10.4818298 C75.5701955,7.83851064 72.6897591,7.23085106 70.2886636,7.18165957 L65.2303364,7.18165957 L65.2303364,7.2887234 Z" id="Fill-8"></path>
                                    <path d="M85.6436727,8.55685106 C87.1504864,8.5293617 88.1991818,8.83029787 88.7041364,9.45387234 C88.9353909,9.72225532 89.0524818,10.076 89.0524818,10.4818298 C89.0524818,12.1297447 87.1775636,12.4885532 85.6283045,12.4885532 L84.9930864,12.4531064 C84.9930864,12.4531064 84.8247682,12.4386383 84.7274364,12.4270638 C84.7091409,12.0458298 84.7091409,11.5401702 84.7091409,10.9802553 C84.7091409,10.2554043 84.7091409,9.41119149 84.7398773,8.62268085 C84.9396636,8.59446809 85.2865455,8.55685106 85.6436727,8.55685106 Z M81.69405,7.2887234 C81.7957727,8.48089362 81.8543182,11.4960426 81.8543182,12.5948936 C81.8543182,13.608383 81.8440727,16.9989787 81.6772182,18.4617021 L81.6772182,18.5774468 L84.8877045,18.5774468 L84.8686773,18.4617021 C84.7676864,17.4098723 84.7091409,15.4031489 84.7091409,13.8695319 C84.8591636,13.8760426 85.2865455,13.8999149 85.2865455,13.8999149 L85.7519818,13.9100426 C89.9709136,13.9100426 92.0426909,12.8054043 92.0426909,10.4818298 C92.0426909,7.83851064 89.1454227,7.23085106 86.7370091,7.18165957 L81.69405,7.18165957 L81.69405,7.2887234 Z" id="Fill-9"></path>
                                    <path d="M97.1156545,10.5375319 C97.3695955,11.0815319 98.0318909,12.5948936 98.7776136,14.4026809 C98.6619864,14.4084681 98.5192818,14.4084681 98.5192818,14.4084681 L97.1156545,14.4265532 C97.1156545,14.4265532 95.6600682,14.4084681 95.4193,14.4026809 C96.0245136,12.958766 96.6253364,11.6522979 97.1156545,10.5375319 Z M96.3333409,7.18165957 L96.2923591,7.18165957 L96.2689409,7.23953191 C95.6717773,8.85995745 91.8224136,17.1631915 91.2135409,18.4349362 L91.1630455,18.5774468 L93.8956545,18.5774468 L93.9190727,18.5137872 C94.1598409,17.7325106 94.4825727,16.8521277 94.8345773,15.9117021 C94.94435,15.9117021 97.1156545,15.8784255 97.1156545,15.8784255 L99.0022818,15.8928936 C99.0022818,15.8928936 99.3067182,15.9117021 99.3981955,15.9117021 C99.8841227,17.1371489 100.25735,18.0594894 100.419082,18.5297021 L100.45055,18.5774468 L103.616395,18.5774468 L98.5002545,7.18165957 L96.3333409,7.18165957 Z" id="Fill-10"></path>
                                    <path d="M104.904395,7.2887234 C104.996605,8.48089362 105.042709,11.4960426 105.042709,12.5948936 C105.042709,13.608383 105.042709,16.9989787 104.867073,18.4617021 L104.867073,18.5774468 L108.095855,18.5774468 L108.081218,18.4617021 C107.911436,16.9895745 107.898264,13.608383 107.898264,12.5948936 C107.898264,11.8034894 107.923145,10.038383 108.004377,8.61110638 C108.249536,8.59446809 108.6213,8.55685106 108.875241,8.55685106 C110.36815,8.5293617 111.4227,8.83391489 111.917409,9.45387234 C112.153786,9.72225532 112.260632,10.0839574 112.260632,10.4818298 C112.260632,11.7977021 111.018736,12.4646809 109.861,12.5247234 C109.471673,12.5406383 109.184068,12.4907234 109.184068,12.4907234 L108.957936,12.4531064 L109.081614,12.6621702 C110.228373,14.3129787 111.941559,17.1754894 112.649227,18.5297021 L112.671182,18.5774468 L116.118777,18.5774468 L116.033155,18.4233617 C115.892645,18.2309362 113.646695,14.9633191 112.692405,13.5678723 C112.692405,13.5678723 112.649227,13.5273617 112.608977,13.4825106 C114.377782,12.958766 115.231082,11.9807234 115.231082,10.4818298 C115.231082,7.85731915 112.351377,7.23302128 109.921009,7.18165957 L104.895614,7.18165957 L104.904395,7.2887234" id="Fill-11"></path>
                                    <path d="M120.682395,7.18165957 L117.609491,7.18165957 L117.626323,7.2887234 C117.705359,8.48089362 117.767564,11.4960426 117.767564,12.5948936 C117.767564,13.6033191 117.753659,16.9895745 117.609491,18.4617021 L117.59705,18.5774468 L120.784118,18.5774468 L120.766555,18.4617021 C120.645073,16.9895745 120.606286,13.6033191 120.606286,12.5948936 C120.606286,11.4960426 120.682395,8.48089362 120.766555,7.2887234 L120.766555,7.18165957 L120.682395,7.18165957" id="Fill-12"></path>
                                    <path d="M127.826405,8.44544681 C130.078941,8.46353191 130.896382,8.91276596 130.896382,10.1150638 C130.896382,10.4471064 130.793195,10.7415319 130.589018,10.9665106 C130.182859,11.4750638 129.315655,11.738383 128.260373,11.6725532 L128.208414,11.6725532 L127.588564,13.2799574 L128.208414,13.2799574 C129.44665,13.245234 130.50925,13.6293617 131.059577,14.295617 C131.328155,14.5987234 131.455491,14.9625957 131.455491,15.3358723 C131.455491,16.5924255 130.329955,17.2420426 128.108886,17.2420426 C127.751759,17.2420426 127.151668,17.2420426 126.775514,17.2297447 C126.682573,15.5507234 126.682573,13.2799574 126.682573,12.5948936 C126.682573,11.8034894 126.712577,10.038383 126.775514,8.5293617 C127.018477,8.478 127.439273,8.44544681 127.826405,8.44544681 Z M123.688705,7.2887234 C123.780914,8.48089362 123.837264,11.4960426 123.837264,12.5948936 C123.837264,13.608383 123.837264,16.9989787 123.675532,18.4617021 L123.649918,18.5774468 L129.017805,18.5774468 C131.643568,18.5774468 134.438382,17.7665106 134.438382,15.4545106 C134.438382,14.0062553 133.376514,12.9363404 131.374991,12.350383 C132.848141,11.9604681 133.840486,10.9665106 133.840486,9.82931915 C133.840486,7.94195745 131.643568,7.23085106 129.5996,7.18165957 L123.675532,7.18165957 L123.688705,7.2887234 Z" id="Fill-13"></path>
                                    <path d="M141.005718,10.5310213 C141.264782,11.0627234 141.920491,12.5789787 142.668409,14.3918298 C142.554245,14.3918298 142.4152,14.4026809 142.4152,14.4026809 L141.005718,14.4222128 C141.005718,14.4222128 139.535495,14.3918298 139.317414,14.3918298 C139.914577,12.9363404 140.500032,11.6392766 141.005718,10.5310213 Z M142.332505,7.18165957 L140.174373,7.18165957 L140.159736,7.23302128 C139.515005,8.95761702 135.449755,17.6985106 135.108727,18.4233617 L135.048718,18.5774468 L137.795964,18.5774468 L137.812795,18.5094468 C138.041855,17.7281702 138.360195,16.8521277 138.718786,15.8928936 C138.805141,15.8928936 140.988886,15.8588936 140.988886,15.8588936 L142.879173,15.8878298 C142.879173,15.8878298 143.208491,15.8928936 143.280209,15.8928936 C143.777114,17.117617 144.14595,18.0486383 144.306218,18.5094468 L144.336223,18.5774468 L147.515241,18.5774468 L142.401295,7.18165957 L142.332505,7.18165957 Z" id="Fill-14"></path>
                                    <path d="M148.413914,10.1280851 C148.413914,12.1297447 150.442514,12.9363404 152.239127,13.672766 C153.6369,14.2225532 155.100536,14.8027234 155.100536,15.757617 C155.100536,16.0462553 155.041991,16.2893191 154.879527,16.4600426 C154.542891,16.8521277 153.863032,17.0163404 152.782136,16.9577447 C151.710023,16.9143404 150.503986,16.5808511 149.145,15.9630638 L148.6137,15.7091489 L148.6137,18.1933191 L148.976682,18.2837447 L149.187445,18.3199149 C149.857791,18.4834043 151.153109,18.7850638 152.440377,18.7850638 C155.825036,18.7850638 157.844855,17.4496596 157.844855,15.2432766 C157.844855,13.1707234 155.759173,12.3655745 153.916455,11.6392766 C152.557468,11.0952766 151.153109,10.5563404 151.153109,9.6672766 C151.153109,9.41119149 151.153109,8.66391489 152.906545,8.66391489 C154.199668,8.66391489 155.4562,9.18331915 156.169723,9.45387234 L156.820309,9.72225532 L156.815918,9.29544681 L156.815918,7.23085106 L156.169723,7.11510638 C155.511818,6.98417021 154.414823,6.76859574 153.284164,6.76859574 C150.363477,6.76859574 148.413914,8.13148936 148.413914,10.1280851" id="Fill-15"></path>
                                </g>
                                <g id="Group-4">
                                    <polygon id="Fill-1" fill="#110F11" points="0.469827273 33.2765957 33.6614409 33.2765957 33.6614409 0.466595745 0.469827273 0.466595745"></polygon>
                                    <path d="M26.3644818,9.10765957 C24.3168545,10.2991064 23.6889545,10.3989362 21.4605682,11.7162553 C22.7588136,10.3258723 23.2088818,9.73412766 24.0124182,8.56944681 C21.9582045,8.67723404 18.97385,8.92174468 16.8435273,9.38761702 C18.6979545,8.40885106 22.3753409,7.31940426 24.3168545,7.06042553 C23.8660545,6.44625532 20.2230636,4.49595745 19.3170727,4.12051064 C22.2011682,4.34187234 25.7256045,5.40744681 27.4351318,6.44046809 C28.1069409,6.23285106 28.8058273,6.2227234 30.0579682,6.11276596 C29.7396273,6.65387234 29.7249909,6.96565957 28.497,7.77153191 C28.8372955,8.67 28.0257091,13.6151915 27.3539,14.9245532 C27.32975,12.8563404 27.1467955,10.2441277 26.3644818,9.10765957" id="Fill-2" fill="#FFFFFE"></path>
                                    <path d="M11.3658682,26.8469787 C10.1883727,26.4158298 9.34092727,25.9130638 8.40785909,25.050766 C8.68741364,24.2882979 9.00575455,23.6929362 9.52607727,22.9290213 C8.56885909,23.0708085 7.86411818,23.1771489 7.03935909,23.331234 C6.36828182,22.1701702 6.06384545,21.0510638 5.72208636,19.4906809 C5.53913182,21.1436596 5.46960909,22.3228085 5.70525455,23.6386809 C4.94855455,23.8470213 4.41286364,24.0285957 3.79008636,24.306383 C4.66314545,24.8337447 5.36715455,25.2402979 6.34193636,25.6895319 C6.86518636,26.799234 7.40673182,27.5494043 8.28491364,28.4051915 C8.07927273,27.676 8.02438636,27.0965532 8.10927727,26.3311915 C9.19749091,26.6451489 10.1290955,26.8100851 11.3658682,26.8469787" id="Fill-3" fill="#FFFFFE"></path>
                                    <path d="M14.4299909,10.4018298 C14.06335,10.872766 13.6381636,11.7502553 13.5232682,12.1568085 C16.5573864,12.5640851 18.9906818,14.1042128 18.9906818,14.1042128 C16.3385727,13.6390638 14.9408,13.6969362 13.95065,13.7844681 C12.9670864,13.8763404 12.7651045,13.9906383 12.7651045,13.9906383 C12.0493864,15.5408936 11.6198091,18.2015745 11.6198091,18.2015745 C11.1375409,17.0513617 10.4401182,14.7480426 10.4401182,14.7480426 C9.10162273,15.4562553 6.02286364,18.3173191 6.02286364,18.3173191 C7.71482727,14.967234 9.43313636,13.4430213 9.43313636,13.4430213 C8.84255909,12.8505532 7.29183636,12.5554043 6.15898182,12.5062128 C6.74663182,12.2689362 8.25710455,11.9904255 9.41703636,11.937617 C10.5784318,11.9057872 11.2809773,11.9701702 11.2809773,11.9701702 C12.3165,11.1621277 13.8884455,10.4814043 14.4299909,10.4018298" id="Fill-4" fill="#FFFFFE"></path>
                                    <path d="M17.6485273,24.7693617 C17.1128364,25.4877021 16.6517909,26.0519574 16.0582864,26.7080851 C15.0374,26.9916596 14.2228864,27.0965532 13.2276136,27.0965532 C13.8386818,27.4083404 14.4299909,27.5949787 15.0674045,27.7266383 C14.4299909,28.2966809 13.8913727,28.703234 13.2722545,29.0924255 C14.3099727,28.8493617 15.67335,28.4138723 16.6891136,27.8206809 C17.2196818,27.8409362 17.7158545,27.8069362 18.0788364,27.7360426 C17.9844318,27.4322128 17.9258864,27.2050638 17.8490455,26.8100851 C18.8048,26.078 19.5000273,25.4153617 20.29405,24.6188936 C19.4480682,25.2034043 18.7177136,25.6388936 17.7378091,26.0968085 C17.6953636,25.6504681 17.6712136,25.2728511 17.6485273,24.7693617" id="Fill-5" fill="#FFFFFE"></path>
                                    <path d="M46.15065,12.4454468 C48.3848909,12.4635319 49.2037955,12.912766 49.2037955,14.1150638 C49.2037955,14.4471064 49.1013409,14.7415319 48.9022864,14.9665106 C48.4749045,15.4750638 47.6420955,15.738383 46.5773,15.6725532 L46.5231455,15.6725532 L45.8989045,17.2799574 L46.5231455,17.2799574 C47.7569909,17.245234 48.8298364,17.6293617 49.3808955,18.295617 C49.6348364,18.5987234 49.7621727,18.9625957 49.7621727,19.3358723 C49.7621727,20.5924255 48.6424909,21.2420426 46.4324,21.2420426 C46.0599045,21.2420426 45.4539591,21.2420426 45.0792682,21.2297447 C45.0156,19.5507234 44.9877909,17.2799574 44.9877909,16.5948936 C44.9877909,15.8034894 45.03975,14.038383 45.0792682,12.5293617 C45.3339409,12.478 45.7562,12.4454468 46.15065,12.4454468 Z M42.0107545,11.2887234 C42.0802773,12.4808936 42.1512636,15.4960426 42.1512636,16.5948936 C42.1512636,17.608383 42.1490682,20.9989787 41.9712364,22.4617021 L41.9587955,22.5774468 L47.3200955,22.5774468 C49.9539091,22.5774468 52.7406727,21.7665106 52.7406727,19.4545106 C52.7406727,18.0062553 51.6795364,16.9363404 49.6955773,16.350383 C51.1679955,15.9604681 52.1486318,14.9665106 52.1486318,13.8293191 C52.1486318,11.9419574 49.9539091,11.2308511 47.8916455,11.1816596 L41.9800182,11.1816596 L42.0107545,11.2887234 Z" id="Fill-6" fill="#FFFFFF"></path>
                                    <path d="M65.1120591,11.1816596 L62.5023955,11.1816596 L62.6085091,14.0557447 C62.6590045,15.4750638 62.7080364,16.9363404 62.8097591,18.3542128 C62.6414409,17.9100426 62.4841,17.6814468 61.6915409,16.5406383 C61.6878818,16.5008511 58.9772273,12.3781702 58.0368409,11.2084255 L58.0090318,11.1816596 L54.9829636,11.1816596 L54.9829636,11.2887234 C55.0788318,12.4808936 55.1168864,15.4960426 55.1168864,16.5948936 C55.1168864,17.608383 55.1168864,20.9989787 54.9727182,22.4617021 L54.9471045,22.5774468 L57.6438545,22.5774468 L57.6438545,22.4617021 C57.4909045,19.6809362 57.4909045,16.8741277 57.4909045,14.1519574 C57.5853091,14.4818298 57.7045955,14.7654043 58.1297818,15.3875319 C58.1634455,15.4613191 62.8097591,22.1462979 63.0351591,22.5297021 L63.0585773,22.5774468 L65.2189045,22.5774468 L65.2152455,22.4617021 C65.0513182,20.9989787 65.0374136,17.608383 65.0374136,16.5948936 C65.0374136,15.4960426 65.1120591,12.4808936 65.1815818,11.2887234 L65.2152455,11.1816596 L65.1120591,11.1816596" id="Fill-7" fill="#FFFFFF"></path>
                                    <path d="M72.1858136,12.5568511 C73.6897,12.5293617 74.7391273,12.8302979 75.2367636,13.4538723 C75.4650909,13.7222553 75.5924273,14.076 75.5924273,14.4818298 C75.5924273,16.1297447 73.7153136,16.4885532 72.1462955,16.4885532 L71.5103455,16.4531064 C71.5103455,16.4531064 71.3588591,16.4386383 71.2468909,16.4270638 C71.2359136,16.0458298 71.2359136,15.5430638 71.2359136,14.9802553 C71.2359136,14.2626383 71.2359136,13.4111915 71.2703091,12.6226809 C71.4905864,12.5944681 71.8250273,12.5568511 72.1858136,12.5568511 Z M68.2303364,11.2887234 C68.3371818,12.4808936 68.3774318,15.4960426 68.3774318,16.5948936 C68.3774318,17.608383 68.3774318,20.9989787 68.2186273,22.4617021 L68.2186273,22.5774468 L71.4269182,22.5774468 L71.4130136,22.4617021 C71.3039727,21.4098723 71.2468909,19.4031489 71.2359136,17.8695319 C71.3874,17.8760426 71.8418591,17.8999149 71.8418591,17.8999149 L72.2963182,17.9100426 C76.5174455,17.9100426 78.5701955,16.8054043 78.5701955,14.4818298 C78.5701955,11.8385106 75.6897591,11.2308511 73.2886636,11.1816596 L68.2303364,11.1816596 L68.2303364,11.2887234 Z" id="Fill-8" fill="#FFFFFF"></path>
                                    <path d="M88.6436727,12.5568511 C90.1504864,12.5293617 91.1991818,12.8302979 91.7041364,13.4538723 C91.9353909,13.7222553 92.0524818,14.076 92.0524818,14.4818298 C92.0524818,16.1297447 90.1775636,16.4885532 88.6283045,16.4885532 L87.9930864,16.4531064 C87.9930864,16.4531064 87.8247682,16.4386383 87.7274364,16.4270638 C87.7091409,16.0458298 87.7091409,15.5401702 87.7091409,14.9802553 C87.7091409,14.2554043 87.7091409,13.4111915 87.7398773,12.6226809 C87.9396636,12.5944681 88.2865455,12.5568511 88.6436727,12.5568511 Z M84.69405,11.2887234 C84.7957727,12.4808936 84.8543182,15.4960426 84.8543182,16.5948936 C84.8543182,17.608383 84.8440727,20.9989787 84.6772182,22.4617021 L84.6772182,22.5774468 L87.8877045,22.5774468 L87.8686773,22.4617021 C87.7676864,21.4098723 87.7091409,19.4031489 87.7091409,17.8695319 C87.8591636,17.8760426 88.2865455,17.8999149 88.2865455,17.8999149 L88.7519818,17.9100426 C92.9709136,17.9100426 95.0426909,16.8054043 95.0426909,14.4818298 C95.0426909,11.8385106 92.1454227,11.2308511 89.7370091,11.1816596 L84.69405,11.1816596 L84.69405,11.2887234 Z" id="Fill-9" fill="#FFFFFF"></path>
                                    <path d="M100.115655,14.5375319 C100.369595,15.0815319 101.031891,16.5948936 101.777614,18.4026809 C101.661986,18.4084681 101.519282,18.4084681 101.519282,18.4084681 L100.115655,18.4265532 C100.115655,18.4265532 98.6600682,18.4084681 98.4193,18.4026809 C99.0245136,16.958766 99.6253364,15.6522979 100.115655,14.5375319 Z M99.3333409,11.1816596 L99.2923591,11.1816596 L99.2689409,11.2395319 C98.6717773,12.8599574 94.8224136,21.1631915 94.2135409,22.4349362 L94.1630455,22.5774468 L96.8956545,22.5774468 L96.9190727,22.5137872 C97.1598409,21.7325106 97.4825727,20.8521277 97.8345773,19.9117021 C97.94435,19.9117021 100.115655,19.8784255 100.115655,19.8784255 L102.002282,19.8928936 C102.002282,19.8928936 102.306718,19.9117021 102.398195,19.9117021 C102.884123,21.1371489 103.25735,22.0594894 103.419082,22.5297021 L103.45055,22.5774468 L106.616395,22.5774468 L101.500255,11.1816596 L99.3333409,11.1816596 Z" id="Fill-10" fill="#FFFFFF"></path>
                                    <path d="M107.904395,11.2887234 C107.996605,12.4808936 108.042709,15.4960426 108.042709,16.5948936 C108.042709,17.608383 108.042709,20.9989787 107.867073,22.4617021 L107.867073,22.5774468 L111.095855,22.5774468 L111.081218,22.4617021 C110.911436,20.9895745 110.898264,17.608383 110.898264,16.5948936 C110.898264,15.8034894 110.923145,14.038383 111.004377,12.6111064 C111.249536,12.5944681 111.6213,12.5568511 111.875241,12.5568511 C113.36815,12.5293617 114.4227,12.8339149 114.917409,13.4538723 C115.153786,13.7222553 115.260632,14.0839574 115.260632,14.4818298 C115.260632,15.7977021 114.018736,16.4646809 112.861,16.5247234 C112.471673,16.5406383 112.184068,16.4907234 112.184068,16.4907234 L111.957936,16.4531064 L112.081614,16.6621702 C113.228373,18.3129787 114.941559,21.1754894 115.649227,22.5297021 L115.671182,22.5774468 L119.118777,22.5774468 L119.033155,22.4233617 C118.892645,22.2309362 116.646695,18.9633191 115.692405,17.5678723 C115.692405,17.5678723 115.649227,17.5273617 115.608977,17.4825106 C117.377782,16.958766 118.231082,15.9807234 118.231082,14.4818298 C118.231082,11.8573191 115.351377,11.2330213 112.921009,11.1816596 L107.895614,11.1816596 L107.904395,11.2887234" id="Fill-11" fill="#FFFFFF"></path>
                                    <path d="M123.682395,11.1816596 L120.609491,11.1816596 L120.626323,11.2887234 C120.705359,12.4808936 120.767564,15.4960426 120.767564,16.5948936 C120.767564,17.6033191 120.753659,20.9895745 120.609491,22.4617021 L120.59705,22.5774468 L123.784118,22.5774468 L123.766555,22.4617021 C123.645073,20.9895745 123.606286,17.6033191 123.606286,16.5948936 C123.606286,15.4960426 123.682395,12.4808936 123.766555,11.2887234 L123.766555,11.1816596 L123.682395,11.1816596" id="Fill-12" fill="#FFFFFF"></path>
                                    <path d="M130.826405,12.4454468 C133.078941,12.4635319 133.896382,12.912766 133.896382,14.1150638 C133.896382,14.4471064 133.793195,14.7415319 133.589018,14.9665106 C133.182859,15.4750638 132.315655,15.738383 131.260373,15.6725532 L131.208414,15.6725532 L130.588564,17.2799574 L131.208414,17.2799574 C132.44665,17.245234 133.50925,17.6293617 134.059577,18.295617 C134.328155,18.5987234 134.455491,18.9625957 134.455491,19.3358723 C134.455491,20.5924255 133.329955,21.2420426 131.108886,21.2420426 C130.751759,21.2420426 130.151668,21.2420426 129.775514,21.2297447 C129.682573,19.5507234 129.682573,17.2799574 129.682573,16.5948936 C129.682573,15.8034894 129.712577,14.038383 129.775514,12.5293617 C130.018477,12.478 130.439273,12.4454468 130.826405,12.4454468 Z M126.688705,11.2887234 C126.780914,12.4808936 126.837264,15.4960426 126.837264,16.5948936 C126.837264,17.608383 126.837264,20.9989787 126.675532,22.4617021 L126.649918,22.5774468 L132.017805,22.5774468 C134.643568,22.5774468 137.438382,21.7665106 137.438382,19.4545106 C137.438382,18.0062553 136.376514,16.9363404 134.374991,16.350383 C135.848141,15.9604681 136.840486,14.9665106 136.840486,13.8293191 C136.840486,11.9419574 134.643568,11.2308511 132.5996,11.1816596 L126.675532,11.1816596 L126.688705,11.2887234 Z" id="Fill-13" fill="#FFFFFF"></path>
                                    <path d="M144.005718,14.5310213 C144.264782,15.0627234 144.920491,16.5789787 145.668409,18.3918298 C145.554245,18.3918298 145.4152,18.4026809 145.4152,18.4026809 L144.005718,18.4222128 C144.005718,18.4222128 142.535495,18.3918298 142.317414,18.3918298 C142.914577,16.9363404 143.500032,15.6392766 144.005718,14.5310213 Z M145.332505,11.1816596 L143.174373,11.1816596 L143.159736,11.2330213 C142.515005,12.957617 138.449755,21.6985106 138.108727,22.4233617 L138.048718,22.5774468 L140.795964,22.5774468 L140.812795,22.5094468 C141.041855,21.7281702 141.360195,20.8521277 141.718786,19.8928936 C141.805141,19.8928936 143.988886,19.8588936 143.988886,19.8588936 L145.879173,19.8878298 C145.879173,19.8878298 146.208491,19.8928936 146.280209,19.8928936 C146.777114,21.117617 147.14595,22.0486383 147.306218,22.5094468 L147.336223,22.5774468 L150.515241,22.5774468 L145.401295,11.1816596 L145.332505,11.1816596 Z" id="Fill-14" fill="#FFFFFF"></path>
                                    <path d="M151.413914,14.1280851 C151.413914,16.1297447 153.442514,16.9363404 155.239127,17.672766 C156.6369,18.2225532 158.100536,18.8027234 158.100536,19.757617 C158.100536,20.0462553 158.041991,20.2893191 157.879527,20.4600426 C157.542891,20.8521277 156.863032,21.0163404 155.782136,20.9577447 C154.710023,20.9143404 153.503986,20.5808511 152.145,19.9630638 L151.6137,19.7091489 L151.6137,22.1933191 L151.976682,22.2837447 L152.187445,22.3199149 C152.857791,22.4834043 154.153109,22.7850638 155.440377,22.7850638 C158.825036,22.7850638 160.844855,21.4496596 160.844855,19.2432766 C160.844855,17.1707234 158.759173,16.3655745 156.916455,15.6392766 C155.557468,15.0952766 154.153109,14.5563404 154.153109,13.6672766 C154.153109,13.4111915 154.153109,12.6639149 155.906545,12.6639149 C157.199668,12.6639149 158.4562,13.1833191 159.169723,13.4538723 L159.820309,13.7222553 L159.815918,13.2954468 L159.815918,11.2308511 L159.169723,11.1151064 C158.511818,10.9841702 157.414823,10.7685957 156.284164,10.7685957 C153.363477,10.7685957 151.413914,12.1314894 151.413914,14.1280851" id="Fill-15" fill="#FFFFFF"></path>
                                </g>
                            </g>
                        </g>
                    </g>
                </g>
            </g>
        </g>
    </g>
</svg>