<?xml version="1.0" encoding="UTF-8"?>
<svg width="76px" height="30px" viewBox="0 -2 76 26" version="1.1" xmlns="http://www.w3.org/2000/svg" xmlns:xlink="http://www.w3.org/1999/xlink">
    <!-- Generator: Sketch 49.2 (51160) - http://www.bohemiancoding.com/sketch -->
    <title>google</title>
    <desc>Created with Sketch.</desc>
    <defs></defs>
    <g id="une-chance-pour-chaque-jeune" stroke="none" stroke-width="1" fill="none" fill-rule="evenodd">
        <g id="une-chance-pour-chaque-jeune---consultation" transform="translate(-836.000000, -341.000000)" fill-rule="nonzero">
            <g id="une" transform="translate(0.000000, 80.000000)">
                <g id="identite" transform="translate(395.000000, 233.000000)">
                    <g id="partenaires">
                        <g id="Group-5" transform="translate(22.000000, 19.000000)">
                            <g id="google" transform="translate(419.000000, 9.000000)">
                                <path d="M10.6681338,20.1914894 C5.41549296,20.1914894 1,15.8856383 1,10.5957447 C1,5.30585106 5.41549296,1 10.6681338,1 C13.5730634,1 15.6408451,2.1462766 17.1989437,3.64361702 L15.3635563,5.49202128 C14.2491197,4.43882979 12.7385563,3.61968085 10.6681338,3.61968085 C6.83362676,3.61968085 3.83626761,6.73138298 3.83626761,10.5930851 C3.83626761,14.4547872 6.83362676,17.5691489 10.6681338,17.5691489 C13.1558099,17.5691489 14.5713028,16.5638298 15.4797535,15.6489362 C16.2244718,14.8989362 16.7103873,13.8244681 16.8978873,12.3484043 L10.6919014,12.3484043 L10.6919014,9.72606383 L19.4278169,9.72606383 C19.5202465,10.1941489 19.5677817,10.7553191 19.5677817,11.3643617 C19.5677817,13.3297872 19.034331,15.7632979 17.3125,17.4973404 C15.6408451,19.2553191 13.5017606,20.1914894 10.6681338,20.1914894 Z" id="Shape" fill="#000000"></path>
                                <path d="M32.6769366,14.0132979 C32.6769366,17.5718085 29.9198944,20.1914894 26.5369718,20.1914894 C23.1540493,20.1914894 20.397007,17.5691489 20.397007,14.0132979 C20.397007,10.4335106 23.1540493,7.83510638 26.5369718,7.83510638 C29.9198944,7.83510638 32.6769366,10.4308511 32.6769366,14.0132979 Z M29.9885563,14.0132979 C29.9885563,11.7898936 28.3908451,10.268617 26.5369718,10.268617 C24.6830986,10.268617 23.0853873,11.7898936 23.0853873,14.0132979 C23.0853873,16.212766 24.6830986,17.7579787 26.5369718,17.7579787 C28.3908451,17.7579787 29.9885563,16.212766 29.9885563,14.0132979 Z" id="Shape" fill="#000000"></path>
                                <path d="M46.1637324,14.0132979 C46.1637324,17.5718085 43.3987676,20.1914894 40.0052817,20.1914894 C36.6117958,20.1914894 33.846831,17.5691489 33.846831,14.0132979 C33.846831,10.4335106 36.6117958,7.83510638 40.0052817,7.83510638 C43.3987676,7.83510638 46.1637324,10.4308511 46.1637324,14.0132979 Z M43.4674296,14.0132979 C43.4674296,11.7898936 41.8644366,10.268617 40.0052817,10.268617 C38.1461268,10.268617 36.5431338,11.7898936 36.5431338,14.0132979 C36.5431338,16.212766 38.1461268,17.7579787 40.0052817,17.7579787 C41.8644366,17.7579787 43.4674296,16.212766 43.4674296,14.0132979 Z" id="Shape" fill="#000000"></path>
                                <path d="M59.0193662,8.20744681 L59.0193662,19.3005319 C59.0193662,23.8643617 56.346831,25.7367021 53.1857394,25.7367021 C50.2121479,25.7367021 48.4216549,23.7234043 47.7482394,22.0851064 L50.0959507,21.1010638 C50.5132042,22.106383 51.5378521,23.3005319 53.1857394,23.3005319 C55.2086268,23.3005319 56.4630282,22.037234 56.4630282,19.6728723 L56.4630282,18.7845745 L56.3705986,18.7845745 C55.7658451,19.5345745 54.6038732,20.1888298 53.1408451,20.1888298 C50.0721831,20.1888298 47.2676056,17.4973404 47.2676056,14.0345745 C47.2676056,10.5478723 50.0721831,7.83244681 53.1408451,7.83244681 C54.6038732,7.83244681 55.7658451,8.48670213 56.3705986,9.21276596 L56.4630282,9.21276596 L56.4630282,8.20744681 L59.0193662,8.20744681 Z M56.6478873,14.0345745 C56.6478873,11.8590426 55.2059859,10.2659574 53.3705986,10.2659574 C51.5114437,10.2659574 49.9533451,11.856383 49.9533451,14.0345745 C49.9533451,16.1888298 51.5114437,17.7553191 53.3705986,17.7553191 C55.2086268,17.7579787 56.6478873,16.1888298 56.6478873,14.0345745 Z" id="Shape" fill="#000000"></path>
                                <polygon id="Shape" fill="#000000" points="63.352993 1.73138298 63.352993 19.8164894 60.6725352 19.8164894 60.6725352 1.73138298"></polygon>
                                <path d="M73.6760563,16.0478723 L75.7676056,17.4521277 C75.0941901,18.4574468 73.4674296,20.1914894 70.6549296,20.1914894 C67.1690141,20.1914894 64.5651408,17.4760638 64.5651408,14.0132979 C64.5651408,10.337766 67.1901408,7.83510638 70.3512324,7.83510638 C73.5360915,7.83510638 75.0915493,10.3856383 75.6038732,11.7659574 L75.8838028,12.4680851 L67.681338,15.8856383 C68.3098592,17.125 69.284331,17.7579787 70.6549296,17.7579787 C72.0255282,17.7579787 72.9788732,17.0771277 73.6760563,16.0478723 Z M67.2376761,13.8244681 L72.7227113,11.5319149 C72.4216549,10.7606383 71.5132042,10.2207447 70.4463028,10.2207447 C69.0730634,10.2207447 67.1690141,11.4388298 67.2376761,13.8244681 Z" id="Shape" fill="#000000"></path>
                                <path d="M9.6681338,19.1914894 C4.41549296,19.1914894 0,14.8856383 0,9.59574468 C0,4.30585106 4.41549296,0 9.6681338,0 C12.5730634,0 14.6408451,1.1462766 16.1989437,2.64361702 L14.3635563,4.49202128 C13.2491197,3.43882979 11.7385563,2.61968085 9.6681338,2.61968085 C5.83362676,2.61968085 2.83626761,5.73138298 2.83626761,9.59308511 C2.83626761,13.4547872 5.83362676,16.5691489 9.6681338,16.5691489 C12.1558099,16.5691489 13.5713028,15.5638298 14.4797535,14.6489362 C15.2244718,13.8989362 15.7103873,12.8244681 15.8978873,11.3484043 L9.69190141,11.3484043 L9.69190141,8.72606383 L18.4278169,8.72606383 C18.5202465,9.19414894 18.5677817,9.75531915 18.5677817,10.3643617 C18.5677817,12.3297872 18.034331,14.7632979 16.3125,16.4973404 C14.6408451,18.2553191 12.5017606,19.1914894 9.6681338,19.1914894 Z" id="Shape" fill="#FFFFFF"></path>
                                <path d="M31.6769366,13.0132979 C31.6769366,16.5718085 28.9198944,19.1914894 25.5369718,19.1914894 C22.1540493,19.1914894 19.397007,16.5691489 19.397007,13.0132979 C19.397007,9.43351064 22.1540493,6.83510638 25.5369718,6.83510638 C28.9198944,6.83510638 31.6769366,9.43085106 31.6769366,13.0132979 Z M28.9885563,13.0132979 C28.9885563,10.7898936 27.3908451,9.26861702 25.5369718,9.26861702 C23.6830986,9.26861702 22.0853873,10.7898936 22.0853873,13.0132979 C22.0853873,15.212766 23.6830986,16.7579787 25.5369718,16.7579787 C27.3908451,16.7579787 28.9885563,15.212766 28.9885563,13.0132979 Z" id="Shape" fill="#FFFFFF"></path>
                                <path d="M45.1637324,13.0132979 C45.1637324,16.5718085 42.3987676,19.1914894 39.0052817,19.1914894 C35.6117958,19.1914894 32.846831,16.5691489 32.846831,13.0132979 C32.846831,9.43351064 35.6117958,6.83510638 39.0052817,6.83510638 C42.3987676,6.83510638 45.1637324,9.43085106 45.1637324,13.0132979 Z M42.4674296,13.0132979 C42.4674296,10.7898936 40.8644366,9.26861702 39.0052817,9.26861702 C37.1461268,9.26861702 35.5431338,10.7898936 35.5431338,13.0132979 C35.5431338,15.212766 37.1461268,16.7579787 39.0052817,16.7579787 C40.8644366,16.7579787 42.4674296,15.212766 42.4674296,13.0132979 Z" id="Shape" fill="#FFFFFF"></path>
                                <path d="M58.0193662,7.20744681 L58.0193662,18.3005319 C58.0193662,22.8643617 55.346831,24.7367021 52.1857394,24.7367021 C49.2121479,24.7367021 47.4216549,22.7234043 46.7482394,21.0851064 L49.0959507,20.1010638 C49.5132042,21.106383 50.5378521,22.3005319 52.1857394,22.3005319 C54.2086268,22.3005319 55.4630282,21.037234 55.4630282,18.6728723 L55.4630282,17.7845745 L55.3705986,17.7845745 C54.7658451,18.5345745 53.6038732,19.1888298 52.1408451,19.1888298 C49.0721831,19.1888298 46.2676056,16.4973404 46.2676056,13.0345745 C46.2676056,9.54787234 49.0721831,6.83244681 52.1408451,6.83244681 C53.6038732,6.83244681 54.7658451,7.48670213 55.3705986,8.21276596 L55.4630282,8.21276596 L55.4630282,7.20744681 L58.0193662,7.20744681 Z M55.6478873,13.0345745 C55.6478873,10.8590426 54.2059859,9.26595745 52.3705986,9.26595745 C50.5114437,9.26595745 48.9533451,10.856383 48.9533451,13.0345745 C48.9533451,15.1888298 50.5114437,16.7553191 52.3705986,16.7553191 C54.2086268,16.7579787 55.6478873,15.1888298 55.6478873,13.0345745 Z" id="Shape" fill="#FFFFFF"></path>
                                <polygon id="Shape" fill="#FFFFFF" points="62.352993 0.731382979 62.352993 18.8164894 59.6725352 18.8164894 59.6725352 0.731382979"></polygon>
                                <path d="M72.6760563,15.0478723 L74.7676056,16.4521277 C74.0941901,17.4574468 72.4674296,19.1914894 69.6549296,19.1914894 C66.1690141,19.1914894 63.5651408,16.4760638 63.5651408,13.0132979 C63.5651408,9.33776596 66.1901408,6.83510638 69.3512324,6.83510638 C72.5360915,6.83510638 74.0915493,9.3856383 74.6038732,10.7659574 L74.8838028,11.4680851 L66.681338,14.8856383 C67.3098592,16.125 68.284331,16.7579787 69.6549296,16.7579787 C71.0255282,16.7579787 71.9788732,16.0771277 72.6760563,15.0478723 Z M66.2376761,12.8244681 L71.7227113,10.5319149 C71.4216549,9.7606383 70.5132042,9.22074468 69.4463028,9.22074468 C68.0730634,9.22074468 66.1690141,10.4388298 66.2376761,12.8244681 Z" id="Shape" fill="#FFFFFF"></path>
                            </g>
                        </g>
                    </g>
                </g>
            </g>
        </g>
    </g>
</svg>