<svg xmlns="http://www.w3.org/2000/svg" width="80" height="27" viewBox="0 0 80 27">
    <defs>
        <filter id="a" width="100.3%" height="103.8%" x="-.1%" y="-.9%" filterUnits="objectBoundingBox">
            <feOffset dx="1" dy="1" in="SourceAlpha" result="shadowOffsetOuter1"/>
            <feColorMatrix in="shadowOffsetOuter1" result="shadowMatrixOuter1" values="0 0 0 0 0 0 0 0 0 0 0 0 0 0 0 0 0 0 1 0"/>
            <feMerge>
                <feMergeNode in="shadowMatrixOuter1"/>
                <feMergeNode in="SourceGraphic"/>
            </feMerge>
        </filter>
    </defs>
    <g fill="#FFF" fill-rule="nonzero" filter="url(#a)" transform="translate(-308 -17)">
        <path d="M318.184 36.96C312.65 36.96 308 32.48 308 26.98c0-5.502 4.651-9.98 10.184-9.98 3.06 0 5.238 1.192 6.879 2.75l-1.933 1.922c-1.174-1.096-2.765-1.948-4.946-1.948-4.04 0-7.196 3.237-7.196 7.253s3.157 7.255 7.196 7.255c2.62 0 4.111-1.046 5.068-1.997.784-.78 1.296-1.898 1.494-3.433h-6.537v-2.727h9.202a8.88 8.88 0 0 1 .147 1.704c0 2.044-.562 4.575-2.375 6.378-1.761 1.829-4.014 2.802-7 2.802zM341.366 30.534c0 3.7-2.904 6.425-6.467 6.425-3.563 0-6.467-2.727-6.467-6.425 0-3.723 2.904-6.425 6.467-6.425 3.563 0 6.467 2.7 6.467 6.425zm-2.831 0c0-2.313-1.683-3.895-3.636-3.895s-3.636 1.582-3.636 3.895c0 2.287 1.683 3.894 3.636 3.894s3.636-1.607 3.636-3.894zM355.572 30.534c0 3.7-2.912 6.425-6.486 6.425-3.575 0-6.487-2.727-6.487-6.425 0-3.723 2.912-6.425 6.487-6.425 3.574 0 6.486 2.7 6.486 6.425zm-2.84 0c0-2.313-1.688-3.895-3.646-3.895-1.959 0-3.647 1.582-3.647 3.895 0 2.287 1.688 3.894 3.647 3.894 1.958 0 3.646-1.607 3.646-3.894zM369.114 24.496v11.537c0 4.746-2.815 6.693-6.145 6.693-3.132 0-5.018-2.094-5.728-3.797l2.473-1.024c.44 1.046 1.52 2.288 3.255 2.288 2.13 0 3.452-1.314 3.452-3.773v-.924h-.097c-.637.78-1.861 1.46-3.402 1.46-3.233 0-6.187-2.799-6.187-6.4 0-3.626 2.954-6.45 6.187-6.45 1.54 0 2.765.68 3.402 1.435h.097v-1.045h2.693zm-2.498 6.06c0-2.263-1.519-3.92-3.452-3.92-1.959 0-3.6 1.655-3.6 3.92 0 2.24 1.641 3.87 3.6 3.87 1.936.002 3.452-1.63 3.452-3.87zM373.678 17.76v18.81h-2.823V17.76zM384.552 32.65l2.203 1.46c-.71 1.046-2.423 2.85-5.385 2.85-3.672 0-6.415-2.825-6.415-6.426 0-3.823 2.765-6.425 6.095-6.425 3.355 0 4.993 2.652 5.533 4.088l.295.73-8.64 3.554c.662 1.289 1.688 1.947 3.132 1.947 1.444 0 2.448-.708 3.182-1.778zm-6.782-2.313l5.778-2.384c-.317-.802-1.274-1.363-2.398-1.363-1.446 0-3.452 1.266-3.38 3.747z"/>
    </g>
</svg>
