<svg xmlns="http://www.w3.org/2000/svg" width="50" height="50" viewBox="0 0 50 50">
    <defs>
        <filter id="a" width="100.8%" height="107.8%" x="-.3%" y="-2%" filterUnits="objectBoundingBox">
            <feOffset dx="1" dy="1" in="SourceAlpha" result="shadowOffsetOuter1"/>
            <feGaussianBlur in="shadowOffsetOuter1" result="shadowBlurOuter1" stdDeviation=".5"/>
            <feColorMatrix in="shadowBlurOuter1" result="shadowMatrixOuter1" values="0 0 0 0 0 0 0 0 0 0 0 0 0 0 0 0 0 0 1 0"/>
            <feMerge>
                <feMergeNode in="shadowMatrixOuter1"/>
                <feMergeNode in="SourceGraphic"/>
            </feMerge>
        </filter>
    </defs>
    <g fill="none" fill-rule="nonzero" filter="url(#a)" transform="translate(-445 -3)">
        <path fill="#939597" d="M474.983 3.696a6.96 6.96 0 0 0-4.986 2.086c.48.43 1.03.914 1.527 1.335a4.936 4.936 0 0 1 3.459-1.403c2.732 0 4.955 2.216 4.955 4.942a4.846 4.846 0 0 1-1.455 3.497l-9.303 9.293-7.694-7.686c-.716.244-1.451.443-2.278.58l9.257 9.246c.19.19.51.423.715.423.214 0 .526-.233.716-.423l10.017-10.007c1.34-1.336 2.047-3.038 2.047-4.923 0-3.838-3.13-6.96-6.977-6.96"/>
        <path fill="#FFF" d="M484.947 14.865a32.602 32.602 0 0 1-2.698-.57c-.508.845-.79 1.212-1.284 1.745.703.202 1.423.382 2.167.538l-.3.47c-3.355 5.252-5.603 8.774-2.268 15.507-.686.766-1.725 1.512-3.05 2.187-1.903-.748-3.62-1.126-5.107-1.126-2.944 0-4.56 1.473-5.204 3.088-4.993-.451-8.084-2.98-9.21-4.08 2.272-3.685 2.853-7.128 1.726-10.242-1.208-3.343-4.197-5.18-5.98-5.969-.028-.29-.069-.89-.117-1.224a16.23 16.23 0 0 0 2.851.258h.001c4.268 0 8.405-1.825 12.068-5.295a19.286 19.286 0 0 1-1.527-1.333c-3.261 3.06-6.8 4.61-10.54 4.61h-.002c-1.25 0-2.54-.177-3.834-.528-.338-.091-.898-.23-1.16.016-.253.236-.166.812-.097 1.155.201 1.004.363 2.577.378 3.051.022.694.08.743.72.966.754.264 4.119 1.609 5.337 4.977.966 2.67.309 5.734-1.94 9.114-.374.561-.357.661.049 1.186.162.208 4.112 5.036 11.972 5.406.936.044.886-.05 1.038-.82.292-1.471 1.546-2.318 3.471-2.318 1.33 0 2.926.397 4.76 1.144.39.159.445.159.826-.022 2.137-1.014 3.682-2.2 4.595-3.505.329-.47.323-.564.066-1.049-3.227-6.079-1.512-8.753 1.884-14.07.353-.554.72-1.132 1.101-1.739.417-.663.484-1.33-.692-1.528"/>
        <path fill="#FFF" d="M458.646 12.126a4.945 4.945 0 0 1-.224-1.47c0-2.726 2.223-4.942 4.955-4.942 1.129 0 2.177.372 3.019 1.02 1.723 1.393 2.463 2.237 3.803 3.372 2.114 1.793 4.32 3.246 6.513 4.311a72.93 72.93 0 0 0 1.43-1.557c-2.327-1.058-4.851-2.766-6.912-4.528-1.133-.97-2.54-2.255-2.972-2.652v-.001a6.958 6.958 0 0 0-4.881-1.983c-3.847 0-6.977 3.122-6.977 6.96 0 .565.068 1.119.199 1.654a11.4 11.4 0 0 0 2.047-.184"/>
        <path fill="#96928F" d="M448.636 44.116h-.935c-.502-.882-.735-1.155-.935-1.155h-.335v1.155h-.748v-3.234h1.809c.665 0 .888.413.888.947 0 .463-.195.867-.809.9.219.079.46.371 1.065 1.387zm-2.205-1.768h.833c.163 0 .284-.116.284-.403 0-.293-.107-.427-.275-.427h-.842v.83zM450.9 44.051c-.236.079-.59.13-.86.13-.67 0-1.167-.292-1.167-1.267 0-.955.437-1.238 1.12-1.238.792 0 1.136.24 1.07 1.461h-1.455c.01.38.181.45.525.45.173 0 .484-.032.66-.079l.108.543zm-1.33-2.57l.573-.599h.73l-.698.599h-.604zm.042 1.132h.828c-.009-.33-.116-.4-.395-.4-.298 0-.39.098-.433.4zM452.417 44.167c-.614 0-.958-.26-.958-1.22 0-.97.362-1.271 1.172-1.271.372 0 .818.07 1.079.166v2.084c0 .951-.563 1.137-1.316 1.137-.308 0-.652-.06-.87-.14l.125-.556c.247.065.484.106.73.106.387 0 .615-.097.615-.44-.14.07-.345.134-.577.134zm.577-1.86a1.015 1.015 0 0 0-.363-.065c-.34 0-.451.083-.451.69 0 .502.097.637.432.637.21 0 .382-.065.382-.168v-1.094zM455.083 41.05c0 .32-.102.375-.403.375-.306 0-.403-.056-.403-.376 0-.292.097-.338.403-.338.3 0 .403.046.403.338zm-.047 3.066h-.713v-2.375h.713v2.375zM455.551 42.914c0-.97.396-1.238 1.153-1.238.773 0 1.164.269 1.164 1.238 0 .975-.386 1.267-1.164 1.267-.767 0-1.153-.292-1.153-1.267m.721.014c0 .599.098.696.432.696.34 0 .438-.097.438-.696 0-.621-.098-.696-.438-.696-.334 0-.432.075-.432.696M459.104 44.116h-.716V41.89a3.861 3.861 0 0 1 1.21-.213c.655 0 .981.273.981 1.127v1.313h-.717V42.86c0-.432-.07-.548-.418-.548-.116 0-.223.014-.34.042v1.763z"/>
        <g fill="#FFF">
            <path d="M446.685 50.512h-.986V46.26h.986v1.55h1.605v-1.55h.986v4.253h-.986v-1.794h-1.605z"/>
        </g>
        <g fill="#FFF">
            <path d="M452.89 50.353a4.88 4.88 0 0 1-1.488.245c-1.035 0-1.342-.22-1.342-1.038 0-.878.478-1.019 1.225-1.019.233 0 .472.03.711.08 0-.434-.098-.555-.71-.555-.362 0-.71.067-.974.146l-.147-.745a5.961 5.961 0 0 1 1.347-.164c.937 0 1.378.286 1.378 1.214v1.836zm-1.414-.451c.177 0 .373-.03.52-.085v-.592a2.122 2.122 0 0 0-.508-.043c-.337 0-.46.037-.46.348 0 .317.08.372.448.372zM455.585 47.388h.931v2.935c-.398.14-1.028.28-1.586.28-.87 0-1.286-.366-1.286-1.482v-1.733h.931v1.66c0 .56.098.72.557.72.153 0 .288-.025.453-.061v-2.319zM458.422 48.194v1.165c0 .317.092.445.422.445.196 0 .356-.036.503-.085l.153.72c-.233.097-.607.159-.944.159-.692 0-1.077-.208-1.077-1.141v-1.263h-.509v-.806h.509v-.464l.943-.378v.842h.98v.806h-.98zM462.042 48.169a3.814 3.814 0 0 0-.925-.134c-.294 0-.441.024-.441.268 0 .165.086.208.57.269.728.092 1.053.31 1.053.951 0 .849-.612 1.075-1.403 1.075-.337 0-.827-.068-1.115-.171l.184-.708c.233.067.582.128.888.128.368 0 .54-.03.54-.275 0-.17-.105-.237-.625-.286-.656-.061-1.005-.25-1.005-.916 0-.847.606-1.068 1.39-1.068.337 0 .778.068 1.073.172l-.184.695z"/>
        </g>
        <path fill="#FFF" d="M462.667 48.328h1.61v.897h-1.61z"/>
        <g fill="#FFF">
            <path d="M467.69 50.378c-.344.128-.932.22-1.422.22-1.065 0-1.543-.379-1.543-1.66 0-1.257.551-1.635 1.329-1.635.306 0 .515.06.692.134v-1.33h.943v4.27zm-.944-2.075c0-.134-.214-.237-.49-.237-.44 0-.582.195-.582.86 0 .756.147.885.594.885.16 0 .362-.025.478-.074v-1.434zM471.046 50.427a4.026 4.026 0 0 1-1.133.17c-.882 0-1.537-.384-1.537-1.665 0-1.257.575-1.63 1.476-1.63 1.04 0 1.494.318 1.409 1.923h-1.918c.013.5.24.592.693.592.226 0 .636-.043.87-.104l.14.714zm-1.696-1.892h1.09c-.012-.433-.153-.525-.521-.525-.392 0-.514.129-.57.525z"/>
        </g>
        <path fill="#FFF" d="M471.665 48.328h1.611v.897h-1.61z"/>
        <g fill="#FFF">
            <path d="M477.055 46.26v.86h-2.125v.988h1.574v.842h-1.574v1.562h-.986V46.26z"/>
        </g>
        <g fill="#FFF">
            <path d="M477.46 47.388h.943v.244c.104-.183.306-.33.76-.33.092 0 .202.007.312.019v.872a1.654 1.654 0 0 0-.44-.048c-.338 0-.632.11-.632.317v2.05h-.943v-3.124zM482.599 50.353a4.881 4.881 0 0 1-1.488.245c-1.036 0-1.342-.22-1.342-1.038 0-.878.478-1.019 1.225-1.019.233 0 .472.03.71.08 0-.434-.097-.555-.71-.555-.361 0-.71.067-.974.146l-.147-.745a5.965 5.965 0 0 1 1.348-.164c.937 0 1.378.286 1.378 1.214v1.836zm-1.415-.451c.178 0 .374-.03.52-.085v-.592a2.123 2.123 0 0 0-.508-.043c-.336 0-.46.037-.46.348 0 .317.08.372.448.372zM484.32 50.512h-.943v-2.929a5.093 5.093 0 0 1 1.593-.28c.863 0 1.292.36 1.292 1.482v1.727h-.943V48.86c0-.568-.092-.72-.551-.72-.154 0-.295.018-.448.054v2.32zM489.46 50.44c-.251.103-.674.158-.987.158-.937 0-1.562-.385-1.562-1.666 0-1.27.631-1.63 1.562-1.63.325 0 .741.05.986.135l-.196.793a2.17 2.17 0 0 0-.71-.128c-.459 0-.692.08-.692.848 0 .732.233.842.692.842.27 0 .533-.067.71-.14l.196.787zM492.473 50.427a4.026 4.026 0 0 1-1.133.17c-.882 0-1.537-.384-1.537-1.665 0-1.257.576-1.63 1.476-1.63 1.04 0 1.494.318 1.409 1.923h-1.918c.013.5.24.592.692.592.227 0 .638-.043.87-.104l.141.714zm-1.696-1.892h1.09c-.013-.433-.154-.525-.52-.525-.393 0-.515.129-.57.525z"/>
        </g>
    </g>
</svg>
