<?xml version="1.0" encoding="UTF-8"?>
<svg width="49px" height="49px" viewBox="0 0 49 49" version="1.1" xmlns="http://www.w3.org/2000/svg" xmlns:xlink="http://www.w3.org/1999/xlink">
    <!-- Generator: Sketch 49.2 (51160) - http://www.bohemiancoding.com/sketch -->
    <title>logo hauts de france</title>
    <desc>Created with Sketch.</desc>
    <defs></defs>
    <g id="une-chance-pour-chaque-jeune" stroke="none" stroke-width="1" fill="none" fill-rule="evenodd">
        <g id="une-chance-pour-chaque-jeune---consultation" transform="translate(-604.000000, -332.000000)" fill-rule="nonzero">
            <g id="une" transform="translate(0.000000, 80.000000)">
                <g id="identite" transform="translate(395.000000, 233.000000)">
                    <g id="partenaires">
                        <g id="Group-5" transform="translate(22.000000, 19.000000)">
                            <g id="logo-hauts-de-france" transform="translate(187.000000, 0.000000)">
                                <g id="Group" transform="translate(0.500000, 0.500000)" fill="#000000">
                                    <path d="M29.9829879,23.0090982 C28.0448543,23.0090982 26.2714648,22.224467 24.9965365,20.9234717 C25.476795,20.4932906 26.026555,20.0091994 26.5242808,19.5880033 C27.4228349,20.4646852 28.6466484,20.9913178 29.9829879,20.9913178 C32.7150558,20.9913178 34.9379982,18.7747667 34.9379982,16.0497363 C34.9379982,14.7111507 34.4345725,13.5014726 33.4830649,12.5519937 L24.1803544,3.25890852 L16.4859216,10.9451408 C15.7704982,10.7010781 15.0350334,10.5019405 14.2078193,10.3656982 L23.4647472,1.11882177 C23.6544971,0.929219359 23.9751598,0.696158759 24.1803544,0.696158759 C24.3943747,0.696158759 24.7063956,0.929219359 24.8959617,1.11882177 L34.9131763,11.1259415 C36.25209,12.4617766 36.9599748,14.164531 36.9599748,16.0497363 C36.9599748,19.886893 33.8302043,23.0090982 29.9829879,23.0090982" id="path44" transform="translate(25.583897, 11.852628) scale(-1, 1) rotate(-180.000000) translate(-25.583897, -11.852628) "></path>
                                    <path d="M39.9468445,29.7354459 C39.0039786,29.8940592 38.1105728,30.0845784 37.2487919,30.3055367 C36.7413211,29.4603941 36.4592704,29.0934749 35.9652219,28.5604244 C36.6679585,28.3587197 37.3876108,28.1782857 38.1320851,28.022423 C38.030591,27.8641765 37.9305677,27.7072136 37.8314639,27.5520843 C34.4771927,22.2998776 32.2292445,18.7782971 35.563842,12.0455779 C34.8783888,11.2787334 33.8393609,10.5337096 32.5142371,9.85836565 C30.6108542,10.6061399 28.8944632,10.9844279 27.4069856,10.9844279 C24.4631039,10.9844279 22.8474716,9.51143358 22.2033883,7.89632912 C17.2097661,8.34759752 14.1187913,10.8758741 12.9929786,11.9764483 C15.2650132,15.6608595 15.8458466,19.1039585 14.7191145,22.2184623 C13.5105619,25.5614424 10.5218168,27.3975052 8.73923398,28.1870874 C8.71073472,28.4771754 8.67028416,29.0773385 8.62229508,29.4116182 C9.58134119,29.2403526 10.5357906,29.1534362 11.4731405,29.1534362 L11.4742437,29.1534362 C15.742146,29.1534362 19.8791356,30.9777634 23.5415665,34.4483677 C23.0903588,34.7963999 22.584359,35.2364829 22.0151093,35.7812689 C18.7535067,32.7221423 15.215921,31.1712166 11.4742437,31.1702997 L11.4731405,31.1702997 C10.2222988,31.1702997 8.93210963,31.34835 7.63879476,31.6996829 C7.30066482,31.7902666 6.7409761,31.9283426 6.47933449,31.6835465 C6.225783,31.4470019 6.31293558,30.8712267 6.3818854,30.5285121 C6.58303503,29.5240227 6.74483729,27.951643 6.76009818,27.4770869 C6.78179439,26.7835895 6.83916065,26.7346303 7.48048596,26.5109214 C8.23415353,26.2472384 11.5987212,24.9024182 12.8170186,21.5346834 C13.7825,18.86448 13.12573,15.8004024 10.8764947,12.4198318 C10.5034302,11.8589094 10.520162,11.7587906 10.9259547,11.234175 C11.087757,11.0260524 15.0375707,6.19870911 22.8980348,5.82775585 C23.8340976,5.78429766 23.7839021,5.87854876 23.9361433,6.64814383 C24.227939,8.11948786 25.4815388,8.96646418 27.4069856,8.96646418 C28.7374415,8.96646418 30.3328485,8.56873921 32.1669139,7.82261523 C32.557078,7.66363526 32.6124217,7.66363526 32.9928409,7.84406927 C35.1299177,8.85846049 36.6753132,10.0433839 37.588025,11.3489633 C37.9169616,11.8194853 37.9108941,11.9135531 37.6542168,12.3980111 C34.4266295,18.4768403 36.1417335,21.1514445 39.5379261,26.4687468 C39.8907653,27.0217844 40.2579461,27.5999434 40.6394685,28.2068911 C41.0562932,28.8706829 41.1230366,29.5379587 39.9468445,29.7354459" id="path48" transform="translate(23.612078, 20.800116) scale(-1, 1) rotate(-180.000000) translate(-23.612078, -20.800116) "></path>
                                    <path d="M13.6462552,2.98677222 C13.4998977,3.45747762 13.42249,3.95128737 13.42249,4.45774951 C13.42249,7.18277986 15.6450647,9.39933102 18.3767648,9.39933102 C19.5058872,9.39933102 20.5541084,9.02709419 21.3958479,8.37833856 C23.1194097,6.98584273 23.8592873,6.14253376 25.1989364,5.00693637 C27.31303,3.21396505 29.5197922,1.76169128 31.7120289,0.696140422 C32.0968609,1.10065001 32.6107669,1.6599221 33.1417725,2.25366736 C30.8149457,3.31096666 28.2908305,5.01885528 26.2298742,6.78120416 C25.0972584,7.75085361 23.6901304,9.03626258 23.2580448,9.43343745 C23.2576771,9.43398756 23.2573093,9.43398756 23.2573093,9.43435429 C21.9908389,10.6728211 20.2626805,11.4171114 18.3767648,11.4171114 C14.5299162,11.4171114 11.4003295,8.29490617 11.4003295,4.45774951 C11.4003295,3.89260964 11.4681762,3.33847185 11.5987212,2.80303758 C12.2619266,2.80028707 12.9790047,2.86483257 13.6462552,2.98677222" id="path52" transform="translate(22.271051, 6.056626) scale(-1, 1) rotate(-180.000000) translate(-22.271051, -6.056626) "></path>
                                    <path d="M3.63617463,37.8821969 L2.70139886,37.8821969 C2.19907639,38.7638297 1.96630178,39.037598 1.76643922,39.037598 L1.431435,39.037598 L1.431435,37.8821969 L0.682547955,37.8821969 L0.682547955,41.1160731 L2.49197525,41.1160731 C3.15720317,41.1160731 3.38023288,40.7031286 3.38023288,40.169528 C3.38023288,39.7057906 3.18515084,39.3021979 2.57103772,39.269375 C2.7898385,39.1907102 3.03162256,38.8982384 3.63617463,37.8821969 Z M1.431435,39.6498634 L2.26416503,39.6498634 C2.42688662,39.6498634 2.54805444,39.7659353 2.54805444,40.0536395 C2.54805444,40.3461113 2.44086045,40.4803366 2.27335834,40.4803366 L1.431435,40.4803366 L1.431435,39.6498634 Z" id="path56" transform="translate(2.159361, 39.499135) scale(-1, 1) rotate(-180.000000) translate(-2.159361, -39.499135) "></path>
                                    <path d="M5.90076271,38.0116363 C5.66375918,37.9329714 5.31036834,37.8821785 5.04045275,37.8821785 C4.37062818,37.8821785 3.87290237,38.1742836 3.87290237,39.1485172 C3.87290237,40.1044141 4.31013619,40.3873508 4.99375074,40.3873508 C5.78474314,40.3873508 6.12894067,40.1464054 6.06366817,38.9257253 L4.60781558,38.9257253 C4.61719275,38.5452369 4.78910765,38.4759238 5.13312132,38.4759238 C5.30558781,38.4759238 5.61742489,38.5083799 5.79393645,38.554772 L5.90076271,38.0116363 Z M4.5706746,40.5824542 L5.14268236,41.1807837 L5.87299892,41.1807837 L5.17522668,40.5824542 L4.5706746,40.5824542 Z M4.61241223,39.4499741 L5.44036174,39.4499741 C5.43116843,39.7796696 5.3241583,39.8495327 5.04504941,39.8495327 C4.74737002,39.8495327 4.65433373,39.7517976 4.61241223,39.4499741 Z" id="path60" transform="translate(4.972178, 39.531481) scale(-1, 1) rotate(-180.000000) translate(-4.972178, -39.531481) "></path>
                                    <path d="M7.41690503,39.5711619 C6.80297578,39.5711619 6.45859438,39.8308109 6.45859438,40.7912919 C6.45859438,41.7611247 6.8213624,42.0625816 7.63074142,42.0625816 C8.00288662,42.0625816 8.44949762,41.9930851 8.70985217,41.8957168 L8.70985217,39.8122907 C8.70985217,38.8611614 8.14703772,38.6755931 7.39373789,38.6755931 C7.08649746,38.6755931 6.74229993,38.7361045 6.52368302,38.8147693 L6.64926364,39.3716576 C6.89582821,39.306562 7.13301561,39.2649375 7.37958019,39.2649375 C7.76588308,39.2649375 7.99369331,39.3623059 7.99369331,39.7055706 C7.85413886,39.6360742 7.64949578,39.5711619 7.41690503,39.5711619 Z M7.99369331,41.4316126 C7.88190266,41.4781881 7.73775155,41.4965249 7.63074142,41.4965249 C7.29114055,41.4965249 7.17971763,41.4129091 7.17971763,40.8052279 C7.17971763,40.3042668 7.27735058,40.1696747 7.61217094,40.1696747 C7.82159454,40.1696747 7.99369331,40.2344036 7.99369331,40.3367229 L7.99369331,41.4316126 Z" id="path64" transform="translate(7.584223, 40.369087) scale(-1, 1) rotate(-180.000000) translate(-7.584223, -40.369087) "></path>
                                    <path d="M10.082848,40.777631 C10.082848,40.4572873 9.98080603,40.4017268 9.67980961,40.4017268 C9.3738668,40.4017268 9.27658798,40.4572873 9.27658798,40.777631 C9.27658798,41.0695527 9.3738668,41.1161282 9.67980961,41.1161282 C9.98080603,41.1161282 10.082848,41.0695527 10.082848,40.777631 Z M10.0364986,37.7106195 L9.3229374,37.7106195 L9.3229374,40.0861507 L10.0364986,40.0861507 L10.0364986,37.7106195 Z" id="path68" transform="translate(9.679718, 39.413374) scale(-1, 1) rotate(-180.000000) translate(-9.679718, -39.413374) "></path>
                                    <path d="M10.5510883,39.9418951 C10.5510883,40.9115446 10.9465845,41.1807287 11.704481,41.1807287 C12.4769029,41.1807287 12.8676186,40.9115446 12.8676186,39.9418951 C12.8676186,38.9676615 12.4814996,38.6755564 11.704481,38.6755564 C10.9372073,38.6755564 10.5510883,38.9676615 10.5510883,39.9418951 M11.2722116,39.9281425 C11.2722116,39.3294464 11.3696606,39.232078 11.704481,39.232078 C12.0442657,39.232078 12.1420826,39.3294464 12.1420826,39.9281425 C12.1420826,40.5497597 12.0442657,40.6240237 11.704481,40.6240237 C11.3696606,40.6240237 11.2722116,40.5497597 11.2722116,39.9281425" id="path72" transform="translate(11.709353, 39.928143) scale(-1, 1) rotate(-180.000000) translate(-11.709353, -39.928143) "></path>
                                    <path d="M14.1042291,38.6756298 L13.3878864,38.6756298 L13.3878864,40.9026329 C13.6951268,41.0139372 14.1695016,41.1160731 14.5973583,41.1160731 C15.2533929,41.1160731 15.5790199,40.8424882 15.5790199,39.9885439 L15.5790199,38.6756298 L14.8624933,38.6756298 L14.8624933,39.9331668 C14.8624933,40.3642648 14.7928081,40.48052 14.44383,40.48052 C14.3276266,40.48052 14.2206164,40.4664007 14.1042291,40.4388955 L14.1042291,38.6756298 Z" id="path76" transform="translate(14.483453, 39.895851) scale(-1, 1) rotate(-180.000000) translate(-14.483453, -39.895851) "></path>
                                    <polygon id="path80" transform="translate(2.487544, 45.385923) scale(-1, 1) rotate(-180.000000) translate(-2.487544, -45.385923) " points="1.68515197 43.2594972 0.69889366 43.2594972 0.69889366 47.5123489 1.68515197 47.5123489 1.68515197 45.9627068 3.29012005 45.9627068 3.29012005 47.5123489 4.27619449 47.5123489 4.27619449 43.2594972 3.29012005 43.2594972 3.29012005 45.0535687 1.68515197 45.0535687"></polygon>
                                    <path d="M7.89019502,44.5468682 C7.46767049,44.3944895 6.86127975,44.3026222 6.40179811,44.3026222 C5.36681526,44.3026222 5.06049417,44.5224803 5.06049417,45.3399344 C5.06049417,46.21845 5.53817856,46.3589098 6.28541081,46.3589098 C6.51800155,46.3589098 6.75702762,46.3286541 6.99605368,46.2795115 C6.99605368,46.7129932 6.89805299,46.8347495 6.28541081,46.8347495 C5.92392985,46.8347495 5.57513567,46.7678202 5.3116554,46.6884219 L5.1647463,47.4332623 C5.52604339,47.5243962 6.04656861,47.5977433 6.51211783,47.5977433 C7.44928387,47.5977433 7.89019502,47.3111393 7.89019502,46.3834811 L7.89019502,44.5468682 Z M6.47552846,44.9985033 C6.65295935,44.9985033 6.84914458,45.0289424 6.99605368,45.083586 L6.99605368,45.6754976 C6.85521217,45.7123546 6.67759742,45.7184057 6.48766363,45.7184057 C6.15063688,45.7184057 6.02799812,45.6817321 6.02799812,45.3705568 C6.02799812,45.053147 6.10779606,44.9985033 6.47552846,44.9985033 Z" id="path92" transform="translate(6.475345, 45.950183) scale(-1, 1) rotate(-180.000000) translate(-6.475345, -45.950183) "></path>
                                    <path d="M10.5853977,47.6036661 L11.5164962,47.6036661 L11.5164962,44.6686795 C11.118242,44.5284031 10.4875809,44.3881266 9.93028247,44.3881266 C9.06059533,44.3881266 8.64377065,44.7543123 8.64377065,45.8708394 L8.64377065,47.6036661 L9.57505297,47.6036661 L9.57505297,45.9440032 C9.57505297,45.3828975 9.67305365,45.2241009 10.1323514,45.2241009 C10.2853281,45.2241009 10.4202859,45.2484888 10.5853977,45.2851624 L10.5853977,47.6036661 Z" id="path96" transform="translate(10.080133, 45.995896) scale(-1, 1) rotate(-180.000000) translate(-10.080133, -45.995896) "></path>
                                    <path d="M13.4215891,45.9506778 L13.4215891,44.7851915 C13.4215891,44.4677816 13.5135222,44.3401576 13.8442975,44.3401576 C14.040115,44.3401576 14.1997108,44.3764644 14.3466199,44.4252403 L14.4995966,43.7051545 C14.266822,43.6077862 13.8932059,43.5463579 13.556363,43.5463579 C12.8642906,43.5463579 12.4785393,43.753747 12.4785393,44.6874564 L12.4785393,45.9506778 L11.9701493,45.9506778 L11.9701493,46.7560296 L12.4785393,46.7560296 L12.4785393,47.2197671 L13.4215891,47.5978717 L13.4215891,46.7560296 L14.4015959,46.7560296 L14.4015959,45.9506778 L13.4215891,45.9506778 Z" id="path100" transform="translate(13.234873, 45.572115) scale(-1, 1) rotate(-180.000000) translate(-13.234873, -45.572115) "></path>
                                    <path d="M17.0417307,46.7313667 C16.796821,46.7979292 16.43534,46.8654086 16.1168837,46.8654086 C15.8226978,46.8654086 15.6759726,46.8410207 15.6759726,46.596958 C15.6759726,46.4321102 15.7616542,46.3893855 16.2454062,46.3285074 C16.974068,46.2366401 17.2987757,46.0173321 17.2987757,45.376828 C17.2987757,44.5283847 16.6865012,44.3024755 15.8964282,44.3024755 C15.5594014,44.3024755 15.069398,44.3697715 14.7814635,44.4735577 L14.9651458,45.1813578 C15.1981043,45.1144285 15.5472662,45.0530003 15.8534035,45.0530003 C16.220952,45.0530003 16.3923153,45.0834393 16.3923153,45.3280521 C16.3923153,45.4984009 16.2880632,45.5656969 15.7677218,45.6146562 C15.1124227,45.6755343 14.7632608,45.8645866 14.7632608,46.5298453 C14.7632608,47.3775551 15.3694676,47.59778 16.153657,47.59778 C16.4904999,47.59778 16.931411,47.530484 17.2255969,47.426331 L17.0417307,46.7313667 Z" id="path104" transform="translate(16.031018, 45.950128) scale(-1, 1) rotate(-180.000000) translate(-16.031018, -45.950128) "></path>
                                    <polygon id="path106" transform="translate(18.472063, 45.776405) scale(-1, 1) rotate(-180.000000) translate(-18.472063, -45.776405) " points="17.6667287 46.2247395 19.2773967 46.2247395 19.2773967 45.3280705 17.6667287 45.3280705"></polygon>
                                    <path d="M22.6892915,43.3267199 C22.3461971,43.1987291 21.7583769,43.1068618 21.2680057,43.1068618 C20.2025011,43.1068618 19.7250006,43.4853331 19.7250006,44.7668913 C19.7250006,46.0233282 20.2762314,46.4019829 21.0538016,46.4019829 C21.3601227,46.4019829 21.568627,46.340738 21.7460578,46.2673909 L21.7460578,47.597725 L22.6892915,47.597725 L22.6892915,43.3267199 Z M21.7460578,45.4011609 C21.7460578,45.5357529 21.5316699,45.6389891 21.2560544,45.6389891 C20.8151433,45.6389891 20.6743018,45.4437023 20.6743018,44.7789936 C20.6743018,44.0222343 20.8212108,43.8940601 21.2680057,43.8940601 C21.4276016,43.8940601 21.6298544,43.9186314 21.7460578,43.9674073 L21.7460578,45.4011609 Z" id="path118" transform="translate(21.207146, 45.352293) scale(-1, 1) rotate(-180.000000) translate(-21.207146, -45.352293) "></path>
                                    <path d="M26.0460448,44.4738328 C25.73384,44.3698632 25.2682908,44.3025672 24.9132451,44.3025672 C24.0310551,44.3025672 23.3757559,44.687273 23.3757559,45.9686479 C23.3757559,47.2256348 23.9512571,47.5978717 24.8518338,47.5978717 C25.8928842,47.5978717 26.3464822,47.2802785 26.2606166,45.675626 L24.3434438,45.675626 C24.3557628,45.1753984 24.582286,45.0837144 25.0355161,45.0837144 C25.262407,45.0837144 25.6724287,45.1268059 25.9053871,45.1878674 L26.0460448,44.4738328 Z M24.3495113,46.3650893 L25.4396541,46.3650893 C25.4275189,46.7982043 25.2868612,46.8900716 24.918945,46.8900716 C24.5271261,46.8900716 24.4046712,46.761714 24.3495113,46.3650893 Z" id="path122" transform="translate(24.823299, 45.950219) scale(-1, 1) rotate(-180.000000) translate(-24.823299, -45.950219) "></path>
                                    <polygon id="path124" transform="translate(27.470750, 45.776405) scale(-1, 1) rotate(-180.000000) translate(-27.470750, -45.776405) " points="26.6653245 46.2247395 28.2761763 46.2247395 28.2761763 45.3280705 26.6653245 45.3280705"></polygon>
                                    <polygon id="path128" transform="translate(30.499615, 45.385850) scale(-1, 1) rotate(-180.000000) translate(-30.499615, -45.385850) " points="32.0553071 47.5122755 32.0553071 46.6519133 29.9299977 46.6519133 29.9299977 45.663377 31.5038924 45.663377 31.5038924 44.821535 29.9299977 44.821535 29.9299977 43.2594238 28.9439232 43.2594238 28.9439232 47.5122755"></polygon>
                                    <path d="M32.4597024,47.4267161 L33.4031199,47.4267161 L33.4031199,47.18247 C33.5071882,47.3660213 33.7092571,47.5123489 34.1626712,47.5123489 C34.2546043,47.5123489 34.364924,47.5061144 34.4750599,47.4940121 L34.4750599,46.6213643 C34.3522373,46.6580378 34.1871254,46.6699568 34.0341487,46.6699568 C33.697122,46.6699568 33.4031199,46.5603027 33.4031199,46.3529137 L33.4031199,44.3024938 L32.4597024,44.3024938 L32.4597024,47.4267161 Z" id="path140" transform="translate(33.467381, 45.907421) scale(-1, 1) rotate(-180.000000) translate(-33.467381, -45.907421) "></path>
                                    <path d="M37.5989283,44.5468682 C37.1762199,44.3944895 36.5698291,44.3026222 36.1105314,44.3026222 C35.0753646,44.3026222 34.7694113,44.5224803 34.7694113,45.3399344 C34.7694113,46.21845 35.2469118,46.3589098 35.9943279,46.3589098 C36.2267348,46.3589098 36.4659447,46.3286541 36.7047869,46.2795115 C36.7047869,46.7129932 36.6067862,46.8347495 35.9943279,46.8347495 C35.6330308,46.8347495 35.2836851,46.7678202 35.0202048,46.6884219 L34.8732957,47.4332623 C35.2347766,47.5243962 35.7554857,47.5977433 36.2208511,47.5977433 C37.1578333,47.5977433 37.5989283,47.3111393 37.5989283,46.3834811 L37.5989283,44.5468682 Z M36.1840778,44.9985033 C36.3616926,44.9985033 36.557694,45.0289424 36.7047869,45.083586 L36.7047869,45.6754976 C36.5639454,45.7123546 36.3861468,45.7184057 36.1963969,45.7184057 C35.859554,45.7184057 35.7367314,45.6817321 35.7367314,45.3705568 C35.7367314,45.053147 35.8167132,44.9985033 36.1840778,44.9985033 Z" id="path144" transform="translate(36.184170, 45.950183) scale(-1, 1) rotate(-180.000000) translate(-36.184170, -45.950183) "></path>
                                    <path d="M39.3204491,44.3024938 L38.3772155,44.3024938 L38.3772155,47.2316126 C38.7813534,47.3777568 39.4061308,47.5123489 39.9696807,47.5123489 C40.8333003,47.5123489 41.2618924,47.152031 41.2618924,46.029636 L41.2618924,44.3024938 L40.3188426,44.3024938 L40.3188426,45.9562889 C40.3188426,46.5238125 40.2269095,46.6761913 39.7676117,46.6761913 C39.6142673,46.6761913 39.4734258,46.6580378 39.3204491,46.6213643 L39.3204491,44.3024938 Z" id="path148" transform="translate(39.819554, 45.907421) scale(-1, 1) rotate(-180.000000) translate(-39.819554, -45.907421) "></path>
                                    <path d="M44.4593808,44.4613638 C44.2085873,44.3577609 43.785695,44.3025672 43.4731225,44.3025672 C42.5363242,44.3025672 41.9111791,44.687273 41.9111791,45.9686479 C41.9111791,47.2375537 42.5422079,47.5978717 43.4731225,47.5978717 C43.7978302,47.5978717 44.214471,47.5487291 44.4593808,47.4632796 L44.2633794,46.6703968 C44.0859485,46.7375095 43.8103331,46.7982043 43.5529204,46.7982043 C43.0939904,46.7982043 42.860848,46.7191727 42.860848,45.9501277 C42.860848,45.2181231 43.0939904,45.1084691 43.5529204,45.1084691 C43.8224683,45.1084691 44.0859485,45.1753984 44.2633794,45.2485621 L44.4593808,44.4613638 Z" id="path152" transform="translate(43.185280, 45.950219) scale(-1, 1) rotate(-180.000000) translate(-43.185280, -45.950219) "></path>
                                    <path d="M47.473003,44.4738328 C47.1609821,44.3698632 46.6950651,44.3025672 46.3400195,44.3025672 C45.4580133,44.3025672 44.802898,44.687273 44.802898,45.9686479 C44.802898,47.2256348 45.3785831,47.5978717 46.278792,47.5978717 C47.3198425,47.5978717 47.7732565,47.2802785 47.6875749,45.675626 L45.770402,45.675626 C45.782721,45.1753984 46.009428,45.0837144 46.4622905,45.0837144 C46.6893652,45.0837144 47.0995707,45.1268059 47.3323454,45.1878674 L47.473003,44.4738328 Z M45.7766534,46.3650893 L46.86698,46.3650893 C46.8544771,46.7982043 46.7134517,46.8900716 46.3462709,46.8900716 C45.9542682,46.8900716 45.8316294,46.761714 45.7766534,46.3650893 Z" id="path156" transform="translate(46.250331, 45.950219) scale(-1, 1) rotate(-180.000000) translate(-46.250331, -45.950219) "></path>
                                </g>
                                <g id="Group">
                                    <path d="M29.9829879,23.0090982 C28.0448543,23.0090982 26.2714648,22.224467 24.9965365,20.9234717 C25.476795,20.4932906 26.026555,20.0091994 26.5242808,19.5880033 C27.4228349,20.4646852 28.6466484,20.9913178 29.9829879,20.9913178 C32.7150558,20.9913178 34.9379982,18.7747667 34.9379982,16.0497363 C34.9379982,14.7111507 34.4345725,13.5014726 33.4830649,12.5519937 L24.1803544,3.25890852 L16.4859216,10.9451408 C15.7704982,10.7010781 15.0350334,10.5019405 14.2078193,10.3656982 L23.4647472,1.11882177 C23.6544971,0.929219359 23.9751598,0.696158759 24.1803544,0.696158759 C24.3943747,0.696158759 24.7063956,0.929219359 24.8959617,1.11882177 L34.9131763,11.1259415 C36.25209,12.4617766 36.9599748,14.164531 36.9599748,16.0497363 C36.9599748,19.886893 33.8302043,23.0090982 29.9829879,23.0090982" id="path44" fill="#9B9B9B" transform="translate(25.583897, 11.852628) scale(-1, 1) rotate(-180.000000) translate(-25.583897, -11.852628) "></path>
                                    <path d="M39.9468445,29.7354459 C39.0039786,29.8940592 38.1105728,30.0845784 37.2487919,30.3055367 C36.7413211,29.4603941 36.4592704,29.0934749 35.9652219,28.5604244 C36.6679585,28.3587197 37.3876108,28.1782857 38.1320851,28.022423 C38.030591,27.8641765 37.9305677,27.7072136 37.8314639,27.5520843 C34.4771927,22.2998776 32.2292445,18.7782971 35.563842,12.0455779 C34.8783888,11.2787334 33.8393609,10.5337096 32.5142371,9.85836565 C30.6108542,10.6061399 28.8944632,10.9844279 27.4069856,10.9844279 C24.4631039,10.9844279 22.8474716,9.51143358 22.2033883,7.89632912 C17.2097661,8.34759752 14.1187913,10.8758741 12.9929786,11.9764483 C15.2650132,15.6608595 15.8458466,19.1039585 14.7191145,22.2184623 C13.5105619,25.5614424 10.5218168,27.3975052 8.73923398,28.1870874 C8.71073472,28.4771754 8.67028416,29.0773385 8.62229508,29.4116182 C9.58134119,29.2403526 10.5357906,29.1534362 11.4731405,29.1534362 L11.4742437,29.1534362 C15.742146,29.1534362 19.8791356,30.9777634 23.5415665,34.4483677 C23.0903588,34.7963999 22.584359,35.2364829 22.0151093,35.7812689 C18.7535067,32.7221423 15.215921,31.1712166 11.4742437,31.1702997 L11.4731405,31.1702997 C10.2222988,31.1702997 8.93210963,31.34835 7.63879476,31.6996829 C7.30066482,31.7902666 6.7409761,31.9283426 6.47933449,31.6835465 C6.225783,31.4470019 6.31293558,30.8712267 6.3818854,30.5285121 C6.58303503,29.5240227 6.74483729,27.951643 6.76009818,27.4770869 C6.78179439,26.7835895 6.83916065,26.7346303 7.48048596,26.5109214 C8.23415353,26.2472384 11.5987212,24.9024182 12.8170186,21.5346834 C13.7825,18.86448 13.12573,15.8004024 10.8764947,12.4198318 C10.5034302,11.8589094 10.520162,11.7587906 10.9259547,11.234175 C11.087757,11.0260524 15.0375707,6.19870911 22.8980348,5.82775585 C23.8340976,5.78429766 23.7839021,5.87854876 23.9361433,6.64814383 C24.227939,8.11948786 25.4815388,8.96646418 27.4069856,8.96646418 C28.7374415,8.96646418 30.3328485,8.56873921 32.1669139,7.82261523 C32.557078,7.66363526 32.6124217,7.66363526 32.9928409,7.84406927 C35.1299177,8.85846049 36.6753132,10.0433839 37.588025,11.3489633 C37.9169616,11.8194853 37.9108941,11.9135531 37.6542168,12.3980111 C34.4266295,18.4768403 36.1417335,21.1514445 39.5379261,26.4687468 C39.8907653,27.0217844 40.2579461,27.5999434 40.6394685,28.2068911 C41.0562932,28.8706829 41.1230366,29.5379587 39.9468445,29.7354459" id="path48" fill="#FFFFFF" transform="translate(23.612078, 20.800116) scale(-1, 1) rotate(-180.000000) translate(-23.612078, -20.800116) "></path>
                                    <path d="M13.6462552,2.98677222 C13.4998977,3.45747762 13.42249,3.95128737 13.42249,4.45774951 C13.42249,7.18277986 15.6450647,9.39933102 18.3767648,9.39933102 C19.5058872,9.39933102 20.5541084,9.02709419 21.3958479,8.37833856 C23.1194097,6.98584273 23.8592873,6.14253376 25.1989364,5.00693637 C27.31303,3.21396505 29.5197922,1.76169128 31.7120289,0.696140422 C32.0968609,1.10065001 32.6107669,1.6599221 33.1417725,2.25366736 C30.8149457,3.31096666 28.2908305,5.01885528 26.2298742,6.78120416 C25.0972584,7.75085361 23.6901304,9.03626258 23.2580448,9.43343745 C23.2576771,9.43398756 23.2573093,9.43398756 23.2573093,9.43435429 C21.9908389,10.6728211 20.2626805,11.4171114 18.3767648,11.4171114 C14.5299162,11.4171114 11.4003295,8.29490617 11.4003295,4.45774951 C11.4003295,3.89260964 11.4681762,3.33847185 11.5987212,2.80303758 C12.2619266,2.80028707 12.9790047,2.86483257 13.6462552,2.98677222" id="path52" fill="#FFFFFF" transform="translate(22.271051, 6.056626) scale(-1, 1) rotate(-180.000000) translate(-22.271051, -6.056626) "></path>
                                    <path d="M3.63617463,37.8821969 L2.70139886,37.8821969 C2.19907639,38.7638297 1.96630178,39.037598 1.76643922,39.037598 L1.431435,39.037598 L1.431435,37.8821969 L0.682547955,37.8821969 L0.682547955,41.1160731 L2.49197525,41.1160731 C3.15720317,41.1160731 3.38023288,40.7031286 3.38023288,40.169528 C3.38023288,39.7057906 3.18515084,39.3021979 2.57103772,39.269375 C2.7898385,39.1907102 3.03162256,38.8982384 3.63617463,37.8821969 Z M1.431435,39.6498634 L2.26416503,39.6498634 C2.42688662,39.6498634 2.54805444,39.7659353 2.54805444,40.0536395 C2.54805444,40.3461113 2.44086045,40.4803366 2.27335834,40.4803366 L1.431435,40.4803366 L1.431435,39.6498634 Z" id="path56" fill="#9B9B9B" transform="translate(2.159361, 39.499135) scale(-1, 1) rotate(-180.000000) translate(-2.159361, -39.499135) "></path>
                                    <path d="M5.90076271,38.0116363 C5.66375918,37.9329714 5.31036834,37.8821785 5.04045275,37.8821785 C4.37062818,37.8821785 3.87290237,38.1742836 3.87290237,39.1485172 C3.87290237,40.1044141 4.31013619,40.3873508 4.99375074,40.3873508 C5.78474314,40.3873508 6.12894067,40.1464054 6.06366817,38.9257253 L4.60781558,38.9257253 C4.61719275,38.5452369 4.78910765,38.4759238 5.13312132,38.4759238 C5.30558781,38.4759238 5.61742489,38.5083799 5.79393645,38.554772 L5.90076271,38.0116363 Z M4.5706746,40.5824542 L5.14268236,41.1807837 L5.87299892,41.1807837 L5.17522668,40.5824542 L4.5706746,40.5824542 Z M4.61241223,39.4499741 L5.44036174,39.4499741 C5.43116843,39.7796696 5.3241583,39.8495327 5.04504941,39.8495327 C4.74737002,39.8495327 4.65433373,39.7517976 4.61241223,39.4499741 Z" id="path60" fill="#9B9B9B" transform="translate(4.972178, 39.531481) scale(-1, 1) rotate(-180.000000) translate(-4.972178, -39.531481) "></path>
                                    <path d="M7.41690503,39.5711619 C6.80297578,39.5711619 6.45859438,39.8308109 6.45859438,40.7912919 C6.45859438,41.7611247 6.8213624,42.0625816 7.63074142,42.0625816 C8.00288662,42.0625816 8.44949762,41.9930851 8.70985217,41.8957168 L8.70985217,39.8122907 C8.70985217,38.8611614 8.14703772,38.6755931 7.39373789,38.6755931 C7.08649746,38.6755931 6.74229993,38.7361045 6.52368302,38.8147693 L6.64926364,39.3716576 C6.89582821,39.306562 7.13301561,39.2649375 7.37958019,39.2649375 C7.76588308,39.2649375 7.99369331,39.3623059 7.99369331,39.7055706 C7.85413886,39.6360742 7.64949578,39.5711619 7.41690503,39.5711619 Z M7.99369331,41.4316126 C7.88190266,41.4781881 7.73775155,41.4965249 7.63074142,41.4965249 C7.29114055,41.4965249 7.17971763,41.4129091 7.17971763,40.8052279 C7.17971763,40.3042668 7.27735058,40.1696747 7.61217094,40.1696747 C7.82159454,40.1696747 7.99369331,40.2344036 7.99369331,40.3367229 L7.99369331,41.4316126 Z" id="path64" fill="#9B9B9B" transform="translate(7.584223, 40.369087) scale(-1, 1) rotate(-180.000000) translate(-7.584223, -40.369087) "></path>
                                    <path d="M10.082848,40.777631 C10.082848,40.4572873 9.98080603,40.4017268 9.67980961,40.4017268 C9.3738668,40.4017268 9.27658798,40.4572873 9.27658798,40.777631 C9.27658798,41.0695527 9.3738668,41.1161282 9.67980961,41.1161282 C9.98080603,41.1161282 10.082848,41.0695527 10.082848,40.777631 Z M10.0364986,37.7106195 L9.3229374,37.7106195 L9.3229374,40.0861507 L10.0364986,40.0861507 L10.0364986,37.7106195 Z" id="path68" fill="#9B9B9B" transform="translate(9.679718, 39.413374) scale(-1, 1) rotate(-180.000000) translate(-9.679718, -39.413374) "></path>
                                    <path d="M10.5510883,39.9418951 C10.5510883,40.9115446 10.9465845,41.1807287 11.704481,41.1807287 C12.4769029,41.1807287 12.8676186,40.9115446 12.8676186,39.9418951 C12.8676186,38.9676615 12.4814996,38.6755564 11.704481,38.6755564 C10.9372073,38.6755564 10.5510883,38.9676615 10.5510883,39.9418951 M11.2722116,39.9281425 C11.2722116,39.3294464 11.3696606,39.232078 11.704481,39.232078 C12.0442657,39.232078 12.1420826,39.3294464 12.1420826,39.9281425 C12.1420826,40.5497597 12.0442657,40.6240237 11.704481,40.6240237 C11.3696606,40.6240237 11.2722116,40.5497597 11.2722116,39.9281425" id="path72" fill="#9B9B9B" transform="translate(11.709353, 39.928143) scale(-1, 1) rotate(-180.000000) translate(-11.709353, -39.928143) "></path>
                                    <path d="M14.1042291,38.6756298 L13.3878864,38.6756298 L13.3878864,40.9026329 C13.6951268,41.0139372 14.1695016,41.1160731 14.5973583,41.1160731 C15.2533929,41.1160731 15.5790199,40.8424882 15.5790199,39.9885439 L15.5790199,38.6756298 L14.8624933,38.6756298 L14.8624933,39.9331668 C14.8624933,40.3642648 14.7928081,40.48052 14.44383,40.48052 C14.3276266,40.48052 14.2206164,40.4664007 14.1042291,40.4388955 L14.1042291,38.6756298 Z" id="path76" fill="#9B9B9B" transform="translate(14.483453, 39.895851) scale(-1, 1) rotate(-180.000000) translate(-14.483453, -39.895851) "></path>
                                    <polygon id="path80" fill="#FFFFFF" transform="translate(2.487544, 45.385923) scale(-1, 1) rotate(-180.000000) translate(-2.487544, -45.385923) " points="1.68515197 43.2594972 0.69889366 43.2594972 0.69889366 47.5123489 1.68515197 47.5123489 1.68515197 45.9627068 3.29012005 45.9627068 3.29012005 47.5123489 4.27619449 47.5123489 4.27619449 43.2594972 3.29012005 43.2594972 3.29012005 45.0535687 1.68515197 45.0535687"></polygon>
                                    <path d="M7.89019502,44.5468682 C7.46767049,44.3944895 6.86127975,44.3026222 6.40179811,44.3026222 C5.36681526,44.3026222 5.06049417,44.5224803 5.06049417,45.3399344 C5.06049417,46.21845 5.53817856,46.3589098 6.28541081,46.3589098 C6.51800155,46.3589098 6.75702762,46.3286541 6.99605368,46.2795115 C6.99605368,46.7129932 6.89805299,46.8347495 6.28541081,46.8347495 C5.92392985,46.8347495 5.57513567,46.7678202 5.3116554,46.6884219 L5.1647463,47.4332623 C5.52604339,47.5243962 6.04656861,47.5977433 6.51211783,47.5977433 C7.44928387,47.5977433 7.89019502,47.3111393 7.89019502,46.3834811 L7.89019502,44.5468682 Z M6.47552846,44.9985033 C6.65295935,44.9985033 6.84914458,45.0289424 6.99605368,45.083586 L6.99605368,45.6754976 C6.85521217,45.7123546 6.67759742,45.7184057 6.48766363,45.7184057 C6.15063688,45.7184057 6.02799812,45.6817321 6.02799812,45.3705568 C6.02799812,45.053147 6.10779606,44.9985033 6.47552846,44.9985033 Z" id="path92" fill="#FFFFFF" transform="translate(6.475345, 45.950183) scale(-1, 1) rotate(-180.000000) translate(-6.475345, -45.950183) "></path>
                                    <path d="M10.5853977,47.6036661 L11.5164962,47.6036661 L11.5164962,44.6686795 C11.118242,44.5284031 10.4875809,44.3881266 9.93028247,44.3881266 C9.06059533,44.3881266 8.64377065,44.7543123 8.64377065,45.8708394 L8.64377065,47.6036661 L9.57505297,47.6036661 L9.57505297,45.9440032 C9.57505297,45.3828975 9.67305365,45.2241009 10.1323514,45.2241009 C10.2853281,45.2241009 10.4202859,45.2484888 10.5853977,45.2851624 L10.5853977,47.6036661 Z" id="path96" fill="#FFFFFF" transform="translate(10.080133, 45.995896) scale(-1, 1) rotate(-180.000000) translate(-10.080133, -45.995896) "></path>
                                    <path d="M13.4215891,45.9506778 L13.4215891,44.7851915 C13.4215891,44.4677816 13.5135222,44.3401576 13.8442975,44.3401576 C14.040115,44.3401576 14.1997108,44.3764644 14.3466199,44.4252403 L14.4995966,43.7051545 C14.266822,43.6077862 13.8932059,43.5463579 13.556363,43.5463579 C12.8642906,43.5463579 12.4785393,43.753747 12.4785393,44.6874564 L12.4785393,45.9506778 L11.9701493,45.9506778 L11.9701493,46.7560296 L12.4785393,46.7560296 L12.4785393,47.2197671 L13.4215891,47.5978717 L13.4215891,46.7560296 L14.4015959,46.7560296 L14.4015959,45.9506778 L13.4215891,45.9506778 Z" id="path100" fill="#FFFFFF" transform="translate(13.234873, 45.572115) scale(-1, 1) rotate(-180.000000) translate(-13.234873, -45.572115) "></path>
                                    <path d="M17.0417307,46.7313667 C16.796821,46.7979292 16.43534,46.8654086 16.1168837,46.8654086 C15.8226978,46.8654086 15.6759726,46.8410207 15.6759726,46.596958 C15.6759726,46.4321102 15.7616542,46.3893855 16.2454062,46.3285074 C16.974068,46.2366401 17.2987757,46.0173321 17.2987757,45.376828 C17.2987757,44.5283847 16.6865012,44.3024755 15.8964282,44.3024755 C15.5594014,44.3024755 15.069398,44.3697715 14.7814635,44.4735577 L14.9651458,45.1813578 C15.1981043,45.1144285 15.5472662,45.0530003 15.8534035,45.0530003 C16.220952,45.0530003 16.3923153,45.0834393 16.3923153,45.3280521 C16.3923153,45.4984009 16.2880632,45.5656969 15.7677218,45.6146562 C15.1124227,45.6755343 14.7632608,45.8645866 14.7632608,46.5298453 C14.7632608,47.3775551 15.3694676,47.59778 16.153657,47.59778 C16.4904999,47.59778 16.931411,47.530484 17.2255969,47.426331 L17.0417307,46.7313667 Z" id="path104" fill="#FFFFFF" transform="translate(16.031018, 45.950128) scale(-1, 1) rotate(-180.000000) translate(-16.031018, -45.950128) "></path>
                                    <polygon id="path106" fill="#FFFFFF" transform="translate(18.472063, 45.776405) scale(-1, 1) rotate(-180.000000) translate(-18.472063, -45.776405) " points="17.6667287 46.2247395 19.2773967 46.2247395 19.2773967 45.3280705 17.6667287 45.3280705"></polygon>
                                    <path d="M22.6892915,43.3267199 C22.3461971,43.1987291 21.7583769,43.1068618 21.2680057,43.1068618 C20.2025011,43.1068618 19.7250006,43.4853331 19.7250006,44.7668913 C19.7250006,46.0233282 20.2762314,46.4019829 21.0538016,46.4019829 C21.3601227,46.4019829 21.568627,46.340738 21.7460578,46.2673909 L21.7460578,47.597725 L22.6892915,47.597725 L22.6892915,43.3267199 Z M21.7460578,45.4011609 C21.7460578,45.5357529 21.5316699,45.6389891 21.2560544,45.6389891 C20.8151433,45.6389891 20.6743018,45.4437023 20.6743018,44.7789936 C20.6743018,44.0222343 20.8212108,43.8940601 21.2680057,43.8940601 C21.4276016,43.8940601 21.6298544,43.9186314 21.7460578,43.9674073 L21.7460578,45.4011609 Z" id="path118" fill="#FFFFFF" transform="translate(21.207146, 45.352293) scale(-1, 1) rotate(-180.000000) translate(-21.207146, -45.352293) "></path>
                                    <path d="M26.0460448,44.4738328 C25.73384,44.3698632 25.2682908,44.3025672 24.9132451,44.3025672 C24.0310551,44.3025672 23.3757559,44.687273 23.3757559,45.9686479 C23.3757559,47.2256348 23.9512571,47.5978717 24.8518338,47.5978717 C25.8928842,47.5978717 26.3464822,47.2802785 26.2606166,45.675626 L24.3434438,45.675626 C24.3557628,45.1753984 24.582286,45.0837144 25.0355161,45.0837144 C25.262407,45.0837144 25.6724287,45.1268059 25.9053871,45.1878674 L26.0460448,44.4738328 Z M24.3495113,46.3650893 L25.4396541,46.3650893 C25.4275189,46.7982043 25.2868612,46.8900716 24.918945,46.8900716 C24.5271261,46.8900716 24.4046712,46.761714 24.3495113,46.3650893 Z" id="path122" fill="#FFFFFF" transform="translate(24.823299, 45.950219) scale(-1, 1) rotate(-180.000000) translate(-24.823299, -45.950219) "></path>
                                    <polygon id="path124" fill="#FFFFFF" transform="translate(27.470750, 45.776405) scale(-1, 1) rotate(-180.000000) translate(-27.470750, -45.776405) " points="26.6653245 46.2247395 28.2761763 46.2247395 28.2761763 45.3280705 26.6653245 45.3280705"></polygon>
                                    <polygon id="path128" fill="#FFFFFF" transform="translate(30.499615, 45.385850) scale(-1, 1) rotate(-180.000000) translate(-30.499615, -45.385850) " points="32.0553071 47.5122755 32.0553071 46.6519133 29.9299977 46.6519133 29.9299977 45.663377 31.5038924 45.663377 31.5038924 44.821535 29.9299977 44.821535 29.9299977 43.2594238 28.9439232 43.2594238 28.9439232 47.5122755"></polygon>
                                    <path d="M32.4597024,47.4267161 L33.4031199,47.4267161 L33.4031199,47.18247 C33.5071882,47.3660213 33.7092571,47.5123489 34.1626712,47.5123489 C34.2546043,47.5123489 34.364924,47.5061144 34.4750599,47.4940121 L34.4750599,46.6213643 C34.3522373,46.6580378 34.1871254,46.6699568 34.0341487,46.6699568 C33.697122,46.6699568 33.4031199,46.5603027 33.4031199,46.3529137 L33.4031199,44.3024938 L32.4597024,44.3024938 L32.4597024,47.4267161 Z" id="path140" fill="#FFFFFF" transform="translate(33.467381, 45.907421) scale(-1, 1) rotate(-180.000000) translate(-33.467381, -45.907421) "></path>
                                    <path d="M37.5989283,44.5468682 C37.1762199,44.3944895 36.5698291,44.3026222 36.1105314,44.3026222 C35.0753646,44.3026222 34.7694113,44.5224803 34.7694113,45.3399344 C34.7694113,46.21845 35.2469118,46.3589098 35.9943279,46.3589098 C36.2267348,46.3589098 36.4659447,46.3286541 36.7047869,46.2795115 C36.7047869,46.7129932 36.6067862,46.8347495 35.9943279,46.8347495 C35.6330308,46.8347495 35.2836851,46.7678202 35.0202048,46.6884219 L34.8732957,47.4332623 C35.2347766,47.5243962 35.7554857,47.5977433 36.2208511,47.5977433 C37.1578333,47.5977433 37.5989283,47.3111393 37.5989283,46.3834811 L37.5989283,44.5468682 Z M36.1840778,44.9985033 C36.3616926,44.9985033 36.557694,45.0289424 36.7047869,45.083586 L36.7047869,45.6754976 C36.5639454,45.7123546 36.3861468,45.7184057 36.1963969,45.7184057 C35.859554,45.7184057 35.7367314,45.6817321 35.7367314,45.3705568 C35.7367314,45.053147 35.8167132,44.9985033 36.1840778,44.9985033 Z" id="path144" fill="#FFFFFF" transform="translate(36.184170, 45.950183) scale(-1, 1) rotate(-180.000000) translate(-36.184170, -45.950183) "></path>
                                    <path d="M39.3204491,44.3024938 L38.3772155,44.3024938 L38.3772155,47.2316126 C38.7813534,47.3777568 39.4061308,47.5123489 39.9696807,47.5123489 C40.8333003,47.5123489 41.2618924,47.152031 41.2618924,46.029636 L41.2618924,44.3024938 L40.3188426,44.3024938 L40.3188426,45.9562889 C40.3188426,46.5238125 40.2269095,46.6761913 39.7676117,46.6761913 C39.6142673,46.6761913 39.4734258,46.6580378 39.3204491,46.6213643 L39.3204491,44.3024938 Z" id="path148" fill="#FFFFFF" transform="translate(39.819554, 45.907421) scale(-1, 1) rotate(-180.000000) translate(-39.819554, -45.907421) "></path>
                                    <path d="M44.4593808,44.4613638 C44.2085873,44.3577609 43.785695,44.3025672 43.4731225,44.3025672 C42.5363242,44.3025672 41.9111791,44.687273 41.9111791,45.9686479 C41.9111791,47.2375537 42.5422079,47.5978717 43.4731225,47.5978717 C43.7978302,47.5978717 44.214471,47.5487291 44.4593808,47.4632796 L44.2633794,46.6703968 C44.0859485,46.7375095 43.8103331,46.7982043 43.5529204,46.7982043 C43.0939904,46.7982043 42.860848,46.7191727 42.860848,45.9501277 C42.860848,45.2181231 43.0939904,45.1084691 43.5529204,45.1084691 C43.8224683,45.1084691 44.0859485,45.1753984 44.2633794,45.2485621 L44.4593808,44.4613638 Z" id="path152" fill="#FFFFFF" transform="translate(43.185280, 45.950219) scale(-1, 1) rotate(-180.000000) translate(-43.185280, -45.950219) "></path>
                                    <path d="M47.473003,44.4738328 C47.1609821,44.3698632 46.6950651,44.3025672 46.3400195,44.3025672 C45.4580133,44.3025672 44.802898,44.687273 44.802898,45.9686479 C44.802898,47.2256348 45.3785831,47.5978717 46.278792,47.5978717 C47.3198425,47.5978717 47.7732565,47.2802785 47.6875749,45.675626 L45.770402,45.675626 C45.782721,45.1753984 46.009428,45.0837144 46.4622905,45.0837144 C46.6893652,45.0837144 47.0995707,45.1268059 47.3323454,45.1878674 L47.473003,44.4738328 Z M45.7766534,46.3650893 L46.86698,46.3650893 C46.8544771,46.7982043 46.7134517,46.8900716 46.3462709,46.8900716 C45.9542682,46.8900716 45.8316294,46.761714 45.7766534,46.3650893 Z" id="path156" fill="#FFFFFF" transform="translate(46.250331, 45.950219) scale(-1, 1) rotate(-180.000000) translate(-46.250331, -45.950219) "></path>
                                </g>
                            </g>
                        </g>
                    </g>
                </g>
            </g>
        </g>
    </g>
</svg>