<svg id="Logo_Région_HDF" data-name="Logo Région HDF" xmlns="http://www.w3.org/2000/svg" viewBox="0 0 1275.6 284.01"><defs><style>.cls-1{fill:#00000f;}.cls-2{fill:#fff;}.cls-3{fill:#1d1d1b;}.cls-4{fill:#9d9d9c;}</style></defs><title>Logo Région HDF - partenaire n&amp;amp;b</title><rect class="cls-1" x="283.55" width="992.05" height="283.9"/><rect class="cls-2" x="1.5" y="1.64" width="281.03" height="280.88"/><path class="cls-3" d="M281.12,2.78V280.66H3.09V2.78h278m3-3H.09V283.66h284V-.22Z" transform="translate(-0.09 0.36)"/><path class="cls-4" d="M184.18,26.53a45.68,45.68,0,0,0-32.75,13.73c3.16,2.84,6.77,6,10,8.8a32.53,32.53,0,0,1,55.24,23.29,31.93,31.93,0,0,1-9.55,23l-61.09,61.19L95.55,106a91.59,91.59,0,0,1-15,3.82l60.79,60.88c1.24,1.25,3.35,2.78,4.69,2.78s3.46-1.53,4.7-2.78l65.78-65.89A45,45,0,0,0,230,72.35,45.87,45.87,0,0,0,184.18,26.53Z" transform="translate(-0.09 0.36)"/><path class="cls-3" d="M249.6,100.07c-6.19-1-12.06-2.3-17.71-3.76a59.22,59.22,0,0,1-8.43,11.49c4.61,1.33,9.34,2.52,14.22,3.55l-2,3.09c-22,34.58-36.78,57.77-14.89,102.1-4.5,5.05-11.32,10-20,14.4-12.5-4.92-23.77-7.41-33.54-7.41-19.33,0-29.94,9.69-34.17,20.33-32.78-3-53.08-19.62-60.47-26.87C87.54,192.74,91.35,170.07,84,149.56c-7.94-22-27.56-34.1-39.26-39.3-.19-1.91-.46-5.86-.77-8.06a106,106,0,0,0,18.72,1.7h0c28,0,55.19-12,79.24-34.86a126.84,126.84,0,0,1-10-8.78C110.44,80.4,87.21,90.61,62.64,90.62h0a96.06,96.06,0,0,1-25.18-3.48c-2.22-.6-5.9-1.51-7.61.1s-1.1,5.35-.64,7.61a171.16,171.16,0,0,1,2.48,20.09c.14,4.56.52,4.89,4.73,6.36,4.95,1.73,27,10.59,35,32.76,6.34,17.58,2,37.76-12.74,60-2.45,3.7-2.34,4.36.32,7.81,1.07,1.37,27,33.15,78.62,35.6,6.14.28,5.81-.34,6.81-5.4,1.92-9.69,10.15-15.27,22.79-15.27,8.74,0,19.21,2.62,31.26,7.53,2.56,1,2.92,1,5.42-.14,14-6.68,24.18-14.48,30.17-23.08,2.16-3.09,2.12-3.71.44-6.9-21.2-40-9.93-57.64,12.37-92.65,2.31-3.64,4.72-7.44,7.23-11.44C256.89,105.76,257.33,101.37,249.6,100.07Z" transform="translate(-0.09 0.36)"/><path class="cls-3" d="M76.91,82a32.55,32.55,0,0,1,50.88-35.5c11.32,9.17,16.18,14.72,25,22.2a206.24,206.24,0,0,0,42.77,28.38c2.53-2.66,5.9-6.35,9.39-10.26-15.28-7-31.86-18.2-45.39-29.81C152.1,50.67,142.86,42.21,140,39.59h0A45.84,45.84,0,0,0,63.46,83.25,74.83,74.83,0,0,0,76.91,82Z" transform="translate(-0.09 0.36)"/><path class="cls-4" d="M370.74,114.34H352.28c-9.92-17.46-14.52-22.88-18.47-22.88h-6.62v22.88H312.4v-64h35.74c13.14,0,17.55,8.18,17.55,18.74,0,9.19-3.86,17.18-16,17.83C354,88.43,358.8,94.22,370.74,114.34Zm-43.55-35h16.45c3.22,0,5.61-2.3,5.61-8s-2.12-8.45-5.43-8.45H327.19Z" transform="translate(-0.09 0.36)"/><path class="cls-4" d="M415.46,113.06a60.31,60.31,0,0,1-17,2.56c-13.23,0-23.06-5.78-23.06-25.08,0-18.92,8.64-24.53,22.14-24.53C413.17,66,420,70.79,418.68,95H389.93c.18,7.53,3.58,8.91,10.37,8.91a64.66,64.66,0,0,0,13.06-1.56ZM389.19,62.15l11.3-11.85h14.42L401.14,62.15ZM390,84.58h16.36c-.18-6.53-2.29-7.91-7.8-7.91C392.68,76.67,390.85,78.6,390,84.58Z" transform="translate(-0.09 0.36)"/><path class="cls-4" d="M445.41,115.35c-12.13,0-18.93-5.14-18.93-24.16C426.48,72,433.65,66,449.63,66c7.35,0,16.17,1.38,21.31,3.31v41.25c0,18.84-11.11,22.52-26,22.52a55.64,55.64,0,0,1-17.18-2.76l2.48-11a55.78,55.78,0,0,0,14.42,2.12c7.63,0,12.13-1.93,12.13-8.73A26.16,26.16,0,0,1,445.41,115.35ZM456.8,78.51a20,20,0,0,0-7.17-1.29c-6.7,0-8.91,1.66-8.91,13.69,0,9.92,1.93,12.59,8.55,12.59,4.13,0,7.53-1.29,7.53-3.31Z" transform="translate(-0.09 0.36)"/><path class="cls-4" d="M498.13,53.6c0,6.35-2,7.45-8,7.45s-8-1.1-8-7.45c0-5.78,1.92-6.7,8-6.7S498.13,47.82,498.13,53.6Zm-.92,60.74H483.06v-47h14.15Z" transform="translate(-0.09 0.36)"/><path class="cls-4" d="M507.31,90.54c0-19.2,7.81-24.53,22.78-24.53,15.25,0,23,5.33,23,24.53s-7.63,25.08-23,25.08C514.93,115.62,507.31,109.84,507.31,90.54Zm14.23.28c0,11.86,1.94,13.78,8.55,13.78s8.64-1.92,8.64-13.78c0-12.31-1.94-13.78-8.64-13.78S521.54,78.51,521.54,90.82Z" transform="translate(-0.09 0.36)"/><path class="cls-4" d="M577.48,114.34H563.33V70.24A76.22,76.22,0,0,1,587.22,66c13,0,19.39,5.42,19.39,22.33v26H592.46V89.44c0-8.54-1.38-10.84-8.27-10.84a28.58,28.58,0,0,0-6.71.82Z" transform="translate(-0.09 0.36)"/><path class="cls-2" d="M332.33,241h-19.6V156.79h19.6v30.69h31.88V156.79h19.6V241h-19.6V205.48H332.33Z" transform="translate(-0.09 0.36)"/><path class="cls-2" d="M455.62,237.86c-8.39,3-20.44,4.84-29.58,4.84-20.56,0-26.64-4.35-26.64-20.54,0-17.4,9.48-20.18,24.33-20.18a70.85,70.85,0,0,1,14.12,1.57c0-8.58-1.94-11-14.12-11a69,69,0,0,0-19.35,2.9l-2.92-14.76a119.2,119.2,0,0,1,26.78-3.25c18.62,0,27.38,5.67,27.38,24Zm-28.11-8.94a31.31,31.31,0,0,0,10.34-1.69V215.51a42.73,42.73,0,0,0-10.1-.85c-6.69,0-9.13.73-9.13,6.89S420.21,228.92,427.51,228.92Z" transform="translate(-0.09 0.36)"/><path class="cls-2" d="M509.17,179.14h18.51v58.12a104.18,104.18,0,0,1-31.52,5.56c-17.29,0-25.57-7.26-25.57-29.36V179.14H489.1V212c0,11.11,1.95,14.26,11.07,14.26a40.27,40.27,0,0,0,9-1.21Z" transform="translate(-0.09 0.36)"/><path class="cls-2" d="M565.53,195.09v23.08c0,6.29,1.83,8.82,8.4,8.82a30.64,30.64,0,0,0,10-1.69l3,14.26c-4.62,1.93-12.05,3.14-18.74,3.14-13.75,0-21.42-4.1-21.42-22.59v-25h-10.1v-16h10.1V170l18.74-7.49v16.67H585v16Z" transform="translate(-0.09 0.36)"/><path class="cls-2" d="M637.47,194.6A76.06,76.06,0,0,0,619.08,192c-5.84,0-8.75.48-8.75,5.32,0,3.26,1.7,4.1,11.31,5.31,14.48,1.82,20.93,6.17,20.93,18.85,0,16.8-12.16,21.27-27.86,21.27-6.7,0-16.44-1.32-22.16-3.39l3.65-14a70.14,70.14,0,0,0,17.65,2.54c7.3,0,10.71-.61,10.71-5.45,0-3.37-2.07-4.71-12.41-5.68-13-1.2-20-4.94-20-18.12,0-16.79,12-21.14,27.62-21.14a72,72,0,0,1,21.31,3.39Z" transform="translate(-0.09 0.36)"/><path class="cls-2" d="M649.89,197.76h32v17.75h-32Z" transform="translate(-0.09 0.36)"/><path class="cls-2" d="M749.68,238.35c-6.81,2.54-18.5,4.35-28.24,4.35-21.17,0-30.66-7.49-30.66-32.87,0-24.89,11-32.38,26.41-32.38a34.15,34.15,0,0,1,13.75,2.66V153.77h18.74Zm-18.74-41.08c0-2.67-4.26-4.71-9.74-4.71-8.76,0-11.56,3.86-11.56,17,0,15,2.93,17.53,11.8,17.53a28.64,28.64,0,0,0,9.5-1.46Z" transform="translate(-0.09 0.36)"/><path class="cls-2" d="M816.38,239.31a79.8,79.8,0,0,1-22.51,3.39c-17.53,0-30.55-7.62-30.55-33,0-24.89,11.44-32.26,29.33-32.26,20.69,0,29.7,6.29,28,38.06h-38.1c.24,9.91,4.75,11.72,13.76,11.72a85.32,85.32,0,0,0,17.28-2.06Zm-33.71-37.45h21.66c-.23-8.58-3-10.4-10.34-10.4C786.2,191.46,783.77,194,782.67,201.86Z" transform="translate(-0.09 0.36)"/><path class="cls-2" d="M828.69,197.76h32v17.75h-32Z" transform="translate(-0.09 0.36)"/><path class="cls-2" d="M935.79,156.79v17H893.56v19.59h31.27v16.67H893.56V241H874V156.79Z" transform="translate(-0.09 0.36)"/><path class="cls-2" d="M943.83,179.14h18.75V184c2.06-3.64,6.07-6.53,15.08-6.53a58.88,58.88,0,0,1,6.21.36v17.28a33.22,33.22,0,0,0-8.76-1c-6.69,0-12.53,2.17-12.53,6.28V241H943.83Z" transform="translate(-0.09 0.36)"/><path class="cls-2" d="M1045.94,237.86c-8.4,3-20.44,4.84-29.57,4.84-20.57,0-26.65-4.35-26.65-20.54,0-17.4,9.48-20.18,24.33-20.18a70.85,70.85,0,0,1,14.12,1.57c0-8.58-1.94-11-14.12-11a69.1,69.1,0,0,0-19.35,2.9l-2.92-14.76a119.27,119.27,0,0,1,26.78-3.25c18.62,0,27.38,5.67,27.38,24Zm-28.11-8.94a31.31,31.31,0,0,0,10.34-1.69V215.51a42.73,42.73,0,0,0-10.1-.85c-6.69,0-9.13.73-9.13,6.89S1010.53,228.92,1017.83,228.92Z" transform="translate(-0.09 0.36)"/><path class="cls-2" d="M1080.15,241h-18.74V183a101.55,101.55,0,0,1,31.64-5.55c17.16,0,25.68,7.13,25.68,29.36V241H1100V208.26c0-11.24-1.83-14.26-11-14.26a37.49,37.49,0,0,0-8.89,1.09Z" transform="translate(-0.09 0.36)"/><path class="cls-2" d="M1182.26,239.56c-5,2.06-13.38,3.14-19.59,3.14-18.62,0-31-7.62-31-33,0-25.13,12.54-32.26,31-32.26,6.45,0,14.73,1,19.59,2.66l-3.9,15.7a43.13,43.13,0,0,0-14.11-2.53c-9.12,0-13.74,1.57-13.74,16.8,0,14.5,4.62,16.67,13.74,16.67a38.9,38.9,0,0,0,14.11-2.78Z" transform="translate(-0.09 0.36)"/><path class="cls-2" d="M1242.15,239.31a80,80,0,0,1-22.52,3.39c-17.52,0-30.55-7.62-30.55-33,0-24.89,11.45-32.26,29.34-32.26,20.68,0,29.69,6.29,28,38.06h-38.09c.24,9.91,4.75,11.72,13.75,11.72a85.15,85.15,0,0,0,17.28-2.06Zm-33.71-37.45h21.66c-.24-8.58-3-10.4-10.34-10.4C1212,191.46,1209.53,194,1208.44,201.86Z" transform="translate(-0.09 0.36)"/></svg>