<?xml version="1.0" encoding="UTF-8"?>
<svg width="84px" height="26px" viewBox="0 0 84 26" version="1.1" xmlns="http://www.w3.org/2000/svg" xmlns:xlink="http://www.w3.org/1999/xlink">
    <!-- Generator: Sketch 49.2 (51160) - http://www.bohemiancoding.com/sketch -->
    <title>logo viva tech</title>
    <desc>Created with Sketch.</desc>
    <defs></defs>
    <g id="une-chance-pour-chaque-jeune" stroke="none" stroke-width="1" fill="none" fill-rule="evenodd">
        <g id="une-chance-pour-chaque-jeune---consultation" transform="translate(-941.000000, -343.000000)">
            <g id="une" transform="translate(0.000000, 80.000000)">
                <g id="identite" transform="translate(395.000000, 233.000000)">
                    <g id="partenaires">
                        <g id="Group-5" transform="translate(22.000000, 19.000000)">
                            <g id="logo-viva-tech" transform="translate(524.000000, 11.000000)">
                                <path d="M17.0902185,2.1615051 C16.928255,1.63752551 16.4511942,1.25767857 15.8876015,1.25767857 L14.0941456,1.25767857 L14.0941456,13.8375255 L17.0902185,13.8375255 L17.0902185,2.1615051 Z" id="Fill-1" fill="#000000"></path>
                                <path d="M17.0903447,2.66834184 L14.0942717,2.67242347 L14.0942717,7.26272959 C15.1187793,6.79410714 16.3092869,10.4504847 16.3092869,10.4504847 L17.0903447,12.6994643 L17.0903447,2.66834184 Z" id="Fill-3" fill="#000000"></path>
                                <path d="M17.0902185,2.1615051 C16.9340574,1.65640306 16.485252,1.28522959 15.9481486,1.25512755 L14.0941456,1.25793367 L14.0941456,2.98293367 C15.0712246,2.24160714 16.2614799,5.89772959 16.2614799,5.89772959 L17.0902185,8.28446429 L17.0902185,5.40869898 L17.0902185,2.1615051 Z" id="Fill-5" fill="#000000"></path>
                                <path d="M34.6762535,5.76632653 L34.720907,5.89770408 L37.3395696,13.8375 L40.5927155,13.8375 L36.5249587,2.02295918 C36.3317125,1.58188776 35.9083872,1.27270408 35.4106395,1.25867347 L33.1441593,1.25765306 L32.5535726,2.98290816 C33.4196486,2.3255102 34.452986,5.12321429 34.6762535,5.76632653" id="Fill-8" fill="#000000"></path>
                                <path d="M34.6762535,5.76632653 C34.452986,5.12321429 33.4196486,2.3255102 32.5535726,2.98290816 L28.8294207,13.8372449 L32.0316061,13.8372449 L34.6860924,5.89362245 L34.7193933,5.89362245 L34.6762535,5.76632653 Z" id="Fill-10" fill="#000000"></path>
                                <path d="M34.6762535,5.76632653 C34.452986,5.12321429 33.4196486,2.3255102 32.5535726,2.98290816 L31.7964815,5.18622449 C32.2311593,5.90484694 32.5840985,6.86836735 32.703679,7.21352041 L32.7483325,7.34464286 L33.4698523,9.53265306 L34.6860924,5.89362245 L34.7193933,5.89362245 L34.6762535,5.76632653 Z" id="Fill-12" fill="#000000"></path>
                                <path d="M26.9856602,1.25770408 L24.3311739,9.20132653 L24.2976207,9.20132653 L24.3407605,9.32862245 C24.5642802,9.9719898 25.5973653,12.7691837 26.4634413,12.1117857 L30.1875933,1.25770408 L26.9856602,1.25770408 Z" id="Fill-15" fill="#000000"></path>
                                <path d="M26.313335,7.8815051 L26.2686815,7.75012755 L25.5471617,5.56237245 L24.3309216,9.20140306 L24.2976207,9.20140306 L24.2971161,9.19961735 L23.9852985,10.2325255 L24.728262,12.3901786 L26.3700979,12.3881378 L27.2202802,9.90880102 C26.7858547,9.18992347 26.4331678,8.22640306 26.313335,7.8815051" id="Fill-17" fill="#000000"></path>
                                <path d="M24.3406848,9.32852041 L24.2960313,9.19714286 L21.677621,1.25760204 L18.4244751,1.25760204 L22.4919796,13.0718878 C22.6852258,13.5129592 23.1085511,13.8221429 23.6062988,13.8361735 L25.8730313,13.837449 L26.4636179,12.1119388 C25.5972897,12.7693367 24.5642046,9.97188776 24.3406848,9.32852041" id="Fill-20" fill="#000000"></path>
                                <path d="M9.56126079,1.25770408 L6.90677447,9.20132653 L6.87322128,9.20132653 L6.91661337,9.32862245 C7.13988085,9.9719898 8.17321824,12.7691837 9.03929422,12.1117857 L12.7631939,1.25770408 L9.56126079,1.25770408 Z" id="Fill-22" fill="#000000"></path>
                                <path d="M8.88891033,7.8815051 L8.84425684,7.75012755 L8.12273708,5.56237245 L6.90674924,9.20140306 L6.87319605,9.20140306 L6.87269149,9.19961735 L6.56087386,10.2325255 L7.30383739,12.3901786 L8.94567325,12.3881378 L9.7961079,9.90880102 C9.36143009,9.18992347 9.00874316,8.22640306 8.88891033,7.8815051" id="Fill-24" fill="#000000"></path>
                                <path d="M6.91651246,9.32852041 L6.87185897,9.19714286 L4.25319635,1.25760204 L1.00005046,1.25760204 L5.06780729,13.0718878 C5.26080122,13.5129592 5.68412644,13.8221429 6.18187416,13.8361735 L8.44860669,13.837449 L9.03919331,12.1119388 C8.17311733,12.7693367 7.13977994,9.97188776 6.91651246,9.32852041" id="Fill-27" fill="#000000"></path>
                                <polygon id="Fill-29" fill="#000000" points="3.54373556 18.8053061 1 18.8053061 1 16.9986735 8.13825228 16.9986735 8.13825228 18.8053061 5.594769 18.8053061 5.594769 25.6101531 3.54373556 25.6101531"></polygon>
                                <polygon id="Fill-31" fill="#000000" points="9.16989939 16.998648 14.4208477 16.998648 14.4208477 18.8052806 11.2209328 18.8052806 11.2209328 20.3710969 13.7762733 20.3710969 13.7762733 22.1777296 11.2209328 22.1777296 11.2209328 23.80375 14.5848295 23.80375 14.5848295 25.6101276 9.16989939 25.6101276"></polygon>
                                <path d="M19.8831559,16.8541582 C21.9576514,16.8541582 23.0245419,18.0709949 23.0245419,18.0709949 L22.0749614,19.6602806 C22.0749614,19.6602806 21.137238,18.7814541 19.977004,18.7814541 C18.3709918,18.7814541 17.6093596,19.9977806 17.6093596,21.2383418 C17.6093596,22.5146173 18.4297729,23.8273724 19.977004,23.8273724 C21.2429432,23.8273724 22.2038763,22.7679337 22.2038763,22.7679337 L23.2586574,24.3095153 C23.2586574,24.3095153 22.0749614,25.7546684 19.8831559,25.7546684 C17.2576818,25.7546684 15.4876878,23.8398724 15.4876878,21.286301 C15.4876878,18.7814541 17.3628824,16.8541582 19.8831559,16.8541582" id="Fill-33" fill="#000000"></path>
                                <polygon id="Fill-36" fill="#000000" points="24.5013112 16.998648 26.5523447 16.998648 26.5523447 20.4430357 29.5998827 20.4430357 29.5998827 16.998648 31.6511684 16.998648 31.6511684 25.6101276 29.5998827 25.6101276 29.5998827 22.2376786 26.5523447 22.2376786 26.5523447 25.6101276 24.5013112 25.6101276"></polygon>
                                <path d="M33.6206903,16.998648 L35.695438,16.998648 L38.0159061,21.0216071 C38.3443742,21.5874235 38.7192617,22.4904847 38.7192617,22.4904847 L38.7427237,22.4904847 C38.7427237,22.4904847 38.649128,21.5634439 38.649128,21.0216071 L38.649128,16.998648 L40.7001614,16.998648 L40.7001614,25.6101276 L38.6372708,25.6101276 L36.3046933,21.5994133 C35.9764775,21.0333418 35.6013377,20.1300255 35.6013377,20.1300255 L35.5778757,20.1300255 C35.5778757,20.1300255 35.6717237,21.0575765 35.6717237,21.5994133 L35.6717237,25.6101276 L33.6206903,25.6101276 L33.6206903,16.998648 Z" id="Fill-38" fill="#000000"></path>
                                <path d="M46.4787021,23.8276276 C47.7330365,23.8276276 48.7411459,22.7194643 48.7411459,21.2500765 C48.7411459,19.841148 47.7330365,18.7814541 46.4787021,18.7814541 C45.2246201,18.7814541 44.2165106,19.841148 44.2165106,21.2500765 C44.2165106,22.7194643 45.2246201,23.8276276 46.4787021,23.8276276 M46.4787021,16.8544133 C49.0105805,16.8544133 50.8628176,18.7814541 50.8628176,21.2500765 C50.8628176,23.7794133 49.0105805,25.7546684 46.4787021,25.7546684 C43.947076,25.7546684 42.0953435,23.7794133 42.0953435,21.2500765 C42.0953435,18.7814541 43.947076,16.8544133 46.4787021,16.8544133" id="Fill-40" fill="#000000"></path>
                                <polygon id="Fill-43" fill="#000000" points="52.2577474 16.998648 54.3087809 16.998648 54.3087809 23.80375 57.7312064 23.80375 57.7312064 25.6101276 52.2577474 25.6101276"></polygon>
                                <path d="M62.6075951,23.8276276 C63.8616772,23.8276276 64.8695343,22.7194643 64.8695343,21.2500765 C64.8695343,19.841148 63.8616772,18.7814541 62.6075951,18.7814541 C61.3532608,18.7814541 60.3454036,19.841148 60.3454036,21.2500765 C60.3454036,22.7194643 61.3532608,23.8276276 62.6075951,23.8276276 M62.6075951,16.8544133 C65.1392213,16.8544133 66.9912061,18.7814541 66.9912061,21.2500765 C66.9912061,23.7794133 65.1392213,25.7546684 62.6075951,25.7546684 C60.075969,25.7546684 58.2239842,23.7794133 58.2239842,21.2500765 C58.2239842,18.7814541 60.075969,16.8544133 62.6075951,16.8544133" id="Fill-45" fill="#000000"></path>
                                <path d="M72.2191213,16.8541582 C74.3640027,16.8541582 75.4422459,17.9982908 75.4422459,17.9982908 L74.4578508,19.5758418 C74.4578508,19.5758418 73.6021182,18.7814541 72.4181699,18.7814541 C70.6600331,18.7814541 69.9450726,19.9373214 69.9450726,21.2141071 C69.9450726,22.8521173 71.0470301,23.8273724 72.3482884,23.8273724 C73.3326836,23.8273724 74.0473918,23.2010969 74.0473918,23.2010969 L74.0473918,22.538852 L72.863948,22.538852 L72.863948,20.7442092 L75.8640574,20.7442092 L75.8640574,25.6100255 L74.1533492,25.6100255 L74.1533492,25.3692092 C74.1533492,25.1885969 74.1649541,25.0077296 74.1649541,25.0077296 L74.1412398,25.0077296 C74.1412398,25.0077296 73.3326836,25.7546684 71.9378295,25.7546684 C69.792948,25.7546684 67.8236532,24.1044133 67.8236532,21.286301 C67.8236532,18.7814541 69.6637809,16.8541582 72.2191213,16.8541582" id="Fill-48" fill="#000000"></path>
                                <path d="M79.0996447,22.0812755 L76.3333985,16.9988776 L78.6657237,16.9988776 L79.6153043,19.0703061 C79.8847389,19.6606122 80.119359,20.3108673 80.119359,20.3108673 L80.142821,20.3108673 C80.142821,20.3108673 80.3771888,19.6606122 80.6466234,19.0703061 L81.5843468,16.9988776 L83.9169243,16.9988776 L81.1506781,22.0812755 L81.1506781,25.610102 L79.0996447,25.610102 L79.0996447,22.0812755 Z" id="Fill-51" fill="#000000"></path>
                                <path d="M16.0902185,1.1615051 C15.928255,0.63752551 15.4511942,0.257678571 14.8876015,0.257678571 L13.0941456,0.257678571 L13.0941456,12.8375255 L16.0902185,12.8375255 L16.0902185,1.1615051 Z" id="Fill-1" fill="#FFFFFF"></path>
                                <path d="M16.0903447,1.66834184 L13.0942717,1.67242347 L13.0942717,6.26272959 C14.1187793,5.79410714 15.3092869,9.45048469 15.3092869,9.45048469 L16.0903447,11.6994643 L16.0903447,1.66834184 Z" id="Fill-3" fill="#FFFFFF"></path>
                                <path d="M16.0902185,1.1615051 C15.9340574,0.656403061 15.485252,0.285229592 14.9481486,0.255127551 L13.0941456,0.257933673 L13.0941456,1.98293367 C14.0712246,1.24160714 15.2614799,4.89772959 15.2614799,4.89772959 L16.0902185,7.28446429 L16.0902185,4.40869898 L16.0902185,1.1615051 Z" id="Fill-5" fill="#FFFFFF"></path>
                                <path d="M33.6762535,4.76632653 L33.720907,4.89770408 L36.3395696,12.8375 L39.5927155,12.8375 L35.5249587,1.02295918 C35.3317125,0.581887755 34.9083872,0.272704082 34.4106395,0.258673469 L32.1441593,0.257653061 L31.5535726,1.98290816 C32.4196486,1.3255102 33.452986,4.12321429 33.6762535,4.76632653" id="Fill-8" fill="#FFFFFF"></path>
                                <path d="M33.6762535,4.76632653 C33.452986,4.12321429 32.4196486,1.3255102 31.5535726,1.98290816 L27.8294207,12.8372449 L31.0316061,12.8372449 L33.6860924,4.89362245 L33.7193933,4.89362245 L33.6762535,4.76632653 Z" id="Fill-10" fill="#FFFFFF"></path>
                                <path d="M33.6762535,4.76632653 C33.452986,4.12321429 32.4196486,1.3255102 31.5535726,1.98290816 L30.7964815,4.18622449 C31.2311593,4.90484694 31.5840985,5.86836735 31.703679,6.21352041 L31.7483325,6.34464286 L32.4698523,8.53265306 L33.6860924,4.89362245 L33.7193933,4.89362245 L33.6762535,4.76632653 Z" id="Fill-12" fill="#FFFFFF"></path>
                                <path d="M25.9856602,0.257704082 L23.3311739,8.20132653 L23.2976207,8.20132653 L23.3407605,8.32862245 C23.5642802,8.9719898 24.5973653,11.7691837 25.4634413,11.1117857 L29.1875933,0.257704082 L25.9856602,0.257704082 Z" id="Fill-15" fill="#FFFFFF"></path>
                                <path d="M25.313335,6.8815051 L25.2686815,6.75012755 L24.5471617,4.56237245 L23.3309216,8.20140306 L23.2976207,8.20140306 L23.2971161,8.19961735 L22.9852985,9.23252551 L23.728262,11.3901786 L25.3700979,11.3881378 L26.2202802,8.90880102 C25.7858547,8.18992347 25.4331678,7.22640306 25.313335,6.8815051" id="Fill-17" fill="#FFFFFF"></path>
                                <path d="M23.3406848,8.32852041 L23.2960313,8.19714286 L20.677621,0.257602041 L17.4244751,0.257602041 L21.4919796,12.0718878 C21.6852258,12.5129592 22.1085511,12.8221429 22.6062988,12.8361735 L24.8730313,12.837449 L25.4636179,11.1119388 C24.5972897,11.7693367 23.5642046,8.97188776 23.3406848,8.32852041" id="Fill-20" fill="#FFFFFF"></path>
                                <path d="M8.56126079,0.257704082 L5.90677447,8.20132653 L5.87322128,8.20132653 L5.91661337,8.32862245 C6.13988085,8.9719898 7.17321824,11.7691837 8.03929422,11.1117857 L11.7631939,0.257704082 L8.56126079,0.257704082 Z" id="Fill-22" fill="#FFFFFF"></path>
                                <path d="M7.88891033,6.8815051 L7.84425684,6.75012755 L7.12273708,4.56237245 L5.90674924,8.20140306 L5.87319605,8.20140306 L5.87269149,8.19961735 L5.56087386,9.23252551 L6.30383739,11.3901786 L7.94567325,11.3881378 L8.7961079,8.90880102 C8.36143009,8.18992347 8.00874316,7.22640306 7.88891033,6.8815051" id="Fill-24" fill="#FFFFFF"></path>
                                <path d="M5.91651246,8.32852041 L5.87185897,8.19714286 L3.25319635,0.257602041 L5.04559271e-05,0.257602041 L4.06780729,12.0718878 C4.26080122,12.5129592 4.68412644,12.8221429 5.18187416,12.8361735 L7.44860669,12.837449 L8.03919331,11.1119388 C7.17311733,11.7693367 6.13977994,8.97188776 5.91651246,8.32852041" id="Fill-27" fill="#FFFFFF"></path>
                                <polygon id="Fill-29" fill="#FFFFFF" points="2.54373556 17.8053061 0 17.8053061 0 15.9986735 7.13825228 15.9986735 7.13825228 17.8053061 4.594769 17.8053061 4.594769 24.6101531 2.54373556 24.6101531"></polygon>
                                <polygon id="Fill-31" fill="#FFFFFF" points="8.16989939 15.998648 13.4208477 15.998648 13.4208477 17.8052806 10.2209328 17.8052806 10.2209328 19.3710969 12.7762733 19.3710969 12.7762733 21.1777296 10.2209328 21.1777296 10.2209328 22.80375 13.5848295 22.80375 13.5848295 24.6101276 8.16989939 24.6101276"></polygon>
                                <path d="M18.8831559,15.8541582 C20.9576514,15.8541582 22.0245419,17.0709949 22.0245419,17.0709949 L21.0749614,18.6602806 C21.0749614,18.6602806 20.137238,17.7814541 18.977004,17.7814541 C17.3709918,17.7814541 16.6093596,18.9977806 16.6093596,20.2383418 C16.6093596,21.5146173 17.4297729,22.8273724 18.977004,22.8273724 C20.2429432,22.8273724 21.2038763,21.7679337 21.2038763,21.7679337 L22.2586574,23.3095153 C22.2586574,23.3095153 21.0749614,24.7546684 18.8831559,24.7546684 C16.2576818,24.7546684 14.4876878,22.8398724 14.4876878,20.286301 C14.4876878,17.7814541 16.3628824,15.8541582 18.8831559,15.8541582" id="Fill-33" fill="#FFFFFF"></path>
                                <polygon id="Fill-36" fill="#FFFFFF" points="23.5013112 15.998648 25.5523447 15.998648 25.5523447 19.4430357 28.5998827 19.4430357 28.5998827 15.998648 30.6511684 15.998648 30.6511684 24.6101276 28.5998827 24.6101276 28.5998827 21.2376786 25.5523447 21.2376786 25.5523447 24.6101276 23.5013112 24.6101276"></polygon>
                                <path d="M32.6206903,15.998648 L34.695438,15.998648 L37.0159061,20.0216071 C37.3443742,20.5874235 37.7192617,21.4904847 37.7192617,21.4904847 L37.7427237,21.4904847 C37.7427237,21.4904847 37.649128,20.5634439 37.649128,20.0216071 L37.649128,15.998648 L39.7001614,15.998648 L39.7001614,24.6101276 L37.6372708,24.6101276 L35.3046933,20.5994133 C34.9764775,20.0333418 34.6013377,19.1300255 34.6013377,19.1300255 L34.5778757,19.1300255 C34.5778757,19.1300255 34.6717237,20.0575765 34.6717237,20.5994133 L34.6717237,24.6101276 L32.6206903,24.6101276 L32.6206903,15.998648 Z" id="Fill-38" fill="#FFFFFF"></path>
                                <path d="M45.4787021,22.8276276 C46.7330365,22.8276276 47.7411459,21.7194643 47.7411459,20.2500765 C47.7411459,18.841148 46.7330365,17.7814541 45.4787021,17.7814541 C44.2246201,17.7814541 43.2165106,18.841148 43.2165106,20.2500765 C43.2165106,21.7194643 44.2246201,22.8276276 45.4787021,22.8276276 M45.4787021,15.8544133 C48.0105805,15.8544133 49.8628176,17.7814541 49.8628176,20.2500765 C49.8628176,22.7794133 48.0105805,24.7546684 45.4787021,24.7546684 C42.947076,24.7546684 41.0953435,22.7794133 41.0953435,20.2500765 C41.0953435,17.7814541 42.947076,15.8544133 45.4787021,15.8544133" id="Fill-40" fill="#FFFFFF"></path>
                                <polygon id="Fill-43" fill="#FFFFFF" points="51.2577474 15.998648 53.3087809 15.998648 53.3087809 22.80375 56.7312064 22.80375 56.7312064 24.6101276 51.2577474 24.6101276"></polygon>
                                <path d="M61.6075951,22.8276276 C62.8616772,22.8276276 63.8695343,21.7194643 63.8695343,20.2500765 C63.8695343,18.841148 62.8616772,17.7814541 61.6075951,17.7814541 C60.3532608,17.7814541 59.3454036,18.841148 59.3454036,20.2500765 C59.3454036,21.7194643 60.3532608,22.8276276 61.6075951,22.8276276 M61.6075951,15.8544133 C64.1392213,15.8544133 65.9912061,17.7814541 65.9912061,20.2500765 C65.9912061,22.7794133 64.1392213,24.7546684 61.6075951,24.7546684 C59.075969,24.7546684 57.2239842,22.7794133 57.2239842,20.2500765 C57.2239842,17.7814541 59.075969,15.8544133 61.6075951,15.8544133" id="Fill-45" fill="#FFFFFF"></path>
                                <path d="M71.2191213,15.8541582 C73.3640027,15.8541582 74.4422459,16.9982908 74.4422459,16.9982908 L73.4578508,18.5758418 C73.4578508,18.5758418 72.6021182,17.7814541 71.4181699,17.7814541 C69.6600331,17.7814541 68.9450726,18.9373214 68.9450726,20.2141071 C68.9450726,21.8521173 70.0470301,22.8273724 71.3482884,22.8273724 C72.3326836,22.8273724 73.0473918,22.2010969 73.0473918,22.2010969 L73.0473918,21.538852 L71.863948,21.538852 L71.863948,19.7442092 L74.8640574,19.7442092 L74.8640574,24.6100255 L73.1533492,24.6100255 L73.1533492,24.3692092 C73.1533492,24.1885969 73.1649541,24.0077296 73.1649541,24.0077296 L73.1412398,24.0077296 C73.1412398,24.0077296 72.3326836,24.7546684 70.9378295,24.7546684 C68.792948,24.7546684 66.8236532,23.1044133 66.8236532,20.286301 C66.8236532,17.7814541 68.6637809,15.8541582 71.2191213,15.8541582" id="Fill-48" fill="#FFFFFF"></path>
                                <path d="M78.0996447,21.0812755 L75.3333985,15.9988776 L77.6657237,15.9988776 L78.6153043,18.0703061 C78.8847389,18.6606122 79.119359,19.3108673 79.119359,19.3108673 L79.142821,19.3108673 C79.142821,19.3108673 79.3771888,18.6606122 79.6466234,18.0703061 L80.5843468,15.9988776 L82.9169243,15.9988776 L80.1506781,21.0812755 L80.1506781,24.610102 L78.0996447,24.610102 L78.0996447,21.0812755 Z" id="Fill-51" fill="#FFFFFF"></path>
                            </g>
                        </g>
                    </g>
                </g>
            </g>
        </g>
    </g>
</svg>