<svg xmlns="http://www.w3.org/2000/svg" xmlns:xlink="http://www.w3.org/1999/xlink" width="88" height="27" viewBox="0 0 88 27">
    <defs>
        <filter id="a" width="100.3%" height="103.8%" x="-.1%" y="-.9%" filterUnits="objectBoundingBox">
            <feOffset dx="1" dy="1" in="SourceAlpha" result="shadowOffsetOuter1"/>
            <feColorMatrix in="shadowOffsetOuter1" result="shadowMatrixOuter1" values="0 0 0 0 0 0 0 0 0 0 0 0 0 0 0 0 0 0 1 0"/>
            <feMerge>
                <feMergeNode in="shadowMatrixOuter1"/>
                <feMergeNode in="SourceGraphic"/>
            </feMerge>
        </filter>
        <path id="b" d="M.239.255h3.14v7.31H.24z"/>
        <path id="d" d="M.02.092h3.063v6.914H.019z"/>
        <path id="f" d="M.03.225h3.39v7.1H.03z"/>
        <path id="h" d="M.011.225h3.391v7.1H.012z"/>
        <path id="j" d="M.113.03h8.145v9.256H.113z"/>
        <path id="l" d="M.237.03h9.19v9.256H.237z"/>
        <path id="n" d="M.219.03h9.19v9.256H.219z"/>
        <path id="p" d="M.233.03H8.66v9.256H.233z"/>
    </defs>
    <g fill="none" fill-rule="evenodd" filter="url(#a)" transform="translate(-498 -14)">
        <path fill="#FFF" d="M514.866 15.208c-.17-.545-.67-.94-1.26-.94h-1.88v13.083h3.14V15.208z"/>
        <path fill="#FFF" d="M514.866 15.735l-3.14.004v4.774c1.073-.487 2.321 3.316 2.321 3.316l.819 2.338V15.735z"/>
        <g transform="translate(511.486 14.01)">
            <mask id="c" fill="#fff">
                <use xlink:href="#b"/>
            </mask>
            <path fill="#FFF" d="M3.38 1.198A1.337 1.337 0 0 0 2.181.255L.24.258v1.794c1.024-.77 2.272 3.032 2.272 3.032l.868 2.482V1.198z" mask="url(#c)"/>
        </g>
        <path fill="#FFF" d="M533.3 18.957l.046.137 2.745 8.257h3.41l-4.264-12.287a1.32 1.32 0 0 0-1.168-.795l-2.376-.001-.619 1.794c.908-.683 1.991 2.226 2.225 2.895"/>
        <path fill="#FFF" d="M533.3 18.957c-.235-.669-1.318-3.578-2.226-2.895l-3.903 11.289h3.356l2.783-8.262h.034l-.045-.132z"/>
        <g transform="translate(530.261 15.867)">
            <mask id="e" fill="#fff">
                <use xlink:href="#d"/>
            </mask>
            <path fill="#FFF" d="M3.038 3.09C2.804 2.42 1.72-.49.813.195L.019 2.486c.456.748.826 1.75.951 2.109l.047.136.756 2.276 1.275-3.785h.035l-.045-.132z" mask="url(#e)"/>
        </g>
        <path fill="#FFF" d="M525.238 14.268l-2.782 8.261h-.036l.046.133c.234.669 1.317 3.578 2.225 2.894l3.903-11.288h-3.356z"/>
        <g transform="translate(522.064 18.52)">
            <mask id="g" fill="#fff">
                <use xlink:href="#f"/>
            </mask>
            <path fill="#FFF" d="M2.47 2.636L2.422 2.5 1.666.225.391 4.009H.357l-.001-.002-.327 1.074.779 2.244 1.72-.002.892-2.578c-.455-.748-.825-1.75-.95-2.109" mask="url(#g)"/>
        </g>
        <path fill="#FFF" d="M522.466 22.662l-.047-.137-2.745-8.257h-3.41l4.264 12.287c.202.458.646.78 1.168.795h2.376l.619-1.794c-.908.684-1.991-2.225-2.225-2.894M506.974 14.268l-2.783 8.261h-.035l.046.133c.234.669 1.317 3.578 2.225 2.894l3.903-11.288h-3.356z"/>
        <g transform="translate(503.818 18.52)">
            <mask id="i" fill="#fff">
                <use xlink:href="#h"/>
            </mask>
            <path fill="#FFF" d="M2.451 2.636L2.405 2.5 1.648.225.374 4.009H.339v-.002L.01 5.081.79 7.325l1.721-.002.891-2.578c-.455-.748-.825-1.75-.95-2.109" mask="url(#i)"/>
        </g>
        <path fill="#FFF" d="M504.202 22.662l-.047-.137-2.745-8.257H498l4.264 12.287c.202.458.646.78 1.168.795h2.376l.619-1.794c-.908.684-1.991-2.225-2.225-2.894M500.666 32.518H498v-1.88h7.482v1.88h-2.666v7.077h-2.15zM506.564 30.639h5.504v1.878h-3.354v1.629h2.678v1.879h-2.678v1.69h3.526v1.88h-5.676z"/>
        <g transform="translate(513.073 30.46)">
            <mask id="k" fill="#fff">
                <use xlink:href="#j"/>
            </mask>
            <path fill="#FFF" d="M4.72.03c2.175 0 3.293 1.265 3.293 1.265l-.995 1.653s-.983-.914-2.2-.914c-1.683 0-2.481 1.265-2.481 2.555 0 1.327.86 2.692 2.482 2.692 1.327 0 2.334-1.101 2.334-1.101l1.105 1.603S7.018 9.286 4.72 9.286C1.968 9.286.113 7.294.113 4.639c0-2.605 1.966-4.61 4.607-4.61" mask="url(#k)"/>
        </g>
        <path fill="#FFF" d="M522.634 30.639h2.15v3.582h3.194v-3.582h2.15v8.956h-2.15v-3.508h-3.194v3.508h-2.15zM532.193 30.639h2.175l2.432 4.183c.344.589.737 1.528.737 1.528h.025s-.098-.964-.098-1.528V30.64h2.15v8.956h-2.163l-2.445-4.172c-.344-.588-.737-1.528-.737-1.528h-.025s.099.965.099 1.528v4.172h-2.15v-8.956z"/>
        <g transform="translate(540.839 30.46)">
            <mask id="m" fill="#fff">
                <use xlink:href="#l"/>
            </mask>
            <path fill="#FFF" d="M4.832 7.282c1.314 0 2.371-1.153 2.371-2.681 0-1.465-1.057-2.567-2.371-2.567-1.315 0-2.372 1.102-2.372 2.567 0 1.528 1.057 2.68 2.372 2.68m0-7.252c2.653 0 4.595 2.005 4.595 4.572 0 2.63-1.942 4.685-4.595 4.685C2.178 9.286.237 7.23.237 4.6c0-2.567 1.94-4.572 4.595-4.572" mask="url(#m)"/>
        </g>
        <path fill="#FFF" d="M551.728 30.639h2.15v7.077h3.587v1.879h-5.737z"/>
        <g transform="translate(557.763 30.46)">
            <mask id="o" fill="#fff">
                <use xlink:href="#n"/>
            </mask>
            <path fill="#FFF" d="M4.814 7.282c1.314 0 2.37-1.153 2.37-2.681 0-1.465-1.056-2.567-2.37-2.567-1.315 0-2.371 1.102-2.371 2.567 0 1.528 1.056 2.68 2.37 2.68m0-7.252C7.468.03 9.41 2.034 9.41 4.601c0 2.63-1.942 4.685-4.595 4.685C2.16 9.286.219 7.23.219 4.6.219 2.034 2.16.029 4.814.029" mask="url(#o)"/>
        </g>
        <g transform="translate(567.812 30.46)">
            <mask id="q" fill="#fff">
                <use xlink:href="#p"/>
            </mask>
            <path fill="#FFF" d="M4.84.03c2.248 0 3.378 1.19 3.378 1.19L7.186 2.86s-.897-.826-2.138-.826c-1.842 0-2.592 1.202-2.592 2.53 0 1.703 1.155 2.717 2.52 2.717 1.031 0 1.78-.651 1.78-.651v-.689h-1.24V4.075H8.66v5.06H6.867v-.25c0-.188.012-.376.012-.376h-.024s-.848.777-2.31.777C2.297 9.286.233 7.569.233 4.639.233 2.034 2.16.029 4.84.029" mask="url(#q)"/>
        </g>
        <path fill="#FFF" d="M579.863 35.925l-2.9-5.286h2.446l.995 2.154c.282.614.528 1.29.528 1.29h.025s.246-.676.528-1.29l.983-2.154h2.445l-2.9 5.286v3.67h-2.15v-3.67z"/>
    </g>
</svg>
