<?xml version="1.0" encoding="UTF-8"?>
<svg width="22px" height="23px" viewBox="0 0 22 23" version="1.1" xmlns="http://www.w3.org/2000/svg" xmlns:xlink="http://www.w3.org/1999/xlink">
    <!-- Generator: sketchtool 50.2 (55047) - http://www.bohemiancoding.com/sketch -->
    <title>AE9640D0-1414-4137-AD73-7053D855FD3D</title>
    <desc>Created with sketchtool.</desc>
    <defs></defs>
    <g id="make-dégradé" stroke="none" stroke-width="1" fill="none" fill-rule="evenodd">
        <g id="page-consultation-(accès-direct)---onglet-action---dégradée" transform="translate(-150.000000, -622.000000)" fill="#000000" fill-rule="nonzero">
            <g id="main-col" transform="translate(150.000000, 337.000000)">
                <g id="clapping" transform="translate(0.000000, 285.000000)">
                    <path d="M20.9871354,14.2615194 C20.9851432,14.2495046 20.9824869,14.2378029 20.9791276,14.2264535 L20.9211195,14.0207155 C20.6831107,13.1313888 19.189784,12.2674222 18.3021239,12.505878 C18.1244669,12.5536239 18.0188024,12.736663 18.0664588,12.9149667 C18.1141153,13.0929572 18.2954442,13.1991724 18.4747809,13.1510742 C19.0061113,13.0081495 20.134788,13.6616817 20.2784605,14.198393 L20.3321326,14.387733 C20.3338123,14.4044441 20.3331482,14.4151282 20.331117,14.4208029 C20.1774444,14.4702317 19.4681055,14.697338 19.0737678,14.8032009 C18.6694302,14.911725 18.2474362,15.0510101 17.8077468,15.2093152 C17.6387617,13.9666295 17.2954009,12.6778807 16.7857502,10.7719962 L15.5777373,6.25617027 C15.3077361,5.24661775 14.4140604,4.83952498 13.705073,5.03019562 C13.417728,5.1073327 13.158391,5.2813314 12.9654214,5.52146995 L12.7200688,4.60306521 C12.453388,3.60685808 11.5363919,3.19275996 10.8413889,3.37877341 C10.5510361,3.4565758 10.2820506,3.64826397 10.0850575,3.91446711 C9.93837722,3.61789443 9.71138406,3.37478154 9.42470315,3.2124845 C9.04571716,2.99774522 8.59868399,2.94365925 8.16637746,3.05985407 C7.73270373,3.17608802 7.37238969,3.44522636 7.15172468,3.81795771 C7.07570873,3.94687173 7.0184038,4.08412172 6.98070833,4.22673334 C6.9610598,4.21503167 6.94105972,4.20368223 6.92070807,4.19268501 C6.55805027,3.99798336 6.11672026,3.95591215 5.67671838,4.07378981 C5.24671654,4.18935845 4.88737906,4.46554127 4.66472186,4.85157887 C4.44206466,5.2379687 4.38272847,5.68815022 4.49839303,6.11860719 L5.41671726,9.55404441 C5.19706789,9.83523664 4.72237836,10.5141681 4.46104912,11.4389129 C4.41069734,11.6162382 4.51405716,11.800921 4.6910501,11.8510151 C4.72140179,11.8597033 4.75171442,11.8640474 4.78206611,11.8640474 C4.9274183,11.8640474 5.06105168,11.7678511 5.10273155,11.6209345 C5.24238058,11.125003 5.45640493,10.7085567 5.64374949,10.4023174 L6.65476943,14.1830908 C6.70242589,14.3614336 6.88344229,14.4672965 7.06309149,14.4191983 C7.24110006,14.3717655 7.34641301,14.1884133 7.29875656,14.0104227 L5.14206765,5.94562603 C5.07308298,5.68748491 5.10839563,5.41728989 5.24206808,5.18552644 C5.37538896,4.95407608 5.59105395,4.78810026 5.84906286,4.71898607 C6.1244156,4.64451024 6.39273706,4.66689604 6.60574579,4.78144714 C6.83141081,4.9026905 6.99340369,5.12576576 7.0737556,5.42730871 L8.88575553,12.2017129 C8.93341199,12.3797035 9.11677215,12.4862317 9.29376509,12.4378204 C9.47177366,12.3900745 9.57708661,12.2070354 9.52943016,12.0287317 L7.6317658,4.93172942 C7.55875767,4.65856007 7.59176563,4.38402096 7.72508651,4.15859754 C7.8564152,3.93685291 8.07442394,3.7758865 8.33907351,3.70473724 C8.60141838,3.63425328 8.87075547,3.66599259 9.096733,3.79388907 C9.32571835,3.9234684 9.49138312,4.14321709 9.56341468,4.41305988 L11.4614306,11.5100622 C11.5090871,11.6880528 11.6920957,11.7949332 11.8697527,11.7461697 C12.0477612,11.6984238 12.1530742,11.5153847 12.1054177,11.337081 L10.4664264,5.20783397 C10.299746,4.58498437 10.6844351,4.11245619 11.0140849,4.02361745 C11.3370941,3.93677464 11.8990887,4.11546966 12.0760817,4.77569415 L13.7150731,10.9048629 C13.7627295,11.0832057 13.9437459,11.1897339 14.1233951,11.1409705 C14.3010521,11.0935376 14.4067166,10.9101854 14.3590602,10.7321949 L13.3253839,6.8605868 C13.2280397,6.49658277 13.311712,6.22940123 13.3990561,6.06941323 C13.5070644,5.87138502 13.681401,5.72775586 13.8773784,5.67500052 C14.2700364,5.57082046 14.7717182,5.82359995 14.9337111,6.42907316 L16.1420366,10.9455644 C17.1396971,14.676909 17.4900501,15.9876913 17.1123923,19.3279889 L9.86501753,21.2733226 C8.25075282,18.2219662 4.77706609,15.4383783 2.78506539,14.2862142 C2.43006387,14.0808284 1.79970961,13.6750663 1.66740436,13.5895541 C1.66873249,13.583214 1.67138875,13.5731952 1.67705284,13.5588323 L1.78006109,13.3858511 C1.90607725,13.1674331 2.27072725,12.9500325 2.709401,12.8321549 C3.14807475,12.7142772 3.57272501,12.7199519 3.79042125,12.8458525 L5.35308418,13.7502074 C5.5127333,13.8420596 5.71640605,13.7872692 5.80843769,13.6276334 C5.90043027,13.4679976 5.8460941,13.2636294 5.68644498,13.1714249 L4.12378205,12.2673831 C3.74913201,12.0506479 3.1557701,12.0205914 2.53678308,12.1872326 C1.91744449,12.3535606 1.41877048,12.676824 1.20544926,13.0475203 L1.09376909,13.2348644 C1.08744094,13.2452355 1.08177686,13.2559196 1.07677683,13.2669168 C0.930760585,13.5861884 0.995448361,13.9020942 1.25009789,14.1118241 C1.25974637,14.119847 1.27009797,14.1275177 1.28076208,14.1342099 C1.31177784,14.1542476 2.04111689,14.6268149 2.45178271,14.8645661 C4.42280676,16.0043633 7.89047784,18.7882642 9.38314047,21.7949273 C9.43513288,21.9198103 9.55778966,22 9.6911496,22 C9.7178294,22 9.74513421,21.9966734 9.77216557,21.9899812 C9.7754859,21.9889636 9.77849373,21.9882983 9.78150155,21.987633 L17.5035268,19.9144029 C17.635207,19.879337 17.7321996,19.7671341 17.7481762,19.6315278 C17.9318489,18.0932869 17.9735288,16.9708662 17.8828643,15.8911819 C18.3622023,15.7141698 18.8141964,15.5642397 19.2461905,15.448358 C19.7045127,15.3251187 20.5311959,15.0579763 20.5661961,15.0465877 C20.5781883,15.0425958 20.5898681,15.0378995 20.6015478,15.0328901 C20.901471,14.8963837 21.0458075,14.6078339 20.9871354,14.2615194 Z" id="Shape" stroke="#000000" stroke-width="0.5"></path>
                    <path d="M12.6070864,2.99848976 C12.9528304,2.63859127 13.4383993,2.61084274 13.7189931,2.7667895 C14.029391,2.93998 14.291388,3.50287884 13.9540596,4.06843362 L13.9533618,4.06946427 C13.8566831,4.23115895 13.9141156,4.43784589 14.0815687,4.53151702 C14.2493502,4.62487101 14.4633979,4.56905682 14.5601176,4.40771891 C14.560446,4.40736214 14.5608155,4.40668825 14.5608155,4.40637113 L15.0855895,3.52892282 C15.3851084,3.02762573 16.0023737,2.86795273 16.5211951,3.15717174 C17.0484322,3.45146477 17.2102611,4.03462004 16.9061853,4.54372637 L16.7387322,4.82382801 L16.2016835,5.60693129 C16.0948239,5.76252129 16.1389964,5.9725777 16.3004558,6.0757626 C16.360023,6.11365917 16.427267,6.13193357 16.4934846,6.13193357 C16.6069948,6.13193357 16.7187397,6.07849782 16.7859836,5.98038693 L17.3272197,5.1912186 C17.3293134,5.18816627 17.3293134,5.18444003 17.331407,5.18142734 C17.3331723,5.178375 17.3362923,5.17702721 17.338427,5.17365775 L17.338427,5.17330098 L17.3387965,5.17294421 C17.7262499,4.52683941 18.3337036,4.55831417 18.7733347,4.8038887 C19.0161192,4.93918263 19.1902228,5.15772216 19.2627215,5.4195494 C19.3355897,5.68137665 19.2981087,5.95469971 19.1579966,6.18945231 L17.1829202,9.49263787 C17.0862416,9.65433254 17.1440435,9.86133661 17.3111271,9.95469061 C17.3664659,9.98549148 17.4267309,10 17.4862981,10 C17.6071566,10 17.7248541,9.93946855 17.7900044,9.83085286 L19.7643829,6.52766731 C19.9983821,6.13661118 20.0607409,5.68098024 19.9395539,5.24461471 C19.8183259,4.80789242 19.5286185,4.44327668 19.1236767,4.21795858 C18.6682814,3.9635838 18.1894041,3.90539115 17.7606108,4.02379812 C17.7644698,3.4446862 17.4495151,2.89399671 16.871496,2.57128125 C16.1288154,2.15759024 15.2341174,2.31218922 14.691855,2.90446187 C14.5639765,2.59157733 14.3429499,2.33347631 14.0690066,2.18089901 C13.5407432,1.88660598 12.6922703,1.91502841 12.0935607,2.53877583 C11.9618644,2.67577431 11.9702391,2.88955695 12.1121165,3.01676416 C12.2539528,3.14357496 12.4750205,3.13548824 12.6070864,2.99848976 Z" id="Shape" stroke="#000000" stroke-width="0.5"></path>
                    <g id="Group-7">
                        <path d="M4.57315542,1.65549898 C4.65558894,1.82147004 4.82194674,1.9170073 4.99481971,1.9170073 C5.06549279,1.9170073 5.13760141,1.90093665 5.20496169,1.86735452 C5.43774114,1.7505375 5.53243202,1.46636401 5.41604229,1.23272996 L4.94440993,0.286944289 C4.82851713,0.0533656529 4.54582482,-0.0421716115 4.31260367,0.0755874876 C4.07987943,0.192404514 3.98513334,0.476134673 4.10152306,0.709713309 L4.57315542,1.65549898 Z" id="Shape"></path>
                        <path d="M1.83435284,3.6699831 C1.92622784,3.76219541 2.04686899,3.80852322 2.16745493,3.80852322 C2.28809608,3.80852322 2.40868202,3.76219541 2.50055702,3.6699831 C2.68480394,3.48505976 2.68480394,3.18620102 2.50055702,3.00133309 L1.55823092,2.05554742 C1.373984,1.87062407 1.07621845,1.87062407 0.892026743,2.05554742 C0.707835036,2.24047077 0.707835036,2.5393295 0.892026743,2.72419744 L1.83435284,3.6699831 Z" id="Shape"></path>
                        <path d="M0.753993389,6.64582481 L1.69631949,6.64582481 C1.95637432,6.64582481 2.16745493,6.43396926 2.16745493,6.17295968 C2.16745493,5.9119501 1.95637432,5.70009456 1.69631949,5.70009456 L0.753993389,5.70009456 C0.493938552,5.70009456 0.282857948,5.9119501 0.282857948,6.17295968 C0.282857948,6.43396926 0.493938552,6.64582481 0.753993389,6.64582481 Z" id="Shape"></path>
                        <path d="M0.753993389,9.95599152 C0.802967623,9.95599152 0.853432617,9.94839952 0.902903771,9.93188554 L2.31636531,9.45902041 C2.56322416,9.37628426 2.6970613,9.10812601 2.61462778,8.86080419 C2.53219426,8.61303905 2.26595553,8.47871055 2.01859976,8.56144671 L0.605138221,9.03431183 C0.358279372,9.11704799 0.224939153,9.38520624 0.306875751,9.63252806 C0.372855694,9.83069584 0.556605694,9.95599152 0.753993389,9.95599152 Z" id="Shape"></path>
                    </g>
                </g>
            </g>
        </g>
    </g>
</svg>