<svg xmlns="http://www.w3.org/2000/svg" x="0px" y="0px" viewBox="0 0 180 41">
<path fill="#768283" d="M1,1.3v17.5h1.2l0-7.9h9.2l0-1.2H2.2V2.5h10.3V1.3H1z M30.2,10.1L30.2,10.1c0-4.4-2.9-7.9-7-7.9
	c-4,0-6.9,3.5-6.9,7.8V10c0,4.3,2.9,7.9,7,7.9S30.2,14.4,30.2,10.1 M15.1,10.1L15.1,10.1c0-4.8,3.3-9.1,8.2-9.1s8.2,4.2,8.2,9v0
	c0,4.8-3.3,9-8.2,9C18.3,19.1,15.1,14.9,15.1,10.1 M35.6,1.3h1.1l11.2,15.2V1.3h1.2v17.5h-0.9L36.7,3.2v15.5h-1.2
	C35.6,18.8,35.6,1.3,35.6,1.3z M59.4,17.6c4.5,0,7.4-3.3,7.4-7.5v0c0-4.1-2.9-7.5-7.4-7.5h-4.2v15.1H59.4z M53.9,1.3h5.4
	c5.1,0,8.7,3.8,8.7,8.7v0c0,4.9-3.5,8.7-8.7,8.7h-5.4V1.3z M82.1,12.7L77.8,2.6l-4.3,10.1H82.1L82.1,12.7z M77.3,1.2h1.2L86,18.8
	h-1.3l-2.1-4.9H73L71,18.8h-1.3L77.3,1.2z M91.9,2.5h-5.7V1.3h12.6v1.2h-5.7v16.3h-1.2C91.9,18.8,91.9,2.5,91.9,2.5z M102.6,1.3h1.2
	v17.5h-1.2V1.3z M123.2,10.1L123.2,10.1c0-4.4-2.9-7.9-7-7.9c-4,0-6.9,3.5-6.9,7.8V10c0,4.3,2.9,7.9,7,7.9
	C120.3,17.9,123.2,14.4,123.2,10.1 M108.1,10.1L108.1,10.1c0-4.8,3.3-9.1,8.2-9.1c4.9,0,8.2,4.2,8.2,9v0c0,4.8-3.3,9-8.2,9
	C111.3,19.1,108.1,14.9,108.1,10.1 M128.6,1.3h1.1L141,16.5V1.3h1.2v17.5h-0.9L129.8,3.2v15.5h-1.2V1.3z M1.5,30.8L1.5,30.8
	c0-4.8,3.4-9.1,8.5-9.1c2.9,0,4.6,0.8,6.3,2.3l-1.2,1.5c-1.3-1.2-2.8-2-5.2-2c-3.8,0-6.4,3.3-6.4,7.2v0c0,4.2,2.6,7.3,6.7,7.3
	c1.9,0,3.7-0.8,4.9-1.7v-4.3H10v-1.8h7v7c-1.6,1.4-3.9,2.7-6.8,2.7C4.8,39.8,1.5,35.8,1.5,30.8 M35.8,30.8L35.8,30.8
	c0-4-2.8-7.3-6.7-7.3c-3.9,0-6.6,3.2-6.6,7.2v0c0,4,2.8,7.2,6.7,7.2S35.8,34.7,35.8,30.8 M20.5,30.8L20.5,30.8
	c0-4.9,3.5-9.1,8.7-9.1c5.2,0,8.6,4.2,8.6,9v0c0,4.8-3.5,9-8.7,9S20.5,35.6,20.5,30.8 M56.4,30.8L56.4,30.8c0-4-2.8-7.3-6.7-7.3
	c-3.9,0-6.6,3.2-6.6,7.2v0c0,4,2.8,7.2,6.7,7.2C53.6,37.9,56.4,34.7,56.4,30.8 M41.1,30.8L41.1,30.8c0-4.9,3.5-9.1,8.7-9.1
	c5.2,0,8.6,4.2,8.6,9v0c0,4.8-3.5,9-8.7,9C44.5,39.8,41.1,35.6,41.1,30.8 M64.3,23.8v13.8h4c4.3,0,7-3,7-6.9v-0.1
	c0-3.9-2.7-6.9-7-6.9H64.3z M62.4,22h5.9c5.3,0,9,3.8,9,8.7v0c0,4.9-3.7,8.7-9,8.7h-5.9V22z M87.4,31.5c2.8,0,4.6-1.5,4.6-3.8v-0.1
	c0-2.5-1.8-3.8-4.5-3.8h-4.3v7.7L87.4,31.5L87.4,31.5z M81.3,22h6.3c3.8,0,6.3,2.1,6.3,5.5v0c0,3.8-3,5.7-6.7,5.7h-4.1v6.2h-1.9
	C81.3,39.5,81.3,22,81.3,22z M97.5,22h1.9v15.7h9.5v1.8H97.5C97.5,39.5,97.5,22,97.5,22z M123.4,33l-3.8-8.9l-3.9,8.9H123.4
	L123.4,33z M118.7,21.8h1.8l7.7,17.6h-2.1l-2-4.6H115l-2,4.6h-2L118.7,21.8L118.7,21.8z M131.6,22h1.8L144,36V22h1.9v17.5h-1.5
	l-10.9-14.3v14.3h-1.9V22z M150.7,22h12.2v1.8h-10.3v6h9.2v1.8h-9.2v6.1h10.5v1.8h-12.4L150.7,22L150.7,22z M171.4,23.8h-5.7V22H179
	v1.8h-5.7v15.7h-1.9V23.8z"/>
</svg>
