<svg xmlns="http://www.w3.org/2000/svg" x="0px" y="0px" width="358" height="168" viewBox="0 0 358 168">
<style type="text/css">
    .st0{opacity:0.2;fill:#459BA6;}
</style>
<path class="st0" d="M56.6,102.9v22.7h4.9c8.3,0,10.8-2.6,10.8-11.3s-2.6-11.3-10.8-11.3H56.6z M56.6,166.2H44V92.5h18.2
	c15.6,0,22.9,6,22.9,21.8S77.8,136,62.1,136h-5.5V166.2z M126.1,107.2l-5,31.7h10.2l-5-31.7H126.1z M119.2,149.9l-2.2,16.3h-12.3
	l13.6-73.7H134l13.6,73.7h-12.3l-2.2-16.3H119.2z M182.2,102.9v22.7h4.5c6.8,0,9.4-2.6,9.4-11.3s-2.6-11.3-9.4-11.3H182.2z
	 M182.2,136v30.2h-12.7V92.5h17.8c14.2,0,21.4,6,21.4,21.8c0,11.8-4.6,16.6-8.9,18.6l10.7,33.4h-12.9l-9-30.5
	C187.1,135.9,184.5,136,182.2,136z M249.6,166.2H237V92.5h12.7V166.2z M313.3,109.3l-12.1,1.3c-0.5-6.3-3.9-8.2-6.7-8.2
	c-4.1,0-6.3,2.7-6.3,7.3c0,12.6,25.7,18.6,25.7,38.6c0,12.2-8.2,18.9-20,18.9c-11.7,0-18.5-9.4-19-20.4l12.1-1.7
	c0.5,7.5,3.5,11.1,7.6,11.1c4.4,0,7.4-2.3,7.4-6.7c0-14.6-25.7-18.5-25.7-39.6c0-11.7,7.1-18.4,19.6-18.4
	C306.1,91.4,312.2,98.9,313.3,109.3z"/>
<path fill="#459BA6" d="M67.7,41.8c-2.1,1.7-3.9,3.8-5.6,6.2c-1.7,2.4-3.2,5-4.6,7.6c-1.3,2.7-2.5,5.4-3.4,8.1
	c-0.9,2.7-1.5,5.2-1.9,7.4c-0.2,1.7-0.3,3.5-0.2,5.3c0.1,1.8,0.5,3.5,1.1,5c0.6,1.5,1.5,2.8,2.5,3.7s2.5,1.5,4.4,1.5
	c3.4,0,6.5-1,9.4-2.9c2.9-1.9,5.4-4.3,7.6-7.1c2.2-2.8,4.1-5.7,5.7-8.8s2.9-5.9,3.9-8.3c0.4-0.6,0.9-0.9,1.5-0.9s1.3,0.2,1.9,0.5
	c0.6,0.4,1.1,0.8,1.5,1.5c0.4,0.6,0.6,1.2,0.5,1.6c-1,3.4-2.5,7-4.6,10.8c-2.1,3.8-4.7,7.3-7.8,10.6c-3.1,3.2-6.6,5.8-10.4,7.7
	s-7.9,2.7-12.3,2.4c-1.6-0.1-3.1-0.3-4.6-0.5c-1.5-0.2-3.1-0.7-4.6-1.5c-1.8-0.8-3.3-2-4.5-3.6s-2-3.2-2.6-5.1
	c-0.6-1.9-1-3.9-1.2-5.9c-0.2-2.1-0.2-4.1,0.1-6.2c0.4-4.7,1.4-9.4,3.2-14.1s4.1-8.8,7-12.5c2.9-3.6,6.3-6.4,10.2-8.4
	s8.1-2.5,12.7-1.8c1.2,0.2,2.4,0.7,3.6,1.5s2.1,1.7,2.9,3c0.8,1.3,1.2,2.8,1.4,4.5c0.1,1.7-0.2,3.6-0.9,5.8c-0.6,1.7-1.5,3-2.6,3.9
	c-1.2,0.9-2.3,1.5-3.4,1.6c-1.1,0.2-1.9,0-2.5-0.5c-0.6-0.5-0.6-1.3,0-2.5c1.1-2.2,1.9-4.2,2.3-6.1c0.4-1.9,0.5-3.3,0.4-4.4
	c-0.2-1-0.8-1.5-1.7-1.5C70.9,39.4,69.6,40.2,67.7,41.8z M52.1,53.6l-0.9-0.2L50.2,54v1.1h0.2c0.1,0,0.2-0.1,0.4-0.2l0.2,0.7h0.4
	l0.7-1.1V53.6z M51.3,51.5c0.1,0,0.2,0,0.3,0.1c0.1,0.1,0.2,0.1,0.3,0.1v0.9l1.1-1.3c-0.2-0.1-0.1-0.4,0.4-0.9l-1.5-0.2l-0.5,0.7
	V51.5z M50.2,87.5c0.2-0.1,0.4-0.2,0.5-0.4C50.9,87,51,87,51.1,87c0.1,0,0.2-0.1,0.3-0.2l0.5,0.2v-0.4l-0.7-0.4
	c-0.1,0-0.2-0.1-0.2-0.2c-0.1-0.1-0.2-0.3-0.4-0.5l-1.1,0.4L50.2,87.5z M52.3,87.7V89l0.9,0.2l0.9-0.2c-0.2-0.6-0.4-0.9-0.5-1
	c-0.1-0.1-0.1-0.2-0.1-0.3H52.3z M51.3,59.1c0-0.7-0.1-1.1-0.4-1.1l0.2-0.5h-0.4l0.2-0.7l-0.7,0.2l0.2,0.9L50.2,58
	c0,1,0.2,1.5,0.5,1.5L51.3,59.1z M59.2,44.7l-1.5-0.4l-0.2,1.1c0.4,0.2,0.7,0.4,0.9,0.5c0.2,0.1,0.5-0.2,0.7-0.6V44.7z M45.7,77
	l1.8,0.2l0.5,0.2V77c-0.1,0-0.2-0.1-0.4-0.2c0.2-0.2,0.2-0.5,0-0.7h-1.1L45.7,77z M59.4,42.2l-0.2,0.9l0.2,1.1l1.1-0.9l-0.2-0.9
	L59.4,42.2z M46.6,85.2v1.1l0.9,0.4l0.4-1.5H46.6z M48.2,77.7c-0.1,0.1-0.2,0.2-0.3,0.2c-0.1,0-0.2,0.1-0.3,0.2l-0.2,0.2l0.2,1.3
	c1.1-0.6,1.3-1.1,0.7-1.5L48.2,77.7z M51.9,46.7l-1.3,1.6h1.6L51.9,46.7z M57.4,89.7c-0.4-0.1-0.7-0.2-0.9-0.2l-1.1-0.2l0.7,0.7
	l-0.2,0.2c1,0.1,1.5,0.1,1.5-0.2V89.7z M63.2,42v-0.7h-0.4l-0.5,0.9h0.2l-0.5,0.4l1.1,0.4l-0.4-0.7L63.2,42z M49.7,83.7
	c-0.5-0.4-0.6-0.7-0.4-0.9c-1.1,0.4-1.4,0.7-0.9,0.9H49.7z M55.7,45.1l0.9-1.1l-1.3,0.4l-0.2,0.9L55.7,45.1z M48.1,81.3v0.4l0.5,0.4
	v-0.4l0.4-0.4l-0.5-0.7L47.9,81l0.7,0.7L48.1,81.3z M56.4,46.2h-0.4v0.2h-0.4l-0.4,0.7l0.9,0.2v-0.2L56.4,46.2z M56.8,47.8
	c0.7,0,0.9-0.4,0.5-1.1c-0.6,0.4-0.9,0.6-0.9,0.8C56.4,47.7,56.6,47.8,56.8,47.8z M53.9,48.5c0.2,0,0.5-0.1,0.7-0.4
	c0.1-0.1,0.2-0.2,0.4-0.2v-0.4l-0.5-0.4L53.9,48.5z M55.5,46l-0.9,1.3C54,46.7,54.3,46.2,55.5,46z M50.2,80.6c0-0.2-0.3-0.4-0.9-0.4
	c-0.1,0.5-0.1,0.7,0.2,0.7S50,80.8,50.2,80.6z M47.5,81.5c-0.1,0.8-0.1,1.4,0,1.6c0.1,0.2,0.3,0.2,0.5,0L47.5,81.5z M49,79.5
	l-0.7,0.4v0.4l0.7,0.4V79.5z M48.1,74.2v-0.4c-0.6-0.2-0.9-0.1-0.9,0.4H48.1z M50.6,55.8l-0.7,0.5l0.4,0.4l0.7-0.5L50.6,55.8z
	 M60.3,40.4v0.9h0.4l0.4-0.7L60.3,40.4z M49.7,57.8h-0.4l-0.2,1.1h0.4L49.7,57.8z M45.3,75.1h-0.7v0.4l1.1,0.2L45.3,75.1z
	 M55.3,90.8v0.4l0.9,0.2l0.2-0.4L55.3,90.8z M46.8,81.1l-0.2-0.5h-0.4l-0.2,0.7L46.8,81.1z M53.3,91.3L52.4,91l0.7,0.9L53.3,91.3z
	 M49.9,53.6v-0.4h-0.7v0.4H49.9z M51.7,89.3h-0.4l-0.2,0.7h0.4L51.7,89.3z M54.1,89.5l0.2,0.5h0.4l-0.2-0.7L54.1,89.5z M55,88.8v1.3
	h0.4L55,88.8z M48.4,59.3l0.4,0.2l0.4-0.5h-0.4L48.4,59.3z M55.7,91.5v0.4l0.5,0.2v-0.4L55.7,91.5z M56.3,47.1h-0.4l0.2-0.7
	L56.3,47.1z M50.4,57.8l0.4-0.4L50.6,58L50.4,57.8z M62.6,42v0.2h-0.2L62.6,42z M110.7,16.1c-0.8,2.4-2.1,5.9-3.6,10.5
	s-3.2,9.6-4.8,15.1s-3.2,11.2-4.6,17c-1.4,5.8-2.3,11.1-2.8,15.8c-0.5,5.2-0.3,9,0.5,11.2c0.8,2.2,2,3.2,3.6,3
	c1.6-0.2,3.4-1.6,5.4-4c2-2.4,4-5.7,6.1-9.8c1.2-2.4,2.4-5.1,3.6-7.9c1.2-2.9,2.2-5.9,3.2-9.2c0.4-1.2,0.9-2,1.6-2.4
	c0.7-0.4,1.5-0.5,2.2-0.3c0.7,0.2,1.3,0.6,1.8,1.3c0.5,0.7,0.6,1.5,0.4,2.5c-1.2,4.2-2.4,8.1-3.6,11.6c-1.2,3.5-2.5,6.6-3.8,9.4
	c-2.5,5.3-5.4,9.1-8.5,11.4c-3.1,2.2-6.8,2.9-11,1.9c-4.2-1-7.8-2.9-10.6-5.7c-2.8-2.9-3.9-7.2-3.3-13c0.5-4.5,1.2-9.4,2.2-14.7
	s2.1-10.6,3.3-15.9s2.5-10.5,3.8-15.6c1.3-5,2.6-9.6,3.8-13.6c1-3,1.9-5.4,2.6-7.2c0.8-1.8,1.6-3.1,2.5-4s1.9-1.5,2.9-1.8
	s2.3-0.5,3.7-0.5c0.8,0,1.8,0.2,2.7,0.5c1,0.3,1.8,0.8,2.5,1.4c0.7,0.6,1.3,1.4,1.6,2.3s0.4,1.9,0,3L110.7,16.1z M86.9,81l0.9-0.7
	h-0.2c0.4-0.1,0.5-0.2,0.5-0.4c0,0.7,0.1,1,0.4,0.7l0.7,0.7v-1.8c-0.1-0.1-0.4-0.2-0.7-0.2h-0.4c0-0.2,0-0.5-0.1-0.6
	s-0.1-0.5-0.1-0.8c-0.4-0.2-0.7-0.2-0.9,0l-0.5,0.2c0,0.1-0.1,0.3-0.4,0.5c-0.1,0.5-0.4,0.8-0.7,0.9l0.5,1.5h0.5l-0.4,0.7
	c-0.4,0-0.2,0.3,0.4,0.9h0.9L87,81.9v-0.7L86.9,81z M97.8,26c-0.2,0.4-0.4,0.6-0.5,0.7c-0.1,0.1,0.1,0.3,0.5,0.5l0.9,0.4v-0.7
	l0.4,0.4v-0.2l0.2,0.9c0.4,0,0.5-0.1,0.5-0.4c0.4,0.1,0.6,0.1,0.7-0.2c0.4-0.1,0.7-0.1,1.1,0h0.7l0.2-0.4v-0.9h-0.7l-0.7-0.7
	c-0.2-0.2-0.7-0.2-1.3,0l-0.2,0.2l-0.2-0.5h-0.4c0,0.1-0.1,0.1-0.4-0.2c-0.2,0.5-0.4,1-0.4,1.5L97.8,26z M98.1,37.6
	c0-0.5-0.4-0.8-1.1-1.1c-0.2,0.1-0.4,0.3-0.5,0.5c-0.1,0.2-0.2,0.3-0.4,0.5l-0.9-0.4l-0.2,2l1.3-0.2L96.1,40l1.3-1.1l-0.9-0.4
	c0.1-0.1,0.2-0.2,0.2-0.4c0.1,0,0.3,0.1,0.5,0.2l0.7,0.2L98.1,37.6z M87.8,83.5l-0.6,1.3c-0.2,0.4-0.2,0.7-0.1,1.1
	c0.2,0,0.5,0.1,0.7,0.4l0.9-0.4l0.4-1.3l-0.4-1.5L87.8,83.5z M97.1,40.7l-0.2,1.1l0.4,0.9h0.9c0.2-0.5,0.4-0.8,0.4-0.9l0.2-1.1H97.1
	z M100.7,32l-0.7-0.4c-0.4,0.5-0.4,0.8-0.2,1.1c-0.2,0.5,0.1,0.9,0.9,1.3l0.5-0.7l0.2-1.1L100.7,32z M91,47.6
	c-0.1,0.4-0.2,0.7-0.2,0.9l0.2,0.7l0.9-0.2l0.4-1.6L91,47.6z M99.1,35.8l0.2-1.1L98,36.2l1.1,1.3l0.5-1.5L99.1,35.8z M94.9,31.8h0.4
	v-0.2c0-0.1,0.1-0.2,0.2-0.4l0.9,0.4l0.5-1.5h-1.1c0,0.1,0,0.2-0.1,0.3c-0.1,0.1-0.1,0.2-0.1,0.3l-0.5-0.2L94.9,31.8z M98.5,32.3
	c-0.4-0.2-0.7-0.4-1.1-0.4l-0.5,1.1l0.7,0.4l0.9-0.2V32.3z M105.3,17.8l-0.5-0.2l0.4,0.7l-0.5,0.7l1.5,0.2l0.4-0.9
	c-0.1,0-0.2,0-0.3-0.1s-0.2-0.1-0.3-0.1l-0.2-0.4H105.3z M107.6,17.9l-0.4,1.1l1.1,0.2l1.1-1.1c-0.5,0-1,0.1-1.5,0.4L107.6,17.9z
	 M87.8,75.7l0.2,0.7h0.4l0.5-1.1c0-0.2-0.3-0.4-0.9-0.4L87.8,75.7z M93.6,82.2l-0.2,1.1h1.1c-0.1-0.2-0.2-0.5-0.2-0.9v-0.4
	L93.6,82.2z M89.2,76.8L89,77.3l0.2,0.7h0.4l0.4-0.5v-0.7H89.2z M96.1,47.8h0.4l1.3-1.8l-1.5,0.9L96.1,47.8z M87.9,44l-0.2,0.7
	l0.9,0.2v-1.1L87.9,44z M87.8,73.5l0.2,0.7h0.4l0.2-1.3h-0.4L87.8,73.5z M89,81.7v0.4l0.9,0.4l-0.2-0.9L89,81.7z M90.9,40.9l0.2,0.7
	h0.4l0.2-1.1L90.9,40.9z M92.7,37.1L92.5,38h0.4l0.4-0.5L92.7,37.1z M94.5,44h0.4l0.5-0.7h-0.4L94.5,44z M98.5,26.7
	c-0.1,0-0.2-0.1-0.2-0.4l0.4,0.2v0.4L98.5,26.7z M86.9,81h-0.4v-0.2L86.9,81z M88.1,79.3v0.5C88.3,79.8,88.3,79.6,88.1,79.3z
	 M96.5,38.9h-0.2l0.2-0.4V38.9z M155,60.6c-0.7,2.9-1.9,6.3-3.6,10.1c-1.6,3.8-3.6,7.4-6,10.8c-2.4,3.4-5.1,6.3-8.2,8.7
	s-6.5,3.6-10.3,3.6c-2.4,0-4.5-0.3-6.2-0.8s-3.4-1.5-5.1-3c-2.1-1.9-3.4-4.6-4-8.1c-0.6-3.5-0.8-7.1-0.5-11c0.2-2.7,0.7-5.5,1.3-8.4
	c0.6-2.9,1.3-5.7,2-8.5c0.7-2.7,1.5-5.3,2.4-7.6c0.8-2.3,1.6-4.2,2.4-5.6c0.2-0.8,1.1-1.5,2.5-1.8s2.9-0.5,4.5-0.5
	c2.1,0,4,0.4,5.8,1.1c1.8,0.7,2.3,1.9,1.5,3.5c-0.4,1-1,2.7-2,5.1c-1,2.4-1.9,5.2-2.9,8.4s-1.9,6.5-2.8,9.9
	c-0.9,3.5-1.5,6.6-1.7,9.6c-0.2,2.8-0.1,5.2,0.5,7.2c0.6,2,1.8,3.2,3.6,3.6c2.1,0.5,4,0.1,5.8-1.3c1.8-1.3,3.5-3.2,5.1-5.5
	c1.6-2.3,3.1-4.9,4.5-7.8c1.4-2.9,2.8-5.8,4.1-8.7l1.8-3.8c0.4-0.5,0.9-0.8,1.5-0.9c0.7-0.1,1.3-0.1,1.9,0s1.2,0.4,1.6,0.7
	C154.9,59.7,155.1,60.1,155,60.6z M132,27.6c-0.8,1.3-1.8,1.9-2.9,1.7c-1.1-0.2-1.9-1.1-2.5-2.8c-0.4-1-0.7-2.1-0.9-3.5
	c-0.2-1.3-0.3-2.8-0.2-4.4c0.1-1.8,0.6-3.6,1.4-5.4s1.9-3.3,3.2-4.6s2.9-2.2,4.8-2.7c1.9-0.5,4-0.6,6.5-0.1c1.6,0.5,2.5,1.2,2.6,2.3
	c0.2,1,0,2.2-0.6,3.6c-0.6,1.3-1.5,2.7-2.7,4.2c-1.2,1.5-2.4,2.9-3.6,4.2c-1.5,1.7-2.4,3-2.8,3.8C133.7,24.8,133,26,132,27.6z
	 M123.6,92.3c0.2,0.1,0.5,0.2,0.8,0.4c0.3,0.1,0.6,0.1,1-0.2c0-0.4,0.1-0.7,0.2-0.9v-0.7l-1.6-0.2l-0.9,0.5v0.9L123.6,92.3z
	 M130.6,89.9c-0.2-0.2-0.4-0.4-0.4-0.5c0.1-0.2-0.2-0.2-1.1,0c-0.6,0.4-0.7,0.7-0.2,0.9v-0.2l0.2,0.9c0.2,0.1,0.5,0.4,0.7,0.9
	l0.9-0.9L130.6,89.9z M118.7,68.6l-1.1,1.3h1.1v0.4l-0.4,0.7c0.2,0,0.6-0.2,1.1-0.7l0.7,0.2c-0.1-0.1-0.2-0.2-0.2-0.4
	c-0.1-0.1-0.2-0.2-0.2-0.4h0.5l-0.2-1.1l-1.5-0.2V68.6z M130.9,20.3V20l-0.2-0.2l0.4-0.2l0.2-1.1h-1.5c-0.4,0.4-0.6,0.7-0.7,1.1
	v-0.2c-0.2,0.1-0.2,0.4,0.2,0.9H130.9z M136.4,10.8l-0.9-0.9l-0.2,0.9l-0.2-0.7l-1.1,0.2l-0.4,0.4l0.2,0.9h0.9v-0.4l0.5-0.2v0.5
	l-0.4,0.5c0.4,0,0.7-0.1,0.9-0.4L136,11L136.4,10.8z M132,17.9l-0.2-0.2l0.7-0.4l0.2-1.1h-0.9c0,0.2,0,0.4-0.1,0.5s-0.1,0.3-0.1,0.5
	l-0.7,0.5l0.5,0.5c0.2,0.2,0.2,0.4-0.2,0.5c0.2,0.4,0.6,0.4,1.1,0.2c0.2-0.4,0.2-0.7,0-0.9v-0.4H132z M121.5,68.4l0.9,0.4h-0.5
	c-0.4-0.1-0.7,0.1-1.1,0.7l0.2,0.7c0.2,0.2,0.5,0.4,0.9,0.4l0.5-1.8l0.5-0.9h-1.1L121.5,68.4z M123.3,68.2l0.5,0.2l0.7-0.2v-0.4
	c-0.1,0-0.2,0-0.2-0.1s-0.1-0.1-0.2-0.1c0-0.2-0.2-0.4-0.5-0.4v-1.1h0.2l-1.1-0.9l-0.2,1.5c0,0.6,0.3,0.9,0.9,0.9L123.3,68.2z
	 M120.2,71.5l-1.3,0.2l0.7,1.1l0.7-0.2l-0.2,1.3h1.1l0.2-0.9l-0.9-0.2l-0.2-0.2l0.7-0.2L120.2,71.5z M124.4,55.5l-0.5-0.5
	c-0.6,0.4-0.9,0.6-0.9,0.7l0.2,0.9c0.1,0.1,0.3,0.2,0.5,0.2c0.1,0,0.2,0.1,0.2,0.2h0.4c-0.1,0.2-0.1,0.2,0.2-0.3
	c0.2-0.4,0.5-0.8,0.7-1L124.4,55.5z M119.1,74l-0.4-0.7h-0.4l0.2-0.9l-0.5-0.9h-1.3l0.7,0.9c-0.1,0.1-0.2,0.4-0.2,0.7l1.1,0.2
	l-0.2,0.5L119.1,74z M123.8,59.1c0.1,0.8,0.4,1.2,0.7,1.1h0.4l0.5-1.1l-0.7-0.9L123.8,59.1z M131.7,90.4c0.2,0,0.6,0.1,1.1,0.4
	c-0.1,0.2-0.1,0.3,0.2,0.2c0.2-0.1,0.5-0.3,0.7-0.5l0.2-1.1l-0.9,0.4h-0.7L131.7,90.4z M135.1,19.6l-0.2,0.2c-0.1,0-0.2,0.1-0.2,0.2
	l0.9,1.3l0.4-1.1c0-0.1,0.1-0.2,0.2-0.3c0.1-0.1,0.2-0.2,0.2-0.3v0.2c0.1-0.1-0.1-0.4-0.5-0.7h-0.7V19.6z M123.6,53.5h1.3l-0.4-0.9
	c-0.2-0.6-0.5-0.9-0.7-0.9l-0.4,0.9L123.6,53.5z M118,67.1v-0.5l-0.5-0.7c0.7-0.7,1.1-0.8,1.1-0.4c0.2,0.2,0.5,0.4,0.9,0.4L118,67.1
	z M130.7,9.6l-0.2,0.9l1.8,0.2c-0.1-0.7-0.3-1.1-0.5-1.1h-0.4V9.4L130.7,9.6z M122.2,49.6c-0.7,0-0.9,0.3-0.5,0.9
	c0,0.5,0.3,0.7,0.9,0.7l0.2-1.3L122.2,49.6z M120,76.6l-0.2-0.9l-0.9,0.9c-0.1,0.1-0.1,0.3,0.2,0.5l-0.4,0.4l0.7,0.4
	c0-0.1,0-0.2,0.1-0.4c0.1-0.1,0.1-0.2,0.1-0.4l0.5-0.2L120,76.6z M130.6,11.2c-0.2-0.2-0.5-0.1-0.9,0.4l0.2,0.7l0.5-0.2l0.7,0.2
	l0.2-0.9L130.6,11.2z M115.4,73.7h0.2l0.2-0.5h0.4l0.4,0.5c0,0.6-0.1,0.9-0.4,0.9C115.7,75,115.4,74.7,115.4,73.7z M122.4,58.6
	c0.4,0,0.7-0.1,0.9-0.2v0.2l0.9,0.2l-0.5-0.7c0.1,0,0.2-0.1,0.4-0.2h-0.4l-0.4-0.5v0.5h-1.1l-0.2,0.4L122.4,58.6z M126.4,48.9
	c1,0.2,1.5,0.1,1.5-0.5l-0.4-0.7h-0.4l-0.4,0.7L126.4,48.9z M130.6,88.8c1.1,0,1.5-0.2,1.1-0.5l0.4-0.7l-1.3,0.2
	c-0.1,0.1-0.2,0.4-0.2,0.7V88.8z M120.9,91.5c0.4,0,0.6,0,0.7-0.1l0.5-0.3H122l0.5-0.4v-0.4c-0.8,0-1.3,0.1-1.5,0.2L120.9,91.5z
	 M119.6,60.2h-1.1l0.2-1.1l1.1-0.2L119.6,60.2z M117.5,68l-0.2-0.4l0.9-0.4l0.2,0.9l-0.2,0.9l-0.9-0.4l0.5-0.7H117.5z M120.5,66.2
	l0.9,0.9L122,66l-0.7-0.4h-0.2L120.5,66.2z M126.6,89.7l0.9-0.4c-0.1-0.5-0.4-0.7-0.9-0.7c-0.2,0-0.4,0.2-0.5,0.7L126.6,89.7z
	 M128,87.9l0.5,0.2l0.7-0.2v-0.4l-0.5-0.4H128V87.9z M130,13.2l-1.3,0.2l0.9,1.1l0.4-0.7V13.2z M119.5,65.5h1.5l-0.9,0.9h-0.4
	L119.5,65.5z M132.4,13.2v-1.3l-1.1-0.2l0.5,0.9L132.4,13.2z M129.8,18.1l0.4-1.3c-0.8,0.5-1.3,0.8-1.3,0.9L129.8,18.1z M124.4,90.1
	l0.7-0.4v-0.4l-1.1-0.2v0.7L124.4,90.1z M134.6,17.8l-0.5,0.7l0.2,0.5h0.4l0.4-1.5L134.6,17.8z M120.9,74.6l-0.2,1.3h0.4l0.2-0.5
	l0.4-0.7H120.9z M132.9,9.4h1.1V8.7l-0.9,0.2L132.9,9.4z M117.6,77.7h-0.4l-0.2,0.5v0.9h0.4L117.6,77.7z M120.7,56.4l-0.4,0.7
	l-1.1-0.9L120.7,56.4z M129.1,16.9v-1.1c-0.7,0.7-1,1.1-0.7,1.1H129.1z M122.4,70.2c-0.6,0.7-0.9,1.2-0.9,1.3c0,0.1,0.2,0.2,0.5,0.2
	L122.4,70.2z M136,16.9l-0.2,0.9l0.7-0.2v-0.7H136z M122,60.7h0.9v-0.4l-0.7-0.4L122,60.7z M133.7,16.5h0.4l0.4-1.1l-0.9,0.7
	L133.7,16.5z M133.1,19l-0.5,1.5c0.1-0.1,0.2-0.2,0.3-0.2c0.1,0,0.2-0.1,0.3-0.2c0.1,0,0.2-0.1,0.2-0.2L133.1,19z M134,16.7
	c0.5,0.2,0.7,0.3,0.7,0.2v-0.7l-0.5,0.2L134,16.7z M131.5,13.8c-0.1,0.5-0.1,0.7,0.2,0.7l0.7-0.2L131.5,13.8z M132.8,14.3h0.5v-0.5
	h-0.9L132.8,14.3z M121.6,61.3l-0.4,0.9l-0.4-0.4v-0.4L121.6,61.3z M123.1,64.4l0.9,0.9l0.4-0.4L123.1,64.4z M130.9,15.8l-0.2-0.5
	h-0.4l-0.2,0.2c0,0.1-0.1,0.2-0.2,0.2L130.9,15.8z M131.7,19.6l-0.4,1.3l0.5-0.2L131.7,19.6z M133.5,20.9l0.4,0.4h0.2v-0.7h-0.4
	L133.5,20.9z M120.9,78.4h0.4l-0.4-0.7h-0.4L120.9,78.4z M132.9,87.7h0.4l0.4-0.7h-0.4L132.9,87.7z M119.1,69.5l-0.4-0.9v1.3
	C119,69.9,119.1,69.7,119.1,69.5z M115.6,77.5v-0.7h0.4l-0.2,0.7H115.6z M123.6,58l-0.4,0.4v-0.5h0.4V58z M115.4,76.4l0.2-0.4h0.4
	l-0.4,0.5L115.4,76.4z M121.3,75.3h-0.2v-0.7L121.3,75.3z M135.3,11v-0.2l0.2,0.2H135.3z M162.4,47.3l-0.4,0.7l0.4,0.2l1.1-0.9
	c-1.8,4.7-3.4,9.7-4.6,14.8c-1.3,5.1-2.2,9.2-2.6,12.2h0.4c1.5-4,3.1-8,4.8-11.8c1.8-3.9,3.6-7.5,5.6-10.9c1.9-3.4,3.8-6.5,5.6-9.3
	c1.8-2.8,3.5-5,4.9-6.7c1.6-1.3,3.4-1.9,5.4-1.5c2,0.3,3.8,1,5.3,2.2c1.5,1.2,2.5,2.6,3.1,4.4c0.5,1.8,0.2,3.4-1.2,5
	c-1.9,2.2-3.6,5.3-5,9.2c-1.4,3.9-2.5,7.9-3.4,11.7c-0.8,3.9-1.4,7.3-1.6,10.4s-0.1,4.7,0.4,5.1c0-0.1,0-0.3,0.1-0.5
	s0.1-0.3,0.1-0.5l0.2-0.4c0.1-0.2,0.2-0.5,0.3-0.7c0.1-0.2,0.2-0.6,0.5-1.1c0.8-2.7,2.1-6,3.7-10c1.6-4,3.4-8,5.2-12.1
	c1.8-4.1,3.6-7.8,5.3-11.3c1.7-3.5,3.1-6,4.2-7.7v0.2c1.3-1.3,3.4-2,6.2-2c1.6,0,3.2,0.2,4.9,0.6c1.7,0.4,3.2,1.1,4.4,1.9
	c1.2,0.8,2.1,1.8,2.5,2.9c0.5,1.1,0.4,2.4-0.4,3.8l-4,10.4c-1.1,3.2-2.1,6.5-2.9,10c-0.8,3.5-1.4,7-1.6,10.4
	c-0.4,4.6-0.2,8.7,0.4,12.3c0.6,3.6,1.8,6.1,3.5,7.6c2.1,1.6,4.3,1.9,6.6,0.8c2.4-1,4.6-2.3,6.8-3.7h-0.2l0.9-0.5
	c-0.2,1-0.9,2.3-1.9,4c-1,1.7-2.4,3.3-4.1,4.7c-1.7,1.5-3.7,2.5-5.9,3.3c-2.2,0.7-4.7,0.5-7.4-0.5c-4.5-1.7-7.6-5-9.3-9.8
	c-1.7-4.9-2.2-10.7-1.6-17.7c0.5-6.3,1.9-13.2,4.4-20.8c0.7-2.7,1.1-4.6,1.1-5.6c0.1-1,0-1.5-0.3-1.5c-0.3,0-0.7,0.3-1.2,0.8
	c-0.5,0.5-1,1.3-1.6,2.3c-0.6,1-1.2,2-1.6,3.1c-0.7,1.5-1.6,3.4-2.6,5.7c-1,2.4-2.2,4.9-3.5,7.7c-1.3,2.8-2.6,5.7-3.9,8.8
	s-2.7,6.2-4,9.2c-0.7,0.6-2,0.8-3.8,0.7c-1.8-0.1-3.6-0.5-5.5-1.1c-1.8-0.6-3.4-1.4-4.8-2.5s-2-2.2-1.9-3.6c0.1-1,0.4-2.4,0.7-4.3
	s0.8-4,1.4-6.5c0.5-2.4,1.1-4.9,1.7-7.6c0.6-2.6,1.3-5.1,2-7.6l-0.7-0.2c-2.1,2.3-4.4,6.2-7.1,11.7c-2.7,5.5-5.4,12.5-8.2,21.1v-0.2
	c-0.5,0.7-1.4,1-2.7,0.7c-1.3-0.2-2.8-0.8-4.4-1.6c-1.6-0.8-3-1.9-4.3-3.2c-1.3-1.3-2-2.6-2.3-3.9c0-1.8,0.3-4.6,1-8.5
	c0.7-3.8,1.5-7.9,2.5-12.1s1.9-8.2,2.9-11.9c1-3.7,1.7-6.3,2.2-7.9c0.7-1.3,1.9-2.3,3.4-3c1.5-0.7,3-1,4.5-1c1.2,0,2.4,0.1,3.5,0.4
	c1.1,0.2,2,0.5,2.8,0.8c0.8,0.3,1.4,0.7,1.7,1.1s0.4,0.8,0.2,1.2c-0.8,1.3-1.7,2.8-2.5,4.5c-0.8,1.6-1.5,3.4-2.3,5.4L162.4,47.3z
	 M205.2,69.5h0.5c0.2-0.5,0.2-0.8,0-1.1l0.4-0.5l-1.3,0.4v0.9c-0.4-0.4-0.5-0.6-0.5-0.7l0.2-0.7l-0.7-0.2c-0.7,0.2-1.2,0.5-1.5,0.7
	h0.2c-0.5,0.2-0.8,0.4-0.9,0.4l-0.7,0.4v0.4c-0.1,0.1-0.1,0.4,0.2,0.9L202,70c0,0.1,0.1,0.2,0.2,0.2c0.1,0.1,0.2,0.2,0.4,0.2
	c-0.2,0.5,0.1,0.5,0.9,0.2l0.7-0.4l-0.2,0.5l1.3-0.4V69.5z M175.2,55.3l0.7,0.2h0.5c0.4,0,0.4-0.2,0-0.5h0.2v-0.2
	c0.2,0.2,0.4,0.4,0.5,0.4l-1.5,1.3l1.3-0.2l0.4-1.1l0.7-0.4c0.1-0.2,0.2-0.6,0.2-1.1c0-0.4-0.1-0.6-0.2-0.7l0.2-0.2l0.5-0.2
	c0.2-0.2,0.4-0.4,0.5-0.4s0.2-0.4,0.3-1.3l-1.1,0.4l-0.7,0.9l-0.9,0.7v0.9l-0.5-0.2c-0.6,0.1-0.9,0.4-0.9,0.7l-0.5,0.2L175.2,55.3z
	 M153.9,50.5l0.5-0.2h0.5c0.2,0,0.4-0.1,0.4-0.2c0-0.1-0.1-0.2-0.4-0.4h0.4l0.4-0.9h0.2c0.1,0,0.2,0,0.2-0.1c0-0.1,0.1-0.1,0.2-0.1
	c0,0.5-0.1,0.7-0.2,0.7c0.4,0.2,0.8,0.3,1.3,0.2c0.1-0.5,0.1-0.8,0-1.1L157,48l0.7-0.4c0.5-0.4,0.7-0.8,0.7-1.3h-1.1
	c0,0.1,0,0.2-0.1,0.3s-0.1,0.2-0.1,0.3l-0.7,0.7h0.2l-1.1,0.4l0.2,0.7l-0.9-0.2c-0.2,0-0.4,0-0.4,0.1s-0.1,0.1-0.2,0.1h-0.2
	l-0.5,0.7l-0.4,0.9L153.9,50.5z M206.7,91.3l-1.3-1.5l-0.5,1.3l-1.1-0.2c-0.6,0.4-0.9,0.7-0.9,0.9c-0.1,0.2-0.2,0.5-0.2,0.7l0.2,0.5
	h1.3c0.2,0.2,0.6,0.2,1.1,0c0-0.1,0-0.2,0.1-0.3c0.1-0.1,0.1-0.2,0.1-0.3l0.5,0.2l0.4-0.9l-0.7-0.5H206.7z M153.9,59.1l-0.2,1.1
	c-0.4,0.4-0.5,0.7-0.5,1.1l-0.4,0.2l-0.2,0.7l-0.2,0.5l0.4,0.7c0.5,0,0.8-0.1,1.1-0.4l1.3-1.1c-0.1,0-0.3,0-0.5-0.1
	c-0.2-0.1-0.4-0.1-0.6-0.1c0-0.1,0-0.2-0.1-0.3c-0.1-0.1-0.1-0.2-0.1-0.3l0.5-0.2l0.2,0.2l1.5-0.7c-0.5,0-0.8-0.1-1.1-0.4l0.2-1.1
	H153.9z M165,40l-0.5,0.2l0.2-0.4h-1.5l-0.7-0.2h-1.1l-0.4,1.5l0.9,0.4l1.1-0.9v1.1l0.9-0.2l0.4-0.4l0.5,0.7l0.5-1.1L165,40z
	 M203.4,59.1l-0.5,0.9c0,0.2,0.5,0.5,1.6,0.9l0.5-0.9l0.9,0.2l0.2-2l-1.3,0.2l0.2-0.7l-1.5,1.3L203.4,59.1z M185.6,44.5l-0.7,0.2
	l-0.9-0.5h-0.7l-0.9-0.2l-0.2,1.5l0.7,0.4l0.9-0.9v0.7h-0.4l0.9,1.5c0-0.5,0.1-0.8,0.2-0.9c0.1-0.1,0.2-0.2,0.2-0.4s0.1-0.2,0.2-0.4
	l0.5,0.7l0.7-1.1L185.6,44.5z M202.1,74.2l0.7-0.2l1.3-0.2l0.2-1.1l-0.2-1.1l-1.3,0.9h0.2l-0.7,0.4L202.1,74.2z M179,67.9l-0.5-0.2
	l-0.9-0.5l-0.9,0.4l-0.5,1.3l0.9-0.2l0.2,0.4l0.9-0.2v-0.4l0.2,0.2h0.4L179,67.9z M200.3,64.9V66h1.5c0.4-0.4,0.4-0.7,0.2-1.1v0.2
	l-0.3-0.8c-0.1-0.2-0.3-0.3-0.8-0.3L200.3,64.9z M206.7,66.4l0.4-0.5h0.9l-1.5-1.3v1.1l-1.1-0.2l-0.2,0.9l-0.2,0.7
	c0.1-0.1,0.2-0.2,0.4-0.2c0.2,0,0.4-0.1,0.5-0.2C206.5,66.8,206.7,66.6,206.7,66.4z M202.3,57.1l1.6-0.2l-0.2-1.5l-1.1-0.4
	c-0.2,0.2-0.4,0.4-0.4,0.5c0,0.1-0.1,0.2-0.2,0.4L202.3,57.1z M158.2,38.2v0.4c0,0.1,0,0.2-0.1,0.3c-0.1,0.1-0.1,0.2-0.1,0.3
	l-0.5,0.2v0.4l2,0.4c0.2-0.6,0.4-1,0.4-1.2c0-0.2-0.1-0.3-0.4-0.3h-0.7L158.2,38.2z M160.6,49.8l-0.4,0.5l-0.2,0.7l0.5,0.7V52
	l1.1-1.1c0.4-0.5,0.3-0.8-0.2-1.1H160.6z M173.2,75l0.7-0.7c0.1-0.1,0.2-0.5,0.2-1.1l-0.7,0.7l-1.1,1.5v0.9l1.1,0.4
	C173.4,75.6,173.3,75.1,173.2,75z M149.1,66.6l1.3-0.9v0.2c0.2-0.2,0.4-0.5,0.4-0.7c0-0.6,0.4-0.5,1.1,0.2l-0.9,1.8l-0.9-0.7
	L149.1,66.6z M201.4,77.1l0.5,0.2c1-0.2,1.3-0.7,1.1-1.5c-0.2,0-0.4-0.1-0.5-0.2l-0.2-0.5H202L201.4,77.1z M180.8,54.7l-0.5,1.5h1.1
	l0.9-0.4c0-0.6-0.1-1-0.2-1.1H180.8z M208.2,49.8l1.3-0.9v-1.6l-1.1,0.4L208.2,49.8z M180.5,42.9v-0.2h-0.4l-0.2,0.7l-0.5,0.4
	l1.6,0.5c0.6-1,0.7-1.5,0.2-1.5H180.5z M175.2,66.4l-0.5-0.5l-1.3,1.5l2,0.2C175.6,66.8,175.6,66.4,175.2,66.4z M205.2,95.5l0.7-0.2
	l0.7-0.7l0.2-1.1h-1.3l-0.2,0.9c0.1,0,0.2,0.1,0.2,0.4L205.2,95.5z M152.4,65.8l-0.4,1.3c-0.2,0.4-0.1,0.7,0.4,0.9l0.7-0.2l0.2-0.9
	L152.4,65.8z M181.7,52.6l-1.3,0.4l-0.5,0.9v1.5L181.7,52.6z M179.7,45.1l-0.5-0.2l-0.7,0.2l-0.4,1.1l1.3,0.4L179.7,45.1z
	 M200.1,91.2l0.7,0.2l0.4-0.7c-0.1-0.6-0.3-0.9-0.5-0.9c-0.2,0-0.6,0.1-1.1,0.2l0.4,0.7L200.1,91.2z M204.5,50.9l-0.4-1.3l-1.5,1.6
	l1.1,0.4L204.5,50.9z M170.6,77.3l0.9,0.2h0.5v-0.4l-0.2-0.2h0.7l-0.7-1.1c-0.4,0.2-0.6,0.4-0.6,0.5c-0.1,0.1-0.2,0.2-0.3,0.4
	L170.6,77.3z M203.2,64v1.1c0.4,0.4,0.7,0.5,1.1,0.5l0.2-1.5L203.2,64z M153.5,48.2h0.7l1.5-1.3l-2,0.4c-0.4,0.5-0.5,0.8-0.5,0.8
	C153.2,48.2,153.3,48.2,153.5,48.2z M158.1,40.9l-0.7-0.4l-0.7,0.2l-0.4,0.9l0.9,0.2L158.1,40.9z M201.8,89.5l0.7,0.4h0.9
	c0-0.2,0-0.5,0.1-0.6c0.1-0.2,0-0.3-0.1-0.5l-0.9,0.2l-0.5,0.2L201.8,89.5z M209.4,56.2l0.9-0.5l-0.4-1.3l-1.1,1.1L209.4,56.2z
	 M198.9,83.9L199,83c-0.1-0.2-0.2-0.5-0.2-0.7l-1.1-0.2l0.7,1.8H198.9z M206,89.2v-0.4l0.4-0.9l-0.9,0.9l-0.7,0.2v0.9
	c0.6-0.1,0.9-0.2,1-0.3S205.8,89.4,206,89.2z M203.8,83.3l0.5-0.7l-0.2-0.9l-1.3,0.4L203.8,83.3z M204.5,87.2l0.5-0.9h-1.6v0.9
	H204.5z M175.2,77v0.4l-0.2,0.7l1.1-0.4c0.2-0.2,0.3-0.4,0.3-0.5s-0.1-0.3-0.1-0.5L175.2,77z M206.1,97.2h1.1
	c0.5-0.4,0.4-0.7-0.4-0.9l-0.7-0.2V97.2z M173.9,69.9l0.4,0.2l1.1-0.4l-1.1-1.6v1.3L173.9,69.9z M161.3,47.8l-1.5,0.4l-0.4,0.5
	l-0.4,1.1L161.3,47.8z M158.2,42.2l0.5,0.2l0.9-0.9l-1.3-0.4L158.2,42.2z M176.3,74.8L175,75l-0.2,0.9l-0.5,1.1L176.3,74.8z
	 M179.4,55.8l-1.3,0.5l1.1,1.1L179.4,55.8z M154.1,65.7l0.5-0.7l-1.3-0.2l-0.2,1.1L154.1,65.7z M179.9,45.5v1.5l0.7-0.2l0.2-0.9
	L179.9,45.5z M156.2,51.1l0.2-1.3l-1.6,1.3H156.2z M212.5,52.6l0.2-0.7h-0.2l0.5-0.2v-0.4l-0.7-0.5l-0.2,1.3h0.2l-0.2,0.5H212.5z
	 M179.2,55.6l-0.7-1.3l-0.2,1.1c0,0.1-0.1,0.2-0.2,0.4l0.2,0.4L179.2,55.6z M154.6,52l0.9,0.7l0.4-1.3l-1.1,0.2L154.6,52z
	 M156.2,43.3v-0.7l-1.1,0.2v0.9L156.2,43.3z M200.9,88.1l-1.3-0.4l0.2,0.9c0,0.2,0.1,0.4,0.3,0.4S200.5,88.7,200.9,88.1z
	 M173.9,77.5l-0.4-1.3l-0.4,1.1l-0.4,0.4l0.4,0.4L173.9,77.5z M159.2,44l0.4,0.4l0.4-0.4l-0.4-0.7l-0.9,0.2v0.4L159.2,44z
	 M174.3,77.7l-1.5,0.7l1.5,0.4V77.7z M171.4,75.3h0.4l0.4-1.5C171,74.8,170.8,75.3,171.4,75.3z M173.9,68.4l-0.2-0.2l-0.9,0.2
	l0.4,0.9h0.4L173.9,68.4z M175.6,52l0.5,0.9l0.5-1.1l-0.2-0.4L175.6,52z M182.3,42.9v0.2h1.1c-0.2-0.6-0.5-0.9-0.6-1
	c-0.2-0.1-0.3,0-0.3,0.3L182.3,42.9z M177.6,48l0.9-0.9l-1.5,0.2l0.2,0.7H177.6z M155.2,45.8h0.9l-0.2-0.9h-0.5L155.2,45.8z
	 M158.2,50.9l-0.5,0.7l0.9,0.4v-1.1H158.2z M202,61.5l0.9,0.5l-0.4-1.3h-0.4L202,61.5z M176.5,65.8l-0.4,0.7h0.9
	c-0.1-0.7-0.2-1.1-0.4-1.1C176.5,65.5,176.5,65.6,176.5,65.8z M180.3,50.9v0.9l1.3-1.1L180.3,50.9z M183.2,51.6l-0.9,0.9l0.4,0.4
	l0.7-0.9L183.2,51.6z M208.3,59.5l0.7,0.4v-1.1l-0.7,0.4V59.5z M172.6,71.1l0.5-0.7h-0.9l-0.2,0.4L172.6,71.1z M153.7,46.2l-0.2,0.9
	l1.3-1.3L153.7,46.2z M158.1,50.5v-0.9l-1.1,1.3L158.1,50.5z M160.8,38.5l-0.2-0.2v0.4h1.1c-0.2,0-0.4-0.2-0.5-0.5V38L160.8,38.5z
	 M177,50.4h0.5l0.4-0.7h-0.4L177,50.4z M159.5,46.4v0.5l0.7-0.4v-0.4L159.5,46.4z M174.6,73.5V74l0.7-0.4v-0.4L174.6,73.5z
	 M150.6,63.3l0.4,0.2l0.4-0.4L151,64h-0.4V63.3z M176.8,74.2l-0.5,0.7h0.4l0.5-0.7H176.8z M158.2,43.6l-0.7-0.2v0.4l0.7,0.2V43.6z
	 M206,54l0.5-0.7h-0.4l-0.5,0.7H206z M171.4,79l0.5,0.2l0.2-0.4l-0.5-0.2L171.4,79z M175,70.8v0.2h-0.4l0.2,0.5h0.4L175,70.8z
	 M180.7,48.2h-0.4l0.2,0.5h0.4L180.7,48.2z M179.6,48.4L179,48v0.4l0.5,0.4V48.4z M174.1,71.1l-0.5-0.4v0.4l0.5,0.4V71.1z
	 M203.6,58.9l0.9,0.2v0.2l-1.1-0.2L203.6,58.9z M155.7,78.8l0.5,0.7l-0.2-0.7H155.7z M204.9,59.3h-0.4l0.4-0.9V59.3z M204.9,91.2
	l0.7,0.2h-0.7V91.2z M205.1,69.1c0,0.1,0,0.2,0.1,0.2c0.1,0,0.1,0.1,0.1,0.2l-0.4-0.2v-0.2H205.1z M177,53.8v0.4
	c0,0.1-0.1,0.2-0.2,0.4L177,53.8z M227.1,91.9v0.4l0.2-0.2L227.1,91.9z M176.6,54.6h0.2l-0.2,0.2V54.6z M212.3,52v-0.2h0.2L212.3,52
	z M151.3,62.9v-0.2h0.2L151.3,62.9z M155.9,48.7l-0.2,0.2v-0.2H155.9z M177.4,54.9v0.2h-0.2L177.4,54.9z M163.7,47.1l-0.2,0.2v-0.2
	H163.7z M227.8,93.5c-0.7-0.1-1.6-0.4-2.7-0.8c-1.1-0.4-2.2-0.9-3.3-1.5c-1.1-0.5-2.1-1.2-3.1-1.9c-1-0.7-1.6-1.5-2-2.2
	c-0.4-1-0.6-2.2-0.7-3.6c-0.1-1.5-0.1-2.9,0-4.4c0.4-3.4,1.2-7.1,2.5-11.1s3-7.9,4.9-11.7c1.9-3.8,4.1-7.3,6.6-10.5s4.9-5.5,7.5-7.1
	c2.4-1.6,5.1-2.8,8-3.6c2.9-0.8,5.7-1.3,8.4-1.3c3.5,0,6.6,0.8,9.2,2.4c2.6,1.6,3.9,4.1,3.9,7.6c-0.1,2.1-0.5,3.5-1.2,4.3
	c-0.7,0.8-1.4,1.2-2.1,1.1c-0.7-0.1-1.4-0.4-2-1c-0.6-0.6-0.9-1.4-0.9-2.4c0-1.6-0.5-3-1.6-4.4c-1.1-1.3-2.7-2-4.7-2
	c-2.8,0-5.8,1.6-9.1,4.9c-1.6,1.7-3.1,3.8-4.6,6.3c-1.5,2.5-2.9,5.1-4.2,7.9c-1.3,2.8-2.5,5.6-3.6,8.5c-1.1,2.9-2,5.4-2.7,7.7
	c-0.5,1.5-0.8,2.8-1,4c-0.2,1.2-0.3,2.3-0.5,3.3c-0.2,3.4,0.5,4.8,2.1,4.1s3.8-3.1,6.5-7.4l8.9-15.8l2.5-4.6
	c2.1-3.4,4.2-5.5,6.6-6.2c2.3-0.7,4.7-1,7.3-0.7c2.7,0.8,4.1,2.1,4.2,3.6c0.1,1.6-0.1,3.2-0.7,4.9c-1.1,2.2-2,4.8-2.6,7.7
	c-0.7,3-1.2,5.7-1.7,8.3c-0.4,1.9-0.5,3.7-0.4,5.3c0.1,1.6,0.5,2.8,1,3.6c0.5,0.8,1.3,1.3,2.2,1.3s2-0.5,3.2-1.6
	c1.2-1.2,2.4-3,3.6-5.4s2.3-4.8,3.4-7.4c1-2.5,1.9-5,2.7-7.4c0.8-2.4,1.3-4.2,1.5-5.6c0.1-0.6,0.5-1.1,1.3-1.4
	c0.7-0.3,1.5-0.5,2.3-0.5c0.8-0.1,1.5,0.1,2.3,0.4c0.7,0.3,1.1,0.7,1.1,1.2c-2.8,10.8-6.3,19.4-10.4,25.8c-4.1,6.4-9.1,9.5-14.9,9.4
	c-2.8,0-5.1-0.6-6.8-1.7c-1.8-1.2-3.1-2.6-4.1-4.4c-1-1.8-1.7-3.8-2.2-6c-0.5-2.2-0.8-4.5-1.1-6.8c-0.4,1-1.1,2.6-2.3,4.8
	c-1.2,2.2-2.5,4.5-4.2,6.7c-1.6,2.2-3.5,4.2-5.6,5.7C232.3,93.7,230.1,94.1,227.8,93.5z M222.9,79.7H222c0-0.1,0-0.2,0.1-0.3
	c0.1-0.1,0.1-0.2,0.1-0.5l1.1-0.7l-1.5-1.1l-0.7-0.4l-0.5,0.4l-0.9,0.2c0,0.1-0.2,0.2-0.5,0.2c-0.1,0.5-0.2,0.7-0.4,0.7l-0.2,1.1
	l0.7,0.7l-0.4,0.4l-1.3,1.1h1.3l0.7-0.2l0.4-0.7l-0.2-0.5l1.1-0.4l0.9,0.4v1.1h0.9l0.5-0.9L222.9,79.7z M253.7,79.5l-0.2-0.2
	l0.9-0.4l0.2-1.5h-1.1c0,0.2,0,0.5-0.1,0.6c-0.1,0.2-0.1,0.4-0.1,0.6l-0.9,0.9l0.4,0.5h-0.9l-0.9,0.2l-0.5,0.5
	c-0.2,0.2-0.3,0.5-0.5,0.8v-0.2c-0.2,0.2-0.1,0.7,0.4,1.3h2v-0.5l-0.4-0.2l0.5-0.2l0.2-1.6l0.2,0.2c0.2,0.2,0.2,0.5-0.2,0.7
	c0.4,0.4,0.8,0.4,1.5,0.2c0.2-0.6,0.2-1,0-1.3c0-0.2-0.1-0.4-0.2-0.5H253.7z M256.2,69.3l-0.5,0.5l0.2,1.1l1.1,0.2
	c0-0.1,0-0.2,0.1-0.3s0.1-0.2,0.1-0.3l0.5-0.2v0.5l-0.4,0.7c0.5,0,0.8-0.1,1.1-0.4l0.2-0.9l0.9,0.9l0.2-1.5l-0.9,0.2l-0.9-1.1
	l-0.2,1.1l-0.2-0.9L256.2,69.3z M219.1,83.2c-1,0.2-1.4,0.8-1.3,1.8c0.1,0,0.3,0.1,0.5,0.4h1.6l0.5-2.5h-1.1L219.1,83.2z
	 M257.5,81.9c0,0.1-0.1,0.2-0.4,0.2c-0.1,0-0.2,0.1-0.2,0.2l1.3,1.6l0.4-1.3c0-0.1,0.1-0.3,0.4-0.5c0.2-0.2,0.1-0.5-0.5-0.9h-0.9
	V81.9z M252.2,68.4l-0.4,1.1l2.4,0.4c-0.2-1-0.5-1.5-0.7-1.5H253V68L252.2,68.4z M251.9,70.6c-0.2-0.2-0.6-0.1-1.1,0.4L251,72
	l0.7-0.4l0.9,0.4l0.2-1.3L251.9,70.6z M233.7,48.2c-0.5-0.2-0.8-0.4-1.1-0.4l-1.1,1.3l1.1,0.2c0.6,0,1-0.1,1.1-0.2V48.2z
	 M234.2,45.5l0.7,1.1l1.3-1.1l-0.4-0.9L234.2,45.5z M240.9,40.7c-1.2,0.4-1.7,0.7-1.5,1.1l-0.2,0.5l-0.5-0.2v1.3
	c0.6-0.2,1-0.5,1.3-0.7l-0.2-0.9L240.9,40.7z M247.3,37.6v1.1l-0.4,1.1l2.2-1.8L247.3,37.6z M224.2,75.7l-1.1,1.1l1.3,0.2l1.3-0.9
	L224.2,75.7z M224.7,77.3l-0.9,1.1l1.1,0.2l0.7-0.2l0.2-0.9L224.7,77.3z M231.5,53.5c0.1-0.7,0.2-1.2,0.2-1.3l-0.9-0.4
	c-0.6,1.3-0.4,1.9,0.5,1.6H231.5z M253.1,81.9l-0.4,1.6l0.4-0.2l-1.3,1.3h1.5v-1.3l0.2-0.2L253.1,81.9z M226.7,85
	c-0.4,0-0.5,0.2-0.5,0.7s0.1,0.7,0.4,0.7l0.7-0.4c0.1-0.4,0.2-0.6,0.3-0.7c0.1-0.1,0.1-0.2,0.1-0.4H226.7z M236,41.6h-1.1l-0.4,1.1
	h1.6L236,41.6z M251.1,73.1l-1.5,0.4l1.1,1.5l0.4-1.1V73.1z M254,73.1l0.2-1.6l-1.5-0.2l0.7,1.3L254,73.1z M254.8,68.2h1.5v-1.1
	l-1.3,0.2L254.8,68.2z M246,40.2l-0.4-0.9l-1.3,0.5v0.4c0.1,0,0.2,0,0.3,0.1c0.1,0.1,0.2,0.1,0.3,0.1h-0.2c0.2,0.2,0.5,0.2,0.9,0
	L246,40.2z M251,79.9l0.5-1.6c-1.1,0.5-1.6,0.8-1.6,1.1L251,79.9z M225.1,74l0.7,0.9l0.4-1.1l-0.2-0.7l-0.7,0.4L225.1,74z
	 M242.8,43.3c0-0.4,0.1-0.7,0.4-0.9c0.1-0.1,0.2-0.2,0.2-0.4l-1.1-0.4c-0.2,0.7-0.1,1.1,0.4,1.1L242.8,43.3z M242.4,41.3l-0.4-0.4
	l-0.9,0.7l0.2-0.4l-1.1,0.4V42h0.7l0.2-0.4l0.4,0.4L242.4,41.3z M250,78.2v-1.6c-1,1.1-1.2,1.6-0.7,1.6H250z M256.8,79.3l-0.5,1.1
	l0.2,0.5h0.4l0.5-1.8L256.8,79.3z M222,81.9c0,0.2,0.1,0.5,0.2,0.7l-0.4,0.2l0.7,0.4l0.5-1.3H222z M228.7,52.2l-1.5,1.6l1.3-0.2
	L228.7,52.2z M230.2,51.6l-1.1,0.2v1.6L230.2,51.6z M258.6,78.2l-0.2,1.1l0.9-0.2v-1.1L258.6,78.2z M253,73.9
	c-0.1,0.7-0.1,1.1,0.2,1.1l1.1-0.2L253,73.9z M249.7,35.8l-0.4-0.5h-0.4c0,0.1-0.1,0.3-0.4,0.5l0.7,0.7L249.7,35.8z M256.2,77.9
	c0.6,0.6,0.9,0.7,0.9,0.2v-0.9l-0.7,0.2L256.2,77.9z M255,74.6l0.4,0.2v-0.9h-1.1l0.4,0.7H255z M255,81.1l-0.5,1.8
	c0.2-0.1,0.5-0.3,0.7-0.5l0.2-0.2L255,81.1z M255.7,77.7h0.4l0.5-1.5l-1.1,0.9L255.7,77.7z M252.8,36.9l-0.2-0.4l-0.9,0.5l-0.4,0.7
	h0.4c0.1,0,0.2-0.1,0.2-0.2c0-0.1,0.1-0.2,0.2-0.4L252.8,36.9z M255.5,83.5l0.4,0.5h0.4l-0.2-1.1h-0.4L255.5,83.5z M252.4,76.6
	l-0.2-0.7h-0.5c-0.1,0.1-0.2,0.2-0.2,0.4s-0.1,0.2-0.2,0.2L252.4,76.6z M228.7,50.5l0.4-1.3l-1.1,0.9L228.7,50.5z M231.3,47.5h-0.9
	l-0.2,0.4h0.9L231.3,47.5z M243.7,41.1v-0.4l-0.7,0.2v0.4L243.7,41.1z M241.5,39.8l0.5-0.2v-0.4l-0.7,0.2L241.5,39.8z M232.2,50.7
	l-1.3,0.2v0.4L232.2,50.7z M244.2,38.5h0.4l-0.2-0.5H244L244.2,38.5z M219.3,80.1l0.4-0.5l0.2,0.5H219.3z M258.2,70h0.7l-0.4,0.2
	v0.2L258.2,70z M222,79.7c-0.1,0.1-0.2,0.2-0.2,0.4v-0.4H222z M239.8,41.8l-0.2,0.2c-0.1,0-0.2-0.1-0.2-0.2H239.8z M257.7,70.4V70
	l0.2,0.2L257.7,70.4z M253.3,83.3h-0.2l0.2-0.2V83.3z M308,57.8c0.4-1.2,0.9-2,1.6-2.4c0.7-0.4,1.5-0.5,2.2-0.3
	c0.7,0.2,1.3,0.6,1.8,1.3c0.5,0.7,0.6,1.5,0.4,2.5c-1.3,4.5-2.6,8.6-3.9,12.2c-1.3,3.6-2.6,6.9-4.1,9.7c-2.7,5-5.6,8.6-8.9,10.7
	c-3.3,2.2-7.2,2.8-11.8,1.8c-4.4-0.8-7.5-2.7-9.5-5.5c-1.9-2.8-2.6-7.6-2-14.4c0.4-3.9,1-8.4,1.9-13.7s1.9-10.3,3-15.1l0.9,0.2v-1.1
	l-0.7,0.2c0.5-1.8,0.9-3.6,1.3-5.4s0.8-3.4,1.3-4.8l3.1-11.3l-4.9-1.3c-1.3-0.2-2.5-0.5-3.6-0.7s-2.2-0.5-3.5-0.7
	c-2.5-0.5-5-0.9-7.3-1.4s-4.6-0.6-6.7-0.6c-2.4,0-4.7,0.3-6.9,0.9c-2.2,0.6-4.4,1.6-6.7,3.1c-0.6,0.5-1,0.5-1.1-0.1
	c-0.1-0.5-0.2-1.1-0.4-1.5c0.4-2.2,1.6-4.2,3.6-5.9c2.1-1.8,5.6-2.6,10.7-2.5c2.7-0.1,5.1-0.1,7.2,0.2c2.1,0.2,4.6,0.6,7.4,1.1
	l14,1.8c1.2-3,2.2-5.5,3.1-7.3c0.8-1.8,1.7-3.2,2.5-4.1s1.7-1.5,2.6-1.8s2.2-0.5,3.6-0.5c0.8,0,1.8,0.2,2.7,0.5
	c1,0.3,1.8,0.8,2.5,1.4s1.3,1.4,1.6,2.3s0.4,1.9,0,3l-0.7,1.8l-2.2,4.4c1.1,0.5,2.7,0.8,4.8,1.1c2.1,0.2,4.5,0.4,7.2,0.4
	c4.1,0,8.4-0.3,12.9-0.9c4.5-0.6,8.6-1.5,12.2-2.7c3.6-1.2,6.5-2.7,8.6-4.6c2.1-1.8,2.7-4,2-6.6c1.5-0.4,2.7-0.2,3.8,0.5
	c1.1,0.7,1.9,1.6,2.3,2.9c0.4,1.3,0.5,2.8,0.1,4.6s-1.2,3.6-2.5,5.4c-2.5,3.5-6.8,6.3-12.7,8.4c-5.9,2.1-12.9,3-20.9,2.7
	c-4.7-0.1-8.1-0.3-10.1-0.5c-2-0.2-3.6-0.4-4.8-0.6l-5.1-0.5c-0.7,1.3-1.8,3.7-3.2,7.2c-1.4,3.5-2.8,7.6-4.3,12.3s-2.8,9.8-4,15.3
	c-1.2,5.5-2.1,10.8-2.5,16c-0.5,5.1-0.3,8.8,0.5,11c0.8,2.2,1.9,3.3,3.5,3.2c1.5-0.1,3.3-1.3,5.4-3.6c2.1-2.3,4.1-5.5,6.2-9.5
	c1.3-2.4,2.5-5.2,3.6-8.2S307,61.4,308,57.8z M277.9,81.1l0.7-0.7h-0.2c0.1,0,0.2,0,0.3-0.1c0.1-0.1,0.2-0.1,0.3-0.1
	c0,0.6,0.1,0.8,0.4,0.5l0.7,0.7v-1.8c-0.1-0.1-0.4-0.2-0.7-0.2H279c0-0.2,0-0.5-0.1-0.6c-0.1-0.2-0.1-0.5-0.1-0.8
	c-0.2-0.2-0.5-0.2-0.7,0l-0.7,0.2c0,0.1-0.1,0.3-0.4,0.5c-0.1,0.5-0.4,0.8-0.7,0.9l0.5,1.5h0.5l-0.4,0.7c-0.4,0-0.2,0.3,0.4,0.9h0.9
	l-0.2-0.7v-0.7l-0.4-0.2H277.9z M288.7,26c-0.2,0.4-0.4,0.6-0.5,0.7c-0.1,0.1,0.1,0.3,0.5,0.5l0.9,0.4l-0.2-0.7l0.5,0.4v-0.2
	l0.2,0.9c0.4,0,0.5-0.1,0.5-0.4c0.4,0.1,0.6,0.1,0.7-0.2c0.2-0.1,0.6-0.1,1.1,0h0.7l0.2-0.4v-0.9h-0.7l-0.7-0.7
	c-0.2-0.2-0.7-0.2-1.3,0l-0.2,0.2l-0.2-0.5h-0.4c0,0.1-0.1,0.1-0.4-0.2c-0.2,0.5-0.4,1-0.4,1.5L288.7,26z M289,37.6
	c0-0.5-0.4-0.8-1.1-1.1c-0.2,0.1-0.4,0.3-0.5,0.5c-0.1,0.2-0.2,0.3-0.4,0.5l-0.9-0.4l-0.2,2l1.3-0.2L287,40l1.3-1.1l-0.9-0.4
	c0.1-0.1,0.2-0.2,0.2-0.4c0.1,0,0.3,0.1,0.5,0.2l0.7,0.2L289,37.6z M342.2,14.3l-0.5,0.5l-0.7-0.2c0,0.6-0.1,0.9-0.4,0.9
	c-0.1,0.2-0.2,0.5-0.2,0.7h-1.3l2.4,1.5v-0.9h0.5l0.2-0.5c0.1-0.1,0.2-0.4,0.2-0.7v-0.7h-0.2V14.3z M278.5,84.1
	c-0.1,0.2-0.2,0.5-0.4,0.9c-0.1,0.4-0.1,0.7,0,1.1c0.1,0,0.3,0.1,0.5,0.4l0.9-0.4l0.4-1.3l-0.4-1.5l-0.9,0.4L278.5,84.1z
	 M338.9,16.3l-1.5,0.4v0.9c0.2,0.2,0.4,0.4,0.5,0.4l0.9,0.5l0.9-1.1l-0.9-0.7V16.3z M287.9,40.7l-0.2,1.1l0.4,0.9h0.9
	c0.2-0.5,0.4-0.8,0.4-0.9l0.2-1.1H287.9z M291.6,32l-0.7-0.4c-0.4,0.5-0.4,0.8-0.2,1.1c-0.2,0.5,0.1,0.9,0.9,1.3l0.5-0.7l0.2-1.1
	L291.6,32z M334,19l1.5-0.4l-0.2-2.2c-0.2,0.5-0.5,0.8-0.6,1.1c-0.2,0.2-0.5,0.3-0.8,0.2L334,19z M281.9,47.6
	c-0.1,0.4-0.2,0.7-0.2,0.9l0.2,0.7l0.9-0.2l0.4-1.6L281.9,47.6z M289.9,35.8l0.2-1.1l-1.3,1.5l1.1,1.3l0.5-1.5L289.9,35.8z
	 M285.7,31.8h0.4v-0.2c0-0.1,0.1-0.2,0.2-0.4l0.9,0.4l0.5-1.5h-1.1c0,0.1,0,0.2-0.1,0.3c-0.1,0.1-0.1,0.2-0.1,0.3l-0.5-0.2
	L285.7,31.8z M289.4,32.3c-0.4-0.2-0.7-0.4-1.1-0.4l-0.5,1.1l0.7,0.4l0.9-0.2V32.3z M280.8,17.4l-0.5-0.2l0.4,0.7l-0.5,0.7l1.5,0.2
	l0.4-0.9c-0.1,0-0.2,0-0.3-0.1c-0.1-0.1-0.2-0.1-0.3-0.1l-0.2-0.4H280.8z M274.8,17.6l-0.5-0.2l0.4,0.7l-0.5,0.7l1.5,0.2l0.4-0.9
	c-0.1,0-0.2,0-0.3-0.1c-0.1-0.1-0.2-0.1-0.3-0.1l-0.2-0.4H274.8z M296.1,17.8l-0.5-0.2l0.4,0.7l-0.5,0.7l1.5,0.2l0.4-0.9
	c-0.1,0-0.2,0-0.3-0.1s-0.2-0.1-0.3-0.1l-0.2-0.4H296.1z M276.1,14.7l-0.5-0.2l0.4,0.7l-0.4,0.7l1.5,0.2l0.2-0.9
	c-0.1,0-0.2,0-0.3-0.1c-0.1-0.1-0.2-0.1-0.3-0.1l-0.2-0.4H276.1z M331.8,20.7l0.4,0.7h1.1l-0.4-0.9l-1.1-1.1V20.7z M342.2,16.3
	l0.2-0.5v-0.2c0-0.1,0-0.2-0.1-0.2s-0.1-0.1-0.1-0.2v-0.4h-0.5l-0.7,0.9l1.1,0.7L342.2,16.3z M277.2,17.8l-0.4,1.1l1.1,0.2l1.1-1.1
	c-0.6,0-1,0.1-1.3,0.4L277.2,17.8z M283.2,17.6l-0.4,1.1l1.1,0.2l1.1-1.1c-0.6,0-1,0.1-1.3,0.4L283.2,17.6z M278.5,14.9l-0.2,1.1
	l1.1,0.2l0.9-1.1c-0.6,0-1,0.1-1.3,0.4L278.5,14.9z M298.5,17.9l-0.4,1.1l1.1,0.2l1.1-1.1c-0.5,0-1,0.1-1.5,0.4L298.5,17.9z
	 M339.6,20.3h0.7c0-0.4,0.1-0.7,0.4-0.9l0.4-0.4h-1.3L339.6,20.3z M278.6,75.9l0.2-0.7c0.6,0,0.9,0.1,0.9,0.4l-0.5,1.1h-0.4
	L278.6,75.9z M346.6,14.9l1.5,1.6l0.2-1.3L346.6,14.9z M351.7,9.8l1.1,1.5l0.4-1.5H351.7z M284.5,82.4l-0.2,1.1h1.1
	c-0.1-0.2-0.2-0.5-0.2-0.9v-0.4L284.5,82.4z M280.1,77l-0.2,0.5l0.2,0.7h0.4l0.4-0.5V77H280.1z M287,47.8h0.4l1.3-1.8l-1.5,0.9
	L287,47.8z M278.6,73.7l0.4-0.5h0.4l-0.2,1.3h-0.4L278.6,73.7z M279.9,81.9v0.4l0.9,0.4l-0.2-0.9L279.9,81.9z M281.7,40.9l0.2,0.7
	h0.4l0.2-1.1L281.7,40.9z M341.5,16.9l-0.4-0.2c-0.5,0-0.7-0.1-0.7-0.4h1.1V16.9z M342.2,17.4v0.4l1.1-0.5v-0.4L342.2,17.4z
	 M339.3,19.8h-0.9v0.4h0.5l0.2,0.2l0.4-0.2h-0.2V19.8z M283.6,37.1l-0.2,0.9h0.4l0.4-0.5L283.6,37.1z M305.2,19.6v-0.4
	c-0.4-0.1-0.7-0.2-0.9-0.2v0.4L305.2,19.6z M285.4,44h0.4l0.5-0.7h-0.4L285.4,44z M307.6,20.1l-0.2,0.4h0.7l0.2-0.4H307.6z
	 M341.7,20.1l1.1-0.7V19L341.7,20.1z M351.5,12.8h-0.4l0.5,0.9L351.5,12.8z M338.9,19.8l0.4,0.4h-0.4l-0.4-0.4H338.9z M306.3,21.4
	v0.4c0.1,0,0.2,0,0.3-0.1c0.1-0.1,0.2-0.1,0.3-0.1h0.2L306.3,21.4z M289.4,26.7c-0.1,0-0.2-0.1-0.2-0.4l0.4,0.2l-0.2,0.4V26.7z
	 M277.7,81.1h-0.4V81L277.7,81.1z M279,79.5c0.1,0.2,0.1,0.4,0,0.5V79.5z M287.4,38.9h-0.2l0.2-0.4V38.9z"/>
</svg>
