<svg xmlns="http://www.w3.org/2000/svg" x="0px" y="0px" viewBox="0 0 200 200">
<path d="M0,0v200.3h200V0C200,0,0,0,0,0z"/>
<path fill="#FFFFFF" d="M124,98.9L200,0h-11.2l-76.3,98.9H124"/>
<path fill="#FFFFFF" d="M152.8,142.3c2.5,6.8,4.5,14,6.8,20.9c1.5,4.2,3.9,12.9,6.7,16.3h-18.8
	c0-5.4-2.1-10.3-3.5-15.4c-1.2-3.5-2.1-7.2-3.4-10.8l-0.3-1.4l-0.3-1.1l-0.3-0.9l-0.2-0.9l-0.2-0.6L139,148v-0.1H109l-4.8,6.7
	l0.1,0.1l0.1,0.6l0.3,0.9l0.3,1.1l0.5,1.4c0.9,2.7,1.7,5.5,2.6,8.2c2,6.3,2,6.6,5.3,12.6h-18c-0.4-3.8-1.2-6.1-2.3-9.8
	c-3,3.2-5.1,5.7-6.9,9.8H72.3c-0.7-4.2-1.1-6.1-2.6-10.2c-3.1,4.3-4.4,5.2-6.7,10.2H49c6.2-5.6,11.2-12.9,16.3-19.5l-3.5-12H32.1
	v0.1l-0.7,0.7l-0.5,0.7l-0.6,0.8l-0.7,0.9l-0.8,1.1l-0.9,1c-2.6,3.6-5.4,7-7.9,10.6c-3.8,5-8.3,10.1-11.2,15.7H0v-5.7l0.3-0.3h0.1
	v-0.1l0.5-0.5l0.2-0.3c0.8-0.8,1.3-1.8,2.2-2.6c2.1-2.6,4.2-5.3,6.2-7.9c5.9-7.4,11.6-14.9,17.2-22.5c7.8-11,18.7-22.3,24-34.6h15.3
	c0.3,8.1,2.7,12.3,4.8,20c1.3,4.2,2.5,8.3,3.9,12.5l0.5,1.4l0.7,2.5l0.3,0.9l0.2,0.9l0.2,0.7l0.2,0.6l0.1,0.3v0.1l5.2-6.6
	c-3-7.5-6.3-23.5-11.6-33.2h17.9c-0.2,4,1.4,6.9,2.3,10.7c1.1,3.5,1.9,7,2.9,10.4c2.3-3.1,4.8-6.1,7.1-9.2c2.6-3.7,6.9-7,7.3-11.9
	h15c-8.8,8.2-17.2,20.9-25,30.3c0.9,2.7,1.5,5.5,2.4,8.2c4.8-6.2,9.6-12.4,14.3-18.7c4.4-6.1,10.4-12.8,13.4-19.7h14.6v0.7l0.1,1.7
	l0.3,1.8l0.2,1.4L152.8,142.3L152.8,142.3z M130.6,119.2c-3.8,6.8-9.9,13.7-14.7,20h20c-1-3.2-2.1-6.5-3.1-9.6l-0.5-1.6l-0.5-1.4
	l-0.3-1.1l-0.2-0.9l-0.3-2.3v-2.9l-0.1-0.2V119L130.6,119.2L130.6,119.2z M53.9,119.2c-2.1,3.7-5,7.7-7.7,11c-1.4,2-3.1,3.8-4.5,5.8
	l-0.7,0.9l-0.6,0.8l-0.6,0.6l-0.3,0.5l-0.3,0.3v0.1h20c-1.1-3.1-2.1-6.5-3.1-9.6l-0.5-1.6l-0.5-1.4l-0.3-1.1l-0.2-0.9l-0.3-2.3
	l-0.1-1.9v-1.2L54,119L53.9,119.2L53.9,119.2z M83.9,165.9l5.4-7.6c-1.3-3.3-2.4-6.6-3.5-10l-5.3,6.9L83.9,165.9"/>
</svg>
