<svg xmlns="http://www.w3.org/2000/svg" x="0px" y="0px" viewBox="0 0 202 38">
<polyline points="109.8,34.7 135.6,34.7 135.6,31.5 114.2,31.5 114.2,21.4 130.3,21.4 130.3,18.2 114.2,18.2 114.2,8.9 135.6,8.9 
	135.6,5.8 109.8,5.8 109.8,34.7 "/>
<polyline points="123.2,1.1 119.7,5.1 130.7,1.1 123.2,1.1 "/>
<polyline points="178.9,31.5 178.9,5.8 174.9,5.8 174.9,34.7 201,34.7 201,31.5 178.9,31.5 "/>
<path d="M152.3,5.8l-14.7,28.9h5l3.8-7.5H164l3.8,7.5h4.9L158,5.8H152.3 M148.2,23.6l6.9-13.8l7,13.8H148.2z"/>
<path d="M95.8,22.6c6.6-1.8,7.3-6.7,7.2-8.4c-0.4-5.2-3.9-8.4-10.1-8.4H74.7v28.9h4.1V22.6h11.8l8.7,12.1h5.2
	C104.7,34.7,98.4,26.5,95.8,22.6 M92.3,19.1H78.9V9.2h13.9c3.2,0,5,1.5,5.7,3.4c0.4,1.3,0.2,3-0.6,4.2
	C96.8,18.7,94.5,19.1,92.3,19.1z"/>
<path d="M49.8,0.9c-11.7,0-19.7,8.3-19.7,18.2c0,10.5,8.8,17.9,19.7,17.9c10.9,0,19.7-7.3,19.7-17.9C69.5,9.2,61.4,0.9,49.8,0.9
	 M49.7,33.5c-8.1,0-14.8-6.5-14.8-14.3c0-7.8,6.4-14.7,15.1-14.7c8.5,0,14.8,6.8,14.8,14.7C64.7,27,57.8,33.5,49.7,33.5z"/>
<polyline points="19.7,16 22.7,16 28.1,5.8 23.7,5.8 19.7,16 "/>
<polyline points="5,31.5 5,5.8 1,5.8 1,34.7 27.1,34.7 27.1,31.5 5,31.5 "/>
</svg>
