<svg xmlns="http://www.w3.org/2000/svg" width="301" height="197" viewBox="0 0 301 197">
    <defs>
        <filter id="a" width="101.3%" height="102%" x="-.7%" y="-.5%" filterUnits="objectBoundingBox">
            <feOffset dy="1" in="SourceAlpha" result="shadowOffsetOuter1"/>
            <feGaussianBlur in="shadowOffsetOuter1" result="shadowBlurOuter1" stdDeviation=".5"/>
            <feColorMatrix in="shadowBlurOuter1" result="shadowMatrixOuter1" values="0 0 0 0 0 0 0 0 0 0 0 0 0 0 0 0 0 0 1 0"/>
            <feMerge>
                <feMergeNode in="shadowMatrixOuter1"/>
                <feMergeNode in="SourceGraphic"/>
            </feMerge>
        </filter>
    </defs>
    <g fill="none" fill-rule="evenodd" filter="url(#a)" transform="translate(1)">
        <g fill="#FC0" fill-rule="nonzero" opacity=".8">
            <path d="M147.003.289l-4.35 13.391 6.685 2.173z"/>
            <path d="M146.997.289l4.35 13.391-6.685 2.173z"/>
            <path d="M160.382 10.02h-14.08v7.03z"/>
            <path d="M160.38 10.014L148.99 18.29l-4.132-5.687z"/>
            <g>
                <path d="M155.268 25.76l-4.352-13.392-6.685 2.173z"/>
                <path d="M155.273 25.756l-11.392-8.277 4.132-5.687z"/>
            </g>
            <g>
                <path d="M133.618 10.02h14.08v7.03z"/>
                <path d="M133.62 10.014l11.391 8.276 4.132-5.687z"/>
                <g>
                    <path d="M138.732 25.76l4.352-13.392 6.685 2.173z"/>
                    <path d="M138.727 25.756l11.392-8.277-4.132-5.687z"/>
                </g>
            </g>
            <g>
                <path d="M147.003 169.254l-4.35 13.392 6.685 2.172z"/>
                <path d="M146.997 169.254l4.35 13.392-6.685 2.172z"/>
                <path d="M160.382 178.985h-14.08v7.03z"/>
                <path d="M160.38 178.98l-11.391 8.276-4.132-5.688z"/>
                <g>
                    <path d="M155.268 194.725l-4.352-13.391-6.685 2.172z"/>
                    <path d="M155.273 194.721l-11.392-8.276 4.132-5.687z"/>
                </g>
                <g>
                    <path d="M133.618 178.985h14.08v7.03z"/>
                    <path d="M133.62 178.98l11.391 8.276 4.132-5.688z"/>
                    <g>
                        <path d="M138.732 194.725l4.352-13.391 6.685 2.172z"/>
                        <path d="M138.727 194.722l11.392-8.277-4.132-5.687z"/>
                    </g>
                </g>
            </g>
            <g>
                <path d="M62.645 84.772l-4.35 13.391 6.685 2.172z"/>
                <path d="M62.639 84.772l4.35 13.391-6.685 2.172z"/>
                <path d="M76.024 94.503h-14.08v7.03z"/>
                <path d="M76.022 94.497l-11.391 8.276-4.132-5.687z"/>
                <path d="M70.91 110.242l-4.352-13.391-6.685 2.172z"/>
                <path d="M70.915 110.238l-11.392-8.276 4.132-5.687z"/>
                <g>
                    <path d="M49.26 94.503h14.08v7.03z"/>
                    <path d="M49.262 94.497l11.391 8.276 4.132-5.687z"/>
                    <g>
                        <path d="M54.375 110.242l4.35-13.391 6.686 2.172z"/>
                        <path d="M54.37 110.238l11.39-8.276-4.131-5.687z"/>
                    </g>
                </g>
                <g>
                    <path d="M96.542 37.075l11.392-8.277-4.132-5.687z"/>
                    <path d="M96.547 37.078l4.352-13.39 6.685 2.171z"/>
                    <path d="M91.438 21.338l11.391 8.276 4.132-5.687z"/>
                    <path d="M91.436 21.344h14.08v7.03z"/>
                    <g>
                        <path d="M104.827 11.611l-4.35 13.391 6.685 2.173z"/>
                        <path d="M104.821 11.611l4.351 13.391-6.686 2.173z"/>
                    </g>
                    <g>
                        <path d="M113.091 37.07L101.7 28.794l4.132-5.688z"/>
                        <path d="M113.086 37.074l-4.351-13.392-6.686 2.173z"/>
                        <g>
                            <path d="M118.205 21.33l-11.392 8.276-4.132-5.687z"/>
                            <path d="M118.207 21.336h-14.08v7.03z"/>
                        </g>
                    </g>
                </g>
                <g>
                    <path d="M82.217 68l-4.35-13.39-6.686 2.172z"/>
                    <path d="M82.223 67.997L70.83 59.721l4.132-5.687z"/>
                    <path d="M65.674 67.993l11.391-8.277-4.132-5.687z"/>
                    <path d="M65.68 67.996l4.35-13.391 6.686 2.172z"/>
                    <g>
                        <path d="M60.56 52.252l11.392 8.277 4.132-5.687z"/>
                        <path d="M60.558 52.259h14.08v7.03z"/>
                    </g>
                    <g>
                        <path d="M87.327 52.26l-11.391 8.277-4.132-5.687z"/>
                        <path d="M87.329 52.267h-14.08v7.03z"/>
                        <g>
                            <path d="M73.937 42.533l4.351 13.392-6.685 2.172z"/>
                            <path d="M73.944 42.533l-4.351 13.392 6.685 2.172z"/>
                        </g>
                    </g>
                </g>
                <g>
                    <path d="M87.336 136.744h-14.08v7.03z"/>
                    <path d="M87.334 136.738l-11.391 8.276-4.132-5.687z"/>
                    <path d="M82.216 152.475l-4.351-13.39-6.686 2.171z"/>
                    <path d="M82.22 152.472l-11.39-8.277 4.132-5.687z"/>
                    <g>
                        <path d="M65.666 152.475l11.391-8.277-4.132-5.687z"/>
                        <path d="M65.671 152.479l4.351-13.392 6.686 2.173z"/>
                    </g>
                    <g>
                        <path d="M73.945 127.02l4.351 13.392-6.686 2.172z"/>
                        <path d="M73.951 127.02l-4.35 13.392 6.685 2.172z"/>
                        <g>
                            <path d="M60.556 136.749h14.08v7.03z"/>
                            <path d="M60.558 136.743l11.392 8.276 4.132-5.687z"/>
                        </g>
                    </g>
                </g>
                <g>
                    <path d="M118.213 167.667h-14.08v7.03z"/>
                    <path d="M118.211 167.66l-11.391 8.277-4.132-5.687z"/>
                    <path d="M113.093 183.398l-4.351-13.391-6.686 2.172z"/>
                    <path d="M113.098 183.394l-11.391-8.276 4.132-5.687z"/>
                    <g>
                        <path d="M96.543 183.398l11.391-8.277-4.132-5.687z"/>
                        <path d="M96.548 183.401l4.351-13.39 6.686 2.171z"/>
                    </g>
                    <g>
                        <path d="M104.822 157.944l4.351 13.39-6.686 2.173z"/>
                        <path d="M104.829 157.944l-4.352 13.39 6.686 2.173z"/>
                        <g>
                            <path d="M91.433 167.672h14.08v7.03z"/>
                            <path d="M91.435 167.666l11.392 8.276 4.132-5.687z"/>
                        </g>
                    </g>
                </g>
            </g>
            <g>
                <path d="M231.355 84.772l4.35 13.391-6.685 2.172z"/>
                <path d="M231.361 84.772l-4.35 13.391 6.685 2.172z"/>
                <path d="M217.976 94.503h14.08v7.03z"/>
                <path d="M217.978 94.497l11.391 8.276 4.132-5.687z"/>
                <path d="M223.09 110.242l4.352-13.391 6.685 2.172z"/>
                <path d="M223.085 110.238l11.392-8.276-4.132-5.687z"/>
                <g>
                    <path d="M244.74 94.503h-14.08v7.03z"/>
                    <path d="M244.738 94.497l-11.391 8.276-4.132-5.687z"/>
                    <g>
                        <path d="M239.625 110.242l-4.35-13.391-6.686 2.172z"/>
                        <path d="M239.63 110.238l-11.39-8.276 4.131-5.687z"/>
                    </g>
                </g>
                <g>
                    <path d="M197.458 37.074l-11.392-8.276 4.132-5.687z"/>
                    <path d="M197.453 37.078L193.1 23.687l-6.685 2.172z"/>
                    <path d="M202.562 21.338l-11.391 8.276-4.132-5.687z"/>
                    <path d="M202.564 21.344h-14.08v7.03z"/>
                    <g>
                        <path d="M189.173 11.61l4.35 13.392-6.685 2.172z"/>
                        <path d="M189.179 11.61l-4.351 13.392 6.686 2.172z"/>
                    </g>
                    <g>
                        <path d="M180.909 37.07l11.391-8.277-4.132-5.687z"/>
                        <path d="M180.914 37.073l4.351-13.39 6.686 2.171z"/>
                        <g>
                            <path d="M175.795 21.33l11.392 8.276 4.132-5.688z"/>
                            <path d="M175.793 21.335h14.08v7.03z"/>
                        </g>
                    </g>
                </g>
                <g>
                    <path d="M211.782 68.001l4.351-13.391 6.686 2.172z"/>
                    <path d="M211.777 67.998l11.391-8.277-4.132-5.687z"/>
                    <path d="M228.326 67.993l-11.392-8.276 4.133-5.688z"/>
                    <path d="M228.32 67.997l-4.35-13.392-6.686 2.173z"/>
                    <g>
                        <path d="M233.44 52.253l-11.392 8.276-4.132-5.687z"/>
                        <path d="M233.441 52.259h-14.08v7.03z"/>
                    </g>
                    <g>
                        <path d="M206.673 52.261l11.391 8.276 4.132-5.687z"/>
                        <path d="M206.67 52.267h14.081v7.03z"/>
                        <g>
                            <path d="M220.062 42.534l-4.35 13.391 6.685 2.172z"/>
                            <path d="M220.056 42.534l4.35 13.391-6.685 2.172z"/>
                        </g>
                    </g>
                </g>
                <g>
                    <path d="M206.664 136.744h14.08v7.03z"/>
                    <path d="M206.666 136.738l11.391 8.276 4.132-5.687z"/>
                    <path d="M211.784 152.475l4.351-13.39 6.686 2.171z"/>
                    <path d="M211.78 152.472l11.39-8.277-4.132-5.687z"/>
                    <g>
                        <path d="M228.334 152.475l-11.391-8.277 4.132-5.687z"/>
                        <path d="M228.329 152.479l-4.351-13.392-6.686 2.173z"/>
                    </g>
                    <g>
                        <path d="M220.055 127.02l-4.351 13.392 6.686 2.172z"/>
                        <path d="M220.049 127.02l4.35 13.392-6.685 2.172z"/>
                        <g>
                            <path d="M233.444 136.749h-14.08v7.03z"/>
                            <path d="M233.442 136.743l-11.392 8.276-4.132-5.687z"/>
                        </g>
                    </g>
                </g>
                <g>
                    <path d="M175.787 167.667h14.08v7.03z"/>
                    <path d="M175.789 167.66l11.391 8.277 4.132-5.687z"/>
                    <path d="M180.907 183.398l4.351-13.391 6.686 2.172z"/>
                    <path d="M180.902 183.394l11.391-8.276-4.132-5.687z"/>
                    <g>
                        <path d="M197.457 183.398l-11.391-8.277 4.132-5.687z"/>
                        <path d="M197.452 183.401l-4.351-13.39-6.686 2.171z"/>
                    </g>
                    <g>
                        <path d="M189.178 157.944l-4.351 13.39 6.686 2.173z"/>
                        <path d="M189.171 157.944l4.352 13.39-6.686 2.173z"/>
                        <g>
                            <path d="M202.567 167.672h-14.08v7.03z"/>
                            <path d="M202.565 167.666l-11.392 8.276-4.132-5.687z"/>
                        </g>
                    </g>
                </g>
            </g>
        </g>
        <g fill="#FFF">
            <path d="M22.881 56.344c-.708 1.844-1.39 4.297-2.047 7.36h-.703c.156-.928.235-1.761.235-2.5 0-1-.177-1.819-.532-2.454-.75-1.396-2.005-2.094-3.765-2.094-1.709 0-3.334.75-4.875 2.25-1.542 1.5-2.779 3.45-3.711 5.852a20.274 20.274 0 0 0-1.399 7.398c0 2.115.378 3.698 1.133 4.75s1.815 1.578 3.18 1.578c.812 0 1.656-.185 2.531-.554a6.688 6.688 0 0 0 2.266-1.555 9.402 9.402 0 0 0 1.46-1.992c.412-.745.889-1.768 1.43-3.07h.703c-1.01 3.697-1.64 6.26-1.89 7.687h-.703c.062-.458.093-.823.093-1.094 0-.541-.135-.812-.406-.812-.166 0-.385.093-.656.281a13.048 13.048 0 0 1-2.938 1.54c-.99.358-2.098.538-3.328.538-2.854 0-4.997-.682-6.43-2.047-1.432-1.364-2.148-3.328-2.148-5.89 0-2.521.667-4.99 2-7.407 1.334-2.416 3.172-4.39 5.516-5.921 2.344-1.532 4.937-2.297 7.781-2.297.833 0 1.547.093 2.14.28.595.188 1.087.428 1.477.72.39.291.774.65 1.149 1.078.156.187.312.281.468.281.396 0 .829-.635 1.297-1.906h.672zm-1.469 17.828c0-1.76.399-3.586 1.196-5.477a12.136 12.136 0 0 1 3.547-4.757c1.567-1.282 3.44-1.922 5.617-1.922 1.667 0 2.948.448 3.844 1.343.895.896 1.343 2.203 1.343 3.922 0 1.76-.398 3.586-1.195 5.477a12.167 12.167 0 0 1-3.555 4.765c-1.573 1.287-3.448 1.93-5.625 1.93-1.656 0-2.932-.45-3.828-1.351-.896-.901-1.344-2.211-1.344-3.93zM31.616 62.64c-.802 0-1.67.757-2.602 2.273-.932 1.516-1.719 3.375-2.36 5.578-.64 2.203-.96 4.248-.96 6.133 0 .77.088 1.328.265 1.672.177.344.453.516.828.516.782 0 1.636-.737 2.563-2.211.927-1.474 1.71-3.303 2.352-5.485.64-2.182.96-4.258.96-6.226 0-.844-.085-1.43-.257-1.758-.172-.328-.435-.492-.79-.492zM63.1 76.156c-.77 2.198-2.214 3.297-4.328 3.297-1.23 0-2.083-.385-2.563-1.156-.229-.386-.343-.86-.343-1.422 0-.677.161-1.516.484-2.516l2.875-8.64c.167-.532.25-.959.25-1.281 0-.428-.146-.641-.438-.641-.572 0-1.229.456-1.968 1.367-.74.912-1.531 2.292-2.375 4.14-.844 1.85-1.683 4.123-2.516 6.821v-.078L51.35 79h-4.578l3.906-13.281c.188-.604.281-1.042.281-1.313 0-.406-.177-.61-.53-.61-.636 0-1.34.509-2.11 1.524-.771 1.016-1.547 2.43-2.328 4.243-.782 1.812-1.521 3.89-2.22 6.234v-.078L42.929 79h-4.5l3.906-13.828c.105-.365.157-.667.157-.906 0-.459-.193-.688-.579-.688-.375 0-.72.198-1.039.594-.317.396-.643 1.042-.976 1.937l-.61 1.625h-.609l.86-2.437c.791-2.188 2.234-3.281 4.328-3.281 1.718 0 2.578.854 2.578 2.562a7.16 7.16 0 0 1-.282 1.906l-.734 2.813c.708-1.76 1.42-3.172 2.133-4.234.713-1.063 1.48-1.836 2.297-2.32.818-.485 1.742-.727 2.773-.727 1.688 0 2.531.828 2.531 2.484 0 .625-.13 1.406-.39 2.344l-.578 2.047c.729-1.73 1.46-3.097 2.195-4.102.734-1.005 1.492-1.719 2.273-2.14a5.338 5.338 0 0 1 2.579-.633c1.74 0 2.609.833 2.609 2.5 0 .677-.146 1.453-.438 2.328l-3.125 9.437c-.135.396-.203.714-.203.953 0 .427.203.641.61.641.74 0 1.411-.839 2.015-2.516l.578-1.546h.61l-.797 2.343zm27.39 0c-.77 2.198-2.213 3.297-4.328 3.297-1.229 0-2.083-.385-2.562-1.156-.23-.386-.344-.86-.344-1.422 0-.677.162-1.516.485-2.516l2.875-8.64c.166-.532.25-.959.25-1.281 0-.428-.146-.641-.438-.641-.573 0-1.229.456-1.969 1.367-.74.912-1.53 2.292-2.375 4.14-.843 1.85-1.682 4.123-2.515 6.821v-.078L78.74 79h-4.579l3.907-13.281c.187-.604.281-1.042.281-1.313 0-.406-.177-.61-.531-.61-.636 0-1.339.509-2.11 1.524-.77 1.016-1.547 2.43-2.328 4.243-.781 1.812-1.52 3.89-2.219 6.234v-.078L70.32 79h-4.5l3.906-13.828c.104-.365.156-.667.156-.906 0-.459-.192-.688-.578-.688-.375 0-.721.198-1.039.594-.318.396-.643 1.042-.977 1.937l-.609 1.625h-.61l.86-2.437c.792-2.188 2.234-3.281 4.328-3.281 1.719 0 2.578.854 2.578 2.562a7.16 7.16 0 0 1-.28 1.906l-.735 2.813c.708-1.76 1.419-3.172 2.133-4.234.713-1.063 1.479-1.836 2.296-2.32.818-.485 1.743-.727 2.774-.727 1.687 0 2.531.828 2.531 2.484 0 .625-.13 1.406-.39 2.344l-.579 2.047c.73-1.73 1.461-3.097 2.196-4.102.734-1.005 1.492-1.719 2.273-2.14a5.338 5.338 0 0 1 2.578-.633c1.74 0 2.61.833 2.61 2.5 0 .677-.146 1.453-.438 2.328l-3.125 9.437c-.135.396-.203.714-.203.953 0 .427.203.641.61.641.739 0 1.41-.839 2.015-2.516l.578-1.546h.61l-.797 2.343zm14.797-1c-.49.76-1.101 1.466-1.835 2.117a9.106 9.106 0 0 1-2.532 1.579 7.795 7.795 0 0 1-3.054.601c-.97 0-1.834-.172-2.594-.516a4.033 4.033 0 0 1-1.79-1.539c-.431-.682-.648-1.502-.648-2.46 0-1.896.513-3.855 1.54-5.875a14.393 14.393 0 0 1 4.195-5.04c1.77-1.338 3.708-2.007 5.812-2.007.99 0 1.792.216 2.406.648.615.432.922 1.055.922 1.867 0 1.219-.494 2.339-1.484 3.36-.99 1.02-2.232 1.893-3.727 2.617a25.69 25.69 0 0 1-4.68 1.726c-.124.771-.187 1.5-.187 2.188 0 1.125.211 1.924.633 2.398.422.474 1.034.711 1.836.711.667 0 1.42-.21 2.258-.633.838-.421 1.643-1.085 2.414-1.992l.515.25zm-1.609-12.547c-.635 0-1.344.438-2.125 1.313-.781.875-1.505 2.01-2.172 3.406a18.62 18.62 0 0 0-1.453 4.313c1.49-.657 2.662-1.37 3.516-2.141a8.784 8.784 0 0 0 2.015-2.64 7.09 7.09 0 0 0 .735-3.188c0-.396-.042-.672-.125-.828a.414.414 0 0 0-.39-.235zm21.156 13.547c-.77 2.198-2.203 3.297-4.297 3.297-1.197 0-2.052-.354-2.562-1.062-.27-.417-.406-.912-.406-1.485 0-.646.172-1.495.515-2.547l2.875-8.64c.198-.615.297-1.073.297-1.375 0-.49-.208-.735-.625-.735-.635 0-1.406.646-2.312 1.938-.907 1.292-1.818 2.995-2.735 5.11a55.58 55.58 0 0 0-2.39 6.687L112.772 79h-4.516l3.875-13.828c.125-.448.188-.787.188-1.016 0-.385-.183-.578-.547-.578-.396 0-.75.188-1.063.563-.312.375-.64 1.03-.984 1.968l-.61 1.625h-.609l.86-2.437c.406-1.167.953-2.005 1.64-2.516.688-.51 1.521-.765 2.5-.765 1.834 0 2.75.875 2.75 2.625 0 .541-.088 1.156-.265 1.843l-1 3.891c.875-2.167 1.713-3.857 2.515-5.07.802-1.214 1.612-2.065 2.43-2.555.818-.49 1.732-.734 2.742-.734 1.927 0 2.89.854 2.89 2.562 0 .646-.14 1.401-.421 2.266l-3.14 9.437a2.77 2.77 0 0 0-.188.938c0 .437.203.656.61.656.343 0 .676-.177 1-.531.322-.354.66-1.016 1.015-1.985l.578-1.546h.61l-.798 2.343zm7.453.125c-.062.23-.093.443-.093.64 0 .636.317.954.953.954.469 0 .922-.23 1.36-.687.437-.459.827-1.146 1.171-2.063l.484-1.312h.61l-.64 1.859c-.855 2.52-2.46 3.781-4.813 3.781-1.084 0-1.899-.284-2.446-.851-.546-.568-.82-1.342-.82-2.32 0-.553.1-1.193.297-1.923l3.219-11.171h-2.907l.172-.641h2.922l1.39-4.86c1.845-.03 3.391-.182 4.641-.453l-1.53 5.313h3.609l-.094.64h-3.703l-3.782 13.094zm22.141-8.687c.542-1.396 1.08-2.5 1.617-3.313.537-.812 1.107-1.393 1.711-1.742.604-.349 1.297-.523 2.078-.523.813 0 1.448.24 1.907.718.458.48.687 1.1.687 1.86 0 .594-.133 1.146-.398 1.656-.266.51-.633.917-1.102 1.219a2.798 2.798 0 0 1-1.547.453c-.625 0-1.107-.164-1.445-.492-.339-.328-.508-.8-.508-1.414 0-.5.117-.974.352-1.422.234-.448.554-.828.96-1.14a3.484 3.484 0 0 1 1.344-.641 5.06 5.06 0 0 0-.406-.094c-1.125 0-2.252.807-3.383 2.422-1.13 1.614-2.294 4.51-3.492 8.687L151.475 79h-4.5l3.906-13.828c.115-.427.172-.75.172-.969 0-.417-.177-.625-.531-.625-.396 0-.755.19-1.078.57-.323.38-.657 1.034-1 1.961l-.61 1.625h-.609l.86-2.437c.791-2.188 2.265-3.281 4.421-3.281 1.636 0 2.453.859 2.453 2.578 0 .594-.083 1.224-.25 1.89l-.28 1.11zm19.219 7.562c-.49.76-1.102 1.466-1.836 2.117a9.106 9.106 0 0 1-2.531 1.579 7.795 7.795 0 0 1-3.055.601c-.969 0-1.833-.172-2.594-.516a4.033 4.033 0 0 1-1.789-1.539c-.432-.682-.648-1.502-.648-2.46 0-1.896.513-3.855 1.539-5.875a14.393 14.393 0 0 1 4.195-5.04c1.771-1.338 3.708-2.007 5.813-2.007.99 0 1.791.216 2.406.648.614.432.922 1.055.922 1.867 0 1.219-.495 2.339-1.485 3.36-.99 1.02-2.231 1.893-3.726 2.617a25.69 25.69 0 0 1-4.68 1.726c-.125.771-.187 1.5-.187 2.188 0 1.125.21 1.924.632 2.398.422.474 1.034.711 1.836.711.667 0 1.42-.21 2.258-.633.839-.421 1.643-1.085 2.414-1.992l.516.25zm-1.61-12.547c-.635 0-1.343.438-2.125 1.313-.78.875-1.505 2.01-2.171 3.406a18.62 18.62 0 0 0-1.454 4.313c1.49-.657 2.662-1.37 3.516-2.141a8.784 8.784 0 0 0 2.016-2.64 7.09 7.09 0 0 0 .734-3.188c0-.396-.042-.672-.125-.828a.414.414 0 0 0-.39-.235zm-1.609-3.093a43.052 43.052 0 0 0 2-3.078 103.61 103.61 0 0 1 1.36-2.258 7.37 7.37 0 0 1 1.03-1.29c.532-.562 1.11-.843 1.735-.843.448 0 .839.161 1.172.484.281.282.422.604.422.969 0 .573-.313 1.156-.938 1.75a8.036 8.036 0 0 1-1.023.86c-.38.27-1.13.762-2.25 1.476a40.59 40.59 0 0 0-3.18 2.242l-.328-.312zm11.328-2.22c0-.635.143-1.179.43-1.632a2.8 2.8 0 0 1 1.172-1.039c.495-.24 1.05-.36 1.664-.36.76 0 1.346.175 1.758.524.411.349.617.836.617 1.461 0 .563-.149 1.068-.445 1.516a3.017 3.017 0 0 1-1.204 1.047 3.735 3.735 0 0 1-1.68.375c-.728 0-1.296-.17-1.702-.508-.407-.339-.61-.8-.61-1.383zm-1.203 7.876c.136-.375.203-.698.203-.969 0-.417-.187-.625-.562-.625-.386 0-.74.195-1.063.586-.323.39-.65 1.04-.984 1.945l-.64 1.625h-.61l.906-2.437c.771-2.188 2.25-3.281 4.438-3.281.99 0 1.708.237 2.156.71.448.475.672 1.097.672 1.868 0 .594-.12 1.224-.36 1.89l-3.359 9.797c-.125.375-.188.683-.188.922 0 .448.214.672.641.672.323 0 .646-.18.969-.54.323-.358.672-1.017 1.047-1.976l.562-1.546h.61l-.829 2.343c-.75 2.198-2.187 3.297-4.312 3.297-1.938 0-2.906-.88-2.906-2.64 0-.72.156-1.537.468-2.454l3.141-9.187zm22.938 10.984c-.771 2.198-2.204 3.297-4.297 3.297-1.198 0-2.052-.354-2.563-1.062-.27-.417-.406-.912-.406-1.485 0-.646.172-1.495.516-2.547l2.875-8.64c.198-.615.296-1.073.296-1.375 0-.49-.208-.735-.625-.735-.635 0-1.406.646-2.312 1.938-.906 1.292-1.818 2.995-2.734 5.11a55.58 55.58 0 0 0-2.391 6.687L191.428 79h-4.516l3.875-13.828c.125-.448.188-.787.188-1.016 0-.385-.182-.578-.547-.578-.396 0-.75.188-1.062.563-.313.375-.641 1.03-.985 1.968l-.61 1.625h-.609l.86-2.437c.406-1.167.953-2.005 1.64-2.516.688-.51 1.521-.765 2.5-.765 1.834 0 2.75.875 2.75 2.625 0 .541-.088 1.156-.265 1.843l-1 3.891c.875-2.167 1.713-3.857 2.515-5.07.803-1.214 1.612-2.065 2.43-2.555.818-.49 1.732-.734 2.742-.734 1.927 0 2.891.854 2.891 2.562 0 .646-.14 1.401-.422 2.266l-3.14 9.437a2.77 2.77 0 0 0-.188.938c0 .437.203.656.61.656.343 0 .676-.177 1-.531.322-.354.66-1.016 1.015-1.985l.578-1.546h.61l-.797 2.343zm13.437-14.078a33.375 33.375 0 0 0-3.664 6.875c-.932 2.396-1.44 4.516-1.523 6.36-.032.927.07 1.609.304 2.046.235.438.612.657 1.133.657 1.25 0 2.399-.49 3.445-1.47 1.047-.978 1.914-2.205 2.602-3.679.687-1.474 1.156-2.94 1.406-4.398-.916-.438-1.666-1.029-2.25-1.774a3.964 3.964 0 0 1-.875-2.507c0-.688.188-1.222.563-1.602.375-.38.88-.57 1.515-.57.771 0 1.334.323 1.688.968.354.646.505 1.547.453 2.704-.104 2.166-.563 4.307-1.375 6.421-.813 2.115-1.987 3.868-3.523 5.258-1.537 1.39-3.373 2.086-5.508 2.086-1.594 0-2.742-.362-3.446-1.086-.703-.724-1.054-1.627-1.054-2.71 0-3.574 2.86-7.688 8.578-12.344-.51.062-.966.216-1.367.46-.401.245-.953.662-1.657 1.25-.703.589-1.3.883-1.789.883a1.27 1.27 0 0 1-.468-.086 6.87 6.87 0 0 1-.633-.304c-.276-.146-.513-.22-.711-.22a.882.882 0 0 0-.727.345c-.182.229-.367.63-.554 1.203l-.266.86h-.61l.704-2.329c.646-2.27 1.65-3.406 3.015-3.406.375 0 .763.114 1.164.344.401.229.737.406 1.008.53.271.126.636.188 1.094.188.875 0 1.651-.224 2.328-.672l.328-.609.672.328zm18.125 13.078c-.49.76-1.101 1.466-1.836 2.117a9.106 9.106 0 0 1-2.531 1.579 7.795 7.795 0 0 1-3.055.601c-.969 0-1.833-.172-2.594-.516a4.033 4.033 0 0 1-1.789-1.539c-.432-.682-.648-1.502-.648-2.46 0-1.896.513-3.855 1.539-5.875a14.393 14.393 0 0 1 4.195-5.04c1.771-1.338 3.709-2.007 5.813-2.007.99 0 1.792.216 2.406.648.615.432.922 1.055.922 1.867 0 1.219-.495 2.339-1.484 3.36-.99 1.02-2.232 1.893-3.727 2.617a25.69 25.69 0 0 1-4.68 1.726c-.125.771-.187 1.5-.187 2.188 0 1.125.21 1.924.633 2.398.422.474 1.034.711 1.836.711.666 0 1.419-.21 2.257-.633.839-.421 1.644-1.085 2.414-1.992l.516.25zm-1.61-12.547c-.635 0-1.343.438-2.124 1.313-.782.875-1.505 2.01-2.172 3.406a18.62 18.62 0 0 0-1.453 4.313c1.49-.657 2.661-1.37 3.515-2.141a8.784 8.784 0 0 0 2.016-2.64 7.09 7.09 0 0 0 .734-3.188c0-.396-.041-.672-.125-.828a.414.414 0 0 0-.39-.235zM254.6 76.156c-.77 2.198-2.203 3.297-4.297 3.297-1.198 0-2.052-.354-2.562-1.062-.271-.417-.407-.912-.407-1.485 0-.646.172-1.495.516-2.547l2.875-8.64c.198-.615.297-1.073.297-1.375 0-.49-.208-.735-.625-.735-.636 0-1.406.646-2.313 1.938-.906 1.292-1.817 2.995-2.734 5.11a55.58 55.58 0 0 0-2.39 6.687L242.536 79h-4.515l3.875-13.828c.125-.448.187-.787.187-1.016 0-.385-.182-.578-.547-.578-.395 0-.75.188-1.062.563-.313.375-.64 1.03-.984 1.968l-.61 1.625h-.61l.86-2.437c.406-1.167.953-2.005 1.64-2.516.688-.51 1.522-.765 2.5-.765 1.834 0 2.75.875 2.75 2.625 0 .541-.088 1.156-.265 1.843l-1 3.891c.875-2.167 1.714-3.857 2.516-5.07.802-1.214 1.612-2.065 2.43-2.555.817-.49 1.731-.734 2.742-.734 1.927 0 2.89.854 2.89 2.562 0 .646-.14 1.401-.422 2.266l-3.14 9.437a2.77 2.77 0 0 0-.188.938c0 .437.203.656.61.656.343 0 .677-.177 1-.531.323-.354.661-1.016 1.015-1.985l.578-1.546h.61l-.797 2.343zm7.453.125c-.062.23-.094.443-.094.64 0 .636.318.954.953.954.47 0 .922-.23 1.36-.687.437-.459.828-1.146 1.172-2.063l.484-1.312h.61l-.641 1.859c-.854 2.52-2.458 3.781-4.813 3.781-1.083 0-1.898-.284-2.445-.851-.547-.568-.82-1.342-.82-2.32 0-.553.099-1.193.297-1.923l3.218-11.171h-2.906l.172-.641h2.922l1.39-4.86c1.844-.03 3.391-.182 4.641-.453l-1.531 5.313h3.61l-.095.64h-3.703l-3.78 13.094zm18.61-1.125c-.49.76-1.102 1.466-1.836 2.117a9.106 9.106 0 0 1-2.532 1.579 7.795 7.795 0 0 1-3.054.601c-.97 0-1.834-.172-2.594-.516a4.033 4.033 0 0 1-1.79-1.539c-.431-.682-.648-1.502-.648-2.46 0-1.896.513-3.855 1.54-5.875a14.393 14.393 0 0 1 4.195-5.04c1.77-1.338 3.708-2.007 5.812-2.007.99 0 1.792.216 2.406.648.615.432.922 1.055.922 1.867 0 1.219-.494 2.339-1.484 3.36-.99 1.02-2.232 1.893-3.727 2.617a25.69 25.69 0 0 1-4.68 1.726c-.124.771-.187 1.5-.187 2.188 0 1.125.211 1.924.633 2.398.422.474 1.034.711 1.836.711.667 0 1.42-.21 2.258-.633.838-.421 1.643-1.085 2.414-1.992l.515.25zm-1.61-12.547c-.635 0-1.344.438-2.125 1.313-.781.875-1.505 2.01-2.172 3.406a18.62 18.62 0 0 0-1.453 4.313c1.49-.657 2.662-1.37 3.516-2.141a8.784 8.784 0 0 0 2.015-2.64 7.09 7.09 0 0 0 .735-3.188c0-.396-.042-.672-.125-.828a.414.414 0 0 0-.39-.235zm12 4.985c.542-1.396 1.08-2.5 1.617-3.313.537-.812 1.107-1.393 1.711-1.742.604-.349 1.297-.523 2.078-.523.813 0 1.448.24 1.907.718.458.48.687 1.1.687 1.86 0 .594-.133 1.146-.398 1.656-.266.51-.633.917-1.102 1.219a2.798 2.798 0 0 1-1.547.453c-.625 0-1.107-.164-1.445-.492-.339-.328-.508-.8-.508-1.414 0-.5.117-.974.352-1.422.234-.448.554-.828.96-1.14a3.484 3.484 0 0 1 1.344-.641 5.06 5.06 0 0 0-.406-.094c-1.125 0-2.252.807-3.383 2.422-1.13 1.614-2.294 4.51-3.492 8.687L288.1 79h-4.5l3.906-13.828c.115-.427.172-.75.172-.969 0-.417-.177-.625-.531-.625-.396 0-.755.19-1.078.57-.323.38-.657 1.034-1 1.961l-.61 1.625h-.609l.86-2.437c.791-2.188 2.265-3.281 4.421-3.281 1.636 0 2.453.859 2.453 2.578 0 .594-.083 1.224-.25 1.89l-.28 1.11zM24.036 142.8H1.068V90.816h8.928v44.208h14.04v7.776zm9.432-51.984v8.496L28.5 108.24h-3.816l3.528-8.928h-3.24v-8.496h8.496zM66.444 142.8H41.532V90.816h23.904v7.776H50.46v13.392h11.52v7.776H50.46v15.264h15.984v7.776zm7.056-13.104v-38.88h8.928v39.24c0 3.816 1.512 5.688 4.752 5.688 3.24 0 4.752-1.872 4.752-5.688v-39.24h8.928v38.88c0 8.928-5.184 13.824-13.68 13.824-8.496 0-13.68-4.896-13.68-13.824zm44.928-31.536v15.984h3.168c4.824 0 6.624-1.8 6.624-7.992s-1.8-7.992-6.624-7.992h-3.168zm0 23.328V142.8H109.5V90.816h12.528c10.008 0 15.12 4.248 15.12 15.336 0 8.352-3.24 11.736-6.264 13.104l7.56 23.544h-9.072l-6.336-21.528c-1.152.144-3.024.216-4.608.216zM145.5 130.2v-26.784c0-7.344 4.32-13.32 13.68-13.32s13.68 5.976 13.68 13.32V130.2c0 7.344-4.32 13.32-13.68 13.32s-13.68-5.976-13.68-13.32zm8.928-26.568v26.352c0 3.888 1.152 5.76 4.752 5.76 3.6 0 4.752-1.872 4.752-5.76v-26.352c0-3.888-1.152-5.76-4.752-5.76-3.6 0-4.752 1.872-4.752 5.76zm36-5.472v15.984h3.456c5.832 0 7.632-1.8 7.632-7.992s-1.8-7.992-7.632-7.992h-3.456zm0 44.64H181.5V90.816h12.816c11.016 0 16.128 4.248 16.128 15.336 0 11.088-5.112 15.336-16.128 15.336h-3.888V142.8zm51.984 0H217.5V90.816h23.904v7.776h-14.976v13.392h11.52v7.776h-11.52v15.264h15.984v7.776zm40.536-15.552h-7.776c-.192-1.248-.288-2.232-.288-2.952 0-4.08 1.896-7.56 5.688-10.44l3.456-2.592c2.064-1.536 3.096-3.432 3.096-5.688 0-1.776-.624-3.3-1.872-4.572-1.248-1.272-3.024-1.908-5.328-1.908-2.4 0-4.224.804-5.472 2.412-1.248 1.608-1.872 3.516-1.872 5.724 0 .96.096 1.728.288 2.304l-9.072-.36c-.24-.816-.36-1.896-.36-3.24 0-4.128 1.476-7.704 4.428-10.728s6.972-4.536 12.06-4.536c5.28 0 9.432 1.416 12.456 4.248 3.024 2.832 4.536 6.192 4.536 10.08 0 5.136-2.376 9.384-7.128 12.744l-2.952 2.088c-2.592 1.872-3.888 4.2-3.888 6.984v.432zm-7.776 14.472c-1.104-1.104-1.656-2.448-1.656-4.032s.552-2.94 1.656-4.068c1.104-1.128 2.448-1.692 4.032-1.692s2.94.564 4.068 1.692c1.128 1.128 1.692 2.484 1.692 4.068 0 1.584-.564 2.928-1.692 4.032-1.128 1.104-2.484 1.656-4.068 1.656-1.584 0-2.928-.552-4.032-1.656z"/>
        </g>
    </g>
</svg>
