<svg version="1.1" xmlns="http://www.w3.org/2000/svg" x="0px" y="0px" viewBox="0 0 306 197">
    <polygon fill="#FFCC00" points="155.8,26.7 152.6,17 160.8,11 160.9,11 160.9,11 160.9,11 160.8,11 150.7,11 147.5,1.3 147.5,1.3
	147.5,1.3 147.5,1.3 147.5,1.3 144.3,11 134.2,11 134.1,11 134.1,11 134.1,11 134.2,11 142.4,17 139.2,26.7 139.2,26.8 139.2,26.7 
	139.2,26.8 139.3,26.7 147.5,20.7 155.7,26.7 155.8,26.8 155.8,26.7 155.8,26.8 "/>
    <polygon fill="#FFCC00" points="155.8,195.7 152.6,186 160.8,180 160.9,180 160.9,180 160.9,180 160.8,180 150.7,180 147.5,170.3
	147.5,170.3 147.5,170.3 147.5,170.3 147.5,170.3 144.3,180 134.2,180 134.1,180 134.1,180 134.1,180 134.2,180 142.4,186 
	139.2,195.7 139.2,195.7 139.2,195.7 139.2,195.7 139.3,195.7 147.5,189.7 155.7,195.7 155.8,195.7 155.8,195.7 "/>
    <polygon fill="#FFCC00" points="240.1,111.2 237,101.5 245.2,95.5 245.2,95.5 245.2,95.5 245.2,95.5 245.2,95.5 235,95.5 231.9,85.8
	231.9,85.8 231.9,85.8 231.9,85.8 231.8,85.8 228.7,95.5 218.5,95.5 218.5,95.5 218.5,95.5 218.5,95.5 218.5,95.5 226.8,101.5 
	223.6,111.2 223.6,111.2 223.6,111.2 223.6,111.2 223.6,111.2 231.9,105.2 240.1,111.2 240.1,111.2 240.1,111.2 "/>
    <polygon fill="#FFCC00" points="197.9,38 194.8,28.3 203,22.4 203.1,22.3 203.1,22.3 203.1,22.3 203,22.3 192.8,22.3 189.7,12.6
	189.7,12.6 189.7,12.6 189.7,12.6 189.7,12.6 186.5,22.3 176.3,22.3 176.3,22.3 176.3,22.3 176.3,22.3 176.3,22.4 184.6,28.3 
	181.4,38 181.4,38.1 181.4,38.1 181.4,38.1 181.4,38 189.7,32.1 197.9,38.1 198,38.1 197.9,38.1 198,38.1 "/>
    <polygon fill="#FFCC00" points="228.8,69 225.7,59.3 233.9,53.3 233.9,53.3 233.9,53.3 233.9,53.3 233.9,53.3 223.7,53.3 220.6,43.6
	220.6,43.5 220.6,43.5 220.6,43.5 220.6,43.6 217.4,53.3 207.2,53.3 207.2,53.3 207.2,53.3 207.2,53.3 207.2,53.3 215.4,59.3 
	212.3,69 212.3,69 212.3,69 212.3,69 212.3,69 220.6,63 228.8,69 228.8,69 228.8,69 "/>
    <polygon fill="#FFCC00" points="228.8,153.4 225.7,143.8 233.9,137.8 233.9,137.7 233.9,137.7 233.9,137.7 233.9,137.7 223.7,137.7
	220.6,128.1 220.6,128 220.6,128 220.5,128 220.5,128.1 217.4,137.7 207.2,137.7 207.2,137.7 207.2,137.7 207.2,137.7 207.2,137.8 
	215.4,143.8 212.3,153.4 212.3,153.5 212.3,153.5 212.3,153.5 212.3,153.4 220.6,147.5 228.8,153.5 228.8,153.5 228.8,153.5 
	228.8,153.5 "/>
    <polygon fill="#FFCC00" points="197.9,184.4 194.8,174.7 203,168.7 203.1,168.7 203.1,168.7 203.1,168.7 203,168.7 192.8,168.7
	189.7,159 189.7,158.9 189.7,159 189.7,158.9 189.7,159 186.5,168.7 176.3,168.7 176.3,168.7 176.3,168.7 176.3,168.7 176.3,168.7 
	184.6,174.7 181.4,184.4 181.4,184.4 181.4,184.4 181.4,184.4 181.4,184.4 189.7,178.4 197.9,184.4 198,184.4 197.9,184.4 
	198,184.4 "/>
    <polygon fill="#FFCC00" points="71.4,111.2 68.2,101.5 76.5,95.5 76.5,95.5 76.5,95.5 76.5,95.5 76.5,95.5 66.3,95.5 63.2,85.8
	63.1,85.8 63.1,85.8 63.1,85.8 63.1,85.8 60,95.5 49.8,95.5 49.8,95.5 49.8,95.5 49.8,95.5 49.8,95.5 58,101.5 54.9,111.2 
	54.9,111.2 54.9,111.2 54.9,111.2 54.9,111.2 63.1,105.2 71.4,111.2 71.4,111.2 71.4,111.2 "/>
    <polygon fill="#FFCC00" points="113.6,38 110.4,28.3 118.7,22.4 118.7,22.3 118.7,22.3 118.7,22.3 118.7,22.3 108.5,22.3 105.3,12.6
	105.3,12.6 105.3,12.6 105.3,12.6 105.3,12.6 102.2,22.3 92,22.3 91.9,22.3 91.9,22.3 91.9,22.3 92,22.4 100.2,28.3 97.1,38 
	97,38.1 97.1,38.1 97,38.1 97.1,38.1 105.3,32.1 113.6,38 113.6,38.1 113.6,38.1 113.6,38.1 "/>
    <polygon fill="#FFCC00" points="82.7,69 79.6,59.3 87.8,53.3 87.8,53.3 87.8,53.3 87.8,53.3 87.8,53.3 77.6,53.3 74.4,43.6 74.4,43.5
	74.4,43.5 74.4,43.5 74.4,43.6 71.3,53.3 61.1,53.3 61.1,53.3 61.1,53.3 61.1,53.3 61.1,53.3 69.3,59.3 66.2,69 66.2,69 66.2,69 
	66.2,69 66.2,69 74.4,63 82.7,69 82.7,69 82.7,69 "/>
    <polygon fill="#FFCC00" points="82.7,153.4 79.6,143.8 87.8,137.8 87.8,137.7 87.8,137.7 87.8,137.7 87.8,137.7 77.6,137.7 74.5,128.1
	74.5,128 74.4,128 74.4,128 74.4,128.1 71.3,137.7 61.1,137.7 61.1,137.7 61.1,137.7 61.1,137.7 61.1,137.8 69.3,143.8 66.2,153.4 
	66.2,153.5 66.2,153.5 66.2,153.5 66.2,153.5 74.4,147.5 82.7,153.4 82.7,153.5 82.7,153.5 82.7,153.5 "/>
    <polygon fill="#FFCC00" points="113.6,184.4 110.4,174.7 118.7,168.7 118.7,168.7 118.7,168.7 118.7,168.7 118.7,168.7 108.5,168.7
	105.3,159 105.3,158.9 105.3,159 105.3,158.9 105.3,159 102.2,168.7 92,168.7 91.9,168.7 91.9,168.7 91.9,168.7 92,168.7 
	100.2,174.7 97.1,184.4 97,184.4 97.1,184.4 97,184.4 97.1,184.4 105.3,178.4 113.6,184.4 113.6,184.4 113.6,184.4 "/>
    <path d="M29.4,138.6v-52h23.9v7.8h-15v13.4h11.5v7.8H38.3v15.3h16v7.8H29.4z"/>
    <path d="M61.3,86.6h8.9v39.2c0,3.8,1.5,5.7,4.8,5.7s4.8-1.9,4.8-5.7V86.6h8.9v38.9c0,8.9-5.2,13.8-13.7,13.8
	c-8.5,0-13.7-4.9-13.7-13.8V86.6z"/>
    <path d="M106.3,138.6h-8.9v-52h12.5c10,0,15.1,4.2,15.1,15.3c0,8.4-3.2,11.7-6.3,13.1l7.6,23.5h-9.1l-6.3-21.5
	c-1.2,0.1-3,0.2-4.6,0.2V138.6z M106.3,109.9h3.2c4.8,0,6.6-1.8,6.6-8c0-6.2-1.8-8-6.6-8h-3.2V109.9z"/>
    <path d="M133.3,99.2c0-7.3,4.3-13.3,13.7-13.3c9.4,0,13.7,6,13.7,13.3V126c0,7.3-4.3,13.3-13.7,13.3
	c-9.4,0-13.7-6-13.7-13.3V99.2z M142.3,125.8c0,3.9,1.2,5.8,4.8,5.8c3.6,0,4.8-1.9,4.8-5.8V99.4c0-3.9-1.2-5.8-4.8-5.8
	c-3.6,0-4.8,1.9-4.8,5.8V125.8z"/>
    <path d="M169.3,138.6v-52h12.8c11,0,16.1,4.2,16.1,15.3c0,11.1-5.1,15.3-16.1,15.3h-3.9v21.3H169.3z M178.3,109.9h3.5
	c5.8,0,7.6-1.8,7.6-8c0-6.2-1.8-8-7.6-8h-3.5V109.9z"/>
    <path d="M205.3,138.6v-52h23.9v7.8h-15v13.4h11.5v7.8h-11.5v15.3h16v7.8H205.3z"/>
    <path d="M255.1,120.7c-0.1-0.9-0.3-1.9-0.3-3c0-3.8,1.6-7.3,5.7-10.4l3.5-2.6c2.2-1.6,3.1-3.5,3.1-5.7
	c0-3.3-2.4-6.5-7.2-6.5c-5.1,0-7.3,4.1-7.3,8.1c0,0.9,0.1,1.7,0.3,2.3l-9.1-0.4c-0.3-1-0.4-2.2-0.4-3.2c0-7.8,5.8-15.3,16.5-15.3
	c11.2,0,17,7.1,17,14.3c0,5.7-2.9,9.7-7.1,12.7l-3,2.1c-2.5,1.8-3.9,4-3.9,7v0.4H255.1z M259.1,125.3c3.2,0,5.8,2.6,5.8,5.8
	s-2.6,5.7-5.8,5.7c-3.2,0-5.7-2.5-5.7-5.7S256,125.3,259.1,125.3z"/>
    <path d="M53.5,59.9c2.3,0,4.1,0,5.3-0.1l-0.2,0.6c-0.8,0-1.4,0.1-1.7,0.2c-0.4,0.1-0.7,0.4-0.9,0.8
	c-0.2,0.4-0.4,0.9-0.6,1.8L51.1,79c-0.2,0.7-0.3,1.2-0.3,1.6s0.1,0.5,0.2,0.7c0.1,0.2,0.4,0.3,0.7,0.3c0.3,0.1,0.7,0.1,1.3,0.1
	l-0.1,0.6c-1.2-0.1-2.9-0.1-5.2-0.1c-2.2,0-3.8,0-5,0.1l0.1-0.6c0.8,0,1.3-0.1,1.7-0.2c0.4-0.1,0.7-0.4,0.9-0.8
	c0.2-0.4,0.4-0.9,0.6-1.8l2-7.7h-8.3l-2,7.7c-0.2,0.7-0.3,1.2-0.3,1.6s0.1,0.5,0.2,0.7c0.1,0.2,0.4,0.3,0.7,0.3
	c0.3,0.1,0.7,0.1,1.3,0.1l-0.1,0.6c-1.2-0.1-2.8-0.1-5-0.1c-2.3,0-4.1,0-5.2,0.1l0.2-0.6c0.7,0,1.3-0.1,1.7-0.2
	c0.4-0.1,0.7-0.4,0.9-0.8c0.2-0.4,0.4-1,0.7-1.7l4.2-15.9c0.2-0.7,0.3-1.2,0.3-1.5c0-0.3-0.1-0.6-0.2-0.7c-0.1-0.2-0.4-0.3-0.7-0.4
	c-0.3-0.1-0.7-0.1-1.3-0.1l0.2-0.6c1.1,0.1,2.8,0.1,5.2,0.1c2.1,0,3.7,0,5-0.1l-0.2,0.6c-0.8,0-1.4,0.1-1.7,0.2
	c-0.4,0.1-0.7,0.4-0.9,0.8c-0.2,0.4-0.4,0.9-0.6,1.8l-2,7.5h8.3l2-7.5c0.2-0.7,0.3-1.2,0.3-1.5c0-0.3-0.1-0.6-0.2-0.7
	c-0.1-0.2-0.4-0.3-0.7-0.4c-0.3-0.1-0.7-0.1-1.3-0.1l0.2-0.6C49.6,59.8,51.3,59.9,53.5,59.9z"/>
    <path d="M57.6,72.1c0.8-1.9,2-3.5,3.5-4.8c1.6-1.3,3.4-1.9,5.6-1.9c1.7,0,2.9,0.4,3.8,1.3c0.9,0.9,1.3,2.2,1.3,3.9
	c0,1.8-0.4,3.6-1.2,5.5s-2,3.5-3.6,4.8c-1.6,1.3-3.4,1.9-5.6,1.9c-1.7,0-2.9-0.5-3.8-1.4c-0.9-0.9-1.3-2.2-1.3-3.9
	C56.4,75.8,56.8,74,57.6,72.1z M64,68.3c-0.9,1.5-1.7,3.4-2.4,5.6s-1,4.2-1,6.1c0,0.8,0.1,1.3,0.3,1.7c0.2,0.3,0.5,0.5,0.8,0.5
	c0.8,0,1.6-0.7,2.6-2.2c0.9-1.5,1.7-3.3,2.4-5.5c0.6-2.2,1-4.3,1-6.2c0-0.8-0.1-1.4-0.3-1.8s-0.4-0.5-0.8-0.5
	C65.8,66.1,65,66.8,64,68.3z"/>
    <path d="M80.1,72.5c-1.4,2.4-2.1,4.6-2.1,6.6c0,0.8,0.1,1.4,0.4,1.8c0.3,0.4,0.7,0.6,1.2,0.6c0.8,0,1.5-0.3,2.2-0.8
	c-0.2-0.6-0.4-1.3-0.4-2.1c0-1.2,0.3-2.4,0.8-3.6c0.6-1.2,1.3-2.1,2.1-2.8c0.8-0.7,1.6-1.1,2.2-1.1c0.8,0,1.2,0.7,1.2,2.1
	c0,1.1-0.2,2.3-0.7,3.4c-0.5,1.1-1.1,2.1-2,3c0.5,1,1.3,1.5,2.4,1.5c1.1,0,2-0.4,2.7-1.3c0.7-0.8,1.3-1.9,1.7-3.2
	c0.4-1.3,0.6-2.6,0.6-3.9c0-0.4,0-0.7,0-1c-1.2-0.5-2.2-1-3-1.7c-0.8-0.7-1.2-1.5-1.2-2.6c0-0.5,0.2-1,0.5-1.3
	c0.3-0.4,0.8-0.5,1.4-0.5c1,0,1.7,0.6,2.1,1.7c0.5,1.1,0.7,2.4,0.8,3.9c0,0.5,0.1,1,0.1,1.2c0,1.7-0.3,3.4-0.8,5
	c-0.6,1.6-1.4,3-2.5,4c-1.1,1.1-2.5,1.6-4.1,1.6c-1.7,0-2.9-0.6-3.6-1.8c-1.3,1.2-2.9,1.8-4.7,1.8c-0.9,0-1.7-0.2-2.4-0.5
	c-0.6-0.3-1.1-0.8-1.4-1.4c-0.3-0.6-0.5-1.3-0.5-2c0-1.3,0.5-2.5,1.4-3.8c0.9-1.3,2.1-2.6,3.6-3.8c1.5-1.3,3.4-2.8,5.7-4.5
	c-0.5,0.1-1,0.2-1.4,0.5c-0.4,0.2-1,0.7-1.8,1.2c-0.8,0.6-1.4,0.9-1.9,0.9c-0.2,0-0.4,0-0.5-0.1c-0.1-0.1-0.4-0.2-0.6-0.3
	c-0.3-0.2-0.5-0.2-0.7-0.2c-0.3,0-0.5,0.1-0.7,0.4c-0.2,0.2-0.4,0.6-0.5,1.2l-0.3,0.9h-0.6l0.7-2.3c0.4-1.2,0.8-2.1,1.4-2.5
	c0.5-0.5,1.1-0.7,1.7-0.7c0.4,0,0.8,0.1,1.2,0.3c0.5,0.2,0.8,0.4,1.2,0.5c0.3,0.1,0.7,0.2,1.2,0.2c0.9,0,1.7-0.2,2.5-0.7l0.4-0.6
	l0.7,0.3C83.3,67.8,81.5,70.1,80.1,72.5z M85.6,72.4c-0.3,0.5-0.6,1.2-0.8,2c-0.2,0.8-0.3,1.7-0.3,2.5c0,0.7,0.1,1.3,0.3,1.9
	c0.7-0.8,1.3-1.7,1.7-2.7c0.4-1,0.6-2,0.6-3c0-1-0.2-1.5-0.5-1.5C86.2,71.6,85.9,71.9,85.6,72.4z"/>
    <path d="M108.1,80.3c0,0.6,0.3,1,1,1c0.5,0,0.9-0.2,1.4-0.7c0.4-0.5,0.8-1.1,1.2-2.1l0.5-1.3h0.6l-0.6,1.9
	c-0.9,2.5-2.5,3.8-4.8,3.8c-1.1,0-1.9-0.3-2.4-0.9s-0.8-1.3-0.8-2.3c0-0.6,0.1-1.2,0.3-1.9l3.2-11.2h-2.9l0.2-0.6h2.9l1.4-4.9
	c1.8,0,3.4-0.2,4.6-0.5l-1.5,5.3h3.6l-0.1,0.6h-3.7l-3.8,13.1C108.1,79.9,108.1,80.1,108.1,80.3z"/>
    <path d="M115.8,72.1c0.8-1.9,2-3.5,3.5-4.8c1.6-1.3,3.4-1.9,5.6-1.9c1.7,0,2.9,0.4,3.8,1.3c0.9,0.9,1.3,2.2,1.3,3.9
	c0,1.8-0.4,3.6-1.2,5.5s-2,3.5-3.6,4.8c-1.6,1.3-3.4,1.9-5.6,1.9c-1.7,0-2.9-0.5-3.8-1.4c-0.9-0.9-1.3-2.2-1.3-3.9
	C114.6,75.8,115,74,115.8,72.1z M122.2,68.3c-0.9,1.5-1.7,3.4-2.4,5.6s-1,4.2-1,6.1c0,0.8,0.1,1.3,0.3,1.7c0.2,0.3,0.5,0.5,0.8,0.5
	c0.8,0,1.6-0.7,2.6-2.2c0.9-1.5,1.7-3.3,2.4-5.5c0.6-2.2,1-4.3,1-6.2c0-0.8-0.1-1.4-0.3-1.8s-0.4-0.5-0.8-0.5
	C124,66.1,123.1,66.8,122.2,68.3z"/>
    <path d="M148.8,67.7c0.5-0.8,1.1-1.4,1.7-1.7c0.6-0.3,1.3-0.5,2.1-0.5c0.8,0,1.4,0.2,1.9,0.7c0.5,0.5,0.7,1.1,0.7,1.9
	c0,0.6-0.1,1.1-0.4,1.7c-0.3,0.5-0.6,0.9-1.1,1.2c-0.5,0.3-1,0.5-1.5,0.5c-0.6,0-1.1-0.2-1.4-0.5c-0.3-0.3-0.5-0.8-0.5-1.4
	c0-0.5,0.1-1,0.4-1.4c0.2-0.4,0.6-0.8,1-1.1s0.9-0.5,1.3-0.6c-0.2-0.1-0.4-0.1-0.4-0.1c-1.1,0-2.3,0.8-3.4,2.4
	c-1.1,1.6-2.3,4.5-3.5,8.7l-1.3,5.2h-4.5l3.9-13.8c0.1-0.4,0.2-0.8,0.2-1c0-0.4-0.2-0.6-0.5-0.6c-0.4,0-0.8,0.2-1.1,0.6
	c-0.3,0.4-0.7,1-1,2l-0.6,1.6H140l0.9-2.4c0.8-2.2,2.3-3.3,4.4-3.3c1.6,0,2.5,0.9,2.5,2.6c0,0.6-0.1,1.2-0.2,1.9l-0.3,1.1
	C147.8,69.6,148.3,68.5,148.8,67.7z"/>
    <path d="M164.6,80.7c-0.7,0.7-1.6,1.2-2.5,1.6s-2,0.6-3.1,0.6c-1,0-1.8-0.2-2.6-0.5c-0.8-0.3-1.4-0.9-1.8-1.5
	c-0.4-0.7-0.6-1.5-0.6-2.5c0-1.9,0.5-3.9,1.5-5.9c1-2,2.4-3.7,4.2-5c1.8-1.3,3.7-2,5.8-2c1,0,1.8,0.2,2.4,0.6
	c0.6,0.4,0.9,1.1,0.9,1.9c0,1.2-0.5,2.3-1.5,3.4c-1,1-2.2,1.9-3.7,2.6c-1.5,0.7-3.1,1.3-4.7,1.7c-0.1,0.8-0.2,1.5-0.2,2.2
	c0,1.1,0.2,1.9,0.6,2.4c0.4,0.5,1,0.7,1.8,0.7c0.7,0,1.4-0.2,2.3-0.6c0.8-0.4,1.6-1.1,2.4-2l0.5,0.2C165.9,79.3,165.3,80,164.6,80.7
	z M162.7,67.3c-0.8,0.9-1.5,2-2.2,3.4c-0.7,1.4-1.2,2.8-1.5,4.3c1.5-0.7,2.7-1.4,3.5-2.1c0.9-0.8,1.5-1.7,2-2.6
	c0.5-1,0.7-2.1,0.7-3.2c0-0.4,0-0.7-0.1-0.8c-0.1-0.2-0.2-0.2-0.4-0.2C164.2,66,163.5,66.5,162.7,67.3z"/>
    <path d="M173.5,67.6c0-0.4-0.2-0.6-0.6-0.6c-0.4,0-0.7,0.2-1.1,0.6c-0.3,0.4-0.7,1-1,1.9l-0.6,1.6h-0.6l0.9-2.4
	c0.8-2.2,2.2-3.3,4.4-3.3c1,0,1.7,0.2,2.2,0.7c0.4,0.5,0.7,1.1,0.7,1.9c0,0.6-0.1,1.2-0.4,1.9l-3.4,9.8c-0.1,0.4-0.2,0.7-0.2,0.9
	c0,0.4,0.2,0.7,0.6,0.7c0.3,0,0.6-0.2,1-0.5c0.3-0.4,0.7-1,1-2l0.6-1.5h0.6l-0.8,2.3c-0.8,2.2-2.2,3.3-4.3,3.3
	c-1.9,0-2.9-0.9-2.9-2.6c0-0.7,0.2-1.5,0.5-2.5l3.1-9.2C173.5,68.2,173.5,67.9,173.5,67.6z M175,59.1c0.3-0.5,0.7-0.8,1.2-1
	c0.5-0.2,1-0.4,1.7-0.4c0.8,0,1.3,0.2,1.8,0.5c0.4,0.3,0.6,0.8,0.6,1.5c0,0.6-0.1,1.1-0.4,1.5c-0.3,0.4-0.7,0.8-1.2,1
	c-0.5,0.2-1.1,0.4-1.7,0.4c-0.7,0-1.3-0.2-1.7-0.5c-0.4-0.3-0.6-0.8-0.6-1.4C174.5,60.1,174.7,59.5,175,59.1z"/>
    <path d="M196.3,79.6c-0.8,2.2-2.2,3.3-4.3,3.3c-1.2,0-2.1-0.4-2.6-1.1c-0.3-0.4-0.4-0.9-0.4-1.5c0-0.6,0.2-1.5,0.5-2.5
	l2.9-8.6c0.2-0.6,0.3-1.1,0.3-1.4c0-0.5-0.2-0.7-0.6-0.7c-0.6,0-1.4,0.6-2.3,1.9c-0.9,1.3-1.8,3-2.7,5.1c-0.9,2.1-1.7,4.3-2.4,6.7
	l-0.4,1.7h-4.5l3.9-13.8c0.1-0.4,0.2-0.8,0.2-1c0-0.4-0.2-0.6-0.5-0.6c-0.4,0-0.8,0.2-1.1,0.6s-0.6,1-1,2l-0.6,1.6h-0.6l0.9-2.4
	c0.4-1.2,1-2,1.6-2.5c0.7-0.5,1.5-0.8,2.5-0.8c1.8,0,2.8,0.9,2.8,2.6c0,0.5-0.1,1.2-0.3,1.8l-1,3.9c0.9-2.2,1.7-3.9,2.5-5.1
	c0.8-1.2,1.6-2.1,2.4-2.6c0.8-0.5,1.7-0.7,2.7-0.7c1.9,0,2.9,0.9,2.9,2.6c0,0.6-0.1,1.4-0.4,2.3l-3.1,9.4c-0.1,0.3-0.2,0.7-0.2,0.9
	c0,0.4,0.2,0.7,0.6,0.7c0.3,0,0.7-0.2,1-0.5c0.3-0.4,0.7-1,1-2l0.6-1.5h0.6L196.3,79.6z"/>
    <path d="M206,72.4c-0.9,2.4-1.4,4.5-1.5,6.4c0,0.9,0.1,1.6,0.3,2s0.6,0.7,1.1,0.7c1.2,0,2.4-0.5,3.4-1.5
	c1-1,1.9-2.2,2.6-3.7c0.7-1.5,1.2-2.9,1.4-4.4c-0.9-0.4-1.7-1-2.2-1.8c-0.6-0.7-0.9-1.6-0.9-2.5c0-0.7,0.2-1.2,0.6-1.6
	c0.4-0.4,0.9-0.6,1.5-0.6c0.8,0,1.3,0.3,1.7,1c0.4,0.6,0.5,1.5,0.5,2.7c-0.1,2.2-0.6,4.3-1.4,6.4c-0.8,2.1-2,3.9-3.5,5.3
	c-1.5,1.4-3.4,2.1-5.5,2.1c-1.6,0-2.7-0.4-3.4-1.1s-1.1-1.6-1.1-2.7c0-3.6,2.9-7.7,8.6-12.3c-0.5,0.1-1,0.2-1.4,0.5
	c-0.4,0.2-1,0.7-1.7,1.2c-0.7,0.6-1.3,0.9-1.8,0.9c-0.2,0-0.3,0-0.5-0.1c-0.1-0.1-0.4-0.2-0.6-0.3c-0.3-0.1-0.5-0.2-0.7-0.2
	c-0.3,0-0.5,0.1-0.7,0.3c-0.2,0.2-0.4,0.6-0.6,1.2l-0.3,0.9h-0.6l0.7-2.3c0.6-2.3,1.7-3.4,3-3.4c0.4,0,0.8,0.1,1.2,0.3
	c0.4,0.2,0.7,0.4,1,0.5c0.3,0.1,0.6,0.2,1.1,0.2c0.9,0,1.7-0.2,2.3-0.7l0.3-0.6l0.7,0.3C208.2,67.7,207,70,206,72.4z"/>
    <path d="M226,80.7c-0.7,0.7-1.6,1.2-2.5,1.6s-2,0.6-3.1,0.6c-1,0-1.8-0.2-2.6-0.5c-0.8-0.3-1.4-0.9-1.8-1.5
	c-0.4-0.7-0.6-1.5-0.6-2.5c0-1.9,0.5-3.9,1.5-5.9c1-2,2.4-3.7,4.2-5c1.8-1.3,3.7-2,5.8-2c1,0,1.8,0.2,2.4,0.6
	c0.6,0.4,0.9,1.1,0.9,1.9c0,1.2-0.5,2.3-1.5,3.4c-1,1-2.2,1.9-3.7,2.6c-1.5,0.7-3.1,1.3-4.7,1.7c-0.1,0.8-0.2,1.5-0.2,2.2
	c0,1.1,0.2,1.9,0.6,2.4c0.4,0.5,1,0.7,1.8,0.7c0.7,0,1.4-0.2,2.3-0.6c0.8-0.4,1.6-1.1,2.4-2l0.5,0.2C227.3,79.3,226.7,80,226,80.7z
	 M224.1,67.3c-0.8,0.9-1.5,2-2.2,3.4c-0.7,1.4-1.2,2.8-1.5,4.3c1.5-0.7,2.7-1.4,3.5-2.1c0.9-0.8,1.5-1.7,2-2.6
	c0.5-1,0.7-2.1,0.7-3.2c0-0.4,0-0.7-0.1-0.8c-0.1-0.2-0.2-0.2-0.4-0.2C225.6,66,224.9,66.5,224.1,67.3z"/>
    <path d="M247.4,79.6c-0.8,2.2-2.2,3.3-4.3,3.3c-1.2,0-2.1-0.4-2.6-1.1c-0.3-0.4-0.4-0.9-0.4-1.5c0-0.6,0.2-1.5,0.5-2.5
	l2.9-8.6c0.2-0.6,0.3-1.1,0.3-1.4c0-0.5-0.2-0.7-0.6-0.7c-0.6,0-1.4,0.6-2.3,1.9c-0.9,1.3-1.8,3-2.7,5.1c-0.9,2.1-1.7,4.3-2.4,6.7
	l-0.4,1.7h-4.5l3.9-13.8c0.1-0.4,0.2-0.8,0.2-1c0-0.4-0.2-0.6-0.5-0.6c-0.4,0-0.8,0.2-1.1,0.6s-0.6,1-1,2l-0.6,1.6h-0.6l0.9-2.4
	c0.4-1.2,1-2,1.6-2.5c0.7-0.5,1.5-0.8,2.5-0.8c1.8,0,2.8,0.9,2.8,2.6c0,0.5-0.1,1.2-0.3,1.8l-1,3.9c0.9-2.2,1.7-3.9,2.5-5.1
	c0.8-1.2,1.6-2.1,2.4-2.6c0.8-0.5,1.7-0.7,2.7-0.7c1.9,0,2.9,0.9,2.9,2.6c0,0.6-0.1,1.4-0.4,2.3l-3.1,9.4c-0.1,0.3-0.2,0.7-0.2,0.9
	c0,0.4,0.2,0.7,0.6,0.7c0.3,0,0.7-0.2,1-0.5c0.3-0.4,0.7-1,1-2l0.6-1.5h0.6L247.4,79.6z"/>
    <path d="M254.7,80.3c0,0.6,0.3,1,1,1c0.5,0,0.9-0.2,1.4-0.7c0.4-0.5,0.8-1.1,1.2-2.1l0.5-1.3h0.6l-0.6,1.9
	c-0.9,2.5-2.5,3.8-4.8,3.8c-1.1,0-1.9-0.3-2.4-0.9s-0.8-1.3-0.8-2.3c0-0.6,0.1-1.2,0.3-1.9l3.2-11.2h-2.9l0.2-0.6h2.9l1.4-4.9
	c1.8,0,3.4-0.2,4.6-0.5l-1.5,5.3h3.6l-0.1,0.6h-3.7l-3.8,13.1C254.8,79.9,254.7,80.1,254.7,80.3z"/>
</svg>
