<svg xmlns="http://www.w3.org/2000/svg" width="115" height="50" viewBox="0 0 115 50">
    <g fill="none" fill-rule="evenodd">
        <path fill="#2C3071" d="M4.97 23.731a4.853 4.853 0 0 1-4.852-4.844 4.857 4.857 0 0 1 4.53-4.833c.129-.009 1.78-.01 1.796-.01a.624.624 0 1 1 0 1.247c-.18 0-1.597.003-1.723.008a3.604 3.604 0 0 0-3.354 3.588 3.604 3.604 0 0 0 3.602 3.597 3.604 3.604 0 0 0 3.603-3.597V4.17a.624.624 0 0 1 1.249 0v14.717a4.853 4.853 0 0 1-4.852 4.844M12.612 23.718a.611.611 0 0 1-.612-.61V14.58a.611.611 0 0 1 1.223 0v8.527c0 .337-.274.61-.611.61"/>
        <path fill="#C22942" d="M16.008 23.706a.599.599 0 0 1-.6-.599V6.461a.6.6 0 0 1 1.2 0v16.646c0 .33-.269.599-.6.599M19.318 37.691h-.002a.624.624 0 0 1-.623-.625l.043-18.244c-.015-2.666 2.15-4.85 4.824-4.865h.027a4.854 4.854 0 0 1 4.852 4.817c.014 2.502-1.929 4.633-4.422 4.851-.16.014-2.397.03-2.42.03h-.001a.624.624 0 0 1-.003-1.247c.217-.001 2.161-.017 2.326-.026 1.84-.162 3.28-1.744 3.27-3.601a3.604 3.604 0 0 0-3.602-3.577h-.02a3.604 3.604 0 0 0-3.582 3.616l-.043 18.25a.624.624 0 0 1-.624.621"/>
        <path fill="#2C3071" d="M13.74 12.008a1.127 1.127 0 1 1-2.254 0 1.127 1.127 0 0 1 2.254 0"/>
        <path fill="#C22942" d="M20.737 11.474h-4.703a.624.624 0 1 1 0-1.247h4.703a.624.624 0 1 1 0 1.247"/>
        <path fill="#2C3071" d="M22.999.394l22.857 8.203.297 1.63h.319l-.323-1.775a.156.156 0 0 0-.101-.119L23.018.068a.157.157 0 0 0-.157.03l-3.465 3.045.194.247L23 .394M42.2 40.4l-10.257 9.16L9.113 41.5l-2.51-13.79-.32-.004 2.537 13.94c.01.055.05.1.102.12l23.004 8.119a.156.156 0 0 0 .157-.031L42.67 40.4h-.47M33.862 16.246c.316 0 .595-.062.836-.188.242-.125.428-.3.558-.525a1.51 1.51 0 0 0 .196-.771c0-.29-.065-.548-.196-.772-.13-.225-.316-.4-.558-.525a1.788 1.788 0 0 0-.836-.188h-1.086v2.97h1.086zm-1.336-3.194h1.355c.356 0 .672.073.947.22.275.146.49.349.643.608a1.7 1.7 0 0 1 .23.882c0 .329-.076.622-.23.881a1.612 1.612 0 0 1-.643.608c-.275.147-.59.22-.947.22h-1.355v-3.42zM36.445 16.471h.488v-2.55h-.488v2.55zm-.04-3.226c-.078-.038-.117-.084-.117-.14 0-.055.04-.102.117-.141a.628.628 0 0 1 .284-.059c.11 0 .205.019.283.056.079.038.118.084.118.14 0 .055-.04.102-.118.141a.63.63 0 0 1-.283.059.655.655 0 0 1-.284-.056zM38.124 14.05c.166-.099.368-.148.606-.148v.24l-.059-.006c-.283 0-.505.089-.665.266-.16.178-.24.425-.24.74v1.329h-.244v-2.55h.234v.557a.882.882 0 0 1 .368-.427M39.718 14.236a.91.91 0 0 0-.345.337 1.094 1.094 0 0 0-.15.491h1.957a1.022 1.022 0 0 0-.146-.488.957.957 0 0 0-.832-.46.98.98 0 0 0-.484.12zm1.697 1.019H39.22c.006.198.057.375.152.53a.968.968 0 0 0 .383.359c.162.084.344.127.546.127.166 0 .32-.03.462-.09a.9.9 0 0 0 .355-.267l.142.162a1.09 1.09 0 0 1-.418.307c-.168.072-.35.108-.546.108-.254 0-.48-.056-.68-.166-.199-.111-.355-.264-.467-.46a1.318 1.318 0 0 1-.169-.669c0-.247.053-.47.159-.667a1.17 1.17 0 0 1 1.064-.627 1.165 1.165 0 0 1 1.06.62c.106.196.158.417.158.664l-.005.069zM42.404 16.325a1.191 1.191 0 0 1-.46-.462 1.338 1.338 0 0 1-.166-.667c0-.25.055-.474.166-.671.11-.198.264-.35.46-.46.196-.109.417-.163.665-.163.206 0 .392.04.56.12.168.079.304.196.409.349l-.181.132a.867.867 0 0 0-.34-.286 1.039 1.039 0 0 0-.448-.095c-.199 0-.378.044-.536.134a.953.953 0 0 0-.371.378c-.09.163-.135.35-.135.562 0 .212.045.4.135.562a.95.95 0 0 0 .371.378c.158.09.337.135.536.135.163 0 .313-.032.448-.096a.866.866 0 0 0 .34-.285l.18.132c-.104.153-.24.27-.407.349-.169.08-.355.12-.56.12a1.33 1.33 0 0 1-.666-.166M45.946 16.31a.618.618 0 0 1-.233.134.915.915 0 0 1-.29.047c-.223 0-.394-.062-.514-.183-.121-.123-.181-.293-.181-.51V14.13h-.47v-.21h.47v-.557h.244v.557h.813v.21h-.813v1.642c0 .166.04.292.12.378.08.086.198.13.355.13.16 0 .292-.048.396-.142l.103.171M46.582 16.471h.488v-2.55h-.488v2.55zm-.04-3.226c-.078-.038-.117-.084-.117-.14 0-.055.04-.102.118-.141a.625.625 0 0 1 .282-.059.65.65 0 0 1 .284.056c.079.038.118.084.118.14 0 .055-.04.102-.118.141a.63.63 0 0 1-.284.059.651.651 0 0 1-.282-.056zM49.182 16.134a.984.984 0 0 0 .367-.381c.09-.163.135-.348.135-.557 0-.208-.045-.394-.135-.557a.984.984 0 0 0-.893-.517.981.981 0 0 0-.893.518c-.09.162-.134.348-.134.556 0 .209.045.394.134.557a.982.982 0 0 0 .893.518c.196 0 .371-.046.526-.137zm-1.179.19a1.2 1.2 0 0 1-.458-.461 1.338 1.338 0 0 1-.166-.667c0-.247.056-.47.166-.667.112-.197.264-.35.458-.461.194-.11.412-.166.653-.166.241 0 .46.055.653.166.195.11.347.264.458.461.11.197.166.42.166.667 0 .248-.055.47-.166.667a1.196 1.196 0 0 1-.458.462c-.194.11-.412.166-.653.166-.241 0-.459-.056-.653-.166zM52.575 14.18c.186.186.28.453.28.801v1.49h-.245v-1.47c0-.287-.073-.505-.218-.655-.146-.15-.348-.224-.61-.224-.3 0-.536.09-.709.268-.173.18-.259.42-.259.723v1.358h-.245v-2.55h.235v.552a.97.97 0 0 1 .394-.42c.175-.1.38-.151.619-.151.32 0 .572.093.758.278M54.953 16.471h.488v-2.55h-.488v2.55zm-.04-3.226c-.077-.038-.117-.084-.117-.14 0-.055.04-.102.118-.141a.627.627 0 0 1 .283-.059c.11 0 .205.019.284.056.078.038.117.084.117.14 0 .055-.04.102-.117.141a.631.631 0 0 1-.284.059.653.653 0 0 1-.283-.056zM58.035 14.18c.186.186.28.453.28.801v1.49h-.245v-1.47c0-.287-.073-.505-.218-.655-.146-.15-.348-.224-.61-.224-.3 0-.536.09-.709.268-.173.18-.259.42-.259.723v1.358h-.245v-2.55h.235v.552a.97.97 0 0 1 .394-.42c.175-.1.38-.151.619-.151.32 0 .572.093.758.278M60.467 16.31a.619.619 0 0 1-.232.134.914.914 0 0 1-.292.047c-.221 0-.393-.062-.513-.183-.121-.123-.181-.293-.181-.51V14.13h-.47v-.21h.47v-.557h.244v.557h.813v.21h-.813v1.642c0 .166.04.292.12.378.08.086.199.13.355.13.16 0 .292-.048.396-.142l.103.171M61.392 14.236a.913.913 0 0 0-.345.337 1.096 1.096 0 0 0-.15.491h1.957a1.02 1.02 0 0 0-.146-.488.958.958 0 0 0-.832-.46.98.98 0 0 0-.484.12zm1.697 1.019h-2.196c.006.198.057.375.151.53a.969.969 0 0 0 .384.359c.162.084.344.127.546.127.166 0 .32-.03.462-.09a.9.9 0 0 0 .355-.267l.142.162a1.09 1.09 0 0 1-.418.307c-.169.072-.35.108-.546.108-.254 0-.481-.056-.68-.166-.2-.111-.355-.264-.467-.46a1.318 1.318 0 0 1-.17-.669c0-.247.054-.47.16-.667.106-.197.252-.35.438-.461a1.2 1.2 0 0 1 .626-.166 1.164 1.164 0 0 1 1.06.62c.105.196.158.417.158.664l-.005.069zM64.332 14.05c.167-.099.369-.148.607-.148v.24l-.06-.006c-.282 0-.505.089-.664.266-.16.178-.24.425-.24.74v1.329h-.245v-2.55h.235v.557a.882.882 0 0 1 .367-.427M69.418 14.18c.18.186.271.453.271.801v1.49h-.245v-1.47c0-.287-.07-.505-.21-.655-.14-.15-.336-.224-.587-.224-.287 0-.514.09-.683.268-.167.18-.252.42-.252.723v1.358h-.244v-1.47c0-.287-.07-.505-.21-.655-.14-.15-.337-.224-.588-.224-.287 0-.514.09-.682.268-.168.18-.252.42-.252.723v1.358h-.245v-2.55h.235v.547a.942.942 0 0 1 .38-.417c.167-.1.367-.15.599-.15.231 0 .428.053.59.157a.853.853 0 0 1 .344.46.996.996 0 0 1 .399-.45c.18-.11.392-.166.633-.166.317 0 .565.093.747.278M70.653 16.471h.488v-2.55h-.488v2.55zm-.04-3.226c-.078-.038-.117-.084-.117-.14 0-.055.04-.102.118-.141a.627.627 0 0 1 .283-.059c.11 0 .205.019.283.056.079.038.118.084.118.14 0 .055-.04.102-.118.141a.63.63 0 0 1-.283.059.653.653 0 0 1-.283-.056zM73.735 14.18c.186.186.279.453.279.801v1.49h-.245v-1.47c0-.287-.072-.505-.217-.655-.146-.15-.349-.224-.61-.224-.3 0-.536.09-.709.268-.173.18-.26.42-.26.723v1.358h-.244v-2.55h.235v.552a.97.97 0 0 1 .394-.42c.174-.1.38-.151.619-.151.32 0 .572.093.758.278M74.978 16.471h.488v-2.55h-.488v2.55zm-.039-3.226c-.078-.038-.118-.084-.118-.14 0-.055.04-.102.118-.141a.626.626 0 0 1 .283-.059c.11 0 .205.019.284.056.078.038.117.084.117.14 0 .055-.04.102-.117.141a.631.631 0 0 1-.284.059.652.652 0 0 1-.283-.056zM76.113 16.398a1.214 1.214 0 0 1-.436-.235l.113-.195a1.3 1.3 0 0 0 .403.22c.165.058.337.088.517.088.257 0 .448-.043.57-.127a.403.403 0 0 0 .183-.352.33.33 0 0 0-.1-.254.624.624 0 0 0-.247-.137 4.104 4.104 0 0 0-.406-.092 3.387 3.387 0 0 1-.49-.118.766.766 0 0 1-.317-.205.551.551 0 0 1-.133-.391c0-.202.084-.369.252-.5.168-.132.407-.198.717-.198.163 0 .325.023.484.068.16.046.29.106.392.18l-.113.196a1.174 1.174 0 0 0-.357-.17 1.453 1.453 0 0 0-.411-.06c-.238 0-.417.045-.538.133a.41.41 0 0 0-.181.346c0 .114.034.203.103.266.068.064.152.111.252.142.1.031.239.065.418.1.199.036.36.074.482.115.122.04.226.107.31.198a.531.531 0 0 1 .128.376c0 .212-.088.381-.264.508-.177.127-.425.19-.744.19-.206 0-.401-.03-.587-.092M79.538 16.31a.62.62 0 0 1-.232.134.916.916 0 0 1-.292.047c-.221 0-.393-.062-.513-.183-.121-.123-.181-.293-.181-.51V14.13h-.47v-.21h.47v-.557h.245v.557h.812v.21h-.812v1.642c0 .166.04.292.119.378.08.086.198.13.355.13.16 0 .292-.048.396-.142l.103.171M81.348 12.93h.352l-.768.576h-.265l.68-.576zm-.886 1.306a.913.913 0 0 0-.345.337 1.096 1.096 0 0 0-.149.491h1.957a1.022 1.022 0 0 0-.147-.488.957.957 0 0 0-.832-.46.98.98 0 0 0-.484.12zm1.698 1.019h-2.197c.007.198.057.375.152.53a.967.967 0 0 0 .384.359c.161.084.343.127.545.127.167 0 .321-.03.463-.09a.9.9 0 0 0 .355-.267l.141.162a1.09 1.09 0 0 1-.418.307c-.168.072-.35.108-.545.108-.255 0-.481-.056-.68-.166-.2-.111-.355-.264-.468-.46a1.318 1.318 0 0 1-.169-.669c0-.247.053-.47.16-.667a1.17 1.17 0 0 1 1.063-.627 1.166 1.166 0 0 1 1.06.62c.106.196.159.417.159.664l-.005.069zM83.403 14.05c.166-.099.368-.148.606-.148v.24l-.058-.006c-.284 0-.506.089-.666.266-.16.178-.24.425-.24.74v1.329h-.244v-2.55h.235v.557a.884.884 0 0 1 .367-.427M84.64 16.471h.489v-2.55h-.489v2.55zm-.039-3.226c-.078-.038-.117-.084-.117-.14 0-.055.039-.102.117-.141a.627.627 0 0 1 .283-.059.65.65 0 0 1 .284.056c.078.038.117.084.117.14 0 .055-.039.102-.117.141a.63.63 0 0 1-.284.059.653.653 0 0 1-.283-.056zM86.177 14.236a.913.913 0 0 0-.345.337 1.098 1.098 0 0 0-.15.491h1.958a1.022 1.022 0 0 0-.147-.488.957.957 0 0 0-.832-.46c-.179 0-.34.04-.484.12zm1.697 1.019h-2.196c.006.198.057.375.152.53a.97.97 0 0 0 .384.359c.16.084.343.127.545.127.166 0 .32-.03.462-.09a.9.9 0 0 0 .355-.267l.142.162c-.111.133-.25.236-.418.307-.168.072-.35.108-.546.108-.254 0-.48-.056-.68-.166-.199-.111-.354-.264-.467-.46a1.318 1.318 0 0 1-.169-.669c0-.247.053-.47.16-.667.105-.197.251-.35.437-.461a1.2 1.2 0 0 1 .626-.166 1.164 1.164 0 0 1 1.06.62c.106.196.158.417.158.664l-.005.069zM88.515 16.471h.245v-3.625h-.245zM89.67 16.471h.244v-3.625h-.244zM91.284 14.236a.912.912 0 0 0-.344.337 1.096 1.096 0 0 0-.15.491h1.957a1.025 1.025 0 0 0-.146-.488.958.958 0 0 0-.832-.46.98.98 0 0 0-.485.12zm1.698 1.019h-2.197c.007.198.057.375.152.53a.969.969 0 0 0 .384.359c.162.084.344.127.546.127.166 0 .32-.03.462-.09a.902.902 0 0 0 .355-.267l.142.162a1.09 1.09 0 0 1-.419.307c-.168.072-.35.108-.545.108-.255 0-.481-.056-.68-.166-.2-.111-.355-.264-.468-.46a1.318 1.318 0 0 1-.168-.669c0-.247.053-.47.158-.667a1.17 1.17 0 0 1 1.065-.627 1.165 1.165 0 0 1 1.06.62c.105.196.158.417.158.664l-.005.069zM96.282 16.134a.986.986 0 0 0 .367-.381c.09-.163.134-.348.134-.557a1.14 1.14 0 0 0-.134-.557.986.986 0 0 0-.893-.517.98.98 0 0 0-.893.518c-.09.162-.134.348-.134.556 0 .209.044.394.134.557a.981.981 0 0 0 .893.518c.196 0 .371-.046.526-.137zm.746-3.288v3.625h-.24v-.601a1.097 1.097 0 0 1-.425.46c-.183.107-.39.16-.622.16-.238 0-.453-.055-.645-.165a1.19 1.19 0 0 1-.453-.46 1.35 1.35 0 0 1-.164-.669c0-.25.055-.474.164-.671.11-.198.26-.35.453-.46.192-.109.407-.163.645-.163.229 0 .433.054.614.16.181.108.324.258.428.45v-1.666h.245zM98.398 14.236a.91.91 0 0 0-.345.337 1.094 1.094 0 0 0-.15.491h1.957a1.022 1.022 0 0 0-.146-.488.957.957 0 0 0-.832-.46.98.98 0 0 0-.484.12zm1.697 1.019H97.9c.006.198.057.375.152.53a.968.968 0 0 0 .383.359c.162.084.344.127.546.127.166 0 .32-.03.462-.09a.9.9 0 0 0 .355-.267l.142.162a1.09 1.09 0 0 1-.418.307c-.168.072-.35.108-.546.108-.254 0-.48-.056-.68-.166-.199-.111-.355-.264-.467-.46a1.318 1.318 0 0 1-.169-.669c0-.247.053-.47.159-.667a1.17 1.17 0 0 1 1.064-.627 1.165 1.165 0 0 1 1.06.62c.106.196.158.417.158.664l-.005.069zM101.871 16.471h.245v-3.625h-.245zM104.291 16.144a.892.892 0 0 0 .335-.425v-.479h-.87c-.252 0-.434.046-.546.137a.46.46 0 0 0-.169.376.47.47 0 0 0 .186.393c.124.096.298.144.523.144a.962.962 0 0 0 .541-.146zm.325-2c.17.16.255.398.255.71v1.617h-.235v-.454a.851.851 0 0 1-.357.349 1.186 1.186 0 0 1-.563.125c-.284 0-.508-.067-.673-.2a.645.645 0 0 1-.247-.528c0-.212.076-.384.228-.516.151-.132.393-.197.726-.197h.876v-.206c0-.237-.064-.418-.193-.541-.129-.125-.317-.187-.565-.187-.17 0-.332.03-.487.089a1.223 1.223 0 0 0-.394.234l-.122-.176c.127-.114.28-.203.46-.266a1.67 1.67 0 0 1 .562-.095c.316 0 .56.08.73.241zM34.758 23.431c-.104.077-.231.134-.382.173-.15.037-.31.057-.475.057-.433 0-.766-.11-1.003-.33-.236-.22-.355-.544-.355-.97v-1.49h-.56v-.81h.56v-.882h1.054v.883h.904v.809h-.904v1.476c0 .152.039.27.118.354.078.083.19.124.334.124a.678.678 0 0 0 .425-.135l.284.741M36.699 20.062c.213-.09.46-.135.739-.135v.97a3.845 3.845 0 0 0-.236-.013c-.302 0-.538.084-.71.253-.17.168-.256.421-.256.758v1.712h-1.053V19.98h1.006v.478c.126-.175.296-.307.51-.397M39.74 22.828a.682.682 0 0 0 .296-.367v-.37h-.722c-.432 0-.648.141-.648.424 0 .135.053.242.159.32.105.079.25.118.435.118.18 0 .34-.041.48-.125zm.897-2.5c.301.267.452.67.452 1.21v2.069h-.985v-.452c-.198.337-.567.506-1.108.506-.278 0-.52-.047-.725-.142a1.082 1.082 0 0 1-.47-.39 1.017 1.017 0 0 1-.161-.567c0-.337.127-.602.381-.795.254-.193.647-.29 1.178-.29h.837c0-.23-.07-.405-.21-.529-.139-.123-.348-.185-.627-.185-.193 0-.384.03-.57.09-.187.061-.346.143-.476.247l-.378-.735c.198-.139.435-.247.712-.323a3.18 3.18 0 0 1 .854-.115c.562 0 .995.134 1.296.401zM45.17 20.331c.277.27.415.67.415 1.2v2.076h-1.053v-1.914c0-.288-.063-.502-.189-.644-.126-.141-.308-.212-.547-.212-.265 0-.477.082-.635.246-.157.164-.235.408-.235.731v1.793h-1.054V19.98h1.006v.425a1.4 1.4 0 0 1 .52-.354c.207-.083.434-.125.682-.125.45 0 .813.135 1.09.404M46.706 23.55a2.294 2.294 0 0 1-.689-.28l.351-.755c.162.104.358.188.587.253.23.065.455.098.675.098.446 0 .669-.11.669-.33 0-.104-.061-.178-.183-.223a2.696 2.696 0 0 0-.56-.115 5.422 5.422 0 0 1-.735-.155 1.143 1.143 0 0 1-.504-.31c-.141-.148-.212-.36-.212-.633 0-.23.066-.433.199-.61.133-.178.326-.316.58-.415.255-.098.555-.148.901-.148.257 0 .512.028.767.084.254.057.464.134.63.233l-.35.748c-.32-.18-.668-.27-1.047-.27-.225 0-.393.032-.505.095-.113.063-.17.143-.17.242 0 .113.061.191.183.236.121.045.315.088.58.128.297.05.54.103.73.159.188.056.353.158.492.306.14.148.21.355.21.62a.958.958 0 0 1-.203.6 1.294 1.294 0 0 1-.59.408 2.634 2.634 0 0 1-.922.145c-.302 0-.596-.037-.884-.112M50.938 20.062h.932v.809h-.905v2.736h-1.053V20.87h-.56v-.81h.56V19.9c0-.413.122-.741.368-.984.245-.242.59-.364 1.036-.364.157 0 .307.017.449.05.142.034.26.083.354.146l-.276.761a.721.721 0 0 0-.426-.128c-.32 0-.479.175-.479.526v.155M54.573 22.525c.173-.182.26-.426.26-.731 0-.306-.087-.55-.26-.731a.878.878 0 0 0-.665-.273.89.89 0 0 0-.668.273c-.175.182-.263.425-.263.73 0 .306.088.55.263.732a.89.89 0 0 0 .668.273c.27 0 .492-.09.665-.273zm-1.694.896a1.78 1.78 0 0 1-.713-.663 1.825 1.825 0 0 1-.256-.964c0-.36.085-.68.256-.964.171-.283.409-.504.713-.664.303-.16.647-.239 1.03-.239.381 0 .724.08 1.025.24.302.16.538.38.709.663.171.283.256.605.256.964 0 .36-.085.68-.256.964a1.785 1.785 0 0 1-.709.663c-.301.16-.644.24-1.026.24s-.726-.08-1.03-.24zM57.948 20.062c.214-.09.46-.135.74-.135v.97a3.855 3.855 0 0 0-.237-.013c-.301 0-.538.084-.709.253-.17.168-.256.421-.256.758v1.712h-1.053V19.98h1.005v.478c.127-.175.297-.307.51-.397M64.881 20.328c.268.267.402.668.402 1.203v2.076h-1.054v-1.914c0-.288-.06-.502-.179-.644-.119-.141-.289-.212-.51-.212-.247 0-.442.08-.586.24-.145.159-.216.396-.216.71v1.82h-1.053v-1.914c0-.57-.23-.856-.69-.856a.743.743 0 0 0-.58.24c-.144.159-.216.396-.216.71v1.82h-1.053V19.98h1.006v.418c.135-.153.3-.27.497-.35.195-.081.41-.122.644-.122.257 0 .488.05.695.151.207.102.374.25.5.442.148-.189.336-.335.564-.438.227-.103.475-.155.745-.155.455 0 .816.134 1.084.401M67.922 22.828a.683.683 0 0 0 .297-.367v-.37h-.722c-.432 0-.648.141-.648.424 0 .135.053.242.158.32.106.079.251.118.436.118.18 0 .34-.041.479-.125zm.898-2.5c.301.267.452.67.452 1.21v2.069h-.986v-.452c-.197.337-.566.506-1.107.506-.278 0-.52-.047-.725-.142a1.082 1.082 0 0 1-.47-.39 1.015 1.015 0 0 1-.161-.567c0-.337.127-.602.381-.795.254-.193.647-.29 1.178-.29h.837c0-.23-.07-.405-.21-.529-.139-.123-.348-.185-.627-.185-.194 0-.384.03-.57.09-.187.061-.346.143-.476.247l-.378-.735c.198-.139.435-.247.712-.323.277-.077.561-.115.854-.115.562 0 .994.134 1.296.401zM72.397 23.431c-.103.077-.23.134-.381.173-.15.037-.31.057-.476.057-.432 0-.766-.11-1.003-.33-.236-.22-.354-.544-.354-.97v-1.49h-.56v-.81h.56v-.882h1.053v.883h.905v.809h-.905v1.476c0 .152.04.27.118.354.079.083.19.124.334.124a.679.679 0 0 0 .426-.135l.283.741M72.858 23.607h1.34V19.98h-1.34v3.626zm.068-4.3c-.154-.112-.231-.251-.231-.418 0-.166.077-.305.231-.418.155-.112.356-.168.602-.168s.446.054.601.162c.155.107.232.242.232.404 0 .175-.077.32-.232.435-.155.114-.355.172-.6.172-.247 0-.448-.057-.603-.169zM77.079 22.525c.173-.182.26-.426.26-.731 0-.306-.087-.55-.26-.731a.878.878 0 0 0-.665-.273.89.89 0 0 0-.668.273c-.176.182-.264.425-.264.73 0 .306.088.55.264.732a.89.89 0 0 0 .668.273c.27 0 .492-.09.665-.273zm-1.695.896a1.78 1.78 0 0 1-.968-1.627c0-.36.085-.68.256-.964.171-.283.408-.504.712-.664.304-.16.647-.239 1.03-.239.382 0 .724.08 1.026.24.302.16.538.38.709.663.17.283.256.605.256.964 0 .36-.085.68-.256.964a1.785 1.785 0 0 1-.71.663c-.3.16-.643.24-1.025.24-.383 0-.726-.08-1.03-.24zM82.236 20.331c.277.27.415.67.415 1.2v2.076h-1.053v-1.914c0-.288-.063-.502-.189-.644-.126-.141-.308-.212-.547-.212-.265 0-.477.082-.634.246-.157.164-.236.408-.236.731v1.793h-1.054V19.98h1.006v.425c.14-.153.313-.271.52-.354a1.82 1.82 0 0 1 .682-.125c.45 0 .813.135 1.09.404M87.805 22.525c.173-.182.26-.426.26-.731 0-.306-.087-.55-.26-.731a.879.879 0 0 0-.665-.273.877.877 0 0 0-.665.273c-.173.182-.26.425-.26.73 0 .306.087.55.26.732a.877.877 0 0 0 .665.273c.27 0 .492-.09.665-.273zm.439-2.365c.276.155.493.373.651.653.158.281.237.608.237.98 0 .374-.08.7-.237.982-.158.28-.375.498-.651.653a1.853 1.853 0 0 1-.922.233c-.463 0-.828-.146-1.093-.438v1.691h-1.053v-4.933h1.005v.418c.261-.315.642-.472 1.141-.472.338 0 .645.078.922.233zM93.324 19.981v3.626h-1v-.431a1.39 1.39 0 0 1-.499.36 1.57 1.57 0 0 1-.628.125c-.477 0-.855-.137-1.134-.411-.279-.274-.418-.681-.418-1.22V19.98h1.053v1.894c0 .584.245.876.735.876a.792.792 0 0 0 .608-.246c.153-.164.23-.408.23-.731V19.98h1.053M96.763 22.525c.173-.182.26-.426.26-.731 0-.306-.087-.55-.26-.731a.879.879 0 0 0-.665-.273.878.878 0 0 0-.665.273c-.173.182-.26.425-.26.73 0 .306.087.55.26.732a.878.878 0 0 0 .665.273c.27 0 .492-.09.665-.273zm.439-2.365c.276.155.493.373.651.653.158.281.236.608.236.98 0 .374-.078.7-.236.982-.158.28-.375.498-.651.653a1.853 1.853 0 0 1-.922.233c-.5 0-.88-.157-1.14-.472v.418h-1.006v-5h1.053v1.758c.265-.292.63-.438 1.093-.438.338 0 .645.078.922.233zM98.622 23.607h1.054v-5h-1.054zM100.52 23.607h1.34V19.98h-1.34v3.626zm.069-4.3c-.155-.112-.232-.251-.232-.418 0-.166.077-.305.232-.418.155-.112.355-.168.602-.168.246 0 .446.054.601.162.154.107.232.242.232.404 0 .175-.078.32-.232.435-.155.114-.355.172-.601.172-.247 0-.447-.057-.602-.169zM104.738 22.525c.176-.182.264-.426.264-.731 0-.306-.088-.55-.264-.731a.88.88 0 0 0-.661-.273.89.89 0 0 0-.669.273c-.175.182-.263.425-.263.73 0 .306.088.55.263.732a.89.89 0 0 0 .669.273.88.88 0 0 0 .661-.273zm1.296-2.544v4.933h-1.053v-1.691c-.26.292-.624.438-1.087.438-.342 0-.651-.077-.928-.23a1.638 1.638 0 0 1-.651-.653 1.99 1.99 0 0 1-.236-.984c0-.373.078-.701.236-.984a1.64 1.64 0 0 1 .651-.654c.277-.152.586-.229.928-.229.495 0 .873.157 1.135.472v-.418h1.005zM110.497 19.981v3.626h-1v-.431c-.14.157-.306.277-.5.36a1.572 1.572 0 0 1-.627.125c-.477 0-.855-.137-1.134-.411-.28-.274-.419-.681-.419-1.22V19.98h1.053v1.894c0 .584.246.876.736.876a.792.792 0 0 0 .608-.246c.153-.164.23-.408.23-.731V19.98h1.053M112.38 20.925a.862.862 0 0 0-.298.552h1.79a.87.87 0 0 0-.298-.55.888.888 0 0 0-.594-.205.906.906 0 0 0-.6.203zm2.463 1.166h-2.747c.05.224.166.402.35.532.186.13.415.195.69.195.189 0 .356-.028.502-.084.146-.056.283-.145.408-.266l.56.606c-.341.391-.84.587-1.497.587-.41 0-.772-.08-1.088-.24a1.758 1.758 0 0 1-.729-.663 1.826 1.826 0 0 1-.256-.964c0-.355.085-.675.253-.96.169-.286.4-.508.695-.668.295-.16.625-.239.99-.239.355 0 .677.077.965.23.288.152.514.371.678.656.164.286.247.617.247.994l-.02.284z"/>
        <path fill="#2C3071" d="M32.16 37.676h72.85v-9.954H32.16z"/>
        <path fill="#FFFFFE" d="M36.844 34.432a.545.545 0 0 1-.115-.19.739.739 0 0 1-.045-.268c0-.102.023-.239.07-.41.047-.171.106-.366.179-.585l.24-.71c.34-.99.538-1.755.592-2.295.017-.16.095-.24.234-.24.088 0 .16.021.217.063.11.084.164.177.16.28a2.164 2.164 0 0 1-.054.375 6.98 6.98 0 0 1-.126.483c-.051.173-.11.358-.177.552l-.394 1.158c-.227.659-.34 1.084-.34 1.276 0 .103.041.154.125.154.08 0 .153-.017.218-.051a.404.404 0 0 1 .128-.052c.04 0 .06.02.06.06 0 .17-.087.311-.26.425a.587.587 0 0 1-.552.083.446.446 0 0 1-.16-.108M39.883 30.923a.497.497 0 0 1-.312.16.303.303 0 0 1-.167-.027.392.392 0 0 1-.136-.106.441.441 0 0 1-.123-.288.4.4 0 0 1 .048-.218.382.382 0 0 1 .118-.119.48.48 0 0 1 .259-.088c.08 0 .144.005.189.017.044.011.086.03.124.057.093.063.14.14.14.23s-.013.165-.039.225a.528.528 0 0 1-.101.157zm-.586 3.09c.049 0 .074.031.074.096 0 .086-.04.175-.117.266a.576.576 0 0 1-.46.2c-.221 0-.373-.09-.455-.269a.515.515 0 0 1-.046-.228c0-.09.016-.189.048-.299.03-.109.07-.224.117-.344.046-.121.098-.244.153-.367l.151-.36c.11-.268.166-.445.166-.53 0-.086-.01-.143-.027-.17a.249.249 0 0 0-.059-.065l-.057-.04c-.02-.013-.029-.037-.029-.07 0-.033.014-.065.039-.095a.35.35 0 0 1 .101-.08.652.652 0 0 1 .3-.066c.28 0 .42.073.42.22 0 .171-.044.367-.134.586-.089.22-.165.398-.228.533l-.172.394c-.125.289-.188.497-.188.624 0 .084.042.126.125.126a.43.43 0 0 0 .186-.031.246.246 0 0 1 .092-.032zM40.84 34.204c.18 0 .361-.08.546-.24.282-.243.472-.592.57-1.045.031-.148.048-.303.048-.464 0-.16-.018-.273-.054-.338a.179.179 0 0 0-.168-.097.401.401 0 0 0-.236.092c-.082.06-.167.141-.257.24a3.753 3.753 0 0 0-.503.75c-.154.306-.232.567-.232.78 0 .215.096.322.286.322zm-.8-.469c0-.11.008-.216.024-.316.016-.101.038-.203.063-.306a5.86 5.86 0 0 1 .087-.308l.32-.976c.254-.791.413-1.41.478-1.855.02-.16.099-.24.234-.24.08 0 .148.021.203.063.101.082.15.169.147.26a1.7 1.7 0 0 1-.04.31 5.475 5.475 0 0 1-.091.369c-.037.133-.08.273-.127.42-.128.376-.223.648-.286.816l-.163.425c.166-.257.3-.433.406-.528.21-.185.428-.277.655-.277.333 0 .555.174.665.522.037.12.055.27.055.449 0 .178-.026.356-.079.532a2.184 2.184 0 0 1-.902 1.211c-.278.18-.548.269-.809.269-.263 0-.47-.08-.62-.24a.853.853 0 0 1-.22-.6zM44.57 31.298a.608.608 0 0 1-.19.046c-.054.002-.09-.009-.107-.032-.04-.049-.037-.094.006-.134l.132-.125c.282-.268.477-.602.586-1.002.019-.076.09-.108.214-.094a.36.36 0 0 1 .246.154c.14.194.077.428-.186.702-.211.22-.445.382-.7.485zm.221.674c-.2 0-.393.137-.578.41a3.098 3.098 0 0 0-.377.84c.318-.032.595-.158.829-.377.215-.205.323-.402.323-.59 0-.19-.065-.283-.197-.283zm-1.67 1.575a1.86 1.86 0 0 1 .083-.475c.048-.151.112-.298.192-.44a2.55 2.55 0 0 1 .282-.402c.107-.127.224-.237.35-.333.272-.203.548-.305.826-.305.326 0 .543.134.652.403.038.091.056.199.054.323a.9.9 0 0 1-.072.346.997.997 0 0 1-.19.288c-.08.087-.177.164-.288.233a1.994 1.994 0 0 1-.365.174c-.27.095-.56.144-.869.148a.736.736 0 0 0 .003.298.527.527 0 0 0 .069.176.328.328 0 0 0 .297.171c.22 0 .436-.065.646-.194a.917.917 0 0 0 .181-.135c.047-.047.088-.07.122-.07s.064.02.09.06a.253.253 0 0 1 .038.14c0 .1-.028.188-.085.262-.24.24-.598.36-1.072.36-.28 0-.505-.084-.675-.251-.19-.191-.28-.45-.269-.777zM45.866 34.478a.38.38 0 0 1-.092-.096.21.21 0 0 1-.037-.091.24.24 0 0 1 .016-.095c.012-.036.029-.082.05-.135.389-.955.583-1.596.583-1.924-.006-.091-.037-.156-.094-.194l-.057-.04c-.018-.013-.027-.037-.028-.07 0-.033.011-.065.036-.095a.34.34 0 0 1 .097-.08.53.53 0 0 1 .254-.066c.086 0 .154.01.202.029.049.019.09.044.125.077.072.068.109.14.11.217a.947.947 0 0 1-.026.23 2.59 2.59 0 0 1-.064.23c-.025.076-.05.147-.075.215a1.48 1.48 0 0 0-.048.15.413.413 0 0 0-.018.125.242.242 0 0 0 .083-.117l.112-.211c.248-.445.49-.74.726-.885a.484.484 0 0 1 .247-.06c.096 0 .174.034.233.102.06.067.09.142.093.224a.578.578 0 0 1-.081.357c-.063.106-.14.16-.229.16a.106.106 0 0 1-.069-.027l-.063-.054c-.062-.055-.123-.083-.181-.083-.058 0-.128.038-.212.115-.082.076-.169.174-.258.293a5.459 5.459 0 0 0-.738 1.336l-.126.331a.881.881 0 0 1-.085.176.126.126 0 0 1-.11.053.422.422 0 0 1-.146-.027.535.535 0 0 1-.13-.07M49.94 31.972c-.2 0-.393.137-.578.41a3.082 3.082 0 0 0-.377.84 1.39 1.39 0 0 0 .829-.377c.215-.205.322-.402.322-.59 0-.19-.065-.283-.197-.283zm-1.67 1.575a1.86 1.86 0 0 1 .083-.475c.047-.151.111-.298.191-.44.08-.141.174-.275.282-.402a2.19 2.19 0 0 1 .35-.333c.272-.203.548-.305.826-.305.326 0 .543.134.652.403.038.091.056.199.054.323a.894.894 0 0 1-.071.346 1 1 0 0 1-.19.288c-.081.087-.178.164-.289.233a2.001 2.001 0 0 1-.365.174c-.27.095-.56.144-.869.148a.771.771 0 0 0 .003.298.527.527 0 0 0 .069.176.327.327 0 0 0 .297.171c.221 0 .437-.065.646-.194a.912.912 0 0 0 .182-.135c.046-.047.087-.07.121-.07.035 0 .065.02.09.06a.252.252 0 0 1 .039.14c0 .1-.029.188-.086.262-.24.24-.597.36-1.072.36-.28 0-.505-.084-.675-.251-.19-.191-.28-.45-.268-.777zM51.014 34.478a.382.382 0 0 1-.091-.096.21.21 0 0 1-.038-.091.242.242 0 0 1 .016-.095l.05-.135c.389-.955.583-1.596.583-1.924-.005-.091-.037-.156-.094-.194l-.057-.04c-.017-.013-.026-.037-.028-.07 0-.033.012-.065.036-.095a.345.345 0 0 1 .098-.08.531.531 0 0 1 .253-.066c.086 0 .154.01.202.029.05.019.09.044.125.077.072.068.109.14.11.217a.963.963 0 0 1-.025.23c-.019.079-.04.155-.065.23-.025.076-.05.147-.074.215-.025.067-.041.117-.049.15a.408.408 0 0 0-.017.125.243.243 0 0 0 .083-.117l.111-.211c.248-.445.49-.74.726-.885a.484.484 0 0 1 .248-.06c.096 0 .173.034.233.102.059.067.09.142.092.224a.572.572 0 0 1-.081.357c-.063.106-.14.16-.229.16a.106.106 0 0 1-.068-.027L53 32.354c-.063-.055-.123-.083-.182-.083-.058 0-.128.038-.211.115-.083.076-.17.174-.259.293a5.464 5.464 0 0 0-.737 1.336l-.126.331a.88.88 0 0 1-.086.176.126.126 0 0 1-.11.053.422.422 0 0 1-.146-.027.535.535 0 0 1-.13-.07M55.328 34.432a.548.548 0 0 1-.116-.19.739.739 0 0 1-.044-.268c0-.102.023-.239.07-.41.046-.171.106-.366.178-.585l.24-.71c.341-.99.539-1.755.592-2.295.017-.16.095-.24.235-.24.087 0 .16.021.217.063.11.084.164.177.16.28a2.163 2.163 0 0 1-.055.375 6.98 6.98 0 0 1-.125.483c-.052.173-.11.358-.177.552l-.395 1.158c-.227.659-.34 1.084-.34 1.276 0 .103.042.154.126.154.08 0 .153-.017.218-.051a.404.404 0 0 1 .128-.052c.04 0 .06.02.06.06 0 .17-.087.311-.26.425a.588.588 0 0 1-.552.083.446.446 0 0 1-.16-.108M57.98 31.085a.886.886 0 0 1-.194.114.504.504 0 0 1-.2.042c-.069 0-.107-.022-.114-.066-.004-.024.012-.057.048-.1l.123-.125c.16-.163.24-.308.24-.434a.537.537 0 0 0-.071-.287 2.214 2.214 0 0 1-.096-.164c-.016-.032-.013-.076.01-.13a.31.31 0 0 1 .136-.14.511.511 0 0 1 .261-.06c.107 0 .192.046.255.14a.552.552 0 0 1 .094.313.895.895 0 0 1-.15.52 1.382 1.382 0 0 1-.343.378M59.87 31.298a.606.606 0 0 1-.191.046c-.054.002-.09-.009-.106-.032-.04-.049-.038-.094.005-.134l.132-.125c.282-.268.477-.602.586-1.002.02-.076.09-.108.214-.094a.36.36 0 0 1 .246.154c.14.194.077.428-.186.702a2.01 2.01 0 0 1-.7.485zm.22.674c-.2 0-.392.137-.577.41a3.088 3.088 0 0 0-.378.84 1.39 1.39 0 0 0 .83-.377c.215-.205.322-.402.322-.59 0-.19-.065-.283-.197-.283zm-1.67 1.575a1.86 1.86 0 0 1 .084-.475c.047-.151.111-.298.191-.44a2.56 2.56 0 0 1 .282-.402c.107-.127.224-.237.35-.333.272-.203.548-.305.826-.305.326 0 .543.134.652.403.038.091.056.199.054.323a.9.9 0 0 1-.071.346c-.046.105-.11.201-.19.288-.082.087-.178.164-.289.233a2.001 2.001 0 0 1-.365.174c-.27.095-.56.144-.869.148a.762.762 0 0 0 .003.298.527.527 0 0 0 .069.176.327.327 0 0 0 .297.171c.22 0 .437-.065.646-.194a.912.912 0 0 0 .181-.135c.047-.047.088-.07.122-.07s.065.02.09.06a.252.252 0 0 1 .039.14c0 .1-.029.188-.086.262-.24.24-.597.36-1.072.36-.28 0-.505-.084-.675-.251-.19-.191-.28-.45-.268-.777zM63.215 32.131c-.06 0-.143.057-.252.17a7.66 7.66 0 0 0-.283.31l-.243.291-.469.597c-.11.209-.197.383-.26.522l-.154.33a.818.818 0 0 1-.105.174.153.153 0 0 1-.12.05.443.443 0 0 1-.267-.097c-.072-.061-.109-.128-.109-.2 0-.029.021-.085.063-.169l.109-.23c.034-.07.074-.157.12-.264l.16-.39c.225-.562.337-.924.337-1.088 0-.087-.028-.152-.085-.194l-.058-.04c-.019-.013-.028-.037-.028-.07 0-.033.013-.065.038-.095a.352.352 0 0 1 .102-.08.565.565 0 0 1 .258-.066.56.56 0 0 1 .202.029c.048.019.088.044.12.077.07.066.106.136.106.208a.9.9 0 0 1-.027.218 2.072 2.072 0 0 1-.069.223 4.476 4.476 0 0 1-.17.41l-.057.122c-.015.03-.02.04-.011.029.211-.293.35-.482.417-.565l.2-.24c.147-.171.262-.284.346-.34.17-.114.303-.17.4-.17.097 0 .18.011.246.036.066.025.125.06.174.106.105.097.158.22.158.37 0 .151-.035.308-.103.472a7.536 7.536 0 0 1-.179.398c-.05.102-.099.205-.144.31-.143.317-.215.548-.215.693 0 .065.052.097.155.097.08 0 .153-.017.218-.051a.404.404 0 0 1 .127-.052c.04 0 .06.02.06.06 0 .17-.086.311-.26.425a.589.589 0 0 1-.32.118.792.792 0 0 1-.242-.032.455.455 0 0 1-.17-.1.539.539 0 0 1-.168-.422c0-.22.07-.497.209-.828.1-.226.172-.381.214-.465l.097-.203a.718.718 0 0 0 .089-.288c0-.07-.053-.106-.157-.106M66.136 31.972c-.2 0-.392.137-.577.41a3.098 3.098 0 0 0-.378.84c.318-.032.595-.158.83-.377.214-.205.322-.402.322-.59 0-.19-.065-.283-.197-.283zm-1.67 1.575a1.86 1.86 0 0 1 .084-.475c.047-.151.111-.298.191-.44a2.55 2.55 0 0 1 .282-.402c.107-.127.224-.237.35-.333.272-.203.548-.305.826-.305.326 0 .543.134.652.403.038.091.056.199.054.323a.9.9 0 0 1-.071.346.997.997 0 0 1-.19.288c-.082.087-.178.164-.29.233a2 2 0 0 1-.364.174c-.27.095-.56.144-.869.148a.743.743 0 0 0 .003.298.53.53 0 0 0 .069.176.328.328 0 0 0 .297.171c.22 0 .437-.065.646-.194a.913.913 0 0 0 .181-.135c.047-.047.088-.07.122-.07s.065.02.09.06a.253.253 0 0 1 .039.14c0 .1-.029.188-.086.262-.24.24-.598.36-1.072.36-.28 0-.505-.084-.675-.251-.19-.191-.28-.45-.268-.777zM67.21 34.478a.387.387 0 0 1-.09-.096.21.21 0 0 1-.038-.091.24.24 0 0 1 .016-.095c.012-.036.03-.082.05-.135.389-.955.583-1.596.583-1.924-.006-.091-.037-.156-.094-.194l-.057-.04c-.017-.013-.026-.037-.028-.07 0-.033.011-.065.036-.095a.34.34 0 0 1 .097-.08.53.53 0 0 1 .254-.066c.086 0 .154.01.202.029.05.019.09.044.125.077.072.068.109.14.11.217a.947.947 0 0 1-.026.23 2.59 2.59 0 0 1-.064.23c-.025.076-.05.147-.075.215a1.48 1.48 0 0 0-.048.15.413.413 0 0 0-.017.125.242.242 0 0 0 .083-.117l.111-.211c.248-.445.49-.74.726-.885a.484.484 0 0 1 .247-.06c.097 0 .174.034.233.102.06.067.09.142.093.224a.573.573 0 0 1-.081.357c-.063.106-.14.16-.229.16a.106.106 0 0 1-.068-.027l-.063-.054c-.063-.055-.124-.083-.182-.083-.058 0-.128.038-.212.115-.082.076-.169.174-.258.293a5.47 5.47 0 0 0-.738 1.336l-.125.331a.881.881 0 0 1-.086.176.126.126 0 0 1-.11.053.422.422 0 0 1-.146-.027.54.54 0 0 1-.13-.07M70.406 32.934c-.051.137-.09.277-.12.42-.028.144-.042.261-.042.353 0 .091.003.16.009.208.005.048.017.09.034.126.038.08.094.12.168.12a.371.371 0 0 0 .22-.079 1.41 1.41 0 0 0 .23-.215c.08-.091.16-.2.24-.323.08-.123.156-.257.228-.4.16-.315.272-.617.337-.904a.315.315 0 0 0-.097-.163c-.109-.104-.207-.157-.294-.157a.493.493 0 0 0-.263.082 1.073 1.073 0 0 0-.25.22c-.08.092-.153.199-.222.322a2.685 2.685 0 0 0-.178.39zm.856.99c-.29.434-.611.65-.964.65-.318 0-.532-.169-.643-.508a1.387 1.387 0 0 1-.057-.428c0-.169.024-.339.072-.51a2.345 2.345 0 0 1 .86-1.236c.27-.2.54-.3.806-.3.267 0 .457.125.572.374a.9.9 0 0 0 .062-.076c.02-.025.04-.05.063-.072.05-.05.093-.075.13-.075.038 0 .077.007.118.02.04.014.08.032.118.055.094.055.129.106.106.154a5.91 5.91 0 0 0-.263.668l-.423 1.347c-.334 1.021-.757 1.682-1.27 1.98a.958.958 0 0 1-.35.139.629.629 0 0 1-.215.001.434.434 0 0 1-.117-.048c-.075-.048-.112-.09-.112-.129 0-.066.045-.107.133-.122a.85.85 0 0 0 .279-.107c.097-.057.19-.125.277-.205.36-.333.632-.857.818-1.572zM74.214 30.923a.496.496 0 0 1-.312.16.302.302 0 0 1-.166-.027.393.393 0 0 1-.136-.106.441.441 0 0 1-.123-.288.4.4 0 0 1 .047-.218.382.382 0 0 1 .119-.119.48.48 0 0 1 .259-.088c.08 0 .143.005.188.017.045.011.087.03.124.057.094.063.14.14.14.23s-.012.165-.038.225a.517.517 0 0 1-.102.157zm-.586 3.09c.05 0 .075.031.075.096 0 .086-.04.175-.118.266a.576.576 0 0 1-.46.2c-.22 0-.372-.09-.454-.269a.518.518 0 0 1-.046-.228c0-.09.016-.189.047-.299.031-.109.07-.224.117-.344.047-.121.098-.244.153-.367l.152-.36c.11-.268.166-.445.166-.53 0-.086-.01-.143-.027-.17a.24.24 0 0 0-.06-.065l-.056-.04c-.02-.013-.029-.037-.029-.07 0-.033.013-.065.039-.095a.353.353 0 0 1 .101-.08.653.653 0 0 1 .3-.066c.28 0 .42.073.42.22 0 .171-.044.367-.134.586-.09.22-.166.398-.229.533l-.17.394c-.127.289-.19.497-.19.624 0 .084.042.126.126.126a.43.43 0 0 0 .186-.031.246.246 0 0 1 .091-.032zM76.044 31.972c-.2 0-.393.137-.578.41a3.098 3.098 0 0 0-.377.84 1.39 1.39 0 0 0 .83-.377c.214-.205.322-.402.322-.59 0-.19-.065-.283-.197-.283zm-1.67 1.575c.008-.165.036-.324.083-.475.048-.151.112-.298.192-.44.08-.141.174-.275.282-.402.107-.127.224-.237.35-.333.272-.203.548-.305.826-.305.326 0 .543.134.652.403.038.091.056.199.054.323a.9.9 0 0 1-.072.346.997.997 0 0 1-.19.288c-.08.087-.177.164-.288.233a2.001 2.001 0 0 1-.365.174c-.27.095-.56.144-.869.148a.752.752 0 0 0 .003.298.523.523 0 0 0 .069.176.327.327 0 0 0 .297.171c.22 0 .436-.065.646-.194a.897.897 0 0 0 .181-.135c.047-.047.088-.07.122-.07s.064.02.09.06a.25.25 0 0 1 .039.14c0 .1-.029.188-.086.262-.24.24-.598.36-1.072.36-.28 0-.505-.084-.675-.251-.19-.191-.28-.45-.269-.777zM79.859 33.058a2.55 2.55 0 0 0-.169.4 1.188 1.188 0 0 0-.064.366c0 .11.023.2.071.273.048.07.118.107.212.107a.575.575 0 0 0 .279-.076c.092-.05.181-.119.268-.204.087-.086.168-.186.243-.301.076-.115.14-.238.196-.367.12-.282.18-.549.18-.802a.757.757 0 0 0-.054-.32c-.037-.076-.092-.114-.168-.114a.412.412 0 0 0-.235.087 1.71 1.71 0 0 0-.258.232 3.32 3.32 0 0 0-.502.72zm-.442 1.217c-.004.028-.045.179-.124.45-.08.273-.145.489-.199.649-.12.357-.22.58-.297.668a.3.3 0 0 1-.229.102c-.109 0-.191-.053-.249-.16a.203.203 0 0 1-.025-.1c0-.038.028-.119.085-.242.151-.314.352-.932.604-1.855.1-.365.167-.614.2-.745l.091-.357c.06-.236.094-.396.104-.48.011-.085.006-.145-.015-.18a.242.242 0 0 0-.072-.08 1.193 1.193 0 0 0-.074-.048c-.023-.013-.032-.037-.029-.072a.165.165 0 0 1 .047-.097.357.357 0 0 1 .105-.076.609.609 0 0 1 .259-.06c.086 0 .155.01.204.031.05.021.09.05.123.086.068.075.1.146.091.217-.019.146-.04.272-.062.377.333-.474.68-.71 1.037-.71.326 0 .544.168.655.504.038.118.057.262.057.431 0 .17-.026.34-.077.51-.052.17-.121.332-.209.484a2.456 2.456 0 0 1-.675.756c-.274.198-.533.297-.777.297a.601.601 0 0 1-.549-.3zM84.797 33.984c.044 0 .066.022.066.065 0 .166-.082.305-.246.417a.696.696 0 0 1-.389.109c-.122 0-.215-.029-.28-.086a.484.484 0 0 1-.174-.377c0-.188.079-.476.237-.865-.294.396-.5.66-.618.79s-.22.231-.308.304c-.191.156-.363.234-.518.234-.236 0-.393-.102-.471-.306a.626.626 0 0 1-.035-.215c0-.081.014-.172.042-.271.027-.1.063-.204.107-.313.043-.108.092-.22.143-.334l.154-.342c.198-.44.272-.7.22-.782a.363.363 0 0 0-.128-.109c-.023-.013-.035-.037-.035-.07a.14.14 0 0 1 .042-.095.373.373 0 0 1 .107-.08.656.656 0 0 1 .28-.066c.094 0 .164.01.213.03.049.02.088.045.119.076a.289.289 0 0 1 .094.208c0 .076-.012.161-.037.256a3.731 3.731 0 0 1-.097.306 9.78 9.78 0 0 1-.132.343c-.131.308-.22.511-.266.61l-.105.22a.82.82 0 0 0-.089.277c0 .054.009.091.026.113.017.022.048.033.093.033.044 0 .096-.021.155-.063.06-.042.124-.098.195-.168.07-.07.144-.152.22-.244.076-.093.15-.188.223-.287.143-.194.248-.35.314-.468.404-.714.62-1.087.646-1.12.061-.081.124-.122.187-.122.065 0 .12.007.168.022a.365.365 0 0 1 .123.06c.08.06.106.119.077.178-.465.968-.716 1.577-.752 1.826-.01.086-.014.145-.014.177 0 .145.044.217.131.217.082 0 .15-.014.203-.044a.294.294 0 0 1 .109-.044M86.195 34.204c.18 0 .36-.08.546-.24.282-.243.471-.592.569-1.045.032-.148.048-.303.048-.464 0-.16-.018-.273-.054-.338a.179.179 0 0 0-.167-.097.401.401 0 0 0-.236.092c-.082.06-.168.141-.257.24a3.81 3.81 0 0 0-.503.75c-.155.306-.232.567-.232.78 0 .215.095.322.286.322zm-.8-.469c0-.11.008-.216.024-.316.016-.101.037-.203.062-.306.027-.102.056-.205.088-.308l.32-.976c.254-.791.412-1.41.477-1.855.021-.16.1-.24.235-.24.08 0 .148.021.203.063.1.082.15.169.147.26a1.73 1.73 0 0 1-.04.31 5.694 5.694 0 0 1-.092.369c-.036.133-.079.273-.127.42-.128.376-.223.648-.286.816l-.163.425c.166-.257.301-.433.406-.528.21-.185.428-.277.655-.277.334 0 .555.174.666.522.036.12.054.27.054.449 0 .178-.026.356-.079.532a2.176 2.176 0 0 1-.901 1.211c-.278.18-.548.269-.81.269s-.469-.08-.62-.24a.853.853 0 0 1-.22-.6zM88.587 34.432a.55.55 0 0 1-.115-.19.742.742 0 0 1-.045-.268c0-.102.024-.239.07-.41a12.1 12.1 0 0 1 .179-.585l.24-.71c.341-.99.538-1.755.592-2.295.017-.16.095-.24.234-.24.088 0 .16.021.218.063.11.084.163.177.16.28a2.178 2.178 0 0 1-.055.375 6.995 6.995 0 0 1-.126.483c-.05.173-.11.358-.177.552l-.394 1.158c-.227.659-.34 1.084-.34 1.276 0 .103.042.154.125.154.08 0 .154-.017.219-.051a.402.402 0 0 1 .127-.052c.04 0 .06.02.06.06 0 .17-.086.311-.26.425a.588.588 0 0 1-.552.083.447.447 0 0 1-.16-.108M91.626 30.923a.497.497 0 0 1-.311.16.302.302 0 0 1-.167-.027.393.393 0 0 1-.136-.106.442.442 0 0 1-.123-.288.4.4 0 0 1 .047-.218.38.38 0 0 1 .119-.119.48.48 0 0 1 .258-.088c.081 0 .144.005.19.017.044.011.085.03.123.057.094.063.14.14.14.23s-.013.165-.039.225a.518.518 0 0 1-.101.157zm-.586 3.09c.05 0 .074.031.074.096 0 .086-.039.175-.117.266a.575.575 0 0 1-.46.2c-.22 0-.372-.09-.455-.269a.518.518 0 0 1-.045-.228c0-.09.015-.189.047-.299.031-.109.07-.224.117-.344.047-.121.098-.244.153-.367l.152-.36c.11-.268.165-.445.165-.53 0-.086-.009-.143-.027-.17a.245.245 0 0 0-.058-.065l-.058-.04c-.019-.013-.028-.037-.028-.07 0-.033.013-.065.038-.095a.355.355 0 0 1 .102-.08.652.652 0 0 1 .3-.066c.28 0 .42.073.42.22 0 .171-.045.367-.134.586a11.9 11.9 0 0 1-.229.533l-.171.394c-.126.289-.189.497-.189.624 0 .084.042.126.126.126a.43.43 0 0 0 .186-.031.247.247 0 0 1 .091-.032zM92.63 34.146c.196 0 .422-.19.677-.573a3.84 3.84 0 0 0 .552-1.293.335.335 0 0 0-.163-.285.308.308 0 0 0-.156-.032c-.07 0-.15.025-.243.076-.093.05-.181.118-.266.204a1.883 1.883 0 0 0-.239.301c-.074.115-.139.237-.194.367-.118.276-.177.55-.177.824 0 .274.07.411.209.411zm1.469-2.174c.133-.114.245-.171.334-.171.054 0 .108.02.163.06.103.076.146.141.129.196a.692.692 0 0 1-.026.074l-.037.098a1.92 1.92 0 0 1-.086.208c-.03.063-.068.145-.114.248a29.038 29.038 0 0 0-.614 1.533 10.4 10.4 0 0 0-.187.6c-.087.315-.131.542-.131.681 0 .198.011.329.033.392.022.065.03.11.023.136a.122.122 0 0 1-.042.066.245.245 0 0 1-.16.051.403.403 0 0 1-.171-.034.38.38 0 0 1-.135-.108c-.088-.113-.127-.274-.12-.483.004-.277.136-.716.395-1.315l.186-.428a2.733 2.733 0 0 1-.395.502c-.22.198-.438.297-.652.297-.326 0-.54-.17-.646-.509a1.448 1.448 0 0 1-.054-.428c0-.169.025-.339.076-.51a2.382 2.382 0 0 1 .876-1.237c.274-.199.534-.299.78-.299s.438.127.575.38zM97.546 33.984c.044 0 .066.022.066.065 0 .166-.082.305-.246.417a.696.696 0 0 1-.388.109c-.123 0-.216-.029-.28-.086a.484.484 0 0 1-.175-.377c0-.188.08-.476.237-.865-.293.396-.5.66-.617.79-.118.13-.221.231-.309.304-.19.156-.363.234-.517.234-.237 0-.394-.102-.472-.306a.63.63 0 0 1-.034-.215c0-.081.013-.172.041-.271.028-.1.063-.204.107-.313.044-.108.092-.22.143-.334l.155-.342c.198-.44.271-.7.22-.782a.36.36 0 0 0-.129-.109c-.023-.013-.034-.037-.034-.07 0-.033.014-.065.041-.095a.376.376 0 0 1 .107-.08.656.656 0 0 1 .28-.066c.094 0 .165.01.214.03.048.02.088.045.118.076a.289.289 0 0 1 .094.208c0 .076-.012.161-.037.256a3.667 3.667 0 0 1-.097.306c-.04.11-.084.225-.131.343-.132.308-.22.511-.266.61l-.106.22a.817.817 0 0 0-.089.277c0 .054.009.091.026.113.017.022.048.033.093.033s.097-.021.156-.063a1.57 1.57 0 0 0 .194-.168c.07-.07.144-.152.22-.244.077-.093.151-.188.223-.287a4.99 4.99 0 0 0 .315-.468c.403-.714.62-1.087.646-1.12.06-.081.123-.122.187-.122s.12.007.167.022a.364.364 0 0 1 .123.06c.08.06.106.119.077.178-.465.968-.715 1.577-.751 1.826-.01.086-.015.145-.015.177 0 .145.044.217.132.217.082 0 .15-.014.203-.044a.295.295 0 0 1 .108-.044M99.816 31.972c-.2 0-.392.137-.577.41a3.082 3.082 0 0 0-.378.84 1.39 1.39 0 0 0 .83-.377c.214-.205.322-.402.322-.59 0-.19-.066-.283-.197-.283zm-1.67 1.575a1.86 1.86 0 0 1 .084-.475c.047-.151.111-.298.19-.44.081-.141.175-.275.283-.402a2.19 2.19 0 0 1 .35-.333c.272-.203.548-.305.826-.305.326 0 .543.134.652.403.038.091.056.199.054.323a.897.897 0 0 1-.071.346c-.046.105-.11.201-.19.288-.082.087-.178.164-.289.233a2.001 2.001 0 0 1-.365.174c-.27.095-.56.144-.869.148a.771.771 0 0 0 .003.298.527.527 0 0 0 .069.176.327.327 0 0 0 .297.171c.22 0 .437-.065.646-.194a.912.912 0 0 0 .181-.135c.047-.047.088-.07.122-.07s.065.02.09.06a.252.252 0 0 1 .039.14c0 .1-.029.188-.086.262-.24.24-.597.36-1.072.36-.28 0-.505-.084-.675-.251-.19-.191-.28-.45-.268-.777z"/>
    </g>
</svg>
