<svg xmlns="http://www.w3.org/2000/svg" width="124" height="20" viewBox="0 0 124 20">
    <g fill="none" fill-rule="evenodd">
        <path fill="#652F6C" d="M82.703 17.03h.886v-.505c-.222-.01-.64-.023-.872-.023-.58 0-1.114.03-1.114.783v1.66c0 .751.534.783 1.114.783.215 0 .646-.014.872-.025V19.2h-.886c-.385 0-.45-.081-.45-.437v-.416h1.275v-.518h-1.275v-.363c0-.354.065-.434.45-.434zm-2.901 1.732V16.51h-.652v2.434c0 .752.533.784 1.114.784.2 0 .593-.013.82-.022v-.507h-.833c-.384 0-.449-.08-.449-.437zm-2.645.474c-.164 0-.303-.01-.435-.027v-.893h.42c.379 0 .665.063.665.47 0 .39-.267.45-.65.45zm-.434-2.222a3.3 3.3 0 0 1 .397-.026c.396 0 .654.041.654.418 0 .376-.264.437-.632.437h-.419v-.829zm1.21 1.064c.316-.12.473-.41.473-.73 0-.757-.679-.87-1.286-.87-.385 0-.785.04-1.045.089v3.099a6.32 6.32 0 0 0 1.099.087c.676 0 1.28-.14 1.28-.891 0-.46-.227-.685-.521-.784zm-3.16-1.6c-.187 0-.363.14-.472.414l-.638 1.592-.631-1.602c-.111-.283-.278-.404-.464-.404-.282 0-.397.145-.412.473l-.128 2.769h.605l.077-2.295h.002l.594 1.569c.076.2.19.299.36.299.169 0 .285-.1.358-.3l.575-1.574h.003l.079 2.3h.628l-.124-2.765c-.015-.346-.124-.476-.412-.476zm-5.444.807v1.66c0 .751.534.783 1.114.783.215 0 .646-.014.872-.025V19.2h-.886c-.384 0-.45-.081-.45-.437v-.416h1.275v-.518h-1.275v-.363c0-.354.066-.434.45-.434h.886v-.506c-.222-.01-.64-.023-.872-.023-.58 0-1.114.03-1.114.783zm-1.548.52c-.37-.1-.59-.143-.59-.466 0-.32.392-.332.651-.332.24 0 .499.038.707.07l.06-.5c-.23-.049-.58-.1-.92-.1-.738 0-1.148.223-1.148.919 0 .606.338.783.914.96.298.091.533.158.533.457 0 .322-.206.398-.544.398-.246 0-.604-.037-.84-.071l-.063.513c.261.057.566.1.927.1.76 0 1.191-.255 1.191-.963 0-.581-.265-.818-.878-.985zm-2.527 1.06l-1.02-1.966c-.16-.31-.329-.421-.552-.421-.246 0-.394.145-.394.487v2.755h.586v-2.363l1.018 1.973c.165.32.315.423.553.423.25 0 .394-.148.394-.49V16.51h-.585v2.354zm-4.73-1.58v1.66c0 .751.534.783 1.113.783.215 0 .646-.014.872-.025V19.2h-.886c-.384 0-.45-.081-.45-.437v-.416h1.276v-.518h-1.276v-.363c0-.354.066-.434.45-.434h.886v-.506c-.222-.01-.639-.023-.872-.023-.58 0-1.114.03-1.114.783zm-3.333.709a3.43 3.43 0 0 1-.397-.017v-.964c.132-.018.282-.028.41-.028.469 0 .628.142.628.498 0 .407-.238.51-.641.51zm1.286-.509c0-.867-.58-1.007-1.29-1.007-.384 0-.765.036-1.043.088v3.154h.65v-1.225c.113.007.261.014.392.014l.659 1.21h.75l-.733-1.284c.377-.115.615-.382.615-.95zM54.66 19.72h.652v-3.21h-.652v3.21zm-2.246-.5a2 2 0 0 1-.305-.023v-2.165c.083-.01.186-.022.305-.022.846 0 .852.478.852 1.105s-.006 1.106-.852 1.106zm.09-2.742c-.382 0-.774.038-1.046.09v3.097a6.1 6.1 0 0 0 1.046.088c1.202 0 1.415-.547 1.415-1.638 0-1.09-.213-1.637-1.415-1.637zm-2.464 2.386L49.022 16.9c-.161-.31-.33-.421-.552-.421-.247 0-.395.145-.395.487v2.755h.586v-2.363l1.018 1.973c.165.32.315.423.554.423.25 0 .394-.148.394-.49V16.51h-.586v2.354zm-4.403-.44l.393-1.297.4 1.298h-.793zm.42-1.946c-.246 0-.42.133-.527.447l-.954 2.795h.672l.24-.795h1.094l.246.795h.69l-.937-2.795c-.104-.306-.284-.447-.523-.447zm-3.245 1.516c-.134 0-.265-.001-.397-.017v-.964c.132-.018.282-.028.41-.028.469 0 .628.142.628.498 0 .407-.237.51-.641.51zm1.286-.509c0-.867-.58-1.007-1.289-1.007-.384 0-.766.036-1.044.088v3.154h.65v-1.225c.113.007.262.014.393.014l.658 1.21h.75l-.734-1.284c.378-.115.616-.382.616-.95zm-4.234.941h.524v.507c0 .18-.03.28-.365.28-.768 0-.783-.462-.783-1.098 0-.632.015-1.097.786-1.097.277 0 .571.014.85.057l.056-.503a5.02 5.02 0 0 0-1.026-.094c-1.063 0-1.33.484-1.33 1.637 0 1.139.267 1.638 1.33 1.638.632 0 1.098-.036 1.098-.627v-1.202h-1.14v.502zM61.415 5.662c-1.501 0-2.977.266-4.098.913a18.893 18.893 0 0 0-.079 1.825v5.341a1.327 1.327 0 0 0 2.655 0V9.25c0-.417.016-.871.057-1.246.282-.115.735-.183 1.132-.183 1.261 0 1.476.464 1.476 1.59v4.322a1.327 1.327 0 1 0 2.654 0h.005V9.208c0-2.08-.391-3.546-3.802-3.546zm-8.936 5.93c0 .417-.016.87-.058 1.246-.422.156-.897.183-1.32.183-.818 0-1.292-.225-1.292-1.007 0-.866.27-1.09.933-1.252.521-.13 1.168-.156 1.737-.193v1.022zm-1.262-6.055c-.913 0-1.949.115-2.643.208a1.034 1.034 0 0 0-.905 1.021c0 .572.464 1.035 1.036 1.035.124 0 1.479-.131 2.35-.131.99 0 1.424.313 1.424 1.152-.892.037-1.726.068-2.644.22-1.909.312-2.65 1.33-2.65 3.003 0 2.029 1.049 3.03 3.672 3.03 1.617 0 3.03-.245 4.146-.913.057-.625.078-1.173.078-1.825V8.593c0-2.456-1.763-3.056-3.864-3.056zm28.321 2.076c1.07 0 1.445.547 1.445 1.57 0 .088-.006.213-.016.302-.443.057-1.23.125-1.758.15l-1.298.069c0-1.21.188-2.091 1.627-2.091zm.344 5.303c-1.23 0-1.836-.282-1.898-1.376l1.418-.079a44.14 44.14 0 0 0 2.985-.277c.711-.142 1.211-.632 1.262-1.33-.056-2.66-.814-4.317-4.111-4.317-3.134 0-4.203 1.398-4.203 4.767 0 2.753.834 4.77 4.015 4.77 1.82 0 3.165-.213 4.12-.374l-.224-2.034c-.955.12-2.096.25-3.364.25zM43.01 9.234c-.74-.25-1.528-.36-1.528-.996 0-.63.876-.636 1.596-.636.647 0 1.427.125 1.552.125a.992.992 0 0 0 .198-1.965l-.005-.002c-.828-.155-1.605-.223-2.616-.223-1.872 0-3.374.63-3.374 2.785 0 2.007 1.533 2.55 2.93 2.978.674.208 1.372.281 1.372.97 0 .724-.928.698-1.596.698-.703 0-1.913-.172-2.586-.308l-.256 1.982c.95.266 2.295.433 3.426.433 2.066 0 3.698-.63 3.698-2.889 0-2.112-1.299-2.44-2.81-2.952zm-8.776 0c-.74-.25-1.528-.36-1.528-.996 0-.63.876-.636 1.596-.636.646 0 1.427.125 1.552.125a.992.992 0 0 0 .197-1.965l-.004-.002c-.828-.155-1.605-.223-2.616-.223-1.872 0-3.374.63-3.374 2.785 0 2.007 1.533 2.55 2.93 2.978.673.208 1.372.281 1.372.97 0 .724-.928.698-1.596.698-.704 0-1.914-.172-2.586-.308l-.256 1.982c.949.266 2.295.433 3.426.433 2.066 0 3.698-.63 3.698-2.889 0-2.112-1.299-2.44-2.811-2.952zM18.955 12.9c-1.236 0-1.517-.52-1.517-2.596 0-2.066.287-2.598 1.517-2.598 1.231 0 1.523.57 1.523 2.598 0 2.038-.287 2.596-1.523 2.596zm0-7.363c-3.081 0-4.192 1.315-4.192 4.767 0 3.462 1.11 4.77 4.192 4.77 3.083 0 4.193-1.329 4.193-4.77 0-3.432-1.11-4.767-4.193-4.767zM13.37 5.6v-.006a7.868 7.868 0 0 0-1.022-.057c-1.298 0-2.78.271-3.827.913a19.019 19.019 0 0 0-.079 1.825v5.465a1.325 1.325 0 0 0 2.65 0V9.219c0-.418.015-.871.051-1.247.334-.167.898-.26 1.383-.26.203 0 .67.04.737.04a1.077 1.077 0 1 0 .107-2.15zm58.561 7.316c-2.05 0-2.143-.819-2.143-2.691 0-1.976.235-2.592 2.117-2.592.274 0 .829.078.962.078a1.01 1.01 0 1 0 .147-2.01 8.827 8.827 0 0 0-1.75-.164c-3.442 0-4.162 1.648-4.162 4.688 0 2.45.464 4.85 3.599 4.85 1.308 0 2.367-.162 3.196-.386l-.23-2.013c-.61.13-1.13.24-1.736.24zm-67.088 0c-2.05 0-2.143-.819-2.143-2.691 0-1.976.235-2.592 2.117-2.592.274 0 .829.078.962.078a1.01 1.01 0 1 0 .146-2.01 8.82 8.82 0 0 0-1.75-.164c-3.441 0-4.16 1.648-4.16 4.688 0 2.45.463 4.85 3.598 4.85 1.308 0 2.367-.162 3.196-.386l-.23-2.013c-.61.13-1.13.24-1.736.24zm22.95-5.975a1.348 1.348 0 0 0-2.696 0v6.799a1.348 1.348 0 0 0 2.696 0V6.944 6.94zm-1.356-5.073a1.482 1.482 0 1 0 .001 2.964 1.482 1.482 0 0 0-.001-2.964z"/>
        <path fill="#EC1946" d="M122.877.014h-6.096c-.457 0-.566.265-.243.588l6.582 6.583c.324.323.588.213.588-.244V.845a.833.833 0 0 0-.83-.83zM107.541 5.67c-.733 0-1.327.594-1.327 1.327v4.491c0 .417-.015.871-.058 1.247-.281.114-.735.182-1.13.182-1.263 0-1.477-.464-1.477-1.59V7.002a1.327 1.327 0 0 0-2.654 0h-.006v4.526c0 2.081.391 3.546 3.802 3.546 1.502 0 2.978-.266 4.1-.913.057-.625.077-1.173.077-1.825v-5.34c0-.734-.594-1.328-1.327-1.328zm-8.914-2.26a1.34 1.34 0 1 0-2.68 0V13.615a1.34 1.34 0 0 0 2.68 0V3.41zm-9.15 9.528c-.323 0-.72-.058-1.022-.14V9.082c0-.417.016-.87.057-1.246.292-.115.762-.178 1.179-.178 1.731 0 1.794 1.335 1.794 2.65 0 1.491-.068 2.628-2.008 2.628zm.214-7.4c-1.299 0-2.78.271-3.828.913a19.018 19.018 0 0 0-.078 1.825v10.096a1.334 1.334 0 0 0 2.668 0h.002v-3.437a8.57 8.57 0 0 0 1.502.141c2.884 0 4.203-1.148 4.203-4.766 0-3.661-1.324-4.772-4.47-4.772zm25.313 3.697c-.74-.25-1.528-.36-1.528-.996 0-.63.876-.636 1.596-.636.646 0 1.427.125 1.552.125a.992.992 0 0 0 .198-1.965c-.002 0-.003-.002-.005-.003-.828-.154-1.605-.222-2.616-.222-1.872 0-3.374.63-3.374 2.785 0 2.007 1.533 2.55 2.93 2.977.674.209 1.372.282 1.372.97 0 .725-.928.7-1.596.7-.703 0-1.913-.173-2.586-.309l-.256 1.982c.95.266 2.295.433 3.426.433 2.066 0 3.698-.63 3.698-2.889 0-2.112-1.298-2.44-2.81-2.952z"/>
    </g>
</svg>
