<svg xmlns="http://www.w3.org/2000/svg" width="245" height="135" viewBox="0 0 245 135">
    <g fill="none" fill-rule="evenodd">
        <path fill="#FFF" d="M13.82.34h4.89V22h-3.24V5.08h-.06L12.05 22h-1.8L6.89 5.08h-.06V22H3.59V.34h4.89L11.12 13h.06L13.82.34zm20.14 4.32l-1.47 9.3h3l-1.47-9.3h-.06zM31.95 17.2l-.66 4.8h-3.6L31.68.34h4.62L40.29 22h-3.6l-.66-4.8h-4.08zM73.43 5.29l-3.54.39c-.15-1.86-1.14-2.4-1.98-2.4-1.2 0-1.86.78-1.86 2.13 0 3.69 7.56 5.46 7.56 11.34 0 3.57-2.4 5.55-5.88 5.55-3.45 0-5.43-2.76-5.58-6l3.54-.51c.15 2.19 1.02 3.27 2.22 3.27 1.29 0 2.16-.69 2.16-1.98 0-4.29-7.56-5.43-7.56-11.64 0-3.45 2.1-5.4 5.76-5.4 3.03 0 4.83 2.19 5.16 5.25zm10 11.46V5.59c0-3.06 1.8-5.55 5.7-5.55 3.9 0 5.7 2.49 5.7 5.55v11.16c0 3.06-1.8 5.55-5.7 5.55-3.9 0-5.7-2.49-5.7-5.55zm3.72-11.07v10.98c0 1.62.48 2.4 1.98 2.4s1.98-.78 1.98-2.4V5.68c0-1.62-.48-2.4-1.98-2.4s-1.98.78-1.98 2.4zM114.82 22h-9.57V.34h3.72v18.42h5.85V22zm9.28-5.46V.34h3.72v16.35c0 1.59.63 2.37 1.98 2.37s1.98-.78 1.98-2.37V.34h3.72v16.2c0 3.72-2.16 5.76-5.7 5.76s-5.7-2.04-5.7-5.76zM148.26 22V3.58h-3.6V.34h10.92v3.24h-3.6V22h-3.72zM169 22h-3.72V.34H169V22zm11.11-5.25V5.59c0-3.06 1.8-5.55 5.7-5.55 3.9 0 5.7 2.49 5.7 5.55v11.16c0 3.06-1.8 5.55-5.7 5.55-3.9 0-5.7-2.49-5.7-5.55zm3.72-11.07v10.98c0 1.62.48 2.4 1.98 2.4s1.98-.78 1.98-2.4V5.68c0-1.62-.48-2.4-1.98-2.4s-1.98.78-1.98 2.4zM205.47 22h-3.36V.34h3.45l4.53 12.39h.06V.34h3.36V22h-3.24l-4.74-13.53h-.06V22zM25.786 84.742c.081.735.244 1.47.326 2.204.082.816.163 1.632 0 2.284-.245 1.061-.898 1.959-1.224 2.938-.326.898.163 1.958-.571 2.774-.245.245-.408.49-.408.816-.245 2.448-1.795 4.407-2.938 6.447-.326.571-.49 1.06-.734 1.632a9.742 9.742 0 0 1-.653 1.305c-.326.49-.816.735-1.387.898-2.122.653-3.509 2.856-6.039 2.448-.49-.082-.897-.245-1.224-.653-.081-.245-.408-.571-.57-.571-2.53.245-3.51-2.203-5.468-2.938a.983.983 0 0 1-.408-.408C2.04 99.838.408 95.595.653 90.7c.245-3.835.408-7.752.653-11.587.244-3.1.652-6.202.979-9.302a20.9 20.9 0 0 0 .245-3.183c.163-2.203.734-4.406 1.224-6.528C4.896 54.55 6.12 49.083 8.242 43.861c1.795-4.488 3.835-8.731 7.262-12.159.408-.49.734-.979.98-1.387.407-.571.978-1.224 1.55-1.305 2.53-.49 4.977-1.632 7.67-.98 3.182.735 5.549 3.183 5.63 6.447.082 3.1.327 6.201-.326 9.302-.082.49-.163.98-.082 1.469.082 3.1-.49 6.202-.49 9.302-.08 2.938-.652 5.794-.734 8.65-.081 1.877-1.55 2.611-2.692 3.59-.164.164-.572.164-.816.082-1.55-.408-3.02-.98-3.672-2.611-.49-1.387-.898-2.775-.082-4.162.326-.49.408-1.06.49-1.713.163-2.938.408-5.957.57-8.976.164-2.53.409-5.06.49-7.59 0-1.631-.163-3.263-.326-4.895 0-.245-.245-.571-.408-.653-.245-.082-.653 0-.816.163-.98.98-1.795 2.04-2.285 3.346-1.55 4.08-3.345 8.078-4.57 12.24-.326 1.142-.407 2.285-.734 3.427-.816 2.856-1.55 5.794-2.366 8.65-1.306 4.65-2.285 9.384-2.693 14.28-.326 2.692-.898 5.385-.98 8.078-.162 3.59-.978 7.262-.162 10.934.244 1.47.57 2.856 1.305 4.162.49.898 1.061 1.06 1.877.49.98-.735 2.04-1.47 2.856-2.448 3.182-3.754 6.283-7.59 8.976-11.75.408-.572.734-1.143 1.224-1.714.326-.408.245-1.143.898-1.388zM59.73 99.757c-.571 1.06-1.387 1.713-2.285 2.203-1.387.653-2.61 1.469-4.08 1.958-1.468.408-2.937.898-4.406 1.388-1.469.49-3.02.734-4.488.816-3.59.081-6.936-.98-9.302-3.917-1.55-1.877-2.612-3.999-3.754-6.202-.49-.979-.653-1.958-.571-3.1a692.63 692.63 0 0 1 2.693-18.116c.897-6.12 2.121-12.158 3.1-18.278.816-4.733 1.632-9.384 2.53-14.035.326-1.632.49-3.264.49-4.896 0-1.306.57-1.714 1.876-1.306 1.224.245 2.448.571 3.672.898 3.346.734 6.61 4.243 6.61 8.486-.082 2.693-.734 5.222-1.06 7.834-.246 2.121-.898 4.161-1.388 6.201-.653 3.427-1.224 6.855-1.877 10.282l-1.469 7.67c-.816 4.978-1.713 9.955-2.53 14.933-.244 1.387-.489 2.693-.57 4.08-.082 1.632.244 1.958 1.795 2.448 4.57 1.469 9.139 1.714 13.79.734.245-.081.571-.081.816-.163.163 0 .245.082.408.082zm5.875 14.606c-1.55-2.203-2.53-4.406-2.856-7.099 0-.408-.163-.816-.081-1.224.571-4.896.163-9.792.326-14.606.082-4.57-.081-9.14.082-13.71.326-7.017.408-14.116 1.224-21.052.49-3.754.897-7.589 1.305-11.342a16.69 16.69 0 0 0 0-2.856c-.081-2.285-.081-4.57-.081-6.855 0-.897.326-1.387.816-1.877.245-.163.49-.326.734-.408 2.367-.57 4.733-1.468 7.181-.244 2.203 1.142 3.59 3.182 3.754 6.364.326 4.325.081 8.65-.653 12.893-.653 4.243-1.469 8.405-2.122 12.73-.734 4.896-1.387 9.792-2.04 14.688-.326 1.795-.408 3.672-.571 5.467-.408 3.754-.734 7.507-1.469 11.18-.408 1.713-.163 3.508-.734 5.14-.163.571-.163 1.55-.49 1.795-.816.653-.816 1.959-1.55 2.611a2.59 2.59 0 0 0-1.061 2.122c.082 2.285-.816 4.162-1.714 6.283zm40.637-32.445c.917-.494 1.482-1.2 2.046-1.905 3.457-3.81 6.49-7.902 9.524-11.993 1.2-1.553 2.329-3.105 3.457-4.727.847-1.2 1.905-1.764 3.387-1.623 1.129.141 2.257.141 3.386.423.565.212.917.424.988.988.07 1.129.564 2.046 1.2 2.963.775 1.2.846 2.54.281 3.81-.493 1.34-1.058 2.68-1.34 4.092-.353 1.693-.776 3.386-.847 5.15-.07 2.61-.635 5.15-.917 7.76-.282 3.74-.564 7.479-.776 11.288-.07.635.212.918.776.918.212.07.353.07.494 0 .494 0 .988-.353 1.482.07.282.212.07 1.27-.494 1.764-1.13.987-2.117 2.116-3.104 3.245-.424.494-1.059.706-1.623.282-.353-.211-.706-.352-1.129-.282-.705.07-1.34-.282-1.834-.705-.706-.706-1.411-1.27-2.187-1.694-.494-.211-.847-.705-.917-1.128-.424-2.046-1.482-3.88-1.34-6.068.21-3.104-.071-6.208.352-9.312.07-.565 0-1.2-.07-1.764 0-.282-.495-.494-.777-.282-1.552 1.27-3.174 2.469-4.585 3.88-1.059 1.2-2.258 2.187-3.599 3.104-.987.776-1.904 1.623-2.68 2.61-1.482 1.764-3.316 1.835-4.798.494-1.27-1.128-1.834-2.54-1.905-4.233 0-.282 0-.776.212-.917.847-.705.917-1.34.212-2.116-.353-.353-.283-.776-.212-1.2l1.482-9.947c.282-1.552.564-3.175.776-4.727.07-.423 0-.847-.071-1.27 0-.07-.212-.212-.353-.282-.07 0-.282.07-.423.212-.212.352-.494.705-.635 1.058-.776 1.834-1.552 3.668-2.258 5.573-.282.776-.493 1.623-.987 2.328-1.764 2.681-3.246 5.644-5.362 8.184-1.27 1.482-1.975 3.104-2.117 4.939-.14 2.892-.635 5.714-.987 8.536-.07.635-.141 1.34-.141 1.976 0 .846-.212 1.481-1.059 1.763-.282.07-.493.141-.705.353-1.129 1.27-2.258.917-3.528.212a8.777 8.777 0 0 1-2.257-1.623c-.282-.353-.565-.705-.635-1.058-.353-1.693-.917-3.386-.494-5.22a3.518 3.518 0 0 0 .212-1.694c-.212-3.81.352-7.549.846-11.288.565-4.021 1.058-7.972 1.693-11.993.494-3.81 1.2-7.62 1.764-11.43.423-2.54.776-5.08 1.129-7.69.141-.846 0-1.622-.212-2.469-.211-1.27-.07-1.27 1.2-2.046 1.552-.846 3.033-.846 4.585-.423 2.4.564 3.669 2.258 3.951 4.656.212 1.482.282 3.034.282 4.515-.14 1.976-.14 4.022-.564 5.997-.423 1.693-.423 3.528-.705 5.22-.283 1.553-.918 3.035-1.059 4.657 0 .282 0 .494.07.706 0 .07.283.211.424.14.141-.07.282-.21.353-.281.917-1.411 1.905-2.752 2.751-4.233.988-1.623 1.694-3.457 3.105-4.868.14-.07.211-.283.282-.424.564-2.54 2.398-4.374 3.598-6.56.635-1.13 1.764-1.412 2.892-1.835.847-.282 1.552.635 2.399.494.141-.07.423.282.494.494.353 1.058.776 2.116.635 3.386-.353 2.328-.776 4.727-.847 7.196-.14 2.681-.705 5.291-1.129 7.972-.352 2.399-.846 4.798-1.27 7.196 0 .141.142.424.212.706zm72.089-31.61c-.082 5.956-.49 10.444-.898 14.85 0 .653-.163 1.388-.163 2.04-.163 6.039-1.143 11.996-1.959 17.952-.163 1.47-.408 2.856-.49 4.325-.08 1.877-.244 3.672-.815 5.467-.245.735-.327 1.47-.408 2.285-.082 1.061-.082 2.04-.98 2.938-.652.653-.57 1.877-.489 2.693.326 2.53-.898 4.243-2.448 5.875-.163.245-.408.49-.571.653-.49.652-.98.408-1.469.081-2.04-1.55-3.346-3.427-3.672-6.038-.326-2.285-.653-4.57-.245-6.936.245-1.55.245-3.101.245-4.651-.082-3.59.571-7.181.653-10.772 0-.57-.408-.979-.898-.816-2.53.735-4.977.245-7.507-.244-.734-.164-1.469-.245-2.285-.408-1.387-.245-1.469-.245-1.958.979-.98 2.448-1.877 4.896-2.856 7.344-1.55 3.998-3.1 8.078-4.733 12.158-.245.735-.653 1.387-1.06 2.04-.98 1.959-2.694 2.693-4.734 2.938-.49.081-.979-.082-1.305-.49-1.224-1.305-2.367-2.693-2.775-4.488 0-.163 0-.408.082-.571 1.714-2.448 1.958-5.467 3.02-8.16 1.468-3.754 2.692-7.67 4.242-11.424.572-1.632.898-3.346 2.122-4.733.653-.816-.98-2.121.49-2.856 1.06-.571 1.305-1.632 1.795-2.611 1.142-2.53 2.203-5.14 3.345-7.67l5.386-12.24c1.877-4.488 4.243-8.732 5.957-13.301.326-.98.816-1.877.816-3.02.081-1.142.571-1.958 1.877-2.284 1.142-.245 2.448-.49 3.264-1.632.163-.082.408-.245.57-.163 2.286.49 4.652.734 6.284 2.937 2.203 3.02 3.672 6.202 3.917 9.874.245 3.182.734 6.365.653 8.078zm-22.277 20.644c1.795.734 3.835 1.224 5.549 2.285.652.326 1.55.245 2.284.081.98-.081 1.47-.49 1.632-1.387.082-.897.164-1.795.164-2.611-.082-5.304.163-10.69.49-15.994.162-2.121 0-4.243 0-6.364 0-.164-.164-.327-.327-.408-.327-.245-.571 0-.653.244-1.142 2.53-2.366 5.141-3.427 7.67-.571 1.225-1.224 2.53-1.387 3.836-.245 1.55-.816 2.938-1.388 4.406l-2.448 5.876c-.326.652-.57 1.387-.49 2.366zm85.109-32.558c-1.796.734-3.428 1.305-5.06 2.04-.897.408-1.876.897-2.61 1.713-1.633 1.959-3.836 2.938-6.04 3.999-.652.244-1.305.408-1.876.734-3.346 2.448-7.344 3.59-10.934 5.386l-5.794 2.692c-1.224.49-1.877 1.224-1.877 2.612.163 5.059-.816 10.036-1.958 14.932-.082.572-.327 1.143-.327 1.714-.326 3.59-1.305 7.018-2.366 10.445-1.142 3.835-2.04 7.833-3.02 11.75-.326 1.55-1.06 2.938-1.794 4.325-.898 1.714-1.632 3.672-2.775 5.304-.408.571-.897.98-1.469 1.387-1.06.735-2.53.245-2.856-1.142-.244-.653-.244-1.306-.244-2.04 0-1.877.163-3.835.49-5.712.57-2.775.815-5.63 1.223-8.405.571-3.917 1.714-7.752 2.775-11.587 1.305-4.733 2.774-9.466 4.08-14.199.408-1.387.897-2.856.652-4.324-.897-.082-1.55.408-2.203.816-1.958 1.224-3.835 2.61-5.875 3.672-3.02 1.632-6.12 2.856-9.547 3.1-2.285.245-4.162-.652-6.039-1.713-.081 0-.244-.082-.244-.163-.164-1.55-1.224-2.448-2.122-3.59-.163-.246-.163-.817.326-.898 3.836-.816 6.855-3.183 10.119-5.06l4.161-2.203c8.65-4.57 17.708-8.323 26.847-11.75 6.61-2.53 13.382-4.57 20.155-6.61 2.693-.816 5.467-1.305 8.242-1.958.49-.082.979-.082 1.468-.082.082 0 .327.245.327.408 0 .163 0 .408-.163.49-.164.245-.408.408-.653.571-1.224.571-2.448 1.142-3.672 1.795-.735.327-.735.49.081 1.143.164.163.327.244.572.408zM99.944 32.08v3.552h.768c1.296 0 1.696-.4 1.696-1.776s-.4-1.776-1.696-1.776h-.768zm0 9.92H97.96V30.448h2.848c2.448 0 3.584.944 3.584 3.408s-1.136 3.408-3.584 3.408h-.864V42zm6.016-2.8v-5.952c0-1.632.96-2.96 3.04-2.96s3.04 1.328 3.04 2.96V39.2c0 1.632-.96 2.96-3.04 2.96s-3.04-1.328-3.04-2.96zm1.984-5.904v5.856c0 .864.256 1.28 1.056 1.28s1.056-.416 1.056-1.28v-5.856c0-.864-.256-1.28-1.056-1.28s-1.056.416-1.056 1.28zm6.016 5.792v-8.64h1.984v8.72c0 .848.336 1.264 1.056 1.264s1.056-.416 1.056-1.264v-8.72h1.984v8.64c0 1.984-1.152 3.072-3.04 3.072-1.888 0-3.04-1.088-3.04-3.072zm9.984-7.008v3.552h.704c1.072 0 1.472-.4 1.472-1.776s-.4-1.776-1.472-1.776h-.704zm0 5.184V42h-1.984V30.448h2.784c2.224 0 3.36.944 3.36 3.408 0 1.856-.72 2.608-1.392 2.912l1.68 5.232h-2.016l-1.408-4.784a9.569 9.569 0 0 1-1.024.048zM138.52 42h-5.104V30.448h1.984v9.824h3.12V42zm6.752 0h-5.536V30.448h5.312v1.728h-3.328v2.976h2.56v1.728h-2.56v3.392h3.552V42z"/>
        <path fill="#000" fill-opacity=".2" d="M1 115h213v20H1z"/>
        <path fill="#FFF" d="M34.092 124.248v-1.152h1.716l.408-1.872h1.26l-.408 1.872h1.572l.408-1.872h1.248l-.408 1.872h1.524v1.152h-1.764l-.36 1.68h1.524v1.14h-1.776L38.628 129H37.38l.408-1.932h-1.572L35.808 129h-1.26l.408-1.932h-1.464v-1.14h1.716l.36-1.68h-1.476zm2.736 0l-.36 1.68h1.572l.36-1.68h-1.572zM52.368 129h-1.632v-5.964L48.288 129h-1.38l-2.448-5.916V129h-1.584v-8.508h2.184l2.556 6.144 2.496-6.144h2.256V129zm1.44-1.608c0-.504.164-.908.492-1.212.328-.304.752-.496 1.272-.576l1.452-.216c.296-.04.444-.18.444-.42a.688.688 0 0 0-.258-.552c-.172-.144-.418-.216-.738-.216-.336 0-.602.092-.798.276a1.032 1.032 0 0 0-.33.684l-1.416-.3c.056-.512.308-.964.756-1.356.448-.392 1.04-.588 1.776-.588.88 0 1.528.21 1.944.63.416.42.624.958.624 1.614v2.904c0 .352.024.664.072.936h-1.464a3.325 3.325 0 0 1-.06-.708c-.376.584-.956.876-1.74.876-.608 0-1.098-.176-1.47-.528-.372-.352-.558-.768-.558-1.248zm2.364.588c.376 0 .686-.106.93-.318.244-.212.366-.562.366-1.05v-.264l-1.332.204c-.488.072-.732.32-.732.744a.65.65 0 0 0 .204.486c.136.132.324.198.564.198zm10.308-5.46l-1.488.456a1.56 1.56 0 0 0-.456-.828c-.248-.248-.612-.372-1.092-.372-.392 0-.712.106-.96.318-.248.212-.372.466-.372.762 0 .52.308.84.924.96l1.188.228c.752.144 1.336.444 1.752.9.416.456.624.992.624 1.608 0 .704-.278 1.318-.834 1.842-.556.524-1.302.786-2.238.786-.536 0-1.02-.08-1.452-.24-.432-.16-.78-.374-1.044-.642a3.295 3.295 0 0 1-.618-.852c-.148-.3-.238-.61-.27-.93l1.536-.408c.04.456.218.836.534 1.14.316.304.758.456 1.326.456.432 0 .77-.096 1.014-.288a.916.916 0 0 0 .366-.756.877.877 0 0 0-.27-.642c-.18-.18-.434-.302-.762-.366l-1.188-.24c-.688-.144-1.232-.428-1.632-.852-.4-.424-.6-.952-.6-1.584 0-.752.29-1.384.87-1.896.58-.512 1.278-.768 2.094-.768.488 0 .924.068 1.308.204.384.136.692.318.924.546.232.228.412.462.54.702.128.24.22.492.276.756zm2.94 4.764c.296.296.652.444 1.068.444.416 0 .77-.148 1.062-.444.292-.296.438-.708.438-1.236s-.146-.94-.438-1.236a1.436 1.436 0 0 0-1.062-.444c-.416 0-.77.148-1.062.444-.292.296-.438.708-.438 1.236s.144.94.432 1.236zm-1.152-3.48c.592-.592 1.332-.888 2.22-.888.888 0 1.626.296 2.214.888.588.592.882 1.34.882 2.244 0 .904-.294 1.652-.882 2.244-.588.592-1.326.888-2.214.888-.888 0-1.626-.296-2.214-.888-.588-.592-.882-1.34-.882-2.244 0-.904.292-1.652.876-2.244zM76.44 129h-1.596v-8.688h1.596V129zm5.544 0a3.372 3.372 0 0 1-.048-.636 1.412 1.412 0 0 1-.678.594c-.3.132-.618.198-.954.198-.696 0-1.244-.222-1.644-.666-.4-.444-.6-.998-.6-1.662v-3.732h1.596v3.408c0 .352.092.638.276.858.184.22.452.33.804.33.344 0 .616-.106.816-.318.2-.212.3-.494.3-.846v-3.432h1.596v4.836c0 .376.02.732.06 1.068h-1.524zm5.136-7.668v1.764h1.188v1.416H87.12v2.472c0 .248.056.424.168.528.112.104.288.156.528.156.216 0 .38-.016.492-.048v1.32c-.232.096-.532.144-.9.144-.576 0-1.032-.162-1.368-.486-.336-.324-.504-.77-.504-1.338v-2.748h-1.068v-1.416h.3c.296 0 .522-.086.678-.258.156-.172.234-.398.234-.678v-.828h1.44zM91.26 129h-1.596v-5.904h1.596V129zm-1.788-7.836c0-.272.096-.506.288-.702a.939.939 0 0 1 .696-.294c.272 0 .504.096.696.288a.962.962 0 0 1 .288.708.934.934 0 0 1-.288.684.948.948 0 0 1-.696.288.948.948 0 0 1-.696-.288.934.934 0 0 1-.288-.684zm5.076 6.12c.296.296.652.444 1.068.444.416 0 .77-.148 1.062-.444.292-.296.438-.708.438-1.236s-.146-.94-.438-1.236a1.436 1.436 0 0 0-1.062-.444c-.416 0-.77.148-1.062.444-.292.296-.438.708-.438 1.236s.144.94.432 1.236zm-1.152-3.48c.592-.592 1.332-.888 2.22-.888.888 0 1.626.296 2.214.888.588.592.882 1.34.882 2.244 0 .904-.294 1.652-.882 2.244-.588.592-1.326.888-2.214.888-.888 0-1.626-.296-2.214-.888-.588-.592-.882-1.34-.882-2.244 0-.904.292-1.652.876-2.244zm8.172 1.8V129h-1.596v-5.904h1.548v.732c.168-.288.408-.508.72-.66.312-.152.64-.228.984-.228.696 0 1.226.218 1.59.654.364.436.546.998.546 1.686V129h-1.596v-3.444c0-.352-.09-.636-.27-.852-.18-.216-.454-.324-.822-.324-.336 0-.604.116-.804.348-.2.232-.3.524-.3.876zm7.2-1.236h1.308c.408 0 .732-.11.972-.33.24-.22.36-.514.36-.882 0-.376-.118-.674-.354-.894-.236-.22-.562-.33-.978-.33h-1.308v2.436zm1.512 1.428h-1.524V129H107.1v-8.508h3.18c.832 0 1.506.248 2.022.744.516.496.774 1.132.774 1.908s-.258 1.412-.774 1.908-1.19.744-2.022.744zm5.184 1.488c.296.296.652.444 1.068.444.416 0 .77-.148 1.062-.444.292-.296.438-.708.438-1.236s-.146-.94-.438-1.236a1.436 1.436 0 0 0-1.062-.444c-.416 0-.77.148-1.062.444-.292.296-.438.708-.438 1.236s.144.94.432 1.236zm-1.152-3.48c.592-.592 1.332-.888 2.22-.888.888 0 1.626.296 2.214.888.588.592.882 1.34.882 2.244 0 .904-.294 1.652-.882 2.244-.588.592-1.326.888-2.214.888-.888 0-1.626-.296-2.214-.888-.588-.592-.882-1.34-.882-2.244 0-.904.292-1.652.876-2.244zM124.728 129a3.372 3.372 0 0 1-.048-.636 1.412 1.412 0 0 1-.678.594c-.3.132-.618.198-.954.198-.696 0-1.244-.222-1.644-.666-.4-.444-.6-.998-.6-1.662v-3.732h1.596v3.408c0 .352.092.638.276.858.184.22.452.33.804.33.344 0 .616-.106.816-.318.2-.212.3-.494.3-.846v-3.432h1.596v4.836c0 .376.02.732.06 1.068h-1.524zm6.768-5.928v1.608a2.442 2.442 0 0 0-.48-.048c-.456 0-.824.13-1.104.39-.28.26-.42.686-.42 1.278v2.7h-1.596v-5.904h1.548v.876c.288-.616.848-.924 1.68-.924.088 0 .212.008.372.024zm6.66 5.928h-5.448v-8.508h1.656v6.924h3.792V129zm2.328-3.624h2.64a1.226 1.226 0 0 0-.354-.828c-.22-.224-.542-.336-.966-.336-.384 0-.696.12-.936.36-.24.24-.368.508-.384.804zm2.796 1.536l1.332.396c-.16.544-.474.992-.942 1.344-.468.352-1.05.528-1.746.528-.848 0-1.568-.286-2.16-.858-.592-.572-.888-1.338-.888-2.298 0-.912.288-1.658.864-2.238.576-.58 1.256-.87 2.04-.87.912 0 1.626.272 2.142.816.516.544.774 1.292.774 2.244 0 .064-.002.136-.006.216-.004.08-.006.144-.006.192l-.012.084h-4.224c.016.384.168.704.456.96a1.5 1.5 0 0 0 1.032.384c.68 0 1.128-.3 1.344-.9zm6.648 2.268c-1.224 0-2.256-.408-3.096-1.224-.84-.816-1.26-1.884-1.26-3.204 0-1.312.426-2.38 1.278-3.204.852-.824 1.87-1.236 3.054-1.236 1.088 0 1.962.276 2.622.828.66.552 1.086 1.216 1.278 1.992l-1.56.492a2.322 2.322 0 0 0-.756-1.218c-.384-.332-.912-.498-1.584-.498-.696 0-1.306.248-1.83.744s-.786 1.196-.786 2.1c0 .864.258 1.548.774 2.052a2.574 2.574 0 0 0 1.866.756c.664 0 1.194-.172 1.59-.516.396-.344.662-.752.798-1.224l1.548.468c-.088.344-.23.68-.426 1.008-.196.328-.45.636-.762.924-.312.288-.706.52-1.182.696a4.483 4.483 0 0 1-1.566.264zm6.672-.18h-1.596v-8.688h1.596V129zm3.3 0h-1.596v-5.904h1.596V129zm-1.788-7.836c0-.272.096-.506.288-.702a.939.939 0 0 1 .696-.294c.272 0 .504.096.696.288a.962.962 0 0 1 .288.708.934.934 0 0 1-.288.684.948.948 0 0 1-.696.288.948.948 0 0 1-.696-.288.934.934 0 0 1-.288-.684zM163.2 129h-1.596v-5.904h1.524v.72c.152-.272.392-.488.72-.648.328-.16.664-.24 1.008-.24.856 0 1.44.328 1.752.984.424-.656 1.048-.984 1.872-.984.6 0 1.106.188 1.518.564.412.376.618.936.618 1.68V129h-1.548v-3.504c0-.336-.086-.606-.258-.81-.172-.204-.434-.306-.786-.306-.328 0-.592.112-.792.336-.2.224-.3.5-.3.828V129h-1.584v-3.504c0-.336-.088-.606-.264-.81-.176-.204-.436-.306-.78-.306-.336 0-.604.11-.804.33-.2.22-.3.498-.3.834V129zm8.676-1.608c0-.504.164-.908.492-1.212.328-.304.752-.496 1.272-.576l1.452-.216c.296-.04.444-.18.444-.42a.688.688 0 0 0-.258-.552c-.172-.144-.418-.216-.738-.216-.336 0-.602.092-.798.276a1.032 1.032 0 0 0-.33.684l-1.416-.3c.056-.512.308-.964.756-1.356.448-.392 1.04-.588 1.776-.588.88 0 1.528.21 1.944.63.416.42.624.958.624 1.614v2.904c0 .352.024.664.072.936h-1.464a3.325 3.325 0 0 1-.06-.708c-.376.584-.956.876-1.74.876-.608 0-1.098-.176-1.47-.528-.372-.352-.558-.768-.558-1.248zm2.364.588c.376 0 .686-.106.93-.318.244-.212.366-.562.366-1.05v-.264l-1.332.204c-.488.072-.732.32-.732.744a.65.65 0 0 0 .204.486c.136.132.324.198.564.198zm6.396-6.648v1.764h1.188v1.416h-1.188v2.472c0 .248.056.424.168.528.112.104.288.156.528.156.216 0 .38-.016.492-.048v1.32c-.232.096-.532.144-.9.144-.576 0-1.032-.162-1.368-.486-.336-.324-.504-.77-.504-1.338v-2.748h-1.068v-1.416h.3c.296 0 .522-.086.678-.258.156-.172.234-.398.234-.678v-.828h1.44z"/>
    </g>
</svg>
