<svg xmlns="http://www.w3.org/2000/svg"  x="0px" y="0px" width="77" viewBox="0 0 77 77" style="enable-background:new 0 0 77 77;" xml:space="preserve">
  <style type="text/css">
  	.st0{fill:#ED1844;}
  	.st1{fill:#253186;}
  </style>
  <path class="st0" d="M30.5,67.5l3.8,4.1l18.3-10.3l0.7-17c3.5-3.2,25.8-17.7,22.2-42.8C50.6-2.1,36.1,20.2,32.9,23.7l-17,0.7
  	L5.5,42.7l4.1,3.8l12.7-3.8l6,6l6,6L30.5,67.5z M59.3,12.2c1.5-1.5,4-1.5,5.5,0s1.5,4,0,5.5c-1.5,1.5-4,1.5-5.5,0
  	C57.8,16.2,57.8,13.7,59.3,12.2z"/>
  <rect class="st1" x="-1.8" y="66.5" transform="matrix(0.7071 -0.7071 0.7071 0.7071 -44.7039 26.6335)" width="23.2" height="1.6"/>
  <rect class="st1" x="-1.9" y="58.9" transform="matrix(0.7071 -0.7071 0.7071 0.7071 -39.3745 24.4004)" width="23.2" height="1.6"/>
  <rect class="st1" x="9.4" y="62.9" transform="matrix(0.7071 -0.7071 0.7071 0.7071 -38.8456 33.4897)" width="23.2" height="1.6"/>
</svg>