<svg xmlns="http://www.w3.org/2000/svg" x="0px" y="0px" viewBox="0 0 150 150">
	<style type="text/css">
	.st0{fill:#ED1844;}
	.st1{fill:#253186;}
	</style>
	<path class="st0" d="M58.6,129.7l7.4,7.8l35.2-19.9l1.4-32.8c6.7-6.2,49.7-34,42.8-82.3C97.2-4.2,69.3,38.8,63.2,45.4l-32.8,1.4
		L10.5,82l7.8,7.4l24.4-7.3l11.6,11.6l11.6,11.6L58.6,129.7z M114.1,23.3c2.9-2.9,7.7-2.9,10.6,0c2.9,2.9,2.9,7.7,0,10.6
		c-2.9,2.9-7.7,2.9-10.6,0C111.2,31,111.2,26.2,114.1,23.3z"/>
	<rect x="-3.6" y="113.3" transform="matrix(0.7071 -0.7071 0.7071 0.7071 -75.7087 46.8599)" class="st1" width="44.7" height="3"/>
	<rect x="-3.6" y="127.8" transform="matrix(0.7071 -0.7071 0.7071 0.7071 -85.9011 51.1332)" class="st1" width="44.7" height="3"/>
	<rect x="18" y="120.8" transform="matrix(0.7071 -0.7071 0.7071 0.7071 -74.6677 64.3466)" class="st1" width="44.7" height="3"/>
	<animateTransform attributeName="transform"
					  type="translate"
					  from="2 2"
					  to="2 2"
					  begin="0s"
					  dur="0.3s"
					  values="2 2; 2 0; 2 1; 1 1; 1 0;"
					  keySplines="0 0 0 0; 0 0 0 0; 0 0 0 0; 0 0 0 0; 0 0 0 0;"
					  repeatCount="indefinite"/>
</svg>
