<svg xmlns="http://www.w3.org/2000/svg" width="481" height="115" viewBox="0 0 481 115">
    <g fill="none" fill-rule="evenodd">
        <path fill="#77C4D1" d="M21.978 15.102h-7.192v-3.248c0-3.538-1.624-5.046-3.48-5.046-2.9 0-3.828 1.508-3.828 4.64v21.228c0 3.132.928 4.64 3.828 4.64 2.61 0 3.48-1.508 3.48-4.234v-5.046h7.192v4.814c0 5.916-3.48 10.73-10.672 10.73-7.54 0-11.02-4.814-11.02-10.73V11.274c0-5.916 3.48-10.73 11.02-10.73 7.192 0 10.672 5.22 10.672 11.484v3.074zm7.308 17.748V11.274c0-5.916 3.48-10.73 11.02-10.73 7.54 0 11.02 4.814 11.02 10.73V32.85c0 5.916-3.48 10.73-11.02 10.73-7.54 0-11.02-4.814-11.02-10.73zm7.192-21.402v21.228c0 3.132.928 4.64 3.828 4.64s3.828-1.508 3.828-4.64V11.448c0-3.132-.928-4.64-3.828-4.64s-3.828 1.508-3.828 4.64zm41.18-10.324h9.454V43h-6.264V10.288h-.116L74.236 43h-3.48L64.26 10.288h-.116V43H57.88V1.124h9.454L72.438 25.6h.116l5.104-24.476zm35.438 0h9.454V43h-6.264V10.288h-.116L109.674 43h-3.48l-6.496-32.712h-.116V43h-6.264V1.124h9.454l5.104 24.476h.116l5.104-24.476zM149.23 43h-20.068V1.124h19.256v6.264h-12.064v10.788h9.28v6.264h-9.28v12.296h12.876V43zm12.18 0h-6.496V1.124h6.67l8.758 23.954h.116V1.124h6.496V43h-6.264l-9.164-26.158h-.116V43zm26.68 0V7.388h-6.96V1.124h21.112v6.264h-6.96V43h-7.192zm50.634-41.876h9.454V43h-6.264V10.288h-.116L235.302 43h-3.48l-6.496-32.712h-.116V43h-6.264V1.124h9.454l5.104 24.476h.116l5.104-24.476zM262.968 43h-7.192V1.124h7.192V43zm28.014 0h-20.068V1.124h19.256v6.264h-12.064v10.788h9.28v6.264h-9.28v12.296h12.876V43zm5.684-10.556V1.124h7.192v31.61c0 3.074 1.218 4.582 3.828 4.582s3.828-1.508 3.828-4.582V1.124h7.192v31.32c0 7.192-4.176 11.136-11.02 11.136-6.844 0-11.02-3.944-11.02-11.136zM322.998 43l8.236-21.924-7.656-19.952h7.076l4.408 13.282h.116l4.002-13.282h7.076l-7.25 19.952L347.126 43h-7.076l-4.872-15.254h-.116L330.074 43h-7.076zm50.75-12.818l5.22-29.058h7.076L377.286 43h-7.192l-8.758-41.876h7.076l5.22 29.058h.116zM398.224 43h-7.192V1.124h7.192V43zm17.4-12.818l5.22-29.058h7.076L419.162 43h-7.192l-8.758-41.876h7.076l5.22 29.058h.116zm23.49-23.142v12.876h2.552c3.886 0 5.336-1.45 5.336-6.438 0-4.988-1.45-6.438-5.336-6.438h-2.552zm0 18.792V43h-7.192V1.124h10.092c8.062 0 12.18 3.422 12.18 12.354 0 6.728-2.61 9.454-5.046 10.556L455.238 43h-7.308l-5.104-17.342c-.928.116-2.436.174-3.712.174zM480.99 43h-20.068V1.124h19.256v6.264h-12.064v10.788h9.28v6.264h-9.28v12.296h12.876V43z"/>
        <g fill="#EE6380">
            <path d="M281.46 77.765a29.975 29.975 0 0 1-.844 3.969 28.467 28.467 0 0 1-.767 2.739c-.325.975-.678 1.788-1.065 2.439-.386.651-.834 1.037-1.341 1.157-.508.12-1.042-.25-1.6-1.108a10.772 10.772 0 0 1-.632-1.368c-.217-.55-.344-1.198-.383-1.943-.04-.746.034-1.579.22-2.5.185-.921.575-1.934 1.173-3.04.553-1.011 1.325-1.892 2.314-2.645a21.744 21.744 0 0 1 3.326-2.067 42.125 42.125 0 0 1-.401 4.367m-114.654 22.516c-.587 1.736-1.36 3.261-2.32 4.573-.96 1.312-2.05 2.338-3.272 3.08-1.223.741-2.491 1.077-3.803 1.006-1.268-.121-2.163-.693-2.683-1.717-.521-1.024-.771-2.215-.748-3.571.044-1.825.376-3.525.995-5.099a22.509 22.509 0 0 1 2.425-4.543 29.584 29.584 0 0 1 3.496-4.179 87.785 87.785 0 0 1 4.21-3.936 16.07 16.07 0 0 1 2 4.066c.473 1.448.688 3.083.643 4.908a18.102 18.102 0 0 1-.943 5.412m-11.92-38.173a26.407 26.407 0 0 1-2.22-5.597c-.55-2.004-.774-4.27-.672-6.799.08-2.013.335-3.651.759-4.911.425-1.261.913-2.186 1.467-2.776.553-.59 1.135-.854 1.746-.792.61.062 1.154.419 1.633 1.071.478.652.808 1.593.989 2.821.18 1.23.153 2.715-.082 4.456-.263 2.117-.746 4.28-1.447 6.49a78.669 78.669 0 0 1-2.172 6.037M95.49 64.309c.168-.335.45-.759.844-1.271.394-.511.78-.952 1.158-1.322.377-.37.695-.55.953-.541.257.011.357.367.3 1.071 0 .888-.364 1.947-1.094 3.177-.731 1.23-2.042 2.502-3.936 3.816.462-1.893 1.053-3.536 1.775-4.93m93.95-4.923c.169-.336.452-.76.845-1.271.394-.512.779-.953 1.158-1.323.377-.37.695-.55.953-.541.256.011.357.368.3 1.071 0 .888-.364 1.947-1.094 3.177-.731 1.23-2.042 2.502-3.936 3.816.462-1.893 1.053-3.536 1.774-4.929m140.158-7.346c.169-.335.45-.759.844-1.271.395-.511.78-.952 1.159-1.322.377-.37.694-.55.952-.541.257.011.358.367.302 1.071 0 .888-.366 1.947-1.095 3.177-.732 1.23-2.042 2.502-3.936 3.816.46-1.893 1.052-3.536 1.774-4.93m17.049 2.962c-.383-.166-.746-.171-1.087-.013-.343.158-.598.429-.764.811-2.781 6.689-5.47 11.993-8.068 15.914a45.33 45.33 0 0 1-2.396 3.105 20.473 20.473 0 0 1-2.297 2.328c-.532.543-1.01.789-1.432.741-.423-.048-.81-.273-1.158-.675-.348-.403-.644-.936-.89-1.601a49.899 49.899 0 0 1-.701-2.031c-.79-2.528-1.153-5.477-1.095-8.845.054-.749.108-1.489.164-2.217.055-.726.112-1.418.172-2.076.556-.075 1.163-.318 1.819-.726a14.974 14.974 0 0 0 1.923-1.433 20.398 20.398 0 0 0 1.733-1.703c.53-.588.948-1.077 1.255-1.468 1.216-1.746 1.825-3.483 1.829-5.213.035-2.01-.79-3.463-2.471-4.356-.964-.556-2.063-.779-3.294-.669-1.234.112-2.506.576-3.818 1.392-1.043.615-1.934 1.445-2.674 2.488a17.301 17.301 0 0 0-1.856 3.357 27.438 27.438 0 0 0-1.215 3.569 32.392 32.392 0 0 0-.678 3.119 41.728 41.728 0 0 0-.533 6.729c-.342 1.368-.725 2.84-1.161 4.435a155.112 155.112 0 0 1-2.178 7.264c-.925 2.852-1.865 5.425-2.82 7.718-.955 2.293-1.925 4.283-2.911 5.971-.815 1.397-1.478 2.355-1.987 2.872-.511.518-.925.645-1.242.381-.318-.263-.585-.892-.8-1.885-.216-.995-.437-2.326-.664-3.996-.188-1.767-.303-3.758-.35-5.975-.045-2.217 0-4.708.135-7.472.1-2.529.266-5.166.497-7.912.229-2.746.493-5.504.793-8.278.298-2.773.61-5.5.938-8.18.326-2.681.636-5.244.929-7.689.365-2.824.673-5.421.923-7.794.249-2.373.467-4.476.65-6.308.128-1.128-.227-1.881-1.064-2.258-.838-.376-1.79-.502-2.86-.376a8.22 8.22 0 0 0-2.964.927c-.91.492-1.392 1.089-1.448 1.793a154.385 154.385 0 0 1-.625 6.131 612.576 612.576 0 0 1-.968 7.621c-.29 2.493-.598 5.091-.923 7.794a544.263 544.263 0 0 0-.933 8.285c-.033.325-.057.644-.09.968a9.032 9.032 0 0 1-2.608 3.695c-1.5 1.271-3.251 2.402-5.255 3.395a51.222 51.222 0 0 0-.817-4.899 20.364 20.364 0 0 0-1.73-4.921c-.575-1.138-1.207-2.063-1.898-2.775-.693-.711-1.375-1.259-2.05-1.645a6.636 6.636 0 0 0-2.002-.771 7.554 7.554 0 0 0-1.83-.15c-4.754.249-8.637 5.08-11.648 14.49l2.999-36.397c.083-1.079-.301-1.747-1.157-2.007-.854-.259-1.813-.278-2.877-.06-1.063.221-2.05.576-2.958 1.067-.91.492-1.38.902-1.407 1.23l-2.034 30.83a128.22 128.22 0 0 1-1.073 6.203 515.754 515.754 0 0 1-1.316 6.308 142.483 142.483 0 0 1-1.76 7.242c-1.612 5.785-3.245 10.287-4.898 13.505-1.191 2.258-2.027 3.248-2.51 2.97-.48-.279-.802-1.956-.963-5.031-.144-1.862-.16-3.906-.041-6.132l.349-6.712c.212-3.095.356-5.907.434-8.434.079-2.528-.11-4.527-.56-5.999-.34-1.15-.765-2.098-1.27-2.843-.507-.744-1.028-1.335-1.565-1.775a6.947 6.947 0 0 0-1.595-1.003 6.244 6.244 0 0 0-1.426-.451 6.103 6.103 0 0 0-2.975.051 9.592 9.592 0 0 0-2.741 1.195 11.861 11.861 0 0 0-2.317 1.944 14.58 14.58 0 0 0-1.772 2.301 25.44 25.44 0 0 0-1.121 2.021 36.72 36.72 0 0 0-1.1 2.441c.065-1.452.074-2.819.03-4.102a34.075 34.075 0 0 0-.288-3.525c-.375-3.578-1.261-6.196-2.655-7.852-1.141-1.247-2.55-1.829-4.227-1.741-1.538.081-2.953.961-4.242 2.64-1.291 1.681-2.523 4.258-3.696 7.73a72.615 72.615 0 0 0-1.55 5.198 151.613 151.613 0 0 0-1.322 5.537l-.267-9.099c-.046-.885-.51-1.48-1.39-1.784-.881-.305-1.843-.394-2.888-.269-1.045.124-2 .409-2.864.851-.866.442-1.282.967-1.25 1.572l.036 1.215c-2.53 5.898-4.981 10.654-7.357 14.239a44.775 44.775 0 0 1-2.396 3.105 20.4 20.4 0 0 1-2.296 2.329c-.532.542-1.01.788-1.433.74-.423-.048-.81-.273-1.157-.675-.35-.402-.645-.936-.89-1.601a50.919 50.919 0 0 1-.702-2.031c-.788-2.528-1.153-5.477-1.095-8.845.054-.749.109-1.488.165-2.216.054-.727.11-1.419.17-2.077.558-.075 1.164-.317 1.82-.726a14.746 14.746 0 0 0 1.923-1.433 20.41 20.41 0 0 0 1.734-1.703c.529-.588.947-1.077 1.255-1.468 1.216-1.746 1.825-3.483 1.829-5.213.035-2.01-.79-3.463-2.472-4.356-.964-.556-2.062-.779-3.294-.668-1.233.111-2.505.575-3.817 1.391-1.043.615-1.934 1.445-2.674 2.488a17.418 17.418 0 0 0-1.857 3.357 27.489 27.489 0 0 0-1.215 3.569 32.058 32.058 0 0 0-.677 3.119c-.114.703-.21 1.406-.287 2.11a20.138 20.138 0 0 1-2.674 3.583c-2.057 2.211-4.384 4.413-6.98 6.605a68.496 68.496 0 0 0-3.334-3.436c-1.132-1.085-2.251-2.16-3.358-3.223a84.683 84.683 0 0 1-3.22-3.266 41.021 41.021 0 0 1-2.917-3.492c.876-2.009 1.769-4.357 2.68-7.045a44.467 44.467 0 0 0 1.93-7.987c.813-5.884-.277-9.729-3.268-11.535-2.374-1.604-4.906-1.752-7.594-.443-2.183 1.143-3.846 2.842-4.99 5.098-1.144 2.257-1.771 4.533-1.885 6.828-.136 4.54.395 8.415 1.59 11.623 1.197 3.208 2.77 6.058 4.724 8.549.069.089.144.172.214.26a185.31 185.31 0 0 1-.433 2.24c-.372 1.842-.81 3.945-1.317 6.308a143.234 143.234 0 0 1-1.758 7.241c-1.614 5.786-3.246 10.288-4.9 13.505-.68 1.298-1.231 2.156-1.653 2.576-.422.418-.758.471-1.008.157-.251-.314-.437-.982-.561-2.003-.123-1.022-.228-2.348-.313-3.979-.164-2.235-.198-4.651-.1-7.25.097-2.598.216-5.233.357-7.904a245.1 245.1 0 0 0 .346-9.446c.04-2.782-.164-4.909-.615-6.382-.34-1.15-.765-2.098-1.27-2.842-.507-.745-1.03-1.336-1.565-1.776-.538-.438-1.07-.773-1.595-1.003-.527-.228-1.001-.379-1.425-.451-1.134-.221-2.207-.187-3.22.099a8.319 8.319 0 0 0-2.767 1.371 11.274 11.274 0 0 0-2.23 2.255 16.31 16.31 0 0 0-1.615 2.609c-.593 1.199-1.161 2.596-1.708 4.19a91.525 91.525 0 0 0-1.646 5.378l-.523 2.061-.263-9.029c-.054-1.025-.522-1.701-1.403-2.03-.883-.327-1.845-.429-2.89-.304a7.21 7.21 0 0 0-2.86.956c-.86.513-1.273 1.095-1.24 1.747l.032 1.068c-2.53 5.903-4.983 10.66-7.36 14.247a45.336 45.336 0 0 1-2.395 3.105 20.39 20.39 0 0 1-2.297 2.328c-.532.543-1.01.789-1.433.741-.423-.048-.81-.273-1.157-.675-.35-.403-.645-.936-.89-1.601a51.475 51.475 0 0 1-.702-2.031c-.788-2.528-1.153-5.477-1.095-8.845.054-.75.108-1.489.164-2.217.056-.726.112-1.418.172-2.076.557-.075 1.163-.318 1.82-.726a14.897 14.897 0 0 0 1.922-1.433 20.254 20.254 0 0 0 1.733-1.703c.53-.589.948-1.077 1.255-1.468 1.217-1.746 1.826-3.483 1.83-5.213.035-2.01-.79-3.463-2.471-4.356-.965-.557-2.063-.779-3.295-.669-1.233.112-2.505.576-3.817 1.392-1.044.615-1.934 1.445-2.673 2.488a17.253 17.253 0 0 0-1.857 3.357 27.288 27.288 0 0 0-1.215 3.569 31.735 31.735 0 0 0-.678 3.119 41.648 41.648 0 0 0-.5 8.508c.126 2.844.527 5.394 1.207 7.647.504 1.61 1.074 2.888 1.708 3.836.633.948 1.29 1.673 1.97 2.175.68.501 1.34.817 1.978.948.638.129 1.212.182 1.726.155 2.003-.105 4.035-1.03 6.093-2.773.898-.701 1.776-1.565 2.633-2.592a46.185 46.185 0 0 0 2.589-3.43c1.389-2.035 2.77-4.421 4.146-7.156.357-.711.716-1.449 1.076-2.207l.392 13.485c-.01.702.39 1.229 1.204 1.584.813.354 1.732.516 2.759.487a8.249 8.249 0 0 0 2.844-.57c.869-.35 1.38-.855 1.533-1.517.113-.52.346-1.864.7-4.032.353-2.168 1.097-5.361 2.232-9.581a64.045 64.045 0 0 1 1.55-5.163c.53-1.499 1.069-2.8 1.62-3.905.8-1.63 1.46-2.635 1.98-3.013.516-.377.846-.569.985-.577.326-.017.612.085.858.306.249.314.54.942.869 1.882.33.941.53 2.531.6 4.77a93.054 93.054 0 0 1-.05 5.716c-.078 2.084-.175 4.25-.29 6.499-.143 2.625-.266 5.19-.368 7.694-.104 2.505-.086 4.83.05 6.972.135 2.142.42 4.032.858 5.668.436 1.635 1.122 2.921 2.059 3.853 1.037 1.067 2.325 1.56 3.863 1.48a5.57 5.57 0 0 0 2.656-.806 9.748 9.748 0 0 0 2.149-1.794 13.54 13.54 0 0 0 1.668-2.296c.47-.82.896-1.613 1.277-2.38 1.783-3.412 3.5-8.104 5.15-14.079.665-2.464 1.262-4.89 1.79-7.279.53-2.386.979-4.525 1.348-6.414l.01-.06a52.52 52.52 0 0 0 3.977 3.917c2.4 2.117 4.736 4.332 7.007 6.642a82.448 82.448 0 0 0-4.578 4.271 32.626 32.626 0 0 0-3.824 4.616 25.321 25.321 0 0 0-2.71 5.154c-.697 1.812-1.086 3.748-1.166 5.809-.052 1.685.237 3.188.867 4.511a6.303 6.303 0 0 0 2.678 2.943 7.48 7.48 0 0 0 2.472 1.027c.922.208 1.873.288 2.852.237 2.097-.11 4.258-.761 6.486-1.952 2.728-1.452 4.912-3.459 6.554-6.022 1.955-2.813 2.979-6.021 3.07-9.623.094-4.446-1.104-8.587-3.595-12.43a15.71 15.71 0 0 1-.568-.811 6.237 6.237 0 0 0-.638-.807 68.049 68.049 0 0 0 3.885-3.429 52.461 52.461 0 0 0 3.489-3.652c.087-.1.159-.205.244-.306.004.482.005.965.026 1.448.127 2.844.529 5.394 1.207 7.648.505 1.61 1.075 2.887 1.708 3.836.634.948 1.29 1.672 1.972 2.174.68.501 1.339.817 1.978.948.637.13 1.21.182 1.725.155 2.003-.105 4.034-1.03 6.093-2.773.897-.701 1.775-1.565 2.633-2.591a46.145 46.145 0 0 0 2.589-3.431c1.388-2.035 2.77-4.42 4.146-7.156.356-.71.715-1.446 1.074-2.203l.393 13.482c.042.793.47 1.365 1.282 1.72.813.354 1.732.505 2.757.451a7.33 7.33 0 0 0 2.837-.709c.866-.42 1.37-1.029 1.516-1.832a82.936 82.936 0 0 1 .836-4.109 947.916 947.916 0 0 1 2.01-9.148c.7-3.121 1.496-5.99 2.387-8.607.522-1.616.99-2.937 1.405-3.964.413-1.026.78-1.606 1.1-1.74.32-.133.609.238.864 1.111.257.875.465 2.407.627 4.594.104 1.116.15 2.423.135 3.918a94.493 94.493 0 0 1-.218 5.199c-.153 1.55-.297 3.03-.433 4.439a59.522 59.522 0 0 1-.47 3.739 121.35 121.35 0 0 1-.516 3.532c-.197.711.1 1.257.892 1.636.79.379 1.713.599 2.768.661a7.859 7.859 0 0 0 3.028-.404c.964-.331 1.519-.874 1.667-1.63.259-1.275.515-2.421.766-3.439a81.41 81.41 0 0 1 .94-3.45c.377-1.281.787-2.61 1.229-3.989.765-2.33 1.499-4.167 2.199-5.513.7-1.344 1.323-2.37 1.87-3.077.548-.706 1.004-1.15 1.369-1.333.364-.183.639-.279.826-.289.42-.022.728.079.926.302.248.267.523.826.825 1.674.3.849.479 2.253.536 4.213.034 1.54.004 3.213-.088 5.016a393.543 393.543 0 0 1-.334 5.66 9825.17 9825.17 0 0 1-.363 6.433 54.6 54.6 0 0 0-.037 5.995c.19 4.523 1.073 7.561 2.65 9.114 1.086 1.111 2.445 1.624 4.077 1.539a5.558 5.558 0 0 0 2.656-.805 9.826 9.826 0 0 0 2.149-1.795 13.651 13.651 0 0 0 1.668-2.296 45.15 45.15 0 0 0 1.277-2.38c1.824-3.507 3.519-8.199 5.08-14.075.079-.273.145-.543.22-.816l-.028.456c-.044.938.35 1.547 1.18 1.831.834.282 1.773.362 2.818.237a9.69 9.69 0 0 0 2.936-.819c.912-.422 1.402-.868 1.472-1.339-.002-.046.057-.459.18-1.237.123-.777.292-1.79.507-3.04.215-1.249.503-2.655.866-4.216a65.643 65.643 0 0 1 1.324-4.836c.598-1.947 1.232-3.675 1.9-5.182.669-1.507 1.37-2.816 2.108-3.931.775-1.255 1.499-1.936 2.17-2.041.672-.105 1.27.156 1.794.782.524.628.979 1.515 1.367 2.663.386 1.148.719 2.357.996 3.628s.482 2.509.615 3.717c.134 1.209.219 2.161.256 2.861l.02.419a28.765 28.765 0 0 0-4.728 2.701 11.702 11.702 0 0 0-3.414 3.754c-1.193 2.213-1.78 4.393-1.76 6.541.009 1.963.519 3.688 1.533 5.177.718 1.224 1.695 2.247 2.93 3.071 1.234.822 2.527 1.199 3.879 1.129 1.863-.098 3.522-1.003 4.975-2.715 1.187-1.418 2.185-3.316 2.996-5.694.684-2.093 1.195-4.397 1.53-6.915a51.65 51.65 0 0 0 .44-7.629c.914-.42 1.813-.876 2.698-1.367a24.063 24.063 0 0 0 2.477-1.567 17.814 17.814 0 0 0 2.018-1.643c-.057.642-.128 1.291-.181 1.932-.228 2.793-.39 5.477-.49 8.052-.27 6.416-.134 11.478.41 15.189.546 3.71 1.536 6.321 2.97 7.836 1.04 1.112 2.305 1.631 3.796 1.553l.07-.004c2.843-.148 5.658-2.609 8.446-7.382 1.967-3.468 3.939-8.197 5.915-14.189.548-1.625 1.037-3.22 1.499-4.802.132.579.277 1.142.442 1.686.504 1.61 1.075 2.888 1.708 3.836.633.949 1.29 1.673 1.97 2.175.682.501 1.34.817 1.979.948.637.129 1.212.182 1.725.155 2.003-.105 4.035-1.03 6.093-2.773.898-.701 1.775-1.565 2.633-2.592a45.911 45.911 0 0 0 2.59-3.43c1.387-2.035 2.77-4.421 4.145-7.156 1.375-2.736 2.768-5.823 4.177-9.262.166-.382.182-.745.048-1.089-.136-.343-.395-.598-.776-.765M382.284 71.605c-.727-.5-1.557-.725-2.488-.676-.98.05-1.793.364-2.44.934-.648.572-.951 1.254-.91 2.046.042.793.415 1.439 1.119 1.939.703.5 1.545.725 2.524.674.93-.05 1.733-.36 2.404-.933.67-.571.986-1.254.944-2.047-.041-.791-.425-1.437-1.153-1.937M394.462 32.449c-1.366-2.872-3.591-4.765-6.676-5.678a14.071 14.071 0 0 0-4.228-.41 13.406 13.406 0 0 0-4.228.923c-2.47 1.018-4.352 2.54-5.647 4.572-1.375 2.315-1.615 4.898-.716 7.748.112.368.349.637.708.804.358.168.722.196 1.09.083.369-.112.637-.337.805-.673.17-.335.199-.687.086-1.056-.387-1.148-.48-2.254-.279-3.316.2-1.061.584-1.992 1.15-2.793a6.528 6.528 0 0 1 2.143-1.934c.86-.49 1.748-.723 2.661-.701.912.022 1.805.326 2.676.91.873.585 1.647 1.561 2.327 2.927.74 1.645 1.03 3.605.868 5.879-.16 2.275-.615 4.752-1.361 7.43-.749 2.68-1.735 5.49-2.959 8.428a271.462 271.462 0 0 1-3.85 8.789c-.17.336-.106.648.19.935.295.29.668.503 1.12.642.45.141.909.198 1.375.173.466-.024.785-.18.957-.47a126.076 126.076 0 0 0 5.34-8.446c1.779-3.06 3.29-6.096 4.534-9.105 1.245-3.01 2.099-5.893 2.56-8.65.464-2.759.248-5.096-.647-7.012"/>
        </g>
        <g fill="#77C4D1" transform="translate(210 107)">
            <ellipse cx="3.978" cy="4" rx="3.978" ry="4"/>
            <ellipse cx="17.239" cy="4" rx="3.978" ry="4"/>
            <ellipse cx="30.5" cy="4" rx="3.978" ry="4"/>
            <ellipse cx="43.761" cy="4" rx="3.978" ry="4"/>
            <ellipse cx="57.022" cy="4" rx="3.978" ry="4"/>
        </g>
    </g>
</svg>
