<svg xmlns="http://www.w3.org/2000/svg" width="290" height="76" viewBox="0 0 290 76">
    <g fill="none" fill-rule="evenodd">
        <path fill="#FFF" d="M11.183 10.067c-.805 0-1.423.342-1.854 1.027-.43.684-.646 1.823-.646 3.417 0 1.594.223 2.726.667 3.396.445.67 1.126 1.006 2.044 1.006.262 0 .529-.043.8-.127.272-.084.517-.209.737-.373a2 2 0 0 0 .548-.633 2.05 2.05 0 0 0 .246-.907h4.536c-.3 2.091-1.14 3.636-2.521 4.634-1.38.998-3.35 1.498-5.905 1.498-1.283 0-2.481-.17-3.595-.507-1.114-.337-2.083-.85-2.907-1.54-.824-.688-1.47-1.556-1.938-2.601-.468-1.045-.702-2.29-.702-3.734 0-1.378.234-2.587.702-3.628a7.103 7.103 0 0 1 1.973-2.608c.847-.699 1.849-1.226 3.005-1.582C7.53 6.448 8.8 6.27 10.186 6.27c1.47 0 2.71.183 3.721.549 1.011.365 1.828.822 2.45 1.37.623.55 1.068 1.14 1.335 1.773.267.633.4 1.225.4 1.779 0 .44-.063.871-.19 1.293a3.28 3.28 0 0 1-.617 1.153 3.148 3.148 0 0 1-1.089.837c-.44.211-.978.317-1.615.317-.608 0-1.104-.087-1.488-.26-.384-.174-.681-.39-.892-.647-.21-.258-.36-.53-.45-.816a2.727 2.727 0 0 1-.133-.809c0-.572.136-1.026.408-1.364a2.17 2.17 0 0 1 .94-.703c-.205-.16-.414-.312-.624-.457-.211-.145-.597-.218-1.159-.218zm8.314 4.556c0-1.378.238-2.587.716-3.628a6.984 6.984 0 0 1 2.043-2.608c.885-.699 1.95-1.226 3.195-1.582 1.245-.357 2.635-.535 4.17-.535 1.536 0 2.926.178 4.171.535 1.246.356 2.308.883 3.188 1.582a7.08 7.08 0 0 1 2.044 2.608c.482 1.04.723 2.25.723 3.628 0 1.36-.241 2.564-.723 3.615a7.175 7.175 0 0 1-2.044 2.636c-.88.708-1.942 1.24-3.188 1.596-1.245.357-2.635.535-4.17.535-1.536 0-2.926-.178-4.171-.535-1.245-.356-2.31-.888-3.195-1.596a7.078 7.078 0 0 1-2.043-2.636c-.478-1.05-.716-2.255-.716-3.615zm7.99 0c0 .788.035 1.456.105 2.004.07.549.185.99.344 1.322.16.333.375.577.646.731.272.155.618.233 1.04.233.42 0 .765-.078 1.032-.233.267-.154.482-.398.646-.73.164-.334.278-.774.344-1.323.065-.548.098-1.216.098-2.004 0-1.575-.147-2.678-.442-3.311-.295-.633-.854-.95-1.678-.95-.422 0-.768.073-1.04.218-.271.146-.486.385-.646.718-.159.332-.273.773-.344 1.322-.07.548-.105 1.216-.105 2.003zm34.35 1.182c0 .497.086.85.26 1.061.173.211.507.317 1.003.317h.464V22.4h-9.437v-8.986c0-.366-.038-.659-.112-.879a1.204 1.204 0 0 0-.302-.506.939.939 0 0 0-.436-.232 2.109 2.109 0 0 0-.47-.056c-.618 0-1.042.178-1.271.534-.23.356-.344.862-.344 1.519v2.01c0 .498.086.851.26 1.062.173.211.508.317 1.004.317h.463V22.4H41.474v-5.217h.829c.383 0 .676-.124.877-.373.202-.248.302-.546.302-.893v-2.672c0-.44-.129-.738-.386-.893a1.67 1.67 0 0 0-.878-.232h-.744V6.903h8.342l-.295 3.867h.238c.206-1.443.79-2.554 1.749-3.332.96-.779 2.352-1.168 4.178-1.168a6.49 6.49 0 0 1 1.917.275 4.684 4.684 0 0 1 1.586.836c.464.375.829.846 1.096 1.414.267.567.419 1.225.456 1.975h.197a4.886 4.886 0 0 1 .625-1.92 4.645 4.645 0 0 1 1.264-1.412 5.978 5.978 0 0 1 1.685-.865 6.144 6.144 0 0 1 1.93-.303c1.246 0 2.262.183 3.048.549.787.365 1.4.827 1.84 1.385.44.558.742 1.162.906 1.814.163.652.245 1.263.245 1.835v3.952c0 .497.087.85.26 1.061.173.211.508.317 1.004.317h.744V22.4h-9.717v-8.986c0-.366-.04-.659-.12-.879-.08-.22-.18-.389-.302-.506a.894.894 0 0 0-.428-.232 2.109 2.109 0 0 0-.47-.056c-.618 0-1.042.178-1.271.534-.23.356-.344.862-.344 1.519v2.01zm34.461 0c0 .497.087.85.26 1.061.173.211.508.317 1.004.317h.464V22.4h-9.437v-8.986c0-.366-.038-.659-.113-.879a1.204 1.204 0 0 0-.302-.506.939.939 0 0 0-.435-.232 2.109 2.109 0 0 0-.47-.056c-.618 0-1.042.178-1.271.534-.23.356-.344.862-.344 1.519v2.01c0 .498.086.851.26 1.062.173.211.507.317 1.004.317h.463V22.4H75.936v-5.217h.828c.384 0 .677-.124.878-.373.201-.248.302-.546.302-.893v-2.672c0-.44-.129-.738-.386-.893a1.67 1.67 0 0 0-.878-.232h-.744V6.903h8.342l-.295 3.867h.238c.206-1.443.79-2.554 1.749-3.332.96-.779 2.352-1.168 4.178-1.168a6.49 6.49 0 0 1 1.916.275 4.684 4.684 0 0 1 1.587.836c.464.375.829.846 1.096 1.414.266.567.419 1.225.456 1.975h.197a4.886 4.886 0 0 1 .625-1.92 4.645 4.645 0 0 1 1.263-1.412 5.978 5.978 0 0 1 1.686-.865 6.144 6.144 0 0 1 1.93-.303c1.246 0 2.262.183 3.048.549.786.365 1.4.827 1.84 1.385.44.558.742 1.162.905 1.814.164.652.246 1.263.246 1.835v3.952c0 .497.087.85.26 1.061.173.211.508.317 1.004.317h.744V22.4h-9.718v-8.986c0-.366-.04-.659-.119-.879-.08-.22-.18-.389-.302-.506a.894.894 0 0 0-.428-.232 2.109 2.109 0 0 0-.47-.056c-.619 0-1.042.178-1.272.534-.229.356-.344.862-.344 1.519v2.01zm21.543-.282c.037 1.397.302 2.36.793 2.89.492.53 1.196.795 2.114.795.308 0 .61-.045.905-.134.295-.089.569-.234.822-.436.253-.201.47-.468.653-.801.182-.333.302-.753.358-1.259h5.112c-.188 1.21-.532 2.222-1.033 3.038a6.083 6.083 0 0 1-1.93 1.975c-.787.502-1.702.863-2.746 1.083-1.044.22-2.207.33-3.49.33-1.32 0-2.56-.168-3.721-.506-1.161-.337-2.18-.85-3.054-1.54a7.17 7.17 0 0 1-2.058-2.601c-.496-1.045-.744-2.29-.744-3.734 0-1.378.234-2.587.702-3.628a7.103 7.103 0 0 1 1.973-2.608c.847-.699 1.85-1.226 3.005-1.582 1.157-.357 2.428-.535 3.813-.535 1.704 0 3.17.225 4.396.675 1.226.45 2.228 1.078 3.005 1.885.777.806 1.348 1.776 1.713 2.91.365 1.135.538 2.396.52 3.783H117.84zm2.078-5.456c-.655 0-1.14.232-1.453.696-.314.464-.522 1.23-.625 2.3h4.114c-.056-.92-.253-1.648-.59-2.187-.337-.54-.819-.809-1.446-.809zm23.733 3.347c0-.366-.045-.659-.134-.879a1.294 1.294 0 0 0-.337-.506 1.033 1.033 0 0 0-.456-.232 2.26 2.26 0 0 0-.491-.056c-.609 0-1.063.178-1.363.534-.3.356-.45.862-.45 1.519v2.01c0 .498.088.851.26 1.062.174.211.509.317 1.005.317h.758V22.4h-11.74v-5.217h.829c.383 0 .676-.124.877-.373.202-.248.302-.546.302-.893v-2.672c0-.44-.128-.738-.386-.893a1.67 1.67 0 0 0-.878-.232h-.744V6.903h8.342l-.295 3.867h.239c.206-1.443.837-2.554 1.895-3.332 1.058-.779 2.495-1.168 4.312-1.168 1.282 0 2.326.183 3.131.549.805.365 1.43.827 1.875 1.385.445.558.747 1.162.906 1.814.159.652.238 1.263.238 1.835v3.952c0 .497.087.85.26 1.061.173.211.508.317 1.004.317h.759V22.4h-9.718v-8.986zm20.405-11.728v5.217h4.198v5.217h-4.198v4.318c0 .618.086 1.124.26 1.518.173.394.53.59 1.074.59.3 0 .54-.058.723-.175.182-.117.328-.272.435-.464.108-.192.176-.412.204-.66.028-.25.042-.519.042-.81v-2.095h1.615v2.264c0 .91-.096 1.758-.288 2.546-.192.787-.52 1.467-.983 2.039-.463.572-1.093 1.026-1.889 1.364-.796.337-1.797.506-3.005.506-1.339 0-2.406-.164-3.202-.492-.796-.328-1.4-.778-1.811-1.35-.412-.572-.682-1.252-.808-2.04a16.277 16.277 0 0 1-.19-2.573V12.12h-2.204V7.48c.702 0 1.355-.153 1.959-.457a4.717 4.717 0 0 0 1.559-1.266 6.046 6.046 0 0 0 1.01-1.85 6.782 6.782 0 0 0 .359-2.221h5.14zm34.77 14.119c0 .497.087.85.26 1.061.173.211.508.317 1.004.317h.464V22.4h-9.437v-8.986c0-.366-.038-.659-.113-.879a1.204 1.204 0 0 0-.302-.506.939.939 0 0 0-.435-.232 2.109 2.109 0 0 0-.47-.056c-.618 0-1.042.178-1.271.534-.23.356-.344.862-.344 1.519v2.01c0 .498.086.851.26 1.062.173.211.507.317 1.004.317h.463V22.4h-11.445v-5.217h.828c.384 0 .677-.124.878-.373.201-.248.302-.546.302-.893v-2.672c0-.44-.129-.738-.386-.893a1.67 1.67 0 0 0-.878-.232h-.744V6.903h8.341l-.295 3.867h.24c.205-1.443.788-2.554 1.748-3.332.96-.779 2.352-1.168 4.177-1.168a6.49 6.49 0 0 1 1.917.275 4.684 4.684 0 0 1 1.587.836c.464.375.829.846 1.096 1.414.266.567.419 1.225.456 1.975h.197a4.886 4.886 0 0 1 .624-1.92 4.645 4.645 0 0 1 1.264-1.412 5.978 5.978 0 0 1 1.686-.865 6.144 6.144 0 0 1 1.93-.303c1.246 0 2.261.183 3.048.549.786.365 1.4.827 1.84 1.385.44.558.741 1.162.905 1.814.164.652.246 1.263.246 1.835v3.952c0 .497.087.85.26 1.061.173.211.508.317 1.004.317h.744V22.4h-9.718v-8.986c0-.366-.04-.659-.119-.879-.08-.22-.18-.389-.302-.506a.894.894 0 0 0-.428-.232 2.109 2.109 0 0 0-.47-.056c-.619 0-1.042.178-1.272.534-.229.356-.344.862-.344 1.519v2.01zm23.902-8.902v8.761c0 .628.154 1.038.463 1.23.31.193.702.289 1.18.289h.379V22.4h-11.824v-5.217h.547c.496 0 .864-.157 1.103-.471a1.65 1.65 0 0 0 .358-1.02V13.71c0-.543-.171-.944-.513-1.202a1.916 1.916 0 0 0-1.186-.387h-.31V6.903h9.803zm-8.019-3.46c0-.806.307-1.495.92-2.066.613-.572 1.486-.858 2.619-.858 1.152 0 2.039.286 2.661.858.623.571.934 1.26.934 2.067 0 .825-.311 1.52-.934 2.088-.622.567-1.51.85-2.661.85-1.133 0-2.006-.283-2.62-.85-.612-.567-.919-1.263-.919-2.088zm18.916 12.08c.038 1.397.302 2.36.794 2.89.491.53 1.196.795 2.113.795.31 0 .611-.045.906-.134.295-.089.569-.234.821-.436.253-.201.47-.468.653-.801.183-.333.302-.753.359-1.259h5.111c-.187 1.21-.531 2.222-1.032 3.038a6.083 6.083 0 0 1-1.93 1.975c-.787.502-1.702.863-2.746 1.083-1.044.22-2.207.33-3.49.33-1.32 0-2.56-.168-3.721-.506-1.161-.337-2.18-.85-3.055-1.54a7.17 7.17 0 0 1-2.057-2.601c-.496-1.045-.744-2.29-.744-3.734 0-1.378.234-2.587.702-3.628a7.103 7.103 0 0 1 1.973-2.608c.847-.699 1.849-1.226 3.005-1.582 1.156-.357 2.427-.535 3.813-.535 1.704 0 3.169.225 4.395.675 1.227.45 2.228 1.078 3.005 1.885.778.806 1.349 1.776 1.714 2.91.365 1.135.538 2.396.52 3.783h-11.109zm2.079-5.456c-.656 0-1.14.232-1.454.696-.314.464-.522 1.23-.625 2.3h4.115c-.056-.92-.253-1.648-.59-2.187-.337-.54-.82-.809-1.446-.809zm30.571 5.99c0 .45.13.75.387.9.257.15.55.226.877.226h.745V22.4h-8.342v-3.853h-.225c-.215 1.434-.8 2.522-1.755 3.262-.955.741-2.345 1.111-4.17 1.111-1.283 0-2.327-.182-3.132-.548-.806-.366-1.428-.827-1.868-1.385a4.796 4.796 0 0 1-.906-1.814 7.543 7.543 0 0 1-.246-1.835v-3.84c0-.496-.086-.85-.26-1.061-.173-.211-.507-.317-1.004-.317h-.842V6.903h9.816v8.874c0 .365.042.658.126.878.085.22.195.39.33.507.136.117.29.194.464.232.173.037.334.056.484.056.618 0 1.075-.178 1.37-.534.294-.357.442-.863.442-1.52v-1.898c0-.496-.087-.85-.26-1.061-.173-.211-.508-.317-1.004-.317h-.829V6.903h9.802v9.155zm15.04-2.727l.548-.38c.131-.094.298-.218.499-.373.201-.154.302-.307.302-.457 0-.197-.155-.295-.464-.295V6.903h6.91v4.922c-.253 0-.536.059-.85.176-.314.117-.63.258-.948.422-.318.164-.637.342-.955.534-.318.192-.599.373-.842.541l-1.952 1.294 2.092 1.364c.197.113.405.246.625.401.22.155.468.298.744.429.276.131.597.246.962.344.365.099.787.148 1.264.148V22.4h-11.937v-4.922c.253 0 .466-.054.64-.162.173-.107.26-.246.26-.414 0-.141-.064-.282-.19-.422a1.943 1.943 0 0 0-.415-.352l-.323-.21-.28.21a4.57 4.57 0 0 0-.668.485c-.248.211-.372.392-.372.542 0 .215.145.323.436.323V22.4h-6.77v-4.922c.216 0 .467-.063.752-.19.286-.126.583-.276.892-.45.309-.173.615-.36.92-.562l.835-.556 1.98-1.293-1.896-1.266a13.331 13.331 0 0 0-1.453-.872 3.952 3.952 0 0 0-1.875-.464V6.903h11.502v4.922c-.216 0-.4.05-.555.148-.155.098-.232.222-.232.372 0 .16.054.3.162.422.107.122.255.263.442.422l.21.14zM55.563 32.32v5.328h1.15c1.942 0 2.541-.6 2.541-2.664s-.599-2.664-2.54-2.664h-1.15zm0 14.88h-2.972V29.872h4.267c3.667 0 5.368 1.416 5.368 5.112s-1.701 5.112-5.368 5.112h-1.295V47.2zm14.114-14.88v5.328h1.055c1.606 0 2.205-.6 2.205-2.664s-.6-2.664-2.205-2.664h-1.055zm0 7.776V47.2h-2.972V29.872h4.17c3.332 0 5.034 1.416 5.034 5.112 0 2.784-1.079 3.912-2.085 4.368L76.34 47.2h-3.02l-2.109-7.176c-.383.048-1.007.072-1.534.072zM89.112 47.2h-8.293V29.872h7.957v2.592h-4.985v4.464h3.835v2.592H83.79v5.088h5.32V47.2zm7.163 0h-2.684V29.872h2.756l3.62 9.912h.047v-9.912h2.684V47.2h-2.588l-3.787-10.824h-.048V47.2zm14.402-14.88v12.432h1.03c1.582 0 2.133-.6 2.133-2.424v-7.584c0-1.824-.55-2.424-2.133-2.424h-1.03zm-2.972 14.88V29.872h4.41c3.067 0 4.697 1.68 4.697 5.232v6.864c0 3.552-1.63 5.232-4.697 5.232h-4.41zm17.086-14.88v5.328h1.054c1.606 0 2.205-.6 2.205-2.664s-.6-2.664-2.205-2.664h-1.054zm0 7.776V47.2h-2.972V29.872h4.17c3.331 0 5.033 1.416 5.033 5.112 0 2.784-1.079 3.912-2.085 4.368l2.516 7.848h-3.02l-2.109-7.176c-.383.048-1.006.072-1.533.072zm19.434 7.104h-8.292V29.872h7.957v2.592h-4.986v4.464h3.835v2.592h-3.835v5.088h5.321V47.2zM164.4 33.832l-2.828.312c-.12-1.488-.91-1.92-1.582-1.92-.959 0-1.486.624-1.486 1.704 0 2.952 6.04 4.368 6.04 9.072 0 2.856-1.918 4.44-4.698 4.44-2.756 0-4.338-2.208-4.458-4.8l2.828-.408c.12 1.752.815 2.616 1.774 2.616 1.03 0 1.726-.552 1.726-1.584 0-3.432-6.04-4.344-6.04-9.312 0-2.76 1.678-4.32 4.602-4.32 2.42 0 3.858 1.752 4.122 4.2zM168.927 43v-8.928c0-2.448 1.438-4.44 4.554-4.44 3.115 0 4.553 1.992 4.553 4.44V43c0 2.448-1.438 4.44-4.553 4.44-3.116 0-4.554-1.992-4.554-4.44zm2.972-8.856v8.784c0 1.296.383 1.92 1.582 1.92 1.198 0 1.582-.624 1.582-1.92v-8.784c0-1.296-.384-1.92-1.582-1.92-1.199 0-1.582.624-1.582 1.92zM186.42 47.2h-2.972V29.872h2.972V47.2zm8.098 0h-2.684V29.872h2.756l3.62 9.912h.047v-9.912h2.685V47.2h-2.589l-3.787-10.824h-.048V47.2zm21.853-14.88v12.432h1.03c1.582 0 2.134-.6 2.134-2.424v-7.584c0-1.824-.552-2.424-2.134-2.424h-1.03zm-2.972 14.88V29.872h4.41c3.068 0 4.697 1.68 4.697 5.232v6.864c0 3.552-1.63 5.232-4.697 5.232h-4.41zm22.406 0h-8.292V29.872h7.957v2.592h-4.985v4.464h3.834v2.592h-3.834v5.088h5.32V47.2z"/>
        <ellipse cx="33.554" cy="38.4" fill="#FFF" opacity=".65" rx="3.196" ry="3.2"/>
        <ellipse cx="253.251" cy="38.4" fill="#FFF" opacity=".65" rx="3.196" ry="3.2"/>
        <path fill="#FFE360" d="M19.58 61.507c0-.524-.063-.944-.19-1.26-.128-.317-.29-.559-.484-.727a1.483 1.483 0 0 0-.655-.333 3.242 3.242 0 0 0-.705-.08c-.873 0-1.525.255-1.955.766-.43.511-.645 1.238-.645 2.18v2.884c0 .713.125 1.221.373 1.524.249.302.729.454 1.44.454h1.089V74.4H1.004v-7.485h1.189c.55 0 .97-.179 1.259-.535.289-.356.433-.784.433-1.281v-3.834c0-.632-.185-1.059-.554-1.28a2.397 2.397 0 0 0-1.26-.334H1.005v-7.485h11.968l-.423 5.548h.342c.296-2.071 1.203-3.665 2.72-4.781 1.518-1.117 3.58-1.675 6.186-1.675 1.84 0 3.338.262 4.493.787 1.155.524 2.052 1.187 2.69 1.987a6.69 6.69 0 0 1 1.3 2.603c.228.935.342 1.812.342 2.633v5.67c0 .712.124 1.22.373 1.523.248.302.728.454 1.44.454h1.088V74.4H19.581V61.507zm15.972 1.736c0-1.978.343-3.713 1.028-5.206a10.02 10.02 0 0 1 2.931-3.743c1.27-1.002 2.797-1.758 4.584-2.27 1.786-.51 3.781-.766 5.984-.766s4.198.256 5.984.767c1.787.51 3.311 1.267 4.574 2.27a10.157 10.157 0 0 1 2.931 3.742c.692 1.493 1.038 3.228 1.038 5.206 0 1.95-.346 3.678-1.038 5.185a10.294 10.294 0 0 1-2.931 3.783c-1.263 1.015-2.787 1.779-4.574 2.29-1.786.511-3.781.767-5.984.767s-4.198-.256-5.984-.767c-1.787-.511-3.314-1.275-4.584-2.29a10.155 10.155 0 0 1-2.931-3.783c-.685-1.507-1.028-3.235-1.028-5.185zm11.464 0c0 1.13.05 2.088.152 2.875.1.787.265 1.419.493 1.896.229.478.537.827.927 1.05.39.221.887.332 1.491.332.604 0 1.098-.11 1.48-.333.384-.222.693-.571.928-1.049.235-.477.4-1.11.493-1.896.094-.787.141-1.746.141-2.875 0-2.26-.211-3.844-.634-4.752-.423-.908-1.226-1.362-2.408-1.362-.604 0-1.101.104-1.491.313-.39.208-.698.551-.927 1.029-.228.477-.393 1.11-.493 1.896-.101.787-.152 1.746-.152 2.876zm43.736-3.713h-5.54c-.39-.968-.995-1.735-1.814-2.3-.82-.565-1.672-.847-2.559-.847-.604 0-1.084.11-1.44.333-.356.222-.534.554-.534.998 0 .552.309.965.927 1.241.617.276 1.393.521 2.327.737.933.215 1.944.474 3.032.776 1.088.303 2.099.737 3.032 1.302a7.175 7.175 0 0 1 2.327 2.28c.618.955.927 2.212.927 3.773 0 1.21-.268 2.266-.806 3.167a6.513 6.513 0 0 1-2.206 2.22c-.933.578-2.031 1.012-3.294 1.301-1.263.29-2.626.434-4.09.434-1.424 0-2.77-.138-4.04-.414a12.774 12.774 0 0 1-3.637-1.402l-.201 1.392h-5.32v-8.09h5.521c.524 1.075 1.186 1.91 1.985 2.501a4.35 4.35 0 0 0 2.65.888c.738 0 1.265-.138 1.581-.414.316-.275.473-.581.473-.918 0-.551-.308-.978-.926-1.28-.618-.303-1.38-.572-2.287-.808-.907-.235-1.904-.498-2.992-.787a11.315 11.315 0 0 1-2.992-1.26 7.23 7.23 0 0 1-2.287-2.23c-.618-.935-.927-2.162-.927-3.682 0-1.09.245-2.085.736-2.986.49-.902 1.192-1.662 2.105-2.28.913-.619 1.988-1.093 3.224-1.423 1.236-.33 2.592-.494 4.07-.494 1.652 0 3.14.185 4.463.555 1.323.37 2.313.777 2.971 1.22l.202-1.432h5.34v7.93zm27.33-4.56c-.686 0-1.274.05-1.764.152-.49.1-.91.218-1.26.353a3.71 3.71 0 0 0-.866.454c-.228.168-.43.32-.604.454l.201.201c.256-.134.534-.269.837-.403.302-.135.688-.202 1.158-.202.793 0 1.478.26 2.055.777.578.518.867 1.342.867 2.472 0 1.076-.44 1.94-1.32 2.592-.88.653-2.059.979-3.536.979-1.41 0-2.535-.407-3.375-1.22-.84-.815-1.26-1.968-1.26-3.461 0-.82.23-1.638.686-2.452.457-.813 1.165-1.543 2.126-2.189.96-.645 2.182-1.177 3.667-1.594 1.484-.417 3.274-.625 5.369-.625 2.498 0 4.54.235 6.125.706 1.585.47 2.818 1.076 3.697 1.816.88.74 1.485 1.58 1.814 2.522.329.942.493 1.89.493 2.845v7.889c0 1.224.04 2.054.121 2.491.08.438.383.656.907.656.416 0 .708-.198.876-.595.168-.397.252-1.08.252-2.048v-2.522h2.297v2.562c0 1.211-.1 2.284-.302 3.219-.202.934-.584 1.735-1.149 2.4-.564.666-1.33 1.17-2.296 1.514-.968.343-2.203.514-3.708.514-1.356 0-2.481-.144-3.375-.434-.893-.289-1.601-.649-2.125-1.079-.524-.43-.897-.878-1.118-1.342-.222-.464-.333-.877-.333-1.24h-.322c-.08.55-.313 1.076-.695 1.573-.383.498-.914.938-1.592 1.322-.678.383-1.491.692-2.438.928-.947.235-2.025.353-3.234.353-1.155 0-2.206-.111-3.153-.333-.947-.222-1.753-.572-2.418-1.05a4.859 4.859 0 0 1-1.551-1.855c-.37-.76-.554-1.665-.554-2.714 0-1.291.362-2.31 1.088-3.057.725-.746 1.638-1.338 2.74-1.775 1.101-.437 2.3-.794 3.596-1.07a28.62 28.62 0 0 0 3.597-.998c1.101-.39 2.015-.895 2.74-1.513.725-.62 1.088-1.494 1.088-2.623 0-1.01-.316-1.82-.947-2.432-.631-.612-1.666-.918-3.103-.918zm4.049 8.737a3.48 3.48 0 0 1-1.108 1.039c-.444.262-.87.518-1.28.766-.41.25-.765.545-1.068.888-.302.343-.453.804-.453 1.382 0 .444.121.844.363 1.2.242.357.712.535 1.41.535.632 0 1.145-.245 1.542-.736.396-.491.594-1.18.594-2.068v-3.006zm31.707-11.541v12.57c0 .9.222 1.49.665 1.765.443.276 1.007.414 1.693.414h.544V74.4h-16.965v-7.485h.785c.712 0 1.24-.226 1.582-.676.343-.45.514-.938.514-1.463v-2.845c0-.78-.245-1.355-.736-1.725a2.75 2.75 0 0 0-1.702-.555h-.443v-7.485h14.063zm-10.175-8.979h6.246l4.977 6.235h-4.896l-3.224-2.24-3.183 2.24h-4.896l4.976-6.235zm34.508 18.32c0-.524-.064-.944-.191-1.26-.128-.317-.29-.559-.484-.727a1.483 1.483 0 0 0-.655-.333 3.242 3.242 0 0 0-.705-.08c-.873 0-1.524.255-1.954.766-.43.511-.645 1.238-.645 2.18v2.884c0 .713.124 1.221.373 1.524.248.302.728.454 1.44.454h1.088V74.4h-16.844v-7.485h1.19c.55 0 .97-.179 1.258-.535.29-.356.434-.784.434-1.281v-3.834c0-.632-.185-1.059-.555-1.28a2.397 2.397 0 0 0-1.259-.334h-1.068v-7.485h11.968l-.423 5.548h.343c.295-2.071 1.202-3.665 2.72-4.781 1.518-1.117 3.58-1.675 6.185-1.675 1.84 0 3.338.262 4.494.787 1.155.524 2.051 1.187 2.69 1.987a6.69 6.69 0 0 1 1.299 2.603c.228.935.342 1.812.342 2.633v5.67c0 .712.125 1.22.373 1.523.249.302.729.454 1.44.454h1.089V74.4H178.17V61.507zm27.476 3.027c.054 2.004.433 3.386 1.139 4.146.705.76 1.716 1.14 3.032 1.14.443 0 .876-.064 1.3-.192a3.504 3.504 0 0 0 1.178-.625c.363-.29.675-.673.937-1.15.262-.478.433-1.08.514-1.806h7.334c-.269 1.735-.762 3.188-1.481 4.358a8.728 8.728 0 0 1-2.77 2.835c-1.129.72-2.442 1.237-3.94 1.553-1.497.317-3.166.475-5.006.475-1.894 0-3.674-.243-5.34-.727-1.665-.484-3.126-1.22-4.382-2.21-1.256-.988-2.24-2.232-2.952-3.732-.711-1.5-1.067-3.285-1.067-5.356 0-1.978.335-3.713 1.007-5.206.672-1.493 1.615-2.74 2.83-3.743 1.216-1.002 2.654-1.758 4.313-2.27 1.658-.51 3.482-.766 5.47-.766 2.445 0 4.547.323 6.306.968 1.76.646 3.197 1.547 4.312 2.704 1.115 1.157 1.934 2.549 2.458 4.176.524 1.628.772 3.437.746 5.428h-15.938zm2.982-7.828c-.94 0-1.635.332-2.085.998-.45.666-.749 1.766-.897 3.299h5.904c-.08-1.318-.363-2.364-.846-3.137-.484-.774-1.176-1.16-2.076-1.16zm8.825-13.539l-7.374 6.235h-4.957l4.211-6.235h8.12zm30.317 16.363h-5.54c-.39-.968-.995-1.735-1.814-2.3-.82-.565-1.672-.847-2.559-.847-.604 0-1.084.11-1.44.333-.356.222-.534.554-.534.998 0 .552.309.965.927 1.241.617.276 1.393.521 2.327.737.933.215 1.944.474 3.032.776 1.088.303 2.099.737 3.032 1.302a7.175 7.175 0 0 1 2.327 2.28c.618.955.927 2.212.927 3.773 0 1.21-.268 2.266-.806 3.167a6.513 6.513 0 0 1-2.206 2.22c-.933.578-2.032 1.012-3.294 1.301-1.263.29-2.626.434-4.09.434-1.424 0-2.77-.138-4.04-.414a12.774 12.774 0 0 1-3.637-1.402l-.201 1.392h-5.32v-8.09h5.521c.524 1.075 1.186 1.91 1.985 2.501a4.35 4.35 0 0 0 2.65.888c.738 0 1.265-.138 1.581-.414.316-.275.473-.581.473-.918 0-.551-.308-.978-.926-1.28-.618-.303-1.38-.572-2.287-.808-.907-.235-1.904-.498-2.992-.787a11.315 11.315 0 0 1-2.992-1.26 7.23 7.23 0 0 1-2.287-2.23c-.618-.935-.927-2.162-.927-3.682 0-1.09.245-2.085.735-2.986.49-.902 1.193-1.662 2.106-2.28.913-.619 1.988-1.093 3.224-1.423 1.235-.33 2.592-.494 4.07-.494 1.652 0 3.14.185 4.463.555 1.323.37 2.313.777 2.971 1.22l.202-1.432h5.34v7.93zm40.425-7.404c0 1.237-.241 2.31-.725 3.218a8.479 8.479 0 0 1-1.843 2.36 14.942 14.942 0 0 1-2.368 1.735c-.833.491-1.622.965-2.367 1.423-.746.457-1.36.921-1.844 1.392-.483.47-.725 1.009-.725 1.614h-5.682c0-1.076.107-2.02.322-2.835.215-.813.49-1.53.826-2.148.336-.62.702-1.184 1.099-1.695.396-.511.758-1.023 1.088-1.534.329-.51.604-1.035.826-1.573.221-.538.332-1.15.332-1.836 0-.686-.151-1.278-.453-1.776a2.942 2.942 0 0 0-1.179-1.12c-.484-.249-1.034-.373-1.652-.373-.618 0-1.23.155-1.834.464.82.242 1.464.639 1.935 1.19.47.552.705 1.339.705 2.361 0 .47-.104.925-.313 1.362a3.91 3.91 0 0 1-.906 1.2c-.396.364-.897.646-1.501.848-.605.202-1.296.303-2.076.303a7.442 7.442 0 0 1-1.773-.222 4.294 4.294 0 0 1-1.642-.797c-.49-.384-.896-.902-1.219-1.554-.322-.652-.483-1.456-.483-2.411 0-1.184.299-2.24.896-3.168.598-.928 1.424-1.708 2.479-2.34 1.054-.632 2.317-1.113 3.788-1.443 1.47-.33 3.086-.494 4.845-.494 3.828 0 6.693.683 8.594 2.048 1.9 1.365 2.85 3.299 2.85 5.8zm-17.79 18.017a4.9 4.9 0 0 1 .413-1.977 5.255 5.255 0 0 1 1.098-1.635 5.314 5.314 0 0 1 1.611-1.1 4.838 4.838 0 0 1 1.995-.413c.685 0 1.343.138 1.975.414a5.247 5.247 0 0 1 1.632 1.1 5.255 5.255 0 0 1 1.098 1.634 4.9 4.9 0 0 1 .413 1.977c0 .713-.138 1.379-.413 1.997a5.322 5.322 0 0 1-1.098 1.614c-.457.458-1.001.824-1.632 1.1a4.882 4.882 0 0 1-1.975.414 4.838 4.838 0 0 1-1.995-.414 5.314 5.314 0 0 1-1.611-1.1 5.322 5.322 0 0 1-1.098-1.614 4.856 4.856 0 0 1-.414-1.997z"/>
    </g>
</svg>
