<svg xmlns="http://www.w3.org/2000/svg" x="0px" y="0px" viewBox="0 0 132 28">
<path d="M12.6,26.8l-4.7-11H5.7L1,26.8h2.5l1-2.5h4.6l1,2.5H12.6z M8.2,22.2H5.3l1.5-3.5L8.2,22.2z M23.6,25l-1.5-1.5
	c-0.9,0.8-1.6,1.3-2.9,1.3c-1.9,0-3.2-1.6-3.2-3.4v0c0-1.9,1.3-3.4,3.2-3.4c1.1,0,2,0.5,2.8,1.2l1.5-1.8c-1-1-2.2-1.7-4.3-1.7
	c-3.4,0-5.7,2.5-5.7,5.7v0c0,3.1,2.4,5.6,5.6,5.6C21.3,26.9,22.5,26.2,23.6,25L23.6,25z M35.3,25l-1.5-1.5c-0.9,0.8-1.6,1.3-2.9,1.3
	c-1.9,0-3.2-1.6-3.2-3.4v0c0-1.9,1.3-3.4,3.2-3.4c1.1,0,2,0.5,2.8,1.2l1.5-1.8c-1-1-2.2-1.7-4.3-1.7c-3.4,0-5.7,2.5-5.7,5.7v0
	c0,3.1,2.4,5.6,5.6,5.6C32.9,26.9,34.2,26.2,35.3,25L35.3,25z M48.5,21.3L48.5,21.3c0-3.1-2.4-5.7-5.8-5.7c-3.4,0-5.8,2.5-5.8,5.7v0
	c0,3.1,2.4,5.6,5.8,5.6C46.1,26.9,48.5,24.4,48.5,21.3L48.5,21.3z M46,21.3c0,1.9-1.3,3.4-3.3,3.4s-3.3-1.6-3.3-3.4v0
	c0-1.9,1.3-3.4,3.3-3.4C44.6,17.9,46,19.4,46,21.3L46,21.3L46,21.3z M60.6,26.8l-2.7-3.9c1.4-0.5,2.3-1.6,2.3-3.4v0
	c0-2.2-1.5-3.6-4.1-3.6h-5v10.9h2.4v-3.5h1.9l2.3,3.5L60.6,26.8L60.6,26.8z M57.8,19.6c0,0.9-0.7,1.5-1.8,1.5h-2.4V18h2.4
	C57.1,18,57.8,18.5,57.8,19.6L57.8,19.6L57.8,19.6z"/>
<path d="M57.6,10.5c0,0.1,0.6,0.1,1.2,0.1c2.3,0,4.6-0.2,6.8-0.7c2.9-0.7,3.7-1.7,5.3-2.6c3.3-1.9,7.5-1.5,7.5-1.8
	c0-0.1-0.1-0.1-1.2-0.4c-0.1-0.4-0.7-0.7-1.3-0.7c-1.4,0-3.6,1.6-5.6,1.6c-0.2,0-0.4,0-0.6-0.1C68.8,4.3,67,3,64.7,2.7
	c-1.3-0.2-2.2-0.3-3-0.5c-2.6-0.5-3.3-1.2-3.6-1.2c-0.1,0-0.1,0.1-0.1,0.1c0,0.5,0.9,1.9,2.3,3.5c0.9,1,2.5,2.6,2.5,3.3
	c0,0.4-0.9,0.9-2.5,1.6C58.4,10.4,57.6,10.4,57.6,10.5"/>
<path d="M75.6,26.8V15.8h-2.4v4.3h-5.5v-4.3h-2.4v10.9h2.4v-4.4h5.5v4.4H75.6z M89.8,21.3L89.8,21.3c0-3.1-2.4-5.7-5.8-5.7
	c-3.4,0-5.8,2.5-5.8,5.7v0c0,3.1,2.4,5.6,5.8,5.6C87.4,26.9,89.8,24.4,89.8,21.3L89.8,21.3z M87.3,21.3c0,1.9-1.3,3.4-3.3,3.4
	c-1.9,0-3.3-1.6-3.3-3.4v0c0-1.9,1.3-3.4,3.3-3.4C85.9,17.9,87.3,19.4,87.3,21.3L87.3,21.3L87.3,21.3z M100.2,18v-2.2h-9.1V18h3.3
	v8.7h2.4V18H100.2z M110.9,26.8v-2.1h-5.9v-2.3h5.2v-2.1h-5.2V18h5.9v-2.1h-8.2v10.9H110.9z M120.8,26.8v-2.2h-4.9v-8.7h-2.4v10.9
	H120.8z M131,23.5L131,23.5c0-1.9-1.2-2.7-3.5-3.3c-1.9-0.5-2.4-0.7-2.4-1.4v0c0-0.5,0.5-1,1.4-1c0.9,0,1.9,0.4,2.8,1.1l1.2-1.8
	c-1.1-0.9-2.5-1.4-4.1-1.4c-2.2,0-3.8,1.3-3.8,3.3v0c0,2.2,1.4,2.8,3.6,3.3c1.8,0.5,2.2,0.8,2.2,1.4v0c0,0.6-0.6,1-1.6,1
	c-1.2,0-2.3-0.5-3.3-1.3l-1.4,1.7c1.3,1.2,3,1.7,4.6,1.7C129.3,26.9,131,25.7,131,23.5L131,23.5z"/>
</svg>
