<svg xmlns="http://www.w3.org/2000/svg" x="0px" y="0px" viewBox="0 0 120 25">
<style type="text/css">
	.st0{opacity:0.5;}
</style>
<path d="M80.8,21c-0.6,0.5-1.4,0.8-2.3,0.8c-0.7,0-1.2-0.1-1.5-0.4c-0.4-0.3-0.5-0.7-0.5-1.2c0-0.6,0.2-1,0.7-1.3
	c0.4-0.3,1-0.4,1.7-0.4c0.9,0,1.9,0.2,2.9,0.5C81.8,19.8,81.4,20.5,80.8,21 M82.7,13.3c-0.8-0.7-2-1.1-3.4-1.1
	c-1.3,0-2.3,0.3-3.1,0.9c-0.7,0.5-1.2,1.2-1.5,2c0,0.1,0,0.2,0.1,0.2l2,0.4c0.1,0,0.1,0,0.2-0.1c0.4-0.9,1.2-1.3,2.3-1.3
	c0.8,0,1.4,0.2,1.8,0.6c0.4,0.4,0.6,1,0.6,1.7v0.4c-1.1-0.3-2.1-0.5-3-0.5c-1.3,0-2.4,0.3-3.3,1c-0.9,0.7-1.3,1.6-1.3,2.8
	c0,1.1,0.4,2.1,1.2,2.7c0.8,0.7,1.8,1,2.9,1c1.5,0,2.6-0.4,3.5-1.3v0.9c0,0.1,0.1,0.2,0.2,0.2h1.9c0.1,0,0.2-0.1,0.2-0.2v-2.1v-5.1
	C84,15,83.6,14,82.7,13.3"/>
<path d="M118.4,12.2c-0.1,0-0.4-0.1-0.7-0.1c-0.3,0-0.6,0-1,0.1c-0.3,0.1-0.7,0.2-1,0.4c-0.3,0.2-0.6,0.4-0.9,0.7
	c-0.2,0.2-0.3,0.4-0.4,0.6l-0.1,0.2v-1.5c0-0.1-0.1-0.2-0.2-0.2h-2.1c-0.1,0-0.2,0.1-0.2,0.2v11c0,0.1,0.1,0.2,0.2,0.2h2.1
	c0.1,0,0.2-0.1,0.2-0.2v-5.4c0-0.6,0.1-1.2,0.2-1.6c0.1-0.4,0.4-0.8,0.6-1c0.3-0.3,0.6-0.5,1-0.6c0.4-0.2,0.9-0.2,1.3-0.2
	c0.3,0,0.6,0,0.8,0.1l0,0c0.1,0,0.2-0.1,0.2-0.2v-2.3C118.5,12.3,118.4,12.2,118.4,12.2"/>
<path class="st0" d="M11.5,8.9c0-0.1,0-0.3,0.1-0.4c-1.3-0.9-3-1.3-4.7-1l1-5.8L4.3,1.1C3.9,1.8,2.4,5.2,1.8,8.9
	c-0.5,3-0.5,6.2,1.1,8.5c0.3,0.5,0.8,0.9,1.3,1.3c1.5,1.1,3.2,1.6,4.9,1.3c1.6-0.3,2.9-1.1,3.9-2.2c-0.1-0.1-0.2-0.3-0.3-0.4
	C11,15.2,11,11.9,11.5,8.9"/>
<path class="st0" d="M24.1,12.7c-0.6-3.5-3.9-5.8-7.4-5.2l1-5.8L14,1.1c-0.3,0.7-1.7,3.9-2.4,7.5c1.4,0.9,2.4,2.4,2.7,4.2
	c0.3,1.9-0.2,3.7-1.4,5.1c0.3,0.3,0.6,0.7,1,0.9c1.5,1.1,3.2,1.6,4.9,1.3C22.3,19.5,24.6,16.2,24.1,12.7"/>
<path d="M14.3,12.7C14,10.9,13,9.5,11.6,8.5c0,0.1,0,0.3-0.1,0.4c-0.5,3-0.5,6.2,1.1,8.5c0.1,0.1,0.2,0.3,0.3,0.4
	C14.1,16.4,14.6,14.6,14.3,12.7"/>
<path d="M98.9,18.8h-2.2c-0.1,0-0.1,0-0.2,0.1c-0.3,0.8-0.8,1.5-1.4,2c-0.6,0.5-1.4,0.8-2.5,0.8c-1.4,0-2.6-0.6-3.4-1.7
	c-0.8-1-1.2-2.5-1.2-4.2c0-1.7,0.4-3.1,1.2-4.2c0.8-1,1.9-1.7,3.3-1.7c1,0,1.8,0.3,2.5,0.7c0.6,0.5,1.1,1.2,1.4,2
	c0,0.1,0.1,0.1,0.2,0.1h2.2c0,0,0.1,0,0.1-0.1c0,0,0-0.1,0-0.1l0,0C98.8,11.1,98,9.8,97,9c-1.1-0.9-2.5-1.3-4.2-1.3
	c-2,0-3.8,0.8-5.1,2.2c-1.3,1.4-2.1,3.5-2.1,5.9c0,2.4,0.8,4.5,2.1,5.9c1.3,1.4,3.1,2.2,5.1,2.2c1.7,0,3.2-0.5,4.2-1.3
	c1.1-0.9,1.8-2.1,2.1-3.6l0,0c0,0,0-0.1,0-0.1C99,18.8,99,18.8,98.9,18.8"/>
<path d="M72.4,7.6L72.4,7.6L70.2,8c-0.1,0-0.1,0.1-0.1,0.2v15.4c0,0.1,0.1,0.2,0.2,0.2h2.1c0.1,0,0.2-0.1,0.2-0.2V7.8
	C72.6,7.7,72.5,7.6,72.4,7.6"/>
<path d="M65.7,19.8L65.7,19.8c-0.1,0.3-0.3,0.6-0.5,0.8l0,0c-0.2,0.2-0.5,0.4-0.9,0.6c-0.4,0.1-0.9,0.2-1.6,0.2h-3v-5.1h3l0,0
	c0.7,0,1.3,0.1,1.6,0.2c0.4,0.1,0.7,0.3,0.9,0.6l0,0l0,0c0.2,0.2,0.4,0.5,0.5,0.8c0.1,0.3,0.2,0.6,0.2,1
	C65.9,19.1,65.9,19.5,65.7,19.8z M59.6,10h2h0c0.6,0,1.1,0.1,1.4,0.2c0.3,0.1,0.5,0.3,0.7,0.5l0,0l0,0l0,0c0.3,0.4,0.5,0.8,0.5,1.3
	v0c0,0.5-0.2,0.9-0.5,1.3l0,0l0,0c-0.2,0.2-0.4,0.3-0.7,0.5c-0.2,0.1-0.5,0.1-0.9,0.2h-2.4V10z M68,16.8c-0.3-0.6-0.8-1.2-1.3-1.6
	L66.5,15c-0.2-0.2-0.5-0.3-0.8-0.5l-0.1,0l0-0.1c0.2-0.3,0.5-0.6,0.6-1c0.2-0.5,0.4-1,0.4-1.6l0,0l0,0v0c0-0.6-0.1-1.2-0.4-1.7
	c-0.2-0.5-0.6-1-1-1.4l0,0C65,8.4,64.5,8.1,64,7.9c-0.5-0.2-1.2-0.3-2-0.3h-4.7c-0.1,0-0.2,0.1-0.2,0.2v15.7c0,0.1,0.1,0.2,0.2,0.2
	h5.8c0.8,0,1.5-0.1,2.1-0.3c0.6-0.2,1.1-0.5,1.5-0.8c0.5-0.4,1-1,1.3-1.6c0.1-0.1,0.1-0.3,0.2-0.4l0,0l0-0.1l0,0c0,0,0-0.1,0-0.1
	l0,0c0.2-0.5,0.3-1,0.3-1.5v0l0,0l0,0C68.5,18.1,68.3,17.4,68,16.8z"/>
<path d="M43.4,7.6L43.4,7.6L41.3,8c-0.1,0-0.1,0.1-0.1,0.2v15.4c0,0.1,0.1,0.2,0.2,0.2h2.1c0.1,0,0.2-0.1,0.2-0.2V7.8
	C43.6,7.7,43.5,7.6,43.4,7.6"/>
<path d="M36.8,19.8L36.8,19.8c-0.1,0.3-0.3,0.6-0.5,0.8l0,0c-0.2,0.2-0.5,0.4-0.9,0.6c-0.4,0.1-0.9,0.2-1.6,0.2h-3v-5.1h3l0,0
	c0.7,0,1.3,0.1,1.6,0.2c0.4,0.1,0.7,0.3,0.9,0.6l0,0l0,0c0.2,0.2,0.4,0.5,0.5,0.8c0.1,0.3,0.2,0.6,0.2,1
	C37,19.1,36.9,19.5,36.8,19.8z M30.7,10h2h0c0.6,0,1.1,0.1,1.4,0.2c0.3,0.1,0.5,0.3,0.7,0.5l0,0l0,0l0,0c0.3,0.4,0.5,0.8,0.5,1.3v0
	c0,0.5-0.2,0.9-0.5,1.3l0,0l0,0c-0.2,0.2-0.4,0.3-0.7,0.5c-0.2,0.1-0.5,0.1-0.9,0.2h-2.4V10z M39,16.8c-0.3-0.6-0.8-1.2-1.3-1.6
	L37.6,15c-0.2-0.2-0.5-0.3-0.8-0.5l-0.1,0l0-0.1c0.2-0.3,0.5-0.6,0.6-1c0.2-0.5,0.4-1,0.4-1.6l0,0l0,0v0c0-0.6-0.1-1.2-0.4-1.7
	c-0.2-0.5-0.6-1-1-1.4l0,0C36,8.4,35.6,8.1,35,7.9c-0.5-0.2-1.2-0.3-2-0.3h-4.7c-0.1,0-0.2,0.1-0.2,0.2v15.7c0,0.1,0.1,0.2,0.2,0.2
	h5.8c0.8,0,1.5-0.1,2.1-0.3c0.6-0.2,1.1-0.5,1.5-0.8c0.5-0.4,1-1,1.3-1.6c0.1-0.1,0.1-0.3,0.2-0.4l0,0l0-0.1l0,0c0,0,0-0.1,0-0.1
	l0,0c0.2-0.5,0.3-1,0.3-1.5v0l0,0l0,0C39.5,18.1,39.4,17.4,39,16.8z"/>
<path d="M51.9,21c-0.6,0.5-1.4,0.8-2.3,0.8c-0.7,0-1.2-0.1-1.5-0.4c-0.4-0.3-0.5-0.7-0.5-1.2c0-0.6,0.2-1,0.7-1.3
	c0.4-0.3,1-0.4,1.7-0.4c0.9,0,1.9,0.2,2.9,0.5C52.8,19.8,52.5,20.5,51.9,21 M53.8,13.3c-0.8-0.7-2-1.1-3.4-1.1
	c-1.3,0-2.3,0.3-3.1,0.9c-0.7,0.5-1.2,1.2-1.5,2c0,0.1,0,0.2,0.1,0.2l2,0.4c0.1,0,0.1,0,0.2-0.1c0.4-0.9,1.2-1.3,2.3-1.3
	c0.8,0,1.4,0.2,1.8,0.6c0.4,0.4,0.6,1,0.6,1.7v0.4c-1.1-0.3-2.1-0.5-3-0.5c-1.3,0-2.4,0.3-3.3,1c-0.9,0.7-1.3,1.6-1.3,2.8
	c0,1.1,0.4,2.1,1.2,2.7c0.8,0.7,1.8,1,2.9,1c1.5,0,2.6-0.4,3.5-1.3v0.9c0,0.1,0.1,0.2,0.2,0.2h1.9c0.1,0,0.2-0.1,0.2-0.2v-2.1v-5.1
	C55,15,54.6,14,53.8,13.3"/>
<path d="M107,21c-0.6,0.5-1.4,0.8-2.3,0.8c-0.7,0-1.2-0.1-1.5-0.4c-0.4-0.3-0.5-0.7-0.5-1.2c0-0.6,0.2-1,0.7-1.3
	c0.4-0.3,1-0.4,1.7-0.4c0.9,0,1.9,0.2,2.9,0.5C107.9,19.8,107.6,20.5,107,21 M108.9,13.3c-0.8-0.7-2-1.1-3.4-1.1
	c-1.3,0-2.3,0.3-3.1,0.9c-0.7,0.5-1.2,1.2-1.5,2c0,0.1,0,0.2,0.1,0.2l2,0.4c0.1,0,0.1,0,0.2-0.1c0.4-0.9,1.2-1.3,2.3-1.3
	c0.8,0,1.4,0.2,1.8,0.6c0.4,0.4,0.6,1,0.6,1.7v0.4c-1.1-0.3-2.1-0.5-3-0.5c-1.3,0-2.4,0.3-3.3,1c-0.9,0.7-1.3,1.6-1.3,2.8
	c0,1.1,0.4,2.1,1.2,2.7c0.8,0.7,1.8,1,2.9,1c1.5,0,2.6-0.4,3.5-1.3v0.9c0,0.1,0.1,0.2,0.2,0.2h1.9c0.1,0,0.2-0.1,0.2-0.2v-2.1v-5.1
	C110.1,15,109.7,14,108.9,13.3"/>
</svg>
