<svg xmlns="http://www.w3.org/2000/svg" x="0px" y="0px" viewBox="0 0 146 19.8">
<style type="text/css">
	.st0{fill:#FFFFFF;}
</style>
<polygon points="135.2,18.2 135.2,1.7 1,1.7 1,18.2 "/>
<polygon points="144.9,18.2 144.9,1.7 135.2,1.7 135.2,18.2 "/>
<path class="st0" d="M14.6,8.6c-0.3,1.8-0.4,3.6-0.5,5.4c-0.2,0-0.4-0.1-0.6-0.1c-0.2,0-0.4,0-0.6,0.1c0.6-2.7,1-5.5,1.4-8.2
	c0.2,0,0.4,0.1,0.5,0.1c0.2,0,0.4,0,0.5-0.1c1,1.9,2.1,4,3,5.7c1-1.8,2.1-3.8,3.1-5.7c0.2,0,0.4,0.1,0.6,0.1c0.2,0,0.4,0,0.6-0.1
	c0.3,2.7,0.8,6.6,1.1,8.2c-0.4,0-0.7-0.1-1.1-0.1s-0.7,0-1.1,0.1c-0.1-1.7-0.3-3.7-0.5-5.5h0c-1,1.9-2,3.7-2.9,5.5
	c-0.1,0-0.2,0-0.2,0c-0.1,0-0.2,0-0.2,0C16.6,12.3,15.7,10.5,14.6,8.6L14.6,8.6z"/>
<path class="st0" d="M33.3,14.1c-0.4,0-0.8-0.1-1.2-0.1c-0.4,0-0.7,0-1.1,0.1c-0.3-0.8-0.6-1.6-0.9-2.4c-0.6,0-1.1,0-1.7,0
	c-0.5,0-0.9,0-1.4,0c-0.4,0.8-0.6,1.6-0.9,2.4c-0.2,0-0.4-0.1-0.6-0.1c-0.2,0-0.4,0-0.7,0.1c0.6-1.3,2.6-5.6,3.7-8.3
	c0.2,0,0.3,0.1,0.5,0.1s0.3,0,0.5-0.1C30.7,8.5,32.3,12.1,33.3,14.1z M29.8,10.9c-0.4-1-0.7-1.9-1.2-2.8c-0.4,0.9-0.9,1.9-1.2,2.8
	H29.8z"/>
<path class="st0" d="M34.7,9.1c0-1.3,0-2.3-0.1-3.3c0.3,0,0.6,0.1,1.1,0.1s0.8,0,1.1-0.1c-0.1,1.1-0.1,2-0.1,3.3v1.6
	c0,1.3,0,2.3,0.1,3.3c-0.3,0-0.6-0.1-1.1-0.1s-0.8,0-1.1,0.1c0.1-1.1,0.1-2,0.1-3.3V9.1z"/>
<path class="st0" d="M41.2,10.3H41v0.5c0,1.3,0,2.3,0.1,3.3c-0.3,0-0.6-0.1-1.1-0.1c-0.4,0-0.8,0-1.1,0.1c0.1-1.1,0.1-2,0.1-3.3V9.1
	c0-1.3,0-2.3-0.1-3.3c0.3,0,0.6,0.1,1.1,0.1c0.5,0,1-0.1,1.9-0.1c1.3,0,1.8,0.1,2.3,0.4c0.5,0.3,0.9,0.9,0.9,1.6
	c0,1.2-0.7,1.9-2,2.2c0.8,1.4,1.8,2.7,2.8,4.1c-0.4,0-0.8-0.1-1.2-0.1c-0.4,0-0.8,0-1.2,0.1L41.2,10.3z M41.1,6.5c0,1.1,0,2.2,0,3.3
	c0.1,0,0.2,0,0.3,0c1.2,0,1.8-0.6,1.8-1.7C43.1,6.7,42.5,6.5,41.1,6.5z"/>
<path class="st0" d="M47.5,9.1c0-1.3,0-2.3-0.1-3.3c0.3,0,0.6,0.1,1.1,0.1s0.8,0,1.1-0.1c-0.1,1.1-0.1,2-0.1,3.3v1.6
	c0,1.3,0,2.3,0.1,3.3c-0.3,0-0.6-0.1-1.1-0.1c-0.4,0-0.8,0-1.1,0.1c0.1-1.1,0.1-2,0.1-3.3V9.1z"/>
<path class="st0" d="M52,9.1c0-1.3,0-2.3-0.1-3.3c0.8,0,1.6,0.1,2.3,0.1c1.3,0,2.4,0,2.7-0.1c0,0.1-0.1,0.3-0.1,0.5
	c0,0.3,0,0.4,0.1,0.5c-1-0.1-2.6-0.1-3-0.1c-0.1,0.9-0.1,1.7-0.1,2.6c1.1,0,2,0,3-0.1c-0.1,0.3-0.1,0.4-0.1,0.5c0,0.1,0,0.2,0.1,0.5
	c-1-0.1-2-0.1-3-0.1c0,0.5,0,1,0,1.5c0,0.5,0,1,0,1.5c1,0,2,0,3-0.2c0,0.2-0.1,0.3-0.1,0.5c0,0.3,0,0.4,0.1,0.5
	c-0.5,0-1.1-0.1-2.3-0.1c-2.1,0-2.5,0-2.8,0.1c0.1-1.1,0.1-2,0.1-3.3L52,9.1L52,9.1z"/>
<path class="st0" d="M62.5,9.1c0-1.3,0-2.3-0.1-3.3c0.3,0,0.6,0.1,1.1,0.1c0.6,0,1.2-0.1,2.4-0.1c3,0,5.1,0.9,5.1,3.9
	c0,2.6-2.1,4.4-4.5,4.4c-1.3,0-2.2-0.1-2.9-0.1c-0.4,0-0.8,0-1.1,0.1c0.1-1.1,0.1-2,0.1-3.3V9.1z M64.4,11c0,0.6,0,2.1,0,2.3
	c0.3,0,0.6,0,1.2,0c2,0,3.2-1.2,3.2-3.7c0-2-1.2-3.2-3-3.2c-0.6,0-1,0-1.4,0.1c0,0.2,0,1.7,0,2.3L64.4,11L64.4,11z"/>
<path class="st0" d="M72.8,9.1c0-1.3,0-2.3-0.1-3.3c0.8,0,1.6,0.1,2.3,0.1c1.3,0,2.4,0,2.7-0.1c0,0.1-0.1,0.3-0.1,0.5
	c0,0.3,0,0.4,0.1,0.5c-1-0.1-2.6-0.1-3-0.1c-0.1,0.9-0.1,1.7-0.1,2.6c1.1,0,2,0,3-0.1c-0.1,0.3-0.1,0.4-0.1,0.5c0,0.1,0,0.2,0.1,0.5
	c-1-0.1-2-0.1-3-0.1c0,0.5,0,1,0,1.5c0,0.5,0,1,0,1.5c1,0,2,0,3-0.2c0,0.2-0.1,0.3-0.1,0.5c0,0.3,0,0.4,0.1,0.5
	c-0.5,0-1.1-0.1-2.3-0.1c-2.1,0-2.5,0-2.8,0.1c0.1-1.1,0.1-2,0.1-3.3L72.8,9.1L72.8,9.1z"/>
<path class="st0" d="M83.6,9.1c0-1.3,0-2.3-0.1-3.3c0.3,0,0.6,0.1,1.1,0.1c0.6,0,1.3-0.1,1.9-0.1c1.2,0,1.9,0.2,2.3,0.5
	c0.6,0.4,0.8,0.9,0.8,1.6c0,1.8-1.4,2.6-3.4,2.6h-0.7c0,1.2,0,2.4,0.1,3.6c-0.3,0-0.6-0.1-1.1-0.1s-0.8,0-1.1,0.1
	c0.1-1.1,0.1-2,0.1-3.3L83.6,9.1L83.6,9.1z M86.1,6.5c-0.2,0-0.4,0-0.6,0c0,1.1,0,2.2,0,3.4c0.9,0,2-0.2,2-1.8
	C87.5,6.9,86.8,6.5,86.1,6.5z"/>
<path class="st0" d="M97.6,14.1c-0.4,0-0.8-0.1-1.2-0.1s-0.7,0-1.1,0.1c-0.3-0.8-0.6-1.6-0.9-2.4c-0.6,0-1.1,0-1.7,0
	c-0.5,0-0.9,0-1.4,0c-0.4,0.8-0.6,1.6-0.9,2.4c-0.2,0-0.4-0.1-0.6-0.1s-0.4,0-0.7,0.1c0.6-1.3,2.6-5.6,3.7-8.3
	c0.2,0,0.3,0.1,0.5,0.1c0.2,0,0.3,0,0.5-0.1C95.1,8.5,96.6,12.1,97.6,14.1z M94.2,10.9c-0.4-1-0.7-1.9-1.2-2.8
	c-0.4,0.9-0.9,1.9-1.2,2.8H94.2z"/>
<path class="st0" d="M101.2,10.3h-0.1v0.5c0,1.3,0,2.3,0.1,3.3c-0.3,0-0.6-0.1-1.1-0.1c-0.4,0-0.8,0-1.1,0.1c0.1-1.1,0.1-2,0.1-3.3
	V9.1c0-1.3,0-2.3-0.1-3.3c0.3,0,0.6,0.1,1.1,0.1c0.5,0,1-0.1,1.9-0.1c1.3,0,1.8,0.1,2.3,0.4c0.5,0.3,0.9,0.9,0.9,1.6
	c0,1.2-0.7,1.9-2,2.2c0.8,1.4,1.8,2.7,2.8,4.1c-0.4,0-0.8-0.1-1.2-0.1s-0.8,0-1.2,0.1L101.2,10.3z M101.1,6.5c0,1.1,0,2.2,0,3.3
	c0.1,0,0.2,0,0.3,0c1.2,0,1.8-0.6,1.8-1.7C103.2,6.7,102.6,6.5,101.1,6.5z"/>
<path class="st0" d="M107.6,9.1c0-1.3,0-2.3-0.1-3.3c0.3,0,0.6,0.1,1.1,0.1s0.8,0,1.1-0.1c-0.1,1.1-0.1,2-0.1,3.3v1.6
	c0,1.3,0,2.3,0.1,3.3c-0.3,0-0.6-0.1-1.1-0.1s-0.8,0-1.1,0.1c0.1-1.1,0.1-2,0.1-3.3V9.1z"/>
<path class="st0" d="M116.1,7.4c-0.3-0.7-0.8-1-1.6-1c-0.8,0-1.4,0.5-1.4,1.1c0,1.8,4,1.3,4,4c0,1.6-1.4,2.7-3.5,2.7
	c-0.9,0-1.7-0.3-2.1-0.5c0.2-0.6,0.3-1,0.4-1.5h0.2c0.1,0.7,0.7,1.3,1.8,1.3c1,0,1.5-0.5,1.5-1.2c0-1.8-3.9-1.3-3.9-4
	c0-1.6,1.4-2.6,3-2.6c0.9,0,1.7,0.2,2.2,0.6c-0.2,0.4-0.3,0.7-0.4,1.2H116.1z"/>
<path class="st0" d="M135.2,1.5l-8.4,4.5c0,0,8.3,1.7,8.3,7.6C135.2,13.7,146,4.7,135.2,1.5z"/>
<path class="st0" d="M135.2,13.7c4.4-0.3,8.6-2.7,7.9-5l1.9,2.5c0,0-0.8,5.5-9.8,7.1c-9-1.7-9.8-7.1-9.8-7.1l1.9-2.5
	C126.6,11,130.8,13.4,135.2,13.7L135.2,13.7z"/>
</svg>
