<?xml version="1.0" encoding="utf-8"?>
<!-- Generator: Adobe Illustrator 21.0.0, SVG Export Plug-In . SVG Version: 6.00 Build 0)  -->
<svg version="1.1" xmlns="http://www.w3.org/2000/svg" xmlns:xlink="http://www.w3.org/1999/xlink" x="0px" y="0px"
	 viewBox="0 0 37 37" style="enable-background:new 0 0 37 37;" xml:space="preserve">
<style type="text/css">
	.st0{fill:#FFFFFF;}
</style>
<polygon points="36,36 1,36 1,1 36,1 "/>
<path class="st0" d="M5.3,33.2c-1.3,0-2.4-0.8-2.4-2.6C2.9,28.8,4,28,5.3,28s2.4,0.8,2.4,2.6C7.7,32.4,6.6,33.2,5.3,33.2 M5.3,29.1
	c-1,0-1.1,0.9-1.1,1.5c0,0.6,0.2,1.5,1.1,1.5s1.1-0.9,1.1-1.5C6.4,30,6.3,29.1,5.3,29.1"/>
<path class="st0" d="M8.6,28.2h1.2v0.6c0.2-0.3,0.8-0.7,1.3-0.7c0.1,0,0.1,0,0.2,0v1.2h-0.1c-0.6,0-1.2,0.1-1.4,0.5V33H8.6V28.2
	L8.6,28.2z"/>
<path class="st0" d="M14.7,32.6c-0.5,0.3-1,0.5-1.6,0.5c-0.9,0-1.4-0.6-1.4-1.4c0-1.1,1-1.7,3.1-1.9v-0.3c0-0.4-0.3-0.6-0.8-0.6
	c-0.5,0-0.9,0.2-1.2,0.6L11.9,29c0.5-0.6,1.1-1,2.1-1c1.3,0,2,0.6,2,1.4c0,0,0,3.5,0,3.5h-1.1L14.7,32.6z M12.9,31.6
	c0,0.3,0.2,0.6,0.6,0.6c0.4,0,0.8-0.2,1.2-0.5v-1.2C13.5,30.7,12.9,31,12.9,31.6L12.9,31.6z"/>
<path class="st0" d="M17,28.3l1.1-0.1l0.1,0.6c0.6-0.4,1.1-0.7,1.7-0.7c1,0,1.5,0.5,1.5,1.6V33h-1.3v-3.2c0-0.6-0.2-0.9-0.6-0.9
	c-0.4,0-0.8,0.2-1.2,0.5V33H17V28.3z"/>
<path class="st0" d="M24.5,32c1,0,1.1-1,1.1-1.6c0-0.8-0.4-1.4-1.1-1.4c-0.5,0-1,0.3-1,1.4C23.5,31,23.6,32,24.5,32z M26.8,28.1v4.6
	c0,0.8-0.1,2.2-2.4,2.2c-1,0-1.8-0.4-2-1.2l1.3-0.2c0.1,0.2,0.2,0.5,0.9,0.5c0.7,0,1-0.3,1-1.1v-0.6l0,0C25.3,32.7,25,33,24.3,33
	c-1.1,0-2-0.8-2-2.4c0-1.6,0.9-2.5,2-2.5c1,0,1.3,0.4,1.4,0.7l0,0l0.1-0.6L26.8,28.1L26.8,28.1z"/>
<path class="st0" d="M29.9,33.1c-1.4,0-2.3-0.9-2.3-2.5c0-1.6,0.9-2.5,2.3-2.5c1.4,0,2.2,0.9,2.2,2.5c0,0.1,0,0.2,0,0.3h-3.2
	c0,0.9,0.4,1.4,1.1,1.4c0.5,0,0.8-0.2,1.1-0.6l0.9,0.5C31.6,32.8,30.9,33.1,29.9,33.1L29.9,33.1z M30.8,30c0-0.7-0.4-1-1-1
	c-0.6,0-0.9,0.4-1,1H30.8z"/>
<path class="st0" d="M34.3,26.3l-0.5,1.2l-0.5-1.2h-0.4v1.6h0.3v-1.3h0l0.5,1.3h0.2l0.5-1.3h0v1.3h0.3v-1.6H34.3L34.3,26.3z
	 M31.3,26.3v0.2h0.5v1.4h0.3v-1.4h0.5v-0.2H31.3z"/>
</svg>
