<svg xmlns="http://www.w3.org/2000/svg" width="306" height="184" viewBox="0 0 306 184">
    <g fill="none" fill-rule="evenodd">
        <path fill="#FFD978" d="M218.532 171.918c-2.903.229-4.145 1.833-3.727 4.812l-5.47 2.847-1.606-.981.157 1.117c-21.072-2.489-45.04-2.449-71.904.12l-8.692.82-1.282 1.32-1.449.136-1.605-.98.157 1.117-1.606-.981-9.983 2.073-2.897.273c-6.77-3.114-11.86-4.52-15.27-4.22l-.629-4.469 2.122-5.793 10.297.161 5.157-5.08 21.876-.997 26.065-2.524 4.66 1.824 5.794-.546 1.292-1.254 1.449-.136.314 2.234 1.448-.137 1.292-1.253 27.985.69-.158-1.117 1.606.981 8.682-.885 1.292-1.254 1.448-.136 3.185 12.218zm-27.609-8.598l-9.802.698.265 1.887 9.802-.698-.265-1.887zm-14.832.132l-8.993.585.266 1.887 8.993-.585-.266-1.887zm-13.136.457l-8.98.67.277 1.973 8.98-.67-.277-1.973zm-57.477 7.82l-7.328.696 3.235 1.882 4.406-.352-.313-2.226z"/>
        <g fill="#000">
            <path d="M123.183 180v-36.25h-7.085v-6.377h21.49v6.376h-7.084V180h-7.32zm18.716-10.332v-21.963c0-6.022 3.542-10.922 11.217-10.922 7.676 0 11.218 4.9 11.218 10.922v21.963c0 6.022-3.542 10.922-11.218 10.922-7.675 0-11.217-4.9-11.217-10.922zm7.32-21.786v21.609c0 3.188.945 4.723 3.897 4.723s3.897-1.535 3.897-4.723v-21.609c0-3.188-.945-4.723-3.897-4.723s-3.896 1.535-3.896 4.723zm22.2 21.373v-31.882h7.32v32.177c0 3.129 1.24 4.664 3.897 4.664s3.897-1.535 3.897-4.664v-32.177h7.321v31.882c0 7.32-4.25 11.335-11.218 11.335-6.966 0-11.217-4.014-11.217-11.335zm49.83-22.14l-6.967.767c-.295-3.66-2.244-4.723-3.897-4.723-2.361 0-3.66 1.535-3.66 4.192 0 7.262 14.878 10.745 14.878 22.317 0 7.026-4.723 10.922-11.572 10.922-6.79 0-10.686-5.431-10.981-11.808l6.966-1.003c.295 4.31 2.008 6.435 4.37 6.435 2.538 0 4.25-1.358 4.25-3.897 0-8.442-14.878-10.686-14.878-22.907 0-6.79 4.133-10.627 11.336-10.627 5.963 0 9.505 4.31 10.155 10.332zM67.926 154.748v5.461h1.181c1.993 0 2.608-.615 2.608-2.73 0-2.116-.615-2.731-2.608-2.731h-1.18zm0 15.252h-3.05v-17.761h4.379c3.764 0 5.51 1.451 5.51 5.24 0 3.788-1.746 5.24-5.51 5.24h-1.329V170zm9.25-4.305v-9.151c0-2.51 1.476-4.551 4.674-4.551 3.198 0 4.674 2.042 4.674 4.55v9.152c0 2.51-1.476 4.551-4.674 4.551-3.198 0-4.674-2.042-4.674-4.551zm3.05-9.077v9.003c0 1.329.394 1.968 1.624 1.968s1.624-.64 1.624-1.968v-9.003c0-1.329-.394-1.968-1.624-1.968s-1.624.64-1.624 1.968zm9.25 8.905v-13.284h3.05v13.407c0 1.304.517 1.943 1.624 1.943 1.107 0 1.624-.64 1.624-1.943v-13.407h3.05v13.284c0 3.05-1.771 4.723-4.674 4.723-2.903 0-4.674-1.673-4.674-4.723zm15.35-10.775v5.461h1.083c1.648 0 2.263-.615 2.263-2.73 0-2.116-.615-2.731-2.263-2.731h-1.083zm0 7.97V170h-3.05v-17.761h4.28c3.42 0 5.166 1.451 5.166 5.24 0 2.853-1.107 4.01-2.14 4.477l2.583 8.044h-3.1l-2.164-7.355c-.394.049-1.033.073-1.575.073zM72.085 47.66l-1.47 9.3h3l-1.47-9.3h-.06zm-2.01 12.54l-.66 4.8h-3.6l3.99-21.66h4.62L78.415 65h-3.6l-.66-4.8h-4.08zm25.22-9.63h-3.72v-1.68c0-1.83-.84-2.61-1.8-2.61-1.5 0-1.98.78-1.98 2.4v10.98c0 1.62.48 2.4 1.98 2.4 1.35 0 1.8-.78 1.8-2.19v-2.61h3.72v2.49c0 3.06-1.8 5.55-5.52 5.55-3.9 0-5.7-2.49-5.7-5.55V48.59c0-3.06 1.8-5.55 5.7-5.55 3.72 0 5.52 2.7 5.52 5.94v1.59zm18.5 0h-3.72v-1.68c0-1.83-.84-2.61-1.8-2.61-1.5 0-1.98.78-1.98 2.4v10.98c0 1.62.48 2.4 1.98 2.4 1.35 0 1.8-.78 1.8-2.19v-2.61h3.72v2.49c0 3.06-1.8 5.55-5.52 5.55-3.9 0-5.7-2.49-5.7-5.55V48.59c0-3.06 1.8-5.55 5.7-5.55 3.72 0 5.52 2.7 5.52 5.94v1.59zM131.455 65h-10.38V43.34h9.96v3.24h-6.24v5.58h4.8v3.24h-4.8v6.36h6.66V65zm-5.52-22.8l-3.93-4.32h4.05l2.37 4.32h-2.49zm22.28 6.09l-3.54.39c-.15-1.86-1.14-2.4-1.98-2.4-1.2 0-1.86.78-1.86 2.13 0 3.69 7.56 5.46 7.56 11.34 0 3.57-2.4 5.55-5.88 5.55-3.45 0-5.43-2.76-5.58-6l3.54-.51c.15 2.19 1.02 3.27 2.22 3.27 1.29 0 2.16-.69 2.16-1.98 0-4.29-7.56-5.43-7.56-11.64 0-3.45 2.1-5.4 5.76-5.4 3.03 0 4.83 2.19 5.16 5.25zm21.49-.63l-1.47 9.3h3l-1.47-9.3h-.06zm-2.01 12.54l-.66 4.8h-3.6l3.99-21.66h4.62l3.99 21.66h-3.6l-.66-4.8h-4.08zm1.68-18l-3.93-4.32h4.05l2.37 4.32h-2.49zm31.87 22.8h-9.57V43.34h3.72v18.42h5.85V65zm10.61-17.34l-1.47 9.3h3l-1.47-9.3h-.06zm-2.01 12.54l-.66 4.8h-3.6l3.99-21.66h4.62l3.99 21.66h-3.6l-.66-4.8h-4.08z" style="mix-blend-mode:multiply"/>
        </g>
        <path fill="#FFF" d="M24.497 94.8c.107.001.167.01.228.07.07.07.07.21-.07.28h-.14c-.07 0-.14-.07-.07-.14l.052-.21zm0 0h-.052l.07-.07-.018.07zm6.878-9.1l-.07-.07h-.07c-.49.49-.42.49-.07.7l.21-.63zm5.88 8.12c0 .07 0 .14-.07.14-.56.42-.84.35-.77-.21l.07-.21c.07-.07.14-.14.28-.07.07.21.42.14.49.35zm-30.17 30.17h-.07.14l.07-.21h-.07l-.07.21zm6.86-16.8h-.14l.07-.21-.21.21c0 .07.07.14 0 .21l.28-.21zm24.92-9.94l-.07.07.07-.21c.07-.07 0-.14-.07-.21l-.21.21-.07.21c-.07.14-.07.21 0 .28 0 .21.28-.07.35-.35zm-24.78 7.42l-.07.07-.14-.14h-.14c-.21.14-.28.35-.21.56l.07.07c.07 0 .14-.07.14-.14l.35-.42zm-1.96 24.57l.07.07c-.07-.07 0-.21-.07-.28-.07-.07-.14-.07-.28 0-.21.07-.14.28.07.28.07 0 .14-.07.21-.07zM8.45 116.15h-.035.035zm0 0h.105l.35-.42c0-.07 0-.07-.07-.14-.14 0-.21 0-.21.07-.28.21-.35.49-.14.49H8.45zm23.065 12.67h.07c-.07.07-.28.07-.35.28-.07.07-.07.21 0 .28h.07c.21-.07.42-.21.49-.28.07-.21-.07-.35-.28-.28zm-19.88-.7l-.07-.07c.07.07.35 0 .35-.21-.07-.21-.07-.28-.14-.35 0-.07-.28 0-.35.21-.07.21 0 .35.21.42zm3.22-20.58l-.21.07.14-.35c-.07-.21-.14-.14-.35.21l-.42.63c0 .07 0 .14.07.21.21-.07.28-.14.35-.21l.42-.56zm23.52-15.89h.14c.07-.42.07-.84 0-1.19h-.14c-.07 0-.07 0-.14.07-.21.35-.21.77-.14 1.19 0 .07.07.07.21.07l.07-.14zm-.84 4.2l.14-.49c.07-.07 0-.14-.07-.21 0 .07-.07.14-.14.21l-.49 1.68c-.07.07 0 .14 0 .21l.21-.21.35-1.19zm-8.54 35.7h.21c-.07 0-.07 0-.07-.07-.56.21-.84.49-1.33.77-.21.07-.14.28.07.28.21 0 .35 0 .42-.07.35-.21.56-.49.7-.91zm-16.8-6.37h.14c.07-.21.07-.35.07-.42 0-.49-.14-.77-.14-1.26-.07-.07-.21-.14-.21-.21-.07-.07-.35.07-.42.28-.07.28-.14.49-.07.56 0 .49.28.7.35 1.19h.07s.07-.07.21-.14zm2.87-20.23l-.21-.14-.07.28c-.07.14-.07.21 0 .28.07.07.14.07.28 0 .21-.21.49-.21.7-.07.07.07.28.07.28 0l1.05-1.26c.07-.07 0-.21-.07-.28 0-.14-.07-.14-.28-.07-.28.07-.49.21-.84.28-.28.07-.56.28-.77.63l-.07.35zm2.03-2.17l.07-.14h.21c.28-.49.84-.7 1.05-1.19.07-.21.21-.49.42-.7.28-.28.28-.42.07-.42-.14 0-.21 0-.28.07-.42.28-.77.56-.98.84-.07.14-.28.28-.63.35-.35.21-.7.7-.49.91.21.21.35.21.56.28zm7.91-11.34l-.14.07h-.21c-.77.42-1.26.91-1.47 1.54-.21.49-.14.77-.35 1.26 0 .21.28.35.56.14.21-.14.28-.21.28-.21.07-.21.07-.56.14-1.05.07-.21.21-.42.42-.49l.7-.21c.21-.07.35-.28.28-.56 0-.21-.07-.21-.14-.42.07-.07 0-.07-.07-.07zm-11.06 18.48l-.07-.07v-.63h-.07c-.63.49-1.12.98-1.19 1.61-.21 1.05-.49 1.82-.98 2.87l-.07.21c0 .21 0 .35.21.28.21-.14.28-.21.28-.21.28-.56.42-1.12.7-1.61.56-.77.7-1.61 1.19-2.45zm5.74-12.81l.21-.14-.35.21c-.77.77-.7 1.33-.42 1.96 0 .14.14.21.35.21.14 0 .28-.07.42-.28.14-.07.28-.28.35-.56.14-.63.56-1.12 1.26-1.47.49-.21.63-.56.84-1.05.07-.21-.14-.49-.42-.49-.21 0-.42.07-.49.28-.21.35-.28.77-.63.98-.35.21-.77.91-1.12.35zm20.024-12.035l.346.415c.28.21-.14.56.07.77l.07.42c.49 1.19.49 2.59.07 4.2-.07.49 0 .84.21 1.05.07.07.07.21-.14.42-.49.56-.21 1.19-.7 1.75l-.07.21.07.42c.21.35.42.63.21 1.12-.35 1.05-.28 1.89-1.05 2.94-.14.21-.21.56-.14 1.05-.07.07-.07.14 0 .14.07.07.14.07.21-.14.35-.63.7-1.19.98-1.96.35-1.19.84-2.38 1.19-3.57.21-.56.28-1.12.35-1.68l.21-.84c.21-1.05.28-1.89.28-2.8 0-1.4-.49-2.59-1.12-3.64-.236-.353-.57-.459-1.046-.275zm-.157-.01c-.028-.197-.107-.292-.267-.345h-.14l-.07.07c.06.177.218.255.477.275zm.008.075c-.044.02-.089.044-.135.07l.14.07c0-.051-.001-.098-.005-.14zM9.48 128.859c-.204.753-.07 1.347.125 2.061 0 .07.07.07.14.07.14 0 .21-.07.21-.21 0-.56 0-1.12-.21-1.61 0-.196-.183-.148-.264-.311zm-.046-.295l.241-.724c.07-.35-.07-.7-.35-.91.35-.91.42-1.75.42-2.59 0-1.4.49-2.87.56-4.27.21-.77.21-1.47.42-2.24.21-.77.42-1.61.7-2.45l.21-.63v-.07c-.07 0-.14.07-.21.14-.28.63-.42 1.26-.91 1.89l-.35.84c-.07.77-.49 1.61-.42 2.38.07.84-.49 1.75-.49 2.59l-.07.21v2.73c0 .56-.14 1.12.14 1.61-.188.689-.152 1.153.109 1.494zM31.095 85.42l-.21.07h-.07c-.35 0-.77 0-1.12.35-.91.84-1.96 1.54-2.73 2.59-.35.49-.7.84-1.05 1.05-.14.07-.28.14-.42.35-.28.28-.28.49-.07.7.21.21.42.14.7-.07l1.26-1.26c.28-.28.56-.35.91-.28.28 0 .35.07.21.28-.56.63-1.12 1.19-1.68 1.96l-2.31 2.94c-.07.07-.14.28-.21.49l-.63.63c-.21.28-.28.56-.21.84.07.14 0 .28-.21.42-1.05.63-1.54 1.47-1.61 2.38 0 .35-.14.63-.42.7-.91.49-1.47 1.19-1.54 2.1-.07.7-.42 1.4-.91 2.1l-.7 1.05c-.07.21-.28.42-.56.63a2.2 2.2 0 0 0-.7.7l-.98 2.1c-.07.14-.07.28 0 .42.14.07.21.21.14.35-.49.77-.42 1.47-1.33 2.03-.14.07-.21.28-.21.49.07.28 0 .56-.07.91-.28.56-.42 1.12-.63 1.68l-.21.42c0 .07-.07.14-.21.14-.21 0-.35.07-.35.28.21.56.21 1.12 0 1.68-.56 1.05-.21 2.03-.84 3.08.21.49-.14.84-.14 1.33v.14c.14 0 .21-.07.28-.14.35-.77.63-1.54.77-2.31 0-.63.21-1.26.49-1.89l.91-2.94c.21-.56.42-1.12.7-1.68.56-1.05 1.05-2.03 1.4-3.08l.98-1.89c.42-.63.7-1.19.91-1.75l.42-.84c1.05-1.68 1.89-3.36 2.94-4.97.35-.63.77-1.19 1.26-1.82.84-1.4 1.82-2.66 2.94-3.99.35-.35.56-.63.63-.84.63-.91 1.33-1.68 1.96-2.31.21-.21.35-.49.63-.7.42-.49.98-1.12 1.75-1.75.63-.56 1.26-1.19 1.89-1.89.21-.21.07-.56-.21-.56-.21 0-.42 0-.56.07-.21.07-.42.21-.63.35l-.84.77c-.28.28-.49.49-.7.63h-.28l.07-.14c.28-.49.98-.77 1.19-1.4l.28-.14c.21-.21.28-.35.14-.49-.07-.07-.14-.07-.21-.07zm6.03 33.96a.883.883 0 0 0-.5.27l-.21.28c.07.07.21.07.35-.07l.36-.48zm.073-.008l.127.698c.49.28.49.35.14.7l-.28.21c-.14.21-.21.35-.14.42.07.14.28.14.49-.07l1.12-.84h.07c.07.07.07.21 0 .28l-1.4 1.75c-.42.56-.84 1.05-1.26 1.4-.49.35-.77.7-1.26 1.19-.07.21-.28.28-.28.49 0 .63-.56 1.12-.91 1.68 0 .07 0 .21.07.28h.14c.21-.07.42-.21.49-.28 1.12-.84 2.17-1.68 3.22-2.73.28-.28.56-.49.84-.7h.14c.07.07.07.14.07.21-.21.49-.84.7-1.19 1.19-.21.21-.21.35-.14.42.07.28 0 .63-.35 1.05-.49.63-1.05 1.12-1.68 1.61-.07.07-.07.21-.07.42.07.14.21.14.42.07s.28-.21.49-.28h.35c-.21.63 0 1.26-.77 1.82-1.12.77-1.96 1.68-3.01 2.73-1.12 1.19-2.52 2.1-3.71 2.94-.35.21-.84.42-1.12.63-1.68 1.05-3.22 1.61-4.9 1.96l-1.61.42h-.21c-2.87.77-5.67 1.4-8.54 2.03-1.4.28-2.66.49-3.99.49-1.54 0-2.8-.35-3.78-1.12-1.19-.91-2.1-2.1-2.59-3.64-.56-1.61-.91-3.29-1.12-5.18-.21-2.38-.14-4.9.28-7.56.28-1.33.35-2.52.84-3.85l1.12-3.36c.07-.49.35-.98.56-1.47.28-.49.42-.84.49-1.05 1.05-2.52 2.31-4.97 3.71-7.42 1.05-1.89 2.1-3.78 3.29-5.67 1.05-1.75 2.17-3.43 3.5-5.04 1.19-1.4 2.24-2.87 3.43-4.27 1.19-1.47 2.59-2.87 3.78-4.27.91-1.05 2.03-1.82 3.08-2.59.21-.14.42-.28.7-.35 1.12-.49 2.24-.77 3.36-.77.84 0 1.75 0 2.59-.21.21-.07.56-.07.91-.07 1.19.07 2.59.14 3.99-.07.63-.07 1.26-.07 1.89-.07 1.05 0 1.89.07 2.94 0 1.19-.07 1.96.35 2.59.91l1.05.84c1.4 1.19 2.24 2.66 2.03 4.83-.28 2.73-.84 5.46-1.96 8.26-.77 1.75-1.33 3.57-2.24 5.32-.35.49-.7 1.05-1.12 1.54-.21.21-.49.35-.77.42-1.33.28-2.59.63-3.71.42-.77-.14-1.54-.07-2.45.14-.14.07-.35 0-.63-.07-.14-.07-.21-.21-.14-.35 0-.21.07-.49.21-.98.14-.35 0-.63-.35-.7 0 0-.07-.07-.14-.21-.07-.07-.07-.14 0-.35.63-1.47.91-2.94 1.54-4.41.63-1.47 1.12-2.94 1.47-4.55.07-.21 0-.42 0-.63 0-.07.14-.21.14-.28.35-1.33.63-2.52.56-3.71 0-.28-.14-.42-.42-.42-.21 0-.35 0-.35.07-.21.21-.28.42-.21.49 0 .14.07.28.14.49.35.49.21.98 0 1.61 0 0-.07.07-.28.21-.14.07-.21.07-.28 0-.35-.49-.42-1.05-.35-1.54.14-.63.07-1.19-.14-1.68-.21-.28-.28-.63-.35-.98 0-.35-.21-.7-.28-.98-.07-.28-.28-.28-.63-.07-.63.56-1.12 1.12-1.68 1.75-.49.63-1.05 1.19-1.61 1.82l-3.15 3.78c-1.68 2.03-2.94 4.06-4.34 6.23-1.47 2.31-2.73 4.48-3.78 6.65-.56 1.33-1.26 2.66-1.82 3.99-.56 1.19-.84 2.38-1.33 3.57-.35 1.19-.77 2.38-1.05 3.57-.28 1.47-.49 2.94-.7 4.34-.21 2.45-.14 4.76.21 7 .35 1.61.84 3.15 1.75 4.48.14.21.28.28.35.35.07.21.28.21.56 0 .56-.49 1.26-.91 1.82-1.4 2.45-2.17 4.69-4.2 7-6.37l2.52-2.59 1.26-1.26 4.2-3.92 1.47-1.26c.07-.07.28-.21.49-.28.28-.21.49-.14.56.07l.07 1.68c-.019 0-.038 0-.057.002zm29.317 11.198c.84-.56 1.05-1.19 1.33-1.96a3.8 3.8 0 0 0-1.33 1.96zm5.67-10.43h-.07c-.07.21-.35.42-.42.63-.28.63-.56 1.26-.91 1.89l-.14.28c0 .07.07.14.14.14s.14-.07.14-.14c.28-.28.49-.49.56-.7.28-.77.49-1.33.7-2.1zm6.16.35l-.07.14h-.14c-.14.14-.14.21 0 .21l.14-.14.07-.21zm2.761-4.923l.109.163.07-.07-.14-.21-.039.117zm-26.421.793l-.07.14.14-.28c0-.07-.07-.14-.07-.21-.07.07-.14.14-.14.21l-.21.63c-.07.07 0 .14.07.21 0-.07.07-.14.14-.21l.14-.49zm9.66-34.09h.14l-.07-.07c0-.56.49-1.05.84-1.54 0-.07.07-.07.21-.07v.14c-.21.63-.49 1.12-.98 1.47 0 .07-.07.07-.14.07zm6.51 48.65l.14-.07c.07-.28.28-.7.63-1.05.07-.07.14-.14.21-.14.07 0 .14.07.07.14l.07.63c-.07.21-.21.42-.28.49-.28.35-.63.7-1.12 1.05 0 .07-.07.07-.14.07s-.14-.07-.07-.14c.21-.28.28-.49.49-.98zm10.5-14.441v-.119h.07l-.07.119zM59.305 90.32l-.07.21h.07l.07-.21h-.07zm.63-1.05h.14l.07-.21c-.07-.21-.07-.21-.14 0l-.07.21zm4.2 45.92l-.07.07.14.21.07-.07-.14-.21zm-15.05-6.58v.14l.07-.14c-.14-.07-.21-.07-.21.14 0 .07 0 .07.07.07l.07-.21zm15.984-1.098l-.024.048c.07.21.07.21.14 0-.01 0-.06-.004-.116-.048zm3.196-5.482h-.07v-.14c-.066-.066-.07-.07-.13.05.007.021.068.028.13.09h.07zm0 0h.07-.07zm-15.05 4.13l.21-.07-.14-.21h-.07c-.14.07-.21.14-.21.21 0 .21.07.28.21.21v-.14zm22.68-9.66v.07c.07-.14.07-.21 0-.21s-.07 0-.14.07-.14.14-.14.21v.07l.28-.21zm-11.83 15.12h.07c-.07.07-.07.14 0 .14.07.07.21.07.28-.07 0-.07.07-.14.14-.21l.07-.21c-.14 0-.28 0-.35.07l-.21.28zm-13.16-3.15h-.07c-.07 0-.14 0-.21.07v.63h.14c.14-.07.21-.14.21-.21.07-.28.07-.42-.07-.49zm2.66-4.2l-.07.07c.07-.21.07-.35.07-.42 0 0-.07-.07-.14-.21-.14.07-.21.14-.21.21-.07.07-.07.21 0 .42 0 .07 0 .14.07.21.14-.07.21-.21.28-.28zm22.225-2.1l-.035.07-.14-.14h-.14l-.28.42c0 .07 0 .14.07.21.21-.07.28-.14.35-.21l.175-.35zm0 0l.035-.07-.035.07zm-25.725-.56h.07l.07-.35c0-.07 0-.14-.07-.21-.14.07-.21.14-.21.21l-.21.63c0 .07 0 .14.07.21.07-.07.14-.14.14-.21l.14-.28zm15.89 4.34l-.07.14-.07.21.14.21c.07-.07.14-.14.35-.21.21-.21.28-.42.35-.63a.53.53 0 0 0-.28-.14c-.07 0-.14.07-.21.14l-.21.28zm10.465-6.335l.035-.105-.035.105zm0 0l-.105.315c0 .07 0 .07.07.14.14 0 .21 0 .28-.07.35-.35.49-.63.49-.98 0-.07-.07-.07-.21-.07l-.07.07-.49.7.035-.105zm8.925-12.565l.14.07c-.07.21-.21.21-.21.42-.07.14 0 .21.14.21s.21-.07.21-.14c.28-.49.49-.98.56-1.47l-.07-.07h-.14c-.35.28-.42.63-.63.98zm-11.83 3.92h.07c.07-.21.07-.35.07-.42-.07-.21-.14-.28-.28-.28-.21 0-.35.07-.49.28-.21.35-.35.7-.42 1.05-.07.07 0 .14.07.14.49 0 .77-.28.98-.77zm-3.15 13.79l.07-.14-.14-.21h-.07c-.63.49-1.05 1.05-1.12 1.82-.07.14 0 .21.07.21.14 0 .21-.07.28-.14l.91-1.54zm.63-8.61h.07l-.14.35c0 .07 0 .07.07.14.14 0 .21 0 .21-.07.21-.28.28-.49.35-.63l1.05-2.73-.07-.07c-.07 0-.14 0-.21.07-.49.98-.98 1.96-1.33 2.94zm-3.92 12.11l-.07-.21c.07-.14.07-.21 0-.28-.07-.07-.07-.14-.14-.14-.14 0-.21.07-.28.14-.35.63-.91 1.19-1.26 1.96-.21.21-.14.42-.21.63-.07.07 0 .14.07.14h.21c.49-.28.77-.56.91-.77l.77-1.47zm.21 2.17l.14.21c-.35.91-.77 1.68-1.33 2.38-.14.07-.21.21-.28.28-.07.21 0 .35.07.42.14.07.28.07.49 0 .21-.07.35-.21.49-.35.63-.63 1.19-1.26 1.54-2.03.21-.49.56-.98.91-1.61 1.33-2.03 2.24-4.13 3.36-6.16.91-1.61 1.05-2.31 1.26-3.71.07-.21-.07-.21-.35-.14l-.63.42c-.14-.07-.28-.14-.35-.14-.21 0-.35.14-.56.42-.35.49-.56.98-.77 1.47-.21.56-.42 1.12-.49 1.68.28.49.21 1.05-.21 1.82-.56 1.05-1.12 1.89-1.75 2.94 0 .07-.07.14-.21.21l-.42-.56c-.07-.14-.21-.07-.42.14l-.56 1.05-.28.91c-.07.21.07.35.35.35zm-16.475-3.598l.235-1.232.42-2.52c0-.07 0-.14-.07-.14-.07-.07-.14 0-.28.14-.21.28-.63.28-.63.56l-.14 2.17c.07.21.07.35.14.42.243.146.25.394.325.602zm-.014.425l-.101.303c-.07.14 0 .14.14.07v-.14l-.039-.233zm18.9-5.203c-.36.33-.603.713-.731 1.096 0 0 .07.07.14.21l.14-.14c.327-.458.287-.732.452-1.166zm.128-.15c.67-.43.544-.39.611-.994 0 0-.07-.07-.14-.21-.07.07-.14.14-.14.21l-.331.993zm5.091-15.134l.07.49c.35-1.05.77-2.03.77-3.08.07-.63.35-1.19.91-1.68.28-.28.35-.63.63-.98.91-2.17 1.68-4.13 2.31-6.3.35-1.05.84-1.89 1.12-2.94.77-1.96 1.4-3.92 2.03-5.88l.91-2.73c.14-.49.42-.77.84-.77.28 0 .56-.14.91-.49.42-.35.84-.56 1.26-.63l4.62-.63 1.05-.21c.42-.14.84-.14 1.33-.07.56.07 1.12-.07 1.68-.42.42-.28.91-.35 1.47-.28 1.05.07 1.47.98.98 1.89-.63 1.33-1.05 2.45-1.33 3.78-.77 2.73-1.89 5.46-2.73 8.19l-.42.98c-.49.91-.7 1.82-1.19 2.73l-1.05 2.52-1.54 3.99c-.21.63-.28 1.26-.77 1.89l-.35.98c-.56 1.4-.98 2.8-1.61 4.2-1.47 3.64-2.52 7.35-3.92 11.06l-.91 2.52-.77 2.52c-.49 1.33-.7 2.45-1.19 3.78-.07.14-.14.35-.35.63-.07.07-.14.14-.21.14-.14 0-.21-.07-.14-.14 0-.84 0-1.68.49-2.59.21-.35.28-.77.35-1.12.07-.28.14-.49.14-.63-.28-1.19.42-2.38.77-3.71.56-.77.7-1.54.7-2.31.07-.49.14-.98.35-1.4.28-.56.28-1.19.49-1.75.21-.56.42-1.12.7-1.68v-.14c-.49-.56.42-1.26.42-1.89.07-.63.28-1.19.63-1.68l.07-.21c.21-.56 0-1.12.49-1.75.49-.56.35-1.19.7-1.75.07-.07.07-.14 0-.14-.07-.07-.14-.14-.21-.14-.14 0-.21.07-.21.14-.49.77-.98 1.54-1.05 2.38-.07.49-.21.77-.28.98-.49.77-.56 1.33-.77 2.1-.07.35-.28.49-.63.35-.35-.07-.56 0-.63.21-.35.49-.63 1.12-.84 1.75-.35 1.05-.7 2.1-1.19 3.15-.07.21-.21.28-.42.28h-.21c-.21-.07-.35-.07-.42.14l-.42.63c-.35.63-.56 1.26-1.12 1.82-.49.49-.7 1.12-1.05 1.68-.35.49-.7.77-1.19.84l-.91.21-.07.14c0 .07 0 .07.07.14h.42c.49 0 .56.21.35.56l-1.12 2.1c-.07.21-.28.42-.56.7h-.14c-.07 0-.14-.07-.07-.14-.07-.49.28-.77.56-1.26 0 0-.07-.07-.14-.21 0 0-.07 0-.21.07-.56.28-.77.7-1.05 1.19-.14.28-.35.35-.7.21-.07 0-.14-.07-.21-.07-.21-.07-.35 0-.35.28l-.07.84c0 .49 0 .98-.56 1.47l-.14.28c.07.56-.28.98-.91 1.26-.14.07-.21.21-.21.28 0 .49-.49.98-.56 1.47-.07.07 0 .14.07.14h.14l.77-.63c0-.07.07-.07.14-.07.14 0 .21.07.14.21-.28.63-.63 1.26-1.26 1.75-.77 1.05-1.75 1.61-2.87 1.96-1.61.56-3.08 1.12-4.69 1.4-1.61.28-3.15.63-4.62.98-1.68.49-3.5.63-5.25.91-.77.14-1.47.07-2.17-.28-1.12-.49-2.17-.84-3.01-1.61-1.47-1.26-2.31-2.8-2.66-4.55-.49-2.17-.49-4.41-.28-6.86.21-2.03.49-4.06.77-6.09.28-1.68.7-3.36 1.05-5.04.35-1.61 1.05-3.08 1.26-4.69.63-1.4.63-2.8 1.26-4.2 0-.21.07-.42.14-.63.91-1.68 1.19-3.36 1.96-5.04l.84-1.89.49-1.05c.21-.7.49-1.4.84-2.1.56-1.05.84-2.03 1.4-3.08 1.61-3.29 3.29-6.37 5.25-9.52.56-.91 1.05-1.82 1.54-2.87.63-1.33.84-1.54 2.24-1.61.84-.07 1.68 0 2.45.07.28 0 .49.14.7.35.07.07.14.35-.07.56l-.14.28c-.63.77-1.19 1.61-1.82 2.66l-.91 1.4c-.21.35-.35.63-.35.77 0 .63-.35 1.19-.63 1.75 0 .07 0 .14.07.21l.28-.21.49-.42h.07l-.07.21c-.07.49-.21.91-.49 1.4-1.19 1.89-1.82 3.64-2.87 5.53-.91 1.61-1.33 3.08-2.1 4.69-.07.35 0 .7-.21 1.05-.56 1.89-1.12 3.78-2.03 5.67-.21.28-.28.56-.28.84-.07.56-.28 1.05-.56 1.47-.21.35-.28.63-.28.91 0 .63-.21 1.26-.49 1.89-.35 1.05-.49 1.96-.49 2.87 0 .28 0 .56-.07.84-.35 1.12-.35 2.17-.63 3.22-.07.21-.21.42-.14.63.35.77-.14 1.54-.42 2.31-.07.21-.07.42-.07.49.07.14.14.28.28.35.14.07.28.07.42-.14.35-.35.49-.77.49-1.26.07-.84.28-1.61.63-2.24.14-.21.21-.42.21-.63.21-1.05.56-1.89.91-2.94.28-.91.56-1.82.77-2.73 0-.77.42-1.54.63-2.31.07-.21.35-.42.42-.35.07.14.14.21.14.21-.07.56-.35 1.12-.42 1.68-.07.21.07.28.28.28.07 0 .07.07.14.14v.14l-.14.42c-.49 1.61-.56 3.22-1.19 4.83-.07.14-.07.35-.07.63 0 1.05-.14 1.96-.49 3.01l-.14.42c-.07.63.14 1.33.35 1.12.42-.21.7-.63.84-1.12.21-.49.21-.77.21-1.26.07-.28.21-.49.28-.63 0 0 .07-.07.28-.21h.07c.35.35.14.84.21 1.33.07.35.28.63.35 1.12 0 .63 0 1.19.21 1.75v1.12c-.35 1.61-.14 3.01-.07 4.48 0 .56.14 1.12.14 1.68a6.23 6.23 0 0 0 1.33 3.22c.14.21.35.21.56-.14.28-.49.7-.77.98-1.26 2.17-3.08 3.99-6.3 5.6-9.59.49-.77.77-1.61 1.33-2.38.84-1.12 1.12-2.31 1.89-3.43l.14-.35c.35-1.19 1.05-2.38 1.61-3.57l.49-1.05c.14-.49.42-.91.84-1.4.07-.21.21-.21.42 0 .07 0 0 .07.07.07.28.28.49.21.63-.14l.56-1.68-.07-.07c-.07 0-.14.07-.21.14l-.21.28c-.28.21-.63.21-.7 0-.07-.07-.07-.21-.07-.28.35-.77.63-1.54 1.26-2.17.07-.07.21-.07.35-.07v.14l-.07.21c-.07.21-.21.49.07.49 0 0 .07-.14.28-.35.07-.07.14-.14.21-.14.14-.07.21 0 .14.14l-.49 1.68c-.07.07-.07.21 0 .42.07.14.14.21.21.14.07 0 .14-.07.21-.14.21-.28.28-.49.35-.63l.63-2.1zm31.57-12.46h-.14l.14-.07v.07zm-3.99 2.38h-.14l.07-.07.07.07zm.07-3.15v.14h-.14l.14-.14zm-12.11 34.16v-.14h.14l-.14.14zm8.61-10.5v.28c-.14.07-.21.07-.14-.07 0-.07.14-.14.14-.21zm0-2.24l.14-.14-.07.14c-.07.07-.14.07-.07-.14l.07-.07-.07.21zm2.03-17.64l.14-.07-.07.14c-.21.07-.21.07-.14-.14h.14l-.07.07zm2.38-4.27h.14c.21.14.14.28-.07.35h-.14c-.07-.07-.14-.28.07-.35zm-8.225 29.96h.035v-.21l.07-.21h.14l-.14.42h-.105zm0 0h-.035.035zm4.865-17.01zm0 0s.07-.07.28-.21l.14.21-.28.21a.866.866 0 0 0-.14-.21zm-2.66 10.43l-.07.07h-.35c0-.07 0-.14.07-.28.07-.21.14-.28.21-.14.07.07.07.14.14.35zm2.24-18.69l.14-.07c0-.07.07-.14.14-.21.07-.07.07 0 0 .28l-.07.21c0 .07-.07.14-.21.21-.07-.07-.07-.14-.07-.21l.07-.21zm1.4 6.86h-.07c-.07.07-.14.21-.28.28-.07-.07-.07-.14-.07-.21 0-.14.07-.35.14-.63l.07-.07c.14 0 .21 0 .21.07v.56zm-2.59 7.84h.07c-.21.21-.07.21-.28.42h-.14c-.07-.07-.14-.07-.14-.07l.28-.84.14-.07c.14 0 .21.07.14.14 0 .07 0 .21-.07.42zm-7.42 11.62l-.49 1.47c0 .07-.07.14-.14.21-.07-.07-.07-.14-.07-.21l.49-1.47c0-.07.07-.14.21-.21v.21zm10.29-16.31v.07c0-.21.14-.42.21-.63 0 0 .07-.07.28-.21.07.07.14.14.07.21l-.49 1.05-.21.21c0-.07-.07-.14 0-.21l.14-.49zm-1.864.922c.16.334.066.765-.236 1.248l-.14.14c-.14 0-.21 0-.21-.07 0-.28 0-.49.07-.63l.516-.688zm0 0a.785.785 0 0 0-.096-.152h.21l-.114.152zm.464 5.308c.001-.328.008-.498.07-.56.14-.56 0-.98-.35-1.26 0-.07-.07-.21-.07-.28v-.14c.14-.07.28-.14.35-.14.42.07.63.28.56.63-.07.49-.28 1.05-.56 1.75zm0 0v.14-.14zm1.05-5.95v.07c-.21.49-.35.84-.63 1.33l-.14.14c-.07 0-.07-.07-.14-.14-.07 0-.07-.07 0-.14.07-.91.35-1.82.84-2.73.07-.07.14-.07.28-.07v.14c-.07.49-.21.91-.21 1.4zm-11.06 13.51l.21-.21c.14-.49.42-.91.77-1.4l.14-.07c.07.14.14.21.14.21 0 .28 0 .49-.07.63-.07.28-.35.56-.42.77l-.84 3.99c-.07.21-.14.42-.14.63-.63 1.89-.98 3.78-1.26 5.67.07.21-.14.49-.21.77-.07.21-.14.21-.21.14-.07 0-.14-.07-.07-.14-.07-.07 0-.21.07-.42.07-1.05.42-2.1.49-3.15.21-.91.07-1.75.63-2.66.07-.21.07-.35.07-.42 0-.84.14-1.68.42-2.52l.21-1.05c.07-.35.07-.63.07-.77zm20.37 7.35l.07-.21.49-.21-.56.42zm3.85-2.1v-.14l.07-.07-.07.21zm0 0v.07l-.07.14.07-.21zm2.73-4.76l-.21.07c.21-.14.35-.21.42-.14v.07h-.21zm-6.02 6.44v-.07c.35-.21.35-.21.63.07h-.63zm2.24-.91h-.21l.07-.21.14.21zm1.19-.84l-.14-.07c.21-.21.42-.28.63-.35.14-.07.28-.07.49 0 .14.07.21.21.14.35-.28.63-.7 1.05-1.33 1.33-.14.07-.21.07-.28 0-.07-.07-.07-.21-.07-.28l.42-.7.14-.07c0-.07-.07-.14 0-.21zm-7.07 5.74c.49-.07.98-.35 1.47-.84-.49.07-.98.35-1.47.84zm-.35-.98l-.07.07.14-.07-.07-.07v.07zm-.42-.77c.35-.35.42-.63.35-.84-.07-.07-.07-.14-.14-.14s-.21.07-.35.14c-.21.14-.28.35-.21.56-.07.21.07.28.35.28zm-.7 1.26v.07l.07-.14c0-.07 0-.07-.07-.14l-.7.21c.28.14.49.14.7 0zm-1.68 0l.14-.07v-.07c-.07-.07-.14 0-.35.14h.21zm-.98.63l.35-.42-.28-.42c-.07-.28-.21-.28-.42 0l-.7 1.05c.35.21.7.14 1.05-.21zm-1.54.84c.21-.14.35-.35.42-.56-.21.14-.35.35-.42.56zm.49-31.01h-.14v.14l.14-.14zm-14.14 20.65l-.07.21c.07 0 .14 0 .21-.07l.07-.14h-.21zm8.61 7.14h-.21c.49-.35.7-.77.7-1.26l.14-1.89c.21-.91.63-1.82.63-2.73.35-1.33.7-2.66.91-3.99.21-1.12.7-2.24.77-3.36 0-.35.28-.7.35-1.05l.84-2.73c.21-.49.28-.84.28-1.05.07-.77.35-1.61.63-2.45l1.75-5.46c.07-.28.21-.63.14-.91 0-.07-.07-.07-.21-.07l-.14.14-.49.84c0 .07-.07.14-.21.21v-.21l.42-1.26c.07-.21.28-.35.49-.35.35-.07.56-.21.63-.56l.14-.42c.07-.14 0-.21-.14-.14-.21.07-.56.14-.91.14s-.56.14-.56.49c-.07.63-.28 1.4-.63 2.31-.07.21-.21.42-.42.63h-.14c-.07 0-.14 0-.07-.07-.21-.28.14-.56.21-.84.21-.49.14-.84-.14-1.05-.35-.28-.42-.7-.14-1.19.28-.63.56-1.26.91-1.89 0-.07 0-.07.07-.14.07.14.14.21.14.21 0 .14-.07.35-.14.63 0 .07.07.14 0 .21.14-.07.21-.14.21-.21.35-.49.42-.77.49-1.26.14-.42.07-.7-.28-.91-.21-.21-.21-.49.07-.84.56-.63.42-1.26.63-1.89 0 0-.07-.07-.14-.21a.213.213 0 0 1 0-.28l.7-.56c.28-.21.14-.42-.07-.49-.21-.07-.49 0-.77.14-.21.07-.28.07-.28 0-.07-.14 0-.28.21-.35l.49-.21c.49-.21.77-.49.84-.98v-.21c-.07-.49.28-.77.56-1.12.21-.21.14-.35-.21-.35-.21 0-.28.07-.49.07-.21 0-.28-.07-.14-.28.21-.28.42-.56.49-.91 0-.21.07-.56.28-1.05.21-.14.42-.35.49-.63 0-.07-.07-.14-.14-.21l-.07.07-.49.42h-.21c-.28-.21-.28-.42-.07-.7.28-.28.49-.49.56-.63.21-.21.21-.42 0-.56-.07-.07-.14-.07-.28-.07s-.21.07-.21.14c-.35 1.12-1.33 2.17-1.54 3.29 0 .21-.14.21-.21.42l-.7 1.68c-.07.28-.07.56-.35.77-.63.77-.7 1.33-.91 2.1-.07.28-.28.56-.35.84 0 .07-.07.14-.21.21.07-.07 0-.14 0-.21 0-.28.14-.56.14-.84-.07-.14-.14-.21-.28-.21-.21 0-.35.07-.28.28 0 .21.07.42-.21.7-.21.21-.28.35-.28.42-.35.91-.98 1.75-1.19 2.66 0 .14-.07.42-.14.77-.35.77-.63 1.54-.91 2.31-.21.77-.77 1.54-.84 2.38 0 .21-.21.42-.28.63 0 .21-.21.42-.28.63-.21 1.05-.84 1.89-.84 2.94 0 .21-.14.21-.14.42l-1.26 3.78c-.07.07-.14.14-.21.14v-.07l.77-2.31c.21-.84.49-1.68.56-2.52 0-.56.28-1.12.49-1.68.07-.28.35-.56.35-.84.07-.77.35-1.68.84-2.73.28-.77-.42-.91-.35-1.47h-.14l-.07.21c-.35 1.05-.84 1.89-.91 2.94-.07.21-.07.35.07.42.21.21.21.42-.07.63-.21.21-.42.42-.56.77l-.56 1.89c-.35 1.33-1.05 2.66-1.33 3.99-.07.63-.42 1.05-.91 1.33-.21.07-.28.28-.21.35.42.21.49.63.21 1.19-.28.49-.49.98-.84 1.47-.21.21-.21.42-.07.49.07.21 0 .35-.07.56-.21.35-.21.63-.14.84.07.35-.07.63-.49.84-.35.21-.56.49-.7.84-.07.28-.28.56-.35.84-.07.21.07.28.42.21.21 0 .35.07.28.21-.28.63-.35 1.26-.28 1.75.07.28-.07.63-.14.91l-.07.14c-.07.07-.14 0-.21-.07-.21-.14-.35-.07-.56.14l-.42.84c-.07.14 0 .28.21.35.07.07.21.07.42.07s.28.07.14.28c-.28.21-.42.42-.63.63-.28.49-.35.98-.56 1.47-.07.35 0 .63.21.91.49.56.63 1.19-.21 1.96-.07.07-.07.21-.14.42 0 .07.07.07 0 .14.07.21 0 .42-.21.7-.49.49-.49.49-.14.7l.35.21c.21.21.14.35-.21.56h-.21c-.28.07-.49.21-.56.42l-.28 1.05c-.21 1.33-.14 2.45-.14 3.64-.07.07 0 .14 0 .21 0 .21.14.21.35.14.21-.21.42-.28.63-.35.84-.35 1.33-.91 1.68-1.68.21-.21.28-.42.35-.63.21-.28.35-.49.49-.56.49-.35.98-.63 1.33-.98.49-.35.7-.77 1.19-1.12l.14-.14c1.12-.77 2.03-1.54 3.36-2.31.49-.28.84-.63 1.4-.98zm-.49-31.15h-.14l.07.07.07-.07zm.465-1.327c-.06.013-.115.075-.115.137-.07.14 0 .21.14.21.07 0 .07-.07.07-.14.062-.124.014-.193-.095-.207zm4.575-6.863l-.07.07c-.21.07-.35.21-.28.35 0 .07.07.14.14.14.21.07.35 0 .56-.28-.07-.07 0-.21-.07-.28-.07-.07-.14-.07-.28 0zm-.07 1.89l.07-.07c-.07-.21-.14-.28-.21-.35-.07-.21-.42.07-.49.28-.07.21 0 .28.21.28.07 0 .21-.07.42-.14zm1.19-4.06l.07-.07c-.49.35-.63.7-.35 1.05v.07c.07 0 .21-.07.35-.14l.21-.35.07-.28.07-.21c0-.21-.14-.28-.42-.07zm.455-1.225l.035-.035h-.07l.035.035zm3.185-2.73l.07-.035h-.07v.035zm-2.45 12.495l-.07.07c-.14.21-.14.42-.07.56h.07l.21-.21v-.42h-.14zm.14 2.38v.35c-.14.35-.21.63-.21.84-.07.07 0 .14.14.14.07.07.21.07.42.07.28 0 .49-.14.56-.35l.35-.84c0-.28.07-.56.07-.77.07-.07 0-.14-.21-.07l-.7.21c-.21.07-.35.21-.42.42zm.49-1.26l-.07.28c0 .07 0 .14.07.21h.07l1.12-.84a.5.5 0 0 0 .07-.77l-.35-.21c-.21-.07-.35-.07-.42.14-.07.28-.14.56-.49 1.19zm1.54-3.85l.14-.21-.28.84c-.07.28.14.35.35.56v.28l.14.21c.07-.07.14-.14.14-.21l.63-1.26c.28-.49.21-.77-.14-.98-.14-.07-.21-.21-.21-.42-.56.35-.56.7-.77 1.19zm2.17-5.04l-.07.07.14-.07h-.07zm-.63 1.89l-.07.07c-.14.07-.14.14-.07.21h.14l.07-.21-.07-.07zm.77-3.15v.21c-.07.07 0 .14.07.21l.28-.21.07-.28c0-.07 0-.14-.07-.35l-.35.42zm1.12-2.45l.07.07c-.21.28-.28.49-.35.63v.07c.14 0 .21-.07.28-.14.14-.21.28-.56.42-1.05 0-.07-.07-.14 0-.21-.14.07-.21.14-.21.21l-.21.42zm8.804 41.632c-.686.23-.716.246-1.174.508-1.05.77-2.1 1.54-3.29 2.31-.91.56-1.82 1.26-2.73 1.89-2.8 1.89-5.46 3.5-8.26 5.25-1.4.91-2.87 1.68-4.2 2.73-.56.35-1.05.63-1.4.91-1.05.63-2.1 1.12-2.94 1.89-.49.35-.91.49-1.4.35l-1.33-.42c-.35-.21-.98-.14-1.33-.35-.28-.07-.63-.07-.84-.28-.49-.28-.98-.28-1.54-.49-.91-.21-1.82-.28-2.73-.49-.56-.07-1.05-.28-1.4-.49-.28-.21-.21-.42.07-.63l1.05-.63c.21-.21.28-.42.14-.63-.07-.14-.14-.21-.14-.21.07-.56-.07-1.05-.07-1.54-.07-.63-.28-1.12.07-1.89.07-.07.07-.21 0-.42-.28-1.12 0-2.31.28-3.5.28-1.89.91-3.64 1.12-5.53.07-.49.21-.84.42-1.33.21-.77.56-1.54.56-2.31 0-.28.21-.56.28-.84.07-.21.21-.42.21-.63.07-1.19.63-2.38.98-3.57.21-.77.49-1.33.49-2.1.07-.49.21-1.05.49-1.68.21-.35.35-.63.35-.84.21-.77.63-1.33.7-2.1 0-.77.35-1.33.63-2.1l.56-1.89.7-2.1c.21-.63.42-1.26.77-1.82.07-.07.07-.21.14-.42.56-2.1 2.03-6.72 2.59-8.4.77-1.68 1.33-3.36 1.96-5.04.07-.49.35-.77.56-1.26l.56-1.47c.07-.28-.07-.49-.35-.56l.14-.42c.07-.21.07-.56 0-1.05l.56.28c.21.14.28.07.35-.14.35-.63.63-1.26.84-1.89.49-1.05.7-1.89 1.05-2.94.07-.35.21-.63.35-.84.21-.35.49-.56.84-.56 1.4-.07 2.8-.49 3.99-.42.35 0 .77-.14 1.12-.21.21 0 .42-.07.63 0 1.05.21 2.1 0 3.15 0h.21c.91 0 1.82-.07 2.59-.28 1.12-.21 1.68.28 1.19 1.33-.21.77-.49 1.33-.77 2.1l-.42 1.05-.91 2.1-.14.42c-.77 1.61-1.33 3.22-1.89 4.83-.49.91-.63 1.82-1.12 2.73-.28.56-.35 1.12-.56 1.68-.28.84-.49 1.68-.98 2.52l-.07.28c-.21 1.05-.63 1.89-1.12 2.94-.49 1.19-.84 2.38-1.19 3.57l-2.52 7.77-1.33 3.99c-.21.77-.49 1.54-.56 2.31l-.84 2.73-1.33 3.99-.21.84-.35 1.89-.7 2.73c-.07.21.07.35.35.28l.49-.21 2.38-1.47 3.85-2.31c2.17-1.33 4.13-2.31 6.3-3.43.91-.49 1.75-.7 2.66-1.19.63-.35 1.33-.49 2.03-.42.35.07.77.49.49.98l-.14.28c-.42.49-.49.91-.21 1.4l-.84.63-.21.28.21.84c.07.07 0 .21-.07.42 0 .07-.07.14-.21.21-.07.07-.14.07-.21-.14v-.63c-.07-.14-.14-.21-.14-.21-.49-.07-.7-.35-1.26 0l.63.63c.07.14 0 .21-.21.21-.56.07-.91.35-1.05.98l-.07.21c-.07.21-.21.35-.42.49-1.05.63-1.75.56-2.17-.21l-.07-.42c-.21.21-.35.42-.42.7v.63c.07.35-.14.63-.56.84l-.77.42c-.49.21-.84.35-1.19.56l-.21.28c-.07.14 0 .28.14.49.21.21.35.21.56.07.35-.14.63-.35.98-.56.35-.28.77-.35 1.12-.21h.21l-.14.42v.14c.14 0 .28 0 .35-.07l.91-.84c.07.07.42.07.21.28-.35.49-.49 1.05-.84 1.54.21 0 .56-.07 1.05-.28 1.4-.77 2.94-1.4 4.41-2.24l1.33-.56c.086-.043.145-.06.194-.018zm0 0a270.984 270.984 0 0 1 .18-.06l-.094.218c-.027-.082-.054-.132-.086-.158zm.18-.06l.326-.762c.07.21.07.35 0 .42 0 .135-.13.27-.326.342zM161.995 75.9h-.21v-.14h.21v.14zm-7.186 1.54h-.584c-.07 0-.21.07-.28.07.07.07.14.14.21.14.186.062.371-.04.654-.21zm9.286-2.24l.14-.07c-.28.21-.56.28-.84.21-.07 0-.07-.07-.14-.07v-.07h.84zm1.446-.427c-.442.278-.778.222-1.236.287.434-.434.814-.319 1.236-.287zm0 0c.03-.02.062-.04.094-.063l.07.07c-.056 0-.11-.003-.164-.007zm-23.542 61.337c-.074.206-.177.366-.234.48-.07.07-.14.14-.28.14-.07 0-.14-.07-.07-.21.07-.07.14-.21.28-.28l.304-.13zm0 0a1.56 1.56 0 0 0 .046-.15l.14.07-.186.08zm17.966-60.42l-2.1.56c.56.21 1.12.14 1.89.07.14 0 .35-.07.7-.28.07 0 .07-.07.14-.14-.07-.07-.07-.14-.07-.14-.21-.07-.42-.14-.56-.07zm-2.1.63v-.07c0-.21-.07-.35-.28-.28-.28.07-.56.35-.77.14-.21-.21-.42-.14-.63.21-.35.56-.91.49-1.26.98.7 0 1.33-.07 1.96-.28.42-.21.77-.42.98-.7zm41.02-7.21v-.07l.21-.21c-.07 0-.07-.07-.14-.07-.28 0-.35.07-.21.28-.07.07 0 .07.14.07zm18.97-1.96l.07.07c.07 0 .14.07.21.07.28 0 .35-.07.21-.21-.07-.07-.14-.07-.28-.07 0 0-.07.07-.21.14zm-14.49 1.4l1.4-.14c.21 0 .35-.14.56-.21.07-.07.14-.14.14-.21.07-.07 0-.14-.14-.14-1.05-.07-1.89.21-2.94.42-.07 0-.07 0-.07.07-.07.07-.07.07-.14.07.07.07.21.14.28.14h.91zm-25.55 3.22l1.89-.28c.84-.21 1.54 0 2.38-.35l.21-.21a.15.15 0 0 0-.14-.14c-1.61-.07-3.08.14-4.55.7-.07 0-.14.14-.07.14.07.07.21.14.28.14zm-9.38 1.4v.07c1.12-.21 2.17-.21 3.5-.42.07 0 .21-.07.35-.14.14-.21.21-.35.21-.35 0-.21-.14-.28-.42-.28-1.33-.07-2.31.63-3.64.7-.28 0-.7 0-.7.28 0 0 .21.07.7.14zm-12.46 2.73l-.07.07c-.35.07-1.26.14-2.1.35-.07 0-.14.07-.21.14-.07.07 0 .14.07.14 1.33.28 2.59.14 3.92-.35l.14-.14c0-.07 0-.07.07-.07-.07-.21-.14-.28-.28-.28-.35 0-.7.07-1.54.14zm6.86-1.706l-.49-.184h-.28c-.07 0-.07 0-.07.07s0 .07-.07.07c.07.07.21.21.42.21.172 0 .297-.094.49-.166zm.162-.063l1.938-.401.14-.14c-.07-.07-.28-.21-.49-.21-.59.066-1.12.316-1.588.75zm29.451-1.316l.277-.415.28-.21c.7-.35 2.03-.07 2.03-.98 1.33-.49 2.59-.63 3.71-.49l1.54.28c.63.07 1.26.14 2.03.14.63 0 1.19-.14 1.61-.49.49-.42 1.19-.7 2.17-.84l3.01-.63c.07 0 .14-.07.21-.21-.07-.14-.14-.28-.28-.35-.07-.07-.28-.07-.63-.07-3.71.49-7.35.91-10.99 1.26-2.24.21-4.55.63-6.79.56-.21 0-.14-.14-.35-.21.14-.07.21-.14.28-.14l3.57-.56c.49-.07.84-.14 1.33-.35.42-.07.63-.28.7-.49.07-.21-.21-.28-.7-.21l-2.45.42-3.43.42c-1.75-.35-3.36.35-5.04.84-.35.07-.42.28-.21.63.28.49.35.42-.14.63-.77.21-1.4.28-2.03.49-.56.21-1.12.35-1.68.35-3.64.21-7.14.91-10.71 1.54-.56.07-.84.21-1.33.21-2.17 0-4.27.49-6.44 1.05-.77.21-1.4.28-2.45.49 1.4.21 2.24.28 3.29.35.49 0 .84-.07 1.33-.28.49-.07.91-.07 1.33.07.35.21.49.56 0 .77-1.47.77-3.08 1.26-4.97 1.19-.56 0-1.12.21-1.61.56-.49.28-.84.49-1.47.21s-1.47-.35-2.45-.28c-.28 0-.63.14-.91.35-.07.07.07.28.14.35.07.07.28.14.49.21.21.07.21.209.417.28-.326-.009-.651-.065-.977 0-2.8.35-5.46.63-8.26 1.12-2.73.49-5.25.98-7.98 1.19-.56.07-1.19.14-1.75.35-.35.07-.84.21-.91.28-.07.28.42.21.7.28.56.21 0 .21-.28.42-.14.07-.14.21 0 .35.35.49.21.77-.42.84l-4.2.56c-.7.07-1.12-.07-1.26-.42-.91-1.68-1.75-3.36-1.96-5.25-.07-.84-.14-1.68-.63-2.45-.35-.49-.42-.98-.49-1.47-.28-1.19-.42-2.38-.63-3.57-.07-.14 0-.35.07-.63.21-.77 1.26-1.4 2.31-1.4h.63c2.8.35 5.74-.07 8.75-.35 7.84-.77 15.61-1.75 23.52-2.87 3.29-.49 6.58-.77 9.94-1.26l13.09-1.75c4.76-.63 9.17-1.26 13.86-1.75 5.11-.56 10.01-.98 15.12-1.33 3.57-.21 7.21-.28 10.78-.21 2.03 0 4.06.14 5.81.49l1.26.21c2.52.63 3.78 1.96 3.71 3.85-.07 1.61-.14 3.01-.35 4.62-.07.84-.14 1.68-.07 2.52.28 1.61-.28 3.29-.56 4.9l-.21.21c-.07.07-.21.07-.35.07-.56-.35-1.33-.63-1.96-.98-.21-.14-.35-.35-.35-.56 0-.49-.21-.77-.63-.98-.21-.07-.35-.21-.42-.28-.49-1.12-1.96-1.33-3.43-1.54-1.33-.21-2.66-.14-3.99-.14-1.75-.07-3.71-.07-5.6-.07-1.33 0-2.52-.07-3.64-.35-1.61-.35-3.15-.35-4.9.42-.07.07-.14.07-.28.07-1.12.28-1.89-.42-3.01.14-1.12.56-1.89.42-2.94.21-.49-.07-.91 0-1.33.21-.56.28-1.19.35-1.96.21-.84-.14-1.61-.07-2.24.14-.77.28-1.33.14-1.89-.07-.75-.272-1.498-.479-2.377-.425zm-37.316 6.444l.003.001h.07-.073zm37.316-6.444l-.003.005h-.07l.073-.005zm-57.823 63.005l-.07-.14h.14l.07-.14c-.14-.07-.21 0-.28.14l.14.14zm-2.8-.7l-.14-.07v-.07a.15.15 0 0 0-.14.14c-.07.21-.07.21.14.14.07 0 .07-.07.14-.14zm2.38-.84h.07l-.07.14c.07.21.07.21.14 0 .07-.07 0-.14-.07-.14h-.07zm0 0h-.07.07zm3.5-.91l-.14-.21s-.07 0-.14.07l.14.21s.07 0 .14-.07zm2.03-.35l-.07.21h.14l.07-.21h-.14zm-4.62-9.45l.07-.14c-.07-.07-.14-.07-.21.14v.14c.07.07.07.07.14-.14zm1.416-.887l.124.187c0-.07 0-.07.07-.14l-.14-.21-.054.163zm3.737-.713c-.026.043-.07.087-.113.13-.07.21 0 .21.21.14v-.14h-.14l.043-.13zm-3.263-2.18l-.07.21h.07l.07-.21h-.07zm3.22-10.01l.21-.07-.07.14c.07.21.07.21.14 0 .07-.07 0-.14-.07-.14 0 0-.07 0-.21.07zm-.42 22.12h.07c.21-.14.28-.21.28-.21s-.07-.07-.14-.21c-.21.14-.28.21-.28.21-.07.07 0 .14.07.21zm-4.9-.35h-.07c-.07-.07-.07-.14-.14-.14-.21 0-.28.21-.21.42.07.07.14.07.28 0l.14-.28zm3.99-9.975v.035h-.14l-.14.42v.07c.14-.07.21-.14.28-.35v-.175zm0 0v-.035.035zm.35-1.085l.14-.21c0-.07 0-.14-.07-.14-.07-.14-.21-.07-.28.28 0 .07 0 .14.07.21l.14-.14zm.538-1.525a.154.154 0 0 0-.048-.155c0-.21-.28-.07-.28.14-.07.14 0 .21.07.21 0 0 .065-.065.258-.195zm4.782-6.315v-.07c-.14 0-.21.07-.28.21 0 .07.07.14.14.14.14 0 .21-.07.28-.21 0-.07-.07-.07-.14-.07zm-6.51-1.12l.14-.07c-.07.07-.07.14 0 .14.07.07.14.07.21.07 0 0 0-.07.07-.14.07-.21 0-.21-.28-.14-.07 0-.07.07-.14.14zm14.7-19.18h-.14l.07-.21-.21.21c0 .07.07.14 0 .21l.28-.21zm-16.31 43.61c-.096.002-.153.013-.21.07l-.21.28.07.07.28-.21.07-.21zm0 0l.14.14-.07-.14h-.07zm18.13-48.777a.094.094 0 0 1 0-.009v.009zm-13.86 47.027c0-.07.14-.21.14-.28l-.07-.42v.07c-.07.07-.07.07-.14.07-.07.21-.14.35-.07.42 0-.07.069-.001.138.136l.002.004zm.42-9.38h-.14l.07-.28c.07-.21 0-.21-.07-.14-.07 0-.07.07-.14.14l-.07.21c-.07.07-.07.21 0 .42.14-.21.28-.28.35-.35zm1.429-2.113c-.075.181-.181.259-.239.433 0 .07.07.14.21.14.07 0 .14-.07.21-.21l-.181-.363zm-.602-2.469c-.065.197-.123.386-.057.452 0 0 .07.07.14.21l.21-.21v-.42c0-.07 0-.14-.07-.21l-.223.178zm-.967-.878l-.07-.21-.14.42c0 .07 0 .14.07.21.14-.07.21-.14.21-.21l.21-.63c0-.07 0-.14-.07-.21l-.21.63zm2.45-11.27v.07c-.14.07-.21.14-.21.21-.07.07 0 .21.07.28.07 0 .21-.07.28-.14.14-.14.14-.28.07-.42h-.21zm-5.88 23.73h.14c0-.35.14-.49.07-.7.07-.07 0-.14-.07-.21l-.21.21c-.07.35-.28.7-.07.98h.07l.07-.28zm4.41-7.49v-.07c-.07.21-.07.42-.07.49-.07.14 0 .21.14.21s.21-.07.28-.14l.14-.49c-.07-.21-.07-.42-.28-.35-.07.07-.14.14-.21.35zm3.15-22.19h.28c.21-.14.28-.28.28-.49 0-.28-.14-.42-.35-.42-.07 0-.14 0-.14.07-.28.21-.35.63-.07.84zm-1.12 2.52h-.21c-.35.28-.56.56-.56.91-.07.07 0 .14.07.14.14 0 .28 0 .35-.07.21-.21.35-.42.35-.77v-.21zm-7.56 27.72l.21-.07h-.21c-.07 0-.14.07-.21.14 0 .49-.14.77-.14 1.26h.14c.56-.49.63-.91.21-1.33zm-.14-12.46l.21-.14c.28-.91.35-.91.14-1.4.07-.07 0-.14-.07-.14-.14 0-.21 0-.28.07-.35.28-.42.56-.35.91 0 .35.14.7.21 1.05h.07l.07-.35zm5.592-6.765c-.062.196-.062.33-.062.465l.21.35c.21.07.35-.21.42-.42l.28-1.47c0-.21-.07-.42-.28-.56-.14-.14-.14-.35-.07-.56.07-.35.21-.63.35-.84.28-.49.28-.77.21-1.12 0-.07 0-.14-.07-.21 0 .07-.14.14-.14.21-.28.35-.56.63-.56 1.12l-.42 1.89c-.07.14 0 .28.14.35.193.064.209.366-.008.795zm-.482 1.725v-.21l-.28-.42h-.07c-.21.14-.28.21-.28.21-.07.49-.28.91-.49 1.26-.28.35-.35.77-.21 1.19 0 .07 0 .07.07.14.14 0 .21-.07.21-.14.28-.49.28-.77.56-1.26l.42-.84.28.42c.07.07.14.07.21-.07l.07-.21c.07-.21-.14-.21-.49-.07zm1.465 19.84c.003-.033.005-.067.005-.1.07-.14 0-.21-.14-.21-.49.07-.84.14-1.4.35-.14.07-.21.21-.21.49 0 .07-.14.21-.14.28-.14 0-.21 0-.28-.07l-.35-.84c0-.07-.07-.07-.14-.07 0 .07-.14.21-.14.28 0 .49.07.77.07 1.26.07.42.07.91 0 1.47-.07.14-.14.21-.28.21-.35.07-.63.14-.84.14-.21 0-.35-.07-.35-.21-.245-.429-.383-.804-.648-1.032-.192.2-.198.334-.402.402-.21 0-.21-.07-.42-.07s-.35.14-.42.49c-.07.49.07.77.14 1.12-.07.21-.21.28-.28.28-.35.07-.63.07-.7-.14-.07-.28-.14-.56-.49-.77-.21-.07-.42 0-.49.35l-.07.42c-.14.35-.42.56-.77.56-.35-.07-.91-.07-1.12-.56-.07-.21 0-.35-.21-.42-.49-.28-.63-.77-.49-1.47 0-.28-.07-.49-.28-.28l-.28.49c-.14.91-.07 1.75.21 2.52l-.07.21c-.07.07-.21.14-.28.07-.35-.21-.56-.42-.77-.63-.21-.21-.21-.49 0-.77.07-.21 0-.28-.07-.28-.63-.49-.84-1.19-.63-2.24.07-.21.07-.56 0-1.05-.21-2.17.07-4.41.77-6.58.21-.49.42-.77.42-1.26.07-1.12.63-2.24.91-3.36.21-1.05.7-2.1.98-3.15.35-1.4.91-2.8 1.12-4.2.07-.84.42-1.68.7-2.52l2.94-9.24c.77-2.17 1.33-4.13 2.24-6.3.63-1.47 1.05-2.94 1.61-4.41.49-1.05.77-1.82 1.12-2.87l.14-.42c1.12-3.08 2.66-6.16 3.5-9.24.28-.77.63-1.33.98-1.96.91-.07 1.82-.14 2.45.14.07.07.28.07.56.07.84-.07 1.61-.07 2.45-.28.28-.07.56 0 .84.14.14.07.28.14.49.07.56-.35 1.05-.42 1.4-.21l2.66-.42.91-.21c1.05-.21 1.47.56 1.12 1.68l-.35 1.05-1.33 3.36-.35 1.05c-1.12 2.31-1.75 4.62-2.8 6.93-.91 3.08-2.52 6.16-3.43 9.24l-1.26 3.99c-.35 1.05-.63 1.89-1.19 2.94l-.07.21c-.28 1.05-.63 2.1-.98 3.15-.42.98-.77 1.96-.98 2.94-.21 1.33-.77 2.73-1.12 4.06-.28 1.05-.7 2.1-.77 3.15l-.28 1.05c-.91 3.08-1.33 6.02-1.4 8.89.07 1.33.21 2.59.21 3.92.07.21-.28.49-.49.42-.35-.14-.7-.14-1.05.07-.21.07-.28-.14-.21-.35l.42-.84c.12-.359.086-.667-.145-.88zm-4.996-.077l.101-.303c.07-.21.07-.28-.07-.07l-.07.14.039.233zm4.996.077c-.016.177-.065.353-.065.53l-.07-.63c.05.03.096.064.135.1zm45.225-4.16c.84-.56 1.05-1.19 1.33-1.96a3.8 3.8 0 0 0-1.33 1.96zm5.67-10.43h-.07c-.07.21-.35.42-.42.63-.28.63-.56 1.26-.91 1.89l-.14.28c0 .07.07.14.14.14s.14-.07.14-.14c.28-.28.49-.49.56-.7.28-.77.49-1.33.7-2.1zm6.16.35l-.07.14h-.14c-.14.14-.14.21 0 .21l.14-.14.07-.21zm2.761-4.923l.109.163.07-.07-.14-.21-.039.117zm-26.456.863l-.035.07.035-.07zm0 0l.105-.21c0-.07-.07-.14-.07-.21-.07.07-.14.14-.14.21l-.21.63c-.07.07 0 .14.07.21 0-.07.07-.14.14-.21l.14-.49-.035.07zm9.695-34.16h.14l-.07-.07c0-.56.49-1.05.84-1.54 0-.07.07-.07.21-.07v.14c-.21.63-.49 1.12-.98 1.47 0 .07-.07.07-.14.07zm6.51 48.65l.14-.07c.07-.28.28-.7.63-1.05.07-.07.14-.14.21-.14.07 0 .14.07.07.14l.07.63c-.07.21-.21.42-.28.49-.28.35-.63.7-1.12 1.05 0 .07-.07.07-.14.07s-.14-.07-.07-.14c.21-.28.28-.49.49-.98zm10.5-14.441v-.119h.07l-.07.119zm-22.05-26.159l-.07.21h.07l.07-.21h-.07zm.63-1.05h.14l.07-.21c-.07-.21-.07-.21-.14 0l-.07.21zm4.2 45.92l-.07.07.14.21.07-.07-.14-.21zm-15.05-6.58v.14l.07-.14c-.14-.07-.21-.07-.21.14 0 .07 0 .07.07.07l.07-.21zm15.984-1.098l-.024.048c.07.21.07.21.14 0-.01 0-.06-.004-.116-.048zm.116.048h-.001zm3.08-5.53h-.07v-.14c-.066-.066-.07-.07-.13.05.007.021.068.028.13.09h.07zm0 0h.07-.07zm-15.05 4.13l.21-.07-.14-.21h-.07c-.14.07-.21.14-.21.21 0 .21.07.28.21.21v-.14zm22.68-9.66v.07c.07-.14.07-.21 0-.21s-.07 0-.14.07-.14.14-.14.21v.07l.28-.21zm-11.83 15.12h.07c-.07.07-.07.14 0 .14.07.07.21.07.28-.07 0-.07.07-.14.14-.21l.07-.21c-.14 0-.28 0-.35.07l-.21.28zm-13.16-3.15h-.07c-.07 0-.14 0-.21.07v.63h.14c.14-.07.21-.14.21-.21.07-.28.07-.42-.07-.49zm2.66-4.2l-.07.07c.07-.21.07-.35.07-.42 0 0-.07-.07-.14-.21-.14.07-.21.14-.21.21-.07.07-.07.21 0 .42 0 .07 0 .14.07.21.14-.07.21-.21.28-.28zm22.225-2.1l-.035.07-.14-.14h-.14l-.28.42c0 .07 0 .14.07.21.21-.07.28-.14.35-.21l.175-.35zm0 0l.035-.07-.035.07zm-25.725-.56h.07l.07-.35c0-.07 0-.14-.07-.21-.14.07-.21.14-.21.21l-.21.63c0 .07 0 .14.07.21.07-.07.14-.14.14-.21l.14-.28zm15.89 4.34l-.07.14-.07.21.14.21c.07-.07.14-.14.35-.21.21-.21.28-.42.35-.63a.53.53 0 0 0-.28-.14c-.07 0-.14.07-.21.14l-.21.28zm10.465-6.335l.035-.105-.035.105zm0 0l-.105.315c0 .07 0 .07.07.14.14 0 .21 0 .28-.07.35-.35.49-.63.49-.98 0-.07-.07-.07-.21-.07l-.07.07-.49.7.035-.105zm8.925-12.565l.14.07c-.07.21-.21.21-.21.42-.07.14 0 .21.14.21s.21-.07.21-.14c.28-.49.49-.98.56-1.47l-.07-.07h-.14c-.35.28-.42.63-.63.98zm-11.83 3.92h.07c.07-.21.07-.35.07-.42-.07-.21-.14-.28-.28-.28-.21 0-.35.07-.49.28-.21.35-.35.7-.42 1.05-.07.07 0 .14.07.14.49 0 .77-.28.98-.77zm-3.15 13.79l.07-.14-.14-.21h-.07c-.63.49-1.05 1.05-1.12 1.82-.07.14 0 .21.07.21.14 0 .21-.07.28-.14l.91-1.54zm.63-8.61h.07l-.14.35c0 .07 0 .07.07.14.14 0 .21 0 .21-.07.21-.28.28-.49.35-.63l1.05-2.73-.07-.07c-.07 0-.14 0-.21.07-.49.98-.98 1.96-1.33 2.94zm-3.92 12.11l-.07-.21c.07-.14.07-.21 0-.28-.07-.07-.07-.14-.14-.14-.14 0-.21.07-.28.14-.35.63-.91 1.19-1.26 1.96-.21.21-.14.42-.21.63-.07.07 0 .14.07.14h.21c.49-.28.77-.56.91-.77l.77-1.47zm.21 2.17l.14.21c-.35.91-.77 1.68-1.33 2.38-.14.07-.21.21-.28.28-.07.21 0 .35.07.42.14.07.28.07.49 0 .21-.07.35-.21.49-.35.63-.63 1.19-1.26 1.54-2.03.21-.49.56-.98.91-1.61 1.33-2.03 2.24-4.13 3.36-6.16.91-1.61 1.05-2.31 1.26-3.71.07-.21-.07-.21-.35-.14l-.63.42c-.14-.07-.28-.14-.35-.14-.21 0-.35.14-.56.42-.35.49-.56.98-.77 1.47-.21.56-.42 1.12-.49 1.68.28.49.21 1.05-.21 1.82-.56 1.05-1.12 1.89-1.75 2.94 0 .07-.07.14-.21.21l-.42-.56c-.07-.14-.21-.07-.42.14l-.56 1.05-.28.91c-.07.21.07.35.35.35zm-16.475-3.598l.235-1.232.42-2.52c0-.07 0-.14-.07-.14-.07-.07-.14 0-.28.14-.21.28-.63.28-.63.56l-.14 2.17c.07.21.07.35.14.42.243.146.25.394.325.602zm-.014.425l-.101.303c-.07.14 0 .14.14.07v-.14l-.039-.233zm18.9-5.203c-.36.33-.603.713-.731 1.096 0 0 .07.07.14.21l.14-.14c.327-.458.287-.732.452-1.166zm.128-.15c.67-.43.544-.39.611-.994 0 0-.07-.07-.14-.21-.07.07-.14.14-.14.21l-.331.993zm5.091-15.134l.07.49c.35-1.05.77-2.03.77-3.08.07-.63.35-1.19.91-1.68.28-.28.35-.63.63-.98.91-2.17 1.68-4.13 2.31-6.3.35-1.05.84-1.89 1.12-2.94.77-1.96 1.4-3.92 2.03-5.88l.91-2.73c.14-.49.42-.77.84-.77.28 0 .56-.14.91-.49.42-.35.84-.56 1.26-.63l4.62-.63 1.05-.21c.42-.14.84-.14 1.33-.07.56.07 1.12-.07 1.68-.42.42-.28.91-.35 1.47-.28 1.05.07 1.47.98.98 1.89-.63 1.33-1.05 2.45-1.33 3.78-.77 2.73-1.89 5.46-2.73 8.19l-.42.98c-.49.91-.7 1.82-1.19 2.73l-1.05 2.52-1.54 3.99c-.21.63-.28 1.26-.77 1.89l-.35.98c-.56 1.4-.98 2.8-1.61 4.2-1.47 3.64-2.52 7.35-3.92 11.06l-.91 2.52-.77 2.52c-.49 1.33-.7 2.45-1.19 3.78-.07.14-.14.35-.35.63-.07.07-.14.14-.21.14-.14 0-.21-.07-.14-.14 0-.84 0-1.68.49-2.59.21-.35.28-.77.35-1.12.07-.28.14-.49.14-.63-.28-1.19.42-2.38.77-3.71.56-.77.7-1.54.7-2.31.07-.49.14-.98.35-1.4.28-.56.28-1.19.49-1.75.21-.56.42-1.12.7-1.68v-.14c-.49-.56.42-1.26.42-1.89.07-.63.28-1.19.63-1.68l.07-.21c.21-.56 0-1.12.49-1.75.49-.56.35-1.19.7-1.75.07-.07.07-.14 0-.14-.07-.07-.14-.14-.21-.14-.14 0-.21.07-.21.14-.49.77-.98 1.54-1.05 2.38-.07.49-.21.77-.28.98-.49.77-.56 1.33-.77 2.1-.07.35-.28.49-.63.35-.35-.07-.56 0-.63.21-.35.49-.63 1.12-.84 1.75-.35 1.05-.7 2.1-1.19 3.15-.07.21-.21.28-.42.28h-.21c-.21-.07-.35-.07-.42.14l-.42.63c-.35.63-.56 1.26-1.12 1.82-.49.49-.7 1.12-1.05 1.68-.35.49-.7.77-1.19.84l-.91.21-.07.14c0 .07 0 .07.07.14h.42c.49 0 .56.21.35.56l-1.12 2.1c-.07.21-.28.42-.56.7h-.14c-.07 0-.14-.07-.07-.14-.07-.49.28-.77.56-1.26 0 0-.07-.07-.14-.21 0 0-.07 0-.21.07-.56.28-.77.7-1.05 1.19-.14.28-.35.35-.7.21-.07 0-.14-.07-.21-.07-.21-.07-.35 0-.35.28l-.07.84c0 .49 0 .98-.56 1.47l-.14.28c.07.56-.28.98-.91 1.26-.14.07-.21.21-.21.28 0 .49-.49.98-.56 1.47-.07.07 0 .14.07.14h.14l.77-.63c0-.07.07-.07.14-.07.14 0 .21.07.14.21-.28.63-.63 1.26-1.26 1.75-.77 1.05-1.75 1.61-2.87 1.96-1.61.56-3.08 1.12-4.69 1.4-1.61.28-3.15.63-4.62.98-1.68.49-3.5.63-5.25.91-.77.14-1.47.07-2.17-.28-1.12-.49-2.17-.84-3.01-1.61-1.47-1.26-2.31-2.8-2.66-4.55-.49-2.17-.49-4.41-.28-6.86.21-2.03.49-4.06.77-6.09.28-1.68.7-3.36 1.05-5.04.35-1.61 1.05-3.08 1.26-4.69.63-1.4.63-2.8 1.26-4.2 0-.21.07-.42.14-.63.91-1.68 1.19-3.36 1.96-5.04l.84-1.89.49-1.05c.21-.7.49-1.4.84-2.1.56-1.05.84-2.03 1.4-3.08 1.61-3.29 3.29-6.37 5.25-9.52.56-.91 1.05-1.82 1.54-2.87.63-1.33.84-1.54 2.24-1.61.84-.07 1.68 0 2.45.07.28 0 .49.14.7.35.07.07.14.35-.07.56l-.14.28c-.63.77-1.19 1.61-1.82 2.66l-.91 1.4c-.21.35-.35.63-.35.77 0 .63-.35 1.19-.63 1.75 0 .07 0 .14.07.21l.28-.21.49-.42h.07l-.07.21c-.07.49-.21.91-.49 1.4-1.19 1.89-1.82 3.64-2.87 5.53-.91 1.61-1.33 3.08-2.1 4.69-.07.35 0 .7-.21 1.05-.56 1.89-1.12 3.78-2.03 5.67-.21.28-.28.56-.28.84-.07.56-.28 1.05-.56 1.47-.21.35-.28.63-.28.91 0 .63-.21 1.26-.49 1.89-.35 1.05-.49 1.96-.49 2.87 0 .28 0 .56-.07.84-.35 1.12-.35 2.17-.63 3.22-.07.21-.21.42-.14.63.35.77-.14 1.54-.42 2.31-.07.21-.07.42-.07.49.07.14.14.28.28.35.14.07.28.07.42-.14.35-.35.49-.77.49-1.26.07-.84.28-1.61.63-2.24.14-.21.21-.42.21-.63.21-1.05.56-1.89.91-2.94.28-.91.56-1.82.77-2.73 0-.77.42-1.54.63-2.31.07-.21.35-.42.42-.35.07.14.14.21.14.21-.07.56-.35 1.12-.42 1.68-.07.21.07.28.28.28.07 0 .07.07.14.14v.14l-.14.42c-.49 1.61-.56 3.22-1.19 4.83-.07.14-.07.35-.07.63 0 1.05-.14 1.96-.49 3.01l-.14.42c-.07.63.14 1.33.35 1.12.42-.21.7-.63.84-1.12.21-.49.21-.77.21-1.26.07-.28.21-.49.28-.63 0 0 .07-.07.28-.21h.07c.35.35.14.84.21 1.33.07.35.28.63.35 1.12 0 .63 0 1.19.21 1.75v1.12c-.35 1.61-.14 3.01-.07 4.48 0 .56.14 1.12.14 1.68a6.23 6.23 0 0 0 1.33 3.22c.14.21.35.21.56-.14.28-.49.7-.77.98-1.26 2.17-3.08 3.99-6.3 5.6-9.59.49-.77.77-1.61 1.33-2.38.84-1.12 1.12-2.31 1.89-3.43l.14-.35c.35-1.19 1.05-2.38 1.61-3.57l.49-1.05c.14-.49.42-.91.84-1.4.07-.21.21-.21.42 0 .07 0 0 .07.07.07.28.28.49.21.63-.14l.56-1.68-.07-.07c-.07 0-.14.07-.21.14l-.21.28c-.28.21-.63.21-.7 0-.07-.07-.07-.21-.07-.28.35-.77.63-1.54 1.26-2.17.07-.07.21-.07.35-.07v.14l-.07.21c-.07.21-.21.49.07.49 0 0 .07-.14.28-.35.07-.07.14-.14.21-.14.14-.07.21 0 .14.14l-.49 1.68c-.07.07-.07.21 0 .42.07.14.14.21.21.14.07 0 .14-.07.21-.14.21-.28.28-.49.35-.63l.63-2.1zm50.68-15.54h-.14c.07 0 .14-.07.21-.07l.07.07c-.07.21-.14.21-.21.14l.07-.14zm-20.02 18.83c-.07.07-.07.14-.14.14-.14.07-.21.07-.14-.14 0 0 .07 0 .14-.07 0 0 .07 0 .14.07zm19.486-19.696c-.064.011-.096-.02-.096-.114v-.07c.14-.07.21-.07.21.07l-.114.114zm0 0a.462.462 0 0 0 .114-.044l-.14.07.026-.026zm-16.966 17.806l-.07-.14c.14-.21.28-.28.35-.35h.28l-.14.28-.42.21zm10.22-7.84v-.07c-.07.21-.28.35-.49.42-.14 0-.21-.07-.21-.14a.8.8 0 0 1 .56-.49c.07 0 .14.07.21.14l-.07.14zm10.08-11.2l-.91.21c-.07 0-.07.07-.14.21.07.07.07.07.14.07l.56.21.42-.63-.07-.07zm2.73-9.73c-.07-.21-.14-.28-.14-.28-.07 0-.14.07-.28.14-.07 0-.14.07-.21.14-.35.77-.84 1.33-1.19 2.1-.07.07-.07.21 0 .28.07.21.21.28.42.07.14-.07.21-.14.21-.21.49-.77.7-1.4 1.05-2.17l.14-.07zm-13.23 38.08l-.21.14.07-.21c.07-.14.07-.14.14-.07v.14zm1.56-6.772l.05-.298.07-.14c.14 0 .14.07.07.21l-.19.228zm0 0l-.02.122-.14.07.16-.192zm-5.76 25.042h-.14l-.42.28c-.14 0-.21-.07-.21-.14-.07-.49-.07-.84 0-1.05.07-.21.14-.21.35-.42.21-.14.28-.07.35.14.21.35.21.77.07 1.19zm.84-5.39l.07.07-.7 2.03c-.07.21-.21.28-.42.21-.49-.21-.63-.56-.56-1.05.07-.49.07-.77.28-1.26.07-.35.42-.63.98-.7.42-.07.56.07.42.42l-.07.28zm-22.33-5.39v.14l.07-.14c-.14-.07-.21-.07-.21.14 0 .07 0 .07.07.07l.07-.21zm37.24-36.54h.14l-.07.14c.07.07.14.07.21-.14v-.14c-.07-.07-.21 0-.28.14zm-3.08 5.95l.07-.21c-.07 0-.14 0-.21.07l-.07.14h.21zm-18.48-1.26h-.14v-.14c-.07-.07-.07-.07-.14.14v.07c.07 0 .21-.07.28-.07zm-21.21 42.91v-.14c.07-.21.07-.21-.07-.14l-.07.14c-.07.21 0 .21.14.14zm10.36-25.06l-.07.21c-.07.21 0 .21.14 0l.07-.21h-.14zm35.14-21.7l-.14-.07c.07-.07.07-.14 0-.14-.07-.07-.28.14-.35.35-.07.07 0 .14.07.14.21.07.35 0 .42-.28zm-24.15 44.38l.07-.21a.15.15 0 0 0-.14-.14c-.21 0-.28.07-.21.21 0 .07 0 .14.07.21 0 0 .07 0 .21-.07zm-21-.28h.07c.21-.14.28-.21.28-.21.07-.14 0-.21-.07-.21-.21-.07-.35 0-.35.21 0 .07 0 .14.07.21zm19.67-38.43l-.21.21c0 .07.07.14 0 .21.14-.07.21-.14.21-.21.07-.07 0-.14 0-.21zm-15.47 31.01l.14-.07-.14-.21c-.21.07-.28.07-.35.14-.21.21-.14.35.07.35 0 0 .07-.07.28-.21zm22.68-6.3v.07l-.21.21.07.07c.07 0 .14-.07.28-.14l-.14-.21zm-19.6-3.71l-.07.07c.14-.07.21-.14.21-.21.07-.14.07-.21-.07-.21a.15.15 0 0 0-.14.14l-.07.21h.14zm7.35-8.26l.14-.42h-.21l-.14.28s.07.07.21.14zm37.52-25.2l-.14.28h-.14c-.14.07-.21.14-.21.21 0 0 .07 0 .14.07.21 0 .28-.14.35-.35v-.21zm-30.73 49.21l-.14.07-.07.21c0 .07 0 .14.07.21.14-.07.21-.14.21-.21l.07-.21c.14-.35.14-.42 0-.35l-.14.28zm-10.848-22.468l-.002-.002.002.002zm-.002-.002c0 .07-.14.14-.14.21l-.07.28c-.07.07 0 .14.07.21l.28-.21v-.07c.07-.14.07-.21 0-.28 0-.07-.069-.07-.138-.138l-.002-.002zm3.15.56h-.07l.14-.28c0-.07 0-.14-.07-.21-.14.07-.21.14-.21.21l-.14.28c0 .07 0 .14.07.21l.28-.21zm-3.99 0h.14l-.14-.21-.28.21-.21.21c0 .07 0 .14.07.21l.28-.14.14-.28zm37.66-26.67l.07-.07h.14l.28-.42v-.07c-.14 0-.28 0-.35.07-.21.21-.35.49-.14.49zm-40.88 35.07v.07c.07-.14.07-.21 0-.28-.07-.14-.21-.07-.42.28l-.07.14.14.21.28-.21.07-.21zm7.63-17.29v.14l.42-.35c0-.07 0-.21-.07-.28-.21-.07-.35 0-.42.21 0 0 0 .07.07.28zm-15.19 36.96v.07c-.21.07-.35.14-.35.21-.07.21-.07.35-.07.42s0 .07.07.07.07 0 .07.07c.21-.21.35-.21.35-.42.07-.21-.07-.21-.07-.42zm18.69-37.1h-.14l.14-.42c.07-.07 0-.14-.07-.14-.14 0-.21.07-.28.21-.07.21-.07.35-.07.42 0 0 .07.07.14.21.14-.07.21-.21.28-.28zm-1.89 4.27h.07l.14-.49c0-.07 0-.14-.07-.21-.21.14-.28.21-.28.21l-.35.98c0 .07.07.14.14.14l.07-.07.28-.56zm-14.98 33.04l.07-.21.14-.35c0-.07 0-.14-.07-.21-.07.07-.14.14-.14.21l-.35 1.05v.21c.14-.07.21-.14.21-.21l.14-.49zm24.5-14h-.21c-.21.14-.28.21-.28.21-.21.35-.14.56.14.63.14 0 .21-.07.28-.14.21-.28.28-.49.07-.7zm-22.89 8.19c0-.07 0-.14-.07-.21 0 .07-.14.14-.14.21l-.56 1.68c0 .07.07.14 0 .21.14-.07.21-.14.21-.21l.56-1.68zm18.62 3.78l-.07-.07c.07-.21.21-.56.14-.84h-.14c-.07 0-.14.07-.21.14-.21.49-.07.7-.07 1.19-.07.07 0 .14 0 .21l.21-.21.14-.42zm-16.1-13.65l.07.07c-.07.28-.14.49-.14.63-.07.14-.07.28 0 .35.07.07.28-.21.49-.49.21-.35.21-.7.07-1.05h-.14c-.07 0-.07 0-.14.07l-.21.42zm20.58.28l.14-.07v.49h.14c.07 0 .14-.07.14-.14.28-.28.07-.56.28-.84l.56-.84s-.07 0-.14-.07h-.21c-.35.28-.7.77-.91 1.47zm24.71-41.02h-.14l.49-1.47v-.21c-.14.07-.21.14-.21.21-.28.91-.98 1.68-1.54 2.45 0 .07 0 .21.07.28.07.14.28.07.49-.14.35-.28.63-.63.84-1.12zm-46.76 47.46l-.07.07.49-1.47c.07-.21.07-.21-.07-.14-.07 0-.07.07-.14.14-.77.91-.84 1.82-.84 2.73h.14l.07-.07.42-1.26zm-2.94 2.17l.07.07c0 .21-.21.56-.21.91-.07.07 0 .14.14.14.07 0 .21-.07.35-.14.35-.35.49-.63.56-.91.21-.63.28-1.26.28-1.89h-.14c-.07 0-.14 0-.14.07-.56.49-.63.98-.91 1.75zm43.75-42.28l-.07-.07c.21 0 .35 0 .49-.07.7-.49 1.12-.98 1.26-1.61.07-.21.21-.35.49-.49.49-.21.49-.28.42-.49-.14-.35 0-.7.42-.91.35-.21.63-.49.84-.84l.14-.42a.15.15 0 0 0-.14-.14h-.14c-.63.77-1.47 1.33-2.03 2.17-.28.49-.7.77-.98 1.12l-.98 1.05c-.07.21 0 .63.28.7zm-2.94.56l-.35-.14c.07-.7.42-1.33.98-1.82l.28-.21.14-.28h-.28c-.63.21-1.12.56-1.61.91-.07.07-.14.07-.28.07-.21 0-.21-.14 0-.42l.56-.77c0-.07 0-.21-.07-.28-.07-.07-.14-.07-.28 0l-1.33 1.05c-.07.07-.14.07-.21-.07l.07-.14c.07-.21.21-.42.49-.7.28-.21.63-.42.7-.63.49-.77.91-1.33 1.4-1.96.21-.21.35-.49.56-.84.63-1.47 1.47-2.87 2.24-4.27.07-.21.07-.35-.14-.35-.7.07-1.4.21-2.03.42-2.24.63-4.34 1.47-6.51 2.31l-3.15 1.47-5.88 3.29c-.63.35-1.19.77-1.68 1.26-.35.21-.49.49-.49.77 0 1.33-.63 2.66-1.26 3.99-.28.56-.56 1.05-.56 1.61 0 .35-.07.63-.28.91-.49.84-.7 1.68-.98 2.52-.21.35-.14.77-.42 1.12-.49 1.05-.91 2.1-1.26 3.15l-2.17 5.25c0 .21-.21.42-.28.63-.56 1.33-.98 2.52-1.26 3.57-.07.49-.14.98-.42 1.47-.07.21-.07.35.07.42.07.07.21.07.42 0 .7-.35 3.85-2.24 4.27-2.66l3.01-2.1.84-.7c.21-.21.21-.21.28-.42-.21 0-.14-.07-.35-.07l-1.61.28c-.49.07-.84-.14-1.05-.63-.07-.42.07-.84.49-1.26.77-.77 1.61-1.47 2.52-2.03 1.19-.77 2.45-1.26 3.78-1.47 1.05-.07 1.89-.14 2.8-.14.35 0 .7-.07.98-.28.63-.49 1.19-.77 1.75-1.26 1.12-1.05 2.31-1.89 3.43-2.8 1.75-1.47 3.71-2.94 5.39-4.55l.21-.28c0-.07 0-.14-.07-.14h-.14c-.49.14-.84.42-1.05.77-.63.63-1.33 1.05-1.89 1.54-.49.42-.91.63-1.4.7-.42.07-.84.28-1.33.7l-.84.63c-1.05.84-2.1 1.68-3.15 2.45l-.42.21-.07-.07c.28-.21.49-.49.7-.7 1.4-1.05 2.66-2.1 3.99-3.29l1.68-1.47c.63-.49 1.12-.84 1.47-1.47.07-.21.28-.35.56-.56l1.26-1.26.21-.42-.07-.07c-.35 0-.63.28-.91.49-.28.07-.49.07-.56-.14.35-.21.63-.35.7-.56.14-.21.07-.28-.14-.28zm-18.935 41.264c.397-.408.593-.818.525-1.294v-.77c-.42.77-.63 1.4-.56 1.89-.058.058-.02.116.035.174zm.116.207c-.079.268-.07.47-.011.529h.07l.07-.14a.602.602 0 0 0-.13-.39zm26.042-44.234c.512-.212.845-.552 1.177-1.017.07-.14.07-.21-.07-.21-.07 0-.14 0-.14.07-.43.43-.753.753-.967 1.157zm-.213.251c-.776.478-1.373 1.082-1.97 1.812l-.125.166c.867-.453 1.565-1.13 2.095-1.978zm-2.247 2.094a.866.866 0 0 0-.563.278c-.21.21-.21.42 0 .42.14 0 .21-.07.28-.14.062-.186.124-.372.283-.558zm-14.112 22.095l-.171.513.07.07c.07 0 .14 0 .14-.07l.63-.63h.07c.07 0 .14.07.14.14l-2.52 5.04c-.84 1.68-1.54 3.36-2.31 5.04-1.68 3.01-2.24 6.02-3.29 9.03l-.28 1.68c-.35 1.33-.49 2.38-.77 3.71l-.21.98-.14 3.36c0 .14-.07.35-.14.63-.07.21-.28.35-.63.35-.21 0-.28-.07-.35-.28-.07-.14-.07-.42-.14-.77-.07-.28 0-.56-.07-.77-.49-.84-.21-1.89-.28-2.8-.07-.21.07-.42.07-.63l-.14-.14c0 .07-.07.14-.14.21l-.35 1.05c-.07.35-.35.77-.7 1.12h-.21c-.35 0-.49.14-.56.35 0 .28-.14.56-.14.84-.07 1.05-.07 1.96-.35 3.01-.07.21 0 .21.07.42-.07.21-.21.35-.49.42h-.21c-.28 0-.49.14-.56.35l-.28 1.47s-.07.07-.28.21h-.07c-.07-.07-.07-.21-.14-.42-.21-.49-.63-.63-1.26-.28-.35.14-.56.35-.63.63-.21.35-.21.7-.28 1.05-.07.14-.14.21-.28.21-.21 0-.28-.28-.56-.07-.21.07-.35.07-.35-.14 0-.91-.56-1.47-.63-2.31-.21-1.33-.21-2.52-.21-3.85.21-2.73.63-5.53 1.4-8.33l.28-.84c.35-1.4.77-2.8 1.4-4.2.28-.49.42-.77.49-1.26.56-1.61 1.33-3.08 1.96-4.69l2.59-5.46.84-1.68 1.33-2.73c.21-.28.49-.56.14-.77-.21-.21-.56.14-.77.35-1.4 1.12-2.94 2.03-4.34 3.08-1.4.91-2.52 1.75-3.92 2.38-.35.21-.63.49-.77.98l-.42 1.26-3.57 10.92c-.07.28-.14.49-.14.63-.21 1.61-.7 3.01-1.19 4.62-.28 1.05-.7 2.03-.7 3.08 0 .21-.21.42-.21.63-.14.42-.49.7-.98.77l-.84.14-2.66.42c-.42.07-.7.14-.91.14-.35 0-.7.07-.98.28-.42.21-.84.28-1.26.28-.35 0-.77.28-1.12.35-.49.07-.7-.21-1.05 0-.14.07-.28.14-.35.14l-.35-.28c-.07-.42-.07-.84.14-1.19.21-.49.07-.77-.42-.91-.21-.07-.14-.21-.35-.28-.21-.07-.14-.28-.14-.49-.07-.28-.07-.35-.63-.14-.28.07-.49 0-.63-.21 0-.21 0-.35.07-.49l.63-1.26c.21-.28.14-.49-.14-.56-.07 0-.14-.07-.07-.21l.14-.28.77-.42c.21-.07.35-.07.42.14 0 .21-.14.42-.07.63-.07.07-.07.07 0 .14 0 .07 0 .07.07.07.35-.21.7-.07 1.05-.07.28 0 .49-.14.56-.42l.21-.42c.35-1.96.98-3.92 1.61-5.88l.07-.14c-.14 0-.21.07-.28.21-.28.49-.77.7-1.12.98-.28.21-.42.49-.35.7.28.63-.07 1.26-.35 2.03l-.14.14c-.49-.07-.63.35-.91.56h-.21l-.49-.42c-.07-.07-.07-.14-.07-.21l.14-1.05c0-.21.14-.35.35-.56.21-.21.21-.42.07-.7-.14-.42 0-.91.49-1.4.21-.28.35-.56.28-.91-.07-.49.07-.84.28-1.33.28-.91.56-1.82.77-2.73 0-.49.14-.77.35-1.26.07-.56.49-1.12.56-1.68.07-.56.28-1.12.56-1.68.28-.56.56-1.12.56-1.68-.07-.21 0-.42.21-.63.63-1.33.91-2.45 1.4-3.78l.84-1.89 1.05-2.73.98-2.31c0-.21.21-.42.21-.63.56-1.47 1.12-2.94 1.75-4.41l2.31-5.46c.63-1.33 1.05-2.66 1.68-3.99.07-.35.21-.63.35-.84.84-1.47 1.12-2.94 1.68-4.55.07-.49.21-.98.21-1.47-.07-.49-.07-.84 0-1.05.07-.35.21-.63.56-.84.21-.14.42-.28.7-.35.77-.21 1.4-.35 2.03-.35.77 0 1.33-.14 2.1-.14s1.47-.14 2.1.07c.49.07.84.14 1.4-.35.21-.14.49-.21.84-.21.91.07 1.82.07 2.87.07.28 0 .56-.07.84-.21 1.05-.56 2.03-1.05 3.08-1.82.56-.35 1.05-.63 1.61-.7.56-.07 1.12-.21 1.68-.42.28-.07.42-.14.42-.07.35.35.7.07 1.19-.21.77-.49 1.47-.7 2.1-1.19.56-.49 1.19-.42 1.82-.63.77-.21 1.61-.21 2.38-.28.21 0 .56.07.98.14.84.07 1.68.07 2.52.07 1.61-.07 3.15-.07 4.62.21.56.21 1.19.07 1.75 0 .77-.07 1.4-.07 1.82.14.21.07.56.21.98.28.56.21.98.49 1.47.77l.21.21c.35.84.49 1.75.21 2.94-.49 1.68-1.4 3.22-2.59 4.69a43.7 43.7 0 0 1-4.62 4.97l-3.22 3.01c-1.47 1.33-3.01 2.45-4.48 3.64l-2.87 2.31c-.84.77-1.75 1.33-2.59 2.1-.28.21-.49.35-.56.56-.07.21 0 .28.14.28.49 0 .77-.07 1.26-.07.07 0 .21.07.35.14.21.07.21.28 0 .49-.07.07-.14.14-.21.14h-.42c-.21 0-.35 0-.49.07-1.12.28-1.82.91-2.1 1.82-.21.63-.42 1.19-.77 1.75-.49.77-.7 1.4-.63 1.89 0 .63-.28 1.19-.91 1.68-.63.56-.7 1.19-1.19 1.96-.07.07 0 .14.07.14.56.49.07 1.12-.28 1.75l-1.54 2.94c-.49.77-.56 1.54-.84 2.31l.07.07c.07 0 .21 0 .28-.07.07 0 .07-.07.07-.14.77-1.61 1.68-2.94 2.52-4.55.49-1.05 1.05-1.89 1.82-2.8l.031-.023zm0 0l.319-.957-.07.77-.249.187zm40.009-19.997v-.07l.42-.21h-.63l-.28.21c.07 0 .14.07.21.07h.28zm-21.113 29.382a4.722 4.722 0 0 1-.027.018h.07a.271.271 0 0 1-.043-.018zm3.963-9.362v-.14h.14l.49-.84s-.07 0-.14-.07c-.07 0-.14 0-.14.07-.21.21-.35.42-.35.77-.07.07 0 .14 0 .21zm7.14-13.23l-.35.21c-.21.21-.28.42-.35.77 0 .07.07.14.14.14s.14-.07.14-.14c.21-.28.49-.56.56-.91 0-.07-.07-.07-.14-.07zm5.53 2.73c-.07.21-.07.28-.14.35-.14.07-.28.14-.35.14-.07 0-.14-.07-.21-.14-.07-.28.07-.56.35-.77.21-.07.28-.07.35.14v.28zm-7.42.84h-.07l-.14-.21h-.07c-.28.21-.49.49-.56.7-.07.14 0 .21.14.21.49-.07.7-.35.7-.7zm13.869-11.2a.167.167 0 0 0 .02-.003l-.02.003zm9.581-4.97h-.21c-.07-.07-.07-.14-.14-.14l-1.75.21c-.07 0-.21.07-.42.14-.14.07-.21.21-.28.28-.07.14 0 .21.14.21.63.07 1.33-.21 1.89 0 .21.07.77-.42.77-.7zm-30.59 26.81l-.28.21c-.21-.21-.56-.28-.91-.07l-.14.28.07.07.98-.28c-.21.35-.42.63-.63 1.12-.84 1.61-1.4 3.15-2.45 4.76-.21.21-.28.42-.28.49.07.77-.49 1.4-1.05 2.17 0 .07-.07.07-.21.07-.21 0-.28 0-.28.07-.35.49-.42.77-.7 1.26 0 .07 0 .14-.07.35 0 .21.14.28.35.21l.49-.21c.84-.21 1.19-.77 1.47-1.4.07-.35.07-.7.28-1.05.07-.49.21-.77.49-1.26.07-.21.21-.35.49-.42.77-.21.77-.28.98-.77l.49-1.47v-.21c-.21.14-.28.21-.28.21-.21.21-.14.42-.35.63l-.35.42c0 .07-.07.07-.14.14-.07-.07-.07-.14-.07-.21 0-.49.42-.84.63-1.33.28-.49.35-.77.56-1.26.07-.14.14-.21.28-.21 0 0 .07.07.14.21.07.07 0 .21.07.28 0 .07 0 .14.07.21l.28-.21c.21-.21.28-.42.21-.63l-.28-.49c-.21-.28-.14-.56.07-.91.21-.28.28-.56.07-.77zm10.117-18.172c-.034.037-.07.075-.107.112.014.047.026.094.037.14h.033v-.14l.037-.112zm11.023 25.732l.42.07c-.91.07-1.75.14-2.66.42-.35.21-.7.07-1.05.07-.07 0-.07-.07-.14-.07 0-.07 0-.14.07-.14.84-.21 1.54-.42 2.38-.7.07 0 .07-.07.14-.21 0 0-.07 0-.14-.07h-.21c-.56-.07-1.12-.07-1.68.28-.49.28-.98.42-1.47.42-.63 0-1.33.21-1.89.42l-2.38.84c-.56.21-.28.21-.07.42.14.21.07.35-.21.42l-.7.21c-.28.07-.63 0-.91.21-.84.49-1.47.42-2.31.63-.77.21-1.26 0-1.89-.07a.15.15 0 0 0-.14.14c-.07.07 0 .14.07.14.07.07.14.07.21.07.07.14.14.21.14.21 0 .49.35.35.7.28.56-.07.84-.35 1.33-.28.07 0 .07 0 .07.07-.07.14-.07.21-.14.21l-.98.42c-1.61.56-3.22 1.33-4.9 1.89l-.42.42v.07h.35c1.05-.28 2.03-.49 3.15-.98.91-.35 1.61-.42 2.24-.21.21.07.28 0 .28-.28.07-.07.14-.21.28-.28.63-.28 1.12-.42 1.61-.35.21.07.56.07 1.05.07 0 0 .07-.07.28-.21.07-.07.07-.28.14-.28.77-.35 1.47-.7 2.1-.49.77.21 1.54 0 2.31-.21 1.12-.28 2.24-.42 3.29-.63.84-.21 1.68-.28 2.52-.49.77-.21 1.68-.42 2.73-.49.91-.07 1.89-.28 2.8-.21.07 0 .14.07.07.14v.14c-.35.21-.63.28-.77.35-.14.07-.35.07-.7.07-.42-.07-.91 0-1.47.14-1.12.35-2.24.49-3.29.7-1.05.07-1.89.28-2.94.49-1.68.49-3.5.91-5.25 1.4-.56.21-1.05.21-1.68.56-.21.07-.35.14-.49.14-.63-.07-1.26.14-1.89.35l-2.66 1.05c-.56.21-.98.49-1.26.84-.21.21-.56.28-.84.49l-.21.42c-.07.28 0 .35.21.28.77-.28 1.33-.42 2.1-.91.77-.49 1.54-.7 2.17-.63.56.07 1.19-.42 1.75-.21.21.07.42 0 .77-.21.35-.21.7-.49 1.19-.7.21-.07.42-.14.56-.14.77.21 1.61 0 2.52-.21.77-.21 1.47-.14 2.31-.21.07 0 .07.07.14.14-.07.07-.07.14-.14.14-.28.21-.7.21-1.05.42-.07 0-.07.07-.07.14.07.07.07.14.14.14.21 0 .63-.07 1.12-.14.49-.07 1.05-.14 1.54-.35.56-.21 1.12-.28 1.68-.49.63-.21 1.33-.42 2.17-.49l3.64-.21c1.33-.07 2.45 0 3.57.21.07 0 .14.07.07.14l-.07.07-1.54.21c-1.12.07-2.24.21-3.29.42-1.12.21-2.31.28-3.43.49-1.96.21-3.92.77-5.95 1.26-1.75.49-3.29.84-4.9 1.33 0 0-.07.07-.21.14.07.07.07.14.14.14.49-.07.77 0 1.12-.21 1.68-.56 3.22-.77 4.97-1.12.63-.21 1.33-.21 1.96-.49h.21c1.33 0 2.52-.35 3.85-.7.21-.07.49 0 .7 0 .35 0 .63 0 .84-.07 1.47-.35 2.8-.42 4.13-.35.07 0 .14.07.07.14 0 .07 0 .07-.07.14-.84.21-1.4.28-2.24.35l-2.17.21c-2.03.21-4.13.63-6.3 1.19-.56.21-.91.28-1.4.35-.84.21-1.61.49-2.45.77-.63.21-1.26.14-2.1.35-.49.07-.77.21-1.26.42l-.7.28c-1.4.35-2.66.7-4.06 1.33-.21.21-.49.14-.77.21-.77.21-1.47.21-2.31.77-.35.28-.77.35-1.33.56l-1.4.56c-1.12.49-1.4.7-1.4 1.89v1.26c0 .14-.07.35-.14.63-.07.35-.28.42-.56.35-.35-.21-.63-.28-.91-.49-.63-.49-1.33-.84-1.96-1.19-.21 0-.28.07-.35.21 0 .21-.07.42-.14.63l-.21.42s-.07.07-.28.21c-.07.07-.21.07-.28 0l-.42-.63c-.21-.42-.56-.56-1.05-.35-1.05.42-2.1.7-3.08.84-.49.07-.84.35-1.05.98l-.14.42c-.07.07-.14.14-.21.14-.07 0-.14 0-.14-.07-.07-.28-.42-.35-.07-.84v-1.61c0-.56.28-1.12.21-1.68l.07-2.73s-.07-.07-.14-.21c-.21-.07-.35 0-.42.35l-.28.84c-.28 1.19-.7 2.38-.77 3.5.07.49-.14.7-.35 1.19-.21.35-.14.56.21.63.35.21.35.56.42.91-.07.56-.35.84-.91.84-.49 0-.42.21-.63.49-.21.21-.35.28-.56.07-.28-.63-.42-1.19-.63-1.96 0-.35.07-.77.07-1.26.21-1.05.42-1.96.49-2.87.21-1.05.63-2.1.91-3.15l.28-.63c.28-1.4.84-2.8 1.4-4.2.63-1.68 1.19-3.36 1.96-5.04l2.52-5.88c1.05-2.45 2.1-4.62 3.22-7.07.28-.63.63-1.26.98-1.89.35-.77.84-1.54 1.19-2.31.56-1.33 1.26-2.52 1.89-3.85.84-1.47 1.54-2.87 2.31-4.48 1.19-2.31 2.31-4.62 3.43-6.93.49-.84.84-1.68 1.19-2.52.28-.49.35-.98.42-1.47.21-.84.63-1.54 1.54-2.03.42-.21.63-.49.63-.91-.21-1.05.21-1.96.14-3.01 0-.21.21-.49.42-.7.28-.35.63-.49.98-.42s.56.21.7.28c.35.21.84.42 1.47.49 1.68.21 3.36.28 5.25 0l4.2-.56 1.54-.28c1.61-.28 3.08-.56 4.69-.91 1.47-.35 2.94-.56 4.41-.77l5.11-.84c.21-.07.56-.07 1.05-.07.91-.07 1.89-.14 2.8-.14.49 0 1.05 0 1.4.07.49.07.7.35.63.84 0 .49.07.84-.21 1.33-.21.49-.56.77-.91.98l-1.47.63c-.21.07-.28.21-.35.42-.07.35-.28.56-.56.63l-2.38.21c-.07 0-.21.07-.35.14-.07.07 0 .21.07.28.21.07.21.21 0 .35-.07.07-.28.21-.49.28l-.49.21-2.31.63c-.07 0-.07 0-.14.07.07.14.14.21.14.21 1.12-.07 2.31-.07 3.43-.28.63-.07 1.19-.21 1.68.14.07.07.28.07.49 0 .35-.07.49.07.56.42 0 .35-.14.49-.35.56-.42.07-.7.14-.91.14-1.19.07-2.38.28-3.57.49-.56.07-.98.35-1.33.77l-.28.21c-.07 0-.14 0-.21.07.07.07.14.14.21.14h1.05c.35 0 .42.14.35.49 0 .35.14.42.49.35l1.12-.28c.63-.14.98.07 1.05.56.07.21.07.42.07.63 0 .14-.07.21-.21.21-1.19.21-2.45.49-3.78.7-2.52.49-5.18.84-7.77 1.61-.07 0-.14.07-.28.14v.07h.21c.49-.07.91 0 1.47-.21.77-.21 1.54-.28 2.31-.35 1.05-.07 1.82-.07 2.87-.42.28-.07.49 0 .7 0 .14 0 .21.07.14.21 0 .07-.07.14-.14.14-.21.07-.42.14-.49.14-1.05.07-2.17.35-3.29.63l-3.43.91c-.91.21-1.82.35-2.66.42-.91.07-1.89.28-2.73.49-1.12.28-2.1.49-3.22.7-.14 0-.28.07-.49.14-.28.14-.42.28-.49.35-.49 1.96-1.47 3.92-2.52 5.88l-.14.42c-.28.49-.14.7.35.63l2.45-.42h.21l-.28.21c-.35.35-.35.63-.07.84.21.21.56.35.91.28.77-.07 1.4-.14 2.17-.35h.21l-.14.14-1.12.42c-.21.07-.28.21-.14.28.49.21.28.49 0 .84l-.28.21c-.14.07-.14.14-.07.21 0 .07.07.07.14.07a7.73 7.73 0 0 1 2.17-.07c.21 0 .42 0 .49-.07.91-.28 1.61 0 2.38.07.07 0 .14.07.07.14s-.07.14-.14.14l-1.12.42c-.07.07-.21.07-.42.07-.28.07-.21.14.14.21h.42c.07 0 .14.07.07.14v.07l-3.43.63-.7.35c-.07 0-.07.07-.14.14s0 .14.07.14h.21c.49 0 .98-.14 1.47-.07.35.07.63.21 1.12.42.07.07.28.07.56.07s.49 0 .63.07l1.75.63c.07 0 .07 0 .14.07l-.21.28c-.49.35-.91.56-1.4.56-1.4.07-2.66.49-3.85.7-.07 0-.14.07-.28.14.07.14.14.21.14.21.84 0 1.68 0 2.52-.28 1.05-.28 1.96-.28 2.8-.21.14 0 .21.07.14.21 0 .07-.07.14-.14.14l-1.89.56c-2.73.49-5.32 1.12-8.05 1.89-1.61.49-3.22.91-4.83 1.54-.28.07-.63.21-1.05.42-.35.14-.63.42-.84.77l-2.03 4.2-.14.42c-.35.84-.07 1.12.77.91l.91-.28c3.15-1.05 6.23-1.89 9.38-2.66 1.4-.35 2.73-.77 4.13-1.05.21 0 .28-.07.49-.07l5.74-.84c.77-.21 1.61-.28 2.38-.35 1.75-.21 3.43-.14 5.11-.21.49 0 .84.07 1.12.28.56.28 1.33.14 1.82.63.14.07.14.21 0 .42-.07.07-.07.14-.14.14-.63.35-1.05.91-1.4 1.4-.21.28-.42.35-.63.28-.42-.07-.77-.07-1.05.14-.28.14-.49.14-.63 0-.21-.21-.56-.21-.98-.14-.63.21-1.19.14-1.82.35-.49.07-.84.28-1.19.07h-.42c-1.05.21-1.89.35-2.94.63-.56.14-1.05.21-1.47.14-.21-.07-.49-.07-.84-.07-.21 0-.35 0-.56.21-.28.49-.63.49-1.12.42-.14 0-.28.07-.49.14-.07 0-.14.07-.21.14-.07.07 0 .21.07.28.21.07.42.07.42.14.21.21-.35.35-.42.56l.07-.07z"/>
        <g>
            <path fill="#000" d="M65 0h156v23.655H65z"/>
            <path fill="#FFF" d="M78.463 13.099v-1.427h2.955V17h-.874l-.334-.786c-.539.64-.976.932-1.82.932-1.427 0-2.416-1.02-2.416-2.693V9.037c0-1.484.873-2.693 2.649-2.693 1.805 0 2.707 1.31 2.707 2.883v.67h-1.717c0-1.573-.32-1.98-1.034-1.98-.436 0-.8.262-.8 1.15v5.4c0 .67.218 1.106.844 1.106.728 0 .99-.407.99-1.455v-1.02h-1.15zm6.594-5.124v3.231h.64c.976 0 1.34-.363 1.34-1.615s-.364-1.616-1.34-1.616h-.64zm0 4.716V17h-1.805V6.49h2.533c2.023 0 3.057.859 3.057 3.1 0 1.69-.655 2.373-1.267 2.65L89.104 17H87.27l-1.281-4.352c-.233.029-.612.043-.932.043zm7.817-4.105L92.16 13.1h1.455l-.713-4.513h-.03zm-.975 6.085L91.579 17h-1.747l1.936-10.51h2.241L95.945 17H94.2l-.32-2.33h-1.98zM98.624 17h-1.63V6.49h1.674l2.198 6.012h.029V6.49h1.63V17h-1.572l-2.3-6.565h-.03V17zm7.453-9.025v7.54h.626c.96 0 1.295-.364 1.295-1.47v-4.6c0-1.106-.334-1.47-1.295-1.47h-.626zM104.272 17V6.49h2.678c1.864 0 2.853 1.019 2.853 3.173v4.164c0 2.154-.99 3.173-2.853 3.173h-2.678zm12.315 0h-5.037V6.49h4.833v1.572h-3.028v2.708h2.33v1.572h-2.33v3.086h3.232V17zm10.102-7.002h-1.805v-.815c0-.888-.407-1.266-.873-1.266-.728 0-.961.378-.961 1.164v5.328c0 .786.233 1.164.96 1.164.656 0 .874-.378.874-1.062v-1.267h1.805v1.209c0 1.484-.873 2.693-2.678 2.693-1.893 0-2.766-1.209-2.766-2.693V9.037c0-1.484.873-2.693 2.766-2.693 1.805 0 2.678 1.31 2.678 2.883v.771zm4.178-1.412l-.713 4.513h1.455l-.713-4.513h-.029zm-.975 6.085l-.32 2.329h-1.747l1.936-10.51h2.241L133.938 17h-1.746l-.32-2.33h-1.98zm5.095-.32V6.49h1.805v7.933c0 .772.305 1.15.96 1.15s.961-.378.961-1.15V6.49h1.805v7.86c0 1.806-1.048 2.796-2.766 2.796-1.717 0-2.765-.99-2.765-2.795zm12.285-5.46l-1.717.19c-.073-.902-.553-1.164-.961-1.164-.582 0-.903.378-.903 1.033 0 1.79 3.669 2.65 3.669 5.503 0 1.732-1.165 2.693-2.853 2.693-1.674 0-2.635-1.34-2.708-2.912l1.718-.247c.073 1.062.495 1.586 1.077 1.586.626 0 1.048-.334 1.048-.96 0-2.082-3.668-2.635-3.668-5.648 0-1.674 1.019-2.62 2.795-2.62 1.47 0 2.343 1.062 2.503 2.547zM153.765 17h-5.037V6.49h4.833v1.572h-3.028v2.708h2.33v1.572h-2.33v3.086h3.232V17zm9.52-10.51h2.373V17h-1.573V8.79h-.029l-1.63 8.21h-.873l-1.63-8.21h-.03V17h-1.572V6.49h2.373l1.28 6.143h.03l1.28-6.143zm6.376 2.096l-.714 4.513h1.456l-.713-4.513h-.03zm-.976 6.085l-.32 2.329h-1.747l1.936-10.51h2.242L172.732 17h-1.747l-.32-2.33h-1.98zM175.498 17h-1.805V6.49h1.805v3.887h.029l1.892-3.887h1.805l-1.95 3.916L179.472 17h-1.834l-1.47-4.891h-.03l-.64 1.164V17zm9.782 0h-5.037V6.49h4.833v1.572h-3.028v2.708h2.33v1.572h-2.33v3.086h3.232V17zm3.028 0h-1.718v-1.718h1.718V17zm1.63-2.547V9.037c0-1.484.874-2.693 2.766-2.693s2.766 1.209 2.766 2.693v5.416c0 1.484-.874 2.693-2.766 2.693s-2.766-1.209-2.766-2.693zm1.805-5.372v5.328c0 .786.233 1.164.96 1.164.729 0 .962-.378.962-1.164V9.08c0-.786-.233-1.164-.961-1.164s-.96.378-.96 1.164zm7.279-1.106v3.231h.64c.975 0 1.34-.363 1.34-1.615s-.365-1.616-1.34-1.616h-.64zm0 4.716V17h-1.806V6.49h2.533c2.024 0 3.057.859 3.057 3.1 0 1.69-.655 2.373-1.266 2.65l1.528 4.76h-1.834l-1.28-4.352c-.234.029-.612.043-.932.043zm7.962.408v-1.427h2.955V17h-.873l-.335-.786c-.539.64-.975.932-1.82.932-1.426 0-2.416-1.02-2.416-2.693V9.037c0-1.484.873-2.693 2.65-2.693 1.804 0 2.707 1.31 2.707 2.883v.67h-1.718c0-1.573-.32-1.98-1.033-1.98-.437 0-.801.262-.801 1.15v5.4c0 .67.218 1.106.844 1.106.728 0 .99-.407.99-1.455v-1.02h-1.15z"/>
        </g>
    </g>
</svg>
