<?xml version="1.0" encoding="UTF-8"?>
<svg width="445px" height="109px" viewBox="0 0 445 109" version="1.1" xmlns="http://www.w3.org/2000/svg" xmlns:xlink="http://www.w3.org/1999/xlink">
    <!-- Generator: Sketch 49.2 (51160) - http://www.bohemiancoding.com/sketch -->
    <title>gaspillage alimentaire</title>
    <desc>Created with Sketch.</desc>
    <defs></defs>
    <g id="une-chance-pour-chaque-jeune" stroke="none" stroke-width="1" fill="none" fill-rule="evenodd">
        <g id="une-chance-pour-chaque-jeune---logo" transform="translate(-70.000000, -110.000000)">
            <g id="Group-2" transform="translate(70.000000, 67.000000)">
                <g id="gaspillage-alimentaire" transform="translate(0.000000, 43.000000)">
                    <path d="M85.1148978,34.0254003 L85.1148978,1.46340115 L92.5920976,1.46340115 L92.5920976,34.3269003 C92.5920976,37.5228002 93.8583975,39.0906002 96.5718975,39.0906002 C99.2853974,39.0906002 100.551697,37.5228002 100.551697,34.3269003 L100.551697,1.46340115 L108.028897,1.46340115 L108.028897,34.0254003 C108.028897,41.5026001 103.687297,45.603 96.5718975,45.603 C89.4564977,45.603 85.1148978,41.5026001 85.1148978,34.0254003 Z M122.018497,45 L115.264897,45 L115.264897,1.46340115 L122.199397,1.46340115 L131.304697,26.3673005 L131.425297,26.3673005 L131.425297,1.46340115 L138.178896,1.46340115 L138.178896,45 L131.666497,45 L122.139097,17.8047007 L122.018497,17.8047007 L122.018497,45 Z M166.278696,45 L145.414896,45 L145.414896,1.46340115 L165.434496,1.46340115 L165.434496,7.97580098 L152.892096,7.97580098 L152.892096,19.1916007 L162.540096,19.1916007 L162.540096,25.7040005 L152.892096,25.7040005 L152.892096,38.4876002 L166.278696,38.4876002 L166.278696,45 Z M208.126895,15.9957008 L200.649695,15.9957008 L200.649695,12.6189009 C200.649695,8.94060096 198.961295,7.372801 197.031695,7.372801 C194.016695,7.372801 193.051895,8.94060096 193.051895,12.1968009 L193.051895,34.2666003 C193.051895,37.5228002 194.016695,39.0906002 197.031695,39.0906002 C199.745195,39.0906002 200.649695,37.5228002 200.649695,34.6887003 L200.649695,29.4426004 L208.126895,29.4426004 L208.126895,34.4475003 C208.126895,40.5981001 204.508895,45.603 197.031695,45.603 C189.192695,45.603 185.574695,40.5981001 185.574695,34.4475003 L185.574695,12.0159009 C185.574695,5.86530104 189.192695,0.860401169 197.031695,0.860401169 C204.508895,0.860401169 208.126895,6.28740103 208.126895,12.7998009 L208.126895,15.9957008 Z M223.201894,45 L215.724694,45 L215.724694,1.46340115 L223.201894,1.46340115 L223.201894,19.1916007 L231.161494,19.1916007 L231.161494,1.46340115 L238.638694,1.46340115 L238.638694,45 L231.161494,45 L231.161494,25.7040005 L223.201894,25.7040005 L223.201894,45 Z M255.582993,10.1466009 L252.628293,28.8396004 L258.658293,28.8396004 L255.703593,10.1466009 L255.582993,10.1466009 Z M251.542893,35.3520003 L250.216293,45 L242.980294,45 L251.000193,1.46340115 L260.286393,1.46340115 L268.306293,45 L261.070293,45 L259.743693,35.3520003 L251.542893,35.3520003 Z M279.401493,45 L272.647893,45 L272.647893,1.46340115 L279.582393,1.46340115 L288.687692,26.3673005 L288.808292,26.3673005 L288.808292,1.46340115 L295.561892,1.46340115 L295.561892,45 L289.049492,45 L279.522093,17.8047007 L279.401493,17.8047007 L279.401493,45 Z M325.350091,15.9957008 L317.872892,15.9957008 L317.872892,12.6189009 C317.872892,8.94060096 316.184492,7.372801 314.254892,7.372801 C311.239892,7.372801 310.275092,8.94060096 310.275092,12.1968009 L310.275092,34.2666003 C310.275092,37.5228002 311.239892,39.0906002 314.254892,39.0906002 C316.968392,39.0906002 317.872892,37.5228002 317.872892,34.6887003 L317.872892,29.4426004 L325.350091,29.4426004 L325.350091,34.4475003 C325.350091,40.5981001 321.732092,45.603 314.254892,45.603 C306.415892,45.603 302.797892,40.5981001 302.797892,34.4475003 L302.797892,12.0159009 C302.797892,5.86530104 306.415892,0.860401169 314.254892,0.860401169 C321.732092,0.860401169 325.350091,6.28740103 325.350091,12.7998009 L325.350091,15.9957008 Z M353.811691,45 L332.947891,45 L332.947891,1.46340115 L352.967491,1.46340115 L352.967491,7.97580098 L340.425091,7.97580098 L340.425091,19.1916007 L350.073091,19.1916007 L350.073091,25.7040005 L340.425091,25.7040005 L340.425091,38.4876002 L353.811691,38.4876002 L353.811691,45 Z" id="UNE-CHANCE" fill="#000000"></path>
                    <path d="M22.4649994,67.5819997 C23.2209994,65.4219997 24.1929994,63.3699998 25.2729994,61.3719998 C26.3529993,59.4279999 26.4609993,57.3219999 26.4069993,55.162 C26.4069993,54.406 25.9209993,54.136 25.2189994,54.406 C23.4909994,55.054 22.0869994,56.08 20.8449995,57.3759999 C19.0629995,59.1039999 17.2809996,60.8319998 15.5529996,62.6679998 C14.5269996,63.7479998 13.5009997,64.9359997 12.5829997,66.1779997 C11.7729997,67.3119997 11.5569997,68.7159996 11.1249997,70.0659996 C9.93699976,73.7919995 9.23499978,77.6259994 7.77699982,81.2439993 C7.61499982,81.5679993 7.56099983,81.9459993 7.50699983,82.3239993 C7.12899984,83.7819992 6.80499985,85.2939992 6.42699986,86.8059992 C6.26499986,87.2919991 6.21099986,87.7779991 6.26499986,88.3179991 C6.31899986,89.3979991 5.99499987,90.3159991 5.13099989,91.017999 C4.8069999,91.287999 4.53699991,91.611999 4.21299991,91.989999 C2.48499996,90.0999991 1.29699999,87.9939991 1.081,85.5099992 C0.811000005,82.7559993 0.973000001,79.9479993 1.35099999,77.1939994 C1.83699998,73.5759995 2.75499995,70.1199996 3.40299994,66.5559997 C3.78099993,64.3419998 4.37499991,62.1279998 5.07699989,59.9679999 C6.10299986,56.674 6.69699985,53.218 7.56099983,49.9240001 C7.88499982,48.7900002 7.99299981,47.6020002 7.72299982,46.4140002 C7.45299983,45.2260003 8.5329998,44.4160003 9.77499977,44.7400003 C11.7729997,45.2260003 13.1229997,46.4140002 14.0409997,48.1960002 C14.3109996,48.6280002 14.4729996,49.1680002 14.6889996,49.6000001 C15.7689996,51.5440001 15.7149996,53.542 15.2289996,55.594 C14.9589996,56.674 14.6889996,57.6999999 14.5809996,58.9959999 C15.5529996,58.7799999 16.0389996,58.1319999 16.5249996,57.5379999 C17.3889996,56.458 18.4689995,55.54 19.4949995,54.622 C20.7909995,53.38 22.2489994,52.5160001 24.0309994,51.9760001 C26.4069993,51.2740001 28.2969993,51.9220001 29.8089992,53.758 C31.3749992,55.594 32.1309992,57.6459999 31.5369992,60.0219999 C31.4289992,60.2919999 31.4289992,60.6159999 31.4289992,60.8859998 C31.5909992,63.1539998 30.5649992,65.0439997 29.5929992,66.9339997 C28.8369993,68.3919996 28.0269993,69.7959996 27.3789993,71.2539996 C26.4609993,73.2519995 24.9489994,74.7639995 23.2749994,76.1139994 C23.0589994,76.2759994 22.7349994,76.4919994 22.5189994,76.4919994 C21.4929995,76.3839994 20.6829995,76.9779994 19.8729995,77.4099994 C18.8469995,78.0039994 17.8209996,78.1119994 16.7409996,77.3559994 C16.3089996,77.0319994 15.7689996,76.7619994 15.2289996,76.4919994 C15.0669996,76.3839994 14.7969996,76.2759994 14.6889996,76.1139994 C14.0949997,74.7099995 12.9069997,73.5759995 12.5829997,72.0639995 C12.5289997,71.8479996 12.4749997,71.6319996 12.4749997,71.4159996 C12.4749997,71.3079996 12.5289997,71.0919996 12.6369997,71.0379996 C12.6909997,70.9839996 12.9069997,70.9299996 13.0149997,71.0379996 C13.7169997,71.4159996 14.3649996,71.9559996 15.0669996,72.3339995 C16.8489996,73.2519995 17.7669996,73.0899995 19.2249995,71.7399996 C20.5209995,70.4979996 21.7089995,69.2019996 22.5189994,67.6359997 C22.5729994,67.6359997 22.6809994,67.5819997 22.6809994,67.5819997 L22.4649994,67.5819997 Z M52.5969986,65.3139997 C53.1369986,67.5279997 52.3269986,69.8499996 52.1109986,72.2259995 C51.9489987,74.0619995 51.0309987,75.7899994 50.1129987,77.4099994 C49.3029987,78.7599994 48.3309987,80.0559993 47.4129988,81.3519993 C46.9269988,82.1079993 46.2249988,82.4859993 45.6309988,83.0259993 C44.2269989,84.4299992 42.7689989,85.7259992 41.4189989,87.1299991 C39.906999,88.6959991 38.070999,89.1819991 36.1809991,89.7219991 C34.5069991,90.2619991 33.0489992,89.7219991 31.6449992,88.8039991 C31.4829992,88.6959991 31.2669992,88.5879991 31.1589992,88.4259991 C29.8089992,86.9139992 28.5669993,85.4019992 27.9729993,83.2959993 C27.3789993,81.1359993 27.0009993,78.9759994 26.8929993,76.7079994 C26.7849993,73.4679995 27.3249993,70.4439996 28.2429993,67.4739997 C29.7009992,62.9919998 31.5909992,58.7799999 33.7509991,54.73 C34.6149991,53.0020001 35.5869991,51.2740001 36.882999,49.8160001 C37.476999,49.1140002 38.124999,48.5200002 39.042999,48.5740002 C39.420999,48.5740002 39.798999,48.4660002 40.176999,48.3040002 C40.6629989,48.0340002 41.1489989,48.0880002 41.6349989,48.2500002 C42.2289989,48.4660002 42.7149989,48.5200002 43.3089989,48.4120002 C44.6049988,48.1420002 46.1709988,49.7080001 46.1169988,51.2740001 C46.0629988,52.1920001 46.3869988,52.5700001 47.0889988,52.7860001 C48.2229987,53.1100001 49.0869987,53.758 49.6269987,54.946 C49.7349987,55.216 49.8969987,55.432 50.0589987,55.648 C52.3269986,58.1319999 52.7589986,61.3179998 52.5969986,64.6659997 L52.5969986,65.3139997 Z M39.906999,68.4459996 C38.718999,67.9599997 38.016999,67.4739997 37.314999,66.7179997 C36.882999,66.2319997 36.4509991,66.3939997 36.1809991,67.0959997 C35.6409991,68.4459996 35.2629991,69.7959996 34.7229991,71.1459996 C33.6969991,73.6839995 33.2649991,76.3839994 33.2109991,79.1919994 C33.1569991,80.2179993 33.3729991,81.1899993 33.5349991,82.2159993 C33.6429991,82.8099993 33.9669991,83.2959993 34.3449991,83.6739992 C34.8309991,84.2679992 35.2629991,84.3759992 35.9109991,83.9979992 C36.4509991,83.6739992 37.044999,83.2959993 37.530999,82.8639993 C40.7709989,79.9479993 43.6329989,76.5999994 45.7389988,72.5499995 C47.3589988,69.5259996 48.2769987,66.2319997 48.4929987,62.6679998 C48.6009987,61.2639998 48.4389987,59.9139999 48.2229987,58.5639999 C48.0609988,57.9159999 47.8449988,57.3219999 47.5209988,56.782 C47.1429988,56.242 46.7649988,56.134 46.3329988,56.458 C45.3069988,57.3219999 44.2809989,58.1319999 43.6329989,59.4819999 C42.7689989,61.3719998 41.7429989,63.1539998 40.9869989,65.0439997 C40.554999,66.0699997 39.636999,66.8799997 39.906999,68.4459996 Z M80.5149979,85.1859992 C80.4069979,85.6179992 80.6769979,85.9959992 80.4609979,86.4819992 C78.6789979,86.8059992 77.652998,85.8339992 76.950998,84.3219992 C76.842998,84.1059992 76.734998,83.8359992 76.680998,83.5659992 C76.032998,80.6499993 74.898998,77.8419994 74.736998,74.8179995 C74.736998,74.5479995 74.682998,74.2779995 74.628998,74.0079995 C74.5209981,73.6299995 74.1969981,73.5219995 73.8189981,73.6299995 C73.0089981,73.7919995 72.4689981,74.3319995 72.0369981,74.9259995 C70.9029981,76.4919994 69.8769982,78.0579994 68.7429982,79.5159994 C67.3929982,81.3519993 65.8809983,83.0799993 64.4229983,84.8079992 C64.1529983,85.1319992 63.8829983,85.4559992 63.7209983,85.8339992 C63.1809984,86.6439992 62.5329984,87.3459991 61.4529984,87.3999991 C60.7509984,87.8859991 59.8869984,87.8319991 59.0769985,87.9939991 C58.1049985,88.1559991 57.2949985,87.8859991 56.8629985,86.9139992 C56.7549985,86.6439992 56.7009985,86.4279992 56.3769985,86.3199992 C56.1069985,86.2659992 55.7289986,86.1039992 55.7289986,85.8879992 C55.5129986,85.1319992 54.8109986,84.7539992 54.5409986,84.0519992 C53.3529986,81.1899993 52.8669986,78.2739994 52.8129986,75.1419995 C52.7589986,71.8479996 53.1369986,68.6619996 53.6229986,65.4759997 C54.2169986,61.4799998 55.1349986,57.5919999 56.5929985,53.812 C57.2409985,52.1380001 57.7269985,50.4100001 58.2669985,48.6280002 C59.8869984,48.8980002 61.4529984,49.4920001 62.9649984,50.0320001 C65.0169983,50.7880001 66.0969983,53.164 65.1789983,55.162 C64.0989983,57.6999999 63.4509983,60.3999999 62.6409984,63.0459998 C61.6689984,66.2859997 61.0749984,69.6339996 60.4809984,72.9819995 C60.0489984,75.4659995 59.9949984,77.9499994 60.0489984,80.4339993 C60.0489984,80.7579993 60.1029984,81.0279993 60.1569984,81.2979993 C60.2109984,81.7299993 60.4809984,81.8919993 60.8589984,81.6759993 C61.6149984,81.1899993 62.4249984,80.7579993 63.1809984,80.2179993 C63.5589983,79.9479993 63.9909983,79.6779993 64.2609983,79.2999994 C66.6909983,76.3299994 68.9049982,73.2519995 70.5249982,69.7419996 C70.6869982,69.3099996 70.9569981,68.8779996 71.0649981,68.3919996 C71.7669981,65.7999997 72.8469981,63.3159998 73.2789981,60.6159999 C73.3869981,59.8059999 73.6569981,59.0499999 73.9809981,58.2399999 C74.1969981,57.6999999 74.3049981,57.2139999 74.2509981,56.62 C74.0889981,55.702 74.5749981,55.054 75.222998,54.46 C75.762998,53.974 76.356998,54.028 76.950998,54.19 C77.382998,54.298 77.868998,53.974 78.138998,54.406 C78.5709979,55.162 79.3269979,55.756 79.2729979,56.782 C79.1109979,58.1859999 79.1109979,59.5899999 78.9489979,60.9399998 C78.8949979,61.8039998 78.8949979,62.6139998 79.1649979,63.4239998 C80.4609979,67.0959997 80.4609979,70.8759996 80.6229979,74.7099995 C80.6229979,75.8979994 80.6769979,77.0859994 80.7849979,78.2199994 C80.9469979,80.5959993 80.9469979,82.9179993 80.5149979,85.1859992 Z M61.3449984,87.3999991 L61.4529984,87.3999991 L61.3449984,87.3999991 Z M87.1569977,41.2300004 C88.2369977,41.2300004 89.2629977,41.1760004 90.2349976,41.2300004 C90.6669976,41.2300004 91.0449976,41.2840004 91.4769976,41.3920004 C93.2049976,41.8780003 94.0149975,42.9580003 93.9609975,44.7940003 C93.9069975,46.5220002 93.9069975,48.1960002 93.8529975,49.9240001 C93.8529975,50.1940001 93.7449975,50.5720001 94.1229975,50.8960001 C94.6629975,50.8960001 94.9869975,50.3560001 95.4729975,50.1400001 C95.9589975,49.9240001 96.4449975,49.6540001 96.8769975,49.3300002 C97.4709974,48.8440002 98.1729974,48.6820002 98.8749974,48.3580002 C100.440997,47.6560002 102.060997,48.0880002 103.626997,48.4120002 C104.274997,48.5200002 104.652997,48.9520002 104.922997,49.6000001 C105.894997,51.6520001 106.218997,53.812 105.840997,56.08 C105.516997,58.1319999 105.084997,60.0759999 104.544997,62.0199998 C104.274997,62.8839998 103.896997,63.6399998 103.248997,64.2879998 C102.330997,65.3679997 101.520997,66.5559997 100.494997,67.5279997 C99.8469974,68.1219997 99.7929974,68.8239996 100.116997,69.5799996 C101.142997,72.0099995 101.574997,74.6559995 102.276997,77.1939994 C102.816997,78.9759994 103.356997,80.8119993 104.004997,82.5939993 C104.976997,85.3479992 106.002997,88.0479991 107.082997,90.7479991 C107.406997,91.557999 107.730997,92.367999 107.838997,93.231999 C107.892997,93.501999 107.946997,93.771999 108.054997,94.041999 C109.566997,97.2279989 111.294997,100.251999 114.156997,102.519999 C114.696997,102.951999 115.344997,103.437999 115.992997,103.761999 C116.802997,104.139999 117.396997,104.787999 118.044997,105.327999 C118.692997,105.813999 118.638997,106.569999 118.746997,107.163999 C118.908997,107.757999 118.098997,108.297999 117.504997,108.135999 C117.180997,108.027999 116.856997,107.973999 116.586997,107.757999 C114.534997,105.975999 112.104997,104.733999 109.998997,103.005999 C107.568997,101.061999 105.354997,98.8479988 103.626997,96.2559989 C102.438997,94.365999 101.250997,92.475999 100.278997,90.4779991 C98.7669974,87.2919991 97.4169974,84.0519992 96.1209975,80.7579993 C94.9869975,77.8959994 94.1229975,74.8719995 93.4749976,71.8479996 C93.3129976,71.1459996 92.9889976,70.4439996 92.7729976,69.7419996 C92.6109976,69.2559996 92.6109976,68.4459996 91.9629976,68.5539996 C91.4229976,68.6079996 91.5309976,69.4719996 91.4769976,69.9579996 L90.6669976,77.8419994 C90.6129976,78.1659994 90.6669976,78.5439994 90.5589976,78.8679994 C89.7489976,80.7039993 89.8029976,82.7019993 89.6409977,84.6459992 C89.5329977,85.9959992 89.2089977,87.3459991 88.7769977,88.5879991 C88.6149977,89.2359991 88.4529977,90.1539991 87.3729977,89.6679991 C87.2649977,89.6679991 87.1029977,89.7219991 86.9949977,89.8299991 C86.1849977,90.5859991 85.5369978,90.1539991 84.8349978,89.6679991 C84.4569978,89.3979991 84.2949978,89.0739991 84.2949978,88.6419991 C84.2409978,87.5079991 84.2409978,86.3739992 84.1869978,85.1859992 C84.0249978,81.3519993 84.1329978,77.4639994 84.3489978,73.6299995 C84.5649978,69.6339996 85.0509978,65.6919997 85.4289978,61.6959998 C85.8069978,57.7539999 86.2929977,53.758 86.7249977,49.8160001 C86.8869977,48.5200002 87.1029977,47.2780002 87.2109977,45.9820002 C87.3729977,44.6320003 87.6969977,43.3360003 87.1569977,41.9860003 C87.0489977,41.7700004 87.1569977,41.5000004 87.1569977,41.2300004 Z M92.3409976,65.7459997 C93.4749976,65.3139997 94.5549975,65.2599997 95.5809975,65.2599997 C95.9589975,65.2599997 96.3369975,65.3679997 96.3909975,65.7459997 C96.5529975,66.4479997 96.9309975,66.3399997 97.4169974,66.1239997 C98.2269974,65.7459997 98.7669974,65.2059997 98.9289974,64.2879998 C99.0369974,63.8559998 99.2529974,63.4239998 99.4149974,62.9919998 C101.034997,59.6979999 101.520997,56.188 101.358997,52.5160001 C101.358997,52.3540001 101.304997,52.1380001 101.250997,51.9220001 C101.196997,51.5980001 100.710997,51.3820001 100.440997,51.5980001 C99.2529974,52.6240001 97.7949974,53.38 96.8769975,54.838 C95.4729975,57.0519999 94.2849975,59.3739999 93.1509976,61.7499998 C92.8269976,62.3439998 92.7189976,63.0459998 92.4489976,63.6399998 C92.2329976,64.2879998 92.1789976,64.9359997 92.3409976,65.7459997 Z M145.584996,77.3559994 C145.638996,77.8419994 145.746996,78.3279994 145.800996,78.8139994 C145.854996,79.3539994 145.908996,79.8939993 145.800996,80.3259993 C145.638996,81.0279993 145.206996,81.6219993 144.990996,82.2699993 C144.774996,82.8639993 145.098996,83.5659992 144.612996,84.1059992 C144.450996,84.2679992 144.342996,84.4299992 144.342996,84.6459992 C144.180996,86.2659992 143.154996,87.5619991 142.398996,88.9119991 C142.182996,89.2899991 142.074996,89.6139991 141.912996,89.9919991 C141.804996,90.2619991 141.642996,90.5859991 141.480996,90.8559991 C141.264996,91.179999 140.940996,91.341999 140.562996,91.449999 C139.158996,91.881999 138.240996,93.339999 136.566996,93.069999 C136.242996,93.015999 135.972996,92.907999 135.756996,92.637999 C135.702996,92.475999 135.486996,92.259999 135.378996,92.259999 C133.704996,92.421999 133.056997,90.8019991 131.760997,90.3159991 C131.652997,90.2619991 131.544997,90.1539991 131.490997,90.0459991 C129.870997,87.3459991 128.790997,84.5379992 128.952997,81.2979993 C129.114997,78.7599994 129.222997,76.1679994 129.384997,73.6299995 C129.546997,71.5779996 129.816997,69.5259996 130.032997,67.4739997 C130.140997,66.7719997 130.194997,66.0699997 130.194997,65.3679997 C130.302997,63.9099998 130.680997,62.4519998 131.004997,61.0479998 C131.760997,57.3759999 132.570997,53.758 133.974996,50.3020001 C135.162996,47.3320002 136.512996,44.5240003 138.780996,42.2560003 C139.050996,41.9320003 139.266996,41.6080004 139.428996,41.3380004 C139.698996,40.9600004 140.076996,40.5280004 140.454996,40.4740004 C142.128996,40.1500004 143.748996,39.3940004 145.530996,39.8260004 C147.636996,40.3120004 149.202996,41.9320003 149.256996,44.0920003 C149.310996,46.1440002 149.472996,48.1960002 149.040996,50.2480001 C148.986996,50.5720001 148.932996,50.8960001 148.986996,51.2200001 C149.040996,53.272 148.662996,55.324 148.662996,57.3759999 C148.608996,59.3199999 148.230996,61.2099998 148.176996,63.0999998 C148.122996,64.3419998 147.150996,64.8279997 146.394996,65.4759997 C146.286996,65.5839997 146.016996,65.5839997 145.854996,65.5299997 C144.828996,65.2599997 143.856996,64.8819997 143.424996,63.8019998 C143.100996,62.8839998 142.830996,61.9659998 143.370996,61.0479998 C143.586996,60.7239998 143.640996,60.3459999 143.694996,59.9139999 C143.802996,57.9699999 143.964996,55.972 144.072996,53.974 C144.180996,52.3000001 144.342996,50.6260001 144.396996,48.9520002 C144.396996,47.8720002 144.288996,46.7920002 144.180996,45.7120002 C144.180996,45.5500003 144.018996,45.3340003 143.910996,45.2800003 C143.748996,45.2260003 143.478996,45.2800003 143.370996,45.3880003 C142.722996,46.0360002 142.182996,46.7380002 141.858996,47.6020002 C140.832996,50.3020001 139.644996,52.9480001 138.834996,55.702 C138.618996,56.458 138.564996,57.2139999 138.348996,57.9699999 C137.808996,59.8599999 137.322996,61.8039998 136.782996,63.6939998 C135.918996,66.7719997 135.270996,69.9039996 135.000996,73.1439995 C134.784996,74.9259995 134.406996,76.7079994 134.352996,78.4899994 C134.244996,80.8659993 133.704996,83.2959993 134.244996,85.7259992 C134.406996,86.6979992 134.622996,87.6159991 135.108996,88.4799991 C135.432996,89.0739991 135.810996,89.1819991 136.350996,88.8039991 C136.998996,88.3179991 137.700996,87.8319991 138.240996,87.1839991 C140.346996,84.6999992 142.398996,82.1619993 144.180996,79.4079994 C144.450996,79.0299994 144.666996,78.6519994 144.990996,78.2739994 C145.206996,78.0039994 145.152996,77.5179994 145.584996,77.3559994 Z M180.576995,63.7479998 C180.738995,63.8019998 180.846995,64.0719998 180.684995,64.1799998 C179.496995,64.7739997 179.442995,66.1779997 178.470995,66.9339997 C178.146995,67.2039997 178.200995,67.6359997 178.146995,68.0139997 C177.768995,70.1199996 177.498995,72.2259995 176.958995,74.2779995 C176.634995,75.3579995 176.364995,76.4919994 176.040995,77.6259994 C175.824995,78.3819994 175.554995,79.1379994 175.176995,79.8939993 C174.528995,81.2439993 174.096995,82.6479993 173.718995,84.1059992 C173.340995,85.6179992 172.422995,86.8599992 171.666995,88.1559991 C171.450995,88.5879991 171.288995,88.9119991 171.396995,89.3979991 C171.450995,90.0459991 170.910995,90.0459991 170.532996,90.0999991 C170.424996,89.8839991 170.424996,89.6679991 170.316996,89.6139991 C169.236996,89.2899991 169.074996,88.4259991 169.020996,87.5079991 C168.912996,86.2659992 168.966996,84.9699992 169.182996,83.6739992 C169.776996,79.6239993 170.424996,75.5739995 171.234995,71.5779996 C171.234995,71.4699996 171.234995,71.4159996 171.288995,71.3619996 C171.504995,69.7959996 171.342995,69.7419996 169.776996,70.2819996 L167.940996,70.7679996 C166.158996,71.1459996 164.430996,71.5779996 162.648996,71.8479996 C161.838996,72.0099995 161.460996,72.4959995 161.298996,73.2519995 C161.082996,74.1159995 160.866996,74.9799995 160.758996,75.8979994 C160.326996,78.2739994 160.056996,80.7039993 159.246996,83.0259993 C158.976996,83.7279992 158.706996,84.4839992 158.760996,85.2399992 C158.868996,86.1579992 158.220996,86.8059992 157.950996,87.6159991 C157.842996,87.9939991 157.356996,88.1019991 156.978996,87.8859991 C156.006996,87.3999991 155.412996,86.6439992 155.034996,85.6179992 C154.224996,83.3499992 153.954996,80.9739993 153.954996,78.5979994 C153.954996,77.4639994 154.062996,76.2759994 154.062996,75.1419995 C154.062996,74.7639995 153.792996,74.4939995 153.468996,74.6019995 C152.820996,74.7099995 152.172996,74.8179995 151.578996,75.0879995 C150.552996,75.5199995 149.472996,75.4119995 148.392996,75.3579995 C147.096996,75.2499995 146.070996,74.6559995 145.368996,73.5219995 C145.044996,72.9279995 144.612996,72.3339995 144.234996,71.7399996 C143.910996,71.2539996 144.018996,70.7679996 144.558996,70.4439996 C144.774996,70.3359996 145.044996,70.2279996 145.260996,70.1739996 C147.852996,69.2019996 150.444996,68.2839996 153.144996,67.5819997 C153.360996,67.5279997 153.630996,67.4739997 153.900996,67.3659997 C154.872996,67.0959997 155.412996,66.5559997 155.574996,65.4219997 C156.168996,61.2099998 156.978996,57.0519999 157.680996,52.8940001 C158.004996,50.6800001 158.220996,48.4120002 158.490996,46.1980002 C158.598996,45.1720003 158.382996,44.1460003 158.274996,43.1200003 C158.112996,41.8240003 158.274996,41.6620004 159.516996,41.1220004 C160.866996,40.5280004 162.054996,40.9600004 163.080996,41.7700004 C164.160996,42.6880003 164.862996,43.8760003 165.024996,45.3880003 C165.240996,47.2780002 165.348996,49.0600002 165.078996,50.9500001 C164.484996,55.27 163.890996,59.5899999 163.080996,63.8559998 C163.080996,64.0719998 163.080996,64.2339998 163.026996,64.4499997 C163.026996,64.9899997 163.188996,65.2059997 163.674996,65.1519997 C164.754996,65.1519997 165.888996,65.1519997 166.914996,64.9899997 C168.048996,64.8279997 169.128996,64.7199997 170.208996,64.6659997 C170.640996,64.6659997 171.072995,64.6119997 171.504995,64.5039997 C172.098995,64.3959998 172.368995,64.0179998 172.476995,63.4239998 C172.692995,61.6959998 172.962995,60.0219999 173.232995,58.2939999 C173.556995,56.08 173.826995,53.866 174.150995,51.5980001 C174.312995,50.5720001 174.366995,49.6000001 174.042995,48.5740002 C173.664995,47.4940002 174.636995,46.5760002 175.770995,46.7380002 C179.550995,47.3860002 181.278995,50.2480001 180.684995,53.326 C180.306995,55.594 179.928995,57.8619999 179.496995,60.1299999 L179.010995,62.9919998 C178.956995,63.3159998 179.172995,63.4779998 179.442995,63.5319998 C179.820995,63.6399998 180.198995,63.6399998 180.576995,63.7479998 Z M170.532996,90.1539991 L170.478996,90.0999991 L170.532996,90.0999991 L170.532996,90.1539991 Z M201.798995,54.568 C201.744995,58.5099999 201.474995,61.4799998 201.204995,64.3959998 C201.204995,64.8279997 201.096995,65.3139997 201.096995,65.7459997 C200.988995,69.7419996 200.340995,73.6839995 199.800995,77.6259994 C199.692995,78.5979994 199.530995,79.5159994 199.476995,80.4879993 C199.422995,81.7299993 199.314995,82.9179993 198.936995,84.1059992 C198.774995,84.5919992 198.720995,85.0779992 198.666995,85.6179992 C198.612995,86.3199992 198.612995,86.9679992 198.018995,87.5619991 C197.586995,87.9939991 197.640995,88.8039991 197.694995,89.3439991 C197.910995,91.017999 197.100995,92.151999 196.074995,93.231999 C195.966995,93.393999 195.804995,93.555999 195.696995,93.663999 C195.372995,94.095999 195.048995,93.933999 194.724995,93.717999 C193.374995,92.691999 192.510995,91.449999 192.294995,89.7219991 C192.078995,88.2099991 191.862995,86.6979992 192.132995,85.1319992 C192.294995,84.1059992 192.294995,83.0799993 192.294995,82.0539993 C192.240995,79.6779993 192.672995,77.3019994 192.726995,74.9259995 C192.726995,74.5479995 192.456995,74.2779995 192.132995,74.3859995 C190.458995,74.8719995 188.838995,74.5479995 187.164995,74.2239995 C186.678995,74.1159995 186.192995,74.0619995 185.652995,73.9539995 C184.734995,73.7919995 184.680995,73.7919995 184.356995,74.6019995 C183.708995,76.2219994 183.114995,77.8419994 182.466995,79.4619994 C181.440995,82.1079993 180.414995,84.8079992 179.334995,87.5079991 C179.172995,87.9939991 178.902995,88.4259991 178.632995,88.8579991 C177.984995,90.1539991 176.850995,90.6399991 175.500995,90.8019991 C175.176995,90.8559991 174.852995,90.7479991 174.636995,90.4779991 C173.826995,89.6139991 173.070995,88.6959991 172.800995,87.5079991 C172.800995,87.3999991 172.800995,87.2379991 172.854995,87.1299991 C173.988995,85.5099992 174.150995,83.5119992 174.852995,81.7299993 C175.824995,79.2459994 176.634995,76.6539994 177.660995,74.1699995 C178.038995,73.0899995 178.254995,71.9559996 179.064995,71.0379996 C179.496995,70.4979996 178.416995,69.6339996 179.388995,69.1479996 C180.090995,68.7699996 180.252995,68.0679997 180.576995,67.4199997 C181.332995,65.7459997 182.034995,64.0179998 182.790995,62.3439998 L186.354995,54.244 C187.596995,51.2740001 189.162995,48.4660002 190.296995,45.4420003 C190.512995,44.7940003 190.836995,44.2000003 190.836995,43.4440003 C190.890995,42.6880003 191.214995,42.1480003 192.078995,41.9320003 C192.834995,41.7700004 193.698995,41.6080004 194.238995,40.8520004 C194.346995,40.7980004 194.508995,40.6900004 194.616995,40.7440004 C196.128995,41.0680004 197.694995,41.2300004 198.774995,42.6880003 C200.232995,44.6860003 201.204995,46.7920002 201.366995,49.2220002 C201.528995,51.3280001 201.852995,53.434 201.798995,54.568 Z M187.056995,68.2299996 C188.244995,68.7159996 189.594995,69.0399996 190.728995,69.7419996 C191.160995,69.9579996 191.754995,69.9039996 192.240995,69.7959996 C192.888995,69.7419996 193.212995,69.4719996 193.320995,68.8779996 C193.374995,68.2839996 193.428995,67.6899997 193.428995,67.1499997 C193.374995,63.6399998 193.536995,60.0759999 193.752995,56.566 C193.860995,55.162 193.752995,53.758 193.752995,52.3540001 C193.752995,52.2460001 193.644995,52.1380001 193.536995,52.0840001 C193.320995,51.9220001 193.158995,52.0840001 193.104995,52.2460001 C192.348995,53.92 191.538995,55.648 190.836995,57.3219999 C190.458995,58.1319999 190.026995,58.9959999 189.918995,59.8599999 C189.756995,60.8859998 189.378995,61.8039998 189.000995,62.7759998 L187.380995,66.6639997 C187.164995,67.0959997 187.002995,67.5819997 187.056995,68.2299996 Z M205.038995,65.2599997 C205.038995,62.6679998 205.146995,60.7239998 205.578995,58.7799999 C205.956995,56.8899999 206.388995,55 206.820995,53.164 C206.982995,52.4620001 207.198995,51.8140001 207.414995,51.1120001 C207.684995,50.3560001 208.116995,49.6000001 208.116995,48.7360002 C208.062995,47.8720002 208.602995,47.4940002 209.304994,47.1700002 C209.358994,47.1700002 209.412994,47.1160002 209.466994,47.1160002 C211.410994,47.2240002 213.138994,46.0900002 215.082994,46.0900002 C215.946994,46.0900002 216.756994,46.0900002 217.566994,46.3600002 C221.346994,47.4400002 224.262994,49.5460001 225.666994,53.38 C225.936994,54.136 226.368994,54.73 226.854994,55.324 C227.394994,55.81 227.664994,56.458 227.880994,57.1599999 C228.960994,60.5619999 229.392994,64.0719998 229.392994,67.5819997 C229.392994,69.6339996 229.068994,71.6319996 228.258994,73.5759995 C227.340994,75.7899994 226.314994,77.8959994 225.180994,80.0019993 C224.694994,80.9739993 224.748994,81.7839993 225.234994,82.7019993 C226.476994,85.2399992 227.286994,87.9399991 227.664994,90.8019991 C227.664994,91.179999 227.826994,91.503999 227.934994,91.881999 C228.096994,92.691999 228.258994,93.501999 228.096994,94.365999 C228.042994,94.7979989 227.988994,95.2839989 228.096994,95.7159989 C228.366994,96.6879989 227.448994,97.3359989 227.502994,98.2539989 C226.908994,98.5239988 226.422994,98.9559988 225.774994,98.8479988 C225.018994,98.6859988 224.424994,98.3619989 224.100994,97.6599989 L223.452994,96.0399989 C222.858994,94.365999 222.264994,92.637999 221.832994,90.909999 C221.508994,89.8299991 221.076994,88.7499991 220.644994,87.6699991 C220.320994,86.8599992 219.780994,86.6439992 218.916994,86.9139992 L218.214994,87.2379991 C217.512994,87.6159991 216.756994,87.6699991 216.054994,87.2919991 C215.730994,87.1299991 215.460994,86.9679992 215.136994,86.9139992 C213.894994,86.8059992 213.030994,86.0499992 212.274994,85.1859992 C211.680994,84.5379992 211.086994,83.9979992 210.546994,83.4039992 C210.060994,82.8639993 209.574994,82.3239993 209.142994,81.7839993 C207.036995,78.7599994 205.956995,75.3039995 205.470995,71.7399996 C205.146995,69.4179996 204.714995,67.0419997 205.038995,65.2599997 Z M221.346994,75.3579995 C221.562994,75.0879995 221.778994,74.8719995 221.940994,74.6019995 C222.102994,74.3319995 222.264994,74.0619995 222.372994,73.7379995 L223.344994,70.6599996 C224.100994,67.8519997 224.262994,64.9359997 224.316994,62.0739998 C224.316994,61.5879998 224.370994,61.0479998 223.938994,60.6159999 C223.560994,60.3459999 223.182994,60.7239998 222.804994,60.6699998 C222.588994,60.5619999 222.318994,60.6159999 222.048994,60.5619999 C221.346994,60.3459999 220.644994,60.0219999 220.482994,59.3199999 C220.320994,58.4559999 219.942994,57.5919999 220.050994,56.674 C220.104994,56.08 219.942994,55.54 219.726994,55 C219.294994,53.812 219.186994,53.812 217.998994,54.514 C217.350994,54.838 216.972994,55.324 216.540994,55.918 C216.270994,56.35 216.162994,57.1059999 215.514994,57.1599999 C214.650994,57.2679999 214.542994,57.8619999 214.326994,58.5099999 C213.570994,61.1019998 213.246994,63.7479998 212.814994,66.3939997 C212.220994,70.2279996 212.868994,73.9539995 213.516994,77.6799994 C213.786994,79.2459994 214.542994,80.7039993 215.460994,81.9999993 C215.568994,82.2159993 215.784994,82.4319993 216.054994,82.3779993 C217.080994,82.3239993 217.998994,80.9739993 217.674994,80.0019993 C217.134994,78.4899994 216.648994,76.9779994 216.054994,75.4659995 C215.730994,74.7099995 215.730994,73.8459995 215.568994,73.0359995 C215.460994,72.5499995 215.892994,71.8479996 216.378994,71.6319996 C216.810994,71.4699996 217.080994,71.7939996 217.404994,72.0099995 C218.538994,72.8739995 219.672994,73.7919995 220.644994,74.9259995 C220.806994,75.0879995 221.076994,75.1959995 221.346994,75.3579995 Z M258.012993,85.1859992 C257.904993,85.6179992 258.174993,85.9959992 257.958993,86.4819992 C256.176993,86.8059992 255.150993,85.8339992 254.448993,84.3219992 C254.340993,84.1059992 254.232993,83.8359992 254.178993,83.5659992 C253.530993,80.6499993 252.396993,77.8419994 252.234993,74.8179995 C252.234993,74.5479995 252.180993,74.2779995 252.126993,74.0079995 C252.018993,73.6299995 251.694993,73.5219995 251.316993,73.6299995 C250.506993,73.7919995 249.966993,74.3319995 249.534993,74.9259995 C248.400993,76.4919994 247.374993,78.0579994 246.240994,79.5159994 C244.890994,81.3519993 243.378994,83.0799993 241.920994,84.8079992 C241.650994,85.1319992 241.380994,85.4559992 241.218994,85.8339992 C240.678994,86.6439992 240.030994,87.3459991 238.950994,87.3999991 C238.248994,87.8859991 237.384994,87.8319991 236.574994,87.9939991 C235.602994,88.1559991 234.792994,87.8859991 234.360994,86.9139992 C234.252994,86.6439992 234.198994,86.4279992 233.874994,86.3199992 C233.604994,86.2659992 233.226994,86.1039992 233.226994,85.8879992 C233.010994,85.1319992 232.308994,84.7539992 232.038994,84.0519992 C230.850994,81.1899993 230.364994,78.2739994 230.310994,75.1419995 C230.256994,71.8479996 230.634994,68.6619996 231.120994,65.4759997 C231.714994,61.4799998 232.632994,57.5919999 234.090994,53.812 C234.738994,52.1380001 235.224994,50.4100001 235.764994,48.6280002 C237.384994,48.8980002 238.950994,49.4920001 240.462994,50.0320001 C242.514994,50.7880001 243.594994,53.164 242.676994,55.162 C241.596994,57.6999999 240.948994,60.3999999 240.138994,63.0459998 C239.166994,66.2859997 238.572994,69.6339996 237.978994,72.9819995 C237.546994,75.4659995 237.492994,77.9499994 237.546994,80.4339993 C237.546994,80.7579993 237.600994,81.0279993 237.654994,81.2979993 C237.708994,81.7299993 237.978994,81.8919993 238.356994,81.6759993 C239.112994,81.1899993 239.922994,80.7579993 240.678994,80.2179993 C241.056994,79.9479993 241.488994,79.6779993 241.758994,79.2999994 C244.188994,76.3299994 246.402993,73.2519995 248.022993,69.7419996 C248.184993,69.3099996 248.454993,68.8779996 248.562993,68.3919996 C249.264993,65.7999997 250.344993,63.3159998 250.776993,60.6159999 C250.884993,59.8059999 251.154993,59.0499999 251.478993,58.2399999 C251.694993,57.6999999 251.802993,57.2139999 251.748993,56.62 C251.586993,55.702 252.072993,55.054 252.720993,54.46 C253.260993,53.974 253.854993,54.028 254.448993,54.19 C254.880993,54.298 255.366993,53.974 255.636993,54.406 C256.068993,55.162 256.824993,55.756 256.770993,56.782 C256.608993,58.1859999 256.608993,59.5899999 256.446993,60.9399998 C256.392993,61.8039998 256.392993,62.6139998 256.662993,63.4239998 C257.958993,67.0959997 257.958993,70.8759996 258.120993,74.7099995 C258.120993,75.8979994 258.174993,77.0859994 258.282993,78.2199994 C258.444993,80.5959993 258.444993,82.9179993 258.012993,85.1859992 Z M238.842994,87.3999991 L238.950994,87.3999991 L238.842994,87.3999991 Z M259.740993,80.5959993 C259.794993,78.8139994 260.064993,77.1399994 260.388993,75.4119995 L260.874993,72.5499995 C260.982993,72.0639995 261.090993,71.6319996 261.306993,71.1999996 C261.738993,70.2279996 262.116993,69.2019996 261.954993,68.0679997 C261.900993,67.6899997 262.062993,67.2579997 262.116993,66.8799997 C262.818993,63.8019998 263.736993,60.7239998 264.654993,57.6999999 C264.924993,56.836 265.194993,55.972 265.410993,55.054 C265.734993,53.866 266.274993,52.6780001 266.706993,51.4900001 C266.868993,51.0580001 267.138993,50.8960001 267.624993,50.8420001 C267.894993,50.8420001 268.164993,50.7340001 268.434993,50.6800001 C269.568993,50.3560001 270.648993,50.0860001 271.620993,51.0040001 C271.890993,51.2740001 272.268993,51.2200001 272.592993,51.0580001 C272.808993,50.9500001 273.024993,50.8960001 273.240993,50.7880001 C276.858993,49.0060002 280.692993,47.7640002 284.418992,46.1440002 C285.822992,45.5500003 287.334992,45.1720003 288.846992,44.6860003 C289.656992,44.4160003 290.466992,44.1460003 291.330992,43.9300003 C291.762992,43.7680003 292.194992,43.7140003 292.680992,43.6600003 C293.058992,43.6600003 293.490992,44.2000003 293.274992,44.5240003 C292.842992,45.0640003 293.004992,45.7660002 292.626992,46.3060002 C292.302992,46.7920002 291.870992,47.1700002 291.654992,47.8180002 C291.546992,48.2500002 291.060992,48.4660002 290.574992,48.6280002 C289.980992,48.8440002 289.440992,49.2220002 289.062992,49.7080001 C288.306992,50.6800001 287.280992,51.1660001 286.200992,51.5440001 C285.174992,51.9760001 284.202992,52.5160001 283.284993,53.0020001 C280.476993,54.406 277.776993,55.918 274.860993,56.9979999 C274.536993,57.1599999 274.212993,57.3219999 273.888993,57.3759999 C272.538993,57.3759999 272.214993,58.2399999 271.890993,59.3199999 C271.404993,61.1019998 270.756993,62.8299998 270.216993,64.5579997 L269.298993,67.7439997 C269.244993,68.0679997 269.514993,68.2839996 269.838993,68.2299996 L273.996993,67.0959997 C275.076993,66.8259997 276.156993,66.7719997 277.290993,66.7719997 C277.722993,66.8259997 277.884993,67.0419997 277.830993,67.4739997 C277.776993,67.8519997 277.614993,68.1759997 277.776993,68.4999996 C277.830993,68.6079996 277.830993,68.7699996 277.776993,68.8239996 C277.074993,69.3639996 276.858993,70.3899996 275.940993,70.7679996 C275.400993,70.9839996 274.914993,71.3079996 274.806993,72.0099995 C274.698993,72.3339995 274.374993,72.4959995 274.050993,72.7119995 C272.970993,73.3599995 271.836993,73.8999995 270.594993,74.1699995 C269.892993,74.3319995 269.136993,74.3859995 268.380993,74.1699995 C267.570993,73.8999995 267.516993,73.9539995 267.300993,74.9259995 C266.652993,77.0319994 266.436993,79.1919994 266.004993,81.2979993 C265.896993,81.6759993 265.950993,81.9999993 265.950993,82.3779993 C265.950993,82.6479993 266.328993,82.8099993 266.598993,82.6479993 C267.030993,82.3779993 267.462993,82.1079993 267.894993,81.7839993 C270.864993,79.5699993 274.050993,77.7339994 277.452993,76.2759994 C278.370993,75.8979994 279.288993,75.5199995 280.260993,75.4659995 C280.962993,75.4119995 281.070993,75.6819995 281.286993,76.3299994 C281.610993,77.1939994 281.124993,77.9499994 281.070993,78.8139994 C281.016993,79.4079994 280.476993,79.8939993 280.044993,80.3259993 C279.450993,80.8659993 278.802993,81.3519993 278.478993,82.1619993 C278.370993,82.3239993 278.154993,82.4319993 277.938993,82.5939993 C275.454993,84.2679992 272.970993,85.8879992 270.486993,87.6159991 C269.406993,88.3719991 268.218993,88.6959991 267.030993,89.0739991 C266.706993,89.1819991 266.436993,89.1279991 266.166993,89.1279991 C264.546993,89.0199991 263.142993,88.3179991 262.008993,87.1839991 C260.550993,85.6719992 259.740993,83.7819992 259.740993,81.6219993 L259.740993,80.5959993 Z M324.432991,49.9240001 C324.486991,54.514 324.486991,59.1579999 324.540991,63.7479998 C324.540991,66.3939997 324.216991,69.0399996 324.054991,71.6319996 C323.946991,73.4139995 323.622991,75.1959995 323.244991,76.9239994 C322.434991,80.7039993 321.570992,84.4299992 320.706992,88.2099991 C320.328992,89.8839991 319.464992,91.233999 318.060992,92.259999 C317.142992,92.907999 316.440992,93.717999 315.252992,93.717999 L313.200992,93.609999 C312.552992,93.015999 311.688992,93.123999 310.986992,92.745999 C310.608992,92.637999 310.284992,92.529999 309.906992,92.475999 C309.204992,92.367999 308.610992,92.151999 308.232992,91.503999 C307.962992,91.017999 307.638992,91.341999 307.368992,91.665999 C306.882992,91.017999 306.180992,90.8019991 305.370992,90.909999 C304.938992,91.017999 304.506992,90.963999 304.020992,90.909999 L304.506992,90.4779991 C304.830992,90.1539991 304.830992,89.8299991 304.452992,89.7219991 C303.480992,89.5059991 303.210992,88.8039991 302.994992,87.9399991 C302.454992,85.8339992 302.562992,83.7279992 303.426992,81.7299993 C303.804992,80.9199993 303.750992,79.9479993 304.344992,79.2459994 C304.614992,78.8679994 304.830992,78.8679994 305.100992,79.1919994 C305.856992,79.9479993 306.072992,80.8659993 305.748992,81.9459993 C305.100992,84.0519992 305.856992,85.9419992 306.882992,87.7239991 C307.206992,88.2099991 307.476992,88.5339991 307.962992,88.6959991 C308.610992,88.9119991 309.150992,89.1819991 309.798992,89.3979991 C310.392992,89.6139991 310.770992,89.3979991 311.040992,88.8039991 C312.066992,85.9959992 313.254992,83.2419993 313.794992,80.2179993 C314.226992,77.6799994 314.712992,75.1959995 315.144992,72.6579995 C315.630992,69.5799996 316.224992,66.4479997 316.494992,63.3699998 C316.764992,58.9959999 317.034992,54.622 316.656992,50.3020001 C316.602992,49.6000001 316.656992,48.8980002 316.656992,48.1960002 L316.494992,40.4740004 C316.494992,40.1500004 316.494992,39.8260004 316.548992,39.5560004 C316.656992,38.9620004 317.142992,38.6920004 317.682992,38.8540004 C318.384992,39.0160004 318.762992,39.5560004 319.356992,39.8800004 C320.490992,40.5280004 321.462992,41.3920004 322.326991,42.4720003 C323.244991,43.6600003 323.676991,44.9020003 324.054991,46.2520002 C324.378991,47.4400002 324.432991,48.6820002 324.432991,49.9240001 Z M314.388992,90.8019991 L314.496992,90.6939991 L314.334992,90.6939991 L314.388992,90.8019991 Z M303.912992,90.963999 L303.858992,90.8559991 C303.912992,90.8559991 303.966992,90.8559991 304.020992,90.909999 C303.966992,90.909999 303.966992,90.963999 303.912992,90.963999 Z M307.422992,91.719999 L307.368992,91.719999 L307.368992,91.665999 L307.422992,91.719999 Z M311.418992,92.583999 C311.580992,92.475999 311.688992,92.313999 311.526992,92.151999 C311.526992,92.151999 311.310992,92.205999 311.256992,92.313999 C311.148992,92.421999 311.040992,92.529999 310.986992,92.691999 C311.148992,92.691999 311.310992,92.637999 311.418992,92.583999 Z M327.240991,80.5959993 C327.294991,78.8139994 327.564991,77.1399994 327.888991,75.4119995 L328.374991,72.5499995 C328.482991,72.0639995 328.590991,71.6319996 328.806991,71.1999996 C329.238991,70.2279996 329.616991,69.2019996 329.454991,68.0679997 C329.400991,67.6899997 329.562991,67.2579997 329.616991,66.8799997 C330.318991,63.8019998 331.236991,60.7239998 332.154991,57.6999999 C332.424991,56.836 332.694991,55.972 332.910991,55.054 C333.234991,53.866 333.774991,52.6780001 334.206991,51.4900001 C334.368991,51.0580001 334.638991,50.8960001 335.124991,50.8420001 C335.394991,50.8420001 335.664991,50.7340001 335.934991,50.6800001 C337.068991,50.3560001 338.148991,50.0860001 339.120991,51.0040001 C339.390991,51.2740001 339.768991,51.2200001 340.092991,51.0580001 C340.308991,50.9500001 340.524991,50.8960001 340.740991,50.7880001 C344.358991,49.0060002 348.192991,47.7640002 351.918991,46.1440002 C353.322991,45.5500003 354.834991,45.1720003 356.346991,44.6860003 C357.156991,44.4160003 357.966991,44.1460003 358.830991,43.9300003 C359.262991,43.7680003 359.69499,43.7140003 360.18099,43.6600003 C360.55899,43.6600003 360.99099,44.2000003 360.77499,44.5240003 C360.34299,45.0640003 360.50499,45.7660002 360.12699,46.3060002 C359.80299,46.7920002 359.370991,47.1700002 359.154991,47.8180002 C359.046991,48.2500002 358.560991,48.4660002 358.074991,48.6280002 C357.480991,48.8440002 356.940991,49.2220002 356.562991,49.7080001 C355.806991,50.6800001 354.780991,51.1660001 353.700991,51.5440001 C352.674991,51.9760001 351.702991,52.5160001 350.784991,53.0020001 C347.976991,54.406 345.276991,55.918 342.360991,56.9979999 C342.036991,57.1599999 341.712991,57.3219999 341.388991,57.3759999 C340.038991,57.3759999 339.714991,58.2399999 339.390991,59.3199999 C338.904991,61.1019998 338.256991,62.8299998 337.716991,64.5579997 L336.798991,67.7439997 C336.744991,68.0679997 337.014991,68.2839996 337.338991,68.2299996 L341.496991,67.0959997 C342.576991,66.8259997 343.656991,66.7719997 344.790991,66.7719997 C345.222991,66.8259997 345.384991,67.0419997 345.330991,67.4739997 C345.276991,67.8519997 345.114991,68.1759997 345.276991,68.4999996 C345.330991,68.6079996 345.330991,68.7699996 345.276991,68.8239996 C344.574991,69.3639996 344.358991,70.3899996 343.440991,70.7679996 C342.900991,70.9839996 342.414991,71.3079996 342.306991,72.0099995 C342.198991,72.3339995 341.874991,72.4959995 341.550991,72.7119995 C340.470991,73.3599995 339.336991,73.8999995 338.094991,74.1699995 C337.392991,74.3319995 336.636991,74.3859995 335.880991,74.1699995 C335.070991,73.8999995 335.016991,73.9539995 334.800991,74.9259995 C334.152991,77.0319994 333.936991,79.1919994 333.504991,81.2979993 C333.396991,81.6759993 333.450991,81.9999993 333.450991,82.3779993 C333.450991,82.6479993 333.828991,82.8099993 334.098991,82.6479993 C334.530991,82.3779993 334.962991,82.1079993 335.394991,81.7839993 C338.364991,79.5699993 341.550991,77.7339994 344.952991,76.2759994 C345.870991,75.8979994 346.788991,75.5199995 347.760991,75.4659995 C348.462991,75.4119995 348.570991,75.6819995 348.786991,76.3299994 C349.110991,77.1939994 348.624991,77.9499994 348.570991,78.8139994 C348.516991,79.4079994 347.976991,79.8939993 347.544991,80.3259993 C346.950991,80.8659993 346.302991,81.3519993 345.978991,82.1619993 C345.870991,82.3239993 345.654991,82.4319993 345.438991,82.5939993 C342.954991,84.2679992 340.470991,85.8879992 337.986991,87.6159991 C336.906991,88.3719991 335.718991,88.6959991 334.530991,89.0739991 C334.206991,89.1819991 333.936991,89.1279991 333.666991,89.1279991 C332.046991,89.0199991 330.642991,88.3179991 329.508991,87.1839991 C328.050991,85.6719992 327.240991,83.7819992 327.240991,81.6219993 L327.240991,80.5959993 Z M380.59299,85.1859992 C380.48499,85.6179992 380.75499,85.9959992 380.53899,86.4819992 C378.75699,86.8059992 377.73099,85.8339992 377.02899,84.3219992 C376.92099,84.1059992 376.81299,83.8359992 376.75899,83.5659992 C376.11099,80.6499993 374.97699,77.8419994 374.81499,74.8179995 C374.81499,74.5479995 374.76099,74.2779995 374.70699,74.0079995 C374.59899,73.6299995 374.27499,73.5219995 373.89699,73.6299995 C373.08699,73.7919995 372.54699,74.3319995 372.11499,74.9259995 C370.98099,76.4919994 369.95499,78.0579994 368.82099,79.5159994 C367.47099,81.3519993 365.95899,83.0799993 364.50099,84.8079992 C364.23099,85.1319992 363.96099,85.4559992 363.79899,85.8339992 C363.25899,86.6439992 362.61099,87.3459991 361.53099,87.3999991 C360.82899,87.8859991 359.96499,87.8319991 359.154991,87.9939991 C358.182991,88.1559991 357.372991,87.8859991 356.940991,86.9139992 C356.832991,86.6439992 356.778991,86.4279992 356.454991,86.3199992 C356.184991,86.2659992 355.806991,86.1039992 355.806991,85.8879992 C355.590991,85.1319992 354.888991,84.7539992 354.618991,84.0519992 C353.430991,81.1899993 352.944991,78.2739994 352.890991,75.1419995 C352.836991,71.8479996 353.214991,68.6619996 353.700991,65.4759997 C354.294991,61.4799998 355.212991,57.5919999 356.670991,53.812 C357.318991,52.1380001 357.804991,50.4100001 358.344991,48.6280002 C359.96499,48.8980002 361.53099,49.4920001 363.04299,50.0320001 C365.09499,50.7880001 366.17499,53.164 365.25699,55.162 C364.17699,57.6999999 363.52899,60.3999999 362.71899,63.0459998 C361.74699,66.2859997 361.15299,69.6339996 360.55899,72.9819995 C360.12699,75.4659995 360.07299,77.9499994 360.12699,80.4339993 C360.12699,80.7579993 360.18099,81.0279993 360.23499,81.2979993 C360.28899,81.7299993 360.55899,81.8919993 360.93699,81.6759993 C361.69299,81.1899993 362.50299,80.7579993 363.25899,80.2179993 C363.63699,79.9479993 364.06899,79.6779993 364.33899,79.2999994 C366.76899,76.3299994 368.98299,73.2519995 370.60299,69.7419996 C370.76499,69.3099996 371.03499,68.8779996 371.14299,68.3919996 C371.84499,65.7999997 372.92499,63.3159998 373.35699,60.6159999 C373.46499,59.8059999 373.73499,59.0499999 374.05899,58.2399999 C374.27499,57.6999999 374.38299,57.2139999 374.32899,56.62 C374.16699,55.702 374.65299,55.054 375.30099,54.46 C375.84099,53.974 376.43499,54.028 377.02899,54.19 C377.46099,54.298 377.94699,53.974 378.21699,54.406 C378.64899,55.162 379.40499,55.756 379.35099,56.782 C379.18899,58.1859999 379.18899,59.5899999 379.02699,60.9399998 C378.97299,61.8039998 378.97299,62.6139998 379.24299,63.4239998 C380.53899,67.0959997 380.53899,70.8759996 380.70099,74.7099995 C380.70099,75.8979994 380.75499,77.0859994 380.86299,78.2199994 C381.02499,80.5959993 381.02499,82.9179993 380.59299,85.1859992 Z M361.42299,87.3999991 L361.53099,87.3999991 L361.42299,87.3999991 Z M418.284989,49.7080001 C417.636989,50.0320001 417.312989,50.6260001 417.312989,51.3280001 C417.366989,52.2460001 416.934989,53.0020001 416.502989,53.758 C415.422989,55.648 414.396989,57.5919999 413.316989,59.5359999 C412.236989,61.5339998 411.480989,63.6399998 410.508989,65.6919997 C410.400989,65.9619997 410.292989,66.2319997 410.346989,66.4479997 C410.454989,67.8519997 409.752989,68.9319996 409.428989,70.1739996 C408.942989,71.6319996 408.186989,72.9819995 407.754989,74.4399995 C407.106989,76.9239994 406.080989,79.2459994 405.756989,81.8379993 C405.702989,82.2699993 405.594989,82.7559993 405.432989,83.1879993 C405.216989,83.9439992 405.270989,84.5919992 405.756989,85.2399992 C405.918989,85.4559992 406.026989,85.7259992 406.080989,85.9959992 C406.188989,86.5359992 406.134989,87.0219992 405.702989,87.4539991 C405.162989,87.9939991 404.514989,88.2099991 403.812989,88.3719991 C403.056989,88.5879991 402.462989,88.5339991 401.814989,88.1019991 C401.328989,87.7779991 400.734989,87.6699991 400.194989,87.4539991 C399.222989,87.1299991 398.574989,86.4819992 398.142989,85.5099992 C397.33299,83.5659992 396.90099,81.5139993 396.57699,79.4619994 C396.09099,76.4919994 395.60499,73.5219995 395.06499,70.5519996 C394.90299,69.6879996 394.57899,68.8779996 394.36299,68.0139997 C394.30899,67.9059997 394.14699,67.7979997 394.03899,67.7979997 C393.98499,67.7979997 393.82299,67.9059997 393.82299,68.0139997 C393.44499,70.1739996 393.01299,72.3879995 392.74299,74.5479995 C392.52699,76.6539994 392.14899,78.7059994 391.50099,80.6499993 C391.28499,81.2979993 391.17699,81.9999993 391.01499,82.6479993 C390.96099,82.8639993 390.96099,83.1879993 390.79899,83.4039992 C389.71899,84.8079992 389.28699,86.5899992 388.53099,88.2099991 C388.09899,89.1279991 387.93699,90.2619991 387.55899,91.233999 C387.39699,91.557999 387.12699,91.719999 386.85699,91.935999 C386.69499,92.043999 386.47899,92.043999 386.37099,91.881999 C385.83099,91.287999 385.23699,90.8019991 385.02099,89.9919991 C384.69699,88.5879991 384.31899,87.2379991 384.26499,85.7799992 C384.15699,82.1079993 384.10299,78.3819994 384.64299,74.7099995 C385.12899,71.0919996 385.45299,67.4739997 385.83099,63.8559998 L386.20899,61.6959998 C386.42499,60.5079999 386.47899,59.3199999 386.58699,58.0779999 C386.69499,56.296 387.07299,54.514 387.45099,52.7320001 C387.66699,51.7060001 388.26099,51.0580001 389.34099,51.0580001 C390.42099,51.1120001 391.50099,50.7880001 392.58099,51.1120001 C393.55299,51.4900001 394.30899,51.9220001 394.74099,52.9480001 C395.06499,53.65 395.44299,54.352 396.14499,54.838 C397.11699,55.54 397.602989,56.728 398.034989,57.8079999 C399.330989,60.8319998 400.572989,63.8559998 401.706989,66.9339997 C402.246989,68.2839996 402.570989,69.7419996 402.624989,71.2539996 C402.678989,71.9019996 402.570989,72.6039995 403.272989,73.1979995 C404.244989,71.3079996 405.648989,69.8499996 406.782989,68.1219997 C406.998989,67.7979997 407.160989,67.4199997 407.322989,67.0419997 C408.942989,62.5599998 411.534989,58.6179999 413.694989,54.406 C413.748989,54.244 413.910989,54.028 414.018989,53.92 C415.206989,52.8400001 416.070989,51.5440001 416.718989,50.0320001 C417.042989,49.3840001 417.690989,49.4920001 418.284989,49.7080001 Z M410.940989,80.5959993 C410.994989,78.8139994 411.264989,77.1399994 411.588989,75.4119995 L412.074989,72.5499995 C412.182989,72.0639995 412.290989,71.6319996 412.506989,71.1999996 C412.938989,70.2279996 413.316989,69.2019996 413.154989,68.0679997 C413.100989,67.6899997 413.262989,67.2579997 413.316989,66.8799997 C414.018989,63.8019998 414.936989,60.7239998 415.854989,57.6999999 C416.124989,56.836 416.394989,55.972 416.610989,55.054 C416.934989,53.866 417.474989,52.6780001 417.906989,51.4900001 C418.068989,51.0580001 418.338989,50.8960001 418.824989,50.8420001 C419.094989,50.8420001 419.364989,50.7340001 419.634989,50.6800001 C420.768989,50.3560001 421.848989,50.0860001 422.820989,51.0040001 C423.090989,51.2740001 423.468989,51.2200001 423.792989,51.0580001 C424.008989,50.9500001 424.224989,50.8960001 424.440989,50.7880001 C428.058989,49.0060002 431.892989,47.7640002 435.618988,46.1440002 C437.022988,45.5500003 438.534988,45.1720003 440.046988,44.6860003 C440.856988,44.4160003 441.666988,44.1460003 442.530988,43.9300003 C442.962988,43.7680003 443.394988,43.7140003 443.880988,43.6600003 C444.258988,43.6600003 444.690988,44.2000003 444.474988,44.5240003 C444.042988,45.0640003 444.204988,45.7660002 443.826988,46.3060002 C443.502988,46.7920002 443.070988,47.1700002 442.854988,47.8180002 C442.746988,48.2500002 442.260988,48.4660002 441.774988,48.6280002 C441.180988,48.8440002 440.640988,49.2220002 440.262988,49.7080001 C439.506988,50.6800001 438.480988,51.1660001 437.400988,51.5440001 C436.374988,51.9760001 435.402988,52.5160001 434.484989,53.0020001 C431.676989,54.406 428.976989,55.918 426.060989,56.9979999 C425.736989,57.1599999 425.412989,57.3219999 425.088989,57.3759999 C423.738989,57.3759999 423.414989,58.2399999 423.090989,59.3199999 C422.604989,61.1019998 421.956989,62.8299998 421.416989,64.5579997 L420.498989,67.7439997 C420.444989,68.0679997 420.714989,68.2839996 421.038989,68.2299996 L425.196989,67.0959997 C426.276989,66.8259997 427.356989,66.7719997 428.490989,66.7719997 C428.922989,66.8259997 429.084989,67.0419997 429.030989,67.4739997 C428.976989,67.8519997 428.814989,68.1759997 428.976989,68.4999996 C429.030989,68.6079996 429.030989,68.7699996 428.976989,68.8239996 C428.274989,69.3639996 428.058989,70.3899996 427.140989,70.7679996 C426.600989,70.9839996 426.114989,71.3079996 426.006989,72.0099995 C425.898989,72.3339995 425.574989,72.4959995 425.250989,72.7119995 C424.170989,73.3599995 423.036989,73.8999995 421.794989,74.1699995 C421.092989,74.3319995 420.336989,74.3859995 419.580989,74.1699995 C418.770989,73.8999995 418.716989,73.9539995 418.500989,74.9259995 C417.852989,77.0319994 417.636989,79.1919994 417.204989,81.2979993 C417.096989,81.6759993 417.150989,81.9999993 417.150989,82.3779993 C417.150989,82.6479993 417.528989,82.8099993 417.798989,82.6479993 C418.230989,82.3779993 418.662989,82.1079993 419.094989,81.7839993 C422.064989,79.5699993 425.250989,77.7339994 428.652989,76.2759994 C429.570989,75.8979994 430.488989,75.5199995 431.460989,75.4659995 C432.162989,75.4119995 432.270989,75.6819995 432.486989,76.3299994 C432.810989,77.1939994 432.324989,77.9499994 432.270989,78.8139994 C432.216989,79.4079994 431.676989,79.8939993 431.244989,80.3259993 C430.650989,80.8659993 430.002989,81.3519993 429.678989,82.1619993 C429.570989,82.3239993 429.354989,82.4319993 429.138989,82.5939993 C426.654989,84.2679992 424.170989,85.8879992 421.686989,87.6159991 C420.606989,88.3719991 419.418989,88.6959991 418.230989,89.0739991 C417.906989,89.1819991 417.636989,89.1279991 417.366989,89.1279991 C415.746989,89.0199991 414.342989,88.3179991 413.208989,87.1839991 C411.750989,85.6719992 410.940989,83.7819992 410.940989,81.6219993 L410.940989,80.5959993 Z" id="pour-chaque-jeune" fill="#2999D5"></path>
                </g>
            </g>
        </g>
    </g>
</svg>