<svg xmlns="http://www.w3.org/2000/svg" width="446" height="110" viewBox="0 0 446 110">
    <g fill="none" fill-rule="evenodd">
        <path fill="#000" d="M86.115 35.025V2.463h7.477v32.864c0 3.196 1.266 4.764 3.98 4.764 2.713 0 3.98-1.568 3.98-4.764V2.463h7.477v32.562c0 7.478-4.342 11.578-11.457 11.578-7.116 0-11.457-4.1-11.457-11.578zM123.018 46h-6.753V2.463h6.934l9.106 24.904h.12V2.463h6.754V46h-6.513l-9.527-27.195h-.12V46zm44.26 0h-20.863V2.463h20.02v6.513h-12.543v11.216h9.648v6.512h-9.648v12.784h13.387V46zm41.849-29.004h-7.477v-3.377c0-3.678-1.689-5.246-3.618-5.246-3.015 0-3.98 1.568-3.98 4.824v22.07c0 3.256.965 4.824 3.98 4.824 2.713 0 3.618-1.568 3.618-4.402v-5.246h7.477v5.005c0 6.15-3.618 11.155-11.095 11.155-7.84 0-11.457-5.005-11.457-11.155V13.016c0-6.15 3.618-11.156 11.457-11.156 7.477 0 11.095 5.427 11.095 11.94v3.196zM224.202 46h-7.477V2.463h7.477v17.729h7.96V2.463h7.477V46h-7.478V26.704h-7.96V46zm32.381-34.853l-2.955 18.693h6.03l-2.954-18.693h-.121zm-4.04 25.205L251.216 46h-7.236L252 2.463h9.286L269.306 46h-7.236l-1.326-9.648h-8.201zM280.4 46h-6.753V2.463h6.934l9.106 24.904h.12V2.463h6.754V46h-6.513l-9.527-27.195h-.12V46zm45.95-29.004h-7.478v-3.377c0-3.678-1.689-5.246-3.618-5.246-3.015 0-3.98 1.568-3.98 4.824v22.07c0 3.256.965 4.824 3.98 4.824 2.713 0 3.618-1.568 3.618-4.402v-5.246h7.477v5.005c0 6.15-3.618 11.155-11.095 11.155-7.84 0-11.457-5.005-11.457-11.155V13.016c0-6.15 3.618-11.156 11.457-11.156 7.477 0 11.095 5.427 11.095 11.94v3.196zM354.81 46h-20.863V2.463h20.02v6.513h-12.543v11.216h9.648v6.512h-9.648v12.784h13.387V46z"/>
        <path fill="#FFF" d="M85.115 34.025V1.463h7.477v32.864c0 3.196 1.266 4.764 3.98 4.764 2.713 0 3.98-1.568 3.98-4.764V1.463h7.477v32.562c0 7.478-4.342 11.578-11.457 11.578-7.116 0-11.457-4.1-11.457-11.578zM122.018 45h-6.753V1.463h6.934l9.106 24.904h.12V1.463h6.754V45h-6.513l-9.527-27.195h-.12V45zm44.26 0h-20.863V1.463h20.02v6.513h-12.543v11.216h9.648v6.512h-9.648v12.784h13.387V45zm41.849-29.004h-7.477v-3.377c0-3.678-1.689-5.246-3.618-5.246-3.015 0-3.98 1.568-3.98 4.824v22.07c0 3.256.965 4.824 3.98 4.824 2.713 0 3.618-1.568 3.618-4.402v-5.246h7.477v5.005c0 6.15-3.618 11.155-11.095 11.155-7.84 0-11.457-5.005-11.457-11.155V12.016c0-6.15 3.618-11.156 11.457-11.156 7.477 0 11.095 5.427 11.095 11.94v3.196zM223.202 45h-7.477V1.463h7.477v17.729h7.96V1.463h7.477V45h-7.478V25.704h-7.96V45zm32.381-34.853l-2.955 18.693h6.03l-2.954-18.693h-.121zm-4.04 25.205L250.216 45h-7.236L251 1.463h9.286L268.306 45h-7.236l-1.326-9.648h-8.201zM279.4 45h-6.753V1.463h6.934l9.106 24.904h.12V1.463h6.754V45h-6.513l-9.527-27.195h-.12V45zm45.95-29.004h-7.478v-3.377c0-3.678-1.689-5.246-3.618-5.246-3.015 0-3.98 1.568-3.98 4.824v22.07c0 3.256.965 4.824 3.98 4.824 2.713 0 3.618-1.568 3.618-4.402v-5.246h7.477v5.005c0 6.15-3.618 11.155-11.095 11.155-7.84 0-11.457-5.005-11.457-11.155V12.016c0-6.15 3.618-11.156 11.457-11.156 7.477 0 11.095 5.427 11.095 11.94v3.196zM353.81 45h-20.863V1.463h20.02v6.513h-12.543v11.216h9.648v6.512h-9.648v12.784h13.387V45z"/>
        <path fill="#000" d="M23.465 68.582c.756-2.16 1.728-4.212 2.808-6.21 1.08-1.944 1.188-4.05 1.134-6.21 0-.756-.486-1.026-1.188-.756-1.728.648-3.132 1.674-4.374 2.97-1.782 1.728-3.564 3.456-5.292 5.292a37.699 37.699 0 0 0-2.97 3.51c-.81 1.134-1.026 2.538-1.458 3.888-1.188 3.726-1.89 7.56-3.348 11.178-.162.324-.216.702-.27 1.08-.378 1.458-.702 2.97-1.08 4.482-.162.486-.216.972-.162 1.512.054 1.08-.27 1.998-1.134 2.7-.324.27-.594.594-.918.972-1.728-1.89-2.916-3.996-3.132-6.48-.27-2.754-.108-5.562.27-8.316.486-3.618 1.404-7.074 2.052-10.638.378-2.214.972-4.428 1.674-6.588 1.026-3.294 1.62-6.75 2.484-10.044.324-1.134.432-2.322.162-3.51-.27-1.188.81-1.998 2.052-1.674 1.998.486 3.348 1.674 4.266 3.456.27.432.432.972.648 1.404 1.08 1.944 1.026 3.942.54 5.994-.27 1.08-.54 2.106-.648 3.402.972-.216 1.458-.864 1.944-1.458.864-1.08 1.944-1.998 2.97-2.916a10.957 10.957 0 0 1 4.536-2.646c2.376-.702 4.266-.054 5.778 1.782 1.566 1.836 2.322 3.888 1.728 6.264-.108.27-.108.594-.108.864.162 2.268-.864 4.158-1.836 6.048-.756 1.458-1.566 2.862-2.214 4.32-.918 1.998-2.43 3.51-4.104 4.86-.216.162-.54.378-.756.378-1.026-.108-1.836.486-2.646.918-1.026.594-2.052.702-3.132-.054-.432-.324-.972-.594-1.512-.864-.162-.108-.432-.216-.54-.378-.594-1.404-1.782-2.538-2.106-4.05-.054-.216-.108-.432-.108-.648 0-.108.054-.324.162-.378.054-.054.27-.108.378 0 .702.378 1.35.918 2.052 1.296 1.782.918 2.7.756 4.158-.594 1.296-1.242 2.484-2.538 3.294-4.104.054 0 .162-.054.162-.054h-.216zm30.132-2.268c.54 2.214-.27 4.536-.486 6.912-.162 1.836-1.08 3.564-1.998 5.184-.81 1.35-1.782 2.646-2.7 3.942-.486.756-1.188 1.134-1.782 1.674-1.404 1.404-2.862 2.7-4.212 4.104-1.512 1.566-3.348 2.052-5.238 2.592-1.674.54-3.132 0-4.536-.918-.162-.108-.378-.216-.486-.378-1.35-1.512-2.592-3.024-3.186-5.13-.594-2.16-.972-4.32-1.08-6.588-.108-3.24.432-6.264 1.35-9.234 1.458-4.482 3.348-8.694 5.508-12.744.864-1.728 1.836-3.456 3.132-4.914.594-.702 1.242-1.296 2.16-1.242.378 0 .756-.108 1.134-.27.486-.27.972-.216 1.458-.054.594.216 1.08.27 1.674.162 1.296-.27 2.862 1.296 2.808 2.862-.054.918.27 1.296.972 1.512 1.134.324 1.998.972 2.538 2.16.108.27.27.486.432.702 2.268 2.484 2.7 5.67 2.538 9.018v.648zm-12.69 3.132c-1.188-.486-1.89-.972-2.592-1.728-.432-.486-.864-.324-1.134.378-.54 1.35-.918 2.7-1.458 4.05-1.026 2.538-1.458 5.238-1.512 8.046-.054 1.026.162 1.998.324 3.024.108.594.432 1.08.81 1.458.486.594.918.702 1.566.324.54-.324 1.134-.702 1.62-1.134 3.24-2.916 6.102-6.264 8.208-10.314 1.62-3.024 2.538-6.318 2.754-9.882.108-1.404-.054-2.754-.27-4.104-.162-.648-.378-1.242-.702-1.782-.378-.54-.756-.648-1.188-.324-1.026.864-2.052 1.674-2.7 3.024-.864 1.89-1.89 3.672-2.646 5.562-.432 1.026-1.35 1.836-1.08 3.402zm40.608 16.74c-.108.432.162.81-.054 1.296-1.782.324-2.808-.648-3.51-2.16a3.123 3.123 0 0 1-.27-.756c-.648-2.916-1.782-5.724-1.944-8.748 0-.27-.054-.54-.108-.81-.108-.378-.432-.486-.81-.378-.81.162-1.35.702-1.782 1.296-1.134 1.566-2.16 3.132-3.294 4.59-1.35 1.836-2.862 3.564-4.32 5.292-.27.324-.54.648-.702 1.026-.54.81-1.188 1.512-2.268 1.566-.702.486-1.566.432-2.376.594-.972.162-1.782-.108-2.214-1.08-.108-.27-.162-.486-.486-.594-.27-.054-.648-.216-.648-.432-.216-.756-.918-1.134-1.188-1.836-1.188-2.862-1.674-5.778-1.728-8.91-.054-3.294.324-6.48.81-9.666.594-3.996 1.512-7.884 2.97-11.664.648-1.674 1.134-3.402 1.674-5.184 1.62.27 3.186.864 4.698 1.404 2.052.756 3.132 3.132 2.214 5.13-1.08 2.538-1.728 5.238-2.538 7.884-.972 3.24-1.566 6.588-2.16 9.936-.432 2.484-.486 4.968-.432 7.452 0 .324.054.594.108.864.054.432.324.594.702.378.756-.486 1.566-.918 2.322-1.458.378-.27.81-.54 1.08-.918 2.43-2.97 4.644-6.048 6.264-9.558.162-.432.432-.864.54-1.35.702-2.592 1.782-5.076 2.214-7.776.108-.81.378-1.566.702-2.376.216-.54.324-1.026.27-1.62-.162-.918.324-1.566.972-2.16.54-.486 1.134-.432 1.728-.27.432.108.918-.216 1.188.216.432.756 1.188 1.35 1.134 2.376-.162 1.404-.162 2.808-.324 4.158-.054.864-.054 1.674.216 2.484 1.296 3.672 1.296 7.452 1.458 11.286 0 1.188.054 2.376.162 3.51.162 2.376.162 4.698-.27 6.966zM62.345 88.4h.108-.108zm25.812-46.17c1.08 0 2.106-.054 3.078 0 .432 0 .81.054 1.242.162 1.728.486 2.538 1.566 2.484 3.402-.054 1.728-.054 3.402-.108 5.13 0 .27-.108.648.27.972.54 0 .864-.54 1.35-.756a7.288 7.288 0 0 0 1.404-.81c.594-.486 1.296-.648 1.998-.972 1.566-.702 3.186-.27 4.752.054.648.108 1.026.54 1.296 1.188.972 2.052 1.296 4.212.918 6.48a52.682 52.682 0 0 1-1.296 5.94c-.27.864-.648 1.62-1.296 2.268-.918 1.08-1.728 2.268-2.754 3.24-.648.594-.702 1.296-.378 2.052 1.026 2.43 1.458 5.076 2.16 7.614.54 1.782 1.08 3.618 1.728 5.4a210.832 210.832 0 0 0 3.078 8.154c.324.81.648 1.62.756 2.484.054.27.108.54.216.81 1.512 3.186 3.24 6.21 6.102 8.478.54.432 1.188.918 1.836 1.242.81.378 1.404 1.026 2.052 1.566.648.486.594 1.242.702 1.836.162.594-.648 1.134-1.242.972-.324-.108-.648-.162-.918-.378-2.052-1.782-4.482-3.024-6.588-4.752-2.43-1.944-4.644-4.158-6.372-6.75-1.188-1.89-2.376-3.78-3.348-5.778-1.512-3.186-2.862-6.426-4.158-9.72-1.134-2.862-1.998-5.886-2.646-8.91-.162-.702-.486-1.404-.702-2.106-.162-.486-.162-1.296-.81-1.188-.54.054-.432.918-.486 1.404l-.81 7.884c-.054.324 0 .702-.108 1.026-.81 1.836-.756 3.834-.918 5.778-.108 1.35-.432 2.7-.864 3.942-.162.648-.324 1.566-1.404 1.08a.583.583 0 0 0-.378.162c-.81.756-1.458.324-2.16-.162-.378-.27-.54-.594-.54-1.026-.054-1.134-.054-2.268-.108-3.456-.162-3.834-.054-7.722.162-11.556.216-3.996.702-7.938 1.08-11.934.378-3.942.864-7.938 1.296-11.88.162-1.296.378-2.538.486-3.834.162-1.35.486-2.646-.054-3.996-.108-.216 0-.486 0-.756zm5.184 24.516c1.134-.432 2.214-.486 3.24-.486.378 0 .756.108.81.486.162.702.54.594 1.026.378.81-.378 1.35-.918 1.512-1.836.108-.432.324-.864.486-1.296 1.62-3.294 2.106-6.804 1.944-10.476 0-.162-.054-.378-.108-.594-.054-.324-.54-.54-.81-.324-1.188 1.026-2.646 1.782-3.564 3.24-1.404 2.214-2.592 4.536-3.726 6.912-.324.594-.432 1.296-.702 1.89-.216.648-.27 1.296-.108 2.106zm53.244 11.61c.054.486.162.972.216 1.458.054.54.108 1.08 0 1.512-.162.702-.594 1.296-.81 1.944-.216.594.108 1.296-.378 1.836-.162.162-.27.324-.27.54-.162 1.62-1.188 2.916-1.944 4.266-.216.378-.324.702-.486 1.08-.108.27-.27.594-.432.864-.216.324-.54.486-.918.594-1.404.432-2.322 1.89-3.996 1.62-.324-.054-.594-.162-.81-.432-.054-.162-.27-.378-.378-.378-1.674.162-2.322-1.458-3.618-1.944a.65.65 0 0 1-.27-.27c-1.62-2.7-2.7-5.508-2.538-8.748.162-2.538.27-5.13.432-7.668.162-2.052.432-4.104.648-6.156a13.83 13.83 0 0 0 .162-2.106c.108-1.458.486-2.916.81-4.32.756-3.672 1.566-7.29 2.97-10.746 1.188-2.97 2.538-5.778 4.806-8.046.27-.324.486-.648.648-.918.27-.378.648-.81 1.026-.864 1.674-.324 3.294-1.08 5.076-.648 2.106.486 3.672 2.106 3.726 4.266.054 2.052.216 4.104-.216 6.156-.054.324-.108.648-.054.972.054 2.052-.324 4.104-.324 6.156-.054 1.944-.432 3.834-.486 5.724-.054 1.242-1.026 1.728-1.782 2.376-.108.108-.378.108-.54.054-1.026-.27-1.998-.648-2.43-1.728-.324-.918-.594-1.836-.054-2.754.216-.324.27-.702.324-1.134.108-1.944.27-3.942.378-5.94.108-1.674.27-3.348.324-5.022 0-1.08-.108-2.16-.216-3.24 0-.162-.162-.378-.27-.432-.162-.054-.432 0-.54.108-.648.648-1.188 1.35-1.512 2.214-1.026 2.7-2.214 5.346-3.024 8.1-.216.756-.27 1.512-.486 2.268-.54 1.89-1.026 3.834-1.566 5.724-.864 3.078-1.512 6.21-1.782 9.45-.216 1.782-.594 3.564-.648 5.346-.108 2.376-.648 4.806-.108 7.236.162.972.378 1.89.864 2.754.324.594.702.702 1.242.324.648-.486 1.35-.972 1.89-1.62 2.106-2.484 4.158-5.022 5.94-7.776.27-.378.486-.756.81-1.134.216-.27.162-.756.594-.918zm34.992-13.608c.162.054.27.324.108.432-1.188.594-1.242 1.998-2.214 2.754-.324.27-.27.702-.324 1.08-.378 2.106-.648 4.212-1.188 6.264-.324 1.08-.594 2.214-.918 3.348a12.994 12.994 0 0 1-.864 2.268c-.648 1.35-1.08 2.754-1.458 4.212-.378 1.512-1.296 2.754-2.052 4.05-.216.432-.378.756-.27 1.242.054.648-.486.648-.864.702-.108-.216-.108-.432-.216-.486-1.08-.324-1.242-1.188-1.296-2.106a15.329 15.329 0 0 1 .162-3.834c.594-4.05 1.242-8.1 2.052-12.096 0-.108 0-.162.054-.216.216-1.566.054-1.62-1.512-1.08l-1.836.486c-1.782.378-3.51.81-5.292 1.08-.81.162-1.188.648-1.35 1.404-.216.864-.432 1.728-.54 2.646-.432 2.376-.702 4.806-1.512 7.128-.27.702-.54 1.458-.486 2.214.108.918-.54 1.566-.81 2.376-.108.378-.594.486-.972.27-.972-.486-1.566-1.242-1.944-2.268-.81-2.268-1.08-4.644-1.08-7.02 0-1.134.108-2.322.108-3.456 0-.378-.27-.648-.594-.54-.648.108-1.296.216-1.89.486-1.026.432-2.106.324-3.186.27-1.296-.108-2.322-.702-3.024-1.836-.324-.594-.756-1.188-1.134-1.782-.324-.486-.216-.972.324-1.296a3.75 3.75 0 0 1 .702-.27c2.592-.972 5.184-1.89 7.884-2.592.216-.054.486-.108.756-.216.972-.27 1.512-.81 1.674-1.944.594-4.212 1.404-8.37 2.106-12.528.324-2.214.54-4.482.81-6.696.108-1.026-.108-2.052-.216-3.078-.162-1.296 0-1.458 1.242-1.998 1.35-.594 2.538-.162 3.564.648 1.08.918 1.782 2.106 1.944 3.618.216 1.89.324 3.672.054 5.562-.594 4.32-1.188 8.64-1.998 12.906 0 .216 0 .378-.054.594 0 .54.162.756.648.702 1.08 0 2.214 0 3.24-.162a35.745 35.745 0 0 1 3.294-.324c.432 0 .864-.054 1.296-.162.594-.108.864-.486.972-1.08.216-1.728.486-3.402.756-5.13.324-2.214.594-4.428.918-6.696.162-1.026.216-1.998-.108-3.024-.378-1.08.594-1.998 1.728-1.836 3.78.648 5.508 3.51 4.914 6.588a298.945 298.945 0 0 1-1.188 6.804l-.486 2.862c-.054.324.162.486.432.54.378.108.756.108 1.134.216zm-10.044 26.406l-.054-.054h.054v.054zm31.266-35.586c-.054 3.942-.324 6.912-.594 9.828 0 .432-.108.918-.108 1.35-.108 3.996-.756 7.938-1.296 11.88-.108.972-.27 1.89-.324 2.862-.054 1.242-.162 2.43-.54 3.618-.162.486-.216.972-.27 1.512-.054.702-.054 1.35-.648 1.944-.432.432-.378 1.242-.324 1.782.216 1.674-.594 2.808-1.62 3.888-.108.162-.27.324-.378.432-.324.432-.648.27-.972.054-1.35-1.026-2.214-2.268-2.43-3.996-.216-1.512-.432-3.024-.162-4.59.162-1.026.162-2.052.162-3.078-.054-2.376.378-4.752.432-7.128 0-.378-.27-.648-.594-.54-1.674.486-3.294.162-4.968-.162-.486-.108-.972-.162-1.512-.27-.918-.162-.972-.162-1.296.648-.648 1.62-1.242 3.24-1.89 4.86-1.026 2.646-2.052 5.346-3.132 8.046-.162.486-.432.918-.702 1.35-.648 1.296-1.782 1.782-3.132 1.944a.896.896 0 0 1-.864-.324c-.81-.864-1.566-1.782-1.836-2.97 0-.108 0-.27.054-.378 1.134-1.62 1.296-3.618 1.998-5.4.972-2.484 1.782-5.076 2.808-7.56.378-1.08.594-2.214 1.404-3.132.432-.54-.648-1.404.324-1.89.702-.378.864-1.08 1.188-1.728.756-1.674 1.458-3.402 2.214-5.076l3.564-8.1c1.242-2.97 2.808-5.778 3.942-8.802.216-.648.54-1.242.54-1.998.054-.756.378-1.296 1.242-1.512.756-.162 1.62-.324 2.16-1.08.108-.054.27-.162.378-.108 1.512.324 3.078.486 4.158 1.944 1.458 1.998 2.43 4.104 2.592 6.534.162 2.106.486 4.212.432 5.346zM188.057 69.23c1.188.486 2.538.81 3.672 1.512.432.216 1.026.162 1.512.054.648-.054.972-.324 1.08-.918.054-.594.108-1.188.108-1.728-.054-3.51.108-7.074.324-10.584.108-1.404 0-2.808 0-4.212 0-.108-.108-.216-.216-.27-.216-.162-.378 0-.432.162-.756 1.674-1.566 3.402-2.268 5.076-.378.81-.81 1.674-.918 2.538-.162 1.026-.54 1.944-.918 2.916l-1.62 3.888c-.216.432-.378.918-.324 1.566zm17.982-2.97c0-2.592.108-4.536.54-6.48.378-1.89.81-3.78 1.242-5.616.162-.702.378-1.35.594-2.052.27-.756.702-1.512.702-2.376-.054-.864.486-1.242 1.188-1.566.054 0 .108-.054.162-.054 1.944.108 3.672-1.026 5.616-1.026.864 0 1.674 0 2.484.27 3.78 1.08 6.696 3.186 8.1 7.02.27.756.702 1.35 1.188 1.944.54.486.81 1.134 1.026 1.836 1.08 3.402 1.512 6.912 1.512 10.422 0 2.052-.324 4.05-1.134 5.994a70.13 70.13 0 0 1-3.078 6.426c-.486.972-.432 1.782.054 2.7a26.064 26.064 0 0 1 2.43 8.1c0 .378.162.702.27 1.08.162.81.324 1.62.162 2.484-.054.432-.108.918 0 1.35.27.972-.648 1.62-.594 2.538-.594.27-1.08.702-1.728.594-.756-.162-1.35-.486-1.674-1.188l-.648-1.62c-.594-1.674-1.188-3.402-1.62-5.13-.324-1.08-.756-2.16-1.188-3.24-.324-.81-.864-1.026-1.728-.756l-.702.324c-.702.378-1.458.432-2.16.054-.324-.162-.594-.324-.918-.378-1.242-.108-2.106-.864-2.862-1.728-.594-.648-1.188-1.188-1.728-1.782-.486-.54-.972-1.08-1.404-1.62-2.106-3.024-3.186-6.48-3.672-10.044-.324-2.322-.756-4.698-.432-6.48zm16.308 10.098c.216-.27.432-.486.594-.756.162-.27.324-.54.432-.864l.972-3.078c.756-2.808.918-5.724.972-8.586 0-.486.054-1.026-.378-1.458-.378-.27-.756.108-1.134.054-.216-.108-.486-.054-.756-.108-.702-.216-1.404-.54-1.566-1.242-.162-.864-.54-1.728-.432-2.646.054-.594-.108-1.134-.324-1.674-.432-1.188-.54-1.188-1.728-.486-.648.324-1.026.81-1.458 1.404-.27.432-.378 1.188-1.026 1.242-.864.108-.972.702-1.188 1.35-.756 2.592-1.08 5.238-1.512 7.884-.594 3.834.054 7.56.702 11.286.27 1.566 1.026 3.024 1.944 4.32.108.216.324.432.594.378 1.026-.054 1.944-1.404 1.62-2.376-.54-1.512-1.026-3.024-1.62-4.536-.324-.756-.324-1.62-.486-2.43-.108-.486.324-1.188.81-1.404.432-.162.702.162 1.026.378 1.134.864 2.268 1.782 3.24 2.916.162.162.432.27.702.432zm36.666 9.828c-.108.432.162.81-.054 1.296-1.782.324-2.808-.648-3.51-2.16a3.123 3.123 0 0 1-.27-.756c-.648-2.916-1.782-5.724-1.944-8.748 0-.27-.054-.54-.108-.81-.108-.378-.432-.486-.81-.378-.81.162-1.35.702-1.782 1.296-1.134 1.566-2.16 3.132-3.294 4.59-1.35 1.836-2.862 3.564-4.32 5.292-.27.324-.54.648-.702 1.026-.54.81-1.188 1.512-2.268 1.566-.702.486-1.566.432-2.376.594-.972.162-1.782-.108-2.214-1.08-.108-.27-.162-.486-.486-.594-.27-.054-.648-.216-.648-.432-.216-.756-.918-1.134-1.188-1.836-1.188-2.862-1.674-5.778-1.728-8.91-.054-3.294.324-6.48.81-9.666.594-3.996 1.512-7.884 2.97-11.664.648-1.674 1.134-3.402 1.674-5.184 1.62.27 3.186.864 4.698 1.404 2.052.756 3.132 3.132 2.214 5.13-1.08 2.538-1.728 5.238-2.538 7.884-.972 3.24-1.566 6.588-2.16 9.936-.432 2.484-.486 4.968-.432 7.452 0 .324.054.594.108.864.054.432.324.594.702.378.756-.486 1.566-.918 2.322-1.458.378-.27.81-.54 1.08-.918 2.43-2.97 4.644-6.048 6.264-9.558.162-.432.432-.864.54-1.35.702-2.592 1.782-5.076 2.214-7.776.108-.81.378-1.566.702-2.376.216-.54.324-1.026.27-1.62-.162-.918.324-1.566.972-2.16.54-.486 1.134-.432 1.728-.27.432.108.918-.216 1.188.216.432.756 1.188 1.35 1.134 2.376-.162 1.404-.162 2.808-.324 4.158-.054.864-.054 1.674.216 2.484 1.296 3.672 1.296 7.452 1.458 11.286 0 1.188.054 2.376.162 3.51.162 2.376.162 4.698-.27 6.966zm-19.17 2.214h.108-.108zm20.898-6.804c.054-1.782.324-3.456.648-5.184l.486-2.862c.108-.486.216-.918.432-1.35.432-.972.81-1.998.648-3.132-.054-.378.108-.81.162-1.188.702-3.078 1.62-6.156 2.538-9.18.27-.864.54-1.728.756-2.646.324-1.188.864-2.376 1.296-3.564.162-.432.432-.594.918-.648.27 0 .54-.108.81-.162 1.134-.324 2.214-.594 3.186.324.27.27.648.216.972.054.216-.108.432-.162.648-.27 3.618-1.782 7.452-3.024 11.178-4.644 1.404-.594 2.916-.972 4.428-1.458.81-.27 1.62-.54 2.484-.756.432-.162.864-.216 1.35-.27.378 0 .81.54.594.864-.432.54-.27 1.242-.648 1.782-.324.486-.756.864-.972 1.512-.108.432-.594.648-1.08.81a3.398 3.398 0 0 0-1.512 1.08c-.756.972-1.782 1.458-2.862 1.836-1.026.432-1.998.972-2.916 1.458-2.808 1.404-5.508 2.916-8.424 3.996-.324.162-.648.324-.972.378-1.35 0-1.674.864-1.998 1.944-.486 1.782-1.134 3.51-1.674 5.238l-.918 3.186c-.054.324.216.54.54.486l4.158-1.134c1.08-.27 2.16-.324 3.294-.324.432.054.594.27.54.702-.054.378-.216.702-.054 1.026.054.108.054.27 0 .324-.702.54-.918 1.566-1.836 1.944-.54.216-1.026.54-1.134 1.242-.108.324-.432.486-.756.702-1.08.648-2.214 1.188-3.456 1.458-.702.162-1.458.216-2.214 0-.81-.27-.864-.216-1.08.756-.648 2.106-.864 4.266-1.296 6.372-.108.378-.054.702-.054 1.08 0 .27.378.432.648.27.432-.27.864-.54 1.296-.864a46.75 46.75 0 0 1 9.558-5.508c.918-.378 1.836-.756 2.808-.81.702-.054.81.216 1.026.864.324.864-.162 1.62-.216 2.484-.054.594-.594 1.08-1.026 1.512-.594.54-1.242 1.026-1.566 1.836-.108.162-.324.27-.54.432-2.484 1.674-4.968 3.294-7.452 5.022-1.08.756-2.268 1.08-3.456 1.458-.324.108-.594.054-.864.054-1.62-.108-3.024-.81-4.158-1.944-1.458-1.512-2.268-3.402-2.268-5.562v-1.026zm64.692-30.672c.054 4.59.054 9.234.108 13.824 0 2.646-.324 5.292-.486 7.884-.108 1.782-.432 3.564-.81 5.292-.81 3.78-1.674 7.506-2.538 11.286-.378 1.674-1.242 3.024-2.646 4.05-.918.648-1.62 1.458-2.808 1.458l-2.052-.108c-.648-.594-1.512-.486-2.214-.864-.378-.108-.702-.216-1.08-.27-.702-.108-1.296-.324-1.674-.972-.27-.486-.594-.162-.864.162-.486-.648-1.188-.864-1.998-.756-.432.108-.864.054-1.35 0l.486-.432c.324-.324.324-.648-.054-.756-.972-.216-1.242-.918-1.458-1.782-.54-2.106-.432-4.212.432-6.21.378-.81.324-1.782.918-2.484.27-.378.486-.378.756-.054.756.756.972 1.674.648 2.754-.648 2.106.108 3.996 1.134 5.778.324.486.594.81 1.08.972.648.216 1.188.486 1.836.702.594.216.972 0 1.242-.594 1.026-2.808 2.214-5.562 2.754-8.586.432-2.538.918-5.022 1.35-7.56.486-3.078 1.08-6.21 1.35-9.288.27-4.374.54-8.748.162-13.068-.054-.702 0-1.404 0-2.106l-.162-7.722c0-.324 0-.648.054-.918.108-.594.594-.864 1.134-.702.702.162 1.08.702 1.674 1.026 1.134.648 2.106 1.512 2.97 2.592.918 1.188 1.35 2.43 1.728 3.78.324 1.188.378 2.43.378 3.672zm-10.044 40.878l.108-.108h-.162l.054.108zm-10.476.162l-.054-.108c.054 0 .108 0 .162.054-.054 0-.054.054-.108.054zm3.51.756h-.054v-.054l.054.054zm3.996.864c.162-.108.27-.27.108-.432 0 0-.216.054-.27.162-.108.108-.216.216-.27.378.162 0 .324-.054.432-.108zm15.822-11.988c.054-1.782.324-3.456.648-5.184l.486-2.862c.108-.486.216-.918.432-1.35.432-.972.81-1.998.648-3.132-.054-.378.108-.81.162-1.188.702-3.078 1.62-6.156 2.538-9.18.27-.864.54-1.728.756-2.646.324-1.188.864-2.376 1.296-3.564.162-.432.432-.594.918-.648.27 0 .54-.108.81-.162 1.134-.324 2.214-.594 3.186.324.27.27.648.216.972.054.216-.108.432-.162.648-.27 3.618-1.782 7.452-3.024 11.178-4.644 1.404-.594 2.916-.972 4.428-1.458.81-.27 1.62-.54 2.484-.756.432-.162.864-.216 1.35-.27.378 0 .81.54.594.864-.432.54-.27 1.242-.648 1.782-.324.486-.756.864-.972 1.512-.108.432-.594.648-1.08.81a3.398 3.398 0 0 0-1.512 1.08c-.756.972-1.782 1.458-2.862 1.836-1.026.432-1.998.972-2.916 1.458-2.808 1.404-5.508 2.916-8.424 3.996-.324.162-.648.324-.972.378-1.35 0-1.674.864-1.998 1.944-.486 1.782-1.134 3.51-1.674 5.238l-.918 3.186c-.054.324.216.54.54.486l4.158-1.134c1.08-.27 2.16-.324 3.294-.324.432.054.594.27.54.702-.054.378-.216.702-.054 1.026.054.108.054.27 0 .324-.702.54-.918 1.566-1.836 1.944-.54.216-1.026.54-1.134 1.242-.108.324-.432.486-.756.702-1.08.648-2.214 1.188-3.456 1.458-.702.162-1.458.216-2.214 0-.81-.27-.864-.216-1.08.756-.648 2.106-.864 4.266-1.296 6.372-.108.378-.054.702-.054 1.08 0 .27.378.432.648.27.432-.27.864-.54 1.296-.864a46.75 46.75 0 0 1 9.558-5.508c.918-.378 1.836-.756 2.808-.81.702-.054.81.216 1.026.864.324.864-.162 1.62-.216 2.484-.054.594-.594 1.08-1.026 1.512-.594.54-1.242 1.026-1.566 1.836-.108.162-.324.27-.54.432-2.484 1.674-4.968 3.294-7.452 5.022-1.08.756-2.268 1.08-3.456 1.458-.324.108-.594.054-.864.054-1.62-.108-3.024-.81-4.158-1.944-1.458-1.512-2.268-3.402-2.268-5.562v-1.026zm53.352 4.59c-.108.432.162.81-.054 1.296-1.782.324-2.808-.648-3.51-2.16a3.123 3.123 0 0 1-.27-.756c-.648-2.916-1.782-5.724-1.944-8.748 0-.27-.054-.54-.108-.81-.108-.378-.432-.486-.81-.378-.81.162-1.35.702-1.782 1.296-1.134 1.566-2.16 3.132-3.294 4.59-1.35 1.836-2.862 3.564-4.32 5.292-.27.324-.54.648-.702 1.026-.54.81-1.188 1.512-2.268 1.566-.702.486-1.566.432-2.376.594-.972.162-1.782-.108-2.214-1.08-.108-.27-.162-.486-.486-.594-.27-.054-.648-.216-.648-.432-.216-.756-.918-1.134-1.188-1.836-1.188-2.862-1.674-5.778-1.728-8.91-.054-3.294.324-6.48.81-9.666.594-3.996 1.512-7.884 2.97-11.664.648-1.674 1.134-3.402 1.674-5.184 1.62.27 3.186.864 4.698 1.404 2.052.756 3.132 3.132 2.214 5.13-1.08 2.538-1.728 5.238-2.538 7.884-.972 3.24-1.566 6.588-2.16 9.936-.432 2.484-.486 4.968-.432 7.452 0 .324.054.594.108.864.054.432.324.594.702.378.756-.486 1.566-.918 2.322-1.458.378-.27.81-.54 1.08-.918 2.43-2.97 4.644-6.048 6.264-9.558.162-.432.432-.864.54-1.35.702-2.592 1.782-5.076 2.214-7.776.108-.81.378-1.566.702-2.376.216-.54.324-1.026.27-1.62-.162-.918.324-1.566.972-2.16.54-.486 1.134-.432 1.728-.27.432.108.918-.216 1.188.216.432.756 1.188 1.35 1.134 2.376-.162 1.404-.162 2.808-.324 4.158-.054.864-.054 1.674.216 2.484 1.296 3.672 1.296 7.452 1.458 11.286 0 1.188.054 2.376.162 3.51.162 2.376.162 4.698-.27 6.966zm-19.17 2.214h.108-.108zm56.862-37.692c-.648.324-.972.918-.972 1.62.054.918-.378 1.674-.81 2.43-1.08 1.89-2.106 3.834-3.186 5.778-1.08 1.998-1.836 4.104-2.808 6.156-.108.27-.216.54-.162.756.108 1.404-.594 2.484-.918 3.726-.486 1.458-1.242 2.808-1.674 4.266-.648 2.484-1.674 4.806-1.998 7.398a6.136 6.136 0 0 1-.324 1.35c-.216.756-.162 1.404.324 2.052.162.216.27.486.324.756.108.54.054 1.026-.378 1.458-.54.54-1.188.756-1.89.918-.756.216-1.35.162-1.998-.27-.486-.324-1.08-.432-1.62-.648-.972-.324-1.62-.972-2.052-1.944-.81-1.944-1.242-3.996-1.566-6.048a511.38 511.38 0 0 0-1.512-8.91c-.162-.864-.486-1.674-.702-2.538-.054-.108-.216-.216-.324-.216-.054 0-.216.108-.216.216-.378 2.16-.81 4.374-1.08 6.534-.216 2.106-.594 4.158-1.242 6.102-.216.648-.324 1.35-.486 1.998-.054.216-.054.54-.216.756-1.08 1.404-1.512 3.186-2.268 4.806-.432.918-.594 2.052-.972 3.024-.162.324-.432.486-.702.702-.162.108-.378.108-.486-.054-.54-.594-1.134-1.08-1.35-1.89-.324-1.404-.702-2.754-.756-4.212-.108-3.672-.162-7.398.378-11.07.486-3.618.81-7.236 1.188-10.854l.378-2.16c.216-1.188.27-2.376.378-3.618.108-1.782.486-3.564.864-5.346.216-1.026.81-1.674 1.89-1.674 1.08.054 2.16-.27 3.24.054.972.378 1.728.81 2.16 1.836.324.702.702 1.404 1.404 1.89.972.702 1.458 1.89 1.89 2.97 1.296 3.024 2.538 6.048 3.672 9.126.54 1.35.864 2.808.918 4.32.054.648-.054 1.35.648 1.944.972-1.89 2.376-3.348 3.51-5.076.216-.324.378-.702.54-1.08 1.62-4.482 4.212-8.424 6.372-12.636.054-.162.216-.378.324-.486 1.188-1.08 2.052-2.376 2.7-3.888.324-.648.972-.54 1.566-.324zm-7.344 30.888c.054-1.782.324-3.456.648-5.184l.486-2.862c.108-.486.216-.918.432-1.35.432-.972.81-1.998.648-3.132-.054-.378.108-.81.162-1.188.702-3.078 1.62-6.156 2.538-9.18.27-.864.54-1.728.756-2.646.324-1.188.864-2.376 1.296-3.564.162-.432.432-.594.918-.648.27 0 .54-.108.81-.162 1.134-.324 2.214-.594 3.186.324.27.27.648.216.972.054.216-.108.432-.162.648-.27 3.618-1.782 7.452-3.024 11.178-4.644 1.404-.594 2.916-.972 4.428-1.458.81-.27 1.62-.54 2.484-.756.432-.162.864-.216 1.35-.27.378 0 .81.54.594.864-.432.54-.27 1.242-.648 1.782-.324.486-.756.864-.972 1.512-.108.432-.594.648-1.08.81a3.398 3.398 0 0 0-1.512 1.08c-.756.972-1.782 1.458-2.862 1.836-1.026.432-1.998.972-2.916 1.458-2.808 1.404-5.508 2.916-8.424 3.996-.324.162-.648.324-.972.378-1.35 0-1.674.864-1.998 1.944-.486 1.782-1.134 3.51-1.674 5.238l-.918 3.186c-.054.324.216.54.54.486l4.158-1.134c1.08-.27 2.16-.324 3.294-.324.432.054.594.27.54.702-.054.378-.216.702-.054 1.026.054.108.054.27 0 .324-.702.54-.918 1.566-1.836 1.944-.54.216-1.026.54-1.134 1.242-.108.324-.432.486-.756.702-1.08.648-2.214 1.188-3.456 1.458-.702.162-1.458.216-2.214 0-.81-.27-.864-.216-1.08.756-.648 2.106-.864 4.266-1.296 6.372-.108.378-.054.702-.054 1.08 0 .27.378.432.648.27.432-.27.864-.54 1.296-.864a46.75 46.75 0 0 1 9.558-5.508c.918-.378 1.836-.756 2.808-.81.702-.054.81.216 1.026.864.324.864-.162 1.62-.216 2.484-.054.594-.594 1.08-1.026 1.512-.594.54-1.242 1.026-1.566 1.836-.108.162-.324.27-.54.432-2.484 1.674-4.968 3.294-7.452 5.022-1.08.756-2.268 1.08-3.456 1.458-.324.108-.594.054-.864.054-1.62-.108-3.024-.81-4.158-1.944-1.458-1.512-2.268-3.402-2.268-5.562v-1.026z"/>
        <path fill="#2999D5" d="M22.465 67.582c.756-2.16 1.728-4.212 2.808-6.21 1.08-1.944 1.188-4.05 1.134-6.21 0-.756-.486-1.026-1.188-.756-1.728.648-3.132 1.674-4.374 2.97-1.782 1.728-3.564 3.456-5.292 5.292a37.699 37.699 0 0 0-2.97 3.51c-.81 1.134-1.026 2.538-1.458 3.888-1.188 3.726-1.89 7.56-3.348 11.178-.162.324-.216.702-.27 1.08-.378 1.458-.702 2.97-1.08 4.482-.162.486-.216.972-.162 1.512.054 1.08-.27 1.998-1.134 2.7-.324.27-.594.594-.918.972-1.728-1.89-2.916-3.996-3.132-6.48-.27-2.754-.108-5.562.27-8.316.486-3.618 1.404-7.074 2.052-10.638.378-2.214.972-4.428 1.674-6.588 1.026-3.294 1.62-6.75 2.484-10.044.324-1.134.432-2.322.162-3.51-.27-1.188.81-1.998 2.052-1.674 1.998.486 3.348 1.674 4.266 3.456.27.432.432.972.648 1.404 1.08 1.944 1.026 3.942.54 5.994-.27 1.08-.54 2.106-.648 3.402.972-.216 1.458-.864 1.944-1.458.864-1.08 1.944-1.998 2.97-2.916a10.957 10.957 0 0 1 4.536-2.646c2.376-.702 4.266-.054 5.778 1.782 1.566 1.836 2.322 3.888 1.728 6.264-.108.27-.108.594-.108.864.162 2.268-.864 4.158-1.836 6.048-.756 1.458-1.566 2.862-2.214 4.32-.918 1.998-2.43 3.51-4.104 4.86-.216.162-.54.378-.756.378-1.026-.108-1.836.486-2.646.918-1.026.594-2.052.702-3.132-.054-.432-.324-.972-.594-1.512-.864-.162-.108-.432-.216-.54-.378-.594-1.404-1.782-2.538-2.106-4.05-.054-.216-.108-.432-.108-.648 0-.108.054-.324.162-.378.054-.054.27-.108.378 0 .702.378 1.35.918 2.052 1.296 1.782.918 2.7.756 4.158-.594 1.296-1.242 2.484-2.538 3.294-4.104.054 0 .162-.054.162-.054h-.216zm30.132-2.268c.54 2.214-.27 4.536-.486 6.912-.162 1.836-1.08 3.564-1.998 5.184-.81 1.35-1.782 2.646-2.7 3.942-.486.756-1.188 1.134-1.782 1.674-1.404 1.404-2.862 2.7-4.212 4.104-1.512 1.566-3.348 2.052-5.238 2.592-1.674.54-3.132 0-4.536-.918-.162-.108-.378-.216-.486-.378-1.35-1.512-2.592-3.024-3.186-5.13-.594-2.16-.972-4.32-1.08-6.588-.108-3.24.432-6.264 1.35-9.234 1.458-4.482 3.348-8.694 5.508-12.744.864-1.728 1.836-3.456 3.132-4.914.594-.702 1.242-1.296 2.16-1.242.378 0 .756-.108 1.134-.27.486-.27.972-.216 1.458-.054.594.216 1.08.27 1.674.162 1.296-.27 2.862 1.296 2.808 2.862-.054.918.27 1.296.972 1.512 1.134.324 1.998.972 2.538 2.16.108.27.27.486.432.702 2.268 2.484 2.7 5.67 2.538 9.018v.648zm-12.69 3.132c-1.188-.486-1.89-.972-2.592-1.728-.432-.486-.864-.324-1.134.378-.54 1.35-.918 2.7-1.458 4.05-1.026 2.538-1.458 5.238-1.512 8.046-.054 1.026.162 1.998.324 3.024.108.594.432 1.08.81 1.458.486.594.918.702 1.566.324.54-.324 1.134-.702 1.62-1.134 3.24-2.916 6.102-6.264 8.208-10.314 1.62-3.024 2.538-6.318 2.754-9.882.108-1.404-.054-2.754-.27-4.104-.162-.648-.378-1.242-.702-1.782-.378-.54-.756-.648-1.188-.324-1.026.864-2.052 1.674-2.7 3.024-.864 1.89-1.89 3.672-2.646 5.562-.432 1.026-1.35 1.836-1.08 3.402zm40.608 16.74c-.108.432.162.81-.054 1.296-1.782.324-2.808-.648-3.51-2.16a3.123 3.123 0 0 1-.27-.756c-.648-2.916-1.782-5.724-1.944-8.748 0-.27-.054-.54-.108-.81-.108-.378-.432-.486-.81-.378-.81.162-1.35.702-1.782 1.296-1.134 1.566-2.16 3.132-3.294 4.59-1.35 1.836-2.862 3.564-4.32 5.292-.27.324-.54.648-.702 1.026-.54.81-1.188 1.512-2.268 1.566-.702.486-1.566.432-2.376.594-.972.162-1.782-.108-2.214-1.08-.108-.27-.162-.486-.486-.594-.27-.054-.648-.216-.648-.432-.216-.756-.918-1.134-1.188-1.836-1.188-2.862-1.674-5.778-1.728-8.91-.054-3.294.324-6.48.81-9.666.594-3.996 1.512-7.884 2.97-11.664.648-1.674 1.134-3.402 1.674-5.184 1.62.27 3.186.864 4.698 1.404 2.052.756 3.132 3.132 2.214 5.13-1.08 2.538-1.728 5.238-2.538 7.884-.972 3.24-1.566 6.588-2.16 9.936-.432 2.484-.486 4.968-.432 7.452 0 .324.054.594.108.864.054.432.324.594.702.378.756-.486 1.566-.918 2.322-1.458.378-.27.81-.54 1.08-.918 2.43-2.97 4.644-6.048 6.264-9.558.162-.432.432-.864.54-1.35.702-2.592 1.782-5.076 2.214-7.776.108-.81.378-1.566.702-2.376.216-.54.324-1.026.27-1.62-.162-.918.324-1.566.972-2.16.54-.486 1.134-.432 1.728-.27.432.108.918-.216 1.188.216.432.756 1.188 1.35 1.134 2.376-.162 1.404-.162 2.808-.324 4.158-.054.864-.054 1.674.216 2.484 1.296 3.672 1.296 7.452 1.458 11.286 0 1.188.054 2.376.162 3.51.162 2.376.162 4.698-.27 6.966zM61.345 87.4h.108-.108zm25.812-46.17c1.08 0 2.106-.054 3.078 0 .432 0 .81.054 1.242.162 1.728.486 2.538 1.566 2.484 3.402-.054 1.728-.054 3.402-.108 5.13 0 .27-.108.648.27.972.54 0 .864-.54 1.35-.756a7.288 7.288 0 0 0 1.404-.81c.594-.486 1.296-.648 1.998-.972 1.566-.702 3.186-.27 4.752.054.648.108 1.026.54 1.296 1.188.972 2.052 1.296 4.212.918 6.48a52.682 52.682 0 0 1-1.296 5.94c-.27.864-.648 1.62-1.296 2.268-.918 1.08-1.728 2.268-2.754 3.24-.648.594-.702 1.296-.378 2.052 1.026 2.43 1.458 5.076 2.16 7.614.54 1.782 1.08 3.618 1.728 5.4a210.832 210.832 0 0 0 3.078 8.154c.324.81.648 1.62.756 2.484.054.27.108.54.216.81 1.512 3.186 3.24 6.21 6.102 8.478.54.432 1.188.918 1.836 1.242.81.378 1.404 1.026 2.052 1.566.648.486.594 1.242.702 1.836.162.594-.648 1.134-1.242.972-.324-.108-.648-.162-.918-.378-2.052-1.782-4.482-3.024-6.588-4.752-2.43-1.944-4.644-4.158-6.372-6.75-1.188-1.89-2.376-3.78-3.348-5.778-1.512-3.186-2.862-6.426-4.158-9.72-1.134-2.862-1.998-5.886-2.646-8.91-.162-.702-.486-1.404-.702-2.106-.162-.486-.162-1.296-.81-1.188-.54.054-.432.918-.486 1.404l-.81 7.884c-.054.324 0 .702-.108 1.026-.81 1.836-.756 3.834-.918 5.778-.108 1.35-.432 2.7-.864 3.942-.162.648-.324 1.566-1.404 1.08a.583.583 0 0 0-.378.162c-.81.756-1.458.324-2.16-.162-.378-.27-.54-.594-.54-1.026-.054-1.134-.054-2.268-.108-3.456-.162-3.834-.054-7.722.162-11.556.216-3.996.702-7.938 1.08-11.934.378-3.942.864-7.938 1.296-11.88.162-1.296.378-2.538.486-3.834.162-1.35.486-2.646-.054-3.996-.108-.216 0-.486 0-.756zm5.184 24.516c1.134-.432 2.214-.486 3.24-.486.378 0 .756.108.81.486.162.702.54.594 1.026.378.81-.378 1.35-.918 1.512-1.836.108-.432.324-.864.486-1.296 1.62-3.294 2.106-6.804 1.944-10.476 0-.162-.054-.378-.108-.594-.054-.324-.54-.54-.81-.324-1.188 1.026-2.646 1.782-3.564 3.24-1.404 2.214-2.592 4.536-3.726 6.912-.324.594-.432 1.296-.702 1.89-.216.648-.27 1.296-.108 2.106zm53.244 11.61c.054.486.162.972.216 1.458.054.54.108 1.08 0 1.512-.162.702-.594 1.296-.81 1.944-.216.594.108 1.296-.378 1.836-.162.162-.27.324-.27.54-.162 1.62-1.188 2.916-1.944 4.266-.216.378-.324.702-.486 1.08-.108.27-.27.594-.432.864-.216.324-.54.486-.918.594-1.404.432-2.322 1.89-3.996 1.62-.324-.054-.594-.162-.81-.432-.054-.162-.27-.378-.378-.378-1.674.162-2.322-1.458-3.618-1.944a.65.65 0 0 1-.27-.27c-1.62-2.7-2.7-5.508-2.538-8.748.162-2.538.27-5.13.432-7.668.162-2.052.432-4.104.648-6.156a13.83 13.83 0 0 0 .162-2.106c.108-1.458.486-2.916.81-4.32.756-3.672 1.566-7.29 2.97-10.746 1.188-2.97 2.538-5.778 4.806-8.046.27-.324.486-.648.648-.918.27-.378.648-.81 1.026-.864 1.674-.324 3.294-1.08 5.076-.648 2.106.486 3.672 2.106 3.726 4.266.054 2.052.216 4.104-.216 6.156-.054.324-.108.648-.054.972.054 2.052-.324 4.104-.324 6.156-.054 1.944-.432 3.834-.486 5.724-.054 1.242-1.026 1.728-1.782 2.376-.108.108-.378.108-.54.054-1.026-.27-1.998-.648-2.43-1.728-.324-.918-.594-1.836-.054-2.754.216-.324.27-.702.324-1.134.108-1.944.27-3.942.378-5.94.108-1.674.27-3.348.324-5.022 0-1.08-.108-2.16-.216-3.24 0-.162-.162-.378-.27-.432-.162-.054-.432 0-.54.108-.648.648-1.188 1.35-1.512 2.214-1.026 2.7-2.214 5.346-3.024 8.1-.216.756-.27 1.512-.486 2.268-.54 1.89-1.026 3.834-1.566 5.724-.864 3.078-1.512 6.21-1.782 9.45-.216 1.782-.594 3.564-.648 5.346-.108 2.376-.648 4.806-.108 7.236.162.972.378 1.89.864 2.754.324.594.702.702 1.242.324.648-.486 1.35-.972 1.89-1.62 2.106-2.484 4.158-5.022 5.94-7.776.27-.378.486-.756.81-1.134.216-.27.162-.756.594-.918zm34.992-13.608c.162.054.27.324.108.432-1.188.594-1.242 1.998-2.214 2.754-.324.27-.27.702-.324 1.08-.378 2.106-.648 4.212-1.188 6.264-.324 1.08-.594 2.214-.918 3.348a12.994 12.994 0 0 1-.864 2.268c-.648 1.35-1.08 2.754-1.458 4.212-.378 1.512-1.296 2.754-2.052 4.05-.216.432-.378.756-.27 1.242.054.648-.486.648-.864.702-.108-.216-.108-.432-.216-.486-1.08-.324-1.242-1.188-1.296-2.106a15.329 15.329 0 0 1 .162-3.834c.594-4.05 1.242-8.1 2.052-12.096 0-.108 0-.162.054-.216.216-1.566.054-1.62-1.512-1.08l-1.836.486c-1.782.378-3.51.81-5.292 1.08-.81.162-1.188.648-1.35 1.404-.216.864-.432 1.728-.54 2.646-.432 2.376-.702 4.806-1.512 7.128-.27.702-.54 1.458-.486 2.214.108.918-.54 1.566-.81 2.376-.108.378-.594.486-.972.27-.972-.486-1.566-1.242-1.944-2.268-.81-2.268-1.08-4.644-1.08-7.02 0-1.134.108-2.322.108-3.456 0-.378-.27-.648-.594-.54-.648.108-1.296.216-1.89.486-1.026.432-2.106.324-3.186.27-1.296-.108-2.322-.702-3.024-1.836-.324-.594-.756-1.188-1.134-1.782-.324-.486-.216-.972.324-1.296a3.75 3.75 0 0 1 .702-.27c2.592-.972 5.184-1.89 7.884-2.592.216-.054.486-.108.756-.216.972-.27 1.512-.81 1.674-1.944.594-4.212 1.404-8.37 2.106-12.528.324-2.214.54-4.482.81-6.696.108-1.026-.108-2.052-.216-3.078-.162-1.296 0-1.458 1.242-1.998 1.35-.594 2.538-.162 3.564.648 1.08.918 1.782 2.106 1.944 3.618.216 1.89.324 3.672.054 5.562-.594 4.32-1.188 8.64-1.998 12.906 0 .216 0 .378-.054.594 0 .54.162.756.648.702 1.08 0 2.214 0 3.24-.162a35.745 35.745 0 0 1 3.294-.324c.432 0 .864-.054 1.296-.162.594-.108.864-.486.972-1.08.216-1.728.486-3.402.756-5.13.324-2.214.594-4.428.918-6.696.162-1.026.216-1.998-.108-3.024-.378-1.08.594-1.998 1.728-1.836 3.78.648 5.508 3.51 4.914 6.588a298.945 298.945 0 0 1-1.188 6.804l-.486 2.862c-.054.324.162.486.432.54.378.108.756.108 1.134.216zm-10.044 26.406l-.054-.054h.054v.054zm31.266-35.586c-.054 3.942-.324 6.912-.594 9.828 0 .432-.108.918-.108 1.35-.108 3.996-.756 7.938-1.296 11.88-.108.972-.27 1.89-.324 2.862-.054 1.242-.162 2.43-.54 3.618-.162.486-.216.972-.27 1.512-.054.702-.054 1.35-.648 1.944-.432.432-.378 1.242-.324 1.782.216 1.674-.594 2.808-1.62 3.888-.108.162-.27.324-.378.432-.324.432-.648.27-.972.054-1.35-1.026-2.214-2.268-2.43-3.996-.216-1.512-.432-3.024-.162-4.59.162-1.026.162-2.052.162-3.078-.054-2.376.378-4.752.432-7.128 0-.378-.27-.648-.594-.54-1.674.486-3.294.162-4.968-.162-.486-.108-.972-.162-1.512-.27-.918-.162-.972-.162-1.296.648-.648 1.62-1.242 3.24-1.89 4.86-1.026 2.646-2.052 5.346-3.132 8.046-.162.486-.432.918-.702 1.35-.648 1.296-1.782 1.782-3.132 1.944a.896.896 0 0 1-.864-.324c-.81-.864-1.566-1.782-1.836-2.97 0-.108 0-.27.054-.378 1.134-1.62 1.296-3.618 1.998-5.4.972-2.484 1.782-5.076 2.808-7.56.378-1.08.594-2.214 1.404-3.132.432-.54-.648-1.404.324-1.89.702-.378.864-1.08 1.188-1.728.756-1.674 1.458-3.402 2.214-5.076l3.564-8.1c1.242-2.97 2.808-5.778 3.942-8.802.216-.648.54-1.242.54-1.998.054-.756.378-1.296 1.242-1.512.756-.162 1.62-.324 2.16-1.08.108-.054.27-.162.378-.108 1.512.324 3.078.486 4.158 1.944 1.458 1.998 2.43 4.104 2.592 6.534.162 2.106.486 4.212.432 5.346zM187.057 68.23c1.188.486 2.538.81 3.672 1.512.432.216 1.026.162 1.512.054.648-.054.972-.324 1.08-.918.054-.594.108-1.188.108-1.728-.054-3.51.108-7.074.324-10.584.108-1.404 0-2.808 0-4.212 0-.108-.108-.216-.216-.27-.216-.162-.378 0-.432.162-.756 1.674-1.566 3.402-2.268 5.076-.378.81-.81 1.674-.918 2.538-.162 1.026-.54 1.944-.918 2.916l-1.62 3.888c-.216.432-.378.918-.324 1.566zm17.982-2.97c0-2.592.108-4.536.54-6.48.378-1.89.81-3.78 1.242-5.616.162-.702.378-1.35.594-2.052.27-.756.702-1.512.702-2.376-.054-.864.486-1.242 1.188-1.566.054 0 .108-.054.162-.054 1.944.108 3.672-1.026 5.616-1.026.864 0 1.674 0 2.484.27 3.78 1.08 6.696 3.186 8.1 7.02.27.756.702 1.35 1.188 1.944.54.486.81 1.134 1.026 1.836 1.08 3.402 1.512 6.912 1.512 10.422 0 2.052-.324 4.05-1.134 5.994a70.13 70.13 0 0 1-3.078 6.426c-.486.972-.432 1.782.054 2.7a26.064 26.064 0 0 1 2.43 8.1c0 .378.162.702.27 1.08.162.81.324 1.62.162 2.484-.054.432-.108.918 0 1.35.27.972-.648 1.62-.594 2.538-.594.27-1.08.702-1.728.594-.756-.162-1.35-.486-1.674-1.188l-.648-1.62c-.594-1.674-1.188-3.402-1.62-5.13-.324-1.08-.756-2.16-1.188-3.24-.324-.81-.864-1.026-1.728-.756l-.702.324c-.702.378-1.458.432-2.16.054-.324-.162-.594-.324-.918-.378-1.242-.108-2.106-.864-2.862-1.728-.594-.648-1.188-1.188-1.728-1.782-.486-.54-.972-1.08-1.404-1.62-2.106-3.024-3.186-6.48-3.672-10.044-.324-2.322-.756-4.698-.432-6.48zm16.308 10.098c.216-.27.432-.486.594-.756.162-.27.324-.54.432-.864l.972-3.078c.756-2.808.918-5.724.972-8.586 0-.486.054-1.026-.378-1.458-.378-.27-.756.108-1.134.054-.216-.108-.486-.054-.756-.108-.702-.216-1.404-.54-1.566-1.242-.162-.864-.54-1.728-.432-2.646.054-.594-.108-1.134-.324-1.674-.432-1.188-.54-1.188-1.728-.486-.648.324-1.026.81-1.458 1.404-.27.432-.378 1.188-1.026 1.242-.864.108-.972.702-1.188 1.35-.756 2.592-1.08 5.238-1.512 7.884-.594 3.834.054 7.56.702 11.286.27 1.566 1.026 3.024 1.944 4.32.108.216.324.432.594.378 1.026-.054 1.944-1.404 1.62-2.376-.54-1.512-1.026-3.024-1.62-4.536-.324-.756-.324-1.62-.486-2.43-.108-.486.324-1.188.81-1.404.432-.162.702.162 1.026.378 1.134.864 2.268 1.782 3.24 2.916.162.162.432.27.702.432zm36.666 9.828c-.108.432.162.81-.054 1.296-1.782.324-2.808-.648-3.51-2.16a3.123 3.123 0 0 1-.27-.756c-.648-2.916-1.782-5.724-1.944-8.748 0-.27-.054-.54-.108-.81-.108-.378-.432-.486-.81-.378-.81.162-1.35.702-1.782 1.296-1.134 1.566-2.16 3.132-3.294 4.59-1.35 1.836-2.862 3.564-4.32 5.292-.27.324-.54.648-.702 1.026-.54.81-1.188 1.512-2.268 1.566-.702.486-1.566.432-2.376.594-.972.162-1.782-.108-2.214-1.08-.108-.27-.162-.486-.486-.594-.27-.054-.648-.216-.648-.432-.216-.756-.918-1.134-1.188-1.836-1.188-2.862-1.674-5.778-1.728-8.91-.054-3.294.324-6.48.81-9.666.594-3.996 1.512-7.884 2.97-11.664.648-1.674 1.134-3.402 1.674-5.184 1.62.27 3.186.864 4.698 1.404 2.052.756 3.132 3.132 2.214 5.13-1.08 2.538-1.728 5.238-2.538 7.884-.972 3.24-1.566 6.588-2.16 9.936-.432 2.484-.486 4.968-.432 7.452 0 .324.054.594.108.864.054.432.324.594.702.378.756-.486 1.566-.918 2.322-1.458.378-.27.81-.54 1.08-.918 2.43-2.97 4.644-6.048 6.264-9.558.162-.432.432-.864.54-1.35.702-2.592 1.782-5.076 2.214-7.776.108-.81.378-1.566.702-2.376.216-.54.324-1.026.27-1.62-.162-.918.324-1.566.972-2.16.54-.486 1.134-.432 1.728-.27.432.108.918-.216 1.188.216.432.756 1.188 1.35 1.134 2.376-.162 1.404-.162 2.808-.324 4.158-.054.864-.054 1.674.216 2.484 1.296 3.672 1.296 7.452 1.458 11.286 0 1.188.054 2.376.162 3.51.162 2.376.162 4.698-.27 6.966zm-19.17 2.214h.108-.108zm20.898-6.804c.054-1.782.324-3.456.648-5.184l.486-2.862c.108-.486.216-.918.432-1.35.432-.972.81-1.998.648-3.132-.054-.378.108-.81.162-1.188.702-3.078 1.62-6.156 2.538-9.18.27-.864.54-1.728.756-2.646.324-1.188.864-2.376 1.296-3.564.162-.432.432-.594.918-.648.27 0 .54-.108.81-.162 1.134-.324 2.214-.594 3.186.324.27.27.648.216.972.054.216-.108.432-.162.648-.27 3.618-1.782 7.452-3.024 11.178-4.644 1.404-.594 2.916-.972 4.428-1.458.81-.27 1.62-.54 2.484-.756.432-.162.864-.216 1.35-.27.378 0 .81.54.594.864-.432.54-.27 1.242-.648 1.782-.324.486-.756.864-.972 1.512-.108.432-.594.648-1.08.81a3.398 3.398 0 0 0-1.512 1.08c-.756.972-1.782 1.458-2.862 1.836-1.026.432-1.998.972-2.916 1.458-2.808 1.404-5.508 2.916-8.424 3.996-.324.162-.648.324-.972.378-1.35 0-1.674.864-1.998 1.944-.486 1.782-1.134 3.51-1.674 5.238l-.918 3.186c-.054.324.216.54.54.486l4.158-1.134c1.08-.27 2.16-.324 3.294-.324.432.054.594.27.54.702-.054.378-.216.702-.054 1.026.054.108.054.27 0 .324-.702.54-.918 1.566-1.836 1.944-.54.216-1.026.54-1.134 1.242-.108.324-.432.486-.756.702-1.08.648-2.214 1.188-3.456 1.458-.702.162-1.458.216-2.214 0-.81-.27-.864-.216-1.08.756-.648 2.106-.864 4.266-1.296 6.372-.108.378-.054.702-.054 1.08 0 .27.378.432.648.27.432-.27.864-.54 1.296-.864a46.75 46.75 0 0 1 9.558-5.508c.918-.378 1.836-.756 2.808-.81.702-.054.81.216 1.026.864.324.864-.162 1.62-.216 2.484-.054.594-.594 1.08-1.026 1.512-.594.54-1.242 1.026-1.566 1.836-.108.162-.324.27-.54.432-2.484 1.674-4.968 3.294-7.452 5.022-1.08.756-2.268 1.08-3.456 1.458-.324.108-.594.054-.864.054-1.62-.108-3.024-.81-4.158-1.944-1.458-1.512-2.268-3.402-2.268-5.562v-1.026zm64.692-30.672c.054 4.59.054 9.234.108 13.824 0 2.646-.324 5.292-.486 7.884-.108 1.782-.432 3.564-.81 5.292-.81 3.78-1.674 7.506-2.538 11.286-.378 1.674-1.242 3.024-2.646 4.05-.918.648-1.62 1.458-2.808 1.458l-2.052-.108c-.648-.594-1.512-.486-2.214-.864-.378-.108-.702-.216-1.08-.27-.702-.108-1.296-.324-1.674-.972-.27-.486-.594-.162-.864.162-.486-.648-1.188-.864-1.998-.756-.432.108-.864.054-1.35 0l.486-.432c.324-.324.324-.648-.054-.756-.972-.216-1.242-.918-1.458-1.782-.54-2.106-.432-4.212.432-6.21.378-.81.324-1.782.918-2.484.27-.378.486-.378.756-.054.756.756.972 1.674.648 2.754-.648 2.106.108 3.996 1.134 5.778.324.486.594.81 1.08.972.648.216 1.188.486 1.836.702.594.216.972 0 1.242-.594 1.026-2.808 2.214-5.562 2.754-8.586.432-2.538.918-5.022 1.35-7.56.486-3.078 1.08-6.21 1.35-9.288.27-4.374.54-8.748.162-13.068-.054-.702 0-1.404 0-2.106l-.162-7.722c0-.324 0-.648.054-.918.108-.594.594-.864 1.134-.702.702.162 1.08.702 1.674 1.026 1.134.648 2.106 1.512 2.97 2.592.918 1.188 1.35 2.43 1.728 3.78.324 1.188.378 2.43.378 3.672zm-10.044 40.878l.108-.108h-.162l.054.108zm-10.476.162l-.054-.108c.054 0 .108 0 .162.054-.054 0-.054.054-.108.054zm3.51.756h-.054v-.054l.054.054zm3.996.864c.162-.108.27-.27.108-.432 0 0-.216.054-.27.162-.108.108-.216.216-.27.378.162 0 .324-.054.432-.108zm15.822-11.988c.054-1.782.324-3.456.648-5.184l.486-2.862c.108-.486.216-.918.432-1.35.432-.972.81-1.998.648-3.132-.054-.378.108-.81.162-1.188.702-3.078 1.62-6.156 2.538-9.18.27-.864.54-1.728.756-2.646.324-1.188.864-2.376 1.296-3.564.162-.432.432-.594.918-.648.27 0 .54-.108.81-.162 1.134-.324 2.214-.594 3.186.324.27.27.648.216.972.054.216-.108.432-.162.648-.27 3.618-1.782 7.452-3.024 11.178-4.644 1.404-.594 2.916-.972 4.428-1.458.81-.27 1.62-.54 2.484-.756.432-.162.864-.216 1.35-.27.378 0 .81.54.594.864-.432.54-.27 1.242-.648 1.782-.324.486-.756.864-.972 1.512-.108.432-.594.648-1.08.81a3.398 3.398 0 0 0-1.512 1.08c-.756.972-1.782 1.458-2.862 1.836-1.026.432-1.998.972-2.916 1.458-2.808 1.404-5.508 2.916-8.424 3.996-.324.162-.648.324-.972.378-1.35 0-1.674.864-1.998 1.944-.486 1.782-1.134 3.51-1.674 5.238l-.918 3.186c-.054.324.216.54.54.486l4.158-1.134c1.08-.27 2.16-.324 3.294-.324.432.054.594.27.54.702-.054.378-.216.702-.054 1.026.054.108.054.27 0 .324-.702.54-.918 1.566-1.836 1.944-.54.216-1.026.54-1.134 1.242-.108.324-.432.486-.756.702-1.08.648-2.214 1.188-3.456 1.458-.702.162-1.458.216-2.214 0-.81-.27-.864-.216-1.08.756-.648 2.106-.864 4.266-1.296 6.372-.108.378-.054.702-.054 1.08 0 .27.378.432.648.27.432-.27.864-.54 1.296-.864a46.75 46.75 0 0 1 9.558-5.508c.918-.378 1.836-.756 2.808-.81.702-.054.81.216 1.026.864.324.864-.162 1.62-.216 2.484-.054.594-.594 1.08-1.026 1.512-.594.54-1.242 1.026-1.566 1.836-.108.162-.324.27-.54.432-2.484 1.674-4.968 3.294-7.452 5.022-1.08.756-2.268 1.08-3.456 1.458-.324.108-.594.054-.864.054-1.62-.108-3.024-.81-4.158-1.944-1.458-1.512-2.268-3.402-2.268-5.562v-1.026zm53.352 4.59c-.108.432.162.81-.054 1.296-1.782.324-2.808-.648-3.51-2.16a3.123 3.123 0 0 1-.27-.756c-.648-2.916-1.782-5.724-1.944-8.748 0-.27-.054-.54-.108-.81-.108-.378-.432-.486-.81-.378-.81.162-1.35.702-1.782 1.296-1.134 1.566-2.16 3.132-3.294 4.59-1.35 1.836-2.862 3.564-4.32 5.292-.27.324-.54.648-.702 1.026-.54.81-1.188 1.512-2.268 1.566-.702.486-1.566.432-2.376.594-.972.162-1.782-.108-2.214-1.08-.108-.27-.162-.486-.486-.594-.27-.054-.648-.216-.648-.432-.216-.756-.918-1.134-1.188-1.836-1.188-2.862-1.674-5.778-1.728-8.91-.054-3.294.324-6.48.81-9.666.594-3.996 1.512-7.884 2.97-11.664.648-1.674 1.134-3.402 1.674-5.184 1.62.27 3.186.864 4.698 1.404 2.052.756 3.132 3.132 2.214 5.13-1.08 2.538-1.728 5.238-2.538 7.884-.972 3.24-1.566 6.588-2.16 9.936-.432 2.484-.486 4.968-.432 7.452 0 .324.054.594.108.864.054.432.324.594.702.378.756-.486 1.566-.918 2.322-1.458.378-.27.81-.54 1.08-.918 2.43-2.97 4.644-6.048 6.264-9.558.162-.432.432-.864.54-1.35.702-2.592 1.782-5.076 2.214-7.776.108-.81.378-1.566.702-2.376.216-.54.324-1.026.27-1.62-.162-.918.324-1.566.972-2.16.54-.486 1.134-.432 1.728-.27.432.108.918-.216 1.188.216.432.756 1.188 1.35 1.134 2.376-.162 1.404-.162 2.808-.324 4.158-.054.864-.054 1.674.216 2.484 1.296 3.672 1.296 7.452 1.458 11.286 0 1.188.054 2.376.162 3.51.162 2.376.162 4.698-.27 6.966zm-19.17 2.214h.108-.108zm56.862-37.692c-.648.324-.972.918-.972 1.62.054.918-.378 1.674-.81 2.43-1.08 1.89-2.106 3.834-3.186 5.778-1.08 1.998-1.836 4.104-2.808 6.156-.108.27-.216.54-.162.756.108 1.404-.594 2.484-.918 3.726-.486 1.458-1.242 2.808-1.674 4.266-.648 2.484-1.674 4.806-1.998 7.398a6.136 6.136 0 0 1-.324 1.35c-.216.756-.162 1.404.324 2.052.162.216.27.486.324.756.108.54.054 1.026-.378 1.458-.54.54-1.188.756-1.89.918-.756.216-1.35.162-1.998-.27-.486-.324-1.08-.432-1.62-.648-.972-.324-1.62-.972-2.052-1.944-.81-1.944-1.242-3.996-1.566-6.048a511.38 511.38 0 0 0-1.512-8.91c-.162-.864-.486-1.674-.702-2.538-.054-.108-.216-.216-.324-.216-.054 0-.216.108-.216.216-.378 2.16-.81 4.374-1.08 6.534-.216 2.106-.594 4.158-1.242 6.102-.216.648-.324 1.35-.486 1.998-.054.216-.054.54-.216.756-1.08 1.404-1.512 3.186-2.268 4.806-.432.918-.594 2.052-.972 3.024-.162.324-.432.486-.702.702-.162.108-.378.108-.486-.054-.54-.594-1.134-1.08-1.35-1.89-.324-1.404-.702-2.754-.756-4.212-.108-3.672-.162-7.398.378-11.07.486-3.618.81-7.236 1.188-10.854l.378-2.16c.216-1.188.27-2.376.378-3.618.108-1.782.486-3.564.864-5.346.216-1.026.81-1.674 1.89-1.674 1.08.054 2.16-.27 3.24.054.972.378 1.728.81 2.16 1.836.324.702.702 1.404 1.404 1.89.972.702 1.458 1.89 1.89 2.97 1.296 3.024 2.538 6.048 3.672 9.126.54 1.35.864 2.808.918 4.32.054.648-.054 1.35.648 1.944.972-1.89 2.376-3.348 3.51-5.076.216-.324.378-.702.54-1.08 1.62-4.482 4.212-8.424 6.372-12.636.054-.162.216-.378.324-.486 1.188-1.08 2.052-2.376 2.7-3.888.324-.648.972-.54 1.566-.324zm-7.344 30.888c.054-1.782.324-3.456.648-5.184l.486-2.862c.108-.486.216-.918.432-1.35.432-.972.81-1.998.648-3.132-.054-.378.108-.81.162-1.188.702-3.078 1.62-6.156 2.538-9.18.27-.864.54-1.728.756-2.646.324-1.188.864-2.376 1.296-3.564.162-.432.432-.594.918-.648.27 0 .54-.108.81-.162 1.134-.324 2.214-.594 3.186.324.27.27.648.216.972.054.216-.108.432-.162.648-.27 3.618-1.782 7.452-3.024 11.178-4.644 1.404-.594 2.916-.972 4.428-1.458.81-.27 1.62-.54 2.484-.756.432-.162.864-.216 1.35-.27.378 0 .81.54.594.864-.432.54-.27 1.242-.648 1.782-.324.486-.756.864-.972 1.512-.108.432-.594.648-1.08.81a3.398 3.398 0 0 0-1.512 1.08c-.756.972-1.782 1.458-2.862 1.836-1.026.432-1.998.972-2.916 1.458-2.808 1.404-5.508 2.916-8.424 3.996-.324.162-.648.324-.972.378-1.35 0-1.674.864-1.998 1.944-.486 1.782-1.134 3.51-1.674 5.238l-.918 3.186c-.054.324.216.54.54.486l4.158-1.134c1.08-.27 2.16-.324 3.294-.324.432.054.594.27.54.702-.054.378-.216.702-.054 1.026.054.108.054.27 0 .324-.702.54-.918 1.566-1.836 1.944-.54.216-1.026.54-1.134 1.242-.108.324-.432.486-.756.702-1.08.648-2.214 1.188-3.456 1.458-.702.162-1.458.216-2.214 0-.81-.27-.864-.216-1.08.756-.648 2.106-.864 4.266-1.296 6.372-.108.378-.054.702-.054 1.08 0 .27.378.432.648.27.432-.27.864-.54 1.296-.864a46.75 46.75 0 0 1 9.558-5.508c.918-.378 1.836-.756 2.808-.81.702-.054.81.216 1.026.864.324.864-.162 1.62-.216 2.484-.054.594-.594 1.08-1.026 1.512-.594.54-1.242 1.026-1.566 1.836-.108.162-.324.27-.54.432-2.484 1.674-4.968 3.294-7.452 5.022-1.08.756-2.268 1.08-3.456 1.458-.324.108-.594.054-.864.054-1.62-.108-3.024-.81-4.158-1.944-1.458-1.512-2.268-3.402-2.268-5.562v-1.026z"/>
    </g>
</svg>
