<svg xmlns="http://www.w3.org/2000/svg" x="0px" y="0px"
     viewBox="0 0 417 128">
    <style type="text/css">
        .st0{opacity:0.2;fill:#660779;}
    </style>
    <path class="st0" d="M215.4,27.3h7.8l-9.6,46h-7.9l-9.6-46h7.8l5.7,31.9h0.1L215.4,27.3z"/>
    <path class="st0" d="M228.7,73.3v-46h7.9v46H228.7z"/>
    <path class="st0" d="M245.3,38.4c0-6.5,3.8-11.8,12.1-11.8c8.3,0,12.1,5.3,12.1,11.8v23.7c0,6.5-3.8,11.8-12.1,11.8
	c-8.3,0-12.1-5.3-12.1-11.8V38.4z M253.2,61.9c0,3.4,1,5.1,4.2,5.1s4.2-1.7,4.2-5.1V38.6c0-3.4-1-5.1-4.2-5.1s-4.2,1.7-4.2,5.1V61.9
	z"/>
    <path class="st0" d="M276.7,73.3v-46h7.9v39.1h12.4v6.9H276.7z"/>
    <path class="st0" d="M301.9,73.3v-46H323v6.9h-13.2V46H320v6.9h-10.2v13.5h14.1v6.9H301.9z"/>
    <path class="st0" d="M330.2,73.3v-46h7.3l9.6,26.3h0.1V27.3h7.1v46h-6.9l-10.1-28.7h-0.1v28.7H330.2z"/>
    <path class="st0" d="M362.8,34.2v-6.9h20.9v7.5l-14.5,31.6h14.5v6.9H361v-7.5l14.7-31.6H362.8z"/>
    <path class="st0" d="M394.9,73.3h-7.6l8.5-46h9.8l8.5,46h-7.6l-1.4-10.2h-8.7L394.9,73.3z M397.4,56.2h6.4l-3.1-19.7h-0.1
	L397.4,56.2z"/>
    <path class="st0" d="M200.4,13.3v-0.8c0-0.9-0.4-1.3-0.9-1.3c-0.7,0-1,0.4-1,1.2v5.3c0,0.8,0.2,1.2,1,1.2c0.7,0,0.9-0.4,0.9-1.1
	v-1.3h1.8v1.2c0,1.5-0.9,2.7-2.7,2.7c-1.9,0-2.8-1.2-2.8-2.7v-5.4c0-1.5,0.9-2.7,2.8-2.7c1.8,0,2.7,1.3,2.7,2.9v0.8H200.4z"/>
    <path class="st0" d="M204,12.3c0-1.5,0.9-2.7,2.8-2.7c1.9,0,2.8,1.2,2.8,2.7v5.4c0,1.5-0.9,2.7-2.8,2.7c-1.9,0-2.8-1.2-2.8-2.7V12.3
	z M205.8,17.7c0,0.8,0.2,1.2,1,1.2c0.7,0,1-0.4,1-1.2v-5.3c0-0.8-0.2-1.2-1-1.2c-0.7,0-1,0.4-1,1.2V17.7z"/>
    <path class="st0" d="M211.3,20.3V9.8h1.7l2.2,6h0v-6h1.6v10.5h-1.6l-2.3-6.6h0v6.6H211.3z"/>
    <path class="st0" d="M221.7,20.3V9.8h1.8v8.9h2.8v1.6H221.7z"/>
    <path class="st0"
          d="M228.5,20.3h-1.7l1.9-10.5h2.2l1.9,10.5h-1.7l-0.3-2.3h-2L228.5,20.3z M229.1,16.4h1.5l-0.7-4.5h0L229.1,16.4z"
    />
    <path class="st0" d="M3.4,10.4h16.1c11.6,0,16.8,5.9,16.8,16.7c0,5.4-2.3,11.1-7.5,13.2c5.5,2.4,8.7,6.8,8.7,14.9
	c0,10.4-4.6,18.3-16.9,18.3H3.4V10.4z M14.2,36.3h3.9c4.1,0,7.2-2.8,7.2-8c0-5.9-2.3-8.9-7.1-8.9h-4.1V36.3z M14.2,64.6h4.5
	c5.8,0,7.9-3.3,7.9-9.7c0-6.5-2.4-9.7-8.9-9.7h-3.5V64.6z"/>
    <path class="st0" d="M53.4,73.5H42.9l11.6-63.1h13.5l11.6,63.1H69.1l-1.9-14H55.3L53.4,73.5z M56.9,50.1h8.7L61.3,23h-0.2L56.9,50.1
	z"/>
    <path class="st0" d="M105.6,26c-0.4-5.4-3.3-7-5.8-7c-3.5,0-5.4,2.3-5.4,6.2c0,10.7,22,15.9,22,33c0,10.4-7,16.2-17.1,16.2
	c-10,0-15.8-8-16.2-17.5l10.3-1.5c0.4,6.4,3,9.5,6.5,9.5c3.8,0,6.3-2,6.3-5.8c0-12.5-22-15.8-22-33.9c0-10,6.1-15.7,16.8-15.7
	c8.8,0,14.1,6.4,15,15.3L105.6,26z"/>
    <path class="st0" d="M130.9,19.9h-10.5v-9.4h31.8v9.4h-10.5v53.6h-10.8V19.9z"/>
    <path class="st0" d="M163.3,73.5h-10.5l11.6-63.1h13.5l11.6,63.1H179l-1.9-14h-11.9L163.3,73.5z M166.8,50.1h8.7L171.3,23h-0.2
	L166.8,50.1z"/>
    <path d="M197.1,107.3l-2.2,6.7c-1.1,3.5-2.8,5.9-5,7.3s-4.6,2.1-7.2,2.1c-3.8,0-6.2-1.4-7.2-4.2c-0.5-1-0.7-2.2-0.7-3.8
	c0-1.9,0.4-4.1,1.1-6.6l0.1-0.4c-2.3,5.2-4.8,9-7.4,11.4c-2.6,2.4-5.7,3.6-9.3,3.6c-3.2,0-5.8-1.1-7.9-3.2c-2-2.1-3-5.3-3-9.6
	c0-4.9,1.3-10.3,3.8-16.1c2.6-5.8,6.2-10.8,10.8-14.8c4.6-4.1,9.9-6.1,15.8-6.1c2.9,0,4.7,1,5.6,3.1l4.1-15.6c0.3-1.1,0.4-2,0.4-2.5
	c0-1.2-0.5-2.1-1.4-2.7c-1-0.6-2.5-0.8-4.8-0.8l0.6-1.9c4.2,0,8-0.4,11.4-1s6.8-1.5,10-2.8l-18,65c-0.3,1-0.5,1.9-0.5,2.5
	c0,1.4,0.6,2.1,1.8,2.1c0.9,0,1.8-0.5,2.7-1.6c0.9-1,1.9-2.9,2.8-5.6l1.6-4.4H197.1z M180.2,75.7c-2.6,0-5.3,1.9-8.2,5.6
	c-2.9,3.7-5.3,8.5-7.2,14.2c-1.9,5.8-2.9,11.4-2.9,17c0,2.1,0.2,3.7,0.7,4.8c0.5,1,1.2,1.5,2.3,1.5c1.2,0,2.6-0.9,4.3-2.7
	c1.7-1.8,3.4-4.4,5.2-7.8s3.4-7.5,4.9-12.2l4.6-17.3C183.3,76.7,182,75.7,180.2,75.7z"/>
    <path d="M205.6,92.7c2.3-5.4,5.7-9.9,10.1-13.6c4.5-3.7,9.8-5.5,16.1-5.5c4.8,0,8.4,1.3,11,3.8c2.6,2.6,3.8,6.3,3.8,11.2
	c0,5-1.1,10.3-3.4,15.7c-2.3,5.4-5.7,10-10.2,13.6c-4.5,3.7-9.9,5.5-16.1,5.5c-4.7,0-8.4-1.3-11-3.9c-2.6-2.6-3.8-6.3-3.8-11.2
	C202.2,103.3,203.3,98.1,205.6,92.7z M223.9,81.9c-2.7,4.3-4.9,9.7-6.8,16c-1.8,6.3-2.7,12.2-2.7,17.5c0,2.2,0.3,3.8,0.8,4.8
	s1.3,1.5,2.4,1.5c2.2,0,4.7-2.1,7.3-6.3c2.7-4.2,4.9-9.4,6.7-15.7c1.8-6.2,2.8-12.2,2.8-17.8c0-2.4-0.2-4.1-0.7-5
	c-0.5-0.9-1.2-1.4-2.3-1.4C229,75.3,226.6,77.5,223.9,81.9z"/>
    <path d="M298.3,114c-2.2,6.3-6.3,9.4-12.3,9.4c-3.4,0-5.9-1-7.3-3c-0.8-1.2-1.2-2.6-1.2-4.2c0-1.8,0.5-4.3,1.5-7.3l8.2-24.7
	c0.6-1.8,0.8-3.1,0.8-3.9c0-1.4-0.6-2.1-1.8-2.1c-1.8,0-4,1.8-6.6,5.5c-2.6,3.7-5.2,8.6-7.8,14.6s-4.9,12.4-6.8,19.1l-1.2,4.7h-12.9
	L262,82.6c0.4-1.3,0.5-2.2,0.5-2.9c0-1.1-0.5-1.7-1.6-1.7c-1.1,0-2.1,0.5-3,1.6c-0.9,1.1-1.8,3-2.8,5.6l-1.7,4.6h-1.7l2.5-7
	c1.2-3.3,2.7-5.7,4.7-7.2c2-1.5,4.4-2.2,7.2-2.2c5.2,0,7.9,2.5,7.9,7.5c0,1.5-0.3,3.3-0.8,5.3l-2.9,11.1c2.5-6.2,4.9-11,7.2-14.5
	c2.3-3.5,4.6-5.9,7-7.3c2.3-1.4,5-2.1,7.8-2.1c5.5,0,8.3,2.4,8.3,7.3c0,1.8-0.4,4-1.2,6.5l-9,27c-0.4,1-0.5,1.9-0.5,2.7
	c0,1.3,0.6,1.9,1.7,1.9c1,0,1.9-0.5,2.9-1.5c0.9-1,1.9-2.9,2.9-5.7l1.7-4.4h1.7L298.3,114z"/>
    <path d="M353.6,114c-2.2,6.3-6.3,9.4-12.3,9.4c-3.4,0-5.9-1-7.3-3c-0.8-1.2-1.2-2.6-1.2-4.2c0-1.8,0.5-4.3,1.5-7.3l8.2-24.7
	c0.6-1.8,0.8-3.1,0.8-3.9c0-1.4-0.6-2.1-1.8-2.1c-1.8,0-4,1.8-6.6,5.5c-2.6,3.7-5.2,8.6-7.8,14.6s-4.9,12.4-6.8,19.1l-1.2,4.7h-12.9
	l11.1-39.6c0.4-1.3,0.5-2.2,0.5-2.9c0-1.1-0.5-1.7-1.6-1.7c-1.1,0-2.1,0.5-3,1.6c-0.9,1.1-1.8,3-2.8,5.6l-1.7,4.6h-1.7l2.5-7
	c1.2-3.3,2.7-5.7,4.7-7.2c2-1.5,4.4-2.2,7.2-2.2c5.2,0,7.9,2.5,7.9,7.5c0,1.5-0.3,3.3-0.8,5.3l-2.9,11.1c2.5-6.2,4.9-11,7.2-14.5
	c2.3-3.5,4.6-5.9,7-7.3c2.3-1.4,5-2.1,7.8-2.1c5.5,0,8.3,2.4,8.3,7.3c0,1.8-0.4,4-1.2,6.5l-9,27c-0.4,1-0.5,1.9-0.5,2.7
	c0,1.3,0.6,1.9,1.7,1.9c1,0,1.9-0.5,2.9-1.5c0.9-1,1.9-2.9,2.9-5.7l1.7-4.4h1.7L353.6,114z"/>
    <path d="M390.5,117.2c-2.1,1.9-4.5,3.4-7.2,4.5c-2.7,1.1-5.6,1.7-8.7,1.7c-2.8,0-5.2-0.5-7.4-1.5c-2.2-1-3.9-2.5-5.1-4.4
	c-1.2-2-1.9-4.3-1.9-7c0-5.4,1.5-11,4.4-16.8c2.9-5.8,6.9-10.6,12-14.4c5.1-3.8,10.6-5.7,16.6-5.7c2.8,0,5.1,0.6,6.9,1.9
	c1.8,1.2,2.6,3,2.6,5.3c0,3.5-1.4,6.7-4.2,9.6c-2.8,2.9-6.4,5.4-10.7,7.5s-8.7,3.7-13.4,4.9c-0.4,2.2-0.5,4.3-0.5,6.3
	c0,3.2,0.6,5.5,1.8,6.9c1.2,1.4,3,2,5.3,2c1.9,0,4.1-0.6,6.5-1.8c2.4-1.2,4.7-3.1,6.9-5.7l1.5,0.7
	C394.4,113.3,392.6,115.3,390.5,117.2z M385.1,79c-2.2,2.5-4.3,5.8-6.2,9.7c-1.9,4-3.3,8.1-4.2,12.3c4.3-1.9,7.6-3.9,10.1-6.1
	c2.4-2.2,4.4-4.7,5.8-7.6c1.4-2.8,2.1-5.9,2.1-9.1c0-1.1-0.1-1.9-0.4-2.4c-0.2-0.4-0.6-0.7-1.1-0.7C389.4,75.3,387.4,76.5,385.1,79z
	"/>
    <path fill="#660779" d="M14.8,119.1c-0.7,0.7-1.5,1.3-2.4,1.7c-0.9,0.4-1.8,0.7-2.8,0.7c-1.4,0-2.6-0.4-3.4-1.3s-1.2-2.2-1.2-3.8
	c0-1.9,0.4-3.9,1.3-6.1c0.9-2.2,2.1-4,3.7-5.5c1.6-1.5,3.4-2.2,5.5-2.2c0.7,0,1.3,0.1,1.9,0.4c0.6,0.2,1,0.6,1.4,1
	c0.3,0.5,0.5,1,0.5,1.6c0,0.5-0.1,0.9-0.3,1.3c-0.2,0.4-0.5,0.8-0.9,1.1s-0.8,0.4-1.3,0.4c-0.5,0-0.8-0.1-1.1-0.4
	c-0.2-0.3-0.4-0.6-0.4-1c0-0.7,0.3-1.2,0.8-1.7s1.1-0.8,1.9-0.9c-0.5-0.7-1.3-1.1-2.4-1.1c-1.2,0-2.3,0.6-3.5,1.9s-2.1,2.9-2.8,5
	s-1.1,4.2-1.1,6.5c0,1.1,0.2,2,0.6,2.5c0.4,0.6,1,0.8,1.8,0.8c1.9,0,3.6-1.2,5.2-3.5l0.7,0.3C16.1,117.6,15.5,118.4,14.8,119.1z"/>
    <path fill="#660779" d="M21.3,110.1c0.8-2.1,2-3.9,3.5-5.4c1.5-1.5,3.3-2.2,5.4-2.2c1.5,0,2.7,0.5,3.5,1.4s1.3,2.3,1.3,4.1
	c0,1.8-0.4,3.8-1.2,5.9c-0.8,2.1-2,3.9-3.5,5.4s-3.3,2.2-5.4,2.2c-1.5,0-2.7-0.5-3.5-1.4c-0.9-0.9-1.3-2.3-1.3-4.1
	C20.1,114.2,20.5,112.2,21.3,110.1z M26.6,105.5c-1.1,1.5-1.9,3.4-2.6,5.7c-0.6,2.3-1,4.5-1,6.6c0,2,0.7,3,2,3
	c1.2,0,2.3-0.8,3.4-2.3c1.1-1.5,1.9-3.4,2.5-5.7c0.6-2.3,1-4.5,1-6.6c0-1-0.2-1.8-0.5-2.3s-0.8-0.7-1.5-0.7
	C28.8,103.3,27.7,104,26.6,105.5z"/>
    <path fill="#660779" d="M54.1,117.9c-0.8,2.4-2.2,3.6-4.2,3.6c-1,0-1.8-0.3-2.2-1c-0.2-0.3-0.3-0.7-0.3-1.1c0-0.7,0.2-1.6,0.6-2.7
	l3.3-10c0.2-0.7,0.4-1.3,0.4-1.7c0-0.8-0.4-1.2-1.1-1.2c-0.9,0-1.9,0.7-3,2c-1.1,1.3-2.2,3.1-3.3,5.4c-1.1,2.3-2,4.8-2.8,7.6
	l-0.6,2.4h-3l4.2-15c0.2-0.6,0.3-1,0.3-1.3c0-0.6-0.3-0.9-0.8-0.9c-0.4,0-0.7,0.1-0.9,0.3c-0.3,0.2-0.6,0.6-0.8,1.1
	c-0.3,0.5-0.6,1.2-0.9,2.1l-0.5,1.3h-0.7l0.9-2.5c0.8-2.4,2.2-3.6,4.1-3.6c1.4,0,2.1,0.7,2.1,2.1c0,0.6-0.2,1.6-0.5,2.8l-1.2,4.8
	c1-2.4,2-4.3,2.9-5.7s1.9-2.4,2.8-3.1c0.9-0.6,2-0.9,3.1-0.9c1.9,0,2.8,0.9,2.8,2.6c0,0.7-0.2,1.6-0.5,2.6L50.6,118
	c-0.2,0.5-0.3,1-0.3,1.3c0,0.6,0.3,0.9,0.8,0.9c0.5,0,0.9-0.3,1.4-0.8s0.9-1.5,1.3-2.8l0.5-1.3H55L54.1,117.9z"/>
    <path fill="#660779" d="M60.8,118.8c0,0.5,0.1,0.8,0.4,1c0.3,0.2,0.6,0.3,1.1,0.3c0.6,0,1.1-0.3,1.6-0.8c0.5-0.5,1-1.4,1.5-2.7l0.5-1.4
	h0.7l-0.7,2.2c-0.5,1.4-1.1,2.5-1.9,3.1c-0.8,0.6-1.7,0.9-2.9,0.9c-1,0-1.8-0.3-2.3-0.8c-0.5-0.5-0.8-1.2-0.8-2.1
	c0-0.6,0.1-1.2,0.3-2l3.7-12.9h-3.1L59,103h3.2l1.5-5.3c1.3,0,2.3-0.2,3.1-0.5l-1.7,5.8h4.6l-0.1,0.7H65L61,118
	C60.9,118.3,60.8,118.6,60.8,118.8z"/>
    <path fill="#660779" d="M77.4,106.4c0.8-1.4,1.5-2.3,2.3-2.9c0.8-0.6,1.6-0.9,2.6-0.9c0.6,0,1.1,0.2,1.5,0.6c0.4,0.4,0.6,0.8,0.6,1.4
	c0,0.5-0.1,0.9-0.3,1.3c-0.2,0.4-0.5,0.7-0.9,0.9c-0.4,0.2-0.8,0.3-1.2,0.3c-0.4,0-0.7-0.1-1-0.3s-0.4-0.5-0.4-0.9
	c0-1,0.5-1.8,1.6-2.2c-0.1-0.1-0.2-0.1-0.4-0.1c-0.8,0-1.7,0.6-2.7,1.8s-1.9,2.9-2.8,5.2c-1,2.2-1.9,4.8-2.7,7.7l-0.7,2.9h-3l4.2-15
	c0.2-0.6,0.3-1,0.3-1.4c0-0.5-0.2-0.8-0.7-0.8c-0.5,0-1,0.3-1.4,0.8s-0.9,1.5-1.3,2.7l-0.5,1.3h-0.7l0.9-2.5
	c0.8-2.4,2.2-3.6,4.2-3.6c1.3,0,2,0.7,2,2c0,0.4,0,0.8-0.1,1.2c-0.1,0.4-0.2,1-0.4,1.7l-1.1,4.4C75.9,109.6,76.7,107.8,77.4,106.4z"
    />
    <path fill="#660779" d="M84.6,110.1c0.8-2.1,2-3.9,3.5-5.4c1.5-1.5,3.3-2.2,5.4-2.2c1.5,0,2.7,0.5,3.5,1.4s1.3,2.3,1.3,4.1
	c0,1.8-0.4,3.8-1.2,5.9c-0.8,2.1-2,3.9-3.5,5.4s-3.3,2.2-5.4,2.2c-1.5,0-2.7-0.5-3.5-1.4c-0.9-0.9-1.3-2.3-1.3-4.1
	C83.4,114.2,83.8,112.2,84.6,110.1z M89.9,105.5c-1.1,1.5-1.9,3.4-2.6,5.7c-0.6,2.3-1,4.5-1,6.6c0,2,0.7,3,2,3
	c1.2,0,2.3-0.8,3.4-2.3c1.1-1.5,1.9-3.4,2.5-5.7c0.6-2.3,1-4.5,1-6.6c0-1-0.2-1.8-0.5-2.3s-0.8-0.7-1.5-0.7
	C92.1,103.3,91,104,89.9,105.5z"/>
    <path fill="#660779" d="M111.9,119.3c0,0.6,0.3,0.9,0.8,0.9c0.5,0,0.9-0.3,1.3-0.8c0.4-0.5,0.8-1.5,1.3-2.8l0.5-1.3h0.7l-0.9,2.6
	c-0.8,2.4-2.2,3.6-4.2,3.6c-1.6,0-2.4-0.8-2.4-2.3c0-0.7,0.2-1.5,0.5-2.6l5.7-18.9c0.1-0.4,0.2-0.7,0.2-1c0-0.5-0.2-0.8-0.5-1
	c-0.4-0.2-1-0.3-1.8-0.3l0.2-0.7c1.2,0,2.4-0.1,3.3-0.4c1-0.2,1.9-0.6,2.9-1.1l-7.3,24.8C112,118.6,111.9,119,111.9,119.3z"/>
    <path fill="#660779" d="M128.5,119.1c-0.7,0.7-1.5,1.3-2.4,1.7c-0.9,0.4-1.8,0.7-2.8,0.7c-1.4,0-2.6-0.4-3.4-1.3s-1.2-2.1-1.2-3.7
	c0-1.8,0.5-3.8,1.6-6c1-2.2,2.4-4.1,4.2-5.7s3.7-2.3,5.8-2.3c0.8,0,1.4,0.2,1.9,0.6s0.7,1,0.7,1.7c0,1.9-1.1,3.5-3.2,4.9
	c-2.1,1.4-4.5,2.6-7.3,3.5c-0.3,1.2-0.4,2.3-0.4,3.4c0,2.2,0.8,3.4,2.4,3.4c2,0,3.8-1.2,5.4-3.5l0.6,0.3
	C129.8,117.6,129.2,118.4,128.5,119.1z M126.9,104.5c-0.9,0.9-1.8,2-2.6,3.5s-1.4,3-1.8,4.6c2.3-0.8,3.9-1.6,4.8-2.3
	c0.9-0.7,1.5-1.5,2-2.4c0.5-1,0.7-2,0.7-3.1c0-0.6,0-1-0.1-1.3c-0.1-0.2-0.2-0.3-0.4-0.3C128.6,103.2,127.8,103.7,126.9,104.5z"/>
</svg>
