<svg xmlns="http://www.w3.org/2000/svg" x="0px" y="0px" width="417" height="128"
	 viewBox="0 0 417 128">
<path fill="#FFFFFF" d="M177,58.8l5.8-31.9h7.1l-9,46h-7.9l-9-46h7.1l5.8,31.9H177z"/>
<path fill="#FFFFFF" d="M203.7,72.9h-7.1v-46h7.1V72.9z"/>
<path fill="#FFFFFF" d="M213.2,61.7V38c0-3.4,0.9-6.3,2.8-8.5c1.9-2.2,4.7-3.3,8.6-3.3c3.9,0,6.7,1.1,8.6,3.3c1.9,2.2,2.8,5,2.8,8.5
	v23.7c0,3.4-0.9,6.3-2.8,8.5c-1.9,2.2-4.7,3.3-8.6,3.3c-3.9,0-6.7-1.1-8.6-3.3C214.1,68,213.2,65.2,213.2,61.7z M220.3,38.2v23.3
	c0,1.8,0.3,3.1,1,3.9c0.6,0.8,1.7,1.2,3.3,1.2c1.5,0,2.6-0.4,3.3-1.2c0.6-0.8,1-2.1,1-3.9V38.2c0-1.8-0.3-3.1-1-3.9
	c-0.6-0.8-1.7-1.2-3.3-1.2c-1.5,0-2.6,0.4-3.3,1.2C220.6,35.1,220.3,36.4,220.3,38.2z"/>
<path fill="#FFFFFF" d="M265,72.9h-20.3v-46h7.1V66H265V72.9z"/>
<path fill="#FFFFFF" d="M291.8,72.9h-22v-46h21.1v6.9h-14v11.8h11v6.9h-11V66h14.9V72.9z"/>
<path fill="#FFFFFF" d="M305.2,72.9h-7.1v-46h7.3l9.5,26.3h0.2V26.9h7.1v46h-6.9l-10.1-28.7h-0.1V72.9z"/>
<path fill="#FFFFFF" d="M352.3,42.2h-7.1v-3.6c0-1.8-0.4-3.2-1.1-4.1c-0.7-0.9-1.6-1.4-2.8-1.4c-1.5,0-2.6,0.4-3.3,1.2
	c-0.6,0.8-1,2.1-1,3.9v23.3c0,1.8,0.3,3.1,1,3.9c0.6,0.8,1.7,1.2,3.3,1.2c1.4,0,2.4-0.4,3-1.1c0.6-0.8,0.9-1.9,0.9-3.5v-5.5h7.1v5.3
	c0,3.4-0.9,6.3-2.8,8.5c-1.9,2.2-4.6,3.3-8.1,3.3c-3.7,0-6.5-1.1-8.5-3.3c-1.9-2.2-2.9-5-2.9-8.5V38c0-3.4,1-6.3,2.9-8.5
	c1.9-2.2,4.8-3.3,8.5-3.3c3.5,0,6.3,1.2,8.1,3.6c1.9,2.4,2.8,5.4,2.8,9V42.2z"/>
<path fill="#FFFFFF" d="M383.8,72.9h-22v-46h21.1v6.9h-14v11.8h11v6.9h-11V66h14.9V72.9z"/>
<path fill="#FFFFFF" d="M411.2,37.4l-7.1,0.8c-0.1-1.8-0.6-3.1-1.4-3.9c-0.8-0.8-1.8-1.2-2.8-1.2c-2.7,0-4,1.5-4,4.5
	c0,1.4,0.6,2.8,1.8,4.3c1.2,1.4,2.6,2.8,4.1,4.2c1.5,1.3,3.1,2.7,4.7,4.1c1.6,1.4,2.8,3.1,3.7,5.1c0.9,2,1.3,4.1,1.3,6.4
	c0,3.7-1.1,6.6-3.3,8.7c-2.2,2.1-5.1,3.1-8.8,3.1c-3.4,0-6.1-1.2-8.2-3.7c-2-2.4-3.1-5.5-3.3-9.1l7.1-1.1c0.2,2.3,0.7,4,1.5,5.2
	c0.8,1.2,1.9,1.8,3.2,1.8c1.4,0,2.5-0.4,3.4-1.1c0.8-0.7,1.2-1.8,1.2-3.1c0-1.7-0.5-3.2-1.6-4.8s-2.3-2.9-3.8-4.2l-4.7-3.9
	c-1.6-1.4-2.9-3.1-4-5.2c-1.1-2-1.7-4.3-1.7-6.7c0-3.7,1-6.5,3.1-8.5c2.1-2,5-3,8.8-3c3,0,5.5,1,7.3,3.1
	C409.8,31.3,410.9,34,411.2,37.4z"/>
<path fill="#FFFFFF" d="M166.8,18.3l-0.4,2.3h-1.6l1.8-10.5h2.4l1.8,10.5h-1.6l-0.3-2.3H166.8z M167.9,12.2l-0.8,4.5h1.5L167.9,12.2
	L167.9,12.2z"/>
<path fill="#FFFFFF" d="M172,17.9v-7.9h1.6V18c0,0.8,0.3,1.1,1,1.1s1-0.4,1-1.1v-7.9h1.6v7.9c0,0.9-0.2,1.6-0.7,2.1
	c-0.4,0.5-1.1,0.7-1.9,0.7c-0.8,0-1.5-0.2-1.9-0.7C172.2,19.5,172,18.8,172,17.9z"/>
<path fill="#FFFFFF" d="M178.6,20.6l2.1-5.5l-1.9-5h1.6l1.1,3.4h0l1-3.4h1.6l-1.7,5l1.9,5.5h-1.6l-1.2-3.8l0,0l-1.3,3.9H178.6z"/>
<path fill="#FFFFFF" d="M35.3,24.8L25.5,26c-0.2-2.5-0.8-4.3-1.9-5.4c-1.1-1.1-2.4-1.6-3.9-1.6c-3.6,0-5.5,2.1-5.5,6.2
	c0,1.9,0.8,3.9,2.5,5.8c1.7,2,3.6,3.9,5.7,5.7c2.1,1.9,4.2,3.7,6.4,5.7c2.2,1.9,3.9,4.3,5.1,7c1.2,2.7,1.8,5.7,1.8,8.8
	c0,5.1-1.5,9.1-4.5,11.9c-3,2.8-7.1,4.2-12.1,4.2c-4.7,0-8.4-1.7-11.2-5C5.2,66,3.7,61.8,3.4,56.9l9.8-1.5c0.2,3.1,0.9,5.4,2.1,7.1
	c1.1,1.6,2.6,2.4,4.4,2.4c1.9,0,3.5-0.5,4.6-1.5s1.7-2.4,1.7-4.3c0-2.3-0.7-4.4-2.1-6.5c-1.4-2.1-3.1-4-5.2-5.7l-6.5-5.4
	c-2.2-1.9-4-4.3-5.5-7.1c-1.5-2.8-2.3-5.9-2.3-9.2c0-5,1.4-8.9,4.2-11.6c2.8-2.7,6.8-4.1,12.1-4.1c4.2,0,7.5,1.4,10,4.2
	S34.8,20.2,35.3,24.8z"/>
<path fill="#FFFFFF" d="M51.3,73.5V19.9H39.8v-9.4h32.8v9.4H61.1v53.6H51.3z"/>
<path fill="#FFFFFF" d="M79,58.2V25.7c0-4.7,1.3-8.6,3.8-11.6c2.6-3,6.5-4.5,11.8-4.5c5.3,0,9.2,1.5,11.8,4.5c2.5,3,3.8,6.9,3.8,11.6
	v32.5c0,4.7-1.3,8.6-3.8,11.6c-2.6,3-6.5,4.5-11.8,4.5c-5.3,0-9.2-1.5-11.8-4.5C80.3,66.8,79,62.9,79,58.2z M88.8,26v32
	c0,2.4,0.4,4.2,1.3,5.3c0.9,1.1,2.4,1.7,4.5,1.7c2.1,0,3.6-0.6,4.5-1.7c0.9-1.1,1.3-2.9,1.3-5.3V26c0-2.4-0.4-4.2-1.3-5.3
	c-0.9-1.1-2.4-1.7-4.5-1.7c-2.1,0-3.6,0.6-4.5,1.7C89.2,21.8,88.8,23.5,88.8,26z"/>
<path fill="#FFFFFF" d="M132.4,73.5h-9.8V10.4h14.7c6.4,0,11.1,1.5,14,4.6c2.9,3.1,4.4,7.8,4.4,14.3c0,6.5-1.5,11.2-4.5,14.3
	c-3,3.1-7.8,4.6-14.3,4.6h-4.5V73.5z M132.4,19.9v18.9h4.2c3.6,0,6-0.7,7.3-2c1.3-1.3,2-3.8,2-7.4c0-3.6-0.7-6.1-2-7.4
	c-1.3-1.3-3.8-2-7.3-2H132.4z"/>
<path d="M178.1,58.4c2.8-2.1,6.5-3.2,10.8-3.2c2.3,0,4.3,0.3,6,1c1.7,0.7,3,1.6,3.9,2.8c0.9,1.2,1.3,2.6,1.3,4.3
	c0,1.1-0.3,2.3-1,3.4c-0.7,1.1-1.6,2-2.7,2.7c-1.2,0.7-2.5,1.1-4,1.1c-1.8,0-3.2-0.4-4.2-1.3c-1-0.9-1.5-2.1-1.5-3.6
	c0-1.8,0.6-3.5,1.7-5c1.1-1.5,2.7-2.6,4.7-3.4c-0.7-0.3-1.3-0.5-1.9-0.5c-1.4,0-2.6,0.4-3.5,1.2c-1.4,1.1-2.5,3.5-3.5,7.1l-2.6,9.5
	h7.2l-0.5,1.4h-7.2l-12.8,47.8c-4.7,0.1-9,0.4-13,1l13.1-48.8h-5.6l0.5-1.4h5.6C171.2,66.6,174.2,61.3,178.1,58.4z"/>
<path d="M208,109.4c-3.1,1.8-6.7,2.8-10.7,2.8c-2.3,0-4.4-0.4-6.2-1.2s-3.4-1.9-4.5-3.4c-1.1-1.5-1.7-3.3-1.7-5.5
	c0-4.7,1.2-9.3,3.6-13.8c2.4-4.5,5.7-8.2,9.9-11c4.2-2.9,8.8-4.3,13.8-4.3c2.7,0,4.8,0.5,6.4,1.6c1.6,1.1,2.4,2.6,2.4,4.7
	c0,2.7-1.1,5.2-3.2,7.5c-2.2,2.3-5,4.2-8.4,5.8s-7.1,2.9-10.9,3.7c-0.2,1.3-0.2,2.5-0.2,3.7c0,2.6,0.5,4.4,1.5,5.4
	c1,1,2.5,1.5,4.4,1.5c1.2,0,2.7-0.4,4.6-1.2c1.9-0.8,3.7-2.1,5.4-3.8l1.1,0.6C213.6,105.3,211.1,107.6,208,109.4z M206.2,77.4
	c-1.7,2.1-3.2,4.7-4.5,7.9c-1.4,3.2-2.3,6.5-2.9,9.7c2.5-1.4,4.7-3,6.6-4.9c4.3-4.3,6.5-9,6.5-14.1c0-1.2-0.4-1.8-1.2-1.8
	C209.4,74.4,207.9,75.4,206.2,77.4z"/>
<path d="M281.1,99.5l-1.8,5.2c-1.7,4.9-5.1,7.4-10.2,7.4c-3.2,0-5.4-1-6.6-3c-0.6-1.1-0.9-2.3-0.9-3.8c0-1.6,0.4-3.5,1.1-5.6
	l6.1-18.5c0.3-1,0.5-1.8,0.5-2.3c0-0.6-0.2-0.8-0.6-0.8c-0.9,0-2,0.7-3.3,2.1s-2.7,3.9-4.4,7.3c-1.6,3.4-3.3,7.9-5,13.4l-2.9,10.1
	h-12.8l8.6-29.8c0.4-1.3,0.6-2.1,0.6-2.4c0-0.5-0.2-0.7-0.7-0.7c-1.7,0-3.6,1.9-5.7,5.8c-2.1,3.8-4.3,9.2-6.6,16.1l-2.9,11.1h-12.7
	l8.7-31.1c0.2-0.8,0.3-1.4,0.3-1.8c0-0.8-0.4-1.2-1.1-1.2c-1.4,0-2.6,1.5-3.8,4.5l-1.6,4.4H222l2-5.6c0.9-2.5,2.3-4.4,4.1-5.6
	c1.8-1.2,3.9-1.8,6.2-1.8c2.5,0,4.2,0.6,5.3,1.8c1.1,1.2,1.6,2.8,1.6,4.7c0,1.1-0.2,2.2-0.5,3.5l-0.8,3.1c1.4-3.1,2.8-5.6,4.3-7.6
	c1.5-1.9,3.2-3.3,5-4.2c1.8-0.9,3.8-1.3,6.1-1.3c4.2,0,6.3,1.9,6.3,5.7c0,1.5-0.3,3.2-0.8,5.1l-0.4,1.3c1.4-3.1,2.9-5.5,4.5-7.3
	c1.6-1.8,3.2-3,4.8-3.7c1.7-0.7,3.5-1.1,5.5-1.1c4.3,0,6.4,1.9,6.4,5.6c0,1.5-0.3,3.2-1,5.2l-7.1,21.2c-0.2,0.7-0.3,1.3-0.3,1.7
	c0,0.9,0.4,1.3,1.2,1.3c1.4,0,2.7-1.5,3.8-4.5l1.5-4H281.1z"/>
<path d="M344.6,99.5l-1.8,5.2c-1.7,4.9-5.1,7.4-10.2,7.4c-3.2,0-5.4-1-6.6-3c-0.6-1.1-0.9-2.3-0.9-3.8c0-1.6,0.4-3.5,1.1-5.6
	l6.1-18.5c0.3-1,0.5-1.8,0.5-2.3c0-0.6-0.2-0.8-0.6-0.8c-0.9,0-2,0.7-3.3,2.1s-2.7,3.9-4.4,7.3c-1.6,3.4-3.3,7.9-5,13.4l-2.9,10.1
	h-12.8l8.6-29.8c0.4-1.3,0.6-2.1,0.6-2.4c0-0.5-0.2-0.7-0.7-0.7c-1.7,0-3.6,1.9-5.7,5.8c-2.1,3.8-4.3,9.2-6.6,16.1l-2.9,11.1h-12.7
	l8.7-31.1c0.2-0.8,0.3-1.4,0.3-1.8c0-0.8-0.4-1.2-1.1-1.2c-1.4,0-2.6,1.5-3.8,4.5l-1.6,4.4h-1.4l2-5.6c0.9-2.5,2.3-4.4,4.1-5.6
	c1.8-1.2,3.9-1.8,6.2-1.8c2.5,0,4.2,0.6,5.3,1.8c1.1,1.2,1.6,2.8,1.6,4.7c0,1.1-0.2,2.2-0.5,3.5l-0.8,3.1c1.4-3.1,2.8-5.6,4.3-7.6
	c1.5-1.9,3.2-3.3,5-4.2c1.8-0.9,3.8-1.3,6.1-1.3c4.2,0,6.3,1.9,6.3,5.7c0,1.5-0.3,3.2-0.8,5.1l-0.4,1.3c1.4-3.1,2.9-5.5,4.5-7.3
	c1.6-1.8,3.2-3,4.8-3.7c1.7-0.7,3.5-1.1,5.5-1.1c4.3,0,6.4,1.9,6.4,5.6c0,1.5-0.3,3.2-1,5.2l-7.1,21.2c-0.2,0.7-0.3,1.3-0.3,1.7
	c0,0.9,0.4,1.3,1.2,1.3c1.4,0,2.7-1.5,3.8-4.5l1.5-4H344.6z"/>
<path d="M370.5,109.4c-3.1,1.8-6.7,2.8-10.7,2.8c-2.3,0-4.4-0.4-6.2-1.2s-3.4-1.9-4.5-3.4c-1.1-1.5-1.7-3.3-1.7-5.5
	c0-4.7,1.2-9.3,3.6-13.8c2.4-4.5,5.7-8.2,9.9-11c4.2-2.9,8.8-4.3,13.8-4.3c2.7,0,4.8,0.5,6.4,1.6c1.6,1.1,2.4,2.6,2.4,4.7
	c0,2.7-1.1,5.2-3.2,7.5c-2.2,2.3-5,4.2-8.4,5.8c-3.4,1.6-7.1,2.9-10.9,3.7c-0.2,1.3-0.2,2.5-0.2,3.7c0,2.6,0.5,4.4,1.5,5.4
	c1,1,2.5,1.5,4.4,1.5c1.2,0,2.7-0.4,4.6-1.2c1.9-0.8,3.7-2.1,5.4-3.8l1.1,0.6C376,105.3,373.6,107.6,370.5,109.4z M368.7,77.4
	c-1.7,2.1-3.2,4.7-4.5,7.9c-1.4,3.2-2.3,6.5-2.9,9.7c2.5-1.4,4.7-3,6.6-4.9c4.3-4.3,6.5-9,6.5-14.1c0-1.2-0.4-1.8-1.2-1.8
	C371.8,74.4,370.3,75.4,368.7,77.4z"/>
<path d="M391.6,110.7c1.5,0,2.7-0.5,3.7-1.5c1-1,1.5-2.3,1.5-4c0-1.5-0.4-3.1-1.1-4.8c-0.7-1.7-1.7-3.7-3.1-5.9
	c-1.1-1.8-1.9-3.2-2.4-4.1c-0.5-0.9-0.9-1.9-1.3-3.1s-0.5-2.3-0.5-3.6c0-2.1,0.5-3.9,1.6-5.6c1.1-1.6,2.7-2.9,4.8-3.9
	c2.1-0.9,4.7-1.4,7.8-1.4c3.5,0,6.4,0.6,8.8,1.9c2.3,1.3,3.5,3.4,3.5,6.4c0,1-0.2,2-0.6,3c-0.4,1-1,1.8-1.7,2.4
	c-0.8,0.6-1.7,0.9-2.7,0.9c-1.4,0-2.5-0.6-3.4-1.7c-0.8-1.1-1.2-2.6-1.2-4.3c0-1.4,0.2-2.7,0.7-3.9s1-2.1,1.6-2.8
	c-0.4-0.2-1-0.3-1.8-0.3c-1.7,0-2.9,0.5-3.8,1.5c-0.9,1-1.3,2.4-1.3,4.3c0,1.2,0.3,2.3,0.8,3.5c0.5,1.1,1.1,2.3,1.9,3.5
	s1.3,2.1,1.6,2.7c1.6,2.7,2.7,4.9,3.3,6.6c0.6,1.7,0.9,3.3,0.9,4.9c0,2-0.5,3.8-1.6,5.5c-1.1,1.6-2.7,2.9-4.9,3.9
	c-2.2,1-4.7,1.4-7.8,1.4c-3.8,0-7-0.7-9.5-2.1c-2.5-1.4-3.7-3.8-3.7-7c0-1.8,0.4-3.3,1.3-4.6s2.1-1.8,3.5-1.8c1.4,0,2.5,0.6,3.4,1.7
	c0.8,1.2,1.3,2.7,1.3,4.6c0,0.9-0.1,1.8-0.3,2.7c-0.2,0.9-0.5,1.7-0.8,2.5s-0.6,1.4-0.9,2C389.8,110.5,390.7,110.7,391.6,110.7z"/>
<path fill="#660779" d="M13.3,97.4c0.6-1.2,1.2-2.2,2-2.9c0.5-0.5,1.2-1,2-1.3c0.8-0.3,1.6-0.5,2.4-0.5c1,0,1.8,0.2,2.4,0.7
	c0.6,0.5,0.9,1.1,0.9,1.8c0,0.4-0.1,0.8-0.3,1.2c-0.2,0.4-0.5,0.7-0.8,0.9s-0.8,0.3-1.2,0.3c-0.4,0-0.8-0.1-1-0.3
	c-0.3-0.2-0.4-0.5-0.4-0.9c0-0.6,0.2-1,0.5-1.5s0.8-0.7,1.5-0.9c0-0.2-0.2-0.4-0.5-0.6s-0.7-0.3-1.1-0.3c-0.7,0-1.4,0.3-2,0.9
	c-0.5,0.5-0.9,1.2-1.2,2.2c-0.3,1-0.7,2.1-1,3.2c-0.3,1.2-0.5,2-0.6,2.5l0,0h4.1l-0.2,0.7h-4.1l-6.3,23.3c-1.2,0-2.3,0.2-3.1,0.5
	l6.4-23.8H8.3l0.2-0.7h3.1l0,0C12.2,100.1,12.7,98.6,13.3,97.4z"/>
<path fill="#660779" d="M33.8,114.3l-0.9,2.6c-0.5,1.3-1.1,2.2-1.8,2.8s-1.5,0.8-2.2,0.8c-0.4,0-0.8-0.1-1.2-0.2
	c-0.3-0.2-0.6-0.4-0.8-0.7c-0.2-0.3-0.3-0.8-0.3-1.2c0-0.3,0-0.7,0.1-1.1c0.1-0.4,0.2-0.7,0.3-1.1c0.1-0.3,0.1-0.6,0.2-0.7l0.6-2.5
	c-1.1,2.6-2.3,4.5-3.4,5.7s-2.4,1.8-3.6,1.8c-1.1,0-1.9-0.4-2.4-1.2c-0.6-0.8-0.8-1.8-0.8-3.1c0-1.9,0.5-4,1.5-6.3
	c1-2.3,2.3-4.3,3.9-5.9c1.6-1.6,3.2-2.4,4.9-2.4c0.6,0,1.1,0.2,1.5,0.7s0.6,1.1,0.7,1.9l0.5-2.1c1.3,0,2.4-0.2,3.2-0.5L29.5,117
	c-0.2,0.6-0.3,1-0.3,1.3c0,0.6,0.3,0.9,0.8,0.9c1,0,1.9-1.2,2.7-3.6l0.4-1.3H33.8z M29.6,105.3c0-0.9-0.2-1.7-0.5-2.2
	c-0.3-0.5-0.8-0.8-1.4-0.8c-1,0-2,0.8-3.2,2.3c-1.1,1.5-2.1,3.4-2.8,5.7c-0.8,2.3-1.1,4.4-1.1,6.4c0,1,0.1,1.7,0.3,2.1
	c0.2,0.4,0.5,0.6,0.9,0.6c0.6,0,1.4-0.5,2.3-1.5c0.9-1,1.8-2.3,2.7-4c0.9-1.7,1.6-3.4,2.2-5.3l0.6-2.5
	C29.6,105.7,29.6,105.4,29.6,105.3z"/>
<path fill="#660779" d="M41.3,103.7c0-0.6-0.3-0.9-0.8-0.9c-0.5,0-1,0.3-1.4,0.8c-0.4,0.6-0.9,1.5-1.3,2.7l-0.5,1.3h-0.6l0.9-2.5
	c0.5-1.3,1.1-2.3,1.9-2.8c0.8-0.5,1.6-0.8,2.5-0.8c1.5,0,2.3,0.7,2.3,2.2c0,0.7-0.2,1.6-0.6,2.7L39.8,117c-0.2,0.5-0.3,0.9-0.3,1.3
	c0,0.6,0.3,0.9,0.8,0.9c0.5,0,0.9-0.3,1.3-0.8s0.9-1.5,1.4-2.8l0.5-1.3h0.7l-0.9,2.6c-0.5,1.3-1.1,2.2-1.8,2.7
	c-0.8,0.6-1.6,0.9-2.5,0.9c-1.6,0-2.4-0.7-2.4-2.1c0-0.7,0.2-1.6,0.6-2.8L41,105C41.2,104.5,41.3,104.1,41.3,103.7z M42.4,94.8
	c0.3-0.4,0.6-0.7,1-1s0.8-0.4,1.3-0.4c0.5,0,0.9,0.2,1.3,0.5c0.3,0.3,0.5,0.8,0.5,1.3c0,0.5-0.1,0.9-0.4,1.3s-0.6,0.7-1,1
	s-0.8,0.4-1.3,0.4c-0.5,0-0.9-0.2-1.3-0.5c-0.3-0.3-0.5-0.8-0.5-1.3C42,95.7,42.1,95.2,42.4,94.8z"/>
<path fill="#660779" d="M50.1,117.8c0,0.5,0.1,0.8,0.4,1c0.3,0.2,0.6,0.3,1.1,0.3c0.6,0,1.1-0.3,1.6-0.8s1-1.4,1.5-2.7l0.5-1.4h0.7
	l-0.7,2.2c-0.5,1.4-1.1,2.5-1.9,3.1s-1.7,0.9-2.9,0.9c-1,0-1.8-0.3-2.3-0.8c-0.5-0.5-0.8-1.2-0.8-2.1c0-0.6,0.1-1.2,0.3-2l3.7-12.9
	h-3.1l0.2-0.7h3.2l1.5-5.3c1.3,0,2.3-0.2,3.1-0.5l-1.7,5.8h4.6l-0.1,0.7h-4.7L50.2,117C50.2,117.3,50.1,117.6,50.1,117.8z"/>
<path fill="#660779" d="M68,118.1c-0.7,0.7-1.5,1.3-2.4,1.7c-0.9,0.4-1.8,0.7-2.8,0.7c-1.4,0-2.6-0.4-3.4-1.3s-1.2-2.1-1.2-3.7
	c0-1.8,0.5-3.8,1.6-6s2.4-4.1,4.2-5.7s3.7-2.3,5.8-2.3c0.8,0,1.4,0.2,1.9,0.6c0.5,0.4,0.7,1,0.7,1.7c0,1.9-1.1,3.5-3.2,4.9
	c-2.1,1.4-4.5,2.6-7.3,3.5c-0.3,1.2-0.4,2.3-0.4,3.4c0,2.2,0.8,3.4,2.4,3.4c2,0,3.8-1.2,5.4-3.5l0.6,0.3
	C69.3,116.6,68.7,117.4,68,118.1z M66.4,103.5c-0.9,0.9-1.8,2-2.6,3.5c-0.8,1.5-1.4,3-1.8,4.6c2.3-0.8,3.9-1.6,4.8-2.3
	c0.9-0.7,1.5-1.5,2-2.4c0.5-1,0.7-2,0.7-3.1c0-0.6,0-1-0.1-1.3c-0.1-0.2-0.2-0.3-0.4-0.3C68.2,102.2,67.3,102.7,66.4,103.5z"/>
<path fill="#660779" d="M76.4,119.8c1.1,0,1.9-0.3,2.6-0.9c0.6-0.6,1-1.5,1-2.7c0-0.7-0.1-1.5-0.4-2.2c-0.3-0.7-0.7-1.5-1.4-2.4
	c-0.6-0.8-1-1.3-1.2-1.8c-0.3-0.4-0.5-0.9-0.7-1.5s-0.3-1.2-0.3-1.8c0-1,0.2-1.8,0.7-2.6c0.5-0.8,1.1-1.3,2-1.8
	c0.8-0.4,1.7-0.6,2.7-0.6c1.2,0,2.2,0.2,3,0.7c0.8,0.4,1.2,1.2,1.2,2.4c0,0.3-0.1,0.5-0.2,0.8c-0.1,0.3-0.3,0.5-0.5,0.7
	c-0.2,0.2-0.5,0.3-0.9,0.3c-0.4,0-0.7-0.1-1-0.4s-0.4-0.6-0.4-1.1c0-0.8,0.3-1.5,1-2.3c-0.5-0.3-1.1-0.4-1.8-0.4
	c-0.9,0-1.6,0.3-2.2,0.9c-0.6,0.6-0.9,1.4-0.9,2.4c0,0.6,0.1,1.1,0.3,1.6c0.2,0.4,0.5,0.9,0.9,1.5c0.4,0.6,0.7,1,0.9,1.3
	c0.7,1.1,1.2,2,1.6,2.8c0.3,0.8,0.5,1.6,0.5,2.4c0,1.1-0.3,2-0.8,2.8c-0.5,0.8-1.3,1.5-2.2,2c-0.9,0.5-1.9,0.7-3,0.7
	c-1.3,0-2.5-0.3-3.4-0.9c-0.9-0.6-1.4-1.4-1.4-2.6c0-0.4,0.1-0.8,0.3-1.1c0.2-0.3,0.6-0.5,1-0.5c0.5,0,0.9,0.2,1.2,0.6
	c0.2,0.4,0.4,0.9,0.4,1.6c0,0.4-0.1,1-0.2,1.8C75.3,119.7,75.8,119.8,76.4,119.8z"/>
<path fill="#660779" d="M111.5,114.3l-0.9,2.6c-0.5,1.3-1.1,2.2-1.8,2.8s-1.5,0.8-2.2,0.8c-0.4,0-0.8-0.1-1.2-0.2
	c-0.3-0.2-0.6-0.4-0.8-0.7c-0.2-0.3-0.3-0.8-0.3-1.2c0-0.3,0-0.7,0.1-1.1c0.1-0.4,0.2-0.7,0.3-1.1s0.1-0.6,0.2-0.7l0.6-2.5
	c-1.1,2.6-2.2,4.5-3.4,5.7s-2.4,1.8-3.6,1.8c-1.1,0-1.9-0.4-2.4-1.2s-0.8-1.8-0.8-3.1c0-1.9,0.5-4,1.5-6.3c1-2.3,2.3-4.3,3.9-5.9
	c1.6-1.6,3.2-2.4,4.9-2.4c0.6,0,1.1,0.2,1.5,0.7c0.4,0.5,0.6,1.1,0.7,1.9l0.5-2.1c1.3,0,2.4-0.2,3.2-0.5l-4.4,15.4
	c-0.2,0.6-0.3,1-0.3,1.3c0,0.6,0.3,0.9,0.8,0.9c1,0,1.9-1.2,2.7-3.6l0.4-1.3H111.5z M107.4,105.3c0-0.9-0.2-1.7-0.5-2.2
	c-0.3-0.5-0.8-0.8-1.4-0.8c-1,0-2,0.8-3.2,2.3c-1.1,1.5-2.1,3.4-2.8,5.7c-0.8,2.3-1.1,4.4-1.1,6.4c0,1,0.1,1.7,0.3,2.1
	s0.5,0.6,0.9,0.6c0.6,0,1.4-0.5,2.3-1.5c0.9-1,1.8-2.3,2.7-4c0.9-1.7,1.6-3.4,2.2-5.3l0.6-2.5C107.3,105.7,107.4,105.4,107.4,105.3z
	"/>
<path fill="#660779" d="M131.3,114.3l-0.9,2.6c-0.8,2.4-2.3,3.6-4.2,3.6c-0.4,0-0.7-0.1-1.1-0.2c-0.3-0.2-0.6-0.4-0.7-0.7
	c-0.1-0.3-0.2-0.6-0.2-1.1c0-0.6,0.2-1.6,0.5-2.9l1.1-4.4c-0.9,2.3-1.8,4.1-2.7,5.4c-0.9,1.4-1.7,2.3-2.6,3
	c-0.9,0.6-1.8,0.9-2.8,0.9c-2,0-3-0.9-3-2.7c0-0.7,0.2-1.6,0.5-2.6l3.4-10.2c0.2-0.6,0.3-1,0.3-1.3c0-0.6-0.3-0.9-0.8-0.9
	c-0.5,0-0.9,0.3-1.4,0.8c-0.4,0.5-0.9,1.5-1.3,2.8l-0.5,1.3h-0.7l0.9-2.5c0.8-2.4,2.2-3.6,4.2-3.6c1.6,0,2.5,0.7,2.5,2.2
	c0,0.6-0.2,1.5-0.6,2.7l-3.3,10c-0.2,0.7-0.3,1.3-0.3,1.7c0,0.8,0.4,1.2,1.1,1.2c0.9,0,1.9-0.6,3-1.9s2.2-3.1,3.2-5.4
	c1.1-2.3,2-4.9,2.8-7.9l0.5-2.1c1.3,0,2.4-0.2,3.2-0.5L127,117c-0.2,0.6-0.3,1-0.3,1.4c0,0.5,0.3,0.8,0.8,0.8c0.5,0,1-0.3,1.4-0.8
	c0.4-0.6,0.9-1.5,1.3-2.7l0.5-1.3H131.3z"/>
<path fill="#660779" d="M146.2,103.7c0.7-0.8,1.3-1.3,1.8-1.6s1.1-0.5,1.7-0.5c0.4,0,0.8,0.1,1.1,0.3c0.3,0.2,0.4,0.5,0.4,0.9
	c0,0.5-0.2,0.9-0.5,1.2c-0.3,0.3-0.8,0.5-1.3,0.5c-0.8,0-1.5-0.3-2.2-0.8c-1.4,1.3-2.7,3.4-3.8,6.1l0.8,7.5c0.1,0.6,0.2,1,0.4,1.2
	s0.5,0.4,0.8,0.4c0.4,0,0.8-0.2,1.1-0.7c0.4-0.4,0.8-1.3,1.2-2.5l0.5-1.3h0.7l-0.9,2.6c-0.9,2.4-2.2,3.6-4,3.6
	c-1.7,0-2.7-1.1-2.9-3.2l-0.5-4.5c-0.9,2.1-2.2,3.9-3.7,5.6c-0.7,0.8-1.4,1.3-1.9,1.6c-0.6,0.3-1.1,0.5-1.6,0.5s-0.9-0.1-1.2-0.3
	c-0.3-0.2-0.4-0.5-0.4-1c0-0.4,0.2-0.8,0.5-1.2c0.4-0.3,0.8-0.5,1.3-0.5c0.8,0,1.5,0.3,2.2,0.8c1-0.9,1.8-1.9,2.7-3.2s1.5-2.5,2-3.7
	l-0.8-6.7c-0.1-1.1-0.5-1.6-1.2-1.6c-0.4,0-0.8,0.2-1.1,0.7c-0.4,0.5-0.8,1.3-1.2,2.5l-0.4,1.3h-0.7l0.9-2.5c0.5-1.3,1-2.2,1.7-2.8
	c0.7-0.5,1.4-0.8,2.3-0.8c0.9,0,1.5,0.2,2,0.7c0.5,0.5,0.8,1.3,0.9,2.5l0.4,3.6C144.1,106.6,145,105,146.2,103.7z"/>
</svg>
