<svg xmlns="http://www.w3.org/2000/svg" x="0px" y="0px" width="417" height="128"
     viewBox="0 0 417 128">
    <path fill="#FFFFFF" d="M21.3,31.3c-0.4-4.7-2.9-6-5-6c-3,0-4.7,2-4.7,5.3c0,9.2,18.9,13.7,18.9,28.4c0,8.9-6,13.9-14.7,13.9
	c-8.6,0-13.6-6.9-14-15l8.9-1.3c0.4,5.5,2.6,8.2,5.6,8.2c3.2,0,5.4-1.7,5.4-5c0-10.7-18.9-13.6-18.9-29.2c0-8.6,5.3-13.5,14.4-13.5
	c7.6,0,12.1,5.5,12.9,13.2L21.3,31.3z"/>
    <path fill="#FFFFFF" d="M43.1,26h-9v-8.1h27.4V26h-9v46.1h-9.3V26z"/>
    <path fill="#FFFFFF" d="M66.9,31.1c0-7.7,4.5-13.9,14.3-13.9s14.3,6.2,14.3,13.9v28c0,7.7-4.5,13.9-14.3,13.9S66.9,66.7,66.9,59V31.1z
	 M76.2,58.8c0,4.1,1.2,6,5,6c3.8,0,5-2,5-6V31.3c0-4.1-1.2-6-5-6c-3.8,0-5,2-5,6V58.8z"/>
    <path fill="#FFFFFF" d="M104.5,72.2V17.9h13.4c11.5,0,16.8,4.4,16.8,16c0,11.6-5.3,16-16.8,16h-4.1v22.2H104.5z M113.8,42.3h3.6
	c6.1,0,8-1.9,8-8.3s-1.9-8.3-8-8.3h-3.6V42.3z"/>
    <path fill="#FFFFFF" d="M177.8,17.9h9.2l-11.3,54.3h-9.3l-11.3-54.3h9.2l6.8,37.6h0.2L177.8,17.9z"/>
    <path fill="#FFFFFF" d="M193.4,72.2V17.9h9.3v54.3H193.4z"/>
    <path fill="#FFFFFF" d="M213,31.1c0-7.7,4.5-13.9,14.3-13.9s14.3,6.2,14.3,13.9v28c0,7.7-4.5,13.9-14.3,13.9S213,66.7,213,59V31.1z
	 M222.3,58.8c0,4.1,1.2,6,5,6s5-2,5-6V31.3c0-4.1-1.2-6-5-6s-5,2-5,6V58.8z"/>
    <path fill="#FFFFFF" d="M250.1,72.2V17.9h9.3V64h14.7v8.1H250.1z"/>
    <path fill="#FFFFFF" d="M279.8,72.2V17.9h24.9V26h-15.6v14h12v8.1h-12V64h16.7v8.1H279.8z"/>
    <path fill="#FFFFFF" d="M313.2,72.2V17.9h8.6l11.3,31h0.2v-31h8.4v54.3h-8.1l-11.9-33.9h-0.2v33.9H313.2z"/>
    <path fill="#FFFFFF" d="M369.6,36v-4.2c0-4.6-2.1-6.5-4.5-6.5c-3.8,0-5,2-5,6v27.5c0,4.1,1.2,6,5,6c3.4,0,4.5-2,4.5-5.5v-6.5h9.3V59
	c0,7.7-4.5,13.9-13.8,13.9c-9.8,0-14.3-6.2-14.3-13.9v-28c0-7.7,4.5-13.9,14.3-13.9c9.3,0,13.8,6.8,13.8,14.9v4H369.6z"/>
    <path fill="#FFFFFF" d="M388.3,72.2V17.9h24.9V26h-15.6v14h12v8.1h-12V64h16.7v8.1H388.3z"/>
    <path d="M141.5,92.8c-4,6.9-6,13.2-6,18.8c0,2.4,0.4,4.1,1.1,5.2c0.7,1.1,1.9,1.6,3.6,1.6c2.1,0,4.3-0.8,6.4-2.4
	c-0.7-1.7-1.1-3.8-1.1-6.1c0-3.5,0.8-7,2.4-10.3c1.6-3.3,3.6-6,5.9-8.1s4.5-3.1,6.4-3.1c2.3,0,3.5,2,3.5,6c0,3.3-0.7,6.5-2,9.6
	c-1.3,3.1-3.3,6-5.9,8.7c1.5,2.8,3.8,4.2,6.9,4.2c3,0,5.6-1.2,7.8-3.6s3.7-5.5,4.8-9.1c1.1-3.7,1.6-7.4,1.6-11.1c0-1,0-2-0.1-3
	c-3.4-1.3-6.3-3-8.6-4.9c-2.3-1.9-3.4-4.3-3.4-7.4c0-1.5,0.5-2.7,1.5-3.8c1-1,2.3-1.5,4-1.5c2.8,0,4.8,1.6,6.1,4.8
	c1.3,3.2,2.1,6.9,2.3,11.1c0.1,1.5,0.2,2.7,0.2,3.6c0,4.9-0.8,9.7-2.4,14.4c-1.6,4.7-4,8.5-7.2,11.5c-3.2,3-7.1,4.5-11.6,4.5
	c-4.9,0-8.4-1.7-10.4-5.1c-3.8,3.4-8.3,5.1-13.5,5.1c-2.7,0-4.9-0.5-6.8-1.5c-1.8-1-3.2-2.3-4.1-4s-1.4-3.6-1.4-5.7
	c0-3.6,1.3-7.3,3.9-11c2.6-3.7,6-7.4,10.2-11c4.2-3.6,9.6-7.9,16.4-13c-1.5,0.2-2.9,0.7-4.1,1.4s-2.9,1.9-5.1,3.5
	c-2.2,1.6-4,2.4-5.4,2.4c-0.5,0-1-0.1-1.4-0.2c-0.4-0.1-1-0.4-1.8-0.9c-0.8-0.4-1.5-0.6-2.1-0.6c-0.8,0-1.5,0.3-2,1
	c-0.5,0.7-1,1.8-1.5,3.4l-0.8,2.5h-1.7l2-6.7c1.1-3.5,2.4-5.9,3.9-7.3c1.4-1.4,3.1-2.1,4.9-2.1c1.1,0,2.3,0.3,3.6,0.8
	c1.3,0.6,2.4,1,3.3,1.3c0.9,0.3,2.1,0.5,3.5,0.5c2.6,0,4.9-0.6,7.1-1.9l1-1.7l1.9,0.9C150.7,79.2,145.5,85.9,141.5,92.8z
	 M157.4,92.5c-0.9,1.5-1.7,3.4-2.3,5.7c-0.6,2.4-0.9,4.7-0.9,7.2c0,2,0.3,3.9,0.8,5.5c2-2.3,3.6-4.9,4.8-7.8
	c1.1-2.9,1.7-5.7,1.7-8.5c0-2.9-0.5-4.3-1.6-4.3C159.2,90.3,158.3,91.1,157.4,92.5z"/>
    <path d="M188,91.7c2.3-5.4,5.7-9.9,10.1-13.6c4.5-3.7,9.8-5.5,16.1-5.5c4.8,0,8.4,1.3,11,3.8c2.6,2.6,3.8,6.3,3.8,11.2
	c0,5-1.1,10.3-3.4,15.7c-2.3,5.4-5.7,10-10.2,13.6c-4.5,3.7-9.9,5.5-16.1,5.5c-4.7,0-8.4-1.3-11-3.9c-2.6-2.6-3.8-6.3-3.8-11.2
	C184.6,102.3,185.7,97.1,188,91.7z M206.3,80.9c-2.7,4.3-4.9,9.7-6.8,16c-1.8,6.3-2.7,12.2-2.7,17.5c0,2.2,0.3,3.8,0.8,4.8
	s1.3,1.5,2.4,1.5c2.2,0,4.7-2.1,7.3-6.3c2.7-4.2,4.9-9.4,6.7-15.7c1.8-6.2,2.8-12.2,2.8-17.8c0-2.4-0.2-4.1-0.7-5
	c-0.5-0.9-1.2-1.4-2.3-1.4C211.5,74.4,209,76.5,206.3,80.9z"/>
    <path d="M303.9,113c-2.2,6.3-6.3,9.4-12.4,9.4c-3.5,0-6-1.1-7.3-3.3c-0.7-1.1-1-2.5-1-4.1c0-1.9,0.5-4.3,1.4-7.2l8.2-24.7
	c0.5-1.5,0.7-2.7,0.7-3.7c0-1.2-0.4-1.8-1.3-1.8c-1.6,0-3.5,1.3-5.6,3.9c-2.1,2.6-4.4,6.6-6.8,11.8s-4.8,11.8-7.2,19.5v-0.2
	l-2.4,8.4h-13.1l11.2-38c0.5-1.7,0.8-3,0.8-3.8c0-1.2-0.5-1.7-1.5-1.7c-1.8,0-3.8,1.5-6,4.4c-2.2,2.9-4.4,7-6.7,12.1
	c-2.2,5.2-4.4,11.1-6.3,17.8v-0.2l-2.4,9.4h-12.9l11.2-39.6c0.3-1,0.4-1.9,0.4-2.6c0-1.3-0.6-2-1.7-2c-1.1,0-2.1,0.6-3,1.7
	s-1.8,3-2.8,5.5l-1.7,4.6H234l2.5-7c2.3-6.3,6.4-9.4,12.4-9.4c4.9,0,7.4,2.4,7.4,7.3c0,1.7-0.3,3.5-0.8,5.5l-2.1,8
	c2-5,4.1-9.1,6.1-12.1c2-3,4.2-5.3,6.6-6.6c2.3-1.4,5-2.1,7.9-2.1c4.8,0,7.2,2.4,7.2,7.1c0,1.8-0.4,4-1.1,6.7l-1.7,5.9
	c2.1-4.9,4.2-8.9,6.3-11.7c2.1-2.9,4.3-4.9,6.5-6.1s4.7-1.8,7.4-1.8c5,0,7.5,2.4,7.5,7.2c0,1.9-0.4,4.2-1.3,6.7l-8.9,27
	c-0.4,1.1-0.6,2-0.6,2.7c0,1.2,0.6,1.8,1.7,1.8c2.1,0,4-2.4,5.8-7.2l1.7-4.4h1.7L303.9,113z"/>
    <path d="M340.9,116.2c-2.1,1.9-4.5,3.4-7.2,4.5c-2.7,1.1-5.6,1.7-8.7,1.7c-2.8,0-5.2-0.5-7.4-1.5c-2.2-1-3.9-2.5-5.1-4.4
	c-1.2-2-1.9-4.3-1.9-7c0-5.4,1.5-11,4.4-16.8c2.9-5.8,6.9-10.6,12-14.4c5.1-3.8,10.6-5.7,16.6-5.7c2.8,0,5.1,0.6,6.9,1.9
	c1.8,1.2,2.6,3,2.6,5.3c0,3.5-1.4,6.7-4.2,9.6c-2.8,2.9-6.4,5.4-10.7,7.5s-8.7,3.7-13.4,4.9c-0.4,2.2-0.5,4.3-0.5,6.3
	c0,3.2,0.6,5.5,1.8,6.9c1.2,1.4,3,2,5.3,2c1.9,0,4.1-0.6,6.5-1.8c2.4-1.2,4.7-3.1,6.9-5.7l1.5,0.7
	C344.8,112.3,343,114.4,340.9,116.2z M335.5,78c-2.2,2.5-4.3,5.8-6.2,9.7c-1.9,4-3.3,8.1-4.2,12.3c4.3-1.9,7.6-3.9,10.1-6.1
	c2.4-2.2,4.4-4.7,5.8-7.6c1.4-2.8,2.1-5.9,2.1-9.1c0-1.1-0.1-1.9-0.4-2.4c-0.2-0.4-0.6-0.7-1.1-0.7C339.8,74.3,337.8,75.5,335.5,78z
	"/>
    <path d="M402.1,113c-2.2,6.3-6.3,9.4-12.3,9.4c-3.4,0-5.9-1-7.3-3c-0.8-1.2-1.2-2.6-1.2-4.2c0-1.8,0.5-4.3,1.5-7.3l8.2-24.7
	c0.6-1.8,0.8-3.1,0.8-3.9c0-1.4-0.6-2.1-1.8-2.1c-1.8,0-4,1.8-6.6,5.5s-5.2,8.6-7.8,14.6c-2.6,6.1-4.9,12.4-6.8,19.1l-1.2,4.7h-12.9
	l11.1-39.6c0.4-1.3,0.5-2.2,0.5-2.9c0-1.1-0.5-1.7-1.6-1.7c-1.1,0-2.1,0.5-3,1.6c-0.9,1.1-1.8,3-2.8,5.6l-1.7,4.6h-1.7l2.5-7
	c1.2-3.3,2.7-5.7,4.7-7.2s4.4-2.2,7.2-2.2c5.2,0,7.9,2.5,7.9,7.5c0,1.5-0.3,3.3-0.8,5.3L374,96.5c2.5-6.2,4.9-11,7.2-14.5
	c2.3-3.5,4.6-5.9,7-7.3c2.3-1.4,5-2.1,7.8-2.1c5.5,0,8.3,2.4,8.3,7.3c0,1.8-0.4,4-1.2,6.5l-9,27c-0.4,1-0.5,1.9-0.5,2.7
	c0,1.3,0.6,1.9,1.7,1.9c1,0,1.9-0.5,2.9-1.5c0.9-1,1.9-2.9,2.9-5.7l1.7-4.4h1.7L402.1,113z"/>
    <path fill="#660779" d="M19.1,114.3l-0.9,2.6c-0.5,1.3-1.1,2.2-1.8,2.8c-0.7,0.6-1.5,0.8-2.2,0.8c-0.4,0-0.8-0.1-1.2-0.2
	s-0.6-0.4-0.8-0.7c-0.2-0.3-0.3-0.8-0.3-1.2c0-0.3,0-0.7,0.1-1.1c0.1-0.4,0.2-0.7,0.3-1.1c0.1-0.3,0.1-0.6,0.2-0.7l0.6-2.5
	c-1.1,2.6-2.3,4.5-3.4,5.7c-1.2,1.2-2.4,1.8-3.6,1.8c-1.1,0-1.9-0.4-2.4-1.2c-0.6-0.8-0.8-1.8-0.8-3.1c0-1.9,0.5-4,1.5-6.3
	c1-2.3,2.3-4.3,3.9-5.9c1.6-1.6,3.2-2.4,4.9-2.4c0.6,0,1.1,0.2,1.5,0.7c0.4,0.5,0.6,1.1,0.7,1.9l0.5-2.1c1.3,0,2.4-0.2,3.2-0.5
	L14.8,117c-0.2,0.6-0.3,1-0.3,1.3c0,0.6,0.3,0.9,0.8,0.9c1,0,1.9-1.2,2.7-3.6l0.4-1.3H19.1z M14.9,105.3c0-0.9-0.2-1.7-0.5-2.2
	c-0.3-0.5-0.8-0.8-1.4-0.8c-1,0-2,0.8-3.2,2.3c-1.1,1.5-2.1,3.5-2.8,5.7c-0.8,2.3-1.1,4.4-1.1,6.4c0,1,0.1,1.7,0.3,2.1
	c0.2,0.4,0.5,0.6,0.9,0.6c0.6,0,1.4-0.5,2.3-1.5c0.9-1,1.8-2.3,2.7-4c0.9-1.7,1.6-3.4,2.2-5.3l0.6-2.5
	C14.9,105.7,14.9,105.4,14.9,105.3z"/>
    <path fill="#660779" d="M31.3,118.1c0.6,0.2,1,0.5,1.3,0.9c0.3,0.4,0.5,0.8,0.5,1.4c0,0.9-0.4,1.9-1.2,2.9c-0.8,1-2,1.9-3.5,2.6
	s-3.5,1-5.6,1c-1.8,0-3.1-0.2-4-0.7c-0.9-0.5-1.3-1.1-1.3-1.9c0-1.8,2-3.5,6-5.1c-0.9-0.4-1.3-1-1.3-1.8c0-0.5,0.1-1,0.4-1.4
	c0.3-0.4,0.8-0.9,1.6-1.5s1.9-1.2,3.4-1.9c-1.5,0-2.6-0.4-3.5-1c-0.8-0.6-1.3-1.6-1.3-2.8c0-1,0.3-2,0.8-3.1s1.4-2.1,2.6-2.9
	s2.7-1.2,4.5-1.2c0.7,0,1.3,0.1,1.8,0.2c0.7-1.2,1.5-2.1,2.3-2.6c0.8-0.5,1.5-0.8,2.3-0.8c1,0,1.5,0.4,1.5,1.2c0,0.3-0.1,0.7-0.3,1
	c-0.2,0.3-0.4,0.6-0.7,0.8c-0.3,0.2-0.6,0.3-1,0.3c-0.3,0-0.5-0.1-0.7-0.3c-0.2-0.2-0.3-0.4-0.3-0.8c0-0.5,0.2-0.9,0.5-1.2
	c0,0-0.1-0.1-0.2-0.1c-0.2,0-0.5,0.1-0.9,0.3c-0.6,0.4-1.3,1.2-1.9,2.3c1.7,0.5,2.6,1.7,2.6,3.6c0,1.1-0.3,2.1-0.9,3.1
	c-0.6,1-1.4,1.9-2.5,2.6s-2.3,1.1-3.6,1.3c-0.4,0.2-1,0.5-1.8,1c-0.8,0.4-1.4,0.8-1.8,1.1s-0.6,0.6-0.6,0.9c0,0.4,0.7,0.8,2.1,1.2
	l2.5,0.7C30,117.6,30.7,117.8,31.3,118.1z M20.4,123.7c0,0.8,0.3,1.5,0.9,1.9c0.6,0.4,1.4,0.7,2.4,0.7c1.1,0,2.2-0.2,3.3-0.6
	c1.1-0.4,2-1,2.7-1.7c0.7-0.7,1.1-1.5,1.1-2.3c0-0.3-0.1-0.5-0.3-0.6c-0.2-0.1-0.5-0.2-0.9-0.3s-0.7-0.2-0.8-0.2l-4.7-1.2
	C21.5,120.7,20.4,122.1,20.4,123.7z M30.6,110.7c0.7-0.8,1.2-1.8,1.4-2.9c0.3-1.1,0.4-2.2,0.4-3.4c0-1.5-0.7-2.3-2.1-2.3
	c-1.2,0-2.1,0.5-2.8,1.5c-0.7,1-1.2,2.1-1.5,3.3c-0.3,1.2-0.4,2.1-0.4,2.7c0,0.8,0.2,1.4,0.5,1.7s0.9,0.5,1.6,0.5
	C29,112,30,111.5,30.6,110.7z"/>
    <path fill="#660779" d="M53,114.3l-0.9,2.6c-0.5,1.3-1.1,2.2-1.8,2.8c-0.7,0.6-1.5,0.8-2.2,0.8c-0.4,0-0.8-0.1-1.2-0.2
	s-0.6-0.4-0.8-0.7c-0.2-0.3-0.3-0.8-0.3-1.2c0-0.3,0-0.7,0.1-1.1c0.1-0.4,0.2-0.7,0.3-1.1s0.1-0.6,0.2-0.7l0.6-2.5
	c-1.1,2.6-2.3,4.5-3.4,5.7c-1.2,1.2-2.4,1.8-3.6,1.8c-1.1,0-1.9-0.4-2.4-1.2c-0.6-0.8-0.8-1.8-0.8-3.1c0-1.9,0.5-4,1.5-6.3
	c1-2.3,2.3-4.3,3.9-5.9c1.6-1.6,3.2-2.4,4.9-2.4c0.6,0,1.1,0.2,1.5,0.7c0.4,0.5,0.6,1.1,0.7,1.9l0.5-2.1c1.3,0,2.4-0.2,3.2-0.5
	L48.7,117c-0.2,0.6-0.3,1-0.3,1.3c0,0.6,0.3,0.9,0.8,0.9c1,0,1.9-1.2,2.7-3.6l0.4-1.3H53z M48.9,105.3c0-0.9-0.2-1.7-0.5-2.2
	c-0.3-0.5-0.8-0.8-1.4-0.8c-1,0-2,0.8-3.2,2.3c-1.1,1.5-2.1,3.5-2.8,5.7c-0.8,2.3-1.1,4.4-1.1,6.4c0,1,0.1,1.7,0.3,2.1
	c0.2,0.4,0.5,0.6,0.9,0.6c0.6,0,1.4-0.5,2.3-1.5c0.9-1,1.8-2.3,2.7-4c0.9-1.7,1.6-3.4,2.2-5.3l0.6-2.5
	C48.9,105.7,48.9,105.4,48.9,105.3z"/>
    <path fill="#660779" d="M60.5,103.7c0-0.6-0.2-0.9-0.8-0.9c-0.5,0-1,0.3-1.4,0.8s-0.9,1.5-1.3,2.7l-0.5,1.3h-0.6l0.9-2.5
	c0.5-1.3,1.1-2.3,1.9-2.8c0.8-0.5,1.6-0.8,2.5-0.8c1.5,0,2.3,0.7,2.3,2.2c0,0.7-0.2,1.6-0.6,2.7l-3.7,10.6c-0.2,0.5-0.3,0.9-0.3,1.3
	c0,0.6,0.3,0.9,0.8,0.9c0.5,0,0.9-0.3,1.3-0.8s0.9-1.5,1.4-2.8l0.5-1.3h0.7l-0.9,2.6c-0.5,1.3-1.1,2.2-1.8,2.7
	c-0.8,0.6-1.6,0.9-2.5,0.9c-1.6,0-2.4-0.7-2.4-2.1c0-0.7,0.2-1.6,0.6-2.8l3.8-10.6C60.4,104.5,60.5,104.1,60.5,103.7z M61.7,94.8
	c0.2-0.4,0.6-0.7,1-1s0.8-0.4,1.3-0.4c0.5,0,0.9,0.2,1.3,0.5c0.3,0.3,0.5,0.8,0.5,1.3c0,0.5-0.1,0.9-0.4,1.3c-0.2,0.4-0.6,0.7-1,1
	c-0.4,0.2-0.8,0.4-1.3,0.4c-0.5,0-0.9-0.2-1.3-0.5c-0.3-0.3-0.5-0.8-0.5-1.3C61.3,95.7,61.4,95.3,61.7,94.8z"/>
    <path fill="#660779" d="M82.9,116.9c-0.8,2.4-2.2,3.6-4.2,3.6c-1,0-1.8-0.3-2.2-1c-0.2-0.3-0.3-0.7-0.3-1.1c0-0.7,0.2-1.6,0.6-2.7
	l3.3-10c0.2-0.7,0.4-1.3,0.4-1.7c0-0.8-0.4-1.2-1.1-1.2c-0.9,0-1.9,0.7-3,2c-1.1,1.3-2.2,3.1-3.3,5.4c-1.1,2.3-2,4.8-2.8,7.6
	l-0.6,2.4h-3l4.2-15c0.2-0.6,0.3-1,0.3-1.3c0-0.6-0.3-0.9-0.8-0.9c-0.4,0-0.7,0.1-0.9,0.3c-0.3,0.2-0.6,0.6-0.8,1.1
	c-0.3,0.5-0.6,1.2-0.9,2.1l-0.5,1.3h-0.7l0.9-2.5c0.8-2.4,2.2-3.6,4.1-3.6c1.4,0,2.1,0.7,2.1,2.1c0,0.6-0.2,1.6-0.5,2.8l-1.2,4.8
	c1-2.4,2-4.3,2.9-5.7s1.9-2.4,2.8-3.1c0.9-0.6,2-0.9,3.1-0.9c1.9,0,2.8,0.9,2.8,2.6c0,0.7-0.2,1.6-0.5,2.6l-3.4,10.2
	c-0.2,0.5-0.3,1-0.3,1.3c0,0.6,0.3,0.9,0.8,0.9c0.5,0,0.9-0.3,1.4-0.8s0.9-1.5,1.3-2.8l0.5-1.3h0.6L82.9,116.9z"/>
    <path fill="#660779" d="M89.3,119.8c1.1,0,1.9-0.3,2.6-0.9c0.6-0.6,1-1.5,1-2.7c0-0.7-0.1-1.5-0.4-2.2c-0.3-0.7-0.7-1.5-1.4-2.4
	c-0.6-0.8-1-1.3-1.2-1.8c-0.3-0.4-0.5-0.9-0.7-1.5s-0.3-1.2-0.3-1.8c0-1,0.2-1.8,0.7-2.6c0.5-0.8,1.1-1.3,2-1.7
	c0.8-0.4,1.7-0.6,2.7-0.6c1.2,0,2.2,0.2,3,0.7c0.8,0.5,1.2,1.2,1.2,2.4c0,0.2-0.1,0.5-0.2,0.8c-0.1,0.3-0.3,0.5-0.5,0.7
	c-0.2,0.2-0.5,0.3-0.9,0.3c-0.4,0-0.7-0.1-1-0.4c-0.3-0.3-0.4-0.6-0.4-1.1c0-0.8,0.3-1.5,1-2.3c-0.5-0.3-1.1-0.4-1.8-0.4
	c-0.9,0-1.6,0.3-2.2,0.9c-0.6,0.6-0.9,1.4-0.9,2.4c0,0.6,0.1,1.1,0.3,1.6c0.2,0.4,0.5,0.9,0.9,1.5c0.4,0.6,0.7,1,0.9,1.3
	c0.7,1.1,1.2,2,1.6,2.8s0.5,1.6,0.5,2.4c0,1.1-0.3,2-0.8,2.8c-0.5,0.8-1.3,1.5-2.2,2c-0.9,0.5-1.9,0.7-3,0.7c-1.3,0-2.5-0.3-3.4-0.9
	c-0.9-0.6-1.4-1.4-1.4-2.6c0-0.4,0.1-0.8,0.3-1.1c0.2-0.3,0.6-0.5,1-0.5c0.5,0,0.9,0.2,1.2,0.6c0.2,0.4,0.4,0.9,0.4,1.6
	c0,0.4-0.1,1-0.2,1.8C88.1,119.7,88.6,119.8,89.3,119.8z"/>
    <path fill="#660779" d="M103,117.8c0,0.5,0.1,0.8,0.4,1c0.3,0.2,0.6,0.3,1.1,0.3c0.6,0,1.1-0.3,1.6-0.8c0.5-0.5,1-1.4,1.5-2.7l0.5-1.4
	h0.7l-0.7,2.2c-0.5,1.4-1.1,2.5-1.9,3.1c-0.8,0.6-1.7,0.9-2.9,0.9c-1,0-1.8-0.3-2.3-0.8c-0.5-0.5-0.8-1.2-0.8-2.1
	c0-0.6,0.1-1.2,0.3-2l3.7-12.9H101l0.2-0.7h3.2l1.5-5.3c1.3,0,2.3-0.2,3.1-0.5l-1.7,5.8h4.6l-0.1,0.7h-4.7l-4.1,14.3
	C103,117.3,103,117.6,103,117.8z"/>
</svg>
