<svg xmlns="http://www.w3.org/2000/svg" width="400" height="118" viewBox="0 0 400 118">
    <g fill="none" fill-rule="evenodd">
        <path fill="#FFF" d="M194.202 49.925l5.732-31.906h7.77L198.086 64h-7.897l-9.617-45.981h7.77l5.732 31.906h.127zM221.077 64h-7.897V18.019h7.897V64zm8.725-11.145V29.164c0-6.496 3.821-11.782 12.1-11.782 8.28 0 12.1 5.286 12.1 11.782v23.691c0 6.496-3.82 11.782-12.1 11.782-8.279 0-12.1-5.286-12.1-11.782zm7.897-23.5v23.309c0 3.439 1.02 5.095 4.203 5.095 3.185 0 4.204-1.656 4.204-5.095V29.355c0-3.439-1.02-5.095-4.204-5.095-3.184 0-4.203 1.656-4.203 5.095zM281.58 64h-20.316V18.019h7.897v39.103h12.419V64zm26.875 0h-22.035V18.019h21.143v6.878h-13.246v11.846h10.19v6.878h-10.19v13.501h14.138V64zm13.374 0h-7.133V18.019h7.324l9.617 26.302h.127V18.02h7.133V64h-6.878l-10.063-28.722h-.127V64zm38.402-39.103h-12.928v-6.878h20.89v7.515L353.67 57.122h14.52V64H345.52v-7.515l14.711-31.588zm24.838 2.293l-3.12 19.742h6.368l-3.12-19.742h-.128zM380.8 53.81L379.4 64h-7.643l8.47-45.981h9.808L398.505 64h-7.642l-1.4-10.19H380.8zM183.591 2.586l-.713 4.513h1.456l-.714-4.513h-.029zm-.975 6.085l-.32 2.329h-1.747L182.485.49h2.242L186.663 11h-1.747l-.32-2.33h-1.98zM192.267 11h-4.643V.49h1.805v8.938h2.838V11zm5.663 0h-4.644V.49h1.805v8.938h2.839V11zm3.45-8.414l-.714 4.513h1.456l-.713-4.513h-.03zm-.976 6.085l-.32 2.329h-1.747L200.273.49h2.242L204.451 11h-1.747l-.32-2.33h-1.98zM39.325 16.642l-11.092 1.222c-.47-5.828-3.572-7.52-6.204-7.52-3.76 0-5.828 2.444-5.828 6.674 0 11.562 23.688 17.108 23.688 35.532 0 11.186-7.52 17.39-18.424 17.39-10.81 0-17.014-8.648-17.484-18.8l11.092-1.598c.47 6.862 3.196 10.246 6.956 10.246 4.042 0 6.768-2.162 6.768-6.204 0-13.442-23.688-17.014-23.688-36.472 0-10.81 6.58-16.92 18.048-16.92 9.494 0 15.134 6.862 16.168 16.45zM55.493 69V11.284h-11.28V1.132h34.216v10.152h-11.28V69H55.493zm29.798-16.45V17.582c0-9.588 5.64-17.39 17.86-17.39 12.22 0 17.86 7.802 17.86 17.39V52.55c0 9.588-5.64 17.39-17.86 17.39-12.22 0-17.86-7.802-17.86-17.39zm11.656-34.686v34.404c0 5.076 1.504 7.52 6.204 7.52 4.7 0 6.204-2.444 6.204-7.52V17.864c0-5.076-1.504-7.52-6.204-7.52-4.7 0-6.204 2.444-6.204 7.52zm47-7.144v20.868h4.512c7.614 0 9.964-2.35 9.964-10.434s-2.35-10.434-9.964-10.434h-4.512zm0 58.28h-11.656V1.132h16.732c14.382 0 21.056 5.546 21.056 20.022 0 14.476-6.674 20.022-21.056 20.022h-5.076V69z"/>
        <path fill="#000" d="M179.846 100.628l-2.34 6.885c-2.204 6.456-6.687 9.684-13.45 9.684-3.977 0-6.792-1.193-8.444-3.58-.918-1.346-1.377-3.106-1.377-5.278 0-1.316.153-2.708.459-4.177-1.99 4.467-4.215 7.757-6.679 9.868-2.463 2.111-5.546 3.167-9.248 3.167-2.265 0-4.307-.482-6.128-1.446-1.82-.964-3.274-2.47-4.36-4.52-1.086-2.05-1.63-4.636-1.63-7.758 0-4.957 1.278-10.403 3.833-16.34 2.555-5.936 6.25-10.984 11.085-15.146 4.834-4.161 10.48-6.242 16.936-6.242 3.03 0 4.942.78 5.737 2.34l3.948-14.916c.306-1.132.459-2.004.459-2.616 0-1.255-.49-2.165-1.47-2.731-.978-.566-2.615-.85-4.91-.85l.642-1.973c9.425-.092 17.916-1.377 25.474-3.856l-18.405 66.737c-.306.887-.46 1.621-.46 2.203 0 1.163.536 1.744 1.607 1.744 1.836 0 3.488-1.974 4.957-5.92l1.974-5.28h1.79zm-16.202-30.385c-.245-.796-.582-1.377-1.01-1.744-.428-.367-1.086-.55-1.974-.55-1.927 0-4.207 1.858-6.839 5.576-2.631 3.718-4.888 8.514-6.77 14.389a58.928 58.928 0 0 0-2.822 18.084c0 1.897.16 3.266.482 4.108.32.841.91 1.262 1.767 1.262.887 0 1.958-.68 3.213-2.042 1.254-1.362 2.608-3.542 4.062-6.541 1.453-2.999 2.884-6.778 4.291-11.337l2.846-10.74.046-.184v.046l2.708-10.327zm20.333 30.981c0-5.324 1.224-10.724 3.672-16.202 2.448-5.477 6.135-10.06 11.061-13.746 4.927-3.687 10.924-5.531 17.992-5.531 5.447 0 9.6 1.377 12.462 4.13 2.86 2.755 4.291 6.717 4.291 11.889 0 5.293-1.224 10.679-3.672 16.156-2.448 5.477-6.142 10.06-11.084 13.746-4.942 3.688-10.932 5.531-17.97 5.531-5.446 0-9.6-1.377-12.46-4.13-2.862-2.755-4.292-6.702-4.292-11.843zm32.266-33.597c-1.774 0-4 2.356-6.678 7.068-2.677 4.712-5.01 10.404-7 17.074-1.988 6.671-2.983 12.76-2.983 18.268 0 1.928.146 3.29.436 4.085.29.795.742 1.193 1.354 1.193 1.683 0 3.856-2.264 6.518-6.793 2.662-4.528 4.987-10.09 6.976-16.684 1.99-6.594 2.984-12.844 2.984-18.75 0-2.172-.146-3.625-.436-4.36-.29-.734-.681-1.101-1.17-1.101zm73.897 33l-2.341 6.886c-2.264 6.456-6.747 9.684-13.448 9.684-4.04 0-6.87-1.132-8.491-3.396-1.04-1.408-1.561-3.167-1.561-5.279 0-1.989.49-4.498 1.469-7.527l8.078-24.326c.55-1.591.826-2.815.826-3.672 0-.949-.337-1.423-1.01-1.423-1.621 0-3.725 2.196-6.31 6.586-2.586 4.391-5.203 10.006-7.85 16.845a191.8 191.8 0 0 0-6.678 20.586l.046-.184-.137.46H236.07l11.475-40.805c.367-1.377.55-2.28.55-2.708 0-.826-.458-1.239-1.376-1.239-.98 0-1.882.444-2.708 1.331-.826.888-1.652 2.417-2.479 4.59l-2.157 5.737h-1.79l2.616-7.343c1.163-3.305 2.8-5.745 4.911-7.321 2.112-1.576 4.774-2.364 7.987-2.364 3.519 0 6.05.826 7.596 2.478 1.545 1.653 2.318 3.78 2.318 6.38 0 1.347-.199 2.785-.597 4.315l-2.57 9.776c2.448-6.12 4.796-10.84 7.045-14.16 2.25-3.32 4.521-5.614 6.816-6.884 2.295-1.27 4.911-1.905 7.849-1.905 6.15 0 9.225 2.6 9.225 7.803 0 1.805-.413 3.947-1.239 6.425l-9.271 27.907c-.306.918-.46 1.667-.46 2.249 0 1.132.52 1.698 1.561 1.698 1.867 0 3.534-1.974 5.003-5.92l1.974-5.28h1.79zm58.2 0l-2.342 6.886c-2.264 6.456-6.747 9.684-13.448 9.684-4.04 0-6.87-1.132-8.491-3.396-1.04-1.408-1.56-3.167-1.56-5.279 0-1.989.489-4.498 1.468-7.527l8.078-24.326c.55-1.591.826-2.815.826-3.672 0-.949-.336-1.423-1.01-1.423-1.621 0-3.725 2.196-6.31 6.586-2.586 4.391-5.202 10.006-7.85 16.845a191.8 191.8 0 0 0-6.677 20.586l.046-.184-.138.46H294.27l11.474-40.805c.367-1.377.551-2.28.551-2.708 0-.826-.459-1.239-1.377-1.239-.979 0-1.882.444-2.708 1.331-.826.888-1.652 2.417-2.478 4.59l-2.158 5.737h-1.79l2.617-7.343c1.162-3.305 2.8-5.745 4.91-7.321 2.112-1.576 4.774-2.364 7.987-2.364 3.519 0 6.05.826 7.596 2.478 1.545 1.653 2.318 3.78 2.318 6.38 0 1.347-.199 2.785-.597 4.315l-2.57 9.776c2.448-6.12 4.796-10.84 7.045-14.16 2.25-3.32 4.521-5.614 6.816-6.884 2.295-1.27 4.912-1.905 7.849-1.905 6.15 0 9.226 2.6 9.226 7.803 0 1.805-.413 3.947-1.24 6.425l-9.271 27.907c-.306.918-.46 1.667-.46 2.249 0 1.132.521 1.698 1.561 1.698 1.867 0 3.535-1.974 5.003-5.92l1.974-5.28h1.79zm43.603 3.948c-2.387 3.58-5.615 6.579-9.685 8.996-4.07 2.417-8.767 3.626-14.09 3.626-3 0-5.73-.512-8.194-1.537-2.463-1.026-4.421-2.533-5.875-4.521-1.453-1.99-2.18-4.391-2.18-7.207 0-6.15 1.584-12.178 4.75-18.084 3.168-5.905 7.497-10.732 12.99-14.48 5.492-3.749 11.543-5.623 18.153-5.623 3.519 0 6.341.704 8.468 2.111 2.127 1.408 3.19 3.473 3.19 6.197 0 3.58-1.423 6.869-4.269 9.868-2.845 2.998-6.517 5.553-11.015 7.665-4.498 2.111-9.287 3.748-14.366 4.91a38.218 38.218 0 0 0-.322 4.82c0 3.427.658 5.799 1.974 7.115 1.316 1.315 3.259 1.973 5.829 1.973 1.56 0 3.572-.535 6.036-1.606 2.463-1.071 4.842-2.724 7.137-4.957l1.469.734zm-6.197-37.04c-1.744 0-3.702 1.354-5.875 4.062-2.172 2.708-4.161 6.181-5.967 10.419-1.805 4.238-3.075 8.499-3.81 12.783 3.244-1.806 6.12-3.932 8.63-6.38 5.691-5.63 8.537-11.796 8.537-18.497 0-1.591-.505-2.387-1.515-2.387z"/>
        <path fill="#660779" d="M5.609 101.386c.791.395 1.77.593 2.937.593 1.938 0 3.5-.578 4.688-1.734 1.187-1.156 1.78-2.776 1.78-4.86 0-1.354-.254-2.687-.765-4-.51-1.312-1.37-2.802-2.578-4.468-1.02-1.396-1.776-2.469-2.266-3.219s-.927-1.646-1.312-2.687c-.385-1.042-.578-2.167-.578-3.375 0-1.771.443-3.344 1.328-4.72.885-1.374 2.088-2.442 3.61-3.202 1.52-.76 3.187-1.14 5-1.14 2.208 0 4.062.41 5.562 1.233 1.5.823 2.25 2.266 2.25 4.329 0 .458-.104.942-.313 1.453-.208.51-.536.948-.984 1.312-.448.365-1.005.547-1.672.547-.73 0-1.338-.25-1.828-.75s-.734-1.146-.734-1.937c0-1.375.604-2.803 1.812-4.282-.854-.5-1.927-.75-3.219-.75-1.625 0-2.958.542-4 1.625-1.041 1.084-1.562 2.563-1.562 4.438 0 1.125.187 2.088.562 2.89.375.803.917 1.709 1.625 2.72a202.63 202.63 0 0 1 1.657 2.39c1.27 1.979 2.218 3.666 2.843 5.062.625 1.396.938 2.844.938 4.344 0 1.938-.5 3.672-1.5 5.203-1 1.531-2.339 2.724-4.016 3.578-1.677.854-3.505 1.282-5.484 1.282-2.459 0-4.516-.521-6.172-1.563-1.656-1.042-2.484-2.635-2.484-4.781 0-.75.203-1.417.609-2 .406-.584 1.036-.875 1.89-.875.959 0 1.667.385 2.126 1.156.458.77.687 1.73.687 2.875 0 .75-.146 1.854-.437 3.313zm53.718-9.407l-1.593 4.688c-1.542 4.396-4.125 6.594-7.75 6.594-.709 0-1.36-.151-1.954-.454a2.964 2.964 0 0 1-1.328-1.296c-.25-.521-.375-1.178-.375-1.97 0-1.124.302-2.874.907-5.25l2.03-8.03c-1.708 4.125-3.359 7.432-4.952 9.921-1.594 2.49-3.198 4.292-4.813 5.407-1.614 1.114-3.349 1.672-5.203 1.672-3.604 0-5.406-1.646-5.406-4.938 0-1.333.312-2.917.937-4.75l6.188-18.687c.333-1.042.5-1.844.5-2.407 0-1.041-.5-1.562-1.5-1.562-.875 0-1.708.484-2.5 1.453-.792.969-1.604 2.661-2.438 5.078l-.843 2.375h-1.22l1.626-4.656c1.5-4.396 4.073-6.594 7.719-6.594 3 0 4.5 1.323 4.5 3.969 0 1.166-.344 2.823-1.032 4.969l-6.093 18.312c-.417 1.25-.625 2.313-.625 3.188 0 1.458.677 2.187 2.03 2.187 1.626 0 3.433-1.187 5.423-3.562 1.99-2.375 3.948-5.688 5.875-9.938 1.927-4.25 3.62-9.062 5.078-14.437l.969-3.813c2.437-.062 4.385-.354 5.843-.875L51.39 96.917c-.313 1.083-.469 1.916-.469 2.5 0 .979.458 1.469 1.375 1.469.938 0 1.797-.506 2.578-1.516.781-1.01 1.578-2.682 2.39-5.016l.845-2.375h1.218zm9.657 4.938c-.271.937-.407 1.687-.407 2.25 0 1.146.5 1.719 1.5 1.719.855 0 1.657-.495 2.407-1.485.75-.99 1.541-2.672 2.375-5.047l.843-2.375h1.22l-1.595 4.688c-1.541 4.396-4.104 6.594-7.687 6.594-2.938 0-4.406-1.386-4.406-4.157 0-1.229.291-2.833.875-4.812l10.437-34.625c.208-.771.313-1.365.313-1.781 0-.855-.334-1.474-1-1.86-.667-.385-1.782-.578-3.344-.578l.437-1.344c2.271-.02 4.308-.25 6.11-.687a25.543 25.543 0 0 0 5.297-1.938L68.984 96.917zm17.718 0c-.27.937-.406 1.687-.406 2.25 0 1.146.5 1.719 1.5 1.719.854 0 1.656-.495 2.406-1.485.75-.99 1.542-2.672 2.375-5.047l.844-2.375h1.219l-1.594 4.688c-1.542 4.396-4.104 6.594-7.687 6.594-2.938 0-4.407-1.386-4.407-4.157 0-1.229.292-2.833.875-4.812l10.438-34.625c.208-.771.312-1.365.312-1.781 0-.855-.333-1.474-1-1.86-.666-.385-1.78-.578-3.343-.578l.437-1.344c2.27-.02 4.307-.25 6.11-.687a25.543 25.543 0 0 0 5.296-1.938L86.702 96.917zm33.282-2.25c-.875 1.5-1.98 2.9-3.313 4.203a17.266 17.266 0 0 1-4.484 3.172c-1.657.812-3.35 1.219-5.078 1.219-2.646 0-4.714-.776-6.204-2.329-1.49-1.552-2.234-3.786-2.234-6.703 0-3.229.948-6.88 2.844-10.953 1.896-4.073 4.463-7.541 7.703-10.406s6.755-4.297 10.547-4.297c1.375 0 2.51.365 3.406 1.094.896.729 1.344 1.77 1.344 3.125 0 3.458-1.927 6.469-5.781 9.031-3.855 2.563-8.302 4.698-13.344 6.406-.48 2.125-.719 4.188-.719 6.188 0 4.104 1.469 6.156 4.406 6.156 3.646 0 6.938-2.135 9.875-6.406l1.032.5zm-1.625-24.875c-1.375 0-2.907.797-4.594 2.39-1.688 1.594-3.266 3.72-4.735 6.375a36.063 36.063 0 0 0-3.359 8.454c4.208-1.48 7.115-2.855 8.719-4.125a12.868 12.868 0 0 0 3.687-4.485c.875-1.76 1.313-3.672 1.313-5.734 0-1.146-.084-1.912-.25-2.297-.167-.385-.427-.578-.781-.578z"/>
    </g>
</svg>
