<svg xmlns="http://www.w3.org/2000/svg" width="108" height="41" viewBox="0 0 108 41">
    <g fill="none" fill-rule="evenodd">
        <path stroke="#FFF" stroke-width=".5" d="M87.814 40.543h-67.59C9.264 40.368.474 31.6.474 20.847c0-10.755 8.79-19.522 19.75-19.696h67.59c10.958.174 19.749 8.941 19.749 19.696 0 10.754-8.79 19.521-19.75 19.696z"/>
        <path fill="#FFF" fill-rule="nonzero" d="M76.924 18.45c-.35 0-.53.28-.572.618-.043.337-.254 1.677-.297 2.005-.026.202-.042.405-.238.52-.196.113-.434-.048-.635-.219-.201-.171-3.214-2.68-3.214-2.68a.92.92 0 0 0-.598-.219.876.876 0 0 0-.669.277.842.842 0 0 0-.22.68v4.16c0 .287.237.52.529.52.292 0 .53-.233.53-.52l.37-2.218c.048-.26.09-.462.344-.52.254-.057.45.063.773.343s3.028 2.676 3.028 2.676c.174.165.41.252.651.239.265 0 .752-.11.752-.904v-4.156a.513.513 0 0 0-.121-.422.534.534 0 0 0-.408-.18M96.295 22.917c-2.361.52-5.061-.036-5.061-1.673 0-1.241 1.17-1.745 2.117-1.813.948-.067 1.726.12 2.118.52.243.244.18.581-.302.613-.482.03-1.26.046-1.948.072-.387 0-.598.219-.598.52 0 .301.169.467.614.473h3.086c.53 0 .8-.297.8-.9 0-.955-.885-2.404-3.468-2.404-2.34 0-4.034 1.143-4.034 3.013 0 2.654 3.976 3.465 6.882 2.478.275-.094.53-.291.445-.593-.085-.3-.297-.368-.63-.296M68.919 22.917c-2.356.52-5.056-.036-5.056-1.673 0-1.241 1.17-1.745 2.118-1.813.947-.067 1.72.12 2.117.52.244.244.175.581-.302.613-.476.03-1.265.046-1.948.072-.392 0-.598.219-.598.52 0 .301.164.467.614.473h3.081c.53 0 .8-.297.8-.9 0-.955-.884-2.404-3.468-2.404-2.34 0-4.034 1.143-4.034 3.013 0 2.654 3.976 3.465 6.882 2.478.276-.094.53-.291.445-.593-.085-.3-.291-.368-.63-.296M87.194 20.366c.053 1.444.19 2.644.233 3.065.048.52.334.696.62.696.285 0 .571-.14.619-.69.042-.468.185-1.897.249-3.31a.082.082 0 0 0-.024-.079.086.086 0 0 0-.082-.02l-1.535.245a.094.094 0 0 0-.08.093M88.052 18.314a.856.856 0 0 0-.65.239.823.823 0 0 0-.25.634v.447a.1.1 0 0 0 .106.088l1.588-.26a.094.094 0 0 0 .08-.083v-.187a.833.833 0 0 0-.256-.638.867.867 0 0 0-.655-.24M85.696 20.62H82.46c-.53 0-.64.27-.64.52s.137.447.614.468c.725.041 1.651.083 2.08.104.577 0 .583.317.387.566-.392.52-1.34.826-2.324.826-1.292 0-2.71-.717-2.71-1.86 0-1.143 1.217-2.25 4.822-1.75.318.041.63 0 .704-.302.074-.301-.116-.52-.53-.608a8.98 8.98 0 0 0-2.27-.26c-2.43 0-4.373 1.138-4.373 2.972 0 1.964 1.937 2.925 4.357 2.925 2.7 0 4.013-1.444 4.013-2.702a.765.765 0 0 0-.218-.666.798.798 0 0 0-.677-.222M39.918 9.971H25.92a.934.934 0 0 1-.942-.924c0-.51.422-.925.942-.925h13.998c.52 0 .942.414.942.925 0 .51-.422.924-.942.924M39.918 33.571H25.92a.948.948 0 0 1-.875-.44.91.91 0 0 1 0-.964.948.948 0 0 1 .875-.44h13.998a.948.948 0 0 1 .874.44.91.91 0 0 1 0 .965.948.948 0 0 1-.874.44M11.6 18.48v1.767h2.694l-.01 1.117h-2.685v2.846h-1.297v-6.909h4.495l.032 1.18zM20.33 21.457c.005.44-.045.877-.149 1.304a2.202 2.202 0 0 1-.45.894 1.818 1.818 0 0 1-.778.519 3.642 3.642 0 0 1-1.133.161 3.702 3.702 0 0 1-1.138-.161 1.802 1.802 0 0 1-.784-.52 2.151 2.151 0 0 1-.46-.893 5.702 5.702 0 0 1 0-2.629c.08-.33.238-.638.46-.898.21-.239.48-.418.784-.52.367-.12.752-.175 1.138-.166a3.35 3.35 0 0 1 1.133.166c.301.103.57.282.778.52.222.271.376.59.45.93.105.43.155.871.148 1.314m-3.806 0c-.004.303.02.605.074.904.032.208.108.408.222.587a.872.872 0 0 0 .424.312c.192.066.395.097.598.093.195.003.389-.03.572-.093a.844.844 0 0 0 .392-.312c.112-.18.188-.38.222-.587.051-.299.074-.601.069-.904a4.87 4.87 0 0 0-.069-.91 1.589 1.589 0 0 0-.196-.607.844.844 0 0 0-.392-.312 1.946 1.946 0 0 0-1.196-.005.871.871 0 0 0-.402.312c-.115.178-.19.378-.223.587-.053.3-.078.604-.074.909M24.798 24.21v-3.584a.94.94 0 0 0-.28-.758 1.208 1.208 0 0 0-.8-.224c-.219 0-.435.044-.636.13a1.125 1.125 0 0 0-.492.374v4.073h-1.191v-5.527l.852-.089.19.52c.212-.195.46-.347.731-.447.28-.1.576-.151.874-.15a1.91 1.91 0 0 1 1.419.519c.38.42.57.972.53 1.532v3.595l-1.197.036zM30.88 24.21l-.132-.52h-.032a1.68 1.68 0 0 1-.645.479c-.294.117-.61.173-.927.166a1.911 1.911 0 0 1-1.646-.706 3.68 3.68 0 0 1-.53-2.193 3.624 3.624 0 0 1 .53-2.124c.38-.504.998-.781 1.636-.733.276-.001.55.046.81.14.25.097.478.24.672.421v-2.145l1.191-.063v7.273l-.926.005zm-.264-4.046a1.123 1.123 0 0 0-.45-.37 1.576 1.576 0 0 0-.688-.14c-.2-.003-.4.03-.588.1-.162.06-.3.17-.397.31a1.54 1.54 0 0 0-.217.562 4.84 4.84 0 0 0-.064.852c-.004.297.017.594.064.888.024.205.095.402.206.577a.8.8 0 0 0 .387.322c.193.067.398.099.603.093.265.016.528-.045.757-.176.157-.094.289-.222.387-.374v-2.644zM36.302 23.618a1.838 1.838 0 0 1-.678.52 2.2 2.2 0 0 1-.91.181 1.789 1.789 0 0 1-1.271-.441 1.772 1.772 0 0 1-.477-1.366 1.59 1.59 0 0 1 .53-1.247c.426-.34.967-.506 1.514-.468.211-.001.422.016.63.052.18.028.356.07.53.125v-.416a.925.925 0 0 0-.27-.748c-.271-.169-.591-.246-.911-.218a4.233 4.233 0 0 0-.815.073 4.47 4.47 0 0 0-.752.239l-.106-.966a4.71 4.71 0 0 1 1.89-.359c.338-.008.676.036 1 .13.252.074.481.208.668.39.176.19.303.42.37.67.08.316.117.64.111.966v3.491h-.937l-.116-.608zm-.17-1.85a1.928 1.928 0 0 0-.35-.103 2.89 2.89 0 0 0-.603-.052 1.343 1.343 0 0 0-.852.218.787.787 0 0 0-.265.644c-.03.256.067.51.26.686.201.137.443.205.688.192.144.001.286-.02.424-.062.126-.042.247-.1.36-.172.095-.067.18-.15.248-.244a.553.553 0 0 0 .09-.296v-.81zM40.076 19.566v3.086a.643.643 0 0 0 .196.52.82.82 0 0 0 .53.16h.249a1.49 1.49 0 0 0 .211-.046l.08.872c-.122.052-.25.089-.381.11a3.128 3.128 0 0 1-.53.041 1.547 1.547 0 0 1-1.191-.426 1.683 1.683 0 0 1-.397-1.2v-3.117h-.662v-.904h.768l.217-1.298.937-.089v1.387h1.323v.904h-1.35zM43.862 17.384c0 .364-.238.52-.715.52a.946.946 0 0 1-.53-.12.469.469 0 0 1-.18-.42c0-.374.239-.561.715-.561.477 0 .715.187.715.56l-.005.021zm-1.318 6.806v-5.491l1.212-.063v5.574l-1.212-.02zM50.066 21.457c.004.44-.047.877-.153 1.304a2.269 2.269 0 0 1-.45.894 1.818 1.818 0 0 1-.778.519 3.642 3.642 0 0 1-1.133.161 3.702 3.702 0 0 1-1.138-.161 1.818 1.818 0 0 1-.79-.52 2.213 2.213 0 0 1-.46-.893 5.9 5.9 0 0 1 0-2.629c.083-.33.24-.637.46-.898.212-.239.484-.418.79-.52.366-.12.751-.175 1.138-.166a3.35 3.35 0 0 1 1.133.166c.301.103.57.282.778.52.22.273.373.59.45.93.104.423.156.857.153 1.293m-3.8 0c-.004.303.02.605.068.904.034.21.111.409.228.587.1.141.24.25.402.312.192.066.395.098.598.093.197.01.395-.014.583-.072a.844.844 0 0 0 .391-.312c.113-.18.189-.38.223-.587.051-.299.074-.601.069-.904a4.87 4.87 0 0 0-.07-.91 1.592 1.592 0 0 0-.222-.586.844.844 0 0 0-.391-.312 1.664 1.664 0 0 0-.593-.093 1.707 1.707 0 0 0-.604.093.887.887 0 0 0-.397.312 1.505 1.505 0 0 0-.227.587c-.05.3-.072.605-.07.909M54.524 24.21v-3.584a.94.94 0 0 0-.275-.758 1.213 1.213 0 0 0-.805-.234c-.217 0-.431.045-.63.13a1.125 1.125 0 0 0-.492.374v4.072h-1.197v-5.516l.858-.089.185.52a2.21 2.21 0 0 1 .736-.447c.278-.1.572-.151.868-.15a1.916 1.916 0 0 1 1.424.519c.38.42.572.972.53 1.532v3.595l-1.202.036z"/>
        <path fill="#FFF" d="M97.714 16.87c-4.802-3.143-11.065-5.044-17.91-5.044-6.846 0-13.114 1.901-17.916 5.044 4.765-1.558 10.356-2.52 17.916-2.52 7.56 0 13.145.967 17.91 2.52"/>
    </g>
</svg>
