<svg xmlns="http://www.w3.org/2000/svg" xmlns:xlink="http://www.w3.org/1999/xlink" width="41" height="53" viewBox="0 0 41 53">
    <defs>
        <path id="a" d="M0 .32h40.337v13.616H0z"/>
        <path id="c" d="M.192.32h28.626v13.616H.192z"/>
    </defs>
    <g fill="none" fill-rule="evenodd">
        <path fill="#FFF" d="M0 1h40.31v52H0z"/>
        <path fill="#1A1919" d="M1.288 21.157c-.08 0-.151.012-.239.032 0 .238-.003.67-.003 1.006.043.008.123.012.175.012.326 0 .545-.206.545-.52 0-.308-.203-.53-.478-.53zm1.022 2.53c-.147 0-.23-.021-.314-.078-.131-.088-.27-.33-.35-.468a11.978 11.978 0 0 0-.43-.708.335.335 0 0 1-.06.005c-.039 0-.071-.005-.11-.005v.215l.003.327c.004.218.008.311.04.396.04.105.112.158.243.17v.113l-.092-.004c-.103-.004-.246 0-.433 0-.183 0-.327-.004-.43 0l-.095.004v-.113c.1-.008.147-.029.195-.081a.385.385 0 0 0 .08-.218c.011-.122.015-.194.015-.594v-.68c0-.492-.016-.613-.044-.726-.028-.11-.11-.154-.246-.17v-.113c.08.008.16.004.238.004.207 0 .27 0 .517-.012.215-.008.339-.012.434-.012.27 0 .433.04.569.137a.667.667 0 0 1 .25.53c0 .33-.214.601-.58.739.151.194.27.388.41.61.127.206.254.384.354.485.055.06.09.08.166.1v.114a1.398 1.398 0 0 1-.33.032zM4.351 23.604c-.03.05-.062.06-.243.06-.112 0-.22-.007-.332-.01-.157-.003-.315-.01-.473-.01-.158 0-.316.003-.473.01v-.093c.148-.014.213-.1.226-.248.01-.1.01-.207.01-.38v-.945c0-.177-.01-.257-.036-.327-.03-.087-.089-.126-.2-.14v-.094h1.538l-.003.294c0 .08-.004.157.003.237H4.25c-.024-.257-.132-.327-.523-.327-.072 0-.168.003-.247.007-.006.13-.01.173-.01.367v.387c.05.004.09.004.149.004.341 0 .446-.05.466-.231h.119c-.007.053-.007.164-.007.33 0 .171.003.27.007.324h-.119c-.01-.19-.099-.237-.437-.237-.06 0-.118.004-.177.004l.003.63c0 .14.023.187.102.208a.97.97 0 0 0 .226.016c.355 0 .48-.08.556-.354l.128.027c-.046.234-.099.427-.135.49zM3.62 21.21l-.155-.094.325-.487.378.07-.548.51zM5.722 22.663c-.033 0-.05 0-.092-.004l-.073-.17c.31-.02.48-.174.48-.427 0-.268-.18-.458-.43-.458a.608.608 0 0 0-.125.014c0 .207-.007.413-.007.62v.585c0 .437.004.51.036.597.03.087.089.13.2.14v.094l-.078-.003c-.086-.004-.204-.004-.362-.004-.154 0-.276 0-.358.004l-.079.003v-.093c.148-.014.214-.1.227-.248.01-.1.01-.16.01-.49v-.835c0-.177-.01-.257-.036-.327-.03-.087-.089-.126-.2-.14v-.094c.039.004.01.004.15.004.057 0 .135 0 .24-.004.168-.006.336-.016.503-.016.467 0 .746.233.746.62 0 .365-.319.632-.752.632M8.708 21.594c-.036.05-.053.117-.06.25-.006.144-.01.254-.01.461 0 .077.004.307.004.538 0 .233-.036.373-.131.514-.151.223-.401.337-.73.337a.857.857 0 0 1-.512-.14c-.23-.15-.319-.348-.319-.701 0-.361.007-.517.007-.635 0-.17.01-.347-.02-.513-.02-.12-.082-.17-.22-.184v-.094l.075.004c.086.003.207.003.365.003s.279 0 .365-.003l.075-.004v.094c-.102.014-.15.04-.184.097-.03.05-.042.116-.046.263-.006.211-.01.418-.01.628 0 .574.014.684.116.804a.484.484 0 0 0 .37.157c.221 0 .435-.113.5-.337.043-.143.05-.247.05-.624v-.33c0-.38-.01-.498-.046-.555-.037-.06-.086-.093-.171-.103v-.094c.131.007.177.007.341.007.168 0 .214 0 .345-.007v.094c-.072.01-.118.03-.154.073M10.022 22.532c-.056 0-.115.004-.2.01-.004.09-.004.107-.004.26V23c0 .186.007.287.03.353.026.084.105.124.243.124.28 0 .437-.157.437-.437 0-.31-.197-.508-.506-.508zm-.01-.931c-.059 0-.118.007-.177.007l-.013.73c.036.004.082.007.144.007.322 0 .506-.136.506-.377 0-.23-.17-.367-.46-.367zm.717 1.896c-.155.12-.33.16-.665.16-.176 0-.358-.013-.535-.013-.072 0-.207 0-.299.007l-.04.003v-.093c.155-.014.214-.094.227-.248.01-.1.014-.16.014-.49v-.631c0-.31-.004-.444-.037-.53-.032-.088-.092-.127-.203-.14v-.095c.15.007.24.007.45.007.19 0 .476-.01.667-.01.302 0 .578.147.578.494 0 .257-.157.43-.47.511.348.07.533.274.533.604 0 .2-.073.35-.22.464zM12.804 23.607c-.03.047-.068.057-.233.057-.082 0-.167-.004-.25-.007-.203-.006-.387-.013-.61-.013-.168 0-.28.003-.385.01v-.093c.082-.007.125-.024.16-.068.06-.07.076-.156.076-.4 0-.167.004-.3.004-.474v-.357c0-.45-.004-.51-.036-.6-.03-.088-.092-.127-.204-.14v-.095l.082.004c.089.003.21.003.375.003.16 0 .286 0 .37-.003l.083-.004v.094c-.167 0-.24.09-.26.25-.006.057-.01.11-.01.49v.558c0 .464.004.521.047.568.036.037.105.053.246.053.18 0 .28-.02.361-.067.093-.05.161-.15.194-.29l.125.033c-.036.194-.098.435-.135.491M13.948 23.65c-.083-.003-.204-.003-.359-.003-.157 0-.275 0-.361.004l-.079.003v-.093c.154-.014.213-.094.227-.248.01-.1.013-.16.013-.49v-.561c0-.087-.003-.177-.003-.274 0-.177-.007-.257-.033-.327-.03-.087-.092-.126-.204-.14v-.094l.079.004c.086.003.204.003.361.003.155 0 .276 0 .359-.003l.079-.004v.094c-.142.01-.214.1-.227.25-.01.097-.01.19-.01.49v.562c0 .437.003.51.036.597.03.087.089.13.2.14v.094l-.078-.003M15.469 21.615c-.402 0-.688.34-.688.817 0 .581.339 1.038.77 1.038.404 0 .69-.347.69-.83 0-.575-.339-1.025-.772-1.025zm1.55 2.64c-.256 0-.529-.08-.788-.227a3.733 3.733 0 0 1-.506-.354c-.112.017-.155.02-.26.02-.664 0-1.104-.44-1.104-1.105 0-.711.476-1.202 1.173-1.202.677 0 1.127.441 1.127 1.102 0 .47-.236.888-.611 1.081.118.06.237.127.352.197.335.207.565.294.782.294.134 0 .246-.03.378-.097l.042.117c-.16.114-.361.173-.585.173z"/>
        <path fill="#1A1919" d="M18.938 21.594c-.036.05-.053.117-.059.25-.007.144-.01.254-.01.461 0 .077.003.307.003.538 0 .233-.036.373-.131.514-.151.223-.401.337-.73.337a.857.857 0 0 1-.512-.14c-.23-.15-.319-.348-.319-.701 0-.361.007-.517.007-.635 0-.17.01-.347-.02-.513-.02-.12-.082-.17-.22-.184v-.094l.075.004c.086.003.207.003.365.003s.28 0 .365-.003l.075-.004v.094c-.101.014-.15.04-.184.097-.03.05-.042.116-.045.263-.007.211-.01.418-.01.628 0 .574.013.684.115.804a.484.484 0 0 0 .371.157c.22 0 .434-.113.5-.337.042-.143.049-.247.049-.624v-.33c0-.38-.01-.498-.046-.555-.036-.06-.086-.093-.171-.103v-.094c.131.007.177.007.341.007.168 0 .214 0 .345-.007v.094c-.072.01-.118.03-.154.073M20.942 23.604c-.03.05-.062.06-.243.06-.111 0-.22-.007-.332-.01-.157-.003-.315-.01-.473-.01-.157 0-.316.003-.473.01v-.093c.147-.014.214-.1.227-.248.01-.1.01-.207.01-.38v-.945c0-.177-.01-.257-.037-.327-.03-.087-.088-.126-.2-.14v-.094h1.538l-.003.294c0 .08-.004.157.003.237h-.118c-.024-.257-.132-.327-.523-.327-.073 0-.167.003-.246.007-.007.13-.01.173-.01.367v.387c.049.004.089.004.148.004.341 0 .446-.05.466-.231h.118c-.006.053-.006.164-.006.33 0 .171.003.27.006.324h-.118c-.01-.19-.099-.237-.437-.237-.06 0-.118.004-.177.004l.003.63c0 .14.023.187.102.208.05.013.125.016.226.016.356 0 .48-.08.556-.354l.128.027c-.046.234-.098.427-.135.49M23.983 21.61c-.005-.292-.171-.404-.621-.404-.092 0-.18.003-.279.012-.007.278-.007.472-.007.913.095.004.143.008.21.008.37 0 .482-.065.502-.283h.143c0 .113-.008.23-.008.343 0 .15.008.303.008.453h-.143c-.028-.243-.12-.291-.537-.291-.072 0-.1 0-.175.004v.453c0 .088 0 .185.004.29.008.222.024.416.282.433v.113l-.096-.004c-.099-.004-.246-.004-.433-.004-.191 0-.334 0-.438.004l-.095.004v-.113c.179-.017.259-.122.274-.3.012-.12.012-.193.012-.593v-1.01c0-.215-.012-.311-.043-.396-.036-.106-.107-.154-.243-.17v-.113h1.83c-.008.076-.008.206-.008.376 0 .161 0 .185.008.274h-.147M25.337 21.591a.833.833 0 0 0-.196.027c0 .197-.004.554-.004.83.036.007.102.01.145.01.27 0 .45-.17.45-.43 0-.254-.168-.437-.395-.437zm.845 2.09c-.122 0-.19-.017-.26-.064-.108-.073-.223-.274-.289-.387a9.812 9.812 0 0 0-.354-.584c-.02.003-.037.003-.05.003-.032 0-.059-.003-.092-.003v.177c0 .09.004.18.004.27.003.18.006.257.032.327.033.087.092.13.201.14v.094l-.076-.003c-.085-.004-.203 0-.358 0-.151 0-.27-.004-.355 0l-.079.003v-.093c.082-.007.122-.024.162-.068a.315.315 0 0 0 .065-.18c.01-.1.013-.16.013-.49v-.561c0-.407-.013-.508-.036-.6-.023-.091-.092-.127-.204-.14v-.095c.066.007.132.004.198.004.17 0 .223 0 .427-.01.177-.007.279-.01.358-.01.223 0 .358.033.47.113.125.09.207.264.207.438 0 .273-.178.497-.48.61.125.16.223.32.339.504.105.17.21.318.292.4.046.05.075.068.138.085v.093c-.086.02-.171.027-.273.027zM27.489 22.015c-.086.227-.204.52-.253.684h.486l-.233-.684zm1.064 1.636c-.082-.004-.2-.004-.35-.004-.155 0-.274 0-.356.004l-.076.003v-.093c.106-.007.168-.064.168-.158 0-.033-.01-.08-.043-.18-.04-.123-.066-.207-.105-.32h-.63l-.066.194c-.05.15-.076.26-.076.316 0 .097.043.14.148.148v.093c-.125-.003-.171-.007-.329-.007-.154 0-.2.004-.325.007v-.093c.05-.007.066-.014.102-.047.062-.057.125-.174.223-.428l.312-.807c.086-.217.214-.568.303-.852h.223c.03.104.099.268.145.388l.463 1.205c.079.203.135.323.178.4.045.08.091.12.17.14v.094l-.079-.003zM30.893 21.621c-.037.06-.043.117-.05.29-.01.3-.013.768-.013.992v.51c0 .077.01.194.01.24h-.224a43.178 43.178 0 0 0-.656-.834 308.7 308.7 0 0 0-.671-.837c0 .07-.003.026-.003.243v.217c0 .25.003.498.013.748.006.14.02.21.052.274.033.066.082.093.178.097v.093c-.115-.007-.234-.007-.348-.007-.119 0-.234 0-.352.007v-.093c.217-.007.223-.191.23-.364.003-.14.006-.257.006-.471v-.704c0-.278-.013-.344-.062-.418-.033-.053-.076-.073-.174-.083v-.094c.108.007.148.007.286.007.135 0 .174 0 .282-.007.04.074.102.14.329.421.322.397.611.734.884 1.081v-.727c0-.334-.007-.417-.023-.504-.023-.107-.086-.16-.207-.177v-.094c.134.007.18.007.348.007.168 0 .214 0 .349-.007v.094c-.09.003-.139.02-.184.1M33.186 23.574c-.214.086-.401.12-.661.12l-.03.134c.017-.004.05 0 .063 0 .125 0 .207.09.207.2 0 .18-.141.307-.365.307a.493.493 0 0 1-.197-.044l.046-.13a.334.334 0 0 0 .118.027c.093 0 .155-.047.155-.13 0-.067-.033-.107-.082-.107a.12.12 0 0 0-.073.026l-.072-.02.066-.27c-.29-.027-.5-.123-.677-.31-.204-.21-.312-.498-.312-.835 0-.72.457-1.155 1.209-1.155.227 0 .447.034.637.097-.006.077-.006.154-.006.227 0 .057.003.177.006.254h-.128c-.052-.237-.24-.364-.539-.364-.463 0-.746.314-.746.835 0 .6.332 1.037.79 1.037.275 0 .463-.14.538-.407l.125.027c-.03.113-.06.304-.072.48M34.4 22.015c-.085.227-.203.52-.252.684h.486l-.233-.684zm1.066 1.636c-.083-.004-.201-.004-.352-.004-.155 0-.273 0-.355.004l-.075.003v-.093c.104-.007.167-.064.167-.158a.63.63 0 0 0-.043-.18c-.04-.123-.065-.207-.105-.32h-.63l-.067.194c-.049.15-.075.26-.075.316 0 .097.043.14.147.148v.093c-.124-.003-.17-.007-.327-.007-.155 0-.201.004-.326.007v-.093a.148.148 0 0 0 .102-.047c.062-.057.125-.174.224-.428l.311-.807c.086-.217.214-.568.303-.852h.223c.03.104.099.268.145.388l.463 1.205c.079.203.135.323.178.4.046.08.092.12.17.14v.094l-.078-.003zM36.54 23.65c-.083-.003-.204-.003-.36-.003s-.275 0-.36.004l-.079.003v-.093c.155-.014.213-.094.227-.248.01-.1.013-.16.013-.49v-.561c0-.087-.004-.177-.004-.274 0-.177-.006-.257-.032-.327-.03-.087-.092-.126-.204-.14v-.094l.079.004c.085.003.204.003.36.003s.277 0 .36-.003l.078-.004v.094c-.141.01-.213.1-.227.25-.01.097-.01.19-.01.49v.562c0 .437.004.51.037.597.03.087.088.13.2.14v.094l-.078-.003M37.56 23.694c-.19 0-.328-.027-.551-.114a6.123 6.123 0 0 0-.06-.48l.125-.02c.08.27.253.41.506.41.234 0 .391-.123.391-.31 0-.15-.102-.254-.25-.347l-.345-.224c-.236-.154-.374-.314-.374-.607 0-.374.28-.615.713-.615.21 0 .385.04.54.12-.004.08-.004.108-.004.211 0 .12 0 .153.003.247h-.125c-.046-.24-.194-.374-.42-.374-.204 0-.352.13-.352.314 0 .16.109.267.282.38l.28.184c.266.177.417.347.417.614 0 .364-.315.61-.776.61"/>
        <g fill="#1A1919">
            <path d="M40.203 23.604c-.03.05-.063.06-.243.06-.112 0-.22-.007-.332-.01-.158-.003-.316-.01-.473-.01-.158 0-.316.003-.474.01v-.093c.148-.014.214-.1.227-.248.01-.1.01-.207.01-.38v-.945c0-.177-.01-.257-.036-.327-.03-.087-.09-.126-.2-.14v-.094h1.537c0 .097-.004.197-.004.294 0 .08-.003.157.004.237H40.1c-.023-.257-.132-.327-.523-.327-.072 0-.168.003-.246.007-.007.13-.01.173-.01.367v.387c.05.004.088.004.148.004.342 0 .447-.05.467-.231h.118c-.007.053-.007.164-.007.33 0 .171.003.27.007.324h-.118c-.01-.19-.099-.237-.438-.237-.059 0-.118.004-.177.004l.003.63c0 .14.023.187.102.208.05.013.125.016.227.016.354 0 .48-.08.555-.354l.128.027c-.046.234-.098.427-.134.49M1.408 17.94c-.029.04-.077.053-.192.053-.157 0-.31-.01-.467-.013-.135-.003-.237-.007-.307-.007-.096 0-.33.004-.397.007L0 17.983l.013-.068c.096-.01.154-.04.198-.1.052-.066.083-.157.128-.339.042-.179.061-.286.128-.62l.051-.257c.052-.26.07-.413.07-.495 0-.143-.05-.2-.188-.217l.013-.072c.019.004.035.004.045.004.118 0 .233.003.351.003.186 0 .308-.003.362-.003.01 0 .029 0 .051-.004l-.012.072c-.1.006-.154.032-.202.097-.08.104-.125.244-.243.871l-.042.218c-.051.267-.07.357-.086.478a.732.732 0 0 0-.01.1c0 .127.064.166.269.166.362 0 .496-.074.614-.34l.086.032c-.076.214-.15.38-.188.432"/>
        </g>
        <path fill="#1A1919" d="M2.01 18.019c-.065 0-.107-.036-.107-.095 0-.029.01-.08.026-.152l.131-.53a1.69 1.69 0 0 0 .064-.332c0-.042-.019-.061-.055-.061-.028 0-.057.01-.124.03l-.022.005-.01-.09a1.48 1.48 0 0 1 .435-.111c.048 0 .067.016.067.055 0 .04-.016.144-.073.37l-.048.192c-.08.316-.1.426-.1.478 0 .049.026.079.074.079a.63.63 0 0 0 .176-.046l.007.09c-.17.07-.353.118-.442.118zm.348-1.66c-.1 0-.164-.063-.164-.157a.19.19 0 0 1 .199-.198c.096 0 .157.058.157.153 0 .117-.08.201-.192.201zM3.768 16.823a.48.48 0 0 0-.218.071.57.57 0 0 0-.195.15c-.041.058-.077.159-.124.373-.049.202-.071.329-.071.374 0 .062.07.098.198.098a.387.387 0 0 0 .327-.182c.128-.185.224-.481.224-.693 0-.123-.048-.191-.141-.191zm.003 1.043c-.124.11-.272.156-.499.156-.25 0-.4-.042-.4-.107 0-.026.004-.058.035-.195l.167-.738c.054-.237.096-.426.153-.692.032-.156.045-.24.045-.283 0-.039-.02-.062-.054-.062a.661.661 0 0 0-.141.033l-.003-.095.038-.012c.173-.059.317-.091.384-.091.042 0 .067.02.067.055 0 .036-.016.117-.07.358l-.096.428c-.032.14-.042.192-.051.237.201-.12.377-.175.537-.175.195 0 .291.1.291.306 0 .302-.17.672-.403.877zM5.201 16.813c-.153 0-.317.214-.396.53h.032c.297 0 .521-.16.521-.368a.16.16 0 0 0-.157-.162zm-.33.65c-.022 0-.05 0-.092-.003a.942.942 0 0 0-.013.156c0 .166.058.253.17.253.102 0 .23-.055.419-.175l.035.11c-.237.15-.416.218-.579.218-.198 0-.307-.12-.307-.338 0-.536.358-1.001.77-1.001.203 0 .32.094.32.257 0 .299-.313.523-.722.523zM6.878 17.102l-.106-.01a.81.81 0 0 0 .01-.126c0-.059-.051-.101-.131-.101-.049 0-.096.03-.138.078-.121.14-.17.36-.24.721l-.06.316c-.122.006-.154.01-.279.026.032-.124.054-.221.08-.332l.07-.302a2.14 2.14 0 0 0 .07-.4c0-.081-.018-.117-.057-.117a.305.305 0 0 0-.08.017l-.08.025-.01-.097c.157-.065.337-.117.416-.117.032 0 .052.013.058.046.01.039.016.084.02.14.143-.121.271-.19.36-.19.062 0 .138.034.212.089-.051.116-.09.224-.115.334M7.962 16.882l-.265-.007-.135.666a1.349 1.349 0 0 0-.038.247c0 .045.022.072.064.072.022 0 .07-.013.147-.037l.032-.009.01.094a1.38 1.38 0 0 1-.432.114c-.068 0-.109-.033-.109-.094 0-.056.013-.137.038-.237.03-.114.051-.209.077-.335l.1-.481-.17.003.022-.104c.218-.039.291-.214.352-.403l.154-.033-.08.384.265-.003-.032.163M8.919 16.813c-.154 0-.317.214-.397.53h.032c.297 0 .521-.16.521-.368a.16.16 0 0 0-.156-.162zm-.33.65c-.022 0-.05 0-.093-.003a.945.945 0 0 0-.012.156c0 .166.057.253.17.253.102 0 .23-.055.418-.175l.035.11c-.237.15-.415.218-.579.218-.198 0-.307-.12-.307-.338 0-.536.359-1.001.771-1.001.202 0 .32.094.32.257 0 .299-.313.523-.723.523zm.355-.981l-.102-.085.39-.448.288.071-.576.462zM15.05 16.29h-.093c.003-.036.006-.049.006-.072 0-.178-.115-.24-.435-.24-.106 0-.208 0-.314.01-.067.27-.112.503-.166.793h.118c.205 0 .291-.004.365-.016.119-.023.19-.095.224-.225h.087c-.045.192-.1.465-.122.63h-.087c.004-.022.007-.042.007-.055 0-.14-.086-.185-.349-.185a3.91 3.91 0 0 0-.272.007c-.016.08 0 .01-.073.383a2.212 2.212 0 0 0-.049.354c0 .114.058.143.273.143.403 0 .527-.065.652-.344l.08.032c-.07.215-.147.387-.191.442-.033.036-.074.046-.208.046-.113 0-.227-.004-.34-.007a19.174 19.174 0 0 0-.444-.006c-.15 0-.298.003-.448.003l.012-.068c.096-.01.154-.04.199-.1.05-.066.083-.157.127-.339.042-.182.055-.257.129-.62l.051-.257c.051-.254.07-.413.07-.495 0-.143-.05-.2-.188-.217l.012-.072h1.456a5.74 5.74 0 0 0-.09.475zm-.608-.693l-.103-.084.39-.448.292.071-.58.461zM16.067 18.123a4.512 4.512 0 0 0-.375-.127c-.22.055-.374.22-.374.41 0 .175.147.292.378.292.278 0 .534-.192.534-.4 0-.078-.048-.13-.163-.175zm-.048-1.316c-.173 0-.314.185-.314.406 0 .152.087.257.211.257.17 0 .308-.18.308-.4 0-.163-.08-.263-.205-.263zm.611.071l-.218-.003c.039.068.052.12.052.195 0 .299-.247.53-.567.53a.566.566 0 0 1-.173-.026c-.08.048-.105.07-.105.1 0 .036.035.052.176.098l.256.081c.256.081.38.16.38.348 0 .344-.335.614-.764.614-.352 0-.566-.169-.566-.445 0-.254.16-.374.422-.442-.16-.059-.195-.085-.195-.14 0-.072.092-.16.285-.266a.338.338 0 0 1-.148-.296c0-.309.244-.543.564-.543.083 0 .144.01.214.036h.422l-.035.16zM17.685 16.82c-.128 0-.256.097-.365.279-.121.198-.208.462-.208.634 0 .1.048.156.128.156.119 0 .326-.107.406-.189.045-.045.07-.11.103-.234.05-.198.1-.383.128-.598a.476.476 0 0 0-.192-.049zm.147 1.202c-.058 0-.077-.036-.106-.195-.236.137-.41.198-.578.198-.193 0-.305-.1-.305-.28 0-.171.084-.415.212-.617.173-.273.387-.445.713-.445.144 0 .275.026.413.062l-.016.052c-.115.373-.198.786-.198.926 0 .088.019.137.057.137.026 0 .093-.02.173-.049l.01.1c-.164.062-.32.111-.375.111zM19.25 16.111c-.106.432-.212.913-.314 1.371-.032.15-.048.248-.048.296 0 .049.022.072.07.072a.77.77 0 0 0 .176-.039l.007.09c-.163.066-.362.121-.448.121-.061 0-.096-.036-.096-.098 0-.045.01-.103.057-.308.1-.43.208-.887.295-1.297.038-.188.057-.283.057-.312 0-.039-.019-.058-.054-.058a.459.459 0 0 0-.141.032l-.006-.098c.163-.058.342-.103.432-.103.045 0 .067.02.067.055 0 .032-.013.107-.055.276M19.694 18.019c-.064 0-.106-.036-.106-.095 0-.029.01-.08.026-.152.042-.173.099-.407.131-.53.045-.17.064-.286.064-.332 0-.042-.019-.061-.054-.061-.029 0-.058.01-.125.03l-.023.005-.009-.09c.176-.069.348-.111.435-.111.048 0 .067.016.067.055 0 .04-.016.144-.073.37l-.049.192c-.08.316-.098.426-.098.478 0 .049.025.079.073.079a.635.635 0 0 0 .176-.046l.006.09c-.17.07-.352.118-.441.118zm.348-1.66c-.099 0-.162-.063-.162-.157a.19.19 0 0 1 .198-.198c.096 0 .157.058.157.153 0 .117-.08.201-.193.201zM21.302 16.882l-.265-.007-.135.666a1.387 1.387 0 0 0-.038.247c0 .045.022.072.064.072.023 0 .07-.013.147-.037l.032-.009.01.094a1.38 1.38 0 0 1-.432.114c-.068 0-.109-.033-.109-.094 0-.056.013-.137.038-.237.03-.114.052-.209.077-.335l.1-.481-.17.003.023-.104c.217-.039.29-.214.351-.403l.154-.033-.08.384.265-.003-.032.163M22.259 16.813c-.154 0-.317.214-.397.53h.032c.298 0 .522-.16.522-.368a.16.16 0 0 0-.157-.162zm-.33.65c-.022 0-.051 0-.093-.003a.945.945 0 0 0-.012.156c0 .166.057.253.17.253.102 0 .23-.055.418-.175l.036.11c-.237.15-.416.218-.58.218-.198 0-.306-.12-.306-.338 0-.536.358-1.001.77-1.001.202 0 .32.094.32.257 0 .299-.313.523-.723.523zm.355-.981l-.102-.085.39-.448.288.071-.576.462zM28.346 16.286h-.093c.004-.032.007-.058.007-.074a.213.213 0 0 0-.061-.156c-.06-.059-.173-.081-.416-.081-.067 0-.157.003-.237.006-.057.267-.109.523-.167.8.062 0 .122.003.183.003.355 0 .426-.033.493-.244h.086c-.051.211-.093.42-.122.634h-.089c.003-.023.006-.042.006-.055a.17.17 0 0 0-.06-.137c-.055-.042-.119-.052-.31-.052-.103 0-.132.003-.215.007l-.042.217c-.06.312-.083.459-.083.55 0 .133.058.195.189.21l-.013.069-.051-.003c-.026 0-.166-.003-.288-.003-.128 0-.365 0-.407.003l-.054.003.013-.068c.096-.01.154-.04.198-.1.051-.066.086-.157.128-.339.045-.185.061-.283.128-.62l.051-.257a2.95 2.95 0 0 0 .071-.495c0-.143-.051-.2-.189-.217l.013-.072h1.42a8.991 8.991 0 0 0-.09.471M29.436 17.102l-.106-.01a.853.853 0 0 0 .01-.126c0-.059-.051-.101-.131-.101-.048 0-.096.03-.138.078-.121.14-.17.36-.24.721l-.06.316a2.62 2.62 0 0 0-.279.026c.032-.124.054-.221.08-.332l.07-.302c.049-.204.07-.331.07-.4 0-.081-.018-.117-.057-.117a.302.302 0 0 0-.08.017l-.08.025-.01-.097c.158-.065.336-.117.416-.117.033 0 .052.013.058.046.01.039.016.084.02.14.143-.121.271-.19.36-.19.062 0 .138.034.212.089-.051.116-.09.224-.115.334M30.551 16.82c-.128 0-.256.097-.365.279-.121.198-.208.462-.208.634 0 .1.048.156.128.156.118 0 .327-.107.406-.189.045-.045.071-.11.103-.234.051-.198.1-.383.128-.598a.474.474 0 0 0-.192-.049zm.147 1.202c-.057 0-.077-.036-.105-.195-.237.137-.41.198-.58.198-.191 0-.304-.1-.304-.28 0-.171.084-.415.212-.617.173-.273.387-.445.713-.445.144 0 .275.026.413.062l-.016.052c-.115.373-.199.786-.199.926 0 .088.02.137.058.137.026 0 .093-.02.173-.049l.01.1c-.164.062-.32.111-.375.111zM32.225 16.882l-.266-.007-.135.666a1.387 1.387 0 0 0-.038.247c0 .045.022.072.064.072.022 0 .07-.013.147-.037l.032-.009.01.094c-.167.069-.34.114-.432.114-.067 0-.109-.033-.109-.094 0-.056.013-.137.038-.237.03-.114.052-.209.077-.335l.1-.481-.17.003.022-.104c.218-.039.291-.214.352-.403l.154-.033-.08.384.265-.003-.031.163M33.181 16.813c-.154 0-.317.214-.397.53h.032c.298 0 .522-.16.522-.368a.159.159 0 0 0-.157-.162zm-.33.65c-.022 0-.05 0-.092-.003a.91.91 0 0 0-.013.156c0 .166.057.253.17.253.102 0 .23-.055.418-.175l.035.11c-.236.15-.415.218-.578.218-.199 0-.308-.12-.308-.338 0-.536.358-1.001.771-1.001.202 0 .32.094.32.257 0 .299-.313.523-.723.523zM34.857 17.102l-.105-.01a.809.809 0 0 0 .01-.126c0-.059-.052-.101-.132-.101-.048 0-.096.03-.137.078-.122.14-.17.36-.24.721l-.061.316c-.122.006-.153.01-.279.026.032-.124.055-.221.08-.332l.07-.302a2.17 2.17 0 0 0 .071-.4c0-.081-.02-.117-.058-.117a.303.303 0 0 0-.08.017l-.08.025-.009-.097c.157-.065.336-.117.416-.117.032 0 .051.013.058.046.01.039.016.084.019.14.144-.121.272-.19.362-.19.06 0 .137.034.21.089a1.91 1.91 0 0 0-.115.334M36.133 18.022c-.064 0-.102-.04-.102-.098 0-.039.013-.11.05-.273l.033-.136c.096-.406.118-.543.118-.598 0-.049-.022-.075-.067-.075a.546.546 0 0 0-.24.091.656.656 0 0 0-.217.186c-.03.049-.051.133-.09.305-.051.237-.083.4-.109.553-.124.01-.157.012-.281.029.064-.244.112-.445.16-.67.048-.22.067-.325.067-.383 0-.075-.023-.11-.07-.11a.63.63 0 0 0-.157.039l-.007-.092c.154-.061.32-.107.397-.107.07 0 .093.042.093.195v.026c.243-.14.492-.221.665-.221.106 0 .147.026.147.09 0 .07-.019.177-.086.44-.038.15-.074.309-.086.38a1.142 1.142 0 0 0-.029.189c0 .048.026.075.07.075.029 0 .09-.014.167-.043l.01.094c-.17.062-.362.114-.436.114M37.13 18.019c-.063 0-.105-.036-.105-.095 0-.029.01-.08.026-.152l.131-.53c.045-.17.064-.286.064-.332 0-.042-.019-.061-.054-.061-.029 0-.058.01-.125.03l-.023.005-.009-.09c.176-.069.349-.111.435-.111.048 0 .067.016.067.055 0 .04-.016.144-.073.37l-.048.192c-.08.316-.1.426-.1.478 0 .049.026.079.074.079a.635.635 0 0 0 .176-.046l.007.09c-.17.07-.352.118-.442.118zm.35-1.66c-.1 0-.163-.063-.163-.157a.19.19 0 0 1 .198-.198c.096 0 .157.058.157.153 0 .117-.08.201-.192.201zM38.74 16.882l-.266-.007-.134.666a1.372 1.372 0 0 0-.039.247c0 .045.022.072.064.072a.75.75 0 0 0 .148-.037l.031-.009.01.094a1.377 1.377 0 0 1-.432.114c-.067 0-.108-.033-.108-.094 0-.056.012-.137.038-.237.028-.114.05-.209.076-.335l.1-.481-.17.003.022-.104c.218-.039.292-.214.353-.403l.153-.033-.08.384.265-.003-.031.163M39.696 16.813c-.154 0-.316.214-.397.53h.032c.298 0 .522-.16.522-.368a.16.16 0 0 0-.157-.162zm-.33.65c-.022 0-.05 0-.092-.003a.945.945 0 0 0-.013.156c0 .166.058.253.17.253.102 0 .23-.055.419-.175l.035.11c-.237.15-.416.218-.58.218-.198 0-.306-.12-.306-.338 0-.536.358-1.001.77-1.001.202 0 .321.094.321.257 0 .299-.314.523-.723.523zm.356-.981l-.103-.085.39-.448.288.071-.575.462zM24.72 17.417a.392.392 0 0 0 .39-.395.392.392 0 0 0-.39-.394.391.391 0 0 0-.387.394c0 .218.173.395.387.395M11.39 17.417a.391.391 0 0 0 .387-.395.391.391 0 0 0-.388-.394.392.392 0 0 0-.388.394c0 .218.174.395.388.395"/>
        <path stroke="#1A1919" stroke-width=".505" d="M.208 19.455h39.904"/>
        <g>
            <mask id="b" fill="#fff">
                <use xlink:href="#a"/>
            </mask>
            <path fill="#FFFFFE" d="M0 13.936h40.337V.32H0z" mask="url(#b)"/>
            <path fill="#000" d="M12.144 8.78c-.362.107-.732.124-1.068.31a6.76 6.76 0 0 1 2.349.34c.275.093.519.217.763.372.122.093.183.186.305.248a.61.61 0 0 0 .518.031h.153c.458-.124.946-.248 1.25-.589 0 .031.031.031.062.031-.092.248-.092.527-.275.744 0 .031-.03.093.03.124h.062c-.03 0-.061 0-.061.031 0 .062.091 0 .121.062-.152.03-.304.062-.396.186 0 .03.061.03.092.03-.061.063-.153.032-.183.094 0 0 .03.03.06.03-.03 0-.06 0-.06.032v.093c-.092 0-.122.062-.183.093.122.092.213 0 .335 0-.335.124-.61.31-.946.403-.06 0 0 .092-.06.092.09.062.152-.03.243-.03-.427.247-.854.464-1.311.743 0 0-.061.062-.061.124h-.122c-.061.031-.03.124-.092.186.153.093.336-.124.427 0 .03 0-.06.03-.122.03-.03 0-.03.063-.06.063h-.092c-.061.062-.122.093-.122.186-.061 0-.122 0-.153.062.671-.093 1.373-.03 2.014-.372a4.695 4.695 0 0 0 1.342-1.022s.03.03.03.061c-.091.31-.274.527-.518.713-.183.093-.305.248-.458.31l-.274.186c-1.13.403-2.471.217-3.448.992 0-.031-.03-.031-.06-.031-.062.062-.153.093-.184.155 0 .061.092.03.122.03a2.02 2.02 0 0 1 .58-.279c-.244.125-.488.31-.732.372-.519.093-1.007.063-1.526 0 .306-.185.61-.402.946-.588-.091-.062-.183-.062-.275-.062-.152.03-.335-.062-.488 0-.457.217-1.068.155-1.311.65h-9.46V.258c1.357 0 13.334-.031 18.612 0-.366.186-.793.34-1.068.682-.244.31-.488.62-.58.991-.396.248-.64.62-.854.992-.274.526-.67.991-.61 1.58.06.496.183.96.275 1.488.03.186.06.34.122.526.06.186 0 .403.091.558.061.093.03.217.153.279v.124c.03.031.03.062.091.062v.124c.244.31.55.589.702.93.06.186-.305.092-.458.03-.305-.154-.488-.402-.732-.62 0 0-.03.032-.03.063.122.217.58.496.335.65-.122.063-.274-.092-.397.032-.03.061 0 .124 0 .185-.183-.124-.366-.061-.549-.124-.122-.03-.152-.279-.305-.279-.396-.092-.762-.186-1.159-.216-.55-.062-1.068-.155-1.617-.062-.488.03-.854.403-1.16.775v.092c.215.031.306-.155.49-.216.304-.063.579-.187.884-.248.457-.093.885-.217 1.312-.186.091 0 .213-.031.305 0-.55-.031-1.038.155-1.556.31" mask="url(#b)"/>
        </g>
        <path fill="#FFFFFE" d="M10.435 10.267c-.093.024-.183.093-.152.155.091.124.274-.031.427-.031-.183.062-.397.031-.549.186.122.093.244.03.366.03 0 .063.06.063.091.094-.152.062-.274.186-.305.279-.06.154-.213.217-.305.34v.094c-.305.278-.64.464-.884.805.03 0 .03.031.03.062-.06.093-.183.124-.213.217 0 .031 0 .062.03.062.366-.124.64-.403.976-.527.244-.062.427-.217.64-.279.154-.03.337-.093.49-.124 0 .031 0 .062.03.062h.244c-.03.062-.153.031-.122.062.091.093.274.062.396 0 .091-.062.183-.062.305-.062.03 0 .03-.062.03-.093.092.031.153.031.245.031.732-.154 1.434-.31 2.105-.65-.793-.62-1.8-.837-2.746-1.116.092 0 .183.093.275 0-.153-.124-.336-.062-.488-.155.03 0 .091.031.122-.031-.244-.124-.488-.124-.732-.186.152-.03.244-.155.244-.31 0-.03-.061-.03-.092-.03-.366.185-.61.526-.763.929.214.124.458.031.672.062-.092.093-.245.093-.367.124M9.185 9.059c-.312.334-.64.65-1.038.867a9.58 9.58 0 0 1-.976 1.58c0 .031.03.062.03.062.733-.836 1.404-1.549 2.35-2.138.06-.03-.092.093.03.062.397-.093.519-.495.702-.806.244-.402.67-.557.976-.898 0 .03 0 .062-.03.093.03.03.06.03.091.03.122-.092.275-.061.366-.185-.244-.093-.549-.124-.793-.031-.64.31-1.19.806-1.708 1.364"/>
        <path fill="#FFFFFE" d="M9.644 9.646c.028-.056.062-.062.093-.123 0-.031 0-.061-.03-.061-.124.03-.217.153-.248.275 0 .031.031.031.062.031a.24.24 0 0 0 .123-.122"/>
        <g transform="translate(11.52)">
            <mask id="d" fill="#fff">
                <use xlink:href="#c"/>
            </mask>
            <path fill="#FFFFFE" d="M.563 12.001c-.122.062-.335.062-.366.216-.03.061.091.03.153.03.213-.092.457 0 .64-.184-.06-.062-.152-.03-.213-.123-.061-.03-.153.031-.214.061" mask="url(#d)"/>
            <path fill="#000" d="M3.888 13.676c.189-.043.367-.155.55-.217v.062c.457-.186.793-.589 1.25-.744.03 0 .091.062.153.031.274-.248.58-.527.976-.465 0 .031 0 .062.03.062.031 0 .062 0 .062-.03l-.367.278c-.03.031 0 .062.031.062.152-.062.244-.186.397-.248-.03.031-.03.093-.061.124-.58.434-1.007.93-1.465 1.456h-.946c0-.03 0-.062-.03-.062-1.068.094-2.105.062-3.173.062.61-.093 1.22-.278 1.83-.34.245 0 .489.03.763-.031" mask="url(#d)"/>
            <path fill="#D4D4D4" d="M15.908 12.095c.074-.224.152-.465.03-.681-.183-.28.184-.372.306-.558.091-.155-.061-.248-.092-.403-.03-.062-.152-.03-.213-.124.213-.093.549-.279.396-.558-.091-.155-.244-.403-.06-.558.213-.124.548-.093.64-.31.153-.372-.183-.681-.366-.991-.091-.186-.214-.31-.336-.496-.122-.217-.274-.403-.335-.65-.092-.249.03-.466.03-.714.03-.464-.092-.93-.213-1.394-.092-.217-.122-.465-.214-.682-.03-.124-.06-.248-.153-.372a.271.271 0 0 1 0-.216 3.21 3.21 0 0 0 .367-.31.354.354 0 0 0-.122-.465c-.214-.093-.183.217-.336.279h-.091c-.03-.093.03-.124.091-.186 0-.031 0-.093-.03-.093-.123 0-.244-.031-.275-.093-.305-.434-.732-.65-1.19-.837.122.031.245.062.367.062.213.031.457.031.64-.062.152-.062.183-.31.244-.465.061-.124-.03-.31-.092-.402-.152-.248-.521-.544-.765-.668h14.823v13.9H11.545c.184-.62.52-1.209 1.068-1.612.122-.062.275-.093.428-.124.518 0 1.037.155 1.555.217.061 0 .123.031.183.062.184.03.397.03.58-.031.214-.062.457-.186.549-.465" mask="url(#d)"/>
        </g>
        <path fill="#000" d="M26.269 5.99c-.18-.045-.336 0-.52 0-.243.062-.457.094-.67.187.183-.125.366-.249.58-.31.152-.031.305-.124.457-.124.183-.031.366-.093.519-.031.152.062.397.062.427.155.06.185-.092.372-.275.495-.03.062.092.093.092.155-.031.063-.122.093-.183.093-.061.031-.122.124-.184.186.062 0 0 .093.062.093-.123.155.06.465-.123.527a1.354 1.354 0 0 1-.701 0c.122-.03.275.031.366-.093V7.2c0-.03-.03-.03-.06-.03-.031.03-.062.03-.062.03 0-.062-.06-.124-.091-.124-.184.031-.336-.062-.458-.186.091-.03.183-.062.274-.03.092 0 .062-.156.153-.218h.092c.183-.248.548-.31.61-.557 0-.063-.184-.063-.305-.093M35.97 46.078c-.172-.025-.355-.075-.527-.075-1.04-.001-1.567.496-1.568 1.9l-.003 2.251-2.546-.002.007-6.515 2.313.002-.001 1.318h.024c.356-1.02.981-1.504 1.972-1.503.11 0 .221.025.33.037l-.001 2.587zm-5.88 4.073l-2.362-.002v-.957c-.637.894-1.261 1.143-2.314 1.142-1.396-.002-2.3-.872-2.298-2.737l.003-3.967 2.546.002-.003 3.52c-.001.894.305 1.18.917 1.18.734.002.967-.558.968-1.565l.004-3.133 2.545.002-.006 6.515zm-8.147-5.03H20.72l-.003 2.362c0 .597.085.808.796.809h.403l-.002 1.853c-3.341.183-3.745-.053-3.743-2.304l.003-2.723h-.906l.002-1.492h.942l.002-2.026 2.51.002-.003 2.026 1.224.001v1.492zm-5.623 5.02l-2.547-.003.01-8.952 2.545.002-.008 8.952zm-3.905-.004l-2.362-.002v-.958c-.637.895-1.261 1.143-2.314 1.143-1.396-.002-2.3-.873-2.299-2.738l.004-3.966 2.546.002-.003 3.519c0 .895.305 1.181.917 1.181.734.001.968-.558.969-1.565l.002-3.134 2.547.002-.007 6.516zm24.092-3.176c.002-2.138 1.582-3.505 3.639-3.503.065 0 .127.006.191.008V30.25H.023v10.69c2.678.009 4.175 1.364 4.404 3.657l-2.742-.002c-.084-.932-.66-1.467-1.565-1.468-.033 0-.065.003-.097.005v5.032c.066.006.131.01.202.01.93.002 1.372-.657 1.483-1.515l2.779.002c-.26 2.313-1.89 3.704-4.215 3.702-.085 0-.166-.007-.249-.01V53h40.314v-2.658a5.61 5.61 0 0 1-.186.004c-2.056-.002-3.646-1.197-3.644-3.385z"/>
        <path fill="#000" d="M40.242 45.037c-.759 0-1.187.434-1.188 1.13l1.283.001v-1.126a.969.969 0 0 0-.095-.005M40.312 48.767l.025-.001v-1.28h-1.284c-.001.77.586 1.28 1.259 1.28"/>
        <path fill="#FFFFFE" d="M40.337 48.766v1.576M40.337 46.168v1.318M40.337 43.466v1.576M5.375 35.663V33.66h.285l.646 1.766h.006l.635-1.766h.282v2.003h-.186v-1.786h-.006l-.646 1.786h-.175l-.65-1.786h-.005v1.786h-.186"/>
        <path d="M5.375 35.663V33.66h.285l.646 1.766h.006l.635-1.766h.282v2.003h-.186v-1.786h-.006l-.646 1.786h-.175l-.65-1.786h-.005v1.786z"/>
        <path fill="#FFFFFE" d="M7.665 35.663h.166v-1.441h-.166v1.44zm-.009-1.756h.183v-.247h-.183v.247z"/>
        <path d="M7.665 35.663h.166v-1.441h-.166v1.44zm-.009-1.756h.183v-.247h-.183v.247z"/>
        <path fill="#FFFFFE" d="M8.412 35.663h-.164v-1.441h.164v.2c.132-.142.26-.24.458-.24.173 0 .331.056.433.207.068.103.07.211.07.33v.944H9.21v-.94c0-.26-.104-.39-.368-.39a.415.415 0 0 0-.394.281.755.755 0 0 0-.036.273v.776"/>
        <path d="M8.412 35.663h-.164v-1.441h.164v.2c.132-.142.26-.24.458-.24.173 0 .331.056.433.207.068.103.07.211.07.33v.944H9.21v-.94c0-.26-.104-.39-.368-.39a.415.415 0 0 0-.394.281.755.755 0 0 0-.036.273v.776z"/>
        <path fill="#FFFFFE" d="M9.788 33.907h.183v-.247h-.183v.247zm.008 1.756h.166v-1.441h-.166v1.44z"/>
        <path d="M9.788 33.907h.183v-.247h-.183v.247zm.008 1.756h.166v-1.441h-.166v1.44z"/>
        <path fill="#FFFFFE" d="M10.475 35.212c.052.248.178.34.425.34.238 0 .35-.128.35-.267 0-.418-.91-.123-.91-.69 0-.24.184-.412.5-.412.306 0 .506.128.547.453h-.167c-.03-.222-.178-.303-.383-.303-.209 0-.32.1-.32.248 0 .392.908.147.908.7 0 .276-.243.421-.578.421-.334 0-.525-.217-.539-.49h.167"/>
        <path d="M10.475 35.212c.052.248.178.34.425.34.238 0 .35-.128.35-.267 0-.418-.91-.123-.91-.69 0-.24.184-.412.5-.412.306 0 .506.128.547.453h-.167c-.03-.222-.178-.303-.383-.303-.209 0-.32.1-.32.248 0 .392.908.147.908.7 0 .276-.243.421-.578.421-.334 0-.525-.217-.539-.49h.167z"/>
        <path fill="#FFFFFE" d="M12.247 35.668c-.038.009-.11.034-.189.034-.162 0-.252-.072-.252-.287v-1.054h-.2v-.14h.2v-.4h.165v.4h.265v.14h-.265v.988c0 .141.005.203.142.203.044 0 .09-.009.134-.02v.136"/>
        <path d="M12.247 35.668c-.038.009-.11.034-.189.034-.162 0-.252-.072-.252-.287v-1.054h-.2v-.14h.2v-.4h.165v.4h.265v.14h-.265v.988c0 .141.005.203.142.203.044 0 .09-.009.134-.02v.136z"/>
        <path fill="#FFFFFE" d="M13.712 34.981c.003-.517-.235-.798-.624-.798-.406 0-.652.345-.652.765 0 .425.197.754.652.754.362 0 .532-.209.614-.481h-.184c-.05.21-.216.33-.43.33-.315 0-.48-.258-.476-.57h1.1zm-.591-.915h.14l-.304-.387h-.214l.378.387zm-.51.776c.034-.273.187-.509.477-.509.296 0 .45.228.45.51h-.926z"/>
        <path d="M13.712 34.981c.003-.517-.235-.798-.624-.798-.406 0-.652.345-.652.765 0 .425.197.754.652.754.362 0 .532-.209.614-.481h-.184c-.05.21-.216.33-.43.33-.315 0-.48-.258-.476-.57h1.1zm-.591-.915h.14l-.304-.387h-.214l.378.387zm-.51.776c.034-.273.187-.509.477-.509.296 0 .45.228.45.51h-.926z"/>
        <path fill="#FFFFFE" d="M14.206 35.663h-.165v-1.441h.165v.27h.005c.09-.231.225-.31.463-.31v.182c-.37-.009-.468.27-.468.592v.707"/>
        <path d="M14.206 35.663h-.165v-1.441h.165v.27h.005c.09-.231.225-.31.463-.31v.182c-.37-.009-.468.27-.468.592v.707z"/>
        <path fill="#FFFFFE" d="M16.147 34.981c.003-.517-.235-.798-.624-.798-.406 0-.652.345-.652.765 0 .425.197.754.652.754.362 0 .531-.209.614-.481h-.184c-.05.21-.216.33-.43.33-.315 0-.48-.258-.477-.57h1.101zm-1.1-.139c.032-.273.186-.509.476-.509.296 0 .449.228.449.51h-.926z"/>
        <path d="M16.147 34.981c.003-.517-.235-.798-.624-.798-.406 0-.652.345-.652.765 0 .425.197.754.652.754.362 0 .531-.209.614-.481h-.184c-.05.21-.216.33-.43.33-.315 0-.48-.258-.477-.57h1.101zm-1.1-.139c.032-.273.186-.509.476-.509.296 0 .449.228.449.51h-.926z"/>
    </g>
</svg>
