<svg xmlns="http://www.w3.org/2000/svg" width="322" height="114" viewBox="0 0 322 114">
    <g fill="none" fill-rule="evenodd">
        <path fill="#002494" d="M1 106h106.667v6H1z"/>
        <path fill="#FFF" d="M107.667 106h106.667v6H107.667z"/>
        <path fill="#ED2939" d="M214.333 106H321v6H214.333z"/>
        <path fill="#FFF" d="M13.152 59.532H9.68v-1.568c0-1.708-.784-2.436-1.68-2.436-1.4 0-1.848.728-1.848 2.24v10.248c0 1.512.448 2.24 1.848 2.24 1.26 0 1.68-.728 1.68-2.044v-2.436h3.472V68.1c0 2.856-1.68 5.18-5.152 5.18-3.64 0-5.32-2.324-5.32-5.18V57.684c0-2.856 1.68-5.18 5.32-5.18 3.472 0 5.152 2.52 5.152 5.544v1.484zM16.68 68.1V57.684c0-2.856 1.68-5.18 5.32-5.18 3.64 0 5.32 2.324 5.32 5.18V68.1c0 2.856-1.68 5.18-5.32 5.18-3.64 0-5.32-2.324-5.32-5.18zm3.472-10.332v10.248c0 1.512.448 2.24 1.848 2.24 1.4 0 1.848-.728 1.848-2.24V57.768c0-1.512-.448-2.24-1.848-2.24-1.4 0-1.848.728-1.848 2.24zm19.88-4.984h4.564V73h-3.024V57.208h-.056L38.38 73H36.7l-3.136-15.792h-.056V73h-3.024V52.784h4.564L37.512 64.6h.056l2.464-11.816zm17.108 0h4.564V73H58.68V57.208h-.056L55.488 73h-1.68l-3.136-15.792h-.056V73h-3.024V52.784h4.564L54.62 64.6h.056l2.464-11.816zM74.584 73h-9.688V52.784h9.296v3.024h-5.824v5.208h4.48v3.024h-4.48v5.936h6.216V73zm5.88 0h-3.136V52.784h3.22l4.228 11.564h.056V52.784h3.136V73h-3.024L80.52 60.372h-.056V73zm12.88 0V55.808h-3.36v-3.024h10.192v3.024h-3.36V73h-3.472zm23.856 0h-8.932V52.784h3.472v17.192h5.46V73zm11.816 0h-9.688V52.784h9.296v3.024H122.8v5.208h4.48v3.024h-4.48v5.936h6.216V73zm7.308-6.188l2.52-14.028h3.416L138.032 73h-3.472l-4.228-20.216h3.416l2.52 14.028h.056zM153.88 73h-9.688V52.784h9.296v3.024h-5.824v5.208h4.48v3.024h-4.48v5.936h6.216V73zm6.216-17.36v6.216h1.232c1.876 0 2.576-.7 2.576-3.108 0-2.408-.7-3.108-2.576-3.108h-1.232zm0 9.072V73h-3.472V52.784h4.872c3.892 0 5.88 1.652 5.88 5.964 0 3.248-1.26 4.564-2.436 5.096L167.88 73h-3.528l-2.464-8.372c-.448.056-1.176.084-1.792.084zM185.604 73h-8.932V52.784h3.472v17.192h5.46V73zm11.816 0h-9.688V52.784h9.296v3.024h-5.824v5.208h4.48v3.024h-4.48v5.936h6.216V73zm12.376-15.596l-3.304.364c-.14-1.736-1.064-2.24-1.848-2.24-1.12 0-1.736.728-1.736 1.988 0 3.444 7.056 5.096 7.056 10.584 0 3.332-2.24 5.18-5.488 5.18-3.22 0-5.068-2.576-5.208-5.6l3.304-.476c.14 2.044.952 3.052 2.072 3.052 1.204 0 2.016-.644 2.016-1.848 0-4.004-7.056-5.068-7.056-10.864 0-3.22 1.96-5.04 5.376-5.04 2.828 0 4.508 2.044 4.816 4.9zm12.488 6.524v6.216h1.456c1.848 0 2.52-1.064 2.52-3.108 0-2.072-.784-3.108-2.856-3.108h-1.12zm0-8.288v5.432h1.26c1.316 0 2.324-.896 2.324-2.576 0-1.876-.728-2.856-2.268-2.856h-1.316zM218.812 73V52.784h5.152c3.724 0 5.376 1.904 5.376 5.348 0 1.736-.728 3.556-2.408 4.228 1.764.784 2.8 2.184 2.8 4.788 0 3.332-1.484 5.852-5.432 5.852h-5.488zm22.764 0h-8.932V52.784h3.472v17.192h5.46V73zm2.128-4.9V57.684c0-2.856 1.68-5.18 5.32-5.18 3.64 0 5.32 2.324 5.32 5.18V68.1c0 2.856-1.68 5.18-5.32 5.18-3.64 0-5.32-2.324-5.32-5.18zm3.472-10.332v10.248c0 1.512.448 2.24 1.848 2.24 1.4 0 1.848-.728 1.848-2.24V57.768c0-1.512-.448-2.24-1.848-2.24-1.4 0-1.848.728-1.848 2.24zm21 1.764h-3.472v-1.568c0-1.708-.784-2.436-1.68-2.436-1.4 0-1.848.728-1.848 2.24v10.248c0 1.512.448 2.24 1.848 2.24 1.26 0 1.68-.728 1.68-2.044v-2.436h3.472V68.1c0 2.856-1.68 5.18-5.152 5.18-3.64 0-5.32-2.324-5.32-5.18V57.684c0-2.856 1.68-5.18 5.32-5.18 3.472 0 5.152 2.52 5.152 5.544v1.484zm8.036-2.716l-1.372 8.68h2.8l-1.372-8.68h-.056zm-1.876 11.704L273.72 73h-3.36l3.724-20.216h4.312L282.12 73h-3.36l-.616-4.48h-3.808zm14.588-3.024v-2.744h5.684V73h-1.68l-.644-1.512c-1.036 1.232-1.876 1.792-3.5 1.792-2.744 0-4.648-1.96-4.648-5.18V57.684c0-2.856 1.68-5.18 5.096-5.18 3.472 0 5.208 2.52 5.208 5.544v1.288h-3.304c0-3.024-.616-3.808-1.988-3.808-.84 0-1.54.504-1.54 2.212v10.388c0 1.288.42 2.128 1.624 2.128 1.4 0 1.904-.784 1.904-2.8v-1.96h-2.212zm18.9 7.504h-9.688V52.784h9.296v3.024h-5.824v5.208h4.48v3.024h-4.48v5.936h6.216V73zM320.2 57.404l-3.304.364c-.14-1.736-1.064-2.24-1.848-2.24-1.12 0-1.736.728-1.736 1.988 0 3.444 7.056 5.096 7.056 10.584 0 3.332-2.24 5.18-5.488 5.18-3.22 0-5.068-2.576-5.208-5.6l3.304-.476c.14 2.044.952 3.052 2.072 3.052 1.204 0 2.016-.644 2.016-1.848 0-4.004-7.056-5.068-7.056-10.864 0-3.22 1.96-5.04 5.376-5.04 2.828 0 4.508 2.044 4.816 4.9z"/>
        <g fill="#FFF">
            <path d="M11.494 92.812v2.376c-1.012 0-1.804-.176-2.772-1.474-.594.33-1.342.506-2.222.506-2.86 0-4.18-1.826-4.18-4.07v-8.184c0-2.244 1.32-4.07 4.18-4.07 2.86 0 4.18 1.826 4.18 4.07v8.184c0 .748-.154 1.452-.462 2.046.616.528.99.594 1.276.616zm-4.796-2.068v-2.42c.286.154.726.374 1.254.968v-7.26c0-1.188-.352-1.76-1.452-1.76s-1.452.572-1.452 1.76v8.052c0 1.188.352 1.76 1.452 1.76.418 0 .726-.088.924-.242-.308-.572-.55-.726-.726-.858zm6.722-.748v-11.88h2.728v11.99c0 1.166.462 1.738 1.452 1.738s1.452-.572 1.452-1.738v-11.99h2.728v11.88c0 2.728-1.584 4.224-4.18 4.224-2.596 0-4.18-1.496-4.18-4.224zM32.132 94H24.52V78.116h7.304v2.376h-4.576v4.092h3.52v2.376h-3.52v4.664h4.884V94zm10.826-4.862l1.98-11.022h2.684L44.3 94h-2.728L38.25 78.116h2.684l1.98 11.022h.044zm6.282 1.012v-8.184c0-2.244 1.32-4.07 4.18-4.07 2.86 0 4.18 1.826 4.18 4.07v8.184c0 2.244-1.32 4.07-4.18 4.07-2.86 0-4.18-1.826-4.18-4.07zm2.728-8.118v8.052c0 1.188.352 1.76 1.452 1.76s1.452-.572 1.452-1.76v-8.052c0-1.188-.352-1.76-1.452-1.76s-1.452.572-1.452 1.76zm8.372 7.964v-11.88h2.728v11.99c0 1.166.462 1.738 1.452 1.738s1.452-.572 1.452-1.738v-11.99H68.7v11.88c0 2.728-1.584 4.224-4.18 4.224-2.596 0-4.18-1.496-4.18-4.224zm18.668-8.25l-2.596.286c-.11-1.364-.836-1.76-1.452-1.76-.88 0-1.364.572-1.364 1.562 0 2.706 5.544 4.004 5.544 8.316 0 2.618-1.76 4.07-4.312 4.07-2.53 0-3.982-2.024-4.092-4.4l2.596-.374c.11 1.606.748 2.398 1.628 2.398.946 0 1.584-.506 1.584-1.452 0-3.146-5.544-3.982-5.544-8.536 0-2.53 1.54-3.96 4.224-3.96 2.222 0 3.542 1.606 3.784 3.85zM89.02 80.36v4.884h.968c1.474 0 2.024-.55 2.024-2.442 0-1.892-.55-2.442-2.024-2.442h-.968zm0 7.128V94h-2.728V78.116h3.828c3.058 0 4.62 1.298 4.62 4.686 0 2.552-.99 3.586-1.914 4.004L95.136 94h-2.772l-1.936-6.578c-.352.044-.924.066-1.408.066zM105.004 94h-7.612V78.116h7.304v2.376h-4.576v4.092h3.52v2.376h-3.52v4.664h4.884V94zm4.72 0h-2.464V78.116h2.53l3.322 9.086h.044v-9.086h2.464V94h-2.376l-3.476-9.922h-.044V94zm16.864-10.582h-2.728v-1.232c0-1.342-.616-1.914-1.32-1.914-1.1 0-1.452.572-1.452 1.76v8.052c0 1.188.352 1.76 1.452 1.76.99 0 1.32-.572 1.32-1.606v-1.914h2.728v1.826c0 2.244-1.32 4.07-4.048 4.07-2.86 0-4.18-1.826-4.18-4.07v-8.184c0-2.244 1.32-4.07 4.18-4.07 2.728 0 4.048 1.98 4.048 4.356v1.166zm2.872 6.732v-8.184c0-2.244 1.32-4.07 4.18-4.07 2.86 0 4.18 1.826 4.18 4.07v8.184c0 2.244-1.32 4.07-4.18 4.07-2.86 0-4.18-1.826-4.18-4.07zm2.728-8.118v8.052c0 1.188.352 1.76 1.452 1.76s1.452-.572 1.452-1.76v-8.052c0-1.188-.352-1.76-1.452-1.76s-1.452.572-1.452 1.76zM143.024 94h-2.464V78.116h2.53l3.322 9.086h.044v-9.086h2.464V94h-2.376l-3.476-9.922h-.044V94zm10.22 0V80.492h-2.64v-2.376h8.008v2.376h-2.64V94h-2.728zm9.802-13.64v4.884h.968c1.474 0 2.024-.55 2.024-2.442 0-1.892-.55-2.442-2.024-2.442h-.968zm0 7.128V94h-2.728V78.116h3.828c3.058 0 4.62 1.298 4.62 4.686 0 2.552-.99 3.586-1.914 4.004l2.31 7.194h-2.772l-1.936-6.578c-.352.044-.924.066-1.408.066zM179.03 94h-7.612V78.116h7.304v2.376h-4.576v4.092h3.52v2.376h-3.52v4.664h4.884V94zm6.986-13.508h-4.466v-2.376h7.216v2.596l-5.016 10.912h5.016V94h-7.832v-2.596l5.082-10.912zm13.664.792l-1.078 6.82h2.2l-1.078-6.82h-.044zm-1.474 9.196l-.484 3.52h-2.64l2.926-15.884h3.388L204.322 94h-2.64l-.484-3.52h-2.992zm7.8-.484v-11.88h2.728v11.99c0 1.166.462 1.738 1.452 1.738s1.452-.572 1.452-1.738v-11.99h2.728v11.88c0 2.728-1.584 4.224-4.18 4.224-2.596 0-4.18-1.496-4.18-4.224zm25.258 2.816v2.376c-1.012 0-1.804-.176-2.772-1.474-.594.33-1.342.506-2.222.506-2.86 0-4.18-1.826-4.18-4.07v-8.184c0-2.244 1.32-4.07 4.18-4.07 2.86 0 4.18 1.826 4.18 4.07v8.184c0 .748-.154 1.452-.462 2.046.616.528.99.594 1.276.616zm-4.796-2.068v-2.42c.286.154.726.374 1.254.968v-7.26c0-1.188-.352-1.76-1.452-1.76s-1.452.572-1.452 1.76v8.052c0 1.188.352 1.76 1.452 1.76.418 0 .726-.088.924-.242-.308-.572-.55-.726-.726-.858zm6.722-.748v-11.88h2.728v11.99c0 1.166.462 1.738 1.452 1.738s1.452-.572 1.452-1.738v-11.99h2.728v11.88c0 2.728-1.584 4.224-4.18 4.224-2.596 0-4.18-1.496-4.18-4.224zm11.1.154v-8.184c0-2.244 1.32-4.07 4.18-4.07 2.86 0 4.18 1.826 4.18 4.07v8.184c0 2.244-1.32 4.07-4.18 4.07-2.86 0-4.18-1.826-4.18-4.07zm2.728-8.118v8.052c0 1.188.352 1.76 1.452 1.76s1.452-.572 1.452-1.76v-8.052c0-1.188-.352-1.76-1.452-1.76s-1.452.572-1.452 1.76zM256.974 94V80.492h-2.64v-2.376h8.008v2.376h-2.64V94h-2.728zm10.176 0h-2.728V78.116h2.728V94zm5.842-13.64v11.396h.946c1.452 0 1.958-.55 1.958-2.222v-6.952c0-1.672-.506-2.222-1.958-2.222h-.946zM270.264 94V78.116h4.048c2.816 0 4.312 1.54 4.312 4.796v6.292c0 3.256-1.496 4.796-4.312 4.796h-4.048zm14.202 0h-2.728V78.116h2.728V94zm10.726 0h-7.612V78.116h7.304v2.376h-4.576v4.092h3.52v2.376h-3.52v4.664h4.884V94zm4.72 0h-2.464V78.116h2.53l3.322 9.086h.044v-9.086h2.464V94h-2.376l-3.476-9.922h-.044V94zm17.426-4.664h-2.112v-1.848c0-1.518.572-2.75 1.144-3.806s1.144-1.958 1.144-2.772c0-.528-.374-.99-.924-.99-.924 0-1.364.902-1.562 1.672l-2.112-.792c.682-1.936 1.892-2.904 3.982-2.904 1.65 0 3.168 1.254 3.168 2.948 0 1.628-.682 2.464-1.364 3.41-.682.924-1.364 1.936-1.364 3.894v1.188zm.198 4.664h-2.596v-2.596h2.596V94z"/>
        </g>
        <path fill="#000" d="M32.448 33.137c.075 1.003.33 1.737.764 2.2.434.465.928.712 1.482.742l-.18.921c-1.796-.09-4.387-.135-7.77-.135-3.565 0-6.178.045-7.84.135l.202-.92c.989-.046 1.76-.162 2.314-.349.554-.187.97-.51 1.247-.966.277-.457.415-1.112.415-1.965 0-.255-.007-.45-.022-.584l-.405-7.547h-9.029l-4.47 6.311c-.719 1.049-1.078 1.925-1.078 2.628 0 1.438 1.408 2.261 4.223 2.471l-.202.921c-3.16-.09-5.331-.135-6.514-.135-1.048 0-2.051.045-3.01.135l.202-.92a4.927 4.927 0 0 0 1.662-.82c.51-.383 1.06-.93 1.651-1.64.592-.712 1.352-1.719 2.28-3.021L27.147 4.207c.495.06 1.086.09 1.775.09.689 0 1.25-.03 1.684-.09l1.842 28.93zm-10.4-20.372l-7.77 10.983h8.332l-.561-10.983zm17.43 23.876c-.853-.285-1.557-.697-2.111-1.236a2.627 2.627 0 0 1-.831-1.954c0-.853.378-1.636 1.134-2.347.756-.711 1.748-1.366 2.976-1.965 1.228-.6 2.853-1.303 4.874-2.112-2.29-.045-4.129-.505-5.514-1.381-1.385-.876-2.077-2.182-2.077-3.92 0-1.497.524-2.953 1.572-4.368 1.048-1.415 2.538-2.576 4.47-3.482 1.931-.905 4.162-1.358 6.693-1.358.719 0 1.4.037 2.044.112.719-1.542 1.4-2.83 2.044-3.863.644-1.034 1.34-1.85 2.089-2.449.868-.703 1.834-1.055 2.897-1.055 1.033 0 1.857.273 2.47.82.615.546.922 1.328.922 2.347 0 .793-.191 1.56-.573 2.302a4.808 4.808 0 0 1-1.572 1.797 3.758 3.758 0 0 1-2.168.685c-.838 0-1.508-.247-2.01-.741-.502-.494-.753-1.123-.753-1.887 0-.614.188-1.247.562-1.898.374-.651.92-1.27 1.64-1.853a.891.891 0 0 0-.382-.112c-.285 0-.54.127-.764.381-.494.45-1.082 1.213-1.763 2.292a23.268 23.268 0 0 0-1.763 3.369c1.557.3 2.777.864 3.66 1.695.884.832 1.326 1.936 1.326 3.313 0 1.408-.453 2.778-1.359 4.11-.906 1.333-2.197 2.46-3.874 3.381-1.677.921-3.616 1.486-5.818 1.696-2.53.898-3.796 1.714-3.796 2.448 0 .24.128.438.382.595.255.158.667.341 1.236.55l4.177 1.573c3.49 1.303 5.234 3.1 5.234 5.39 0 1.827-.768 3.351-2.302 4.571-1.535 1.22-3.41 2.12-5.627 2.696-2.216.576-4.342.864-6.379.864-1.902 0-3.537-.15-4.908-.449-1.37-.3-2.418-.722-3.144-1.269-.726-.546-1.09-1.186-1.09-1.92 0-1.093.506-1.883 1.517-2.37 1.01-.486 2.485-.94 4.424-1.359 1.94-.419 3.291-.778 4.055-1.078l-1.82-.561zm7.278-10.445c.748 0 1.43-.483 2.044-1.448.614-.966 1.096-2.22 1.448-3.763a22.36 22.36 0 0 0 .55-4.784c0-.973-.078-1.692-.235-2.156-.157-.464-.476-.696-.955-.696-.674 0-1.321.479-1.943 1.437-.621.958-1.119 2.216-1.493 3.774a20.983 20.983 0 0 0-.562 4.919c0 1.033.086 1.744.258 2.133.173.39.468.584.888.584zm-4.762 11.23c-.884 1.199-1.524 2.33-1.92 3.392-.397 1.064-.596 1.97-.596 2.718 0 .48.128.82.382 1.022.255.202.637.303 1.146.303 1.078 0 2.197-.176 3.358-.528 1.16-.351 2.126-.85 2.897-1.493.771-.644 1.157-1.378 1.157-2.201 0-.405-.12-.73-.36-.977a2.273 2.273 0 0 0-.83-.55c-.315-.12-.81-.285-1.483-.495l-3.751-1.19zm34.522-5.951c-1.168 1.752-2.748 3.219-4.739 4.402-1.992 1.183-4.29 1.774-6.896 1.774-1.467 0-2.803-.25-4.009-.752-1.205-.502-2.164-1.24-2.875-2.212-.711-.974-1.067-2.15-1.067-3.527 0-3.01.775-5.96 2.325-8.85a19.754 19.754 0 0 1 6.356-7.086c2.688-1.834 5.65-2.751 8.884-2.751 1.722 0 3.103.344 4.144 1.033 1.04.689 1.56 1.7 1.56 3.032 0 1.752-.695 3.362-2.088 4.83-1.393 1.467-3.19 2.717-5.39 3.75a34.73 34.73 0 0 1-7.031 2.403c-.105.824-.157 1.61-.157 2.359 0 1.677.322 2.837.966 3.481.644.644 1.594.966 2.852.966.764 0 1.748-.262 2.954-.786 1.205-.524 2.37-1.333 3.492-2.426l.72.36zm-3.032-18.126c-.854 0-1.812.662-2.875 1.987-1.063 1.326-2.036 3.025-2.92 5.1a28.008 28.008 0 0 0-1.864 6.254 19.789 19.789 0 0 0 4.222-3.122c2.786-2.755 4.178-5.772 4.178-9.051 0-.779-.247-1.168-.741-1.168zm31.445 16.194l-1.145 3.37c-1.108 3.159-3.302 4.738-6.581 4.738-1.977 0-3.362-.554-4.156-1.662-.509-.689-.763-1.55-.763-2.583 0-.973.24-2.2.718-3.683l3.953-11.905c.27-.778.405-1.377.405-1.797 0-.464-.165-.696-.494-.696-.794 0-1.823 1.075-3.089 3.223-1.265 2.15-2.545 4.897-3.84 8.244a93.86 93.86 0 0 0-3.269 10.073l.023-.09-.068.225H78.47l5.615-19.968c.18-.674.27-1.115.27-1.325 0-.404-.225-.606-.674-.606-.48 0-.92.217-1.325.651-.404.434-.809 1.183-1.213 2.246l-1.056 2.808h-.876l1.28-3.594c.57-1.617 1.37-2.811 2.404-3.583 1.033-.77 2.336-1.156 3.908-1.156 1.722 0 2.961.404 3.717 1.213.757.808 1.135 1.849 1.135 3.122 0 .658-.098 1.362-.292 2.11l-1.258 4.785c1.198-2.995 2.347-5.304 3.448-6.93 1.1-1.624 2.212-2.747 3.335-3.368 1.123-.622 2.403-.932 3.84-.932 3.01 0 4.516 1.272 4.516 3.818 0 .883-.203 1.932-.607 3.145L100.1 33.092c-.15.449-.225.816-.225 1.1 0 .554.255.831.764.831.913 0 1.73-.965 2.448-2.897l.966-2.583h.876zm9.186 3.549c-.09.33-.134.621-.134.876 0 .704.322 1.055.965 1.055.6 0 1.21-.333 1.831-1 .621-.665 1.12-1.5 1.494-2.503l.718-1.977h.876l-.876 2.538c-.599 1.767-1.527 3.137-2.785 4.11-1.258.974-2.762 1.46-4.514 1.46-1.707 0-2.984-.449-3.83-1.347-.846-.899-1.269-2.112-1.269-3.639 0-.898.15-1.88.45-2.942l4.447-15.453h-4.223l.224-.921h4.268l2-6.986c3.263-.045 6.056-.262 8.377-.651l-2.246 7.637h4.582l-.135.92h-4.717l-5.503 18.823zm10.265 3.257c.464.224 1.003.337 1.617.337.958 0 1.748-.319 2.37-.955.621-.636.932-1.486.932-2.55 0-.958-.229-1.987-.685-3.088-.457-1.1-1.12-2.354-1.988-3.762a70.408 70.408 0 0 1-1.561-2.628 10.892 10.892 0 0 1-.831-1.976 7.55 7.55 0 0 1-.348-2.291c0-1.333.34-2.524 1.022-3.572.681-1.048 1.707-1.875 3.077-2.482 1.37-.606 3.05-.91 5.042-.91 2.261 0 4.144.405 5.65 1.214 1.504.808 2.257 2.17 2.257 4.087 0 .66-.128 1.303-.382 1.932a3.854 3.854 0 0 1-1.112 1.55c-.487.404-1.074.606-1.763.606-.914 0-1.632-.355-2.156-1.067-.525-.71-.787-1.643-.787-2.796 0-.898.15-1.74.45-2.527.3-.786.636-1.381 1.01-1.785-.27-.135-.651-.203-1.145-.203-1.078 0-1.89.315-2.437.944-.547.629-.82 1.542-.82 2.74 0 .749.165 1.49.494 2.224.33.733.726 1.478 1.19 2.234.465.757.81 1.33 1.034 1.719 1.018 1.737 1.73 3.144 2.134 4.222.404 1.079.606 2.134.606 3.167a6.147 6.147 0 0 1-1.056 3.504c-.703 1.048-1.748 1.88-3.133 2.493-1.385.614-3.05.921-4.998.921-2.47 0-4.507-.456-6.109-1.37-1.602-.913-2.403-2.418-2.403-4.514 0-1.168.284-2.145.853-2.932.57-.786 1.325-1.179 2.269-1.179.898 0 1.62.37 2.167 1.112.547.741.82 1.718.82 2.931 0 .6-.071 1.187-.213 1.763a12.042 12.042 0 0 1-.517 1.618c-.202.501-.385.924-.55 1.269zm39.06-18.643c.912-1.797 1.916-3.118 3.009-3.964 1.093-.846 2.313-1.27 3.661-1.27 2.111 0 3.691.645 4.74 1.932 1.047 1.288 1.571 3.145 1.571 5.57 0 2.531-.569 5.178-1.707 7.94-1.138 2.763-2.766 5.077-4.885 6.941-2.119 1.864-4.57 2.796-7.356 2.796-1.722 0-3.182-.314-4.38-.943l-.943 3.37c-.24.883-.36 1.556-.36 2.02 0 .87.3 1.457.9 1.764.598.307 1.564.475 2.897.505l-.27.966a992.05 992.05 0 0 1-3.156-.112c-1.64-.06-3.253-.09-4.84-.09-1.453 0-2.957.03-4.515.09l-2.897.112.27-.966c.748 0 1.347-.086 1.796-.258.45-.172.809-.46 1.078-.865.27-.404.51-.98.72-1.73l8.197-29.58c-.808 1.871-1.737 3.56-2.785 5.065-1.048 1.504-2.313 3.065-3.796 4.683l-.516-.607c1.317-1.482 2.403-2.785 3.256-3.908.854-1.123 1.719-2.504 2.595-4.144.876-1.64 1.748-3.642 2.616-6.008 3.01-.27 5.878-.854 8.603-1.752l-3.504 12.443zm-5.122 18.238c.39.12.779.18 1.168.18 1.333 0 2.65-.865 3.953-2.594 1.303-1.73 2.366-3.912 3.19-6.548.823-2.635 1.235-5.196 1.235-7.681 0-1.048-.045-1.842-.135-2.381-.09-.54-.213-.899-.37-1.078a.757.757 0 0 0-.596-.27c-.674 0-1.396.52-2.167 1.561-.771 1.041-1.494 2.43-2.168 4.167l-4.11 14.644zm44.36-6.626l-1.303 3.594c-.584 1.632-1.452 2.83-2.605 3.594-1.153.764-2.47 1.145-3.953 1.145-2.037 0-3.407-.599-4.11-1.797-.36-.613-.54-1.355-.54-2.223 0-.734.12-1.542.36-2.426l1.033-3.953c-1.168 2.8-2.291 4.953-3.37 6.457-1.077 1.505-2.174 2.539-3.29 3.1-1.115.562-2.4.842-3.852.842-1.392 0-2.46-.325-3.2-.977-.742-.651-1.112-1.606-1.112-2.863 0-.869.194-1.91.584-3.123l4.47-13.656c.15-.449.224-.816.224-1.1 0-.554-.262-.831-.786-.831-.899 0-1.707.965-2.426 2.897l-.966 2.583h-.876l1.146-3.37c1.108-3.159 3.302-4.738 6.58-4.738 1.543 0 2.737.363 3.583 1.089.846.726 1.27 1.808 1.27 3.246 0 1.063-.225 2.26-.674 3.593l-3.953 11.905c-.255.808-.382 1.407-.382 1.797 0 .464.157.696.471.696.75 0 1.7-.936 2.853-2.808 1.153-1.872 2.343-4.301 3.571-7.288a92.842 92.842 0 0 0 3.235-9.243l.606-2.336c3.384-.045 6.162-.262 8.333-.651l-5.795 20.619c-.195.629-.292 1.07-.292 1.325 0 .404.232.606.696.606.48 0 .921-.217 1.326-.65.404-.435.808-1.184 1.212-2.247l1.056-2.808h.876zM215.683 17.1c.898-1.603 1.85-2.774 2.852-3.516 1.004-.74 2.142-1.111 3.414-1.111 2.097 0 3.669.644 4.717 1.931 1.048 1.288 1.572 3.145 1.572 5.57 0 2.531-.606 5.178-1.819 7.94-1.213 2.763-2.95 5.077-5.21 6.941-2.262 1.864-4.867 2.796-7.817 2.796-1.453 0-2.658-.33-3.616-.988a7.254 7.254 0 0 0-1.842-.247c-1.528 0-3.482.442-5.863 1.325l-.696-.337c.345-.644.689-1.542 1.033-2.695l8.446-28.39c.15-.555.224-.981.224-1.28 0-.615-.24-1.06-.718-1.337-.48-.277-1.28-.416-2.404-.416l.337-.966c2.426-.015 4.616-.18 6.57-.494a38.21 38.21 0 0 0 5.761-1.392L215.683 17.1zm-5.57 18.822c.404.135.808.202 1.212.202 1.318 0 2.628-.958 3.931-2.875s2.37-4.29 3.2-7.12c.832-2.83 1.247-5.48 1.247-7.951 0-1.004-.09-1.689-.27-2.055-.179-.367-.463-.55-.853-.55-.569 0-1.175.381-1.82 1.145-.643.763-1.272 1.804-1.886 3.122l-4.761 16.082zm25.425-2.83c-.09.33-.135.614-.135.853 0 .375.086.648.259.82a.843.843 0 0 0 .617.258c.3 0 .655-.19 1.067-.572.412-.382.835-1.157 1.27-2.325l.965-2.583h.876l-1.145 3.37c-.614 1.781-1.52 3.016-2.718 3.705a7.54 7.54 0 0 1-3.819 1.033c-1.527 0-2.717-.396-3.57-1.19-.854-.794-1.281-1.954-1.281-3.482 0-.943.18-2.028.539-3.256l7.03-23.405c.15-.554.225-.98.225-1.28 0-.614-.24-1.06-.719-1.336-.48-.277-1.28-.416-2.403-.416l.314-.966c2.44-.015 4.635-.18 6.581-.494a38.29 38.29 0 0 0 5.75-1.392l-9.703 32.658zm12.96-27.178c0-1.602.516-2.819 1.55-3.65 1.033-.83 2.388-1.246 4.065-1.246 1.333 0 2.347.265 3.044.797.696.532 1.044 1.314 1.044 2.347 0 .943-.247 1.778-.741 2.505-.494.726-1.172 1.287-2.033 1.684s-1.823.595-2.886.595c-1.318 0-2.321-.258-3.01-.775-.689-.516-1.033-1.269-1.033-2.257zm-1.932 11.118c.165-.434.247-.816.247-1.145 0-.524-.217-.786-.651-.786-.48 0-.921.217-1.325.651-.405.434-.809 1.183-1.213 2.246l-1.056 2.808h-.876l1.28-3.594c1.153-3.16 3.444-4.74 6.874-4.74 1.647 0 2.856.397 3.627 1.191.771.794 1.157 1.812 1.157 3.055 0 .734-.128 1.467-.382 2.2l-4.784 14.174c-.15.449-.225.823-.225 1.123 0 .539.262.808.786.808.899 0 1.707-.965 2.426-2.897l.966-2.583h.876l-1.146 3.37c-1.078 3.159-3.272 4.738-6.58 4.738-1.558 0-2.763-.366-3.617-1.1-.854-.734-1.28-1.82-1.28-3.257 0-1.018.224-2.209.674-3.571l4.222-12.69zm26.908 14.443c-2.65 4.117-6.162 6.176-10.534 6.176-1.602 0-3.02-.265-4.256-.797-1.236-.532-2.201-1.34-2.898-2.426-.696-1.085-1.044-2.437-1.044-4.054 0-2.725.707-5.48 2.122-8.266 1.415-2.785 3.41-5.087 5.986-6.906 2.576-1.82 5.503-2.73 8.782-2.73 1.228 0 2.295.218 3.201.652.906.434 1.595 1.015 2.067 1.74.471.727.707 1.524.707 2.393 0 .973-.247 1.928-.741 2.864a6.476 6.476 0 0 1-1.988 2.29c-.831.592-1.718.888-2.662.888a3.266 3.266 0 0 1-1.538-.37 2.885 2.885 0 0 1-1.146-1.101c-.292-.487-.438-1.075-.438-1.764 0-.958.217-1.856.652-2.695a6.862 6.862 0 0 1 1.718-2.145 6.62 6.62 0 0 1 2.325-1.269c-.42-.374-.944-.561-1.573-.561-1.482 0-2.908.82-4.278 2.459-1.37 1.64-2.479 3.755-3.325 6.345a25.316 25.316 0 0 0-1.269 7.906c0 1.588.326 2.767.977 3.538.652.771 1.554 1.157 2.707 1.157.973 0 1.91-.277 2.808-.831.898-.554 1.804-1.505 2.717-2.853l.921.36zm5.75 4.874c.464.224 1.003.337 1.617.337.959 0 1.748-.319 2.37-.955.621-.636.932-1.486.932-2.55 0-.958-.228-1.987-.685-3.088-.457-1.1-1.12-2.354-1.988-3.762a70.408 70.408 0 0 1-1.56-2.628 10.892 10.892 0 0 1-.832-1.976 7.55 7.55 0 0 1-.348-2.291c0-1.333.34-2.524 1.022-3.572.681-1.048 1.707-1.875 3.077-2.482 1.37-.606 3.05-.91 5.042-.91 2.262 0 4.145.405 5.65 1.214 1.504.808 2.257 2.17 2.257 4.087 0 .66-.128 1.303-.382 1.932a3.854 3.854 0 0 1-1.112 1.55c-.487.404-1.074.606-1.763.606-.914 0-1.632-.355-2.156-1.067-.524-.71-.786-1.643-.786-2.796 0-.898.15-1.74.449-2.527.3-.786.636-1.381 1.01-1.785-.27-.135-.65-.203-1.145-.203-1.078 0-1.89.315-2.437.944-.547.629-.82 1.542-.82 2.74 0 .749.165 1.49.494 2.224.33.733.727 1.478 1.19 2.234.465.757.81 1.33 1.034 1.719 1.018 1.737 1.73 3.144 2.134 4.222.404 1.079.606 2.134.606 3.167a6.147 6.147 0 0 1-1.056 3.504c-.703 1.048-1.748 1.88-3.133 2.493-1.385.614-3.05.921-4.997.921-2.471 0-4.508-.456-6.11-1.37-1.602-.913-2.403-2.418-2.403-4.514 0-1.168.284-2.145.853-2.932.57-.786 1.326-1.179 2.269-1.179.898 0 1.62.37 2.167 1.112.547.741.82 1.718.82 2.931 0 .6-.07 1.187-.213 1.763a12.042 12.042 0 0 1-.517 1.618c-.202.501-.385.924-.55 1.269zm25.92-1.73c0-.943.224-1.786.673-2.527a4.737 4.737 0 0 1 1.842-1.74c.779-.42 1.655-.63 2.628-.63 1.183 0 2.085.266 2.707.798.621.532.932 1.314.932 2.347 0 .809-.232 1.58-.697 2.314a5.34 5.34 0 0 1-1.886 1.785 5.132 5.132 0 0 1-2.606.685c-1.183 0-2.077-.258-2.684-.775-.606-.516-.91-1.269-.91-2.257zm4.582-17.25c0-.943.224-1.786.673-2.527a4.737 4.737 0 0 1 1.842-1.74c.779-.42 1.655-.63 2.628-.63 1.183 0 2.085.266 2.707.798.621.532.932 1.314.932 2.347 0 .809-.232 1.58-.696 2.314a5.34 5.34 0 0 1-1.887 1.785 5.132 5.132 0 0 1-2.606.685c-1.183 0-2.077-.258-2.684-.775-.606-.516-.91-1.269-.91-2.257z"/>
    </g>
</svg>
