<svg xmlns="http://www.w3.org/2000/svg" xmlns:xlink="http://www.w3.org/1999/xlink" width="262" height="148" viewBox="0 0 262 148">
    <defs>
        <path id="a" d="M0 0h262v147.635H0z"/>
    </defs>
    <g fill="none" fill-rule="evenodd">
        <mask id="b" fill="#fff">
            <use xlink:href="#a"/>
        </mask>
        <use fill="#000" fill-opacity=".05" xlink:href="#a"/>
        <g mask="url(#b)">
            <path fill="#000" d="M68.92 64.283V49.695h3.398v14.724c0 1.431.576 2.134 1.81 2.134 1.233 0 1.809-.703 1.809-2.134V49.695h3.399v14.588c0 3.35-1.974 5.187-5.208 5.187-3.235 0-5.209-1.837-5.209-5.187zM85.694 69.2h-3.07V49.695h3.152l4.14 11.158h.054V49.695h3.07V69.2h-2.96L85.75 57.016h-.055V69.2zm20.12 0H96.33V49.695h9.1v2.918H99.73v5.025h4.385v2.917H99.73v5.728h6.085V69.2zm19.023-12.994h-3.399v-1.513c0-1.648-.767-2.35-1.644-2.35-1.37 0-1.81.702-1.81 2.16v9.889c0 1.458.44 2.16 1.81 2.16 1.233 0 1.644-.702 1.644-1.971v-2.35h3.4v2.242c0 2.755-1.645 4.997-5.044 4.997-3.564 0-5.208-2.242-5.208-4.997v-10.05c0-2.756 1.644-4.998 5.208-4.998 3.399 0 5.043 2.431 5.043 5.349v1.432zm6.853 12.994h-3.399V49.695h3.4v7.943h3.617v-7.943h3.4V69.2h-3.4v-8.645h-3.618V69.2zm14.72-15.615l-1.343 8.375h2.741l-1.343-8.375h-.055zm-1.837 11.293l-.603 4.322h-3.289l3.646-19.505h4.221l3.646 19.505h-3.29l-.603-4.322h-3.728zm12.664 4.322h-3.07V49.695h3.153l4.139 11.158h.055V49.695h3.07V69.2h-2.96l-4.332-12.184h-.055V69.2zm20.888-12.994h-3.4v-1.513c0-1.648-.767-2.35-1.644-2.35-1.37 0-1.809.702-1.809 2.16v9.889c0 1.458.439 2.16 1.81 2.16 1.233 0 1.644-.702 1.644-1.971v-2.35h3.399v2.242c0 2.755-1.645 4.997-5.044 4.997-3.563 0-5.208-2.242-5.208-4.997v-10.05c0-2.756 1.645-4.998 5.208-4.998 3.4 0 5.044 2.431 5.044 5.349v1.432zM191.064 69.2h-9.484V49.695h9.1v2.918h-5.701v5.025h4.385v2.917h-4.385v5.728h6.085V69.2z"/>
            <path fill="#2999D5" d="M40.44 79.318c.344-.968.785-1.888 1.276-2.783.491-.87.54-1.814.516-2.782 0-.339-.221-.46-.54-.339-.786.29-1.424.75-1.988 1.331-.81.774-1.62 1.548-2.406 2.371a16.955 16.955 0 0 0-1.35 1.573c-.368.508-.467 1.137-.663 1.741-.54 1.67-.86 3.387-1.522 5.008-.074.146-.098.315-.123.484-.172.653-.319 1.33-.49 2.008a1.563 1.563 0 0 0-.074.678c.024.484-.123.895-.516 1.21-.147.12-.27.265-.417.435-.786-.847-1.326-1.79-1.424-2.903-.123-1.234-.049-2.492.123-3.726.22-1.621.638-3.17.933-4.766a20.86 20.86 0 0 1 .76-2.952c.467-1.475.737-3.024 1.13-4.5.147-.508.196-1.04.074-1.572-.123-.532.368-.895.932-.75.909.218 1.522.75 1.94 1.548.122.194.196.436.294.63.491.87.467 1.765.246 2.685-.123.484-.246.943-.295 1.524.442-.097.663-.387.884-.653.392-.484.883-.896 1.35-1.307a4.998 4.998 0 0 1 2.062-1.185c1.08-.315 1.94-.024 2.626.798.712.823 1.056 1.742.786 2.807-.05.12-.05.266-.05.387.074 1.016-.392 1.862-.834 2.71-.343.652-.712 1.281-1.006 1.935-.418.895-1.105 1.572-1.866 2.177-.098.073-.245.17-.344.17-.466-.049-.834.217-1.202.41-.467.267-.933.315-1.424-.024-.196-.145-.442-.266-.687-.387-.074-.048-.197-.096-.246-.169-.27-.629-.81-1.137-.957-1.814a1.198 1.198 0 0 1-.05-.29c0-.05.025-.146.074-.17.025-.024.123-.048.172 0 .32.17.614.411.933.58.81.412 1.227.34 1.89-.266.59-.556 1.13-1.137 1.497-1.838.025 0 .074-.024.074-.024h-.098zM54.137 78.3c.246.992-.122 2.033-.22 3.097-.074.823-.491 1.597-.909 2.323-.368.605-.81 1.185-1.227 1.766-.221.338-.54.508-.81.75-.638.629-1.301 1.21-1.915 1.838-.687.702-1.522.92-2.381 1.162-.761.242-1.424 0-2.062-.412-.074-.048-.172-.096-.22-.169-.615-.677-1.18-1.355-1.45-2.298a13.254 13.254 0 0 1-.49-2.952c-.05-1.451.196-2.806.614-4.137.662-2.008 1.521-3.895 2.503-5.71.393-.774.835-1.548 1.424-2.201.27-.315.565-.58.982-.556.172 0 .344-.049.515-.121.221-.121.442-.097.663-.025.27.097.491.121.761.073.59-.121 1.301.58 1.277 1.282-.025.412.122.58.442.678.515.145.908.435 1.153.967.05.121.123.218.197.315 1.03 1.113 1.227 2.54 1.153 4.04v.29zm-5.768 1.404c-.54-.218-.86-.436-1.179-.775-.196-.217-.392-.145-.515.17-.245.605-.417 1.21-.663 1.814-.466 1.137-.663 2.347-.687 3.605-.025.46.074.895.147 1.355.05.266.197.484.368.653.221.266.418.315.712.145.246-.145.516-.314.737-.508 1.473-1.306 2.774-2.806 3.73-4.62a10.504 10.504 0 0 0 1.253-4.428c.049-.63-.025-1.234-.123-1.839a2.87 2.87 0 0 0-.32-.798c-.17-.242-.343-.29-.54-.145-.466.387-.932.75-1.226 1.355-.393.846-.86 1.645-1.203 2.491-.197.46-.614.823-.491 1.525zm18.46 7.5c-.05.193.073.362-.025.58-.81.145-1.277-.29-1.596-.968a1.386 1.386 0 0 1-.122-.338c-.295-1.307-.81-2.565-.884-3.92 0-.12-.025-.242-.05-.362-.048-.17-.196-.218-.367-.17-.369.073-.614.315-.81.58-.516.702-.982 1.404-1.498 2.057-.614.823-1.301 1.597-1.964 2.371-.122.145-.245.29-.319.46-.245.363-.54.677-1.03.701-.32.218-.713.194-1.08.267-.443.072-.811-.049-1.007-.484-.05-.121-.074-.218-.221-.266-.123-.025-.295-.097-.295-.194-.098-.339-.417-.508-.54-.823-.54-1.282-.76-2.588-.785-3.991-.025-1.476.147-2.904.368-4.331.27-1.79.687-3.532 1.35-5.226.294-.75.515-1.524.76-2.322.737.12 1.45.387 2.136.629.933.338 1.424 1.403 1.007 2.298-.491 1.137-.786 2.347-1.154 3.532-.442 1.452-.712 2.952-.982 4.452-.196 1.113-.22 2.226-.196 3.339 0 .145.024.266.049.387.025.193.147.266.32.169.343-.218.711-.411 1.055-.653.172-.121.368-.242.49-.412 1.105-1.33 2.112-2.71 2.848-4.282.074-.193.196-.387.246-.605.319-1.16.81-2.274 1.006-3.483.05-.363.172-.702.32-1.065.097-.242.146-.46.122-.726-.074-.41.147-.701.442-.967.245-.218.515-.194.785-.121.197.048.418-.097.54.096.197.34.54.605.516 1.065-.074.629-.074 1.258-.147 1.863-.025.387-.025.75.098 1.113.589 1.645.589 3.338.662 5.056 0 .532.025 1.065.074 1.573.074 1.064.074 2.104-.123 3.12zm-8.715.991h.05-.05zm11.734-20.685c.49 0 .957-.024 1.399 0 .196 0 .368.024.565.073.785.218 1.153.701 1.129 1.524-.025.774-.025 1.524-.05 2.298 0 .121-.049.29.123.436.246 0 .393-.242.614-.339.22-.097.442-.218.638-.363.27-.217.59-.29.908-.435.712-.315 1.449-.121 2.16.024.295.048.467.242.59.532.442.92.589 1.887.417 2.903a23.31 23.31 0 0 1-.589 2.662c-.123.387-.295.725-.59 1.016-.416.484-.785 1.016-1.251 1.451-.295.266-.32.581-.172.92.466 1.088.663 2.274.982 3.41.245.8.49 1.622.785 2.42a93.608 93.608 0 0 0 1.4 3.653c.147.363.294.726.343 1.113.025.121.05.242.099.363.687 1.428 1.472 2.782 2.773 3.798.246.194.54.412.835.557.368.17.638.46.933.702.294.217.27.556.319.822.074.266-.295.508-.565.436-.147-.049-.294-.073-.417-.17-.933-.798-2.037-1.355-2.995-2.129-1.104-.87-2.11-1.863-2.896-3.024-.54-.847-1.08-1.693-1.522-2.589a68.728 68.728 0 0 1-1.89-4.354 24.967 24.967 0 0 1-1.203-3.992c-.074-.315-.221-.63-.32-.944-.073-.217-.073-.58-.368-.532-.245.024-.196.411-.22.629l-.369 3.532c-.024.145 0 .315-.049.46-.368.822-.343 1.718-.417 2.589a7.101 7.101 0 0 1-.393 1.766c-.074.29-.147.701-.638.484a.267.267 0 0 0-.172.072c-.368.339-.663.145-.982-.072a.522.522 0 0 1-.245-.46c-.025-.508-.025-1.016-.05-1.549-.073-1.717-.024-3.46.074-5.177.098-1.79.32-3.556.491-5.347.172-1.766.393-3.556.59-5.322.073-.58.171-1.137.22-1.718.074-.605.221-1.185-.024-1.79-.05-.097 0-.218 0-.339zm2.356 10.984c.516-.194 1.007-.218 1.473-.218.172 0 .344.049.368.218.074.314.246.266.467.17.368-.17.613-.412.687-.823.05-.194.147-.387.221-.58.736-1.477.957-3.05.884-4.694 0-.073-.025-.17-.05-.266-.024-.146-.245-.242-.368-.146-.54.46-1.202.799-1.62 1.452-.638.992-1.178 2.032-1.694 3.097-.147.266-.196.58-.319.846-.098.29-.122.581-.049.944zm24.204 5.201c.025.218.074.436.098.654.025.242.05.484 0 .677-.073.315-.27.58-.368.871-.098.266.05.58-.172.823-.074.072-.123.145-.123.242-.073.725-.54 1.306-.883 1.91-.099.17-.148.315-.221.485-.05.12-.123.266-.197.387-.098.145-.245.218-.417.266-.638.193-1.055.847-1.816.726a.552.552 0 0 1-.369-.194c-.024-.072-.122-.17-.171-.17-.761.073-1.056-.652-1.645-.87a.294.294 0 0 1-.123-.121c-.736-1.21-1.227-2.468-1.154-3.92.074-1.136.123-2.298.197-3.435.073-.92.196-1.839.294-2.758.05-.314.074-.629.074-.943.05-.654.22-1.307.368-1.936.344-1.645.712-3.266 1.35-4.814.54-1.33 1.154-2.589 2.185-3.605.123-.145.22-.29.295-.411.122-.17.294-.363.466-.387.76-.146 1.497-.484 2.307-.29.958.217 1.67.943 1.694 1.91.025.92.098 1.84-.098 2.759-.025.145-.05.29-.025.435.025.92-.147 1.839-.147 2.758-.024.871-.196 1.718-.22 2.565-.025.556-.467.774-.81 1.064-.05.048-.173.048-.246.024-.467-.12-.909-.29-1.105-.774-.147-.411-.27-.823-.024-1.234.098-.145.122-.314.147-.508.049-.87.123-1.766.172-2.661.049-.75.122-1.5.147-2.25 0-.484-.05-.968-.098-1.452 0-.072-.074-.169-.123-.193-.074-.024-.196 0-.245.048-.295.29-.54.605-.688.992-.466 1.21-1.006 2.395-1.374 3.63-.099.338-.123.676-.221 1.015-.246.847-.467 1.718-.712 2.565-.393 1.379-.688 2.782-.81 4.233-.098.799-.27 1.597-.295 2.396-.049 1.064-.294 2.153-.049 3.241.074.436.172.847.393 1.234.147.266.319.315.564.145.295-.217.614-.435.86-.725.957-1.113 1.89-2.25 2.7-3.484.122-.17.22-.339.368-.508.098-.121.074-.339.27-.412zm15.907-6.096c.073.024.122.145.049.193-.54.266-.565.896-1.007 1.234-.147.121-.122.315-.147.484-.172.944-.295 1.887-.54 2.806-.147.484-.27.992-.417 1.5a5.77 5.77 0 0 1-.393 1.017c-.295.604-.491 1.233-.663 1.887-.172.677-.589 1.233-.933 1.814-.098.194-.171.339-.122.557.024.29-.221.29-.393.314-.05-.097-.05-.193-.098-.218-.491-.145-.565-.532-.59-.943a6.77 6.77 0 0 1 .074-1.718c.27-1.814.565-3.629.933-5.42 0-.048 0-.072.025-.096.098-.702.024-.726-.688-.484l-.834.218c-.81.17-1.596.363-2.406.484-.368.072-.54.29-.614.629-.098.387-.196.774-.245 1.185-.197 1.065-.32 2.153-.688 3.194-.122.314-.245.653-.22.992.049.411-.246.701-.369 1.064-.049.17-.27.218-.442.121-.441-.218-.711-.556-.883-1.016-.368-1.016-.491-2.08-.491-3.145 0-.508.049-1.04.049-1.548 0-.17-.123-.29-.27-.242-.295.048-.59.096-.86.217-.466.194-.957.146-1.448.121-.589-.048-1.055-.314-1.374-.822-.147-.266-.344-.532-.516-.799-.147-.217-.098-.435.148-.58a1.72 1.72 0 0 1 .319-.121c1.178-.436 2.356-.847 3.584-1.161.098-.025.22-.049.343-.097.442-.121.688-.363.761-.871.27-1.887.638-3.75.958-5.613.147-.992.245-2.008.368-3 .049-.46-.05-.92-.098-1.379-.074-.58 0-.653.564-.895.614-.266 1.154-.073 1.62.29.491.412.81.944.884 1.621.098.847.147 1.645.025 2.492-.27 1.936-.54 3.871-.909 5.782 0 .097 0 .17-.024.266 0 .242.073.339.294.315.491 0 1.007 0 1.473-.073a16.48 16.48 0 0 1 1.498-.145c.196 0 .392-.024.589-.072.27-.049.392-.218.442-.484.098-.775.22-1.524.343-2.299.148-.992.27-1.984.418-3 .073-.46.098-.895-.05-1.354-.171-.484.27-.896.786-.823 1.718.29 2.504 1.573 2.234 2.952a132.173 132.173 0 0 1-.54 3.048l-.221 1.282c-.025.145.073.218.196.242.172.048.344.048.516.097zm-4.566 11.83l-.025-.024h.025v.024zm14.213-15.943c-.025 1.766-.147 3.097-.27 4.403 0 .194-.05.411-.05.605-.048 1.79-.343 3.556-.588 5.322-.05.436-.123.847-.148 1.283-.024.556-.073 1.088-.245 1.62a3.011 3.011 0 0 0-.123.678c-.024.315-.024.605-.295.871-.196.194-.171.556-.147.798.098.75-.27 1.258-.736 1.742-.05.073-.123.145-.172.194-.147.193-.295.12-.442.024-.614-.46-1.006-1.016-1.105-1.79-.098-.678-.196-1.355-.073-2.057.073-.46.073-.919.073-1.379-.024-1.064.172-2.129.197-3.193 0-.17-.123-.29-.27-.242-.761.218-1.498.072-2.259-.073-.22-.048-.441-.072-.687-.12-.417-.073-.442-.073-.589.29-.295.725-.565 1.451-.86 2.177-.466 1.185-.932 2.395-1.423 3.605-.074.218-.196.411-.319.605-.295.58-.81.798-1.424.87a.41.41 0 0 1-.393-.145c-.368-.387-.711-.798-.834-1.33 0-.049 0-.121.024-.17.516-.725.59-1.62.909-2.419.442-1.113.81-2.274 1.276-3.387.172-.484.27-.992.638-1.403.197-.242-.294-.63.148-.847.319-.17.392-.484.54-.774.343-.75.662-1.524 1.006-2.274l1.62-3.63c.565-1.33 1.277-2.588 1.792-3.943.098-.29.246-.556.246-.895.024-.338.172-.58.564-.677.344-.073.737-.145.982-.484.05-.024.123-.073.172-.048.687.145 1.4.217 1.89.87.663.896 1.105 1.84 1.178 2.928.074.943.221 1.887.197 2.395zm-6.702 6.12c.54.219 1.154.364 1.67.678.196.097.466.073.687.024.294-.024.442-.145.49-.41.025-.267.05-.533.05-.775-.025-1.573.05-3.17.147-4.742.05-.629 0-1.258 0-1.887 0-.048-.049-.097-.098-.12-.098-.073-.172 0-.196.072-.344.75-.712 1.524-1.031 2.274-.172.363-.369.75-.418 1.137-.073.46-.245.87-.417 1.306l-.736 1.742a1.244 1.244 0 0 0-.148.702zm8.175-1.33c0-1.161.049-2.032.245-2.903.172-.847.368-1.693.565-2.516.073-.315.172-.605.27-.92.122-.338.319-.677.319-1.064-.025-.387.22-.556.54-.701.024 0 .049-.025.074-.025.883.049 1.669-.46 2.552-.46.393 0 .761 0 1.13.122 1.718.484 3.044 1.427 3.682 3.145.122.338.319.605.54.87.245.218.368.509.466.823.491 1.524.688 3.097.688 4.67 0 .919-.148 1.814-.516 2.685a31.222 31.222 0 0 1-1.4 2.879c-.22.435-.196.798.025 1.21a11.553 11.553 0 0 1 1.105 3.629c0 .169.074.314.123.483.073.363.147.726.073 1.113-.024.194-.049.412 0 .605.123.436-.294.726-.27 1.137-.27.121-.49.315-.785.266-.344-.072-.614-.217-.761-.532l-.295-.726c-.27-.75-.54-1.524-.736-2.298a17.384 17.384 0 0 0-.54-1.452c-.147-.363-.393-.46-.786-.338l-.319.145c-.319.17-.663.193-.982.024-.147-.073-.27-.145-.417-.17-.565-.048-.957-.386-1.301-.774-.27-.29-.54-.532-.786-.798-.22-.242-.441-.484-.638-.726-.957-1.354-1.448-2.903-1.669-4.5-.147-1.04-.344-2.104-.196-2.903zm7.413 4.524c.098-.12.196-.217.27-.338.074-.121.147-.242.196-.387l.442-1.38c.344-1.257.418-2.564.442-3.846 0-.218.025-.46-.172-.653-.172-.121-.343.048-.515.024-.098-.049-.221-.024-.344-.049-.319-.096-.638-.241-.712-.556-.073-.387-.245-.774-.196-1.185.024-.267-.05-.509-.147-.75-.197-.533-.246-.533-.786-.218-.295.145-.466.363-.663.629-.122.193-.172.532-.466.556-.393.049-.442.315-.54.605-.344 1.161-.491 2.347-.688 3.532-.27 1.718.025 3.387.32 5.057.122.701.466 1.354.883 1.935.05.097.148.194.27.17.467-.025.884-.63.737-1.065-.246-.677-.467-1.355-.737-2.032-.147-.339-.147-.726-.22-1.089-.05-.218.147-.532.368-.629.196-.073.319.073.466.17.515.386 1.031.798 1.473 1.306.073.072.196.12.319.193zm16.668 4.403c-.05.194.073.363-.025.581-.81.145-1.276-.29-1.595-.968a1.386 1.386 0 0 1-.123-.338c-.295-1.307-.81-2.565-.884-3.92 0-.12-.024-.242-.049-.362-.05-.17-.196-.218-.368-.17-.368.073-.614.315-.81.58-.516.702-.982 1.404-1.498 2.057-.613.823-1.3 1.597-1.963 2.371-.123.145-.246.29-.32.46-.245.363-.54.677-1.03.701-.32.218-.712.194-1.08.267-.443.072-.81-.049-1.007-.484-.05-.121-.074-.218-.221-.266-.123-.025-.295-.097-.295-.194-.098-.339-.417-.508-.54-.823-.54-1.282-.76-2.588-.785-3.991-.025-1.476.147-2.904.368-4.331.27-1.79.687-3.532 1.35-5.226.295-.75.516-1.524.761-2.322.737.12 1.448.387 2.136.629.933.338 1.423 1.403 1.006 2.298-.49 1.137-.785 2.347-1.154 3.532-.441 1.452-.711 2.952-.981 4.452-.197 1.113-.221 2.226-.197 3.339 0 .145.025.266.05.387.024.193.147.266.318.169.344-.218.712-.411 1.056-.653.172-.121.368-.242.49-.412 1.106-1.33 2.112-2.71 2.848-4.282.074-.193.197-.387.246-.605.319-1.16.81-2.274 1.006-3.483.05-.363.172-.702.32-1.065.098-.242.147-.46.122-.726-.074-.41.147-.701.442-.967.245-.218.515-.194.786-.121.196.048.417-.097.54.096.196.34.54.605.515 1.065-.074.629-.074 1.258-.147 1.863-.025.387-.025.75.098 1.113.59 1.645.59 3.338.663 5.056 0 .532.024 1.065.073 1.573.074 1.064.074 2.104-.122 3.12zm-8.715.992h.05-.05zm9.5-3.048c.025-.798.147-1.548.295-2.322l.22-1.283c.05-.217.099-.411.197-.605.196-.435.368-.895.295-1.403-.025-.17.049-.363.073-.532.32-1.379.737-2.758 1.154-4.113.123-.387.245-.774.344-1.185.147-.533.392-1.065.589-1.597.073-.194.196-.266.417-.29.123 0 .246-.049.368-.073.516-.145 1.007-.266 1.449.145.122.121.294.097.441.024.099-.048.197-.072.295-.12 1.645-.799 3.388-1.355 5.081-2.081.639-.266 1.326-.436 2.013-.653.368-.121.737-.242 1.13-.339.196-.073.392-.097.613-.121.172 0 .368.242.27.387-.196.242-.123.557-.294.798-.148.218-.344.388-.442.678-.05.193-.27.29-.491.363-.27.097-.516.266-.688.484-.343.435-.81.653-1.3.822-.467.194-.909.436-1.326.653-1.277.63-2.504 1.307-3.83 1.79-.147.073-.294.146-.441.17-.614 0-.761.387-.909.871-.22.798-.515 1.573-.76 2.347l-.418 1.427c-.025.145.098.242.246.218l1.89-.508c.49-.121.982-.145 1.497-.145.196.024.27.12.246.314-.025.17-.099.315-.025.46.025.048.025.12 0 .145-.32.242-.417.702-.835.87-.245.098-.466.243-.515.557-.05.146-.197.218-.344.315-.49.29-1.006.532-1.57.653-.32.073-.664.097-1.007 0-.368-.12-.393-.097-.491.339-.295.943-.393 1.911-.59 2.855-.048.169-.024.314-.024.483 0 .121.172.194.295.121.196-.12.392-.242.589-.387a21.331 21.331 0 0 1 4.345-2.467c.417-.17.834-.34 1.276-.363.32-.024.368.097.467.387.147.387-.074.726-.099 1.113-.024.266-.27.484-.466.677-.27.242-.565.46-.712.823-.049.072-.147.12-.245.193-1.13.75-2.259 1.476-3.388 2.25-.49.339-1.03.484-1.571.653-.147.049-.27.025-.393.025-.736-.049-1.374-.363-1.89-.871-.663-.678-1.03-1.525-1.03-2.492v-.46zm29.408-13.742c.024 2.057.024 4.137.049 6.194 0 1.185-.147 2.37-.22 3.532-.05.798-.197 1.597-.37 2.37-.367 1.694-.76 3.364-1.153 5.057a2.98 2.98 0 0 1-1.203 1.815c-.417.29-.736.653-1.276.653l-.933-.048c-.295-.267-.687-.218-1.006-.387-.172-.049-.32-.097-.491-.121-.32-.049-.59-.146-.761-.436-.123-.218-.27-.072-.393.073-.221-.29-.54-.387-.908-.339-.197.048-.393.024-.614 0l.22-.194c.148-.145.148-.29-.024-.338-.441-.097-.564-.412-.662-.799-.246-.943-.197-1.887.196-2.782.172-.363.147-.798.417-1.113.123-.17.221-.17.344-.024.344.339.442.75.295 1.234-.295.943.049 1.79.515 2.589.147.217.27.362.491.435.295.097.54.218.835.315.27.096.441 0 .564-.267.467-1.258 1.007-2.491 1.252-3.846.196-1.137.417-2.25.614-3.387.22-1.38.49-2.783.613-4.162.123-1.96.246-3.919.074-5.854-.024-.315 0-.63 0-.944l-.074-3.46c0-.145 0-.29.025-.41.05-.267.27-.388.515-.315.32.072.491.314.761.46.516.29.958.677 1.35 1.16.418.533.614 1.09.786 1.694.147.533.172 1.089.172 1.645zm-4.566 18.315l.05-.049h-.074l.024.049zm-4.762.072l-.025-.048c.025 0 .05 0 .074.024-.025 0-.025.024-.05.024zm1.595.339h-.024v-.024l.024.024zm1.817.387c.074-.048.123-.121.05-.194 0 0-.1.025-.124.073a.434.434 0 0 0-.122.17.468.468 0 0 0 .196-.049zm7.192-5.37c.025-.8.148-1.55.295-2.323l.22-1.283c.05-.217.1-.411.197-.605.197-.435.368-.895.295-1.403-.025-.17.049-.363.073-.532.32-1.379.737-2.758 1.154-4.113.123-.387.246-.774.344-1.185.147-.533.393-1.065.589-1.597.074-.194.196-.266.417-.29.123 0 .246-.049.369-.073.515-.145 1.006-.266 1.448.145.123.121.294.097.442.024.098-.048.196-.072.294-.12 1.645-.799 3.388-1.355 5.082-2.081.638-.266 1.325-.436 2.012-.653.369-.121.737-.242 1.13-.339.196-.073.392-.097.613-.121.172 0 .368.242.27.387-.196.242-.122.557-.294.798-.148.218-.344.388-.442.678-.05.193-.27.29-.491.363-.27.097-.516.266-.687.484-.344.435-.81.653-1.301.822-.467.194-.909.436-1.326.653-1.276.63-2.504 1.307-3.83 1.79-.147.073-.294.146-.441.17-.614 0-.761.387-.908.871-.221.798-.516 1.573-.761 2.347l-.418 1.427c-.024.145.098.242.246.218l1.89-.508c.49-.121.982-.145 1.497-.145.197.024.27.12.246.314-.025.17-.098.315-.025.46.025.048.025.12 0 .145-.319.242-.417.702-.834.87-.246.098-.467.243-.516.557-.049.146-.196.218-.344.315-.49.29-1.006.532-1.57.653-.32.073-.663.097-1.007 0-.368-.12-.393-.097-.491.339-.295.943-.393 1.911-.59 2.855-.048.169-.024.314-.024.483 0 .121.172.194.295.121.196-.12.393-.242.589-.387a21.331 21.331 0 0 1 4.345-2.467c.417-.17.835-.34 1.276-.363.32-.024.369.097.467.387.147.387-.074.726-.098 1.113-.025.266-.27.484-.467.677-.27.242-.564.46-.712.823-.049.072-.147.12-.245.193-1.13.75-2.259 1.476-3.388 2.25-.49.339-1.03.484-1.57.653-.148.049-.27.025-.393.025-.737-.049-1.375-.363-1.89-.871-.663-.678-1.032-1.525-1.032-2.492v-.46zm24.253 2.055c-.049.194.074.363-.024.581-.81.145-1.277-.29-1.596-.968a1.386 1.386 0 0 1-.123-.338c-.294-1.307-.81-2.565-.883-3.92 0-.12-.025-.242-.05-.362-.049-.17-.196-.218-.368-.17-.368.073-.613.315-.81.58-.515.702-.982 1.404-1.497 2.057-.614.823-1.301 1.597-1.964 2.371-.123.145-.245.29-.319.46-.246.363-.54.677-1.031.701-.32.218-.712.194-1.08.267-.442.072-.81-.049-1.007-.484-.049-.121-.073-.218-.22-.266-.123-.025-.295-.097-.295-.194-.098-.339-.417-.508-.54-.823-.54-1.282-.761-2.588-.786-3.991-.024-1.476.148-2.904.369-4.331.27-1.79.687-3.532 1.35-5.226.294-.75.515-1.524.76-2.322.737.12 1.449.387 2.136.629.933.338 1.424 1.403 1.007 2.298-.491 1.137-.786 2.347-1.154 3.532-.442 1.452-.712 2.952-.982 4.452-.196 1.113-.22 2.226-.196 3.339 0 .145.024.266.049.387.024.193.147.266.319.169.344-.218.712-.411 1.055-.653.172-.121.369-.242.491-.412 1.105-1.33 2.112-2.71 2.848-4.282.074-.193.196-.387.245-.605.32-1.16.81-2.274 1.007-3.483.049-.363.172-.702.319-1.065.098-.242.147-.46.123-.726-.074-.41.147-.701.442-.967.245-.218.515-.194.785-.121.196.048.417-.097.54.096.196.34.54.605.516 1.065-.074.629-.074 1.258-.148 1.863-.024.387-.024.75.099 1.113.589 1.645.589 3.338.662 5.056 0 .532.025 1.065.074 1.573.074 1.064.074 2.104-.123 3.12zm-8.714.992h.049-.05zm25.848-16.886a.772.772 0 0 0-.442.725c.025.412-.171.75-.368 1.09-.49.846-.957 1.717-1.448 2.588-.491.895-.835 1.838-1.277 2.758-.049.12-.098.242-.073.338.049.63-.27 1.113-.418 1.67-.22.653-.564 1.258-.76 1.911-.295 1.113-.761 2.153-.909 3.315a2.716 2.716 0 0 1-.147.604c-.098.34-.074.63.147.92a.842.842 0 0 1 .148.338c.049.242.024.46-.172.654-.246.242-.54.338-.86.41-.343.098-.613.073-.908-.12-.22-.145-.49-.194-.736-.29-.442-.146-.737-.436-.933-.871-.368-.871-.564-1.79-.712-2.71-.22-1.33-.442-2.661-.687-3.992-.074-.387-.221-.75-.32-1.137-.024-.048-.097-.097-.147-.097-.024 0-.098.049-.098.097-.172.968-.368 1.96-.49 2.927-.099.944-.27 1.863-.565 2.734-.098.29-.148.605-.221.895-.025.097-.025.242-.098.34-.491.628-.688 1.427-1.031 2.152-.197.412-.27.92-.442 1.355-.074.145-.197.218-.32.315-.073.048-.171.048-.22-.025-.246-.266-.516-.483-.614-.846-.147-.63-.319-1.234-.344-1.887-.049-1.646-.073-3.315.172-4.96.221-1.62.368-3.242.54-4.863l.172-.968c.098-.532.123-1.064.172-1.62.049-.799.22-1.597.393-2.396.098-.46.368-.75.859-.75.49.025.982-.12 1.473.025.442.169.785.363.982.822.147.315.319.63.638.847.442.314.663.847.859 1.33a84.091 84.091 0 0 1 1.67 4.09c.245.604.392 1.257.417 1.935.024.29-.025.604.294.87.442-.846 1.08-1.5 1.596-2.274.098-.145.172-.314.245-.483.737-2.008 1.915-3.775 2.897-5.662a.686.686 0 0 1 .147-.217c.54-.484.933-1.065 1.227-1.742.148-.29.442-.242.712-.145zm-3.338 13.838c.024-.798.147-1.548.294-2.322l.221-1.283c.05-.217.099-.411.197-.605.196-.435.368-.895.294-1.403-.024-.17.05-.363.074-.532.319-1.379.736-2.758 1.154-4.113.122-.387.245-.774.343-1.185.148-.533.393-1.065.59-1.597.073-.194.196-.266.417-.29.122 0 .245-.049.368-.073.515-.145 1.006-.266 1.448.145.123.121.295.097.442.024.098-.048.196-.072.295-.12 1.644-.799 3.387-1.355 5.081-2.081.638-.266 1.326-.436 2.013-.653a15.33 15.33 0 0 1 1.129-.339c.196-.073.393-.097.614-.121.172 0 .368.242.27.387-.197.242-.123.557-.295.798-.147.218-.343.388-.442.678-.049.193-.27.29-.49.363-.27.097-.516.266-.688.484-.344.435-.81.653-1.301.822-.466.194-.908.436-1.326.653-1.276.63-2.503 1.307-3.829 1.79-.147.073-.294.146-.442.17-.613 0-.76.387-.908.871-.22.798-.516 1.573-.761 2.347l-.417 1.427c-.025.145.098.242.245.218l1.89-.508c.491-.121.982-.145 1.498-.145.196.024.27.12.245.314-.024.17-.098.315-.024.46.024.048.024.12 0 .145-.32.242-.418.702-.835.87-.245.098-.466.243-.515.557-.05.146-.197.218-.344.315-.491.29-1.007.532-1.571.653-.32.073-.663.097-1.007 0-.368-.12-.392-.097-.49.339-.295.943-.393 1.911-.59 2.855-.049.169-.024.314-.024.483 0 .121.172.194.294.121.197-.12.393-.242.59-.387a21.331 21.331 0 0 1 4.344-2.467c.418-.17.835-.34 1.277-.363.319-.024.368.097.466.387.148.387-.073.726-.098 1.113-.025.266-.27.484-.466.677-.27.242-.565.46-.712.823-.05.072-.148.12-.246.193-1.129.75-2.258 1.476-3.387 2.25-.491.339-1.031.484-1.571.653-.148.049-.27.025-.393.025-.736-.049-1.375-.363-1.89-.871-.663-.678-1.031-1.525-1.031-2.492v-.46z"/>
        </g>
    </g>
</svg>
