<svg xmlns="http://www.w3.org/2000/svg" x="0px" y="0px" viewBox="0 0 89 48">
    <polygon fill="#ED1844" points="44,22.2 49,22.2 49,1.3 44,1.3 "/>
    <polygon fill="#ED1844" points="63.7,1.3 63.6,5.9 77.6,5.9 77.6,1.3 "/>
    <polygon fill="#ED1844" points="77.5,22.2 77.6,17.6 63.6,17.6 63.5,22.2 "/>
    <polygon fill="#ED1844" points="77.3,13.9 77.3,9.4 63.6,9.4 63.6,13.9 "/>
    <polygon fill="#ED1844" points="23.1,22.2 28.4,22.2 29.4,19.1 35.8,19.1 36.7,22.2 42,22.2 40.9,19.1 24.2,19.1 "/>
    <polygon fill="#ED1844" points="29.7,1.3 34.4,14.8 39.4,14.8 34.5,1.3 "/>
    <polygon fill="#ED1844" points="1.1,22.2 6.2,22.2 6.2,10.6 1.1,1.3 "/>
    <path fill="#ED1844" d="M6.8,41.2c-0.5-0.6-0.8-1.3-0.8-5.1s0.3-4.5,0.8-5.2c0.4-0.5,1.1-0.9,2-0.9v-4.6c-2.5,0-4.3,0.8-5.8,2.4
	C0.9,30,1,32.9,1,36.1c0,3.1-0.1,6.1,2.1,8.3c1.5,1.5,3.3,2.4,5.8,2.4v-4.6C7.9,42.2,7.2,41.7,6.8,41.2L6.8,41.2z"/>
    <polygon fill="#ED1844" points="27.2,25.6 27.2,25.6 25.5,25.6 25.5,25.6 "/>
    <path fill="#ED1844" d="M33.6,27.5c-0.4-0.4-0.8-0.7-1.3-1l0,0C32.7,26.8,33.2,27.1,33.6,27.5 M28.6,38.8h-1.4l3.7,7.8h5.9l-4.4-8.7
	C31.3,38.4,30.1,38.8,28.6,38.8"/>
    <polygon fill="#ED1844" points="25.5,38.8 25.5,38.8 27.2,38.8 27.2,38.8 "/>
    <path fill="#ED1844" d="M32.3,37.9c0.5-0.3,0.9-0.6,1.3-1C33.2,37.3,32.7,37.6,32.3,37.9L32.3,37.9z"/>
    <polygon fill="#ED1844" points="20.4,25.6 20.4,46.6 25.5,46.6 25.5,38.8 25.5,38.8 25.5,25.6 25.5,25.6 "/>
    <path fill="#ED1844" d="M49.6,39.1c0,0.8-0.2,1.6-0.8,2.2c-0.5,0.5-1.2,0.8-2.3,0.8c-0.9,0-1.6-0.4-2-0.9c-0.5-0.6-0.8-1.4-0.8-5.2
	s0.3-4.5,0.8-5.2c0.4-0.5,1.1-0.9,2-0.9c1.7,0,2.6,0.8,3,2.4h5.1c-0.5-3.4-2.8-6.9-8.1-6.9c-2.5,0-4.2,0.8-5.8,2.4
	c-2.2,2.2-2.1,5.2-2.1,8.3c0,3.1-0.1,6.1,2.1,8.3c1.5,1.5,3.3,2.4,5.8,2.4c2.3,0,4.2-0.5,6-2.4c1.3-1.4,1.9-3,2.1-5.6h-5V39.1z"/>
    <polygon fill="#ED1844" points="11.3,20 11.7,19.3 11.3,20 "/>
    <polygon fill="#ED1844" points="16.5,1.3 16.4,1.4 11.3,10.9 8.8,15.5 11.3,20 11.7,19.3 16.4,10.6 21.5,1.3 "/>
    <polygon fill="#253186" points="63.6,22.2 68.6,22.2 68.6,9.4 63.6,9.4 "/>
    <polygon fill="#253186" points="61.4,1.3 55.7,1.3 52.3,7.1 49.7,11.7 52.3,16.4 55.7,22.2 61.4,22.2 55.1,11.7 "/>
    <polygon fill="#253186" points="34.4,14.8 30.8,14.8 25.7,14.8 24.2,19.1 40.9,19.1 39.4,14.8 "/>
    <polygon fill="#253186" points="21.5,1.3 21.5,22.2 16.4,22.2 16.4,10.6 "/>
    <polygon fill="#253186" points="6.2,1.4 6.1,1.3 1.1,1.3 6.2,10.6 8.8,15.5 11.3,10.9 "/>
    <path fill="#253186" d="M14.7,27.8c-1.5-1.5-3.3-2.4-5.8-2.4V30c0.9,0,1.7,0.4,2,0.9c0.5,0.6,0.8,1.3,0.8,5.2c0,3.8-0.3,4.5-0.8,5.1
	c-0.4,0.5-1.1,0.9-2,0.9v4.6c2.5,0,4.3-0.8,5.8-2.4c2.2-2.2,2.1-5.2,2.1-8.3C16.7,32.9,16.8,30,14.7,27.8L14.7,27.8z M33.6,27.5
	c-0.4-0.4-0.9-0.7-1.3-0.9l0,0c-1-0.6-2.3-0.9-3.7-0.9h-1.4l0,0h-1.7v4.3v0.3h2.9c1.3,0,2.1,0.9,2.2,2c0,0.1,0,0.1,0,0.2
	c0,1.1-0.8,2.1-2.2,2.1h-2.9v4.3h1.7l0,0h1.4c1.5,0,2.7-0.3,3.7-0.9l0,0c0.4-0.2,0.9-0.5,1.3-0.9c1.3-1.2,2-3,2-4.7
	c0-0.1,0-0.1,0-0.2C35.7,30,34.7,28.5,33.6,27.5L33.6,27.5z M46.5,34.5v4.3h3.1h5c0-0.4,0-0.9,0-1.4v-2.9H46.5z M84.8,16.3
	c-1.8,0-3.2,1.4-3.2,3.3c0,1.8,1.4,3.3,3.2,3.3s3.2-1.5,3.2-3.3C88,17.7,86.6,16.3,84.8,16.3L84.8,16.3z"/>
</svg>
