<?xml version="1.0" encoding="UTF-8"?>
<svg width="824px" height="89px" viewBox="0 0 824 89" version="1.1" xmlns="http://www.w3.org/2000/svg" xmlns:xlink="http://www.w3.org/1999/xlink">
    <!-- Generator: Sketch 48.2 (47327) - http://www.bohemiancoding.com/sketch -->
    <title>logo lpae dark</title>
    <desc>Created with Sketch.</desc>
    <defs>
        <polygon id="path-1" points="0.00896511011 0.111266899 18.5789782 0.111266899 18.5789782 83.0677334 0.00896511011 83.0677334"></polygon>
        <polygon id="path-3" points="0.115182637 0.112740829 138.934174 0.112740829 138.934174 49.3319518 0.115182637 49.3319518"></polygon>
        <polygon id="path-5" points="0.10600884 0.113329246 196.858876 0.113329246 196.858876 30.2349044 0.10600884 30.2349044"></polygon>
    </defs>
    <g id="cercle-des-économistes" stroke="none" stroke-width="1" fill="none" fill-rule="evenodd">
        <g id="logo-lpae-dark">
            <g id="logo-outlines-dark" transform="translate(-16.000000, -14.000000)">
                <path d="M301.672787,23.8751999 L301.276787,25.5383999 C297.871187,25.6175999 297.316787,26.0135999 297.316787,27.8351998 C297.316787,30.0131997 297.356387,29.9735997 297.435587,31.3199997 L298.346387,43.7543992 L298.425587,43.7543992 L307.771186,29.6171997 C308.681986,28.2311998 309.117586,27.2807998 309.117586,26.5679998 C309.117586,25.7759999 308.721586,25.6175999 305.791186,25.5383999 L306.187186,23.8751999 L315.691186,23.8751999 L315.295186,25.5383999 C313.315186,25.6175999 312.443986,26.1719999 311.572786,27.4391998 L295.653587,51.1199989 L292.802387,51.1199989 L291.455987,28.7855998 C291.297587,26.0135999 290.584787,25.6175999 287.971187,25.5383999 L288.367187,23.8751999 L301.672787,23.8751999 Z M309.909586,43.4375992 C309.909586,37.2203994 316.087186,32.0327996 321.868786,32.0327996 C326.422786,32.0327996 330.184786,35.6759995 330.184786,40.1903993 C330.184786,46.4075991 324.640786,51.5951989 318.225586,51.5951989 C313.671586,51.5951989 309.909586,47.951999 309.909586,43.4375992 Z M318.146386,50.090399 C321.789586,50.090399 324.482386,41.5367993 324.482386,36.6263995 C324.482386,34.4087995 323.690386,33.5375996 321.947986,33.5375996 C318.146386,33.5375996 315.611986,43.0415992 315.611986,47.0015991 C315.611986,49.219199 316.403986,50.090399 318.146386,50.090399 Z M334.382385,34.0127996 L334.778385,32.5871996 L343.490385,32.4287996 C341.906385,37.7351994 339.134385,46.3679991 339.134385,47.753999 C339.134385,48.545999 339.569985,49.298399 340.401585,49.298399 C342.302385,49.298399 345.826785,45.1799991 348.044385,35.5175995 L348.717585,32.5871996 L354.419985,32.4287996 L351.172785,44.8235992 C350.816385,46.1303991 350.539185,47.3183991 350.539185,48.031199 C350.539185,48.823199 350.855985,49.060799 351.212385,49.060799 C352.321185,49.060799 354.103185,45.8531991 354.499185,45.1007991 L355.766385,45.7343991 C354.459585,48.308399 352.439985,51.5951989 349.153185,51.5951989 C346.618785,51.5951989 345.549585,49.733999 345.549585,47.595599 C345.549585,47.2787991 345.589185,46.9619991 345.628785,46.6055991 L345.549585,46.5263991 C343.648785,49.377599 341.827185,51.5951989 338.619585,51.5951989 C336.362385,51.5951989 334.144785,49.931999 334.144785,46.3679991 C334.144785,42.0911993 336.837585,36.7055995 336.837585,35.4383995 C336.837585,34.3295995 336.045585,34.0127996 334.382385,34.0127996 Z M359.567984,38.2103994 C359.567984,34.5671995 363.567584,32.0327996 368.359184,32.0327996 C373.903184,32.0327996 375.487184,34.4087995 375.487184,35.9135995 C375.487184,37.6559994 374.615984,38.5271994 372.715184,38.5271994 C371.170784,38.5271994 370.101584,37.6163994 370.101584,36.3095995 C370.101584,34.4879995 371.764784,34.3691995 371.764784,34.2503996 C371.764784,34.0523996 370.655984,33.5375996 368.675984,33.5375996 C366.656384,33.5375996 364.795184,34.7255995 364.795184,36.3491995 C364.795184,39.7547993 374.457584,39.1607994 374.457584,45.1007991 C374.457584,48.664799 370.576784,51.5951989 363.923984,51.5951989 C360.280784,51.5951989 356.637585,49.931999 356.637585,46.6451991 C356.637585,44.9819991 357.825584,43.9127992 359.726384,43.9127992 C361.231184,43.9127992 362.339984,45.1007991 362.339984,46.2887991 C362.339984,48.427199 360.359984,48.704399 360.359984,48.862799 C360.359984,49.456799 361.706384,50.090399 364.161584,50.090399 C367.408784,50.090399 369.071984,48.585599 369.071984,47.3975991 C369.071984,43.2791992 359.567984,44.3087992 359.567984,38.2103994 Z M405.820783,32.4287996 L411.681582,32.4287996 L408.196783,46.5263991 C407.998783,47.3975991 407.800783,48.466799 407.800783,48.823199 C407.800783,49.139999 407.879983,49.535999 408.355183,49.535999 C409.859982,49.535999 411.800382,45.8927991 412.196382,44.6651992 L413.503182,45.3779991 C412.235982,48.308399 410.374782,51.5951989 406.771183,51.5951989 C404.553583,51.5951989 403.207183,50.090399 402.811183,47.3975991 L402.731983,47.3975991 C401.147983,49.852799 399.603583,51.5951989 396.712783,51.5951989 C393.307183,51.5951989 389.663983,49.456799 389.663983,43.9523992 C389.663983,37.8935994 395.287183,32.0327996 400.831183,32.0327996 C403.286383,32.0327996 404.474383,33.3395996 405.107983,35.2007995 L405.187183,35.2007995 L405.820783,32.4287996 Z M404.157583,37.5371994 C404.157583,35.2007995 403.286383,34.0919996 401.702383,34.0919996 C398.059183,34.0919996 395.762383,42.8831992 395.762383,46.6847991 C395.762383,48.664799 396.395983,49.535999 397.742383,49.535999 C401.266783,49.535999 404.157583,41.6951993 404.157583,37.5371994 Z M416.908782,33.9335996 L417.304782,32.5871996 L425.779182,32.4287996 L422.531982,43.2791992 C422.135982,44.6651992 421.581582,46.2095991 421.581582,47.714399 C421.581582,49.219199 422.215182,49.931999 423.244782,49.931999 C427.679982,49.931999 431.719182,41.3783993 431.719182,37.5767994 C431.719182,36.9431995 431.639982,36.7055995 431.481582,36.7055995 C431.362782,36.7055995 430.927182,36.9431995 430.372782,36.9431995 C429.026382,36.9431995 428.075982,35.8343995 428.075982,34.4483995 C428.075982,32.9039996 428.947182,32.0327996 430.531182,32.0327996 C432.115182,32.0327996 433.382382,32.9039996 433.382382,36.4679995 C433.382382,43.1207992 428.392782,51.5951989 422.215182,51.5951989 C419.047182,51.5951989 416.433582,49.060799 416.433582,45.4967991 C416.433582,42.7247992 419.126382,36.8639995 419.126382,35.2799995 C419.126382,34.4879995 418.730382,34.0919996 416.908782,33.9335996 Z M452.390381,44.9423991 L453.617981,45.8135991 C451.400381,49.258799 449.143181,51.5951989 444.826781,51.5951989 C440.549981,51.5951989 436.431581,48.981599 436.431581,43.5167992 C436.431581,36.3491995 443.995181,32.0327996 448.945181,32.0327996 C452.627981,32.0327996 454.726781,33.8147996 454.726781,36.1115995 C454.726781,41.9327993 447.083981,42.6455992 442.807181,42.7247992 C442.609181,43.5959992 442.292381,45.2195991 442.292381,46.1303991 C442.292381,48.862799 443.321981,49.931999 445.539581,49.931999 C448.430381,49.931999 450.925181,47.1995991 452.390381,44.9423991 Z M449.895581,35.4779995 C449.895581,34.4879995 449.539181,33.6959996 448.549181,33.6959996 C445.777181,33.6959996 443.559581,38.9231994 443.242781,41.0615993 C446.450381,41.0615993 449.895581,39.0023994 449.895581,35.4779995 Z M474.56638,43.9919992 L475.83358,44.5463992 C474.44758,48.427199 472.26958,51.5951989 467.87398,51.5951989 C464.98318,51.5951989 463.63678,49.694399 460.310381,49.694399 C458.528381,49.694399 457.934381,50.1695989 456.746381,51.5951989 L455.479181,50.9615989 C457.855181,45.8135991 463.28038,42.4079992 467.71558,40.2299993 C470.84398,38.6855994 473.25958,37.2995994 474.24958,35.9927995 L474.17038,35.9135995 C472.54678,36.7847995 470.64598,37.4975994 468.78478,37.4975994 C466.48798,37.4975994 464.94358,36.6263995 463.04278,36.6263995 C462.052781,36.6263995 461.260781,37.3391994 460.310381,39.7943993 L459.122381,39.0815994 C460.310381,35.2799995 463.47838,32.0327996 466.80478,32.0327996 C469.18078,32.0327996 472.03198,33.6167996 473.61598,33.6167996 C475.16038,33.6167996 476.15038,33.1811996 477.17998,32.0327996 L478.28878,32.9039996 C475.08118,38.6459994 470.92318,40.9031993 464.27038,43.9919992 C461.933981,45.1007991 461.023181,46.0907991 459.755981,47.3183991 L459.835181,47.3975991 C462.052781,46.2491991 463.12198,45.4967991 465.29998,45.4967991 C468.15118,45.4967991 469.10158,47.0015991 471.08158,47.0015991 C472.86358,47.0015991 474.01198,45.5759991 474.56638,43.9919992 Z M503.632779,24.2711999 L498.128379,44.1107992 C497.375979,46.7639991 496.940379,48.466799 496.940379,48.981599 C496.940379,49.337999 497.177979,49.535999 497.573979,49.535999 C498.484779,49.535999 499.791579,47.635199 501.177579,45.4571991 L502.286379,46.2095991 C501.019179,48.743999 498.880779,51.5951989 495.752379,51.5951989 C493.099179,51.5951989 491.792379,49.852799 491.792379,47.595599 C491.792379,44.9423991 492.465579,43.0811992 493.455579,39.4775994 L496.385979,28.7459998 C496.504779,28.2707998 496.742379,27.5975998 496.742379,27.1619998 C496.742379,26.2511999 496.148379,25.9343999 493.970379,25.8551999 L494.366379,24.4295999 L503.632779,24.2711999 Z M520.225178,44.9423991 L521.452778,45.8135991 C519.235178,49.258799 516.977978,51.5951989 512.661579,51.5951989 C508.384779,51.5951989 504.266379,48.981599 504.266379,43.5167992 C504.266379,36.3491995 511.829979,32.0327996 516.779978,32.0327996 C520.462778,32.0327996 522.561578,33.8147996 522.561578,36.1115995 C522.561578,41.9327993 514.918779,42.6455992 510.641979,42.7247992 C510.443979,43.5959992 510.127179,45.2195991 510.127179,46.1303991 C510.127179,48.862799 511.156779,49.931999 513.374379,49.931999 C516.265178,49.931999 518.759978,47.1995991 520.225178,44.9423991 Z M517.730378,35.4779995 C517.730378,34.4879995 517.373978,33.6959996 516.383978,33.6959996 C513.611979,33.6959996 511.394379,38.9231994 511.077579,41.0615993 C514.285179,41.0615993 517.730378,39.0023994 517.730378,35.4779995 Z M526.798778,38.2103994 C526.798778,34.5671995 530.798378,32.0327996 535.589978,32.0327996 C541.133978,32.0327996 542.717977,34.4087995 542.717977,35.9135995 C542.717977,37.6559994 541.846777,38.5271994 539.945978,38.5271994 C538.401578,38.5271994 537.332378,37.6163994 537.332378,36.3095995 C537.332378,34.4879995 538.995578,34.3691995 538.995578,34.2503996 C538.995578,34.0523996 537.886778,33.5375996 535.906778,33.5375996 C533.887178,33.5375996 532.025978,34.7255995 532.025978,36.3491995 C532.025978,39.7547993 541.688377,39.1607994 541.688377,45.1007991 C541.688377,48.664799 537.807578,51.5951989 531.154778,51.5951989 C527.511578,51.5951989 523.868378,49.931999 523.868378,46.6451991 C523.868378,44.9819991 525.056378,43.9127992 526.957178,43.9127992 C528.461978,43.9127992 529.570778,45.1007991 529.570778,46.2887991 C529.570778,48.427199 527.590778,48.704399 527.590778,48.862799 C527.590778,49.456799 528.937178,50.090399 531.392378,50.090399 C534.639578,50.090399 536.302778,48.585599 536.302778,47.3975991 C536.302778,43.2791992 526.798778,44.3087992 526.798778,38.2103994 Z M571.863576,44.3087992 L573.170376,45.1799991 C571.744776,48.823199 569.051976,51.5951989 564.933577,51.5951989 C560.696377,51.5951989 556.736377,48.625199 556.736377,43.6355992 C556.736377,36.8639995 563.151577,32.0327996 569.051976,32.0327996 C572.536776,32.0327996 574.318776,33.9731996 574.318776,35.8739995 C574.318776,37.6955994 573.130776,39.1607994 571.150776,39.1607994 C569.883576,39.1607994 568.457976,38.4083994 568.457976,36.5471995 C568.457976,34.3691995 570.596376,34.2503996 570.596376,34.0523996 C570.596376,33.8147996 570.279576,33.6959996 569.685576,33.6959996 C564.973177,33.6959996 562.597177,41.3387993 562.597177,45.3779991 C562.597177,48.743999 564.379177,49.931999 565.923577,49.931999 C568.537176,49.931999 570.992376,46.4471991 571.863576,44.3087992 Z M589.089576,24.2711999 L583.585176,44.1107992 C582.832776,46.7639991 582.397176,48.466799 582.397176,48.981599 C582.397176,49.337999 582.634776,49.535999 583.030776,49.535999 C583.941576,49.535999 585.248376,47.635199 586.634376,45.4571991 L587.743176,46.2095991 C586.475976,48.743999 584.337576,51.5951989 581.209176,51.5951989 C578.555976,51.5951989 577.249176,49.852799 577.249176,47.595599 C577.249176,44.9423991 577.922376,43.0811992 578.912376,39.4775994 L581.842776,28.7459998 C581.961576,28.2707998 582.199176,27.5975998 582.199176,27.1619998 C582.199176,26.2511999 581.605176,25.9343999 579.427176,25.8551999 L579.823176,24.4295999 L589.089576,24.2711999 Z M605.681975,44.9423991 L606.909575,45.8135991 C604.691975,49.258799 602.434775,51.5951989 598.118375,51.5951989 C593.841576,51.5951989 589.723176,48.981599 589.723176,43.5167992 C589.723176,36.3491995 597.286775,32.0327996 602.236775,32.0327996 C605.919575,32.0327996 608.018375,33.8147996 608.018375,36.1115995 C608.018375,41.9327993 600.375575,42.6455992 596.098775,42.7247992 C595.900775,43.5959992 595.583975,45.2195991 595.583975,46.1303991 C595.583975,48.862799 596.613575,49.931999 598.831175,49.931999 C601.721975,49.931999 604.216775,47.1995991 605.681975,44.9423991 Z M603.187175,35.4779995 C603.187175,34.4879995 602.830775,33.6959996 601.840775,33.6959996 C599.068775,33.6959996 596.851175,38.9231994 596.534375,41.0615993 C599.741975,41.0615993 603.187175,39.0023994 603.187175,35.4779995 Z M601.959575,29.6567997 L600.058775,29.6567997 L604.177175,25.1819999 C606.157175,23.0436 606.830375,22.5288 607.622375,22.5288 C608.651975,22.5288 609.483575,23.3604 609.483575,24.2711999 C609.483575,25.2611999 609.127175,25.5779999 607.899575,26.2907999 L601.959575,29.6567997 Z M612.255575,38.2103994 C612.255575,34.5671995 616.255175,32.0327996 621.046774,32.0327996 C626.590774,32.0327996 628.174774,34.4087995 628.174774,35.9135995 C628.174774,37.6559994 627.303574,38.5271994 625.402774,38.5271994 C623.858374,38.5271994 622.789174,37.6163994 622.789174,36.3095995 C622.789174,34.4879995 624.452374,34.3691995 624.452374,34.2503996 C624.452374,34.0523996 623.343574,33.5375996 621.363574,33.5375996 C619.343975,33.5375996 617.482775,34.7255995 617.482775,36.3491995 C617.482775,39.7547993 627.145174,39.1607994 627.145174,45.1007991 C627.145174,48.664799 623.264374,51.5951989 616.611575,51.5951989 C612.968375,51.5951989 609.325175,49.931999 609.325175,46.6451991 C609.325175,44.9819991 610.513175,43.9127992 612.413975,43.9127992 C613.918775,43.9127992 615.027575,45.1007991 615.027575,46.2887991 C615.027575,48.427199 613.047575,48.704399 613.047575,48.862799 C613.047575,49.456799 614.393975,50.090399 616.849175,50.090399 C620.096375,50.090399 621.759574,48.585599 621.759574,47.3975991 C621.759574,43.2791992 612.255575,44.3087992 612.255575,38.2103994 Z M649.875573,49.694399 C652.409973,49.694399 656.132373,43.5959992 656.132373,37.1807994 C656.132373,34.6859995 655.142373,33.9335996 653.875173,33.9335996 C651.142773,33.9335996 647.895573,41.7743993 647.895573,47.1599991 C647.895573,48.823199 648.727173,49.694399 649.875573,49.694399 Z M656.607573,25.8551999 L657.003573,24.4295999 L666.032373,24.2711999 L660.409173,46.2095991 C660.013173,47.833199 659.894373,48.347999 659.894373,48.902399 C659.894373,49.258799 660.013173,49.694399 660.488373,49.694399 C661.874373,49.694399 663.814773,45.7343991 664.250373,44.7839992 L665.557173,45.6155991 C664.369173,48.466799 662.428773,51.5951989 658.943973,51.5951989 C656.805573,51.5951989 655.261173,50.2091989 654.865173,47.3975991 L654.785973,47.3975991 C653.875173,49.654799 651.855573,51.5951989 649.123173,51.5951989 C645.202774,51.5951989 642.193174,48.743999 642.193174,43.8335992 C642.193174,36.9431995 648.133173,32.0327996 652.964373,32.0327996 C655.221573,32.0327996 656.567973,33.1019996 657.241173,34.8839995 L657.320373,34.8839995 C658.033173,31.8743996 659.221173,28.0727998 659.221173,27.4787998 C659.221173,26.4887998 658.627173,25.9343999 656.607573,25.8551999 Z M668.883573,34.0127996 L669.279573,32.5871996 L677.991572,32.4287996 C676.407572,37.7351994 673.635572,46.3679991 673.635572,47.753999 C673.635572,48.545999 674.071172,49.298399 674.902772,49.298399 C676.803572,49.298399 680.327972,45.1799991 682.545572,35.5175995 L683.218772,32.5871996 L688.921172,32.4287996 L685.673972,44.8235992 C685.317572,46.1303991 685.040372,47.3183991 685.040372,48.031199 C685.040372,48.823199 685.357172,49.060799 685.713572,49.060799 C686.822372,49.060799 688.604372,45.8531991 689.000372,45.1007991 L690.267572,45.7343991 C688.960772,48.308399 686.941172,51.5951989 683.654372,51.5951989 C681.119972,51.5951989 680.050772,49.733999 680.050772,47.595599 C680.050772,47.2787991 680.090372,46.9619991 680.129972,46.6055991 L680.050772,46.5263991 C678.149972,49.377599 676.328372,51.5951989 673.120773,51.5951989 C670.863573,51.5951989 668.645973,49.931999 668.645973,46.3679991 C668.645973,42.0911993 671.338773,36.7055995 671.338773,35.4383995 C671.338773,34.3295995 670.546773,34.0127996 668.883573,34.0127996 Z M708.760771,51.1199989 L703.454371,51.1199989 L706.701571,38.8043994 C707.374771,36.3095995 707.493571,35.5571995 707.493571,35.1215995 C707.493571,34.4087995 707.176771,34.0919996 705.275971,34.0127996 L705.671971,32.5871996 L713.433571,32.4287996 C713.195971,33.2999996 712.958371,34.8839995 712.483171,36.6263995 L712.562371,36.7055995 C714.463171,33.6959996 716.205571,32.0327996 719.056771,32.0327996 C721.987171,32.0327996 723.175171,33.9335996 723.214771,36.7847995 L723.293971,36.7847995 C725.155171,33.8543996 727.13517,32.0327996 729.90717,32.0327996 C732.28317,32.0327996 734.42157,34.2503996 734.42157,37.3787994 C734.42157,40.5071993 731.25357,46.0511991 731.25357,48.308399 C731.25357,48.823199 731.45157,49.060799 731.84757,49.060799 C732.91677,49.060799 734.89677,45.8927991 735.21357,45.1007991 L736.48077,45.8927991 C735.05517,48.506399 732.95637,51.5951989 729.59037,51.5951989 C727.84797,51.5951989 725.94717,50.4071989 725.94717,47.3975991 C725.94717,43.8731992 729.27357,38.1707994 729.27357,35.7551995 C729.27357,34.9631995 728.83797,34.3295995 727.96677,34.3295995 C725.709571,34.3295995 722.541571,40.1507993 720.363571,48.427199 L719.650771,51.1199989 L714.185971,51.1199989 L717.433171,39.0023994 C717.908371,37.2599994 718.264771,35.7947995 718.264771,35.3987995 C718.264771,34.7255995 717.868771,34.3295995 717.155971,34.3295995 C714.859171,34.3295995 711.453571,39.8735993 708.760771,51.1199989 Z M738.65877,43.4375992 C738.65877,37.2203994 744.83637,32.0327996 750.61797,32.0327996 C755.171969,32.0327996 758.933969,35.6759995 758.933969,40.1903993 C758.933969,46.4075991 753.389969,51.5951989 746.97477,51.5951989 C742.42077,51.5951989 738.65877,47.951999 738.65877,43.4375992 Z M746.89557,50.090399 C750.53877,50.090399 753.231569,41.5367993 753.231569,36.6263995 C753.231569,34.4087995 752.439569,33.5375996 750.69717,33.5375996 C746.89557,33.5375996 744.36117,43.0415992 744.36117,47.0015991 C744.36117,49.219199 745.15317,50.090399 746.89557,50.090399 Z M763.289969,34.0127996 L763.685969,32.5871996 L771.685169,32.4287996 C771.447569,33.3791996 771.130769,34.8839995 770.813969,36.3095995 L770.893169,36.3887995 C772.595969,34.1315996 774.338369,32.0327996 777.387569,32.0327996 C780.476368,32.0327996 782.297968,34.4879995 782.297968,37.3391994 C782.297968,40.5071993 778.971568,46.3679991 778.971568,48.268799 C778.971568,48.664799 779.129968,49.060799 779.684368,49.060799 C780.753568,49.060799 782.773168,45.6155991 783.169168,45.0215991 L784.357168,45.8927991 C782.891968,48.545999 780.713968,51.5951989 777.347969,51.5951989 C775.565969,51.5951989 773.506769,50.4863989 773.506769,47.516399 C773.506769,44.3483992 776.991569,38.5271994 776.991569,35.8343995 C776.991569,34.9235995 776.516369,34.3295995 775.486769,34.3295995 C773.110769,34.3295995 769.863569,39.4775994 767.883569,47.1203991 L766.853969,51.1199989 L761.230769,51.1199989 L764.517569,39.1607994 C764.953169,37.5371994 765.586769,35.6759995 765.586769,35.1215995 C765.586769,34.4087995 765.309569,34.0919996 763.289969,34.0127996 Z M794.019568,49.694399 C796.553968,49.694399 800.276368,43.5959992 800.276368,37.1807994 C800.276368,34.6859995 799.286368,33.9335996 798.019168,33.9335996 C795.286768,33.9335996 792.039568,41.7743993 792.039568,47.1599991 C792.039568,48.823199 792.871168,49.694399 794.019568,49.694399 Z M800.751568,25.8551999 L801.147568,24.4295999 L810.176367,24.2711999 L804.553168,46.2095991 C804.157168,47.833199 804.038368,48.347999 804.038368,48.902399 C804.038368,49.258799 804.157168,49.694399 804.632368,49.694399 C806.018367,49.694399 807.958767,45.7343991 808.394367,44.7839992 L809.701167,45.6155991 C808.513167,48.466799 806.572767,51.5951989 803.087968,51.5951989 C800.949568,51.5951989 799.405168,50.2091989 799.009168,47.3975991 L798.929968,47.3975991 C798.019168,49.654799 795.999568,51.5951989 793.267168,51.5951989 C789.346768,51.5951989 786.337168,48.743999 786.337168,43.8335992 C786.337168,36.9431995 792.277168,32.0327996 797.108368,32.0327996 C799.365568,32.0327996 800.711968,33.1019996 801.385168,34.8839995 L801.464368,34.8839995 C802.177168,31.8743996 803.365168,28.0727998 803.365168,27.4787998 C803.365168,26.4887998 802.771168,25.9343999 800.751568,25.8551999 Z M827.243967,44.9423991 L828.471567,45.8135991 C826.253967,49.258799 823.996767,51.5951989 819.680367,51.5951989 C815.403567,51.5951989 811.285167,48.981599 811.285167,43.5167992 C811.285167,36.3491995 818.848767,32.0327996 823.798767,32.0327996 C827.481567,32.0327996 829.580367,33.8147996 829.580367,36.1115995 C829.580367,41.9327993 821.937567,42.6455992 817.660767,42.7247992 C817.462767,43.5959992 817.145967,45.2195991 817.145967,46.1303991 C817.145967,48.862799 818.175567,49.931999 820.393167,49.931999 C823.283967,49.931999 825.778767,47.1995991 827.243967,44.9423991 Z M824.749167,35.4779995 C824.749167,34.4879995 824.392767,33.6959996 823.402767,33.6959996 C820.630767,33.6959996 818.413167,38.9231994 818.096367,41.0615993 C821.303967,41.0615993 824.749167,39.0023994 824.749167,35.4779995 Z M831.995966,59.9111986 L830.807967,58.4063986 C832.193966,57.5747987 835.797566,54.9215988 835.876766,51.3575989 C833.698766,51.3575989 832.550366,50.4071989 832.550366,48.427199 C832.550366,46.8035991 833.857166,45.3383991 835.520366,45.3383991 C837.143966,45.3383991 838.807166,46.8431991 838.807166,49.496399 C838.807166,53.0999988 835.322366,57.6935987 831.995966,59.9111986 Z M290.822387,85.9619991 C290.822387,88.139999 291.455987,88.931999 292.406387,88.931999 C296.049587,88.931999 299.217587,80.0615993 299.217587,75.5471995 C299.217587,73.6463995 298.425587,72.6959996 297.316787,72.6959996 C293.594387,72.6959996 290.822387,81.0911993 290.822387,85.9619991 Z M304.840786,71.5079996 L306.701986,71.5079996 C305.870386,74.3987995 300.920387,92.9711988 300.920387,94.2779988 C300.920387,95.0303987 301.316387,95.2679987 304.009187,95.3471987 L303.613187,96.8519987 L289.951187,96.8519987 L290.347187,95.3471987 C293.752787,95.2679987 294.544787,94.7927987 294.940787,93.7631988 C296.049587,90.8327989 296.405987,89.2091989 296.920787,87.664799 L296.841587,87.585599 C295.415987,89.4863989 293.911187,90.5951989 291.455987,90.5951989 C288.208787,90.5951989 284.961587,87.823199 284.961587,82.7939992 C284.961587,77.1311994 289.634387,71.0327996 296.366387,71.0327996 C299.059187,71.0327996 301.039187,72.6167996 301.751987,74.0423995 L304.840786,71.5079996 Z M310.899586,73.0127996 L311.295586,71.5871996 L320.007586,71.4287996 C318.423586,76.7351994 315.651586,85.3679991 315.651586,86.753999 C315.651586,87.545999 316.087186,88.298399 316.918786,88.298399 C318.819586,88.298399 322.343986,84.1799991 324.561586,74.5175995 L325.234786,71.5871996 L330.937185,71.4287996 L327.689986,83.8235992 C327.333586,85.1303991 327.056386,86.3183991 327.056386,87.031199 C327.056386,87.823199 327.373186,88.060799 327.729586,88.060799 C328.838386,88.060799 330.620385,84.8531991 331.016385,84.1007991 L332.283585,84.7343991 C330.976785,87.308399 328.957186,90.5951989 325.670386,90.5951989 C323.135986,90.5951989 322.066786,88.733999 322.066786,86.595599 C322.066786,86.2787991 322.106386,85.9619991 322.145986,85.6055991 L322.066786,85.5263991 C320.165986,88.377599 318.344386,90.5951989 315.136786,90.5951989 C312.879586,90.5951989 310.661986,88.931999 310.661986,85.3679991 C310.661986,81.0911993 313.354786,75.7055995 313.354786,74.4383995 C313.354786,73.3295995 312.562786,73.0127996 310.899586,73.0127996 Z M350.063985,83.9423991 L351.291585,84.8135991 C349.073985,88.258799 346.816785,90.5951989 342.500385,90.5951989 C338.223585,90.5951989 334.105185,87.981599 334.105185,82.5167992 C334.105185,75.3491995 341.668785,71.0327996 346.618785,71.0327996 C350.301585,71.0327996 352.400385,72.8147996 352.400385,75.1115995 C352.400385,80.9327993 344.757585,81.6455992 340.480785,81.7247992 C340.282785,82.5959992 339.965985,84.2195991 339.965985,85.1303991 C339.965985,87.862799 340.995585,88.931999 343.213185,88.931999 C346.103985,88.931999 348.598785,86.1995991 350.063985,83.9423991 Z M347.569185,74.4779995 C347.569185,73.4879995 347.212785,72.6959996 346.222785,72.6959996 C343.450785,72.6959996 341.233185,77.9231994 340.916385,80.0615993 C344.123985,80.0615993 347.569185,78.0023994 347.569185,74.4779995 Z M381.149984,83.3087992 L382.456784,84.1799991 C381.031184,87.823199 378.338384,90.5951989 374.219984,90.5951989 C369.982784,90.5951989 366.022784,87.625199 366.022784,82.6355992 C366.022784,75.8639995 372.437984,71.0327996 378.338384,71.0327996 C381.823184,71.0327996 383.605183,72.9731996 383.605183,74.8739995 C383.605183,76.6955994 382.417184,78.1607994 380.437184,78.1607994 C379.169984,78.1607994 377.744384,77.4083994 377.744384,75.5471995 C377.744384,73.3691995 379.882784,73.2503996 379.882784,73.0523996 C379.882784,72.8147996 379.565984,72.6959996 378.971984,72.6959996 C374.259584,72.6959996 371.883584,80.3387993 371.883584,84.3779991 C371.883584,87.743999 373.665584,88.931999 375.209984,88.931999 C377.823584,88.931999 380.278784,85.4471991 381.149984,83.3087992 Z M389.149183,64.8551999 L389.545183,63.4295999 L398.415583,63.2711999 L395.247583,75.1115995 L395.326783,75.1907995 C396.871183,73.0523996 398.494783,71.0327996 401.583583,71.0327996 C404.593183,71.0327996 406.573183,73.5275995 406.573183,76.7351994 C406.573183,80.1803993 403.167583,85.4867991 403.167583,87.625199 C403.167583,87.902399 403.484383,88.060799 403.880383,88.060799 C405.028783,88.060799 406.929583,85.0115991 407.404783,84.2195991 L408.671983,84.9719991 C407.285983,87.664799 405.107983,90.5951989 401.741983,90.5951989 C399.207583,90.5951989 397.781983,89.011199 397.781983,86.2787991 C397.781983,83.0711992 401.187583,77.6459994 401.187583,74.9927995 C401.187583,73.8047995 400.712383,73.3295995 399.959983,73.3295995 C397.544383,73.3295995 394.217983,77.8439994 391.129183,90.1199989 L385.505983,90.1199989 L391.485583,68.3003997 C391.723183,67.3895998 391.921183,66.6767998 391.921183,65.9639998 C391.921183,65.2511999 391.287583,64.8551999 389.149183,64.8551999 Z M427.085982,71.4287996 L432.946782,71.4287996 L429.461982,85.5263991 C429.263982,86.3975991 429.065982,87.466799 429.065982,87.823199 C429.065982,88.139999 429.145182,88.535999 429.620382,88.535999 C431.125182,88.535999 433.065582,84.8927991 433.461582,83.6651992 L434.768382,84.3779991 C433.501182,87.308399 431.639982,90.5951989 428.036382,90.5951989 C425.818782,90.5951989 424.472382,89.090399 424.076382,86.3975991 L423.997182,86.3975991 C422.413182,88.852799 420.868782,90.5951989 417.977982,90.5951989 C414.572382,90.5951989 410.929182,88.456799 410.929182,82.9523992 C410.929182,76.8935994 416.552382,71.0327996 422.096382,71.0327996 C424.551582,71.0327996 425.739582,72.3395996 426.373182,74.2007995 L426.452382,74.2007995 L427.085982,71.4287996 Z M425.422782,76.5371994 C425.422782,74.2007995 424.551582,73.0919996 422.967582,73.0919996 C419.324382,73.0919996 417.027582,81.8831992 417.027582,85.6847991 C417.027582,87.664799 417.661182,88.535999 419.007582,88.535999 C422.531982,88.535999 425.422782,80.6951993 425.422782,76.5371994 Z M438.332381,73.0127996 L438.728381,71.5871996 L446.727581,71.4287996 C446.489981,72.3791996 446.173181,73.8839995 445.856381,75.3095995 L445.935581,75.3887995 C447.638381,73.1315996 449.380781,71.0327996 452.429981,71.0327996 C455.518781,71.0327996 457.340381,73.4879995 457.340381,76.3391994 C457.340381,79.5071993 454.013981,85.3679991 454.013981,87.268799 C454.013981,87.664799 454.172381,88.060799 454.726781,88.060799 C455.795981,88.060799 457.815581,84.6155991 458.211581,84.0215991 L459.399581,84.8927991 C457.934381,87.545999 455.756381,90.5951989 452.390381,90.5951989 C450.608381,90.5951989 448.549181,89.4863989 448.549181,86.516399 C448.549181,83.3483992 452.033981,77.5271994 452.033981,74.8343995 C452.033981,73.9235995 451.558781,73.3295995 450.529181,73.3295995 C448.153181,73.3295995 444.905981,78.4775994 442.925981,86.1203991 L441.896381,90.1199989 L436.273181,90.1199989 L439.559981,78.1607994 C439.995581,76.5371994 440.629181,74.6759995 440.629181,74.1215995 C440.629181,73.4087995 440.351981,73.0919996 438.332381,73.0127996 Z M477.53638,71.5079996 L483.39718,71.5079996 L478.64518,89.090399 C476.94238,95.3867987 471.79438,97.3271986 466.92358,97.3271986 C461.933981,97.3271986 459.082781,95.3867987 459.082781,93.3275988 C459.082781,91.3871989 460.508381,90.4367989 462.32998,90.4367989 C464.07238,90.4367989 465.18118,91.7039989 465.18118,92.9711988 C465.18118,93.9215988 464.46838,94.6343987 463.75558,94.9115987 C464.03278,95.4659987 464.98318,95.8223987 466.40878,95.8223987 C469.69558,95.8223987 471.67558,94.2383988 473.10118,88.139999 L473.02198,88.060799 C471.83398,89.6447989 469.85398,90.5951989 467.87398,90.5951989 C464.78518,90.5951989 461.379581,87.664799 461.379581,83.0711992 C461.379581,76.5767994 467.39878,71.0327996 472.62598,71.0327996 C475.00198,71.0327996 476.18998,72.2207996 476.82358,74.2799995 L476.90278,74.2799995 L477.53638,71.5079996 Z M473.65558,73.0919996 C469.85398,73.0919996 467.47798,82.2395992 467.47798,85.5263991 C467.47798,87.664799 468.19078,88.535999 469.10158,88.535999 C472.90318,88.535999 475.63558,80.4575993 475.63558,76.8539994 C475.63558,73.9235995 474.76438,73.0919996 473.65558,73.0919996 Z M501.533979,83.9423991 L502.761579,84.8135991 C500.543979,88.258799 498.286779,90.5951989 493.970379,90.5951989 C489.693579,90.5951989 485.57518,87.981599 485.57518,82.5167992 C485.57518,75.3491995 493.138779,71.0327996 498.088779,71.0327996 C501.771579,71.0327996 503.870379,72.8147996 503.870379,75.1115995 C503.870379,80.9327993 496.227579,81.6455992 491.950779,81.7247992 C491.752779,82.5959992 491.435979,84.2195991 491.435979,85.1303991 C491.435979,87.862799 492.465579,88.931999 494.683179,88.931999 C497.573979,88.931999 500.068779,86.1995991 501.533979,83.9423991 Z M499.039179,74.4779995 C499.039179,73.4879995 498.682779,72.6959996 497.692779,72.6959996 C494.920779,72.6959996 492.703179,77.9231994 492.386379,80.0615993 C495.593979,80.0615993 499.039179,78.0023994 499.039179,74.4779995 Z M523.709978,82.9919992 L524.977178,83.5463992 C523.591178,87.427199 521.413178,90.5951989 517.017578,90.5951989 C514.126779,90.5951989 512.780379,88.694399 509.453979,88.694399 C507.671979,88.694399 507.077979,89.1695989 505.889979,90.5951989 L504.622779,89.9615989 C506.998779,84.8135991 512.423979,81.4079992 516.859178,79.2299993 C519.987578,77.6855994 522.403178,76.2995994 523.393178,74.9927995 L523.313978,74.9135995 C521.690378,75.7847995 519.789578,76.4975994 517.928378,76.4975994 C515.631578,76.4975994 514.087179,75.6263995 512.186379,75.6263995 C511.196379,75.6263995 510.404379,76.3391994 509.453979,78.7943993 L508.265979,78.0815994 C509.453979,74.2799995 512.621979,71.0327996 515.948378,71.0327996 C518.324378,71.0327996 521.175578,72.6167996 522.759578,72.6167996 C524.303978,72.6167996 525.293978,72.1811996 526.323578,71.0327996 L527.432378,71.9039996 C524.224778,77.6459994 520.066778,79.9031993 513.413979,82.9919992 C511.077579,84.1007991 510.166779,85.0907991 508.899579,86.3183991 L508.978779,86.3975991 C511.196379,85.2491991 512.265579,84.4967991 514.443579,84.4967991 C517.294778,84.4967991 518.245178,86.0015991 520.225178,86.0015991 C522.007178,86.0015991 523.155578,84.5759991 523.709978,82.9919992 Z M539.629178,79.0319993 L538.837178,82.5959992 L528.937178,82.5959992 L529.729178,79.0319993 L539.629178,79.0319993 Z M543.787177,72.9335996 L544.183177,71.5871996 L552.657577,71.4287996 L549.410377,82.2791992 C549.014377,83.6651992 548.459977,85.2095991 548.459977,86.714399 C548.459977,88.219199 549.093577,88.931999 550.123177,88.931999 C554.558377,88.931999 558.597577,80.3783993 558.597577,76.5767994 C558.597577,75.9431995 558.518377,75.7055995 558.359977,75.7055995 C558.241177,75.7055995 557.805577,75.9431995 557.251177,75.9431995 C555.904777,75.9431995 554.954377,74.8343995 554.954377,73.4483995 C554.954377,71.9039996 555.825577,71.0327996 557.409577,71.0327996 C558.993577,71.0327996 560.260777,71.9039996 560.260777,75.4679995 C560.260777,82.1207992 555.271177,90.5951989 549.093577,90.5951989 C545.925577,90.5951989 543.311977,88.060799 543.311977,84.4967991 C543.311977,81.7247992 546.004777,75.8639995 546.004777,74.2799995 C546.004777,73.4879995 545.608777,73.0919996 543.787177,72.9335996 Z M563.309977,82.4375992 C563.309977,76.2203994 569.487576,71.0327996 575.269176,71.0327996 C579.823176,71.0327996 583.585176,74.6759995 583.585176,79.1903993 C583.585176,85.4075991 578.041176,90.5951989 571.625976,90.5951989 C567.071977,90.5951989 563.309977,86.951999 563.309977,82.4375992 Z M571.546776,89.090399 C575.189976,89.090399 577.882776,80.5367993 577.882776,75.6263995 C577.882776,73.4087995 577.090776,72.5375996 575.348376,72.5375996 C571.546776,72.5375996 569.012376,82.0415992 569.012376,86.0015991 C569.012376,88.219199 569.804376,89.090399 571.546776,89.090399 Z M587.782776,73.0127996 L588.178776,71.5871996 L596.890775,71.4287996 C595.306775,76.7351994 592.534776,85.3679991 592.534776,86.753999 C592.534776,87.545999 592.970376,88.298399 593.801976,88.298399 C595.702775,88.298399 599.227175,84.1799991 601.444775,74.5175995 L602.117975,71.5871996 L607.820375,71.4287996 L604.573175,83.8235992 C604.216775,85.1303991 603.939575,86.3183991 603.939575,87.031199 C603.939575,87.823199 604.256375,88.060799 604.612775,88.060799 C605.721575,88.060799 607.503575,84.8531991 607.899575,84.1007991 L609.166775,84.7343991 C607.859975,87.308399 605.840375,90.5951989 602.553575,90.5951989 C600.019175,90.5951989 598.949975,88.733999 598.949975,86.595599 C598.949975,86.2787991 598.989575,85.9619991 599.029175,85.6055991 L598.949975,85.5263991 C597.049175,88.377599 595.227575,90.5951989 592.019976,90.5951989 C589.762776,90.5951989 587.545176,88.931999 587.545176,85.3679991 C587.545176,81.0911993 590.237976,75.7055995 590.237976,74.4383995 C590.237976,73.3295995 589.445976,73.0127996 587.782776,73.0127996 Z M612.968375,77.2103994 C612.968375,73.5671995 616.967975,71.0327996 621.759574,71.0327996 C627.303574,71.0327996 628.887574,73.4087995 628.887574,74.9135995 C628.887574,76.6559994 628.016374,77.5271994 626.115574,77.5271994 C624.571174,77.5271994 623.501974,76.6163994 623.501974,75.3095995 C623.501974,73.4879995 625.165174,73.3691995 625.165174,73.2503996 C625.165174,73.0523996 624.056374,72.5375996 622.076374,72.5375996 C620.056775,72.5375996 618.195575,73.7255995 618.195575,75.3491995 C618.195575,78.7547993 627.857974,78.1607994 627.857974,84.1007991 C627.857974,87.664799 623.977174,90.5951989 617.324375,90.5951989 C613.681175,90.5951989 610.037975,88.931999 610.037975,85.6451991 C610.037975,83.9819991 611.225975,82.9127992 613.126775,82.9127992 C614.631575,82.9127992 615.740375,84.1007991 615.740375,85.2887991 C615.740375,87.427199 613.760375,87.704399 613.760375,87.862799 C613.760375,88.456799 615.106775,89.090399 617.561975,89.090399 C620.809174,89.090399 622.472374,87.585599 622.472374,86.3975991 C622.472374,82.2791992 612.968375,83.3087992 612.968375,77.2103994 Z M653.795973,78.9923993 L655.181973,79.9427993 C654.548373,81.7247992 652.647573,83.2295992 650.746773,83.2295992 C649.241973,83.2295992 647.657973,81.9623992 647.657973,79.6655993 C647.657973,73.3295995 657.082773,76.1807994 657.082773,68.1419997 C657.082773,65.9243998 655.340373,64.4591999 653.281173,64.4591999 C650.746773,64.4591999 648.687573,66.5183998 648.687573,69.2111997 C648.687573,70.0823997 648.964773,70.7555996 649.479573,71.5871996 L647.895573,72.4979996 C647.024373,71.4683996 646.786774,70.1615997 646.786774,68.8547997 C646.786774,65.1719999 650.231973,62.4 654.469173,62.4 C658.864773,62.4 662.943573,65.0927999 662.943573,69.0527997 C662.943573,77.6063994 649.558773,74.1215995 649.558773,79.6655993 C649.558773,80.4971993 650.033973,81.3287992 651.142773,81.3287992 C652.291173,81.3287992 653.281173,79.8239993 653.795973,78.9923993 Z M645.994774,87.466799 C645.994774,85.7243991 647.222373,84.3383991 649.123173,84.3383991 C651.023973,84.3383991 652.251573,85.7243991 652.251573,87.466799 C652.251573,89.2091989 651.023973,90.5951989 649.123173,90.5951989 C647.222373,90.5951989 645.994774,89.2091989 645.994774,87.466799 Z" id="Vous-avez-les-clés-d" fill="#602A7A"></path>
                <g id="la-parole-aux-etudiants">
                    <g id="logoLaParoleAuxEtudiants" transform="translate(17.189010, 15.523199)">
                        <g id="Group-3" transform="translate(0.000000, 2.994444)">
                            <mask id="mask-2" fill="white">
                                <use xlink:href="#path-1"></use>
                            </mask>
                            <g id="Clip-2"></g>
                            <path d="M0.00283895154,35.8274784 C0.0434807841,29.7498044 0.665061752,23.7374094 1.96156609,17.7938865 C3.2577716,11.8515615 5.16704121,6.11959616 7.68997262,0.588408311 C7.90797421,0.110345274 8.10102292,-0.0134749995 8.6015749,0.239555546 C9.76718863,0.82946108 10.9604448,1.36546661 12.1511608,1.90431687 C12.5433844,2.08203714 12.6121169,2.27772408 12.4256426,2.68407018 C10.9044129,6.00161505 9.6013341,9.40375298 8.55286447,12.9017131 C7.24022293,17.2803393 6.31024217,21.7387675 5.75619837,26.2780457 C5.24757779,30.4464619 5.06125291,34.6310481 5.22113071,38.8220724 C5.36681375,42.6347487 5.7830937,46.4234694 6.46743044,50.1847909 C7.65530753,56.7143265 9.62808001,62.9885857 12.3847019,69.0186479 C14.0277078,72.6128795 15.9132199,76.0726604 18.1156486,79.3551703 C18.7784691,80.3430375 18.781308,80.340642 17.7890197,81.0081036 C16.8742797,81.6234619 15.9475861,82.2220513 15.0512245,82.8631619 C14.6253818,83.1676968 14.3857145,83.1510777 14.0800043,82.6852919 C11.9533307,79.4445545 10.0413716,76.0843388 8.35727565,72.5925172 C5.79818497,67.2869608 3.83392934,61.7705954 2.43074019,56.047314 C1.52989604,52.3729811 0.875144166,48.6571751 0.485012457,44.898848 C0.172130114,41.8861376 -0.0261482378,38.8618985 0.00283895154,35.8274784" id="Fill-1" fill="#E0564F" mask="url(#mask-2)"></path>
                        </g>
                        <path d="M90.0989084,24.393043 C88.3259084,24.5146174 85.962556,24.681408 83.5981576,24.8341246 C83.2201288,24.8585293 83.2616672,25.0784713 83.2797468,25.3365924 C83.4687612,28.0405756 83.6474657,30.7454572 83.8396179,33.4492907 C83.9089481,34.4260784 83.9232923,34.4021229 84.9055695,34.3160326 C86.2990465,34.1938593 87.6950635,34.0902515 89.0921265,34.0228765 C90.7916126,33.9409784 92.4178835,33.560684 93.9730313,32.8890301 C95.3512676,32.2938843 96.1797932,31.2199269 96.3590954,29.7339339 C96.56604,28.0188659 96.1539438,26.4916993 94.6844128,25.4120524 C93.4944438,24.5381238 92.1151617,24.3669913 90.0989084,24.393043 Z M90.1422398,19.7372809 C92.5543026,19.7118281 94.808729,19.9395556 96.8980479,20.99899 C102.295642,23.7356127 103.507276,30.8704752 99.2773881,35.0176309 C98.4597701,35.8192436 97.5433864,36.4998808 96.4901354,36.9674633 C96.1216694,37.1311097 96.0330642,37.2702016 96.2715361,37.6648694 C98.9976767,42.1761495 101.702301,46.7006052 104.411258,51.2222161 C104.712337,51.7243844 104.688579,51.7562753 104.105249,51.7974489 C102.709681,51.8953672 101.313813,51.9884944 99.9203359,52.1103683 C99.4604258,52.1504939 99.1739905,52.0374536 98.9178872,51.6111944 C96.4154261,47.4453235 93.8856215,43.2962214 91.3718046,39.137088 C91.1530559,38.7752094 90.8815625,38.615306 90.4557198,38.6433041 C88.5198537,38.7714663 86.5829416,38.8869021 84.6460296,38.997996 C84.302367,39.0174599 84.1907514,39.1948807 84.2109229,39.5080996 C84.3332967,41.4109193 84.4501419,43.3140384 84.5781936,45.2164088 C84.7063947,47.1184799 84.8463998,49.0198023 84.9799799,50.9215739 C85.019277,51.4807864 85.0534938,52.0402983 85.091745,52.5995108 C85.1126636,52.9073397 85.0115072,53.1043741 84.6678447,53.1239877 C83.3081363,53.2016935 81.9485774,53.2792496 80.5899149,53.3704305 C80.160785,53.3991771 80.0496176,53.1835771 80.0266072,52.8023844 C79.8014335,49.0894231 79.5779034,45.3763122 79.3298687,41.6649979 C79.0571799,37.5807255 78.7502743,33.4988487 78.4745972,29.4148758 C78.2846863,26.5987507 78.1300381,23.7802299 77.9404261,20.9641048 C77.91114,20.5291617 78.1312335,20.4581934 78.4680228,20.4352859 C80.031538,20.3291328 81.5931108,20.178662 83.1581201,20.1172759 C85.5261046,20.0244481 87.8822849,19.720512 90.1422398,19.7372809 Z" id="Fill-4" fill="#E0564F"></path>
                        <path d="M121.429727,47.5110515 C128.738682,47.6285835 134.786247,41.926862 134.81359,34.3139365 C134.841532,26.5836287 129.169605,20.7080798 121.666854,20.6889153 C114.050694,20.6696012 108.209178,26.4129454 108.172869,33.921814 C108.134618,41.7982506 113.999444,47.6181029 121.429727,47.5110515 Z M121.336639,51.5739136 C111.669113,51.6700353 103.922959,44.0392928 103.994978,33.878694 C104.063113,24.2523041 111.403148,16.646116 121.584823,16.6377316 C131.613046,16.6294969 139.024801,24.3571096 138.990883,34.3012101 C138.957115,44.3028039 131.114586,51.6936914 121.336639,51.5739136 Z" id="Fill-5" fill="#E0564F"></path>
                        <path d="M36.0451217,28.1566103 C34.2594212,28.2775859 32.4746172,28.4142823 30.6877213,28.5093559 C30.1619176,28.5373539 30.0220619,28.7538522 30.0564282,29.2444919 C30.1976287,31.2573574 30.3102902,33.2721693 30.4443186,35.2856337 C30.5248552,36.4970361 30.63154,37.7067916 30.7137202,38.9181941 C30.737926,39.2748324 30.8688166,39.3874235 31.2441558,39.3550835 C33.0089378,39.2038641 34.7762598,39.0807924 36.543283,38.9578705 C38.044939,38.8533644 39.4255659,38.4392327 40.657372,37.5290714 C43.0846756,35.7359981 43.1643157,31.494218 40.8132155,29.5943928 C39.4055438,28.4571028 37.8043752,28.0877381 36.0451217,28.1566103 Z M35.8661184,23.3416936 C38.3001458,23.3479819 40.2868142,23.544118 42.1152484,24.4628135 C45.3299874,26.0781665 47.1584216,28.697407 47.5727591,32.2814574 C47.9963606,35.9454595 46.8068399,38.9792807 43.956682,41.330219 C42.5227126,42.5128748 40.8278586,43.1267359 39.0288598,43.4743909 C36.5842237,43.9469142 34.099394,44.0033594 31.6244259,44.1494883 C31.2195018,44.1734439 31.0484176,44.3010072 31.0766577,44.7166361 C31.214571,46.748666 31.3363471,48.7818937 31.4741109,50.8139236 C31.5928986,52.5665719 31.7230421,54.3181721 31.8542316,56.0697723 C31.8829199,56.4544087 31.7502363,56.6785429 31.340979,56.7030973 C30.0005456,56.783049 28.6599629,56.8598565 27.3205754,56.956577 C26.8457234,56.9908634 26.7103502,56.7680767 26.684202,56.3344812 C26.4611202,52.6224183 26.2366936,48.9103554 25.98836,45.1997897 C25.7174643,41.1538462 25.4123517,37.1102983 25.1381688,33.064804 C24.9448212,30.2119969 24.7816562,27.3573931 24.5953313,24.5041368 C24.5682866,24.0934488 24.8139306,24.0459869 25.1176984,24.0250258 C26.680616,23.9167766 28.2427864,23.797448 29.8061522,23.6993799 C31.9651001,23.5640311 34.125094,23.4438041 35.8661184,23.3416936 Z" id="Fill-6" fill="#E0564F"></path>
                        <path d="M58.6606579,30.7819894 C57.6773348,33.3723335 57.0647189,35.8942545 56.3524409,38.3860813 C56.2397793,38.7800005 56.4633094,38.8412369 56.7743987,38.8153349 C58.3521087,38.6840285 59.9405768,38.7352335 61.5139536,38.5206816 C62.1497294,38.4338427 62.1763258,38.4100369 61.9009475,37.7973736 C61.3428694,36.5548289 60.7971931,35.3065948 60.2273109,34.0695898 C59.7379653,33.007161 59.2220232,31.9570093 58.6606579,30.7819894 Z M65.8614344,54.2792443 C64.9553606,54.2335791 64.2974709,54.3719224 63.6739475,54.0536129 C63.3913971,53.9095802 63.2487024,53.7314107 63.2179222,53.4160958 C63.0943531,52.1497452 63.58594,51.5251042 64.897685,51.3349569 C65.5803782,51.2358408 66.2653126,51.1479539 66.9517412,51.0795308 C67.3766874,51.0373092 67.5078768,50.8904317 67.3329078,50.461777 C66.1680411,47.606724 65.0078065,44.7500241 63.728037,41.9434812 C63.5603894,41.5759131 63.348514,41.4296345 62.9609224,41.4609265 C61.3252381,41.5931312 59.6891055,41.7211437 58.0523752,41.8391248 C57.4570919,41.8820951 56.8597167,41.8951209 56.2632381,41.9175792 C55.761939,41.9364442 55.4672857,42.1206026 55.331016,42.6735267 C54.6072328,45.6100285 53.8362333,48.534852 53.0866007,51.4649158 C52.9325502,52.0675477 52.9899269,52.1594772 53.6091172,52.17954 C54.5047317,52.2081369 55.4015416,52.2109816 56.2977537,52.2028966 C56.9250126,52.1972072 57.3155926,52.5373761 57.5700523,53.0512227 C57.8517061,53.6201671 57.6880929,54.1870154 57.4463338,54.7246679 C57.3486141,54.942364 57.1004299,54.9064307 56.8981173,54.9281404 C54.985411,55.132661 53.0623949,55.2043779 51.1437119,55.2266865 C49.1610778,55.2497437 47.2087757,55.6442618 45.2259922,55.6038368 C44.2813684,55.5845226 44.2767364,55.5887148 44.2646335,54.6200121 C44.249094,53.3630941 44.598285,52.9483635 45.9751765,52.7634566 C46.5849534,52.6817083 47.1938338,52.5872336 47.802266,52.5081802 C48.5178312,52.4152027 48.8897338,51.9868475 49.1628708,51.4078717 C49.577806,50.527505 49.9184802,49.6153973 50.199387,48.6845743 C51.5215913,44.3011569 52.8315433,39.9147452 54.0709698,35.5067734 C55.0269494,32.107031 56.0564428,28.7281 57.0460416,25.3374907 C57.2449176,24.6564043 57.433932,23.9706766 57.5832011,23.2774627 C57.6601516,22.920525 57.8442352,22.7883202 58.1796798,22.730228 C58.7698828,22.627818 59.3599365,22.5683783 59.9592541,22.5510105 C60.3862922,22.5387333 60.6398554,22.692498 60.8544204,23.0657555 C61.6291553,24.4134052 62.2864473,25.8161526 62.9169934,27.2350701 C64.4730376,30.7366236 66.039093,34.2333859 67.6176994,37.7246086 C69.1886856,41.199212 70.6791351,44.7087008 72.1902044,48.2095057 C73.0424876,50.1846412 73.0578777,50.176107 75.1775285,50.6047617 C75.5053527,50.6709389 75.8327287,50.7502917 76.1514383,50.8518033 C77.1175784,51.1602311 77.5831664,52.5216552 77.0322604,53.383606 C76.9113808,53.5725555 76.7292397,53.5709085 76.5469491,53.604596 C75.2553756,53.8443013 73.9434811,53.8082182 72.6411495,53.8766413 C70.2942331,53.9994135 67.9470178,54.1158974 65.8614344,54.2792443 Z" id="Fill-7" fill="#E0564F"></path>
                        <path d="M157.896508,15.9870388 C157.887543,15.8939116 157.895014,15.7965922 157.869612,15.7082561 C157.7187,15.1743466 157.984665,15.0015672 158.465792,14.9707244 C159.713437,14.8909225 160.958093,14.7937528 162.205737,14.7093094 C165.461566,14.4887686 168.717396,14.2671797 171.974719,14.0545742 C173.462927,13.9574045 174.954124,13.8876339 176.443826,13.7898653 C176.886105,13.7608192 177.093797,13.9026061 177.101268,14.3773753 C177.113221,15.1241897 177.168506,15.8707047 177.222297,16.6161716 C177.25218,17.0262607 177.075867,17.1780791 176.676919,17.2030827 C173.140183,17.423923 169.603447,17.6559924 166.068206,17.8880618 C164.802631,17.9711577 163.53855,18.0722201 162.272976,18.1481293 C161.782883,18.1774749 161.590133,18.3794501 161.630476,18.889404 C161.772424,20.6778359 161.881499,22.4686633 162.001034,24.2587421 C162.105627,25.8061212 162.229644,27.3527517 162.296883,28.9017778 C162.319295,29.3967594 162.477679,29.5611544 162.961795,29.5252211 C164.857916,29.3847817 166.757025,29.2676989 168.65464,29.1390875 C170.032278,29.0456608 171.408423,28.9445983 172.786061,28.8531181 C174.329555,28.7507081 175.876036,28.6680614 177.419529,28.5479842 C177.818477,28.516842 178.026168,28.6152095 178.053064,29.0285925 C178.103866,29.8116397 178.157657,30.5948366 178.220412,31.3769855 C178.250296,31.7574296 178.078465,31.9236213 177.712389,31.9505713 C176.466239,32.0425007 175.221583,32.1529957 173.975433,32.2389363 C170.737534,32.4626213 167.501129,32.6780715 164.26323,32.8935218 C163.927038,32.9158304 163.589353,32.9403849 163.256149,32.9231668 C162.754103,32.8972649 162.598708,33.1290349 162.633074,33.6024565 C162.734679,35.0004128 162.815365,36.4000161 162.90651,37.7988708 C163.005126,39.3092685 163.105237,40.8196662 163.205347,42.3299142 C163.24569,42.9452725 163.29201,43.5603314 163.323388,44.1759892 C163.339824,44.4700436 163.48476,44.5591283 163.75969,44.5392153 C166.625537,44.3319997 169.489889,44.1235864 172.354242,43.9287978 C174.401275,43.7895561 176.449803,43.6756175 178.496837,43.5383222 C178.840499,43.5151153 179.037732,43.611237 179.060144,43.9737144 C179.113935,44.8127577 179.170714,45.6516513 179.225999,46.4905449 C179.248412,46.8326602 179.060144,46.9439038 178.749354,46.9639666 C176.515547,47.1075502 174.283235,47.256374 172.049428,47.4078929 C168.328908,47.6603246 164.606893,47.912906 160.886372,48.1731232 C160.124338,48.2262746 160.072041,48.1882451 160.01825,47.4221165 C159.732861,43.3770714 159.435518,39.3329246 159.162082,35.2871309 C158.98278,32.6581585 158.849798,30.0261916 158.673484,27.3970695 C158.476251,24.4324199 158.25063,21.4697167 158.044432,18.505666 C157.986159,17.6669221 157.953287,16.8263816 157.908461,15.9865897 C157.903979,15.9867394 157.90099,15.9868891 157.896508,15.9870388" id="Fill-8" fill="#E0564F"></path>
                        <g id="Group-12" transform="translate(20.022079, 0.000000)">
                            <mask id="mask-4" fill="white">
                                <use xlink:href="#path-3"></use>
                            </mask>
                            <g id="Clip-10"></g>
                            <path d="M122.536769,16.0280627 C123.741231,16.0207263 123.726738,16.0217744 123.806676,17.213713 C124.04978,20.8319 124.31201,24.4487396 124.55347,28.0670764 C124.724106,30.6223855 124.863962,33.1797907 125.034149,35.7350998 C125.245128,38.9056174 125.47852,42.0747876 125.687855,45.2456047 C125.716843,45.6863869 125.975337,45.710043 126.297035,45.6881835 C128.083781,45.5670583 129.870079,45.4423397 131.657125,45.3213641 C133.164757,45.2191038 134.67239,45.1181911 136.180023,45.020123 C136.868842,44.9750566 137.559155,44.9415189 138.246481,44.896153 C138.593131,44.873545 138.773928,45.0220694 138.793352,45.3715211 C138.836684,46.1556163 138.874038,46.9403104 138.930817,47.7233576 C138.960701,48.131201 138.791858,48.2906551 138.391416,48.3161079 C136.901714,48.4102832 135.413506,48.532157 133.925297,48.6332195 C130.64855,48.8552576 127.372997,49.0726542 124.096698,49.2873559 C123.687142,49.3141562 123.274896,49.3015795 122.86534,49.3294279 C122.475656,49.3559287 122.319215,49.1732676 122.321755,48.8039029 C122.330422,47.5297668 122.171291,46.2659616 122.086272,44.9976647 C121.871557,41.7898662 121.650418,38.5825169 121.440635,35.3742692 C121.27209,32.8000951 121.124166,30.2244239 120.952484,27.6503995 C120.751516,24.6290052 120.533365,21.6089583 120.325524,18.5878635 C120.280699,17.935374 120.250666,17.2816868 120.208679,16.6287483 C120.185669,16.2739066 120.396498,16.1804799 120.694439,16.1607166 C121.308698,16.1199922 121.922659,16.0726799 122.536769,16.0280627" id="Fill-9" fill="#E0564F" mask="url(#mask-4)"></path>
                            <path d="M20.4816906,10.3088238 C19.1775659,10.5329579 17.8746365,10.763081 16.5708107,10.9896107 C16.2757092,11.0409654 16.0342489,11.0405162 16.1346581,10.6118615 C16.5646845,8.77536883 16.986493,6.9373789 17.413531,5.10028731 C17.4211514,5.06809703 17.4574601,5.04249453 17.5303763,4.95176287 C18.6024541,6.61847058 19.640315,8.2353208 20.6822102,9.84947602 C20.8546391,10.1167302 20.7948717,10.2552232 20.4816906,10.3088238 Z M29.0051196,17.2668643 C25.408168,11.7340296 21.8221239,6.1940081 18.2438497,0.649045809 C17.9811719,0.241951102 17.6945873,0.147775828 17.2013568,0.115884996 C16.741596,0.0862399967 16.4097376,0.272644156 16.0173646,0.350349987 C15.6299224,0.427157484 15.4551027,0.630031087 15.3703825,1.00703163 C15.0465926,2.44825768 14.6966544,3.88364457 14.3594169,5.32187619 C13.4035867,9.40000992 12.445067,13.4775448 11.5011903,17.5582238 C11.4073555,17.9635218 11.2216283,18.1448354 10.8026589,18.2120607 C9.23675295,18.4631449 7.6760767,18.7486651 6.11599812,19.0346346 C5.71017747,19.1087471 5.50577296,19.0237048 5.42971894,18.5658543 C5.04302386,16.2421655 4.62285903,13.9240164 4.21748663,11.6034718 C3.7383015,8.85906355 3.2553809,6.11525421 2.79293064,3.36785154 C2.72464638,2.96240378 2.56925114,2.81328045 2.164327,2.899221 C1.70815231,2.99579183 1.24600089,3.06391544 0.786240157,3.14266933 C0.0687325109,3.26529182 0.0485610131,3.28101265 0.17452081,4.00686596 C0.768907611,7.43355833 1.37076534,10.8587535 1.96604865,14.2851464 C2.37889197,16.661238 2.78994227,19.0374793 3.19068269,21.4155172 C3.2715181,21.8955267 3.37685814,22.2029064 4.00277225,22.0659106 C5.18676446,21.8065917 6.38913514,21.632315 7.58433374,21.4253989 C8.63071151,21.244235 9.67768695,21.0668142 10.7243636,20.8875967 C11.5395909,20.9283212 12.3123834,20.6719967 13.1081863,20.5966864 C13.6471389,20.5457809 13.8723126,20.2969426 13.9833305,19.7790534 C14.344475,18.0972238 14.7559736,16.4263238 15.1357954,14.7485367 C15.2329174,14.3197322 15.4314946,14.0786795 15.901117,14.0020217 C17.9635406,13.6655959 20.0223781,13.3059631 22.0773307,12.9261178 C22.5206554,12.8440701 22.7533001,12.984809 22.9838528,13.3493825 C23.9326603,14.8506472 24.9212131,16.3269083 25.8691241,17.8286221 C26.0948954,18.1863085 26.3435278,18.296504 26.74382,18.2144563 C27.4015602,18.0795565 28.064829,17.9678638 28.7285459,17.865304 C29.145573,17.8009235 29.2804979,17.6901291 29.0051196,17.2668643 Z" id="Fill-11" fill="#602A7A" mask="url(#mask-4)"></path>
                        </g>
                        <path d="M160.524779,62.9622346 C160.427657,63.0868034 160.394785,63.1122562 160.382832,63.1450454 C159.40414,65.872535 158.43292,68.6022705 157.445264,71.3258673 C157.289869,71.7563187 157.516985,71.7566181 157.814328,71.7498806 C159.67907,71.7066109 161.543813,71.6639401 163.408556,71.6245631 C164.09887,71.6098903 164.137719,71.557787 163.873248,70.9247615 C163.203853,69.3206376 162.535952,67.7156155 161.862075,66.1129889 C161.430255,65.0840978 160.990965,64.0582012 160.524779,62.9622346 Z M171.602667,81.0732328 C171.487615,79.0347648 171.650481,77.0117182 171.513016,74.9961577 C171.495086,74.7350422 171.48612,74.4730283 171.480144,74.2113139 C171.43233,71.6865481 171.409917,69.1607343 171.332219,66.6368669 C171.245557,63.8143037 171.131999,60.9926388 171.11108,58.1681292 C171.108092,57.7114764 171.137975,57.387777 171.719213,57.4678784 C172.168963,57.5298634 172.593312,57.3740025 172.95341,57.3752003 C173.252247,57.3762484 173.54959,57.3847825 173.848427,57.3928675 C174.084508,57.3994553 174.208526,57.5625028 174.329555,57.7348331 C177.208849,61.8361738 180.088144,65.9373647 182.968932,70.0378071 C184.31071,71.9478134 185.655477,73.8558733 187.124261,75.7461163 C187.124261,75.207266 187.131732,74.6687152 187.121272,74.1301644 C187.112307,73.7569069 187.062999,73.3842483 187.055528,73.0109908 C187.007714,70.598367 186.974842,68.1854438 186.918063,65.7729697 C186.856802,63.1180954 186.773127,60.4639697 186.707383,57.8090953 C186.689453,57.0672217 186.720831,57.0465601 187.447005,57.0365287 C187.913191,57.0300906 188.38087,57.0288928 188.847056,57.0270962 C189.739085,57.0233531 189.739085,57.023952 189.789887,57.926777 C189.918387,57.6262845 189.70173,57.2576684 190.006544,57.0580887 C190.268026,56.8862076 190.586288,56.9469948 190.882136,56.9405567 C194.744604,56.855814 198.608567,56.7751137 202.471035,56.6875262 C202.862512,56.6785429 203.253988,56.637519 203.64397,56.6014359 C204.060848,56.5625081 204.284976,56.7411267 204.292447,57.1652898 C204.3044,57.8760211 204.308883,58.5872017 204.319342,59.2980828 C204.325319,59.6951461 204.063836,59.7439555 203.757528,59.7460516 C202.955151,59.7514416 202.15128,59.7508427 201.348902,59.7698575 C200.676519,59.7858777 200.00563,59.8551991 199.336235,59.8463655 C198.834189,59.8394783 198.692241,60.0480413 198.705689,60.5202652 C198.760974,62.6144298 198.789363,64.7094928 198.835683,66.8039569 C198.910392,70.1509971 198.956712,73.499235 199.086706,76.8443288 C199.141991,78.2470762 199.136014,79.6492248 199.189805,81.0509241 C199.209229,81.5626747 199.016479,81.7667461 198.512939,81.7544688 C197.897335,81.7391972 197.280236,81.7508755 196.664632,81.7688422 C196.289592,81.7799216 196.125231,81.6312475 196.116266,81.2454133 C196.093854,80.2359861 196.034086,79.227607 196.011673,78.2181798 C195.926505,74.4782686 195.857772,70.7380579 195.766627,66.9982963 C195.714331,64.8673 195.618703,62.7373518 195.572383,60.6063555 C195.561924,60.1163147 195.396069,59.9487755 194.911953,59.9656941 C193.363977,60.020193 191.816002,60.0501374 190.266532,60.0734941 C189.979648,60.0776863 189.860114,60.1655733 189.867585,60.4593283 C189.927352,62.6651857 189.979648,64.8714923 190.036427,67.0774994 C190.039416,67.2269222 190.0693,67.3754466 190.073782,67.5247197 C190.118608,69.4693118 190.157456,71.4142034 190.208259,73.3589453 C190.274003,75.9199438 190.336759,78.4812417 190.42641,81.0414916 C190.447328,81.6125322 190.318828,81.85089 189.688282,82.0209744 C189.009922,82.2045338 188.42719,81.8386127 187.792162,81.9682722 C187.542633,82.0193274 187.42758,81.7492286 187.300575,81.5671664 C183.075019,75.5547713 178.850958,69.5419271 174.625403,63.5298315 C174.562647,63.4401479 174.492421,63.3552554 174.372886,63.1984962 C174.236915,63.6374818 174.378863,63.9975637 174.386334,64.3537528 C174.414723,65.8683428 174.428171,67.3824836 174.487938,68.8973729 C174.588049,71.4576228 174.534258,74.0244605 174.658275,76.5832132 C174.743444,78.3408023 174.665746,80.1003378 174.804705,81.8541838 C174.833095,82.2063305 174.674711,82.3193708 174.351967,82.3264077 C172.709858,82.3624908 171.067749,82.3957291 169.427133,82.4550191 C168.987843,82.4710394 168.741303,82.3168255 168.570965,81.9118269 C167.643077,79.7047717 166.685304,77.5107423 165.767874,75.2994949 C165.58409,74.8552691 165.358468,74.6547911 164.862398,74.6711108 C162.120569,74.7612436 159.377245,74.8329605 156.633921,74.890903 C156.194631,74.9001858 156.021306,75.1121924 155.885335,75.4890432 C155.068015,77.7592812 154.220813,80.0188889 153.410964,82.2919716 C153.254075,82.7344008 153.026959,82.8989455 152.559279,82.9019399 C150.991879,82.9109232 149.424479,82.9492521 147.857676,83.0062963 C147.338148,83.025311 147.138077,82.8737921 147.12941,82.3187719 C147.075769,78.9152865 147.010772,75.5116513 146.904237,72.1095134 C146.811747,69.1557935 146.751382,66.2014747 146.663673,63.248204 C146.617054,61.6785163 146.668903,60.1049358 146.530541,58.5380928 C146.503347,58.2320606 146.630353,58.0699114 146.934419,58.0664678 C147.70004,58.0573347 148.46581,58.0562867 149.23143,58.0504475 C149.600792,58.0477525 149.644124,58.2949439 149.644124,58.5809133 C149.647112,59.4039364 149.693432,60.2257616 149.718833,61.0475869 C149.798025,63.6088848 149.812967,66.1722789 149.878711,68.7341757 C149.987786,73.0681847 150.11778,77.4017446 150.243292,81.8996994 C150.785681,80.4137064 151.27428,79.0702489 151.764372,77.7272407 C153.889103,71.9120298 156.015329,66.0969686 158.14006,60.2817577 C158.389589,59.5966289 158.648083,58.9143447 158.884164,58.224275 C158.990251,57.9183925 159.183001,57.7863375 159.492297,57.7352823 C160.118361,57.6322734 160.741436,57.6988998 161.3675,57.7114764 C161.700703,57.7182139 161.800813,57.9499839 161.903912,58.1971753 C163.045469,60.9028055 164.184038,63.6091843 165.328584,66.3134669 C167.383088,71.1707551 169.442075,76.0266957 171.499568,80.8827861 C171.527958,80.9489633 171.568301,81.0099003 171.602667,81.0732328 Z" id="Fill-13" fill="#602A7A"></path>
                        <path d="M109.806013,61.3494268 C109.694697,62.109866 109.692157,62.0742321 108.916525,62.1279824 C107.499141,62.2262001 106.08101,62.2285957 104.66258,62.2333868 C104.283506,62.2345846 104.127214,62.3736765 104.130501,62.7625051 C104.154109,65.3995625 104.225232,68.0354221 104.336101,70.6702337 C104.344767,70.8756526 104.349997,71.0815206 104.353882,71.287239 C104.39796,73.7000125 104.393926,76.1147324 104.501806,78.5246612 C104.576216,80.1895722 104.5547,81.8537347 104.614468,83.5168491 C104.6318,83.9997032 104.462808,84.1355013 104.010817,84.1281649 C103.377282,84.1181335 102.740461,84.0893868 102.109168,84.1876046 C101.730392,84.2464454 101.554676,84.087141 101.54332,83.699061 C101.519712,82.8956516 101.462484,82.0929908 101.445749,81.2894316 C101.393602,78.8020965 101.387327,76.313264 101.300963,73.8272764 C101.19368,70.742849 101.126741,67.6579724 101.07564,64.572497 C101.066077,63.9935212 101.00108,63.4155934 100.988678,62.8366176 C100.981058,62.4804285 100.838513,62.317381 100.480954,62.3429835 C98.5428468,62.4814765 96.5998086,62.4292235 94.6599082,62.4928554 C94.4738821,62.498994 94.2886032,62.5385207 94.1025772,62.542114 C91.5455783,62.5930196 88.9887289,62.6451229 86.4315807,62.6862965 C85.0872624,62.7080062 85.0778491,62.6987235 85.0995147,64.0499665 C85.1288008,65.8638511 85.1704885,67.677586 85.2141187,69.491321 C85.2381751,70.4904173 85.2626797,70.5293451 86.2803692,70.4958073 C89.1902945,70.3999851 92.0997716,70.2818543 95.0119382,70.2763146 C95.8528655,70.2746676 95.8443486,70.2761648 95.8624283,71.1105667 C95.8742323,71.652112 95.9065067,72.193807 95.9452061,72.7343042 C95.9749404,73.1526281 95.8322457,73.3433742 95.3796571,73.3492133 C93.4385613,73.3731689 91.4979138,73.4219783 89.5571169,73.4677933 C88.3070817,73.4972886 87.0574948,73.5459483 85.8074596,73.5669094 C85.4382465,73.5731978 85.3148268,73.7326519 85.3261826,74.0818041 C85.4020872,76.3990549 85.4738081,78.7167548 85.5379086,81.0344547 C85.5468737,81.3621966 85.6716382,81.5155122 86.0072321,81.5050316 C87.7231542,81.4508322 89.4390763,81.3960339 91.1554466,81.3553094 C92.7044682,81.3184777 94.2539381,81.3012597 95.8031091,81.2699678 C96.0825217,81.2642783 96.1602193,81.42508 96.1630583,81.6583472 C96.1721728,82.4068085 96.1745635,83.1554196 96.1845746,83.903881 C96.190103,84.3088796 95.9184602,84.3380754 95.6176808,84.3416687 C94.6286797,84.3534968 93.6404257,84.3982637 92.6523212,84.4313524 C90.1337229,84.5154962 87.6130328,84.5297198 85.0932392,84.5818232 C84.4407286,84.5949987 83.788218,84.6339265 83.1370521,84.680041 C82.6941757,84.7113329 82.492909,84.5601135 82.4884264,84.0830985 C82.4778177,82.9616791 82.4132689,81.8407088 82.3899596,80.7192894 C82.3387091,78.2505198 82.3348242,75.7804027 82.246219,73.31328 C82.1392354,70.3409946 82.1100988,67.3673616 82.0122297,64.3958248 C81.9678524,63.0496723 81.9523128,61.7036696 81.9119698,60.3579663 C81.8985222,59.907003 82.0510785,59.7250905 82.5189078,59.718353 C85.8594572,59.67149 89.1986619,59.5544072 92.5386137,59.4786477 C96.9419769,59.3781841 101.345639,59.2741272 105.747658,59.1357839 C107.855056,59.0696066 109.965443,59.1181166 112.070899,58.9636033 C112.748213,58.9138955 112.839358,59.0305291 112.868794,59.7228447 C112.92124,60.9561066 112.911378,62.1902668 112.959342,63.4245768 C113.059004,65.9848267 113.018063,68.550766 113.135506,71.1098181 C113.222169,72.9966175 113.181676,74.8853633 113.327359,76.7717135 C113.590485,80.1754983 116.980343,82.1371588 119.866212,80.4695528 C121.332754,79.6218256 121.97361,78.203507 122.024413,76.5670432 C122.111972,73.7435816 121.964645,70.9205693 121.850041,68.0989044 C121.843915,67.9493319 121.839731,67.7996097 121.837042,67.6498874 C121.792067,65.124972 121.747241,62.6000565 121.702266,60.0751411 C121.700473,59.9815647 121.699278,59.8878386 121.692704,59.7945616 C121.618891,58.7252456 121.618741,58.7319831 122.667659,58.7140164 C123.114869,58.7062308 123.561481,58.6667042 124.008093,58.6364603 C124.624892,58.5943883 124.744576,58.6915581 124.760564,59.2955375 C124.783873,60.173808 124.812114,61.0520785 124.842296,61.9301993 C124.926718,64.3976214 124.897581,66.8695352 125.013081,69.335011 C125.097204,71.1288329 125.063884,72.9234033 125.170867,74.7173749 C125.276058,76.4825999 125.111847,78.2370448 124.35056,79.8756047 C122.362696,84.1536176 117.049225,85.4831509 113.268638,82.6653788 C111.437066,81.3003614 110.619747,79.3982903 110.275785,77.2130946 C110.094242,76.0596346 110.145791,74.8979399 110.093943,73.7423839 C109.983672,71.295324 110.010866,68.8422752 109.921365,66.3938678 C109.859954,64.712637 109.840828,63.0309571 109.806013,61.3494268" id="Fill-14" fill="#602A7A"></path>
                        <path d="M56.5590867,61.5060363 C56.5590867,63.0375448 56.5563972,64.5810312 56.5617762,66.124218 C56.5628222,66.4227641 56.6071994,66.7208611 56.6128773,67.0197066 C56.660243,69.4693118 56.6687599,71.9205639 56.7587098,74.3688216 C56.8235574,76.1265604 56.9587812,77.8784601 56.639175,79.6261675 C55.9621598,83.3292471 52.9211944,85.9329165 49.2834516,85.9136023 C45.946787,85.8960848 42.9475094,83.4598049 42.178303,80.134175 C41.9374403,79.0930067 41.8182044,78.0382137 41.79878,76.9662026 C41.7346794,73.4135939 41.69598,69.8594879 41.5483546,66.3098736 C41.4782773,64.6280439 41.5730086,62.9421718 41.3989361,61.2646841 C41.3654663,60.9427813 41.5032302,60.7601202 41.8353875,60.7560777 C42.5821812,60.7469446 43.3292737,60.7449983 44.0762168,60.7352663 C44.4706816,60.7303255 44.5210357,60.9862007 44.5252194,61.2956766 C44.5380694,62.2305421 44.5716885,63.1648087 44.6030664,64.0990753 C44.6885338,66.6409094 44.6641786,69.1870854 44.7731047,71.7277217 C44.8756058,74.1177375 44.7530826,76.5210785 45.0809068,78.8964215 C45.4012601,81.2172655 46.9184555,82.6086341 49.2289138,82.8326185 C50.7674761,82.9817419 52.4996848,81.8899674 53.2092733,80.3276161 C53.5224545,79.6375464 53.6953317,78.9242698 53.6998142,78.157692 C53.7213305,74.3972688 53.5494992,70.6411876 53.4653766,66.8833097 C53.4221947,64.9574328 53.3993336,63.0309571 53.3401639,61.1056791 C53.3243255,60.5955755 53.4936167,60.4127647 54.0071681,60.409321 C55.5745682,60.3988405 57.1452555,60.4564835 58.708173,60.301521 C59.299422,60.2426802 59.6640032,60.4482488 59.9874942,60.9589513 C61.6774175,63.6289476 63.4124651,66.2704967 65.1083651,68.9366002 C65.3749277,69.3558224 65.4996922,69.3336635 65.7306932,68.9340549 C67.3491944,66.1333511 68.9856258,63.3429782 70.5951619,60.5373335 C70.8173472,60.1500022 71.067175,59.955513 71.51812,59.9637477 C72.3206468,59.9785702 73.1240701,59.9626997 73.9267463,59.9457811 C74.377243,59.9361988 74.449711,60.0830763 74.2228937,60.4720547 C72.7167552,63.0567093 71.2224208,65.6485506 69.723305,68.2372477 C69.0300031,69.4344265 68.3479077,70.6386423 67.6324919,71.8224959 C67.3849054,72.2321359 67.4056746,72.5474509 67.6692488,72.9460114 C70.1437686,76.6898154 72.6012547,80.4446989 75.0579937,84.2001813 C75.1724483,84.3749071 75.4264598,84.5482854 75.283018,84.7799057 C75.168414,84.9648126 74.9049892,84.8901012 74.7047684,84.893994 C73.9953293,84.9071696 73.2829019,84.8746798 72.5768995,84.9287296 C72.0171778,84.9716998 71.6953303,84.7575971 71.3973899,84.2945062 C69.6172178,81.5267414 67.8088057,78.7773923 66.0080139,76.0231024 C65.5966648,75.3941194 65.584263,75.3911249 65.1992116,76.0506513 C63.5681592,78.8440187 61.926797,81.6315469 60.3286167,84.4436296 C59.9925744,85.0350323 59.6269474,85.3205526 58.9251287,85.2682995 C58.2790431,85.2197895 57.6226476,85.3302845 56.970137,85.3422623 C56.3735089,85.353192 56.3101555,85.2419484 56.597039,84.7489132 C58.8066398,80.9510594 61.0039883,77.1458693 63.2445187,73.3664314 C63.6200074,72.7331064 63.6288231,72.2845386 63.2129914,71.6591489 C61.0594225,68.4212563 58.9581502,65.1484784 56.834465,61.8903732 C56.7386877,61.7434957 56.6893796,61.5445149 56.5590867,61.5060363" id="Fill-15" fill="#602A7A"></path>
                        <g id="Group-20" transform="translate(21.366846, 55.996109)">
                            <mask id="mask-6" fill="white">
                                <use xlink:href="#path-5"></use>
                            </mask>
                            <g id="Clip-17"></g>
                            <path d="M111.606805,5.56786979 C110.878539,5.56786979 110.150274,5.56547423 109.422008,5.56846868 C108.645779,5.57161284 108.630239,5.57745201 108.648767,6.35391143 C108.716304,9.19548937 108.79953,12.0366182 108.864527,14.8783458 C108.920858,17.327951 108.957316,19.7780054 109.010808,22.2277603 C109.023359,22.8068858 109.072369,23.3849633 109.096574,23.9639391 C109.10793,24.2361341 109.208489,24.3816641 109.507176,24.3545644 C111.069646,24.2123282 112.644816,24.3842094 114.203848,24.163968 C117.277237,23.7302227 119.548697,22.2365939 120.620476,19.2131034 C121.572422,16.527536 121.517585,13.8013939 120.730747,11.1007046 C119.880705,8.18231913 117.987872,6.31543282 114.957814,5.70082312 C113.847784,5.4756409 112.7258,5.55753896 111.606805,5.56786979 Z M124.358628,14.9654842 C124.41212,17.5061204 123.989116,19.8049554 122.818871,21.9196319 C121.038699,25.1367132 118.191081,26.7251162 114.642093,27.2301292 C113.287315,27.4228217 111.922377,27.3220587 110.563715,27.4258162 C109.281405,27.5237345 107.988039,27.3862895 106.704534,27.5434978 C106.272415,27.5962001 106.055161,27.4535148 106.045449,26.9658695 C105.983888,23.863176 105.900064,20.760782 105.823413,17.6583879 C105.711199,13.1167142 105.596894,8.57519023 105.489462,4.03336679 C105.479003,3.59423153 105.199142,3.08337933 105.527415,2.73362823 C105.829091,2.41217463 106.349216,2.59498546 106.765347,2.58929601 C109.429329,2.55201518 112.098392,2.17726047 114.756996,2.54363074 C119.687208,3.22292043 123.051814,6.46665225 124.024977,11.3724504 C124.270023,12.6073592 124.402259,13.8479575 124.358628,14.9654842 Z" id="Fill-16" fill="#602A7A" mask="url(#mask-6)"></path>
                            <path d="M10.682377,10.3468532 C10.4658695,10.4350396 10.4477899,10.5534699 10.4111824,10.655281 C9.47313302,13.2577526 8.54165808,15.86247 7.59524129,18.4616476 C7.42699606,18.9238401 7.61063139,19.0226568 8.02511832,19.0126254 C9.92736527,18.9665109 11.8296122,18.9214446 13.7320086,18.8991359 C14.1889304,18.8938957 14.2310664,18.7417779 14.0668554,18.362831 C13.5319372,17.1280719 13.016294,15.8847786 12.493628,14.6449289 C11.8925174,13.2192739 11.2920044,11.7933196 10.682377,10.3468532 Z M20.4283482,29.7062353 C20.2228977,29.7062353 20.0174473,29.7033905 19.8121463,29.7068342 C18.9024864,29.7218064 18.9078655,29.7201594 18.5391006,28.8480275 C17.6505088,26.7465265 16.7471245,24.6511641 15.8721298,22.5439736 C15.6868508,22.0973522 15.4291039,21.9275672 14.9428961,21.9435875 C12.2009172,22.0347683 9.45834059,22.1048383 6.71546515,22.1650267 C6.32936774,22.1732614 6.15813414,22.3413994 6.0342662,22.6845628 C5.21500455,24.9540521 4.36675572,27.2130609 3.56094174,29.4871917 C3.39150116,29.9655541 3.17036177,30.1823519 2.64276504,30.1640858 C1.99249572,30.1414777 1.33923803,30.2266697 0.686727435,30.2420911 C0.0570778677,30.257213 0.00881569161,30.1853464 0.215909735,29.6140064 C1.35731767,26.4666957 2.49902444,23.3195347 3.64581145,20.1743201 C5.40118001,15.3592536 7.16670903,10.5479302 8.90952643,5.728372 C9.08120829,5.2539023 9.32954184,5.11091758 9.8266572,5.03066648 C10.3263127,4.95011592 10.8046013,5.00012314 11.2914068,4.97616759 C11.666746,4.95760203 11.8641279,5.12334453 12.0071214,5.46291452 C13.4496076,8.89379911 14.9035991,12.3200423 16.3547515,15.7473336 C18.2141154,20.1392851 20.0733298,24.5310868 21.9335901,28.9225892 C22.2277952,29.6171505 22.1914865,29.677788 21.4367736,29.6899155 C21.1007314,29.6953055 20.7645398,29.6906642 20.4283482,29.6906642 C20.4283482,29.6959044 20.4283482,29.7011447 20.4283482,29.7062353 Z" id="Fill-18" fill="#602A7A" mask="url(#mask-6)"></path>
                            <path d="M183.992449,17.5630149 C185.426867,17.5372627 185.426867,17.5372627 185.67789,18.9112634 C186.060401,21.012465 187.184028,22.2526142 189.047277,22.6276683 C191.139136,23.0485375 193.485006,21.3069686 193.679251,19.1623476 C193.791314,17.9292354 193.728559,16.720528 192.849978,15.7209825 C192.208972,14.993033 191.364758,14.6098939 190.466753,14.3168875 C189.120492,13.8773031 187.708487,13.6510728 186.414523,13.0345167 C184.001414,11.8858479 182.785148,9.98722045 182.691014,7.3154275 C182.628258,5.50333951 183.039159,3.85384985 184.219565,2.45903768 C185.43882,1.01945857 187.01668,0.25737249 188.900847,0.131605828 C192.788716,-0.128461662 195.375151,2.41172546 195.9534,6.16945365 C196.152127,7.46275416 196.158103,7.45676527 194.87161,7.47263583 C194.462203,7.47757666 194.051303,7.49584277 193.644884,7.54510138 C193.232489,7.5951086 193.018821,7.46200555 192.950088,7.03454862 C192.842507,6.35121643 192.694583,5.67537034 192.383792,5.04608786 C191.678537,3.61474347 190.532497,3.01031489 188.890388,3.21318849 C187.399191,3.39689765 186.160512,4.50364427 185.899029,5.93274283 C185.399971,8.65978328 186.439924,9.88181601 189.027853,10.6762421 C190.099183,11.0050321 191.197409,11.2490793 192.25081,11.6251815 C196.125231,13.0099623 197.499882,16.7579585 196.589923,20.3002365 C195.212284,25.6611901 188.908318,27.5722445 184.829193,23.8372741 C183.137775,22.2876492 182.507229,20.2262737 182.466886,17.9648693 C182.460909,17.6639277 182.605845,17.5636138 182.87181,17.5633143 C183.245357,17.5627154 183.618903,17.5630149 183.992449,17.5630149" id="Fill-19" fill="#FFFFFF" mask="url(#mask-6)"></path>
                        </g>
                    </g>
                </g>
            </g>
        </g>
    </g>
</svg>