<svg xmlns="http://www.w3.org/2000/svg" width="822" height="87" viewBox="0 0 822 87">
    <defs>
        <path id="a" d="M.009.111h18.57v82.957H.009z"/>
        <path id="c" d="M.115.113h138.82v49.219H.114z"/>
        <path id="e" d="M.106.113h196.753v30.122H.106z"/>
    </defs>
    <g fill="none" fill-rule="evenodd">
        <path fill="#FFF" d="M284.673 8.875l-.396 1.663c-3.406.08-3.96.476-3.96 2.297 0 2.178.04 2.139.119 3.485l.91 12.434h.08l9.345-14.137c.911-1.386 1.347-2.336 1.347-3.049 0-.792-.396-.95-3.327-1.03l.396-1.663h9.504l-.396 1.663c-1.98.08-2.851.634-3.722 1.901l-15.92 23.681h-2.85l-1.347-22.334c-.158-2.772-.871-3.168-3.485-3.248l.396-1.663h13.306zm8.237 19.563c0-6.218 6.177-11.405 11.959-11.405 4.554 0 8.316 3.643 8.316 8.157 0 6.218-5.544 11.405-11.96 11.405-4.553 0-8.315-3.643-8.315-8.157zm8.236 6.652c3.644 0 6.336-8.553 6.336-13.464 0-2.217-.792-3.088-2.534-3.088-3.802 0-6.336 9.504-6.336 13.464 0 2.217.792 3.088 2.534 3.088zm16.236-16.077l.396-1.426 8.712-.158c-1.584 5.306-4.356 13.939-4.356 15.325 0 .792.436 1.544 1.268 1.544 1.9 0 5.425-4.118 7.642-13.78l.674-2.93 5.702-.16-3.247 12.396c-.357 1.306-.634 2.494-.634 3.207 0 .792.317 1.03.673 1.03 1.11 0 2.891-3.208 3.287-3.96l1.267.633c-1.306 2.574-3.326 5.861-6.613 5.861-2.534 0-3.603-1.861-3.603-4 0-.316.04-.633.079-.99l-.08-.079c-1.9 2.852-3.722 5.07-6.93 5.07-2.257 0-4.474-1.664-4.474-5.228 0-4.277 2.693-9.662 2.693-10.93 0-1.108-.792-1.425-2.456-1.425zm25.186 4.197c0-3.643 4-6.177 8.791-6.177 5.544 0 7.128 2.376 7.128 3.88 0 1.743-.871 2.614-2.772 2.614-1.544 0-2.613-.91-2.613-2.217 0-1.822 1.663-1.94 1.663-2.06 0-.198-1.109-.712-3.089-.712-2.02 0-3.88 1.188-3.88 2.811 0 3.406 9.662 2.812 9.662 8.752 0 3.564-3.881 6.494-10.534 6.494-3.643 0-7.286-1.663-7.286-4.95 0-1.663 1.188-2.732 3.088-2.732 1.505 0 2.614 1.188 2.614 2.376 0 2.138-1.98 2.415-1.98 2.574 0 .594 1.346 1.227 3.802 1.227 3.247 0 4.91-1.504 4.91-2.692 0-4.119-9.504-3.09-9.504-9.188zm46.253-5.781h5.86l-3.484 14.097c-.198.872-.396 1.94-.396 2.297 0 .317.079.713.554.713 1.505 0 3.445-3.643 3.841-4.87l1.307.712c-1.267 2.93-3.128 6.217-6.732 6.217-2.217 0-3.564-1.505-3.96-4.197h-.079c-1.584 2.455-3.128 4.197-6.02 4.197-3.405 0-7.048-2.138-7.048-7.643 0-6.058 5.623-11.92 11.167-11.92 2.455 0 3.643 1.308 4.277 3.169h.08l.633-2.772zm-1.663 5.108c0-2.336-.872-3.445-2.456-3.445-3.643 0-5.94 8.791-5.94 12.593 0 1.98.634 2.851 1.98 2.851 3.525 0 6.416-7.84 6.416-11.999zm12.75-3.603l.397-1.347 8.474-.158-3.247 10.85c-.396 1.386-.95 2.93-.95 4.435 0 1.505.633 2.218 1.663 2.218 4.435 0 8.474-8.554 8.474-12.355 0-.634-.079-.871-.237-.871-.12 0-.555.237-1.11.237-1.346 0-2.296-1.109-2.296-2.495 0-1.544.871-2.415 2.455-2.415s2.851.871 2.851 4.435c0 6.653-4.99 15.127-11.167 15.127-3.168 0-5.781-2.534-5.781-6.098 0-2.772 2.692-8.633 2.692-10.217 0-.792-.396-1.188-2.217-1.346zm35.482 11.008l1.228.872c-2.218 3.445-4.475 5.781-8.791 5.781-4.277 0-8.395-2.613-8.395-8.078 0-7.168 7.563-11.484 12.513-11.484 3.683 0 5.782 1.782 5.782 4.079 0 5.82-7.643 6.534-11.92 6.613-.198.871-.515 2.495-.515 3.405 0 2.733 1.03 3.802 3.248 3.802 2.89 0 5.385-2.732 6.85-4.99zm-2.494-9.464c0-.99-.357-1.782-1.347-1.782-2.772 0-4.99 5.227-5.306 7.366 3.207 0 6.653-2.06 6.653-5.584zm24.67 8.514l1.268.554c-1.386 3.881-3.564 7.05-7.96 7.05-2.89 0-4.237-1.902-7.564-1.902-1.782 0-2.376.476-3.564 1.901l-1.267-.633c2.376-5.148 7.801-8.554 12.237-10.732 3.128-1.544 5.544-2.93 6.534-4.237l-.08-.08c-1.623.872-3.524 1.585-5.385 1.585-2.297 0-3.841-.872-5.742-.872-.99 0-1.782.713-2.733 3.168l-1.188-.712c1.188-3.802 4.356-7.05 7.683-7.05 2.376 0 5.227 1.585 6.811 1.585 1.544 0 2.534-.436 3.564-1.584l1.109.871c-3.208 5.742-7.366 8-14.019 11.088-2.336 1.109-3.247 2.099-4.514 3.326l.08.08c2.217-1.149 3.286-1.901 5.464-1.901 2.851 0 3.802 1.505 5.782 1.505 1.782 0 2.93-1.426 3.484-3.01zm29.067-19.72l-5.505 19.839c-.752 2.653-1.188 4.356-1.188 4.87 0 .357.238.555.634.555.91 0 2.218-1.9 3.604-4.079l1.108.753c-1.267 2.534-3.405 5.385-6.534 5.385-2.653 0-3.96-1.742-3.96-4 0-2.653.674-4.514 1.664-8.117l2.93-10.732c.119-.475.356-1.148.356-1.584 0-.91-.594-1.228-2.772-1.307l.396-1.425 9.267-.159zm16.592 20.67l1.228.872c-2.218 3.445-4.475 5.781-8.791 5.781-4.277 0-8.396-2.613-8.396-8.078 0-7.168 7.564-11.484 12.514-11.484 3.683 0 5.782 1.782 5.782 4.079 0 5.82-7.643 6.534-11.92 6.613-.198.871-.515 2.495-.515 3.405 0 2.733 1.03 3.802 3.247 3.802 2.891 0 5.386-2.732 6.851-4.99zm-2.495-9.464c0-.99-.356-1.782-1.346-1.782-2.772 0-4.99 5.227-5.306 7.366 3.207 0 6.652-2.06 6.652-5.584zm9.069 2.732c0-3.643 4-6.177 8.791-6.177 5.544 0 7.128 2.376 7.128 3.88 0 1.743-.871 2.614-2.772 2.614-1.544 0-2.614-.91-2.614-2.217 0-1.822 1.664-1.94 1.664-2.06 0-.198-1.11-.712-3.09-.712-2.019 0-3.88 1.188-3.88 2.811 0 3.406 9.662 2.812 9.662 8.752 0 3.564-3.88 6.494-10.533 6.494-3.643 0-7.287-1.663-7.287-4.95 0-1.663 1.188-2.732 3.09-2.732 1.504 0 2.613 1.188 2.613 2.376 0 2.138-1.98 2.415-1.98 2.574 0 .594 1.346 1.227 3.801 1.227 3.248 0 4.91-1.504 4.91-2.692 0-4.119-9.503-3.09-9.503-9.188zm45.065 6.099l1.306.871c-1.425 3.643-4.118 6.415-8.236 6.415-4.238 0-8.198-2.97-8.198-7.96 0-6.771 6.416-11.602 12.316-11.602 3.485 0 5.267 1.94 5.267 3.841 0 1.822-1.188 3.287-3.168 3.287-1.267 0-2.693-.753-2.693-2.614 0-2.178 2.138-2.297 2.138-2.495 0-.237-.316-.356-.91-.356-4.713 0-7.089 7.643-7.089 11.682 0 3.366 1.782 4.554 3.327 4.554 2.613 0 5.068-3.485 5.94-5.623zM572.09 9.27l-5.505 19.84c-.752 2.653-1.188 4.356-1.188 4.87 0 .357.238.555.634.555.91 0 2.217-1.9 3.603-4.079l1.11.753c-1.268 2.534-3.406 5.385-6.535 5.385-2.653 0-3.96-1.742-3.96-4 0-2.653.673-4.514 1.663-8.117l2.93-10.732c.12-.475.357-1.148.357-1.584 0-.91-.594-1.228-2.772-1.307l.396-1.425 9.267-.159zm16.592 20.671l1.228.872c-2.218 3.445-4.475 5.781-8.792 5.781-4.276 0-8.395-2.613-8.395-8.078 0-7.168 7.564-11.484 12.514-11.484 3.683 0 5.781 1.782 5.781 4.079 0 5.82-7.642 6.534-11.92 6.613-.197.871-.514 2.495-.514 3.405 0 2.733 1.03 3.802 3.247 3.802 2.891 0 5.386-2.732 6.851-4.99zm-2.495-9.464c0-.99-.356-1.782-1.346-1.782-2.772 0-4.99 5.227-5.307 7.366 3.208 0 6.653-2.06 6.653-5.584zm-1.227-5.821h-1.901l4.118-4.475c1.98-2.138 2.653-2.653 3.445-2.653 1.03 0 1.862.831 1.862 1.742 0 .99-.357 1.307-1.584 2.02l-5.94 3.366zm10.296 8.553c0-3.643 4-6.177 8.79-6.177 5.545 0 7.129 2.376 7.129 3.88 0 1.743-.871 2.614-2.772 2.614-1.545 0-2.614-.91-2.614-2.217 0-1.822 1.663-1.94 1.663-2.06 0-.198-1.108-.712-3.088-.712-2.02 0-3.881 1.188-3.881 2.811 0 3.406 9.662 2.812 9.662 8.752 0 3.564-3.88 6.494-10.533 6.494-3.644 0-7.287-1.663-7.287-4.95 0-1.663 1.188-2.732 3.089-2.732 1.505 0 2.614 1.188 2.614 2.376 0 2.138-1.98 2.415-1.98 2.574 0 .594 1.346 1.227 3.801 1.227 3.247 0 4.91-1.504 4.91-2.692 0-4.119-9.503-3.09-9.503-9.188zm37.62 11.484c2.534 0 6.256-6.098 6.256-12.513 0-2.495-.99-3.247-2.257-3.247-2.732 0-5.98 7.84-5.98 13.226 0 1.663.832 2.534 1.98 2.534zm6.732-23.839l.396-1.425 9.028-.159-5.623 21.939c-.396 1.623-.515 2.138-.515 2.692 0 .357.12.792.594.792 1.386 0 3.327-3.96 3.762-4.91l1.307.832c-1.188 2.85-3.128 5.98-6.613 5.98-2.138 0-3.683-1.387-4.079-4.198h-.079c-.91 2.257-2.93 4.197-5.663 4.197-3.92 0-6.93-2.851-6.93-7.761 0-6.89 5.94-11.801 10.771-11.801 2.258 0 3.604 1.069 4.277 2.851h.08c.712-3.01 1.9-6.811 1.9-7.405 0-.99-.594-1.545-2.613-1.624zm12.276 8.158l.396-1.426 8.712-.158c-1.584 5.306-4.356 13.939-4.356 15.325 0 .792.435 1.544 1.267 1.544 1.9 0 5.425-4.118 7.643-13.78l.673-2.93 5.702-.16-3.247 12.396c-.356 1.306-.634 2.494-.634 3.207 0 .792.317 1.03.674 1.03 1.108 0 2.89-3.208 3.286-3.96l1.268.633c-1.307 2.574-3.327 5.861-6.614 5.861-2.534 0-3.603-1.861-3.603-4 0-.316.04-.633.079-.99l-.08-.079c-1.9 2.852-3.722 5.07-6.93 5.07-2.256 0-4.474-1.664-4.474-5.228 0-4.277 2.693-9.662 2.693-10.93 0-1.108-.792-1.425-2.455-1.425zM691.76 36.12h-5.307l3.248-12.316c.673-2.494.792-3.247.792-3.682 0-.713-.317-1.03-2.218-1.11l.396-1.425 7.762-.158c-.238.871-.476 2.455-.95 4.197l.078.08c1.901-3.01 3.644-4.673 6.495-4.673 2.93 0 4.118 1.9 4.158 4.752h.079c1.861-2.93 3.841-4.752 6.613-4.752 2.376 0 4.515 2.217 4.515 5.346 0 3.128-3.168 8.672-3.168 10.93 0 .514.198.752.594.752 1.069 0 3.049-3.168 3.366-3.96l1.267.792c-1.426 2.613-3.525 5.702-6.89 5.702-1.743 0-3.644-1.188-3.644-4.197 0-3.525 3.327-9.227 3.327-11.643 0-.792-.436-1.425-1.307-1.425-2.257 0-5.425 5.82-7.603 14.097l-.713 2.693h-5.465l3.247-12.118c.475-1.742.832-3.207.832-3.603 0-.673-.396-1.07-1.109-1.07-2.297 0-5.702 5.545-8.395 16.791zm29.898-7.682c0-6.218 6.177-11.405 11.959-11.405 4.554 0 8.316 3.643 8.316 8.157 0 6.218-5.544 11.405-11.96 11.405-4.553 0-8.315-3.643-8.315-8.157zm8.237 6.652c3.643 0 6.336-8.553 6.336-13.464 0-2.217-.792-3.088-2.535-3.088-3.801 0-6.336 9.504-6.336 13.464 0 2.217.792 3.088 2.535 3.088zm16.394-16.077l.396-1.426 8-.158c-.238.95-.555 2.455-.872 3.88l.08.08c1.702-2.257 3.444-4.356 6.494-4.356 3.088 0 4.91 2.455 4.91 5.306 0 3.168-3.326 9.029-3.326 10.93 0 .396.158.792.712.792 1.07 0 3.09-3.445 3.485-4.04l1.188.872c-1.465 2.653-3.643 5.702-7.009 5.702-1.782 0-3.841-1.109-3.841-4.079 0-3.168 3.485-8.989 3.485-11.682 0-.91-.476-1.504-1.505-1.504-2.376 0-5.623 5.148-7.603 12.79l-1.03 4h-5.623l3.287-11.96c.435-1.623 1.069-3.484 1.069-4.038 0-.713-.277-1.03-2.297-1.11zm30.73 15.681c2.534 0 6.256-6.098 6.256-12.513 0-2.495-.99-3.247-2.257-3.247-2.732 0-5.98 7.84-5.98 13.226 0 1.663.832 2.534 1.98 2.534zm6.732-23.839l.396-1.425 9.028-.159-5.623 21.939c-.396 1.623-.515 2.138-.515 2.692 0 .357.12.792.594.792 1.386 0 3.327-3.96 3.762-4.91l1.307.832c-1.188 2.85-3.128 5.98-6.613 5.98-2.138 0-3.683-1.387-4.079-4.198h-.079c-.91 2.257-2.93 4.197-5.663 4.197-3.92 0-6.93-2.851-6.93-7.761 0-6.89 5.94-11.801 10.771-11.801 2.258 0 3.604 1.069 4.277 2.851h.08c.712-3.01 1.9-6.811 1.9-7.405 0-.99-.594-1.545-2.613-1.624zm26.492 19.087l1.228.872c-2.218 3.445-4.475 5.781-8.792 5.781-4.276 0-8.395-2.613-8.395-8.078 0-7.168 7.564-11.484 12.514-11.484 3.683 0 5.781 1.782 5.781 4.079 0 5.82-7.642 6.534-11.92 6.613-.197.871-.514 2.495-.514 3.405 0 2.733 1.03 3.802 3.247 3.802 2.891 0 5.386-2.732 6.851-4.99zm-2.495-9.464c0-.99-.356-1.782-1.346-1.782-2.772 0-4.99 5.227-5.307 7.366 3.208 0 6.653-2.06 6.653-5.584zm7.247 24.433l-1.188-1.505c1.386-.831 4.99-3.484 5.069-7.048-2.178 0-3.327-.95-3.327-2.93 0-1.624 1.307-3.09 2.97-3.09 1.624 0 3.287 1.505 3.287 4.158 0 3.604-3.485 8.198-6.811 10.415zM273.822 70.962c0 2.178.634 2.97 1.584 2.97 3.644 0 6.812-8.87 6.812-13.385 0-1.9-.792-2.851-1.901-2.851-3.723 0-6.495 8.395-6.495 13.266zm14.019-14.454h1.861c-.832 2.89-5.782 21.463-5.782 22.77 0 .752.396.99 3.09 1.07l-.397 1.504h-13.662l.396-1.505c3.406-.079 4.198-.554 4.594-1.584 1.109-2.93 1.465-4.554 1.98-6.098l-.08-.08c-1.425 1.901-2.93 3.01-5.385 3.01-3.247 0-6.494-2.772-6.494-7.801 0-5.663 4.672-11.761 11.404-11.761 2.693 0 4.673 1.584 5.386 3.01l3.089-2.535zm6.059 1.505l.396-1.426 8.712-.158c-1.584 5.306-4.356 13.939-4.356 15.325 0 .792.435 1.544 1.267 1.544 1.9 0 5.425-4.118 7.643-13.78l.673-2.93 5.702-.16-3.247 12.396c-.356 1.306-.634 2.494-.634 3.207 0 .792.317 1.03.674 1.03 1.108 0 2.89-3.208 3.286-3.96l1.268.633c-1.307 2.574-3.327 5.861-6.614 5.861-2.534 0-3.603-1.861-3.603-4 0-.316.04-.633.079-.99l-.08-.079c-1.9 2.852-3.722 5.07-6.93 5.07-2.256 0-4.474-1.664-4.474-5.228 0-4.277 2.693-9.662 2.693-10.93 0-1.108-.792-1.425-2.455-1.425zm39.164 10.93l1.228.87c-2.218 3.446-4.475 5.782-8.792 5.782-4.276 0-8.395-2.613-8.395-8.078 0-7.168 7.564-11.484 12.514-11.484 3.683 0 5.781 1.782 5.781 4.079 0 5.82-7.642 6.534-11.92 6.613-.197.871-.514 2.495-.514 3.405 0 2.733 1.03 3.802 3.247 3.802 2.891 0 5.386-2.732 6.851-4.99zm-2.495-9.465c0-.99-.356-1.782-1.346-1.782-2.772 0-4.99 5.227-5.307 7.366 3.208 0 6.653-2.06 6.653-5.584zm33.581 8.83l1.307.872c-1.426 3.643-4.119 6.415-8.237 6.415-4.237 0-8.197-2.97-8.197-7.96 0-6.771 6.415-11.602 12.315-11.602 3.485 0 5.267 1.94 5.267 3.841 0 1.822-1.188 3.287-3.168 3.287-1.267 0-2.693-.753-2.693-2.614 0-2.178 2.139-2.297 2.139-2.495 0-.237-.317-.356-.911-.356-4.712 0-7.088 7.643-7.088 11.682 0 3.366 1.782 4.554 3.326 4.554 2.614 0 5.069-3.485 5.94-5.623zm8-18.453l.395-1.425 8.87-.159-3.167 11.84.079.08c1.544-2.139 3.168-4.158 6.257-4.158 3.01 0 4.99 2.495 4.99 5.702 0 3.445-3.406 8.752-3.406 10.89 0 .277.316.436.712.436 1.149 0 3.05-3.05 3.525-3.841l1.267.752c-1.386 2.693-3.564 5.623-6.93 5.623-2.534 0-3.96-1.584-3.96-4.316 0-3.208 3.406-8.633 3.406-11.286 0-1.188-.476-1.663-1.228-1.663-2.416 0-5.742 4.514-8.83 16.79h-5.624l5.98-21.82c.237-.91.435-1.623.435-2.336 0-.713-.633-1.109-2.772-1.109zm37.936 6.574h5.86l-3.484 14.097c-.198.872-.396 1.94-.396 2.297 0 .317.08.713.554.713 1.505 0 3.446-3.643 3.842-4.87l1.306.712c-1.267 2.93-3.128 6.217-6.732 6.217-2.217 0-3.564-1.505-3.96-4.197h-.079c-1.584 2.455-3.128 4.197-6.019 4.197-3.406 0-7.049-2.138-7.049-7.643 0-6.058 5.623-11.92 11.167-11.92 2.456 0 3.644 1.308 4.277 3.169h.08l.633-2.772zm-1.663 5.108c0-2.336-.871-3.445-2.455-3.445-3.644 0-5.94 8.791-5.94 12.593 0 1.98.633 2.851 1.98 2.851 3.524 0 6.415-7.84 6.415-11.999zm12.91-3.524l.395-1.426 8-.158c-.238.95-.555 2.455-.872 3.88l.08.08c1.702-2.257 3.445-4.356 6.494-4.356 3.089 0 4.91 2.455 4.91 5.306 0 3.168-3.326 9.029-3.326 10.93 0 .396.158.792.713.792 1.069 0 3.089-3.445 3.485-4.04l1.188.872c-1.466 2.653-3.644 5.702-7.01 5.702-1.782 0-3.84-1.109-3.84-4.079 0-3.168 3.484-8.989 3.484-11.682 0-.91-.475-1.504-1.505-1.504-2.376 0-5.623 5.148-7.603 12.79l-1.03 4h-5.623l3.287-11.96c.436-1.623 1.07-3.484 1.07-4.038 0-.713-.278-1.03-2.298-1.11zm39.203-1.505h5.861l-4.752 17.582c-1.703 6.297-6.85 8.237-11.721 8.237-4.99 0-7.841-1.94-7.841-4 0-1.94 1.425-2.89 3.247-2.89 1.742 0 2.851 1.267 2.851 2.534 0 .95-.713 1.663-1.425 1.94.277.555 1.227.911 2.653.911 3.287 0 5.267-1.584 6.692-7.682l-.079-.08c-1.188 1.585-3.168 2.535-5.148 2.535-3.089 0-6.494-2.93-6.494-7.524 0-6.494 6.019-12.038 11.246-12.038 2.376 0 3.564 1.188 4.198 3.247h.079l.633-2.772zm-3.88 1.584c-3.802 0-6.178 9.148-6.178 12.434 0 2.139.713 3.01 1.624 3.01 3.801 0 6.534-8.078 6.534-11.682 0-2.93-.872-3.762-1.98-3.762zm27.878 10.85l1.228.872c-2.218 3.445-4.475 5.781-8.792 5.781-4.276 0-8.395-2.613-8.395-8.078 0-7.168 7.564-11.484 12.514-11.484 3.683 0 5.781 1.782 5.781 4.079 0 5.82-7.642 6.534-11.92 6.613-.197.871-.514 2.495-.514 3.405 0 2.733 1.03 3.802 3.247 3.802 2.891 0 5.386-2.732 6.851-4.99zm-2.495-9.464c0-.99-.356-1.782-1.346-1.782-2.772 0-4.99 5.227-5.307 7.366 3.208 0 6.653-2.06 6.653-5.584zm24.671 8.514l1.267.554c-1.386 3.881-3.564 7.05-7.96 7.05-2.89 0-4.237-1.902-7.563-1.902-1.782 0-2.376.476-3.564 1.901l-1.267-.633c2.376-5.148 7.801-8.554 12.236-10.732 3.129-1.544 5.544-2.93 6.534-4.237l-.079-.08c-1.624.872-3.524 1.585-5.386 1.585-2.296 0-3.84-.872-5.742-.872-.99 0-1.782.713-2.732 3.168l-1.188-.712c1.188-3.802 4.356-7.05 7.682-7.05 2.376 0 5.228 1.585 6.812 1.585 1.544 0 2.534-.436 3.564-1.584l1.108.871c-3.207 5.742-7.365 8-14.018 11.088-2.336 1.109-3.247 2.099-4.514 3.326l.079.08c2.217-1.149 3.287-1.901 5.465-1.901 2.85 0 3.801 1.505 5.781 1.505 1.782 0 2.93-1.426 3.485-3.01zm15.92-3.96l-.793 3.564h-9.9l.792-3.564h9.9zm4.157-6.098l.396-1.347 8.475-.158-3.248 10.85c-.396 1.386-.95 2.93-.95 4.435 0 1.505.634 2.218 1.663 2.218 4.435 0 8.475-8.554 8.475-12.355 0-.634-.08-.871-.238-.871-.119 0-.554.237-1.109.237-1.346 0-2.297-1.109-2.297-2.495 0-1.544.872-2.415 2.456-2.415s2.85.871 2.85 4.435c0 6.653-4.989 15.127-11.166 15.127-3.168 0-5.782-2.534-5.782-6.098 0-2.772 2.693-8.633 2.693-10.217 0-.792-.396-1.188-2.218-1.346zm19.523 9.504c0-6.218 6.178-11.405 11.96-11.405 4.553 0 8.315 3.643 8.315 8.157 0 6.218-5.544 11.405-11.959 11.405-4.554 0-8.316-3.643-8.316-8.157zm8.237 6.652c3.643 0 6.336-8.553 6.336-13.464 0-2.217-.792-3.088-2.535-3.088-3.801 0-6.336 9.504-6.336 13.464 0 2.217.792 3.088 2.535 3.088zm16.236-16.077l.396-1.426 8.712-.158c-1.584 5.306-4.356 13.939-4.356 15.325 0 .792.435 1.544 1.267 1.544 1.9 0 5.425-4.118 7.643-13.78l.673-2.93 5.702-.16-3.247 12.396c-.356 1.306-.633 2.494-.633 3.207 0 .792.316 1.03.673 1.03 1.109 0 2.89-3.208 3.287-3.96l1.267.633c-1.307 2.574-3.327 5.861-6.613 5.861-2.535 0-3.604-1.861-3.604-4 0-.316.04-.633.08-.99l-.08-.079c-1.9 2.852-3.722 5.07-6.93 5.07-2.257 0-4.475-1.664-4.475-5.228 0-4.277 2.693-9.662 2.693-10.93 0-1.108-.792-1.425-2.455-1.425zm25.185 4.197c0-3.643 4-6.177 8.792-6.177 5.544 0 7.128 2.376 7.128 3.88 0 1.743-.872 2.614-2.772 2.614-1.545 0-2.614-.91-2.614-2.217 0-1.822 1.663-1.94 1.663-2.06 0-.198-1.109-.712-3.089-.712-2.02 0-3.88 1.188-3.88 2.811 0 3.406 9.662 2.812 9.662 8.752 0 3.564-3.88 6.494-10.534 6.494-3.643 0-7.286-1.663-7.286-4.95 0-1.663 1.188-2.732 3.089-2.732 1.505 0 2.613 1.188 2.613 2.376 0 2.138-1.98 2.415-1.98 2.574 0 .594 1.347 1.227 3.802 1.227 3.247 0 4.91-1.504 4.91-2.692 0-4.119-9.504-3.09-9.504-9.188zm40.828 1.782l1.386.95c-.634 1.783-2.534 3.288-4.435 3.288-1.505 0-3.089-1.268-3.089-3.564 0-6.336 9.425-3.485 9.425-11.524 0-2.218-1.743-3.683-3.802-3.683-2.534 0-4.593 2.06-4.593 4.752 0 .871.277 1.545.792 2.376l-1.584.911c-.872-1.03-1.11-2.336-1.11-3.643 0-3.683 3.446-6.455 7.683-6.455 4.396 0 8.475 2.693 8.475 6.653 0 8.553-13.385 5.069-13.385 10.613 0 .831.475 1.663 1.584 1.663 1.148 0 2.138-1.505 2.653-2.337zm-7.801 8.475c0-1.743 1.227-3.129 3.128-3.129s3.129 1.386 3.129 3.129c0 1.742-1.228 3.128-3.129 3.128-1.9 0-3.128-1.386-3.128-3.128z"/>
        <g transform="translate(.189 3.518)">
            <mask id="b" fill="#fff">
                <use xlink:href="#a"/>
            </mask>
            <path fill="#E0564F" d="M.003 35.827c.04-6.077.662-12.09 1.959-18.033A84.966 84.966 0 0 1 7.69.588c.218-.478.411-.601.912-.348 1.165.59 2.358 1.125 3.55 1.664.391.178.46.374.274.78a78.748 78.748 0 0 0-3.873 10.218 80.423 80.423 0 0 0-2.797 13.376 78.687 78.687 0 0 0-.535 12.544 80.603 80.603 0 0 0 1.246 11.363 79.217 79.217 0 0 0 5.918 18.834c1.643 3.594 3.528 7.054 5.73 10.336.663.988.666.986-.326 1.653-.915.615-1.841 1.214-2.738 1.855-.426.305-.665.288-.971-.178a88.279 88.279 0 0 1-5.723-10.092 83.998 83.998 0 0 1-5.926-16.546A82.585 82.585 0 0 1 .485 44.9c-.313-3.013-.511-6.037-.482-9.072" mask="url(#b)"/>
        </g>
        <path fill="#E0564F" d="M90.288 24.916c-1.773.122-4.136.289-6.5.441-.379.025-.337.245-.32.503.19 2.704.368 5.409.56 8.112.07.977.084.953 1.067.867 1.393-.122 2.79-.226 4.186-.293a13.9 13.9 0 0 0 4.881-1.134c1.378-.595 2.207-1.669 2.386-3.155.207-1.715-.205-3.242-1.675-4.322-1.19-.874-2.569-1.045-4.585-1.019zm.043-4.656c2.412-.025 4.667.203 6.756 1.262 5.398 2.737 6.61 9.872 2.38 14.019-.818.801-1.735 1.482-2.788 1.95-.368.163-.457.302-.218.697 2.726 4.511 5.43 9.036 8.14 13.557.3.503.277.534-.307.576-1.395.098-2.791.19-4.185.313-.46.04-.746-.073-1.002-.5-2.503-4.165-5.032-8.315-7.546-12.474-.219-.362-.49-.521-.916-.493-1.936.128-3.873.243-5.81.354-.344.02-.455.197-.435.51.122 1.903.24 3.806.367 5.709.128 1.902.268 3.803.402 5.705.04.559.074 1.118.112 1.678.02.308-.08.505-.424.524-1.36.078-2.72.155-4.078.247-.43.028-.54-.187-.563-.568-.226-3.713-.45-7.426-.697-11.138-.273-4.084-.58-8.166-.855-12.25-.19-2.816-.345-5.635-.535-8.45-.029-.436.191-.507.528-.53 1.564-.106 3.125-.256 4.69-.318 2.368-.092 4.724-.396 6.984-.38zM121.619 48.034c7.309.118 13.356-5.584 13.384-13.197.028-7.73-5.644-13.606-13.147-13.625-7.616-.02-13.458 5.724-13.494 13.233-.038 7.876 5.826 13.696 13.257 13.59zm-.093 4.063c-9.668.096-17.414-7.535-17.342-17.695.068-9.626 7.408-17.233 17.59-17.241 10.028-.008 17.44 7.72 17.406 17.663-.034 10.002-7.876 17.393-17.654 17.273zM36.234 28.68c-1.786.12-3.57.257-5.357.353-.526.028-.666.244-.632.735.142 2.013.254 4.027.388 6.04.08 1.212.188 2.422.27 3.633.024.357.155.47.53.437 1.765-.15 3.532-.274 5.3-.397 1.5-.104 2.882-.519 4.113-1.429 2.428-1.793 2.507-6.035.156-7.934-1.407-1.138-3.009-1.507-4.768-1.438zm-.179-4.815c2.434.006 4.42.202 6.25 1.121 3.214 1.615 5.042 4.235 5.457 7.819.423 3.664-.766 6.697-3.616 9.048-1.434 1.183-3.13 1.797-4.928 2.145-2.445.472-4.93.529-7.405.675-.404.024-.576.151-.547.567.138 2.032.26 4.065.397 6.097.119 1.753.25 3.504.38 5.256.029.385-.104.609-.513.633-1.34.08-2.681.157-4.02.254-.475.034-.61-.189-.637-.622-.223-3.712-.447-7.424-.696-11.135-.27-4.046-.576-8.09-.85-12.135-.193-2.853-.356-5.707-.543-8.56-.027-.411.219-.459.523-.48 1.563-.108 3.125-.227 4.688-.325 2.16-.136 4.32-.256 6.06-.358zM58.85 31.305c-.984 2.59-1.596 5.112-2.309 7.604-.112.394.111.455.422.43 1.578-.132 3.167-.08 4.74-.295.636-.087.662-.11.387-.723-.558-1.243-1.104-2.491-1.674-3.728-.489-1.063-1.005-2.113-1.566-3.288zm7.2 23.497c-.906-.045-1.564.093-2.187-.225-.283-.144-.425-.322-.456-.638-.124-1.266.368-1.89 1.68-2.08.682-.1 1.367-.188 2.054-.256.425-.042.556-.19.38-.618-1.164-2.855-2.324-5.712-3.604-8.518-.168-.368-.38-.514-.767-.483-1.636.132-3.272.26-4.909.378-.595.043-1.192.056-1.789.079-.501.019-.796.203-.932.756-.724 2.936-1.495 5.861-2.244 8.791-.154.603-.097.695.522.715.896.028 1.793.031 2.689.023.627-.006 1.018.335 1.272.848.282.57.118 1.136-.124 1.674-.097.218-.346.182-.548.203-1.913.205-3.836.277-5.754.299-1.983.023-3.935.417-5.918.377-.945-.02-.95-.015-.961-.984-.016-1.257.333-1.671 1.71-1.856.61-.082 1.219-.177 1.827-.256.716-.093 1.088-.521 1.36-1.1a19.79 19.79 0 0 0 1.037-2.723c1.323-4.384 2.633-8.77 3.872-13.178.956-3.4 1.985-6.779 2.975-10.17.199-.68.388-1.366.537-2.06.077-.356.261-.488.597-.547.59-.102 1.18-.161 1.78-.179.426-.012.68.142.894.515.775 1.348 1.432 2.75 2.063 4.17 1.556 3.5 3.122 6.998 4.7 10.489 1.572 3.474 3.062 6.984 4.573 10.485.852 1.975.868 1.966 2.988 2.395.327.066.655.145.973.247.967.308 1.432 1.67.881 2.532-.12.189-.303.187-.485.22-1.292.24-2.604.204-3.906.273-2.347.123-4.694.24-6.78.402zM158.086 16.51c-.01-.093-.002-.19-.027-.279-.151-.533.115-.706.596-.737 1.247-.08 2.492-.177 3.74-.261 3.256-.221 6.511-.443 9.769-.655 1.488-.097 2.98-.167 4.469-.265.442-.029.65.113.657.588.012.746.068 1.493.121 2.238.03.41-.146.562-.545.587-3.537.221-7.074.453-10.609.685-1.265.083-2.53.184-3.795.26-.49.03-.683.232-.643.742.142 1.788.252 3.579.371 5.369.105 1.547.229 3.094.296 4.643.022.495.18.66.665.623 1.896-.14 3.795-.257 5.693-.386 1.377-.093 2.753-.194 4.131-.286 1.544-.102 3.09-.185 4.634-.305.398-.031.606.067.633.48.05.784.105 1.567.167 2.35.03.38-.142.546-.508.573-1.246.092-2.49.202-3.737.288-3.237.224-6.474.44-9.712.655-.336.022-.674.047-1.007.03-.502-.027-.657.205-.623.679.102 1.398.182 2.797.274 4.196.098 1.51.198 3.02.298 4.531.04.615.087 1.23.118 1.846.017.294.162.383.437.363 2.866-.207 5.73-.415 8.594-.61 2.047-.14 4.096-.253 6.143-.39.344-.024.54.072.563.435.054.839.11 1.678.166 2.517.022.342-.166.453-.477.473-2.233.144-4.466.293-6.7.444-3.72.253-7.442.505-11.163.765-.762.053-.814.015-.868-.75-.285-4.046-.582-8.09-.856-12.136-.18-2.629-.312-5.26-.489-7.89-.197-2.964-.422-5.927-.629-8.891-.058-.839-.09-1.68-.136-2.52l-.011.001"/>
        <g transform="translate(20.211 .523)">
            <mask id="d" fill="#fff">
                <use xlink:href="#c"/>
            </mask>
            <path fill="#E0564F" d="M122.537 16.028c1.204-.007 1.19-.006 1.27 1.186.243 3.618.505 7.235.746 10.853.171 2.555.311 5.113.481 7.668.211 3.17.445 6.34.654 9.51.029.441.287.465.609.443 1.787-.12 3.573-.246 5.36-.367 1.508-.102 3.015-.203 4.523-.3.689-.046 1.38-.08 2.066-.125.347-.022.528.126.547.476.044.784.081 1.568.138 2.351.03.408-.14.568-.54.593-1.49.094-2.977.216-4.466.317-3.276.222-6.552.44-9.828.654-.41.027-.822.015-1.232.042-.39.027-.546-.156-.543-.525.008-1.274-.15-2.538-.236-3.806-.214-3.208-.436-6.415-.645-9.624-.169-2.574-.317-5.15-.489-7.724-.2-3.021-.419-6.041-.626-9.062-.045-.653-.075-1.306-.117-1.96-.023-.354.187-.448.485-.467.615-.041 1.229-.088 1.843-.133" mask="url(#d)"/>
            <path fill="#FFF" d="M20.482 10.309c-1.304.224-2.607.454-3.911.68-.295.052-.537.052-.436-.377.43-1.837.851-3.675 1.279-5.512.007-.032.043-.058.116-.148 1.072 1.666 2.11 3.283 3.152 4.897.173.268.113.406-.2.46zm8.523 6.958A5866.92 5866.92 0 0 1 18.244.649C17.98.242 17.694.148 17.2.116c-.46-.03-.791.157-1.184.234-.387.077-.562.28-.647.657-.323 1.441-.673 2.877-1.01 4.315-.956 4.078-1.915 8.156-2.859 12.236-.094.406-.28.587-.698.654-1.566.251-3.127.537-4.687.823-.406.074-.61-.011-.686-.47-.387-2.323-.807-4.641-1.213-6.962-.479-2.744-.962-5.488-1.424-8.235-.068-.406-.224-.555-.629-.469-.456.097-.918.165-1.378.244-.717.122-.737.138-.611.864.594 3.427 1.196 6.852 1.791 10.278.413 2.376.824 4.752 1.225 7.13.08.48.186.788.812.65 1.184-.258 2.386-.433 3.581-.64l3.14-.537c.816.04 1.588-.216 2.384-.291.54-.051.764-.3.875-.818.361-1.682.773-3.353 1.153-5.03.097-.43.295-.67.765-.747 2.063-.336 4.121-.696 6.176-1.076.444-.082.676.059.907.423.949 1.502 1.937 2.978 2.885 4.48.226.357.475.468.875.385a41.168 41.168 0 0 1 1.985-.349c.417-.064.551-.175.276-.598z" mask="url(#d)"/>
        </g>
        <path fill="#FFF" d="M160.714 63.485c-.097.125-.13.15-.142.183-.979 2.728-1.95 5.457-2.938 8.181-.155.43.072.43.37.424 1.864-.043 3.729-.086 5.594-.125.69-.015.729-.067.464-.7-.67-1.604-1.337-3.21-2.01-4.812-.433-1.029-.872-2.055-1.338-3.15zm11.078 18.111c-.115-2.038.047-4.061-.09-6.077a17.188 17.188 0 0 1-.033-.784c-.048-2.525-.07-5.051-.148-7.575-.086-2.822-.2-5.644-.22-8.469-.004-.456.026-.78.607-.7.45.062.874-.094 1.234-.093.3.001.597.01.895.018.237.007.36.17.482.342 2.879 4.101 5.758 8.203 8.639 12.303 1.342 1.91 2.686 3.818 4.155 5.708 0-.539.008-1.077-.003-1.616-.009-.373-.058-.746-.065-1.119-.048-2.412-.081-4.825-.138-7.238-.061-2.655-.145-5.309-.21-7.964-.019-.742.013-.762.739-.772.466-.007.934-.008 1.4-.01.892-.003.892-.003.943.9.128-.3-.088-.67.217-.869.261-.172.58-.11.875-.117 3.863-.085 7.727-.166 11.589-.253.392-.01.783-.05 1.173-.086.417-.04.641.14.648.563.012.711.017 1.422.027 2.133.006.397-.255.446-.561.448-.803.006-1.607.005-2.41.024-.671.016-1.342.085-2.012.077-.502-.007-.644.201-.63.673.055 2.095.083 4.19.13 6.284.074 3.347.12 6.695.25 10.04.056 1.403.05 2.805.104 4.207.02.512-.174.716-.677.704a34.27 34.27 0 0 0-1.848.014c-.375.011-.54-.138-.549-.523-.022-1.01-.082-2.018-.104-3.028-.085-3.74-.154-7.48-.245-11.22-.053-2.13-.148-4.26-.195-6.391-.01-.49-.176-.658-.66-.641-1.548.054-3.096.084-4.645.108-.287.004-.407.092-.4.386.06 2.205.113 4.412.17 6.618.002.15.032.298.037.447.045 1.945.083 3.89.134 5.834.066 2.561.129 5.122.218 7.683.021.57-.107.81-.738.98-.678.183-1.26-.183-1.896-.054-.25.052-.364-.219-.491-.4l-12.676-18.038c-.062-.09-.133-.175-.252-.331-.136.439.006.799.013 1.155.029 1.515.042 3.029.102 4.544.1 2.56.046 5.127.17 7.685.085 1.758.008 3.518.147 5.271.028.353-.13.466-.453.473-1.642.036-3.284.069-4.925.128-.44.016-.686-.138-.856-.543-.928-2.207-1.886-4.401-2.803-6.612-.184-.445-.41-.645-.906-.629-2.741.09-5.485.162-8.228.22-.44.01-.613.221-.749.598-.817 2.27-1.664 4.53-2.474 6.803-.157.443-.384.607-.852.61-1.567.01-3.135.047-4.701.104-.52.02-.72-.132-.729-.687a656.962 656.962 0 0 0-.225-10.21c-.092-2.953-.153-5.907-.24-8.86-.047-1.57.005-3.144-.133-4.71-.028-.307.1-.469.403-.472.766-.01 1.532-.01 2.297-.016.37-.003.413.244.413.53.003.823.05 1.645.075 2.467.079 2.561.094 5.124.16 7.686.109 4.334.239 8.668.364 13.166.543-1.486 1.031-2.83 1.521-4.173l6.376-17.445c.25-.685.508-1.367.744-2.058.106-.305.299-.437.608-.489.626-.103 1.25-.036 1.876-.023.333.006.433.238.536.485 1.141 2.706 2.28 5.412 3.425 8.117 2.054 4.857 4.113 9.713 6.17 14.569.029.066.07.127.104.19zM109.995 61.873c-.111.76-.114.724-.89.778-1.417.098-2.835.1-4.253.106-.38 0-.536.14-.532.529.023 2.637.094 5.273.205 7.907.009.206.014.412.018.617.044 2.413.04 4.828.148 7.238.074 1.665.053 3.329.112 4.992.018.483-.151.619-.603.611-.634-.01-1.27-.038-1.902.06-.379.059-.554-.1-.566-.489-.023-.803-.08-1.606-.097-2.41-.052-2.487-.059-4.976-.145-7.462-.107-3.084-.174-6.169-.225-9.254-.01-.58-.075-1.157-.087-1.736-.008-.356-.15-.52-.508-.494-1.938.139-3.881.086-5.821.15-.186.006-.371.046-.557.05-2.557.05-5.114.102-7.671.143-1.345.022-1.354.013-1.332 1.364.029 1.814.07 3.628.114 5.442.024.999.049 1.038 1.066 1.004 2.91-.096 5.82-.214 8.732-.22.84-.001.832 0 .85.835.012.541.045 1.083.083 1.624.03.418-.113.609-.565.614-1.941.024-3.882.073-5.823.119-1.25.03-2.5.078-3.75.1-.369.005-.492.165-.48.514.075 2.317.147 4.635.21 6.953.01.327.135.48.47.47 1.716-.054 3.432-.109 5.148-.15 1.55-.036 3.099-.054 4.648-.085.28-.006.357.155.36.389.01.748.012 1.497.022 2.245.005.405-.267.434-.567.438-.99.012-1.978.056-2.966.09-2.518.084-5.039.098-7.559.15-.652.013-1.305.052-1.956.098-.443.032-.644-.12-.649-.597-.01-1.121-.075-2.242-.098-3.364-.051-2.468-.055-4.938-.144-7.406-.107-2.972-.136-5.945-.234-8.917-.044-1.346-.06-2.692-.1-4.038-.013-.45.14-.633.607-.64 3.34-.046 6.68-.163 10.02-.24 4.403-.1 8.807-.204 13.209-.342 2.107-.066 4.217-.018 6.323-.172.677-.05.768.067.798.759.052 1.233.042 2.467.09 3.702.1 2.56.06 5.126.177 7.685.086 1.887.046 3.776.191 5.662.263 3.404 3.653 5.365 6.54 3.698 1.466-.848 2.107-2.266 2.157-3.903.088-2.823-.06-5.646-.174-8.468-.006-.15-.01-.3-.013-.449l-.135-7.575c-.002-.093-.003-.187-.01-.28-.073-1.07-.073-1.063.976-1.08.447-.009.893-.048 1.34-.078.617-.042.737.055.753.659.023.878.051 1.756.081 2.634.085 2.468.056 4.94.171 7.405.084 1.794.05 3.589.158 5.383.105 1.765-.06 3.52-.82 5.158-1.988 4.278-7.302 5.607-11.082 2.79-1.832-1.365-2.65-3.268-2.993-5.453-.182-1.153-.13-2.315-.182-3.47-.11-2.447-.083-4.9-.173-7.349-.061-1.681-.08-3.363-.115-5.044M56.748 62.03c0 1.53-.003 3.074.003 4.617 0 .299.045.597.05.896.048 2.45.057 4.9.147 7.349.065 1.758.2 3.51-.12 5.257-.677 3.703-3.718 6.307-7.356 6.288-3.336-.018-6.335-2.454-7.105-5.78a15.222 15.222 0 0 1-.38-3.168c-.063-3.552-.102-7.106-.25-10.656-.07-1.682.025-3.368-.15-5.045-.033-.322.105-.505.437-.509.747-.009 1.494-.01 2.241-.02.395-.005.445.25.45.56.012.935.046 1.869.077 2.803.086 2.542.061 5.088.17 7.629.103 2.39-.02 4.793.308 7.169.32 2.32 1.837 3.712 4.148 3.936 1.538.149 3.27-.943 3.98-2.505.313-.69.486-1.404.49-2.17.022-3.76-.15-7.517-.234-11.274-.043-1.926-.066-3.853-.125-5.778-.016-.51.154-.693.667-.696 1.568-.011 3.138.047 4.701-.108.591-.06.956.146 1.28.657 1.69 2.67 3.424 5.312 5.12 7.978.267.419.392.397.623-.003 1.618-2.8 3.255-5.59 4.864-8.396.222-.388.472-.582.923-.574.803.015 1.606-.001 2.409-.018.45-.01.523.137.296.526-1.506 2.585-3 5.177-4.5 7.765-.693 1.198-1.375 2.402-2.09 3.586-.248.41-.227.725.036 1.123 2.475 3.744 4.932 7.499 7.389 11.254.114.175.368.348.225.58-.115.185-.378.11-.578.114-.71.013-1.422-.02-2.128.035-.56.043-.882-.171-1.18-.634-1.78-2.768-3.588-5.517-5.389-8.272-.411-.629-.424-.632-.809.028-1.63 2.793-3.272 5.58-4.87 8.393-.336.591-.702.877-1.404.824-.646-.048-1.302.062-1.955.074-.596.011-.66-.1-.373-.593 2.21-3.798 4.407-7.603 6.648-11.382.375-.634.384-1.082-.032-1.708-2.154-3.238-4.255-6.51-6.379-9.768-.095-.147-.145-.346-.275-.385"/>
        <g transform="translate(21.556 56.52)">
            <mask id="f" fill="#fff">
                <use xlink:href="#e"/>
            </mask>
            <path fill="#FFF" d="M111.607 5.568c-.728 0-1.457-.003-2.185 0-.776.004-.792.01-.773.786.067 2.841.15 5.683.216 8.524.056 2.45.092 4.9.146 7.35.012.579.061 1.157.086 1.736.01.272.111.418.41.39 1.563-.142 3.138.03 4.697-.19 3.073-.434 5.345-1.927 6.416-4.95.952-2.686.898-5.413.11-8.113-.85-2.919-2.742-4.786-5.772-5.4-1.11-.225-2.232-.143-3.351-.133zm12.752 9.397c.053 2.541-.37 4.84-1.54 6.955-1.78 3.217-4.628 4.805-8.177 5.31-1.355.193-2.72.092-4.078.196-1.283.098-2.576-.04-3.86.117-.432.053-.649-.09-.659-.577-.061-3.103-.145-6.205-.222-9.308-.112-4.541-.226-9.083-.334-13.625-.01-.439-.29-.95.038-1.3.302-.32.822-.138 1.238-.144 2.664-.037 5.333-.412 7.992-.045 4.93.679 8.295 3.923 9.268 8.828.245 1.235.377 2.476.334 3.593zM10.682 10.347c-.216.088-.234.206-.27.308-.939 2.603-1.87 5.207-2.817 7.807-.168.462.016.56.43.55a456.25 456.25 0 0 1 5.707-.113c.457-.005.5-.157.335-.536-.535-1.235-1.05-2.478-1.573-3.718l-1.812-4.298zm9.746 19.36c-.205 0-.41-.004-.616 0-.91.015-.904.013-1.273-.859-.888-2.101-1.792-4.197-2.667-6.304-.185-.447-.443-.616-.93-.6-2.741.09-5.484.16-8.227.221-.386.008-.557.176-.68.52-.82 2.27-1.668 4.528-2.474 6.802-.17.479-.39.695-.918.677-.65-.023-1.304.063-1.956.078-.63.015-.678-.057-.471-.628a5825.85 5825.85 0 0 1 3.43-9.44C5.4 15.36 7.166 10.548 8.91 5.728c.171-.474.42-.617.917-.697.5-.08.978-.03 1.464-.055.376-.018.573.147.716.487 1.443 3.43 2.897 6.857 4.348 10.284 1.86 4.392 3.718 8.784 5.579 13.176.294.694.257.755-.497.767-.336.005-.672 0-1.009 0v.016zM183.992 17.563c1.435-.026 1.435-.026 1.686 1.348.382 2.101 1.506 3.342 3.37 3.717 2.091.42 4.437-1.321 4.631-3.466.112-1.233.05-2.441-.829-3.441-.641-.728-1.485-1.111-2.383-1.404-1.347-.44-2.759-.666-4.052-1.282-2.414-1.15-3.63-3.048-3.724-5.72-.063-1.812.348-3.461 1.529-4.856 1.219-1.44 2.797-2.202 4.68-2.327 3.889-.26 6.475 2.28 7.053 6.037.2 1.294.205 1.288-1.081 1.304-.41.005-.82.023-1.227.072-.413.05-.626-.083-.695-.51-.107-.684-.255-1.36-.566-1.989-.705-1.431-1.852-2.036-3.494-1.833-1.49.184-2.73 1.29-2.991 2.72-.499 2.727.54 3.949 3.129 4.743 1.071.329 2.17.573 3.223.95 3.874 1.384 5.249 5.132 4.339 8.674-1.378 5.361-7.682 7.272-11.76 3.537-1.692-1.55-2.323-3.61-2.363-5.872-.006-.301.139-.401.405-.402h1.12" mask="url(#f)"/>
        </g>
    </g>
</svg>
