<?xml version="1.0" standalone="no"?>
<!DOCTYPE svg PUBLIC "-//W3C//DTD SVG 20010904//EN"
 "http://www.w3.org/TR/2001/REC-SVG-20010904/DTD/svg10.dtd">
<svg version="1.0" xmlns="http://www.w3.org/2000/svg"
 width="700.000000pt" height="700.000000pt" viewBox="0 0 700.000000 700.000000"
 preserveAspectRatio="xMidYMid meet">
<metadata>
Created by potrace 1.11, written by Peter Selinger 2001-2013
</metadata>
<g transform="translate(0.000000,700.000000) scale(0.100000,-0.100000)"
fill="#000000" stroke="none">
<path d="M127 6972 c-16 -3 -17 -233 -17 -3473 l0 -3469 23 -1 c12 0 390 -1
841 -1 559 -1 820 2 825 10 3 5 6 870 6 1920 -1 1051 2 1909 6 1906 4 -2 17
-25 30 -50 12 -26 43 -85 69 -133 26 -47 75 -140 110 -206 34 -66 75 -142 90
-170 15 -27 58 -108 95 -180 37 -71 71 -134 75 -140 4 -5 40 -73 80 -150 40
-77 85 -162 100 -190 15 -27 53 -99 85 -160 71 -133 196 -363 295 -540 40 -71
85 -152 100 -180 15 -27 37 -67 49 -87 47 -84 62 -110 97 -175 21 -37 48 -85
61 -105 13 -21 23 -40 23 -44 0 -3 17 -36 39 -72 21 -37 47 -83 57 -102 85
-157 229 -410 234 -410 10 0 458 810 503 910 4 8 15 29 25 45 10 17 42 75 72
130 29 55 60 114 70 130 10 17 35 64 57 105 52 97 110 205 138 255 12 22 44
81 70 130 27 50 70 130 97 179 26 49 48 91 48 93 0 2 11 20 23 41 13 20 49 84
79 142 30 58 66 125 80 150 14 25 49 90 78 145 29 55 56 105 60 110 6 9 44 78
130 240 44 83 121 225 145 266 l21 39 0 -1916 c-1 -1054 2 -1921 6 -1927 4 -7
252 -10 835 -9 455 0 834 1 841 1 9 1 12 702 12 3471 0 3298 -1 3470 -17 3471
-10 0 -383 1 -830 1 -647 1 -815 -2 -828 -12 -14 -12 -28 -33 -57 -90 -7 -14
-49 -92 -94 -175 -44 -82 -101 -188 -126 -235 -217 -403 -333 -620 -378 -705
-29 -55 -61 -113 -70 -130 -10 -16 -43 -79 -75 -140 -32 -60 -61 -114 -65
-120 -4 -5 -33 -59 -65 -120 -32 -60 -69 -130 -83 -155 -14 -25 -45 -83 -69
-129 -88 -166 -136 -256 -143 -266 -4 -5 -33 -59 -65 -120 -32 -60 -70 -132
-85 -160 -15 -27 -49 -90 -76 -140 -26 -49 -83 -155 -126 -235 -43 -80 -91
-169 -105 -197 -15 -29 -30 -53 -33 -53 -3 0 -18 24 -33 53 -15 28 -45 86 -68
127 -22 41 -63 118 -91 170 -28 52 -63 118 -78 145 -15 28 -49 91 -75 140 -26
50 -91 171 -145 270 -53 99 -118 221 -145 270 -26 50 -93 173 -148 275 -54
102 -117 219 -139 260 -22 41 -53 98 -68 125 -15 28 -45 84 -67 125 -22 41
-56 104 -75 140 -20 36 -53 99 -75 140 -68 128 -136 253 -160 295 -12 22 -27
49 -32 60 -5 11 -36 70 -68 130 -33 61 -78 144 -100 185 -110 206 -135 249
-148 260 -12 10 -198 13 -828 14 -448 0 -821 0 -830 -2z"/>
</g>
</svg>
