<svg xmlns="http://www.w3.org/2000/svg" x="0px" y="0px" viewBox="0 0 70 30">
<path fill="#FFFFFF" d="M3.1,28.2H1v0.4h11.5v-7.2h-0.3c0,0,0,4.2-1.4,5.5c-1.2,1.2-2.4,1.3-4.4,1.3V14.9c0,0,1.4-0.1,2.1,0.6
	c1.1,1.1,1.2,2.4,1.2,4.3H10V9.5H9.6c0,1.9-0.1,3.3-1.2,4.3c-0.7,0.7-2.1,0.6-2.1,0.6V1.8c2,0,3,0.1,4.1,1.3
	c1.4,1.4,1.4,5.5,1.4,5.5h0.3V1.4H1v0.4h2.1V28.2L3.1,28.2z"/>
<path fill="#FFFFFF" d="M25.5,1.8v26.5c2,0,3.3-0.1,4.4-1.3c1.4-1.4,1.4-5.5,1.4-5.5h0.3v7.2H20.2v-0.4h2.1V1.7h-2.1V1.3h7.2v0.4H25.5
	L25.5,1.8L25.5,1.8z"/>
<path fill="#FFFFFF" d="M43.9,1.8v26.5c2,0,3.3-0.1,4.4-1.3c1.4-1.4,1.4-5.5,1.4-5.5h0.3v7.2H38.6v-0.4h2.1V1.7h-2.1V1.3h7.2v0.4H43.9
	L43.9,1.8L43.9,1.8z"/>
<path fill="#FFFFFF" d="M59.6,28.2h-2.1v0.4H69v-7.2h-0.3c0,0,0,4.2-1.4,5.5c-1.2,1.2-2.4,1.3-4.4,1.3V14.9c0,0,1.4-0.1,2.1,0.6
	c1.1,1.1,1.2,2.4,1.2,4.3h0.4V9.5h-0.4c0,1.9-0.1,3.3-1.2,4.3c-0.7,0.7-2.1,0.6-2.1,0.6V1.8c2,0,3,0.1,4.1,1.3
	c1.4,1.4,1.4,5.5,1.4,5.5h0.3V1.4H57.5v0.4h2.1L59.6,28.2L59.6,28.2L59.6,28.2L59.6,28.2z"/>
</svg>
