<svg xmlns="http://www.w3.org/2000/svg" x="0px" y="0px" viewBox="0 0 202 82">
<path d="M7.1,80H1v1.2h33.8V59.9h-1c0,0,0,12.3-4.1,16.3c-3.5,3.5-7.1,3.7-13,3.7V40.7
	c0,0,4.1-0.3,6.1,1.7c3.1,3.1,3.5,7.1,3.5,12.6h1.1V25h-1.1c0,5.6-0.3,9.6-3.5,12.6c-2,2-6.1,1.7-6.1,1.7V2.2
	c5.9,0,8.7,0.4,12.2,3.7c4,4,4.1,16.3,4.1,16.3h1l0-21.2H1v1.2h6.1V80L7.1,80z"/>
<path d="M73.1,2.2V80c5.9,0,9.6-0.4,13-3.7c4-4,4.1-16.3,4.1-16.3h1v21.3H57.4v-1.2h6.1v-78h-6.1
	V1h21.2v1.2L73.1,2.2L73.1,2.2L73.1,2.2z"/>
<path d="M127.3,2.2V80c5.9,0,9.6-0.4,13-3.7c4-4,4.1-16.3,4.1-16.3h1v21.3h-33.8v-1.2h6.1v-78
	h-6.1V1h21.2v1.2L127.3,2.2L127.3,2.2L127.3,2.2z"/>
<path d="M173.3,80h-6.1v1.2H201V59.9h-1c0,0,0,12.3-4.1,16.3c-3.5,3.5-7.1,3.7-13,3.7V40.7
	c0,0,4.1-0.3,6.1,1.7c3.1,3.1,3.5,7.1,3.5,12.6h1.1V25h-1.1c0,5.6-0.3,9.6-3.5,12.6c-2,2-6.1,1.7-6.1,1.7V2.2
	c5.9,0,8.7,0.4,12.2,3.7c4,4,4.1,16.3,4.1,16.3h1V1h-32.9v1.2h6.1L173.3,80L173.3,80L173.3,80L173.3,80z"/>
</svg>
