<svg xmlns="http://www.w3.org/2000/svg" x="0px" y="0px" viewBox="0 0 202 59">
<path d="M97.1,45.5h-6.2c0,0,0,0-0.1,0l-5.4-6.5l-5.4,6.5c0,0,0,0-0.1,0h-5c0,0-0.1,0-0.1,0c0,0,0-0.1,0-0.1l7.9-9.7l-7.8-9.6
	c0,0,0-0.1,0-0.1c0,0,0,0,0.1,0h6.2c0,0,0,0,0.1,0l4.7,5.8L91,26c0,0,0,0,0.1,0h5.1c0,0,0.1,0,0.1,0c0,0,0,0.1,0,0.1L88.7,35
	l8.5,10.4C97.2,45.4,97.2,45.4,97.1,45.5C97.2,45.5,97.2,45.5,97.1,45.5"/>
<path d="M130.8,29.4c-2.8,0-4.6,1.7-5.2,4.6h9.4v-0.2C135,31.5,133.2,29.4,130.8,29.4 M139.8,36.9C139.8,37,139.7,37,139.8,36.9
	l-14.3,0c0.3,3.3,2.4,5.2,5.9,5.2c2.1,0,4.4-0.7,7.6-2.4c0.1,0,0.1,0,0.1,0.1l0,4.4c0,0,0,0.1,0,0.1c-3,1.3-6,2.1-8.4,2.1
	c-6.1,0-10.6-4.5-10.6-10.6c0-6.1,4.4-10.6,10.6-10.6c5.6,0,9.2,3.8,9.2,8.9C139.9,34.9,139.8,36.9,139.8,36.9"/>
<path d="M168.7,21.9c-1.7,0-3.2-1.4-3.2-3.1c0-1.8,1.4-3.2,3.2-3.2c1.7,0,3.2,1.4,3.2,3.2C171.8,20.5,170.4,21.9,168.7,21.9
	 M166.1,45.5C166.1,45.5,166,45.5,166.1,45.5L166,26c0,0,0-0.1,0.1-0.1h5.1c0,0,0.1,0,0.1,0.1v19.4c0,0,0,0.1-0.1,0.1
	C171.2,45.5,166.1,45.5,166.1,45.5z"/>
<path d="M106.5,42.6c-0.9,0-1.9-0.1-3-0.4l0-12.4c1.3-0.4,2.4-0.6,3.5-0.6c3.6,0,5.9,2.6,5.9,6.5C113,39.9,110.5,42.6,106.5,42.6
	 M107.9,25.2c-1.4,0-2.9,0.3-4.4,0.8h-5.1c0,0-0.1,0-0.1,0.1v31.8c1.5-0.2,3.4-0.8,5.3-2.1l0-9.7c1.3,0.2,2.3,0.3,3.3,0.3
	c7,0,11.5-4.2,11.5-10.7C118.4,29.5,114.1,25.2,107.9,25.2"/>
<path d="M156.8,41c-1.6,0.8-3,1.2-4.4,1.2c-3.2,0-5.1-2.2-5.1-6c0-4.3,2.4-7.1,6.2-7.1c1,0,2,0.3,3.3,0.8
	C156.8,29.9,156.8,41,156.8,41z M156.8,15.7v10.1c-1.5-0.4-2.8-0.6-4.2-0.6c-6.1,0-10.7,4.6-10.7,10.7c0,6.1,4.1,10.5,9.6,10.5
	c1.9,0,3.7-0.5,5.9-1.6l0,1.8c1.4-0.3,3-0.8,4.6-2v-31C160.5,13.8,158.6,14.4,156.8,15.7"/>
<path d="M189.1,40.9c-1.5,0.9-2.9,1.3-4.1,1.3c-3.4,0-5.4-2.2-5.4-6c0-4.3,2.4-7.1,6-7.1c1,0,2.1,0.4,3.5,1.1
	C189.1,30.2,189.1,40.9,189.1,40.9z M194.4,25.7c0-0.1-0.1-0.2-0.2-0.2l-4.1,0c-0.1,0-0.2,0.1-0.2,0.2v0.7h-0.1
	c-1.9-0.8-3.6-1.2-5.2-1.2c-5.7,0-10.2,4.8-10.2,10.9c0,6.2,4,10.3,10,10.3c1.6,0,3.7-0.1,5.6-2.3v2.5c1.4-0.3,3-0.9,4.5-2
	L194.4,25.7z"/>
<path d="M60.9,40.6l12.9,0c-0.2,1.4-0.7,3.1-1.8,4.8H60.9l-2.2,0c0,0-0.1,0-0.1,0c-1.6,0-3-1.3-3.2-2.9c0,0,0,0,0-0.1V29.3V17.1
	c0,0,0,0,0-0.1c0.2-1.6,1.5-2.9,3.2-2.9c0.1,0,0.1,0,0.1,0l15,0c-0.2,1.4-0.7,3.2-1.8,4.9H60.9V26h10.9c0,0,0.1,0,0.1,0.1v4.8
	c0,0,0,0.1-0.1,0.1H60.9V40.6C60.9,40.6,60.9,40.6,60.9,40.6z"/>
<path d="M44.8,45.9c-1.3,0-2.1-1-2.1-2.2c0-1.3,0.9-2.2,2.1-2.2c1.1,0,2,0.9,2,2.2C46.8,45,45.9,45.9,44.8,45.9 M44.8,41.2
	c-1.3,0-2.4,1-2.4,2.5c0,1.4,1,2.5,2.4,2.5c1.3,0,2.4-1,2.4-2.5C47.2,42.2,46.1,41.2,44.8,41.2"/>
<path d="M44.2,43.5v-0.9h0.6c0.3,0,0.7,0,0.7,0.4c0,0.4-0.3,0.5-0.7,0.5C44.8,43.5,44.2,43.5,44.2,43.5z M45.9,43.1
	c0-0.6-0.4-0.8-1.1-0.8h-1.1v2.9h0.5v-1.2h0.4l0.8,1.2H46l-0.8-1.3C45.6,43.8,45.9,43.6,45.9,43.1"/>
<path d="M198.6,29.2c-1.3,0-2.1-1-2.1-2.2c0-1.3,0.9-2.2,2.1-2.2c1.1,0,2,0.9,2,2.2C200.6,28.3,199.7,29.2,198.6,29.2 M198.6,24.5
	c-1.3,0-2.4,1-2.4,2.5c0,1.4,1,2.5,2.4,2.5c1.3,0,2.4-1,2.4-2.5C201,25.5,199.9,24.5,198.6,24.5"/>
<path d="M198,26.8v-0.9h0.6c0.3,0,0.7,0,0.7,0.4c0,0.4-0.3,0.5-0.7,0.5C198.6,26.8,198,26.8,198,26.8z M199.7,26.3
	c0-0.6-0.4-0.8-1.1-0.8h-1.1v2.9h0.5v-1.2h0.4l0.8,1.2h0.5l-0.8-1.3C199.4,27.1,199.7,26.9,199.7,26.3"/>
<path d="M28.1,19l-0.9-2.6L19.3,5.8l1.4-0.4l13.7,11.8l8-2.3c0.9-0.2,2-0.3,2.8-0.3C42.7,9.2,38.1,4.7,32,2.5
	C19.9-1.8,6.6,4.6,2.3,16.6C1,20.4,0.7,24.2,1.3,27.9l19.3-6.7C20.5,21.2,28.1,19,28.1,19z"/>
<path d="M46.1,16.7c-0.7,0.5-1.7,1.1-2.8,1.4l-8.1,2.3l-5.4,17.3l-1.4,0.5L29.6,25L29,22.2l-7.6,2.2l-20,4.7c1.6,7.7,7,14.4,15,17.2
	c12.1,4.3,25.3-2,29.6-14.1C47.9,27,47.8,21.6,46.1,16.7"/>
<path fill="#FFFFFF" d="M29,22.2l0.6,2.7l-1.1,13.2l1.4-0.5l5.4-17.3l8.1-2.3c1-0.3,2.1-0.9,2.8-1.4c-0.2-0.7-0.5-1.4-0.8-2.1
	c-0.8,0-1.9,0-2.8,0.3l-8,2.3L20.7,5.4l-1.4,0.4l7.9,10.6l0.9,2.6l-7.6,2.2L1.3,27.9c0.1,0.4,0.1,0.8,0.2,1.2l20-4.7
	C21.4,24.4,29,22.2,29,22.2z"/>
</svg>
