<svg xmlns="http://www.w3.org/2000/svg" x="0px" y="0px" viewBox="0 0 48 31">
<path fill="#FFFFFF" d="M1.6,29.3c0,0.1,0,0.2,0,0.2s0,0,0.1,0c0,0,0.1,0,0.2,0h0.2c0.1,0,0.2,0,0.3-0.1c0,0,0.1-0.1,0.1-0.2v-0.1
	c0-0.1,0-0.1,0-0.1c0-0.1,0-0.1,0.1-0.1s0.1,0,0.1,0.1c0,0,0,0,0,0.1v0.1v0.1v0.1c0,0.1,0,0.1,0,0.1c0,0.1,0,0.1-0.1,0.1H2.5
	c0,0-0.1,0-0.2,0H2H1.5c0,0-0.1,0-0.2,0c0,0,0,0-0.1,0H1.1c-0.1,0-0.1,0-0.1-0.1s0-0.1,0.1-0.1c0,0,0,0,0.1,0h0.1
	c0.1,0,0.1-0.1,0.1-0.2v-1.1c0-0.1,0-0.2-0.1-0.2c0,0,0,0-0.1,0H1.1c0,0,0,0-0.1,0s0,0,0-0.1s0-0.1,0.1-0.1l0,0h0.2
	c0.1,0,0.1,0,0.2,0c0,0,0.1,0,0.2,0h0.1l0,0c0.1,0,0.1,0,0.1,0.1c0,0,0,0,0,0.1c0,0,0,0-0.1,0c0,0,0,0-0.1,0c0,0,0,0-0.1,0
	S1.5,28,1.5,28.1v1.2H1.6z"/>
<path fill="#FFFFFF" d="M3.1,28.8C3.1,28.9,3.1,28.9,3.1,28.8h0.7h0.1c0-0.1,0-0.2-0.1-0.3c-0.1-0.1-0.2-0.1-0.3-0.1s-0.2,0-0.3,0.1
	C3.2,28.7,3.1,28.7,3.1,28.8 M4.2,28.9c0,0.1,0,0.1,0,0.1s0,0-0.1,0H3.2l0,0l0,0c0,0.1,0,0.3,0.1,0.4s0.2,0.1,0.3,0.1s0.2,0,0.2-0.1
	c0.1,0,0.1-0.1,0.1-0.2v-0.1c0,0,0-0.1,0.1-0.1c0.1,0,0.1,0,0.1,0.1S4,29.3,3.9,29.4c-0.1,0.1-0.3,0.1-0.4,0.1
	c-0.2,0-0.4-0.1-0.5-0.2S2.8,29,2.8,28.8s0.1-0.4,0.2-0.6C3.1,28.1,3.3,28,3.5,28s0.3,0.1,0.4,0.2C4.1,28.6,4.2,28.7,4.2,28.9"/>
<path fill="#FFFFFF" d="M5,28.3c0.1,0,0.2,0,0.3,0.1l0,0c0-0.1,0-0.1,0.1-0.1s0.1,0,0.1,0.1c0,0,0,0,0,0.1v0.1v0.1v0.1
	c0,0.1,0,0.1-0.1,0.1s-0.1,0-0.1-0.1v-0.1c0-0.1,0-0.1-0.1-0.1S5.1,28.5,5,28.5s-0.2,0-0.2,0.1c-0.1,0-0.1,0.1-0.1,0.2S4.8,29,5,29
	h0.2c0.3,0,0.5,0.2,0.5,0.4c0,0.1-0.1,0.2-0.2,0.3c-0.1,0.1-0.2,0.1-0.4,0.1c-0.2,0-0.3,0-0.4-0.1v0.1c0,0.1,0,0.1-0.1,0.1
	s-0.1,0-0.1-0.1c0,0,0,0,0-0.1v-0.1v-0.1v-0.1c0-0.1,0-0.1,0.1-0.1h0.1c0,0,0,0.1,0,0.2s0,0.1,0.1,0.2s0.2,0.1,0.3,0.1
	c0.1,0,0.2,0,0.2-0.1c0.1,0,0.1-0.1,0.1-0.2s-0.1-0.2-0.3-0.2c-0.2,0-0.3-0.1-0.4-0.1c-0.1-0.1-0.2-0.2-0.2-0.3
	c0-0.1,0.1-0.2,0.2-0.3C4.7,28.3,4.8,28.3,5,28.3"/>
<path fill="#FFFFFF" d="M6.7,28.8C6.7,28.9,6.8,28.9,6.7,28.8h0.7h0.1c0-0.1,0-0.2-0.1-0.3c-0.1-0.1-0.2-0.1-0.3-0.1
	c-0.1,0-0.2,0-0.3,0.1C6.8,28.7,6.7,28.7,6.7,28.8 M7.8,28.9c0,0.1,0,0.1,0,0.1s0,0-0.1,0H6.8l0,0l0,0c0,0.1,0,0.3,0.1,0.4
	s0.2,0.1,0.3,0.1c0.1,0,0.2,0,0.2-0.1c0.1,0,0.1-0.1,0.1-0.2v-0.1c0,0,0-0.1,0.1-0.1s0.1,0,0.1,0.1s-0.1,0.2-0.2,0.3
	c-0.1,0.1-0.3,0.1-0.4,0.1c-0.2,0-0.4-0.1-0.5-0.2S6.4,29,6.4,28.8s0.1-0.4,0.2-0.6C6.7,28.1,6.9,28,7.1,28s0.3,0.1,0.4,0.2
	C7.7,28.6,7.8,28.7,7.8,28.9"/>
<path fill="#FFFFFF" d="M8.4,28.4L8.4,28.4c0.1-0.1,0.3-0.1,0.5-0.1c0.1,0,0.2,0,0.3,0.1s0.2,0.1,0.2,0.2s0,0.1,0,0.3v0.5
	c0,0.1,0,0.1,0,0.1c0,0.1,0,0.1,0.1,0.1c0,0,0,0,0.1,0c0,0,0,0,0.1,0c0,0,0,0,0.1,0c0,0,0,0,0,0.1v0.1H9.7H9.6c-0.1,0-0.1,0-0.2,0
	H9.3c-0.1,0-0.1,0-0.2,0c-0.1,0-0.1,0-0.1-0.1s0-0.1,0.1-0.1c0,0,0,0,0.1,0h0.1c0,0,0.1-0.1,0.1-0.2v-0.1v-0.2v-0.2
	c0-0.1,0-0.2,0-0.2c0-0.1-0.1-0.1-0.1-0.2c-0.1,0-0.1-0.1-0.2-0.1c-0.2,0-0.3,0.1-0.3,0.2S8.7,28.8,8.7,29v0.4c0,0.1,0,0.1,0,0.2
	c0,0,0,0,0.1,0c0,0,0,0,0.1,0H9c0.1,0,0.1,0,0.1,0.1s0,0.1-0.1,0.1H8.9H8.8c0,0-0.1,0-0.2,0c-0.1,0-0.1,0-0.1,0
	c-0.1,0-0.1,0-0.1-0.1s0-0.1,0.1-0.1c0,0,0,0,0.1,0h0.1c0.1,0,0.1-0.1,0.1-0.2v-0.3v-0.3v-0.1c0-0.1,0-0.1,0-0.1s0,0-0.1,0
	c0,0,0,0-0.1,0c0,0,0,0-0.1,0S8.4,28.6,8.4,28.4c0,0,0,0,0.1,0l0,0h0.1h0.1C8.3,28.3,8.3,28.3,8.4,28.4C8.4,28.3,8.4,28.4,8.4,28.4"
	/>
<path fill="#FFFFFF" d="M10.6,29.4v-0.2c0-0.1,0-0.1,0.1-0.1s0.1,0,0.1,0.1c0,0.2,0,0.4-0.1,0.4c-0.1,0.1-0.2,0.2-0.4,0.2
	s-0.3,0-0.3-0.1s-0.1-0.2-0.1-0.4v-0.7c0,0,0-0.1-0.1-0.1l0,0H9.7c0,0,0,0,0-0.1v-0.1c0,0,0,0,0.1,0h0.1c0,0,0,0,0-0.1V28
	c0-0.1,0-0.1,0.1-0.1s0.1,0,0.1,0.1v0.3c0,0,0,0,0.1,0h0.3c0.1,0,0.1,0,0.1,0.1s0,0.1-0.1,0.1h-0.3c0,0,0,0,0,0.1v0.7
	c0,0.2,0.1,0.3,0.2,0.3C10.5,29.6,10.6,29.5,10.6,29.4"/>
<path fill="#FFFFFF" d="M11.4,28.4L11.4,28.4c0.1-0.1,0.2-0.1,0.4-0.1c0.1,0,0.2,0,0.3,0.1s0.1,0.2,0.1,0.3c0,0.1,0,0.2-0.1,0.2
	c0,0.1-0.1,0.1-0.2,0.1h-0.1v-0.1v-0.1c0,0,0,0,0.1,0l0,0c0,0,0,0,0-0.1s0-0.1-0.1-0.1c0,0-0.1-0.1-0.2-0.1c-0.1,0-0.2,0.1-0.3,0.2
	c0,0.1,0,0.2,0,0.4v0.2c0,0.1,0,0.2,0,0.2c0,0.1,0,0.2,0.1,0.2h0.1c0,0,0,0,0.1,0s0.1,0,0.1,0.1s0,0.1-0.1,0.1l0,0h-0.1
	c-0.1,0-0.1,0-0.1,0c-0.1,0-0.1,0-0.2,0H11c-0.1,0-0.1,0-0.1-0.1s0-0.1,0.1-0.1l0,0l0,0l0,0c0,0,0.1,0,0.1-0.1v-0.1v-0.6
	c0-0.1,0-0.2-0.1-0.2c0,0,0,0-0.1,0c0,0,0,0-0.1,0s-0.1,0-0.1-0.1s0-0.1,0.1-0.1c0,0,0,0,0.1,0H11c0,0,0,0,0.1,0
	C11.3,28.3,11.3,28.3,11.4,28.4C11.3,28.3,11.4,28.4,11.4,28.4"/>
<path fill="#FFFFFF" d="M12.6,28.8C12.6,28.9,12.6,28.9,12.6,28.8h0.7h0.1c0-0.1,0-0.2-0.1-0.3c-0.1-0.1-0.2-0.1-0.3-0.1
	s-0.2,0-0.3,0.1C12.6,28.7,12.6,28.7,12.6,28.8 M13.6,28.9c0,0.1,0,0.1,0,0.1s0,0-0.1,0h-0.9l0,0l0,0c0,0.1,0,0.3,0.1,0.4
	s0.2,0.1,0.3,0.1s0.2,0,0.2-0.1c0.1,0,0.1-0.1,0.1-0.2v-0.1c0,0,0-0.1,0.1-0.1s0.1,0,0.1,0.1s-0.1,0.2-0.2,0.3
	c-0.1,0.1-0.3,0.1-0.4,0.1c-0.2,0-0.4-0.1-0.5-0.2s-0.2-0.3-0.2-0.5s0.1-0.4,0.2-0.6c0.1-0.1,0.3-0.2,0.5-0.2s0.3,0.1,0.4,0.2
	C13.6,28.6,13.6,28.7,13.6,28.9"/>
<path fill="#FFFFFF" d="M14.3,28.8c0,0.1,0,0.2,0,0.3l0,0l0,0c0,0.1,0,0.2,0,0.3c0,0.1,0.1,0.1,0.1,0.2c0.1,0,0.1,0.1,0.2,0.1
	c0.1,0,0.2-0.1,0.3-0.2s0.1-0.2,0.1-0.4c0-0.4-0.1-0.6-0.4-0.6c-0.1,0-0.2,0-0.2,0.1C14.4,28.6,14.3,28.7,14.3,28.8 M14.3,28.4
	L14.3,28.4c0.1-0.1,0.3-0.1,0.4-0.1c0.2,0,0.3,0.1,0.5,0.2c0.1,0.1,0.2,0.3,0.2,0.5s-0.1,0.4-0.2,0.6c-0.1,0.1-0.3,0.2-0.5,0.2
	s-0.3-0.1-0.4-0.2v0.2c0,0.1,0,0.1,0,0.1c0,0.1,0,0.1,0.1,0.1c0,0,0,0,0.1,0c0,0,0,0,0.1,0s0.1,0,0.1,0.1s0,0.1-0.1,0.1h-0.1
	c0,0-0.1,0-0.2,0h-0.1c-0.1,0-0.1,0-0.2,0h-0.1c0,0,0,0,0-0.1s0-0.1,0.1-0.1c0,0,0,0,0.1,0h0.1c0,0,0.1,0,0.1-0.1c0,0,0-0.1,0-0.3
	v-1.1C14.3,28.4,14.3,28.4,14.3,28.4c-0.1,0-0.1,0-0.2,0c0,0,0,0-0.1,0s-0.1,0-0.1-0.1s0-0.1,0.1-0.1c0,0,0,0,0.1,0h0.1
	c0,0,0,0,0.1,0C14.2,28.3,14.2,28.3,14.3,28.4C14.2,28.3,14.3,28.4,14.3,28.4"/>
<path fill="#FFFFFF" d="M16,28.4L16,28.4c0.1-0.1,0.2-0.1,0.4-0.1c0.1,0,0.2,0,0.3,0.1c0.1,0.1,0.1,0.2,0.1,0.3c0,0.1,0,0.2-0.1,0.2
	c0,0.1-0.1,0.1-0.2,0.1h-0.1v-0.1v-0.1h0.1l0,0c0,0,0,0,0-0.1s0-0.1-0.1-0.1c0,0-0.1-0.1-0.2-0.1s-0.2,0.1-0.3,0.2
	c0,0.1,0,0.2,0,0.4v0.2c0,0.1,0,0.2,0,0.2c0,0.1,0,0.2,0.1,0.2h0.1c0,0,0,0,0.1,0s0.1,0,0.1,0.1s0,0.1-0.1,0.1l0,0h-0.1
	c-0.1,0-0.1,0-0.1,0c-0.1,0-0.1,0-0.2,0h-0.2c-0.1,0-0.1,0-0.1-0.1s0-0.1,0.1-0.1l0,0l0,0l0,0c0,0,0.1,0,0.1-0.1v-0.1v-0.6
	c0-0.1,0-0.2-0.1-0.2c0,0,0,0-0.1,0c0,0,0,0-0.1,0s-0.1,0-0.1-0.1s0-0.1,0.1-0.1c0,0,0,0,0.1,0h0.1c0,0,0,0,0.1,0
	C15.9,28.3,15.9,28.3,16,28.4C16,28.3,16,28.4,16,28.4"/>
<path fill="#FFFFFF" d="M18.4,28.3c0.1,0,0.2,0,0.3,0.1l0,0c0-0.1,0-0.1,0.1-0.1s0.1,0,0.1,0.1c0,0,0,0,0,0.1v0.1v0.1v0.1
	c0,0.1,0,0.1-0.1,0.1s-0.1,0-0.1-0.1v-0.1c0-0.1,0-0.1-0.1-0.1s-0.1-0.1-0.2-0.1s-0.2,0-0.2,0.1c-0.1,0-0.1,0.1-0.1,0.2
	s0.1,0.2,0.3,0.2h0.2c0.3,0,0.5,0.2,0.5,0.4c0,0.1-0.1,0.2-0.2,0.3c-0.1,0.1-0.2,0.1-0.4,0.1c-0.2,0-0.3,0-0.4-0.1v0.1
	c0,0.1,0,0.1-0.1,0.1s-0.1,0-0.1-0.1c0,0,0,0,0-0.1v-0.1v-0.1v-0.1c0-0.1,0-0.1,0.1-0.1h0.1c0,0,0,0.1,0,0.2s0,0.1,0.1,0.2
	s0.2,0.1,0.3,0.1c0.1,0,0.2,0,0.2-0.1c0.1,0,0.1-0.1,0.1-0.2s-0.1-0.2-0.3-0.2c-0.2,0-0.3-0.1-0.4-0.1c-0.1-0.1-0.2-0.2-0.2-0.3
	c0-0.1,0.1-0.2,0.2-0.3C18.1,28.3,18.3,28.3,18.4,28.3"/>
<path fill="#FFFFFF" d="M19.5,28.8C19.5,28.9,19.5,28.9,19.5,28.8h0.7h0.1c0-0.1,0-0.2-0.1-0.3c-0.1-0.1-0.2-0.1-0.3-0.1
	c-0.1,0-0.2,0-0.3,0.1C19.5,28.7,19.5,28.7,19.5,28.8 M20.5,28.9c0,0.1,0,0.1,0,0.1s0,0-0.1,0h-0.9l0,0l0,0c0,0.1,0,0.3,0.1,0.4
	s0.2,0.1,0.3,0.1c0.1,0,0.2,0,0.2-0.1c0.1,0,0.1-0.1,0.1-0.2v-0.1c0,0,0-0.1,0.1-0.1s0.1,0,0.1,0.1s-0.1,0.2-0.2,0.3
	c-0.1,0.1-0.3,0.1-0.4,0.1c-0.2,0-0.4-0.1-0.5-0.2s-0.2-0.3-0.2-0.5s0.1-0.4,0.2-0.6c0.1-0.1,0.3-0.2,0.5-0.2s0.3,0.1,0.4,0.2
	C20.5,28.6,20.5,28.7,20.5,28.9"/>
<path fill="#FFFFFF" d="M21.3,28.3c0.1,0,0.2,0,0.3,0.1l0,0c0-0.1,0-0.1,0.1-0.1s0.1,0,0.1,0.1c0,0,0,0,0,0.1v0.1v0.1v0.1
	c0,0.1,0,0.1-0.1,0.1s-0.1,0-0.1-0.1v-0.1c0-0.1,0-0.1-0.1-0.1s-0.1-0.1-0.2-0.1s-0.2,0-0.2,0.1c-0.1,0-0.1,0.1-0.1,0.2
	s0.1,0.2,0.3,0.2h0.2c0.3,0,0.5,0.2,0.5,0.4c0,0.1-0.1,0.2-0.2,0.3c-0.1,0.1-0.2,0.1-0.4,0.1c-0.2,0-0.3,0-0.4-0.1v0.1
	c0,0.1,0,0.1-0.1,0.1s-0.1,0-0.1-0.1c0,0,0,0,0-0.1v-0.1v-0.1v-0.1c0-0.1,0-0.1,0.1-0.1H21c0,0,0,0.1,0,0.2s0,0.1,0.1,0.2
	s0.2,0.1,0.3,0.1c0.1,0,0.2,0,0.2-0.1c0.1,0,0.1-0.1,0.1-0.2s-0.1-0.2-0.3-0.2c-0.2,0-0.3-0.1-0.4-0.1c-0.1-0.1-0.2-0.2-0.2-0.3
	c0-0.1,0.1-0.2,0.2-0.3C21,28.3,21.2,28.3,21.3,28.3"/>
<path fill="#FFFFFF" d="M23.7,28.8c0-0.1,0-0.1,0.1-0.1c0-0.1,0-0.1-0.1-0.2c-0.1,0-0.1-0.1-0.2-0.1s-0.2,0.1-0.3,0.2
	c-0.1,0.1-0.1,0.2-0.1,0.4c0,0.2,0,0.3,0.1,0.4s0.2,0.2,0.3,0.2c0.1,0,0.2,0,0.2-0.1c0.1,0,0.1-0.1,0.1-0.2s0-0.1,0-0.1l0.1-0.1H24
	c0,0,0,0,0,0.1c0,0,0,0.1,0,0.2s-0.1,0.1-0.1,0.2c-0.1,0.1-0.3,0.2-0.4,0.2c-0.2,0-0.3-0.1-0.5-0.2c-0.1-0.1-0.2-0.3-0.2-0.5
	s0.1-0.4,0.2-0.6c0.1-0.1,0.3-0.2,0.5-0.2s0.3,0,0.4,0.1s0.2,0.2,0.2,0.3c0,0.1,0,0.1-0.1,0.2c0,0-0.1,0.1-0.2,0.1h-0.1
	C23.7,28.9,23.7,28.9,23.7,28.8"/>
<path fill="#FFFFFF" d="M25,28.5c-0.1,0-0.2,0-0.3,0.1c-0.1,0.1-0.1,0.2-0.1,0.4l0,0c0,0.2,0,0.3,0.1,0.4s0.2,0.2,0.3,0.2
	c0.1,0,0.2-0.1,0.3-0.2c0.1-0.1,0.1-0.2,0.1-0.4C25.4,28.7,25.3,28.5,25,28.5 M24.9,29.8c-0.2,0-0.4-0.1-0.5-0.2s-0.2-0.3-0.2-0.6
	c0-0.2,0.1-0.4,0.2-0.6c0.1-0.1,0.3-0.2,0.5-0.2s0.4,0.1,0.5,0.2s0.2,0.3,0.2,0.6c0,0.2-0.1,0.4-0.2,0.6
	C25.3,29.7,25.2,29.8,24.9,29.8"/>
<path fill="#FFFFFF" d="M26.3,28.4L26.3,28.4c0.1-0.1,0.3-0.1,0.5-0.1c0.1,0,0.2,0,0.3,0.1c0.1,0.1,0.2,0.1,0.2,0.2s0,0.1,0,0.3v0.5
	c0,0.1,0,0.1,0,0.1c0,0.1,0,0.1,0.1,0.1c0,0,0,0,0.1,0c0,0,0,0,0.1,0c0,0,0,0,0.1,0c0,0,0,0,0,0.1v0.1h-0.1h-0.1c-0.1,0-0.1,0-0.2,0
	h-0.1c-0.1,0-0.1,0-0.2,0s-0.1,0-0.1-0.1s0-0.1,0.1-0.1c0,0,0,0,0.1,0h0.1c0,0,0.1-0.1,0.1-0.2v-0.1v-0.2v-0.2c0-0.1,0-0.2,0-0.2
	c0-0.1-0.1-0.1-0.1-0.2c-0.1,0-0.1-0.1-0.2-0.1c-0.2,0-0.3,0.1-0.3,0.2s-0.1,0.2-0.1,0.4v0.4c0,0.1,0,0.1,0,0.2c0,0,0,0,0.1,0
	c0,0,0,0,0.1,0c0,0,0,0,0.1,0s0.1,0,0.1,0.1s0,0.1-0.1,0.1h-0.1h-0.1c0,0-0.1,0-0.2,0s-0.1,0-0.1,0c-0.1,0-0.1,0-0.1-0.1
	s0-0.1,0.1-0.1c0,0,0,0,0.1,0h0.1c0.1,0,0.1-0.1,0.1-0.2v-0.3v-0.3v-0.1c0-0.1,0-0.1,0-0.1s0,0-0.1,0c0,0,0,0-0.1,0c0,0,0,0-0.1,0
	S26.3,28.6,26.3,28.4C26.3,28.4,26.3,28.4,26.3,28.4L26.3,28.4l0.2,0h0.1C26.2,28.3,26.2,28.3,26.3,28.4
	C26.3,28.3,26.3,28.4,26.3,28.4"/>
<path fill="#FFFFFF" d="M28.5,29.4v-0.2c0-0.1,0-0.1,0.1-0.1s0.1,0,0.1,0.1c0,0.2,0,0.4-0.1,0.4c-0.1,0.1-0.2,0.2-0.4,0.2
	c-0.2,0-0.3,0-0.3-0.1s-0.1-0.2-0.1-0.4v-0.7c0,0,0-0.1-0.1-0.1h-0.1h-0.1c0,0,0,0,0-0.1v-0.1c0,0,0,0,0.1,0h0.1c0,0,0,0,0-0.1V28
	c0-0.1,0-0.1,0.1-0.1s0.1,0,0.1,0.1v0.3c0,0,0,0,0.1,0h0.3c0.1,0,0.1,0,0.1,0.1s0,0.1-0.1,0.1H28c0,0,0,0,0,0.1v0.7
	c0,0.2,0.1,0.3,0.2,0.3C28.4,29.6,28.4,29.5,28.5,29.4"/>
<path fill="#FFFFFF" d="M29.2,28.4L29.2,28.4c0.1-0.1,0.2-0.1,0.4-0.1c0.1,0,0.2,0,0.3,0.1c0.1,0.1,0.1,0.2,0.1,0.3
	c0,0.1,0,0.2-0.1,0.2c0,0.1-0.1,0.1-0.2,0.1h-0.1v-0.1v-0.1c0,0,0,0,0.1,0l0,0c0,0,0,0,0-0.1s0-0.1-0.1-0.1c0,0-0.1-0.1-0.2-0.1
	s-0.2,0.1-0.3,0.2c0,0.1,0,0.2,0,0.4v0.2c0,0.1,0,0.2,0,0.2c0,0.1,0,0.2,0.1,0.2h0.1c0,0,0,0,0.1,0s0.1,0,0.1,0.1s0,0.1-0.1,0.1l0,0
	h-0.1c-0.1,0-0.1,0-0.1,0c-0.1,0-0.1,0-0.2,0h-0.2c-0.1,0-0.1,0-0.1-0.1s0-0.1,0.1-0.1l0,0l0,0l0,0c0,0,0.1,0,0.1-0.1v-0.1v-0.6
	c0-0.1,0-0.2-0.1-0.2c0,0,0,0-0.1,0c0,0,0,0-0.1,0s-0.1,0-0.1-0.1s0-0.1,0.1-0.1c0,0,0,0,0.1,0h0.1c0,0,0,0,0.1,0
	C29.1,28.3,29.1,28.3,29.2,28.4C29.2,28.3,29.2,28.4,29.2,28.4"/>
<path fill="#FFFFFF" d="M30.5,28.8C30.5,28.9,30.5,28.9,30.5,28.8h0.7h0.1c0-0.1,0-0.2-0.1-0.3c-0.1-0.1-0.2-0.1-0.3-0.1
	c-0.1,0-0.2,0-0.3,0.1C30.5,28.7,30.5,28.7,30.5,28.8 M31.5,28.9c0,0.1,0,0.1,0,0.1s0,0-0.1,0h-0.9l0,0l0,0c0,0.1,0,0.3,0.1,0.4
	s0.2,0.1,0.3,0.1c0.1,0,0.2,0,0.2-0.1c0.1,0,0.1-0.1,0.1-0.2v-0.1c0,0,0-0.1,0.1-0.1s0.1,0,0.1,0.1s-0.1,0.2-0.2,0.3
	c-0.1,0.1-0.3,0.1-0.4,0.1c-0.2,0-0.4-0.1-0.5-0.2s-0.2-0.3-0.2-0.5s0.1-0.4,0.2-0.6c0.1-0.1,0.3-0.2,0.5-0.2s0.3,0.1,0.4,0.2
	C31.4,28.6,31.5,28.7,31.5,28.9"/>
<path fill="#FFFFFF" d="M34.3,28.8C34.3,28.9,34.3,28.9,34.3,28.8H35h0.1c0-0.1,0-0.2-0.1-0.3c-0.1-0.1-0.2-0.1-0.3-0.1s-0.2,0-0.3,0.1
	C34.3,28.7,34.3,28.7,34.3,28.8 M35.3,28.9c0,0.1,0,0.1,0,0.1s0,0-0.1,0h-0.9l0,0l0,0c0,0.1,0,0.3,0.1,0.4s0.2,0.1,0.3,0.1
	s0.2,0,0.2-0.1c0.1,0,0.1-0.1,0.1-0.2v-0.1c0,0,0-0.1,0.1-0.1s0.1,0,0.1,0.1s-0.1,0.2-0.2,0.3c-0.1,0.1-0.3,0.1-0.4,0.1
	c-0.2,0-0.4-0.1-0.5-0.2s-0.2-0.3-0.2-0.5s0.1-0.4,0.2-0.6c0.1-0.1,0.3-0.2,0.5-0.2s0.3,0.1,0.4,0.2C35.3,28.6,35.3,28.7,35.3,28.9"
	/>
<path fill="#FFFFFF" d="M35.8,29.5l0.4-0.5l-0.4-0.5h-0.1l0,0l0,0l0,0c-0.1,0-0.1,0-0.1-0.1s0-0.1,0.1-0.1l0,0c0,0,0,0,0.1,0h0.1H36
	c0.1,0,0.1,0,0.1,0c0.1,0,0.1,0,0.1,0.1s0,0.1-0.1,0.1l0,0l0,0l0,0l0,0l0,0l0.3,0.3l0.3-0.3l0,0l0,0l0,0c0,0,0,0-0.1,0
	s-0.1,0-0.1-0.1s0-0.1,0.1-0.1c0,0,0,0,0.2,0h0.1c0,0,0.1,0,0.2,0c0.1,0,0.1,0,0.1,0c0.1,0,0.1,0,0.1,0.1s0,0.1-0.1,0.1
	c0,0,0,0-0.1,0H37c0,0-0.1,0-0.2,0.1L36.4,29l0.4,0.5h0.1c0,0,0,0,0.1,0c0,0,0,0,0.1,0s0.1,0,0.1,0.1s0,0.1-0.1,0.1l0,0H37h-0.1
	c-0.1,0-0.1,0-0.2,0h-0.1l0,0c-0.1,0-0.1,0-0.1-0.1s0-0.1,0.1-0.1h0.1l0,0l0,0l0,0l0,0l-0.3-0.4L36,29.5l0,0l0,0c0,0,0,0,0.1,0
	c0,0,0,0,0.1,0s0.1,0,0.1,0.1s0,0.1-0.1,0.1l0,0h-0.1c-0.1,0-0.1,0-0.2,0h-0.1c-0.1,0-0.1,0-0.1,0c-0.1,0-0.1,0-0.1-0.1
	S35.6,29.5,35.8,29.5C35.7,29.5,35.7,29.5,35.8,29.5C35.8,29.5,35.8,29.5,35.8,29.5C35.7,29.6,35.7,29.5,35.8,29.5"/>
<path fill="#FFFFFF" d="M38.1,28.8c0-0.1,0-0.1,0.1-0.1c0-0.1,0-0.1-0.1-0.2c-0.1,0-0.1-0.1-0.2-0.1c-0.1,0-0.2,0.1-0.3,0.2
	s-0.1,0.2-0.1,0.4c0,0.2,0,0.3,0.1,0.4s0.2,0.2,0.3,0.2s0.2,0,0.2-0.1c0.1,0,0.1-0.1,0.1-0.2s0-0.1,0-0.1l0.1-0.1h0.1c0,0,0,0,0,0.1
	c0,0,0,0.1,0,0.2s-0.1,0.1-0.1,0.2c-0.1,0.1-0.3,0.2-0.4,0.2c-0.2,0-0.3-0.1-0.5-0.2c-0.1-0.1-0.2-0.3-0.2-0.5s0.1-0.4,0.2-0.6
	c0.1-0.1,0.3-0.2,0.5-0.2s0.3,0,0.4,0.1c0.1,0.1,0.2,0.2,0.2,0.3c0,0.1,0,0.1-0.1,0.2L38.3,29h-0.1C38.1,28.9,38.1,28.9,38.1,28.8"
	/>
<path fill="#FFFFFF" d="M40.8,29.7L40.8,29.7c-0.1,0.1-0.3,0.1-0.4,0.1c-0.2,0-0.4-0.1-0.5-0.2c0-0.1-0.1-0.1-0.1-0.2c0,0,0-0.1,0-0.3
	v-0.2c0-0.3,0-0.4-0.1-0.4c0,0,0,0-0.1,0c0,0,0,0-0.1,0s-0.1,0-0.1-0.1s0-0.1,0.1-0.1c0,0,0,0,0.1,0h0.1c0,0,0,0,0.1,0l0,0
	c0.1,0,0.1,0,0.1,0.1v0.1v0.2v0.2v0.2c0,0.2,0,0.3,0,0.4s0.1,0.2,0.3,0.2c0.1,0,0.2,0,0.2-0.1c0.1,0,0.1-0.1,0.1-0.1
	c0-0.1,0-0.2,0-0.4v-0.2v-0.2c0-0.1,0-0.1-0.1-0.1h-0.1l0,0c-0.1,0-0.1,0-0.1-0.1s0-0.1,0.1-0.1c0,0,0,0,0.1,0h0.1c0,0,0,0,0.1,0
	h0.1c0.1,0,0.1,0,0.1,0.1c0,0,0,0,0,0.1s0,0.2,0,0.3v0.4c0,0.1,0,0.2,0,0.2C40.8,29.6,40.8,29.7,40.8,29.7c0.1,0,0.1,0,0.2,0
	c0,0,0,0,0.1,0s0.1,0,0.1,0.1s0,0.1-0.1,0.1c0,0,0,0-0.1,0h-0.1c0,0,0,0-0.1,0C40.9,29.8,40.9,29.8,40.8,29.7
	C40.8,29.8,40.8,29.7,40.8,29.7"/>
<path fill="#FFFFFF" d="M42,28.3c0.1,0,0.2,0,0.3,0.1l0,0c0-0.1,0-0.1,0.1-0.1s0.1,0,0.1,0.1c0,0,0,0,0,0.1v0.1v0.1v0.1
	c0,0.1,0,0.1-0.1,0.1s-0.1,0-0.1-0.1v-0.1c0-0.1,0-0.1-0.1-0.1s-0.1-0.1-0.2-0.1c-0.1,0-0.2,0-0.2,0.1c-0.1,0-0.1,0.1-0.1,0.2
	S41.8,29,42,29h0.2c0.3,0,0.5,0.2,0.5,0.4c0,0.1-0.1,0.2-0.2,0.3c-0.1,0.1-0.2,0.1-0.4,0.1s-0.3,0-0.4-0.1v0.1c0,0.1,0,0.1-0.1,0.1
	s-0.1,0-0.1-0.1c0,0,0,0,0-0.1v-0.1v-0.1v-0.1c0-0.1,0-0.1,0.1-0.1h0.1c0,0,0,0.1,0,0.2s0,0.1,0.1,0.2s0.2,0.1,0.3,0.1
	s0.2,0,0.2-0.1c0.1,0,0.1-0.1,0.1-0.2s-0.1-0.2-0.3-0.2s-0.3-0.1-0.4-0.1c-0.1-0.1-0.2-0.2-0.2-0.3c0-0.1,0.1-0.2,0.2-0.3
	C41.7,28.3,41.8,28.3,42,28.3"/>
<path fill="#FFFFFF" d="M44.3,28.5c-0.1,0-0.2,0-0.3,0.1s-0.1,0.2-0.1,0.4l0,0c0,0.2,0,0.3,0.1,0.4s0.2,0.2,0.3,0.2s0.2-0.1,0.3-0.2
	s0.1-0.2,0.1-0.4C44.8,28.7,44.6,28.5,44.3,28.5 M44.3,29.8c-0.2,0-0.4-0.1-0.5-0.2s-0.2-0.3-0.2-0.6c0-0.2,0.1-0.4,0.2-0.6
	c0.1-0.1,0.3-0.2,0.5-0.2s0.4,0.1,0.5,0.2S45,28.7,45,29c0,0.2-0.1,0.4-0.2,0.6C44.7,29.7,44.5,29.8,44.3,29.8"/>
<path fill="#FFFFFF" d="M45.6,28.4L45.6,28.4c0.1-0.1,0.3-0.1,0.5-0.1c0.1,0,0.2,0,0.3,0.1s0.2,0.1,0.2,0.2s0,0.1,0,0.3v0.5
	c0,0.1,0,0.1,0,0.1c0,0.1,0,0.1,0.1,0.1c0,0,0,0,0.1,0c0,0,0,0,0.1,0c0,0,0,0,0.1,0c0,0,0,0,0,0.1v0.1h-0.1h-0.1c-0.1,0-0.1,0-0.2,0
	c-0.1,0-0.1,0-0.1,0c-0.1,0-0.1,0-0.2,0c-0.1,0-0.1,0-0.1-0.1s0-0.1,0.1-0.1c0,0,0,0,0.1,0h0.1c0,0,0.1-0.1,0.1-0.2v-0.1v-0.2v-0.2
	c0-0.1,0-0.2,0-0.2c0-0.1-0.1-0.1-0.1-0.2c-0.1,0-0.1-0.1-0.2-0.1c-0.2,0-0.3,0.1-0.3,0.2s-0.1,0.2-0.1,0.4v0.4c0,0.1,0,0.1,0,0.2
	c0,0,0,0,0.1,0c0,0,0,0,0.1,0c0,0,0,0,0.1,0s0.1,0,0.1,0.1s0,0.1-0.1,0.1h-0.1H46c0,0-0.1,0-0.2,0c-0.1,0-0.1,0-0.1,0
	c-0.1,0-0.1,0-0.1-0.1s0-0.1,0.1-0.1c0,0,0,0,0.1,0h0.1c0.1,0,0.1-0.1,0.1-0.2v-0.3v-0.3v-0.1c0-0.1,0-0.1,0-0.1s0,0-0.1,0
	c0,0,0,0-0.1,0c0,0,0,0-0.1,0S45.6,28.6,45.6,28.4C45.6,28.4,45.6,28.4,45.6,28.4L45.6,28.4l0.2,0h0.1
	C45.5,28.3,45.6,28.3,45.6,28.4C45.6,28.3,45.6,28.4,45.6,28.4"/>
<path d="M1.3,2.1c0-0.7,0.1-0.9,0.9-0.9H9c0.4,0-0.2,2-0.7,2H3.8C3.5,3.2,3.2,3.3,3.2,4v6c0,0.3,0,0.6,0.6,0.6h3.1
	c1,0,0.3,2.1-0.2,2.1H3.8c-0.3,0-0.6,0-0.6,0.4v12.1c0,0.3-0.8,0.7-1.2,0.7s-0.8,0-0.8-0.8v-23H1.3z"/>
<path d="M17,15.8c0.5,0,0.6,0,0.5-0.6c-0.8-5.8-1.4-12-1.5-12h-0.1c-0.1,0-0.7,6.2-1.5,12c-0.1,0.6,0,0.6,0.5,0.6H17z M20.7,25.2
	c0,0.5-0.3,0.6-0.7,0.6c-0.2,0-1,0-1.1-0.5c0-0.2-0.4-3-0.9-6.9C17.9,18,17.8,18,17.7,18h-3.6c-0.1,0-0.2,0-0.3,0.4
	c-0.5,3.9-0.9,6.7-0.9,6.9c-0.1,0.5-0.9,0.5-1.1,0.5c-0.4,0-0.7-0.1-0.7-0.6s3-23,3.1-23.4s0.3-0.6,0.7-0.6H17
	c0.3,0,0.7,0.2,0.7,0.6C17.7,2.1,20.7,24.6,20.7,25.2L20.7,25.2z"/>
<path d="M27.1,21.8c0,1,0.8,2.3,2.5,2.3c1.5,0,2.6-1.3,2.6-2.1c0-0.5,1.9-0.8,1.9,0.2c0,2.1-2.3,3.9-5,3.6c-2.2-0.3-3.9-1.9-3.8-4
	V5.1c0-2.2,1.7-3.8,3.9-4.1c2.7-0.3,5,1.5,5,3.6c0,1-1.9,0.8-1.9,0.2c0-0.8-1.1-2.1-2.6-2.1c-1.8,0-2.5,1.3-2.5,2.3L27.1,21.8
	L27.1,21.8z"/>
<path d="M41,23.7c-0.3-0.1-0.6-0.3-0.6-0.8V17v-3.2V13V9.8V3.9c0-0.6,0.2-0.7,0.6-0.8c0,0,6.4-2,5.9-2H39c-0.5,0-0.6,0.3-0.6,0.6V25
	c0,0.3,0.1,0.6,0.6,0.6h8C47.4,25.7,41,23.7,41,23.7"/>
<path d="M44.3,14c0,0.1-0.1,0.2-0.2,0.2L42,14.1c-0.1,0-0.2-0.1-0.2-0.2v-0.5c0-0.1,0.1-0.2,0.2-0.2l2.1-0.1c0.1,0,0.2,0.1,0.2,0.2
	V14z"/>
</svg>
