<svg xmlns="http://www.w3.org/2000/svg" x="0px" y="0px" viewBox="0 0 80.2 17">
<polygon points="72.9,10.8 75.8,6.2 78.9,6.2 75.8,11 79,15.9 75.9,15.9 72.9,11.1 72.9,15.9 69.9,15.9 69.9,1.3
	72.9,1 "/>
<path d="M55.2,10.6c0-1.3-0.5-2.3-1.9-2.3s-1.9,1-1.9,2.3v0.9c0,1.3,0.5,2.3,1.9,2.3s1.9-1,1.9-2.3V10.6z M48.5,11.3
	v-0.5C48.5,8,50.1,6,53.3,6s4.8,2,4.8,4.8v0.5c0,2.8-1.6,4.8-4.8,4.8S48.5,14.1,48.5,11.3L48.5,11.3z"/>
<path d="M65.9,10.6c0-1.3-0.5-2.3-1.9-2.3s-1.9,1-1.9,2.3v0.9c0,1.3,0.5,2.3,1.9,2.3s1.9-1,1.9-2.3V10.6z M59.1,11.3
	v-0.5C59.1,8,60.7,6,64,6c3.2,0,4.8,2,4.8,4.8v0.5c0,2.8-1.6,4.8-4.8,4.8C60.7,16.1,59.1,14.1,59.1,11.3L59.1,11.3z"/>
<path d="M44.6,10.7c0-1.4-0.5-2.4-1.9-2.4c-1.2,0-1.9,0.9-1.9,2.3v1c0,1.4,0.7,2.3,1.9,2.3c1.4,0,1.9-1,1.9-2.4V10.7z
	 M47.5,11.4c0,2.7-1.3,4.8-4,4.8c-1.5,0-2.5-0.7-2.9-1.7V16h-2.8V1.3l3-0.3v6.5C41.2,6.7,42.1,6,43.5,6c2.7,0,4,2,4,4.8V11.4z"/>
<path d="M30.4,10.1H34V9.9C34,8.8,33.6,8,32.3,8C30.9,8,30.4,8.8,30.4,10.1 M27.5,11.4v-0.9c0-2.8,1.6-4.6,4.8-4.6
	c3,0,4.3,1.8,4.3,4.5V12h-6.2c0.1,1.3,0.7,1.9,2.3,1.9c1.1,0,2.3-0.2,3.1-0.6l0.5,2c-0.8,0.4-2.4,0.7-3.8,0.7
	C28.9,16.1,27.5,14.3,27.5,11.4"/>
<path d="M24.3,6c1.1,0,2.2,0.2,2.8,0.7l-0.7,2.1c-0.4-0.2-1.2-0.5-2-0.5c-1.6,0-2.3,0.9-2.3,2.5v0.6
	c0,1.6,0.7,2.5,2.3,2.5c0.8,0,1.5-0.2,2-0.5l0.7,2.1c-0.6,0.4-1.7,0.7-2.8,0.7c-3.4,0-5-1.9-5-4.8v-0.5C19.3,7.8,20.8,6,24.3,6"/>
<path d="M11.5,11.4c0,1.5,0.5,2.4,1.9,2.4c1.2,0,1.8-0.9,1.8-2.3v-1c0-1.4-0.6-2.3-1.8-2.3c-1.4,0-1.9,1-1.9,2.4V11.4z
	 M8.6,10.7C8.6,8,9.9,6,12.6,6c1.5,0,2.4,0.8,2.8,1.7V6.2h2.8v9.7h-2.8v-1.5c-0.4,0.9-1.3,1.7-2.8,1.7c-2.7,0-4-2-4-4.8V10.7z"/>
<path d="M7.1,3.4c-0.9,0-1.2,0.4-1.2,1.3v1.5h2.4L8.1,8.6H5.9v7.3H3V8.6H1V6.2h2V4.7C3,2.3,4,1,6.7,1C7.3,1,8,1,8.4,1.1
	v2.3H7.1z"/>
</svg>
