<svg xmlns="http://www.w3.org/2000/svg" x="0px" y="0px"
	 viewBox="0 0 60 59">
<polygon fill="#221F20" points="1,4.6 1,57.5 47.9,57.5 47.9,8.9 44.9,8.6 40.4,6 40.4,4.6 "/>
<polygon fill="#010202" points="46.4,24.3 46.4,24.5 46.3,26.6 46.3,26.8 46.3,27.7 46.2,27.9 48,28.2 49.9,27.7 49.8,27.5 49.8,26.4
	49.9,24.4 50,24.2 "/>
<polygon fill="#010202" points="45.7,39.7 45.4,48.3 47.9,51.4 50.5,48.5 50.7,40.6 48,38.1 "/>
<polygon fill="#010202" points="39.2,31.3 47.7,29.9 49,31.8 50,34 46.5,34.4 45.7,33 39.2,31.7 "/>
<path fill="#FEFEFE" d="M39.2,19.1l0.8,1.1l6.4,3.4l2.9,0.5L52,23l4-2.5l0.5-0.7l-1.4-2.1l-3.8-2.3c0,0-4.3-0.4-4.3-0.4
	c-0.1,0-5,0.4-5,0.4l-2.4,2.3L39.2,19.1z"/>
<path fill="#FEFEFE" d="M47.6,26.6c0.9,0,1.9-0.1,2.2-0.1c0-0.3,0.1-0.7,0.1-1c0-0.4,0-0.7,0-1c-0.3,0.1-0.7,0.1-1.6,0.1
	c-1.2,0-1.8,0-1.9,0c-0.1,0.2-0.2,0.6-0.2,1c0,0.3,0.1,0.7,0.1,1C46.5,26.6,46.9,26.6,47.6,26.6"/>
<path fill="#FEFEFE" d="M47.6,27.7c1,0,2-0.1,2.3-0.1c0-0.1,0-0.3,0-0.5c0-0.1,0-0.3,0-0.5c-0.2,0.1-0.7,0.1-1.7,0.2
	c-1.1,0-1.7,0-1.9,0c0,0.1-0.1,0.3-0.1,0.5c0,0.2,0,0.4,0.1,0.5C46.4,27.7,46.8,27.7,47.6,27.7"/>
<path fill="#FEFEFE" d="M53.6,31.4c-0.6-0.1-1.2-0.3-1.5-0.3c-0.8,0-1.8-0.1-1.9,0.1c-0.1,0.2,0.4,2,0.4,2s-0.5-1.3-0.8-1.7
	c-0.3-0.4-0.4-0.6-0.4-0.7c0-0.1,1.8,0,2.7,0.1c0.4,0,0.9,0.3,1.5,0.4c0.8,0.2,1.6,0.2,1.6,0.2S54.4,31.5,53.6,31.4L53.6,31.4z
	 M50,45.6l-0.6-1l0.7-0.7L50,45.6z M49.9,48.4l-0.7-1.1l0.7-0.8L49.9,48.4z M49.9,41.4L49.9,41.4l0,1.7l-0.6-1L49.9,41.4z
	 M47.8,33.5c-0.7-0.1-1.2,0.3-1.2,0c0-0.4,0.4-0.5,0.9-1.3c0.4-0.8,0.5-1.3,0.5-1.3c0.3,0.8,0.2,0.8,0.5,1.3
	c0.4,0.6,0.9,0.9,0.9,1.4C49.3,34,48.5,33.6,47.8,33.5L47.8,33.5z M48.9,46L48,47.1l0.9,1.6l-1.1,1.2l-1-1.4l0.9-1.5L47,45.8
	l0.9-1.3L47,43.2l0.8-1.1l-0.6-1.3l0.9-1.1l0.9,1.4l-0.9,1.1l0.9,1.3l-0.9,1.1L48.9,46z M46.1,46.3l0.7,1L46.1,48L46.1,46.3z
	 M46.7,44.7l-0.6,0.7l0.1-1.6L46.7,44.7z M46.2,41.1l0.5,0.9L46,43L46.2,41.1z M45.4,33.2c0,0,0.5-1.8,0.4-2
	c-0.1-0.2-0.8-0.1-1.9-0.1c-0.5,0-1.3,0.3-2.1,0.4c-1.1,0.1-2.2,0.1-2.2,0.1s1.1-0.1,2.2-0.3c0.8-0.2,1.6-0.5,2.1-0.5
	c1.3-0.1,2.7-0.2,2.6-0.1c0,0.1-0.1,0.3-0.4,0.7C45.9,31.9,45.4,33.2,45.4,33.2L45.4,33.2z M55.1,30.4c-0.1,0-4.9-0.9-5-1
	c-0.1,0-0.1-0.2-0.1-0.4c0-0.1,0-1.3,0-1.4c0,0-0.1,0-0.1,0c-0.1,0-0.6,0.2-1.8,0.2c-1.3,0-1.8,0-1.9,0C46.1,28,46,28.3,46,28.3
	c0,0.1-0.1,0.8-0.1,0.9c0,0.1-0.2,0.2-0.4,0.3c-0.1,0-2,0.4-3.7,0.9c-1.3,0.4-2.5,0.8-2.6,0.9C39,31.4,39,32,39.2,32
	c0.1,0,1.2,0.4,2.6,0.7c1.6,0.3,3.4,0.5,3.5,0.5c0.1,0,0.2,0,0.2,0.2c0,0.1-0.4,5.2-0.4,10.5c-0.1,5.7,0.2,11.7,0.2,11.7
	c-0.1,0.1-1.5,1.1-1.5,1.1c-0.1,0-0.2,0.2-0.2,0.2s0,0.5,0,0.6c0,0.1,0.4,0.1,0.4,0.1h8.4c0,0,0.5,0,0.5-0.1c0-0.1,0-0.6,0-0.6
	s-0.1-0.1-0.2-0.2c-0.1,0-1.4-1-1.5-1.1c-0.1-0.1,0-5.9,0-11.7c-0.1-5.3-0.3-10.5-0.3-10.5c0-0.1,0-0.2,0.2-0.2c0.1,0,4-1.1,4.2-1.2
	c0.2-0.1,0.3-0.6,0.3-0.8C55.4,31,55.2,30.5,55.1,30.4L55.1,30.4z"/>
<path fill="#61401D" d="M47.8,24.3c0.8,0,1.7-0.1,2.1-0.1c0-0.1,0-0.1,0-0.2c-0.1-0.6-2.8,0.2-3.1,0.2c-0.1,0-0.2,0-0.2,0.1
	C46.7,24.4,47.1,24.4,47.8,24.3"/>
<path fill="#FEFEFE" d="M49.3,19.7c0.4,2.5,0.3,3.8,0.3,3.8s-0.8,0.4-1.6,0.4s-1.4-0.4-1.4-0.4l0.2-3.5c-1,0.3-3-0.4-3.9-1.5
	c-1.2,0.3-2.3,1.1-3,1.7c1.9,2.3,4.5,3.7,6.4,4.2c0,0,0.3,0.1,1.7,0s2.3-0.1,2.3-0.1c2.1-0.6,4.1-1.9,5.7-3.8
	c-0.5-0.4-1.7-1.3-2.6-1.7C52.7,19.8,51.2,21.1,49.3,19.7"/>
<path fill="#010202" d="M56.2,19.9c-0.2-0.2-3.3-2.9-5.1-3c-1.4-0.1-2.8,0.8-2.8,0.8l0,0l0,0l-0.1-0.1c-0.7-0.5-1.7-1.2-3.1-1.2
	c-2.3,0-4.9,2.5-5.3,2.9l0.2,0.3c0.4-0.4,2.1-2.1,4.4-2.3c2.7-0.2,3.5,1.1,3.6,1.1l0,0l0,0L47.3,21c0.2-0.1,0.4-0.2,0.7-0.2
	c0.3,0,0.8,0.3,1.1,0.4l-0.7-2.8l0,0l0,0c0,0,0.5-0.9,2.5-0.9c1.9,0,5.1,2.5,5.2,2.6l0,0l0,0l0,0c0,0,0.1-0.1,0.1-0.1L56.2,19.9z"/>
<path fill="#010202" d="M45.5,19.1c-0.9-0.2-1.6-0.7-1.6-0.7s0.6-0.2,1.2-0.2c0.6,0.1,2.1,0.2,2.1,0.2S45.7,18,45.1,18
	c-0.7,0-1.3,0.3-1.5,0.3c-0.2,0-0.2,0.1-0.2,0.1l0.3,0.2c0,0,0.9,0.8,1.7,0.9c0.7,0.1,2.1-0.4,2.1-0.4S46.4,19.3,45.5,19.1"/>
<path fill="#010202" d="M52.8,18.9c-0.2,0-0.9-0.6-1.5-0.6c-0.7,0-2,0.6-2,0.6s1.4-0.3,2-0.3c0.6,0,1.2,0.4,1.2,0.4s-0.4,0.4-1.2,0.5
	c-0.9,0.1-1.6-0.2-1.6-0.2s0.7,0.4,1.5,0.5c0.7,0.1,1.5-0.7,1.5-0.7l0.3-0.2C52.9,19.1,53,18.9,52.8,18.9"/>
<path fill="#010202" d="M48.8,22.9h-1.3c-0.1,0-0.3-0.3-0.3-0.3s0.2-0.5,0.3-0.5c0.1,0,1.1-0.1,1.2,0c0.1,0,0.3,0.5,0.3,0.5
	S48.9,22.9,48.8,22.9L48.8,22.9z M49.2,21.7h-2L47,23.2h2.3L49.2,21.7z"/>
<path fill="#FEFEFE" d="M46.8,7.5V1.1c-0.2,0-0.3,0.1-0.5,0.1v6.2C46.5,7.4,46.7,7.5,46.8,7.5"/>
<path fill="#FEFEFE" d="M51.4,6.9V1.6c-0.2-0.1-0.3-0.1-0.5-0.2v5.6C51.1,7,51.3,7,51.4,6.9"/>
<path fill="#FEFEFE" d="M49.6,7.4V1.1c-0.2,0-0.3,0-0.5-0.1v6.4C49.3,7.5,49.4,7.4,49.6,7.4"/>
<path fill="#FEFEFE" d="M47.7,7.5V1c-0.2,0-0.3,0-0.5,0v6.5C47.4,7.5,47.6,7.5,47.7,7.5"/>
<path fill="#FEFEFE" d="M50.5,7.2V1.3c-0.2,0-0.3-0.1-0.5-0.1v6.1C50.2,7.3,50.3,7.2,50.5,7.2"/>
<path fill="#FEFEFE" d="M55.1,3.9c-0.2-0.2-0.3-0.3-0.5-0.5v1.2C54.8,4.4,55,4.2,55.1,3.9"/>
<path fill="#FEFEFE" d="M52.3,6.5V2c-0.2-0.1-0.3-0.1-0.5-0.2v5C52,6.6,52.2,6.6,52.3,6.5"/>
<path fill="#FEFEFE" d="M54.2,5.1v-2C54,3,53.9,2.9,53.7,2.8v2.8C53.9,5.4,54,5.3,54.2,5.1"/>
<path fill="#FEFEFE" d="M53.3,5.9V2.5c-0.2-0.1-0.3-0.2-0.5-0.3v4C52.9,6.1,53.1,6,53.3,5.9"/>
<g>
</g>
<path fill="#FEFEFE" d="M48.7,7.5V1c-0.2,0-0.3,0-0.5,0v6.5C48.4,7.5,48.5,7.5,48.7,7.5"/>
<path fill="#FEFEFE" d="M41.3,3.7c-0.2,0.1-0.3,0.3-0.4,0.4c0.1,0.2,0.3,0.4,0.4,0.6V3.7z"/>
<path fill="#FEFEFE" d="M45.9,7.3v-6c-0.2,0-0.3,0.1-0.5,0.1v5.8C45.6,7.3,45.8,7.3,45.9,7.3"/>
<path fill="#FEFEFE" d="M43.2,6.2V2.4c-0.2,0.1-0.3,0.2-0.5,0.3v3.3C42.8,6,43,6.1,43.2,6.2"/>
<path fill="#FEFEFE" d="M48.2,17.3c0,0,1.1-0.8,2.9-0.8c1.7,0,4.6,2.6,5.4,3.3c1.5-2,2.5-4.5,2.5-7.2c0-2.8-1.2-5.8-3.3-8.1
	c-1.5,2.3-4.4,3.8-7.7,3.8c-3.2,0-6.1-1.4-7.6-3.7c-1.8,2-3,4.7-3,7.8c0,2.7,0.8,4.9,1.9,6.7c1.2-1,3.4-2.6,5.1-2.8
	C46.8,15.9,48.2,17.3,48.2,17.3"/>
<path fill="#FEFEFE" d="M42.2,5.6V2.9c-0.2,0.1-0.3,0.2-0.5,0.3v1.9C41.9,5.3,42.1,5.4,42.2,5.6"/>
<path fill="#FEFEFE" d="M44.1,6.7V1.9C43.9,2,43.8,2,43.6,2.1v4.4C43.8,6.6,43.9,6.7,44.1,6.7"/>
<path fill="#FEFEFE" d="M45,7.1V1.5c-0.2,0.1-0.3,0.1-0.5,0.2v5.2C44.7,7,44.8,7,45,7.1"/>
<path fill="#FEFEFE" d="M6.2,30.5c-1.4,0-1.5,1.2-1.5,2.4c0,1.2,0.1,2.5,1.5,2.5s1.6-1.2,1.6-2.5C7.8,31.7,7.6,30.5,6.2,30.5 M6,41.5
	c-1.5,0-2.5-0.3-3.4-1.2L4,38.8c0.5,0.5,1.1,0.7,1.9,0.7c1.4,0,1.9-1,1.9-2v-1c-0.6,0.7-1.3,0.9-2.3,0.9c-0.9,0-1.7-0.3-2.3-0.8
	c-0.9-0.9-1-2.1-1-3.8c0-1.6,0.1-2.8,1-3.7c0.5-0.5,1.3-0.8,2.3-0.8c1,0,1.7,0.3,2.3,1v-0.9h2.3v9.1C10.1,39.8,8.5,41.5,6,41.5"/>
<path fill="#FEFEFE" d="M16.2,33.9h-1.9c-0.9,0-1.3,0.4-1.3,1.1c0,0.7,0.4,1.1,1.4,1.1c0.7,0,1.1-0.1,1.5-0.5c0.3-0.2,0.3-0.6,0.3-1.2
	V33.9z M16.3,37.9v-0.8C15.7,37.7,15.1,38,14,38c-1.1,0-1.9-0.3-2.4-0.8c-0.5-0.5-0.8-1.3-0.8-2.1c0-1.5,1-2.7,3.2-2.7h2.2v-0.5
	c0-1-0.5-1.5-1.8-1.5c-0.9,0-1.3,0.2-1.8,0.8l-1.5-1.5c0.9-1,1.8-1.3,3.4-1.3c2.7,0,4,1.1,4,3.3v6.2H16.3z"/>
<path fill="#FEFEFE" d="M30.6,37.9v-5.7c0-1.3-0.8-1.7-1.6-1.7c-0.7,0-1.6,0.4-1.6,1.7v5.8h-2.4v-5.7c0-1.3-0.8-1.7-1.6-1.7
	c-0.7,0-1.6,0.4-1.6,1.7v5.7h-2.4v-9.4h2.3v0.9c0.6-0.6,1.5-1,2.4-1c1.1,0,1.9,0.4,2.5,1.2c0.8-0.8,1.7-1.2,2.8-1.2
	c0.9,0,1.8,0.3,2.3,0.8c0.8,0.8,1,1.6,1,2.7v6H30.6z"/>
<path fill="#FEFEFE" d="M37,38c-1.5,0-2.8-0.2-4-1.4l1.5-1.5c0.8,0.8,1.8,0.9,2.5,0.9c0.8,0,1.7-0.3,1.7-1c0-0.5-0.3-0.8-1-0.9L36.3,34
	c-1.7-0.2-2.8-0.9-2.8-2.6c0-2,1.7-3,3.7-3c1.5,0,2.7,0.3,3.6,1.1L39.3,31c-0.5-0.5-1.4-0.6-2.2-0.6c-0.9,0-1.3,0.4-1.3,0.9
	c0,0.3,0.1,0.7,1,0.8l1.5,0.1c1.9,0.2,2.8,1.2,2.8,2.8C41.1,37,39.3,38,37,38"/>
<polygon fill="#FEFEFE" points="10.1,40.5 41.2,40.5 41.2,39.3 10.1,39.3 "/>
<polygon fill="#FEFEFE" points="3,26.2 3,22.1 4.9,22.1 4.9,22.8 3.6,22.8 3.6,23.8 4.7,23.8 4.7,24.5 3.6,24.5 3.6,26.2 "/>
<path fill="#FEFEFE" d="M6,22.8l0.3-1h0.6l-0.5,1H6z M5.8,24.4h0.8c0-0.1,0-0.1,0-0.2c0,0,0-0.1,0-0.2c0-0.1-0.1-0.2-0.1-0.2
	c-0.1-0.1-0.1-0.1-0.2-0.1c-0.1,0-0.2,0-0.2,0.1c-0.1,0.1-0.1,0.1-0.1,0.2c0,0.1,0,0.1,0,0.2S5.8,24.4,5.8,24.4L5.8,24.4z M5.2,24.7
	c0-0.2,0-0.5,0.1-0.6s0.1-0.3,0.2-0.5c0.1-0.1,0.2-0.2,0.3-0.3c0.1-0.1,0.2-0.1,0.4-0.1c0.2,0,0.3,0,0.4,0.1
	c0.1,0.1,0.2,0.2,0.3,0.3C7,23.7,7,23.9,7.1,24c0,0.2,0.1,0.4,0.1,0.6v0.3H5.8c0,0.2,0,0.3,0.1,0.5c0.1,0.1,0.2,0.2,0.4,0.2
	c0.1,0,0.2,0,0.3-0.1c0.1,0,0.1-0.1,0.2-0.2l0.3,0.4C7,25.8,7,25.9,6.9,25.9C6.9,26,6.8,26,6.7,26.1c-0.1,0-0.1,0.1-0.2,0.1
	c-0.1,0-0.2,0-0.3,0c-0.1,0-0.3,0-0.4-0.1c-0.1,0-0.2-0.1-0.3-0.2c-0.1-0.1-0.2-0.3-0.2-0.5C5.3,25.2,5.2,25,5.2,24.7L5.2,24.7z"/>
<path fill="#FEFEFE" d="M8,24.7c0,0.1,0,0.2,0,0.3c0,0.1,0,0.2,0.1,0.3c0,0.1,0.1,0.1,0.1,0.2c0,0,0.1,0.1,0.2,0.1c0.1,0,0.1,0,0.2-0.1
	c0.1,0,0.1-0.1,0.1-0.2c0-0.1,0-0.2,0.1-0.3c0-0.1,0-0.2,0-0.3s0-0.2,0-0.3c0-0.1,0-0.2-0.1-0.3c0-0.1-0.1-0.1-0.1-0.2
	c0,0-0.1-0.1-0.2-0.1c-0.1,0-0.1,0-0.2,0.1c0,0-0.1,0.1-0.1,0.2c0,0.1,0,0.2-0.1,0.3C8.1,24.5,8,24.6,8,24.7 M7.5,24.7
	c0-0.1,0-0.2,0-0.3c0-0.1,0-0.2,0-0.3c0-0.1,0-0.2,0.1-0.3c0-0.1,0.1-0.2,0.1-0.3c0.1-0.1,0.1-0.1,0.2-0.2c0.1,0,0.2-0.1,0.3-0.1
	c0.1,0,0.2,0,0.3,0.1c0.1,0,0.2,0.1,0.2,0.2v-1.3h0.5v4H8.8v-0.3c-0.1,0.1-0.2,0.2-0.2,0.2c-0.1,0-0.2,0.1-0.3,0.1
	c-0.1,0-0.2,0-0.3-0.1c-0.1,0-0.2-0.1-0.2-0.2c-0.1-0.1-0.1-0.2-0.1-0.3c0-0.1-0.1-0.2-0.1-0.3c0-0.1,0-0.2,0-0.3
	C7.5,24.9,7.5,24.8,7.5,24.7"/>
<path fill="#FEFEFE" d="M10.5,22.8l0.3-1h0.6l-0.5,1H10.5z M10.3,24.4h0.8c0-0.1,0-0.1,0-0.2c0,0,0-0.1,0-0.2c0-0.1-0.1-0.2-0.1-0.2
	c-0.1-0.1-0.1-0.1-0.2-0.1c-0.1,0-0.2,0-0.2,0.1c-0.1,0.1-0.1,0.1-0.1,0.2c0,0.1,0,0.1,0,0.2C10.3,24.3,10.3,24.4,10.3,24.4
	L10.3,24.4z M9.8,24.7c0-0.2,0-0.5,0.1-0.6c0-0.2,0.1-0.3,0.2-0.5c0.1-0.1,0.2-0.2,0.3-0.3c0.1-0.1,0.2-0.1,0.4-0.1
	c0.2,0,0.3,0,0.4,0.1c0.1,0.1,0.2,0.2,0.3,0.3c0.1,0.1,0.1,0.3,0.2,0.4c0,0.2,0.1,0.4,0.1,0.6v0.3h-1.4c0,0.2,0,0.3,0.1,0.5
	c0.1,0.1,0.2,0.2,0.4,0.2c0.1,0,0.2,0,0.3-0.1c0.1,0,0.1-0.1,0.2-0.2l0.3,0.4c-0.1,0.1-0.1,0.1-0.2,0.2c-0.1,0.1-0.1,0.1-0.2,0.1
	c-0.1,0-0.1,0.1-0.2,0.1c-0.1,0-0.2,0-0.3,0c-0.1,0-0.3,0-0.4-0.1c-0.1,0-0.2-0.1-0.3-0.2c-0.1-0.1-0.2-0.3-0.2-0.5
	C9.8,25.2,9.8,25,9.8,24.7L9.8,24.7z"/>
<path fill="#FEFEFE" d="M12.1,26.2v-2.9h0.5v0.3c0.1-0.1,0.1-0.2,0.2-0.2c0.1-0.1,0.2-0.1,0.3-0.1c0.1,0,0.2,0,0.3,0.1
	c0.1,0,0.2,0.1,0.2,0.2L13.3,24c0-0.1-0.1-0.1-0.1-0.1c0,0-0.1,0-0.2,0c0,0-0.1,0-0.1,0c0,0-0.1,0.1-0.1,0.1c0,0-0.1,0.1-0.1,0.2
	c0,0.1,0,0.1,0,0.2v1.8H12.1z"/>
<path fill="#FEFEFE" d="M14.4,25.3c0,0.1,0,0.2,0.1,0.2c0.1,0.1,0.1,0.1,0.2,0.1c0.1,0,0.1,0,0.2,0c0.1,0,0.1-0.1,0.2-0.1
	c0.1-0.1,0.1-0.2,0.1-0.4v-0.2h-0.4c-0.1,0-0.2,0-0.2,0.1C14.4,25.1,14.4,25.2,14.4,25.3 M13.8,25.3c0-0.1,0-0.2,0-0.3
	c0-0.1,0.1-0.2,0.1-0.3c0.1-0.1,0.1-0.1,0.2-0.2c0.1,0,0.2-0.1,0.3-0.1h0.5v-0.1c0-0.2,0-0.3-0.1-0.4c-0.1-0.1-0.2-0.1-0.3-0.1
	c-0.1,0-0.1,0-0.1,0c0,0-0.1,0-0.1,0c0,0-0.1,0-0.1,0.1c0,0-0.1,0.1-0.1,0.1l-0.3-0.5c0.1-0.2,0.2-0.3,0.3-0.3s0.3-0.1,0.5-0.1
	c0.3,0,0.5,0.1,0.7,0.3c0.2,0.2,0.2,0.4,0.2,0.8v1.9h-0.5v-0.3C15,26,15,26.1,14.9,26.1c-0.1,0-0.2,0.1-0.3,0.1
	c-0.2,0-0.4-0.1-0.6-0.3c-0.1-0.1-0.1-0.2-0.1-0.3C13.8,25.5,13.8,25.4,13.8,25.3"/>
<path fill="#FEFEFE" d="M16,23.9v-0.6h0.2v-0.9h0.5v0.9h0.4v0.6h-0.4v1.4c0,0.2,0.1,0.3,0.2,0.3h0.2v0.6h-0.3c-0.1,0-0.2,0-0.3-0.1
	c-0.1,0-0.1-0.1-0.2-0.2c-0.1-0.1-0.1-0.2-0.1-0.3c0-0.1,0-0.2,0-0.3v-1.5H16z"/>
<path fill="#FEFEFE" d="M17.6,26.2h0.5v-2.9h-0.5V26.2z M17.6,22.7h0.6v-0.6h-0.6V22.7z"/>
<path fill="#FEFEFE" d="M19.1,24.7c0,0.2,0,0.3,0,0.4c0,0.1,0,0.2,0.1,0.3c0.1,0.1,0.1,0.1,0.3,0.1c0.1,0,0.2,0,0.3-0.1
	c0.1-0.1,0.1-0.2,0.1-0.3c0-0.1,0-0.3,0-0.4c0-0.2,0-0.3,0-0.4c0-0.1,0-0.2-0.1-0.3c-0.1-0.1-0.2-0.1-0.3-0.1c-0.1,0-0.2,0-0.3,0.1
	c-0.1,0.1-0.1,0.2-0.1,0.3C19.1,24.4,19.1,24.5,19.1,24.7 M18.6,24.7c0-0.3,0-0.5,0.1-0.7c0-0.2,0.1-0.3,0.2-0.5
	c0.1-0.1,0.2-0.2,0.3-0.3c0.1-0.1,0.2-0.1,0.4-0.1s0.3,0,0.4,0.1c0.1,0.1,0.2,0.2,0.3,0.3c0.1,0.1,0.2,0.3,0.2,0.5
	c0,0.2,0,0.4,0,0.7s0,0.5-0.1,0.7c0,0.2-0.1,0.3-0.2,0.5c-0.1,0.1-0.2,0.2-0.3,0.3c-0.1,0.1-0.2,0.1-0.4,0.1s-0.3,0-0.4-0.1
	c-0.1-0.1-0.2-0.2-0.3-0.3c-0.1-0.1-0.2-0.3-0.2-0.5C18.6,25.2,18.6,25,18.6,24.7"/>
<path fill="#FEFEFE" d="M20.9,26.2v-2.9h0.5v0.3c0.1-0.1,0.2-0.2,0.3-0.2c0.1,0,0.2-0.1,0.3-0.1c0.1,0,0.2,0,0.3,0.1
	c0.1,0,0.2,0.1,0.2,0.2c0.1,0.1,0.1,0.3,0.2,0.4c0,0.1,0,0.3,0,0.4v1.9h-0.5v-1.8c0-0.1,0-0.2,0-0.3c0-0.1,0-0.1-0.1-0.2
	c0,0-0.1-0.1-0.1-0.1s-0.1,0-0.1,0c0,0-0.1,0-0.1,0c0,0-0.1,0-0.1,0.1c0,0-0.1,0.1-0.1,0.2c0,0.1,0,0.2,0,0.3v1.8H20.9z"/>
<path fill="#FEFEFE" d="M24.2,26.2v-2.9h0.5v0.3c0.1-0.1,0.2-0.2,0.3-0.2c0.1,0,0.2-0.1,0.3-0.1c0.1,0,0.2,0,0.3,0.1
	c0.1,0,0.2,0.1,0.2,0.2c0.1,0.1,0.1,0.3,0.2,0.4c0,0.1,0,0.3,0,0.4v1.9h-0.5v-1.8c0-0.1,0-0.2,0-0.3c0-0.1,0-0.1-0.1-0.2
	c0,0-0.1-0.1-0.1-0.1c0,0-0.1,0-0.1,0c0,0-0.1,0-0.1,0c0,0-0.1,0-0.1,0.1c0,0-0.1,0.1-0.1,0.2c0,0.1,0,0.2,0,0.3v1.8H24.2z"/>
<path fill="#FEFEFE" d="M26.9,25.3c0,0.1,0,0.2,0.1,0.2c0.1,0.1,0.1,0.1,0.2,0.1c0.1,0,0.1,0,0.2,0c0.1,0,0.1-0.1,0.2-0.1
	c0.1-0.1,0.1-0.2,0.1-0.4v-0.2h-0.4c-0.1,0-0.2,0-0.2,0.1C26.9,25.1,26.9,25.2,26.9,25.3 M26.3,25.3c0-0.1,0-0.2,0-0.3
	c0-0.1,0.1-0.2,0.1-0.3c0.1-0.1,0.1-0.1,0.2-0.2c0.1,0,0.2-0.1,0.3-0.1h0.5v-0.1c0-0.2,0-0.3-0.1-0.4c-0.1-0.1-0.2-0.1-0.3-0.1
	c-0.1,0-0.1,0-0.1,0c0,0-0.1,0-0.1,0c0,0-0.1,0-0.1,0.1c0,0-0.1,0.1-0.1,0.1l-0.3-0.5c0.1-0.2,0.2-0.3,0.3-0.3
	c0.1-0.1,0.3-0.1,0.5-0.1c0.3,0,0.5,0.1,0.7,0.3c0.2,0.2,0.2,0.4,0.2,0.8v1.9h-0.5v-0.3c-0.1,0.1-0.1,0.2-0.2,0.2
	c-0.1,0-0.2,0.1-0.3,0.1c-0.2,0-0.4-0.1-0.6-0.3c-0.1-0.1-0.1-0.2-0.1-0.3C26.4,25.5,26.3,25.4,26.3,25.3"/>
<path fill="#FEFEFE" d="M28.5,23.9v-0.6h0.2v-0.9h0.5v0.9h0.4v0.6h-0.4v1.4c0,0.2,0.1,0.3,0.2,0.3h0.2v0.6h-0.3c-0.1,0-0.2,0-0.3-0.1
	c-0.1,0-0.1-0.1-0.2-0.2c-0.1-0.1-0.1-0.2-0.1-0.3c0-0.1,0-0.2,0-0.3v-1.5H28.5z"/>
<path fill="#FEFEFE" d="M30.1,26.2h0.5v-2.9h-0.5V26.2z M30.1,22.7h0.6v-0.6h-0.6V22.7z"/>
<path fill="#FEFEFE" d="M31.6,24.7c0,0.2,0,0.3,0,0.4c0,0.1,0,0.2,0.1,0.3c0.1,0.1,0.1,0.1,0.3,0.1c0.1,0,0.2,0,0.3-0.1
	c0.1-0.1,0.1-0.2,0.1-0.3c0-0.1,0-0.3,0-0.4c0-0.2,0-0.3,0-0.4c0-0.1,0-0.2-0.1-0.3c-0.1-0.1-0.1-0.1-0.3-0.1c-0.1,0-0.2,0-0.3,0.1
	c-0.1,0.1-0.1,0.2-0.1,0.3C31.7,24.4,31.6,24.5,31.6,24.7 M31.1,24.7c0-0.3,0-0.5,0.1-0.7c0-0.2,0.1-0.3,0.2-0.5
	c0.1-0.1,0.2-0.2,0.3-0.3c0.1-0.1,0.2-0.1,0.4-0.1s0.3,0,0.4,0.1c0.1,0.1,0.2,0.2,0.3,0.3c0.1,0.1,0.2,0.3,0.2,0.5
	c0,0.2,0,0.4,0,0.7s0,0.5-0.1,0.7c0,0.2-0.1,0.3-0.2,0.5c-0.1,0.1-0.2,0.2-0.3,0.3c-0.1,0.1-0.2,0.1-0.4,0.1s-0.3,0-0.4-0.1
	c-0.1-0.1-0.2-0.2-0.3-0.3c-0.1-0.1-0.2-0.3-0.2-0.5C31.1,25.2,31.1,25,31.1,24.7"/>
<path fill="#FEFEFE" d="M33.4,26.2v-2.9h0.5v0.3c0.1-0.1,0.2-0.2,0.3-0.2c0.1,0,0.2-0.1,0.3-0.1c0.1,0,0.2,0,0.3,0.1
	c0.1,0,0.2,0.1,0.2,0.2c0.1,0.1,0.1,0.3,0.2,0.4c0,0.1,0,0.3,0,0.4v1.9h-0.5v-1.8c0-0.1,0-0.2,0-0.3c0-0.1,0-0.1-0.1-0.2
	c0,0-0.1-0.1-0.1-0.1c0,0-0.1,0-0.1,0c0,0-0.1,0-0.1,0s-0.1,0-0.1,0.1c0,0-0.1,0.1-0.1,0.2c0,0.1,0,0.2,0,0.3v1.8H33.4z"/>
<path fill="#FEFEFE" d="M36.1,25.3c0,0.1,0,0.2,0.1,0.2c0.1,0.1,0.1,0.1,0.2,0.1c0.1,0,0.1,0,0.2,0c0.1,0,0.1-0.1,0.2-0.1
	c0.1-0.1,0.1-0.2,0.1-0.4v-0.2h-0.4c-0.1,0-0.2,0-0.2,0.1C36.2,25.1,36.1,25.2,36.1,25.3 M35.6,25.3c0-0.1,0-0.2,0-0.3
	c0-0.1,0.1-0.2,0.1-0.3c0.1-0.1,0.1-0.1,0.2-0.2c0.1,0,0.2-0.1,0.3-0.1h0.5v-0.1c0-0.2,0-0.3-0.1-0.4c-0.1-0.1-0.2-0.1-0.3-0.1
	c-0.1,0-0.1,0-0.1,0c0,0-0.1,0-0.1,0c0,0-0.1,0-0.1,0.1c0,0-0.1,0.1-0.1,0.1l-0.3-0.5c0.1-0.2,0.2-0.3,0.3-0.3
	c0.1-0.1,0.3-0.1,0.5-0.1c0.3,0,0.5,0.1,0.7,0.3c0.2,0.2,0.2,0.4,0.2,0.8v1.9h-0.5v-0.3c-0.1,0.1-0.1,0.2-0.2,0.2
	c-0.1,0-0.2,0.1-0.3,0.1c-0.2,0-0.4-0.1-0.6-0.3c-0.1-0.1-0.1-0.2-0.1-0.3C35.6,25.5,35.6,25.4,35.6,25.3"/>
<path fill="#FEFEFE" d="M37.9,25.3v-3.2h0.5v3.1c0,0.1,0,0.2,0,0.2c0,0,0.1,0.1,0.1,0.1h0.2v0.6h-0.3c-0.1,0-0.2,0-0.3-0.1
	c-0.1,0-0.1-0.1-0.2-0.2C38,25.8,38,25.7,38,25.6C37.9,25.5,37.9,25.4,37.9,25.3"/>
<path fill="#FEFEFE" d="M39.7,24.4h0.8c0-0.1,0-0.1,0-0.2c0,0,0-0.1,0-0.2c0-0.1-0.1-0.2-0.1-0.2c-0.1-0.1-0.1-0.1-0.2-0.1
	c-0.1,0-0.2,0-0.2,0.1c-0.1,0.1-0.1,0.1-0.1,0.2c0,0.1,0,0.1,0,0.2C39.7,24.3,39.7,24.4,39.7,24.4 M39.1,24.7c0-0.2,0-0.5,0.1-0.6
	c0-0.2,0.1-0.3,0.2-0.5c0.1-0.1,0.2-0.2,0.3-0.3c0.1-0.1,0.2-0.1,0.4-0.1c0.2,0,0.3,0,0.4,0.1c0.1,0.1,0.2,0.2,0.3,0.3
	c0.1,0.1,0.1,0.3,0.2,0.4c0,0.2,0.1,0.4,0.1,0.6v0.3h-1.4c0,0.2,0,0.3,0.1,0.5c0.1,0.1,0.2,0.2,0.4,0.2c0.1,0,0.2,0,0.3-0.1
	c0.1,0,0.1-0.1,0.2-0.2l0.3,0.4c-0.1,0.1-0.1,0.1-0.2,0.2c-0.1,0.1-0.1,0.1-0.2,0.1c-0.1,0-0.1,0.1-0.2,0.1c-0.1,0-0.2,0-0.3,0
	c-0.1,0-0.3,0-0.4-0.1c-0.1,0-0.2-0.1-0.3-0.2c-0.1-0.1-0.2-0.3-0.2-0.5C39.2,25.2,39.1,25,39.1,24.7"/>
<polygon fill="#FEFEFE" points="10.1,47.2 10.1,44.3 10.5,44.3 11.2,46.1 12,44.3 12.4,44.3 12.4,47.2 12,47.2 12,45.3 11.4,46.6
	11.1,46.6 10.5,45.3 10.5,47.2 "/>
<path fill="#FEFEFE" d="M12.9,46.4v-1.3h0.4v1.2c0,0.2,0,0.3,0.1,0.3c0.1,0.1,0.2,0.1,0.3,0.1c0.1,0,0.1,0,0.1,0c0,0,0.1,0,0.1-0.1
	s0.1-0.1,0.1-0.1c0-0.1,0-0.1,0-0.2v-1.2h0.4v2H14v-0.2c-0.1,0.1-0.1,0.1-0.2,0.2c-0.1,0-0.2,0.1-0.3,0.1c-0.1,0-0.2,0-0.3,0
	c-0.1,0-0.1-0.1-0.2-0.1c-0.1-0.1-0.1-0.2-0.1-0.3C12.9,46.6,12.9,46.5,12.9,46.4"/>
<path fill="#FEFEFE" d="M14.7,45.5v-0.3h0.2v-0.6h0.4v0.6h0.4v0.3h-0.4v1.1c0,0.1,0,0.1,0,0.2c0,0,0.1,0.1,0.2,0.1h0.2v0.3h-0.2
	c-0.1,0-0.2,0-0.2,0c-0.1,0-0.1-0.1-0.2-0.1c0-0.1-0.1-0.1-0.1-0.2s0-0.1,0-0.2v-1.1H14.7z"/>
<path fill="#FEFEFE" d="M16.1,47.2h0.4v-2h-0.4V47.2z M16,44.7h0.4v-0.4H16V44.7z"/>
<path fill="#FEFEFE" d="M16.9,46.6v-2.3h0.4v2.3c0,0.1,0,0.1,0,0.2c0,0,0.1,0.1,0.2,0.1h0.2v0.3h-0.2c-0.1,0-0.2,0-0.2,0
	c-0.1,0-0.1-0.1-0.2-0.1c0-0.1-0.1-0.1-0.1-0.2C16.9,46.7,16.9,46.7,16.9,46.6"/>
<path fill="#FEFEFE" d="M18.2,46.5c0,0.1,0,0.2,0.1,0.2c0.1,0,0.1,0.1,0.3,0.1c0.1,0,0.1,0,0.2,0c0.1,0,0.1,0,0.2-0.1
	c0.1-0.1,0.1-0.2,0.1-0.3v-0.2h-0.4c-0.1,0-0.2,0-0.2,0.1C18.2,46.4,18.2,46.5,18.2,46.5 M17.8,46.6c0-0.2,0.1-0.3,0.2-0.4
	c0.1-0.1,0.3-0.2,0.5-0.2H19v-0.1c0-0.1,0-0.2-0.1-0.3c-0.1-0.1-0.2-0.1-0.3-0.1c-0.1,0-0.2,0-0.2,0c-0.1,0-0.1,0.1-0.2,0.2
	l-0.2-0.3c0.1-0.1,0.2-0.2,0.3-0.2c0.1,0,0.2-0.1,0.4-0.1c0.5,0,0.8,0.2,0.8,0.7v1.4H19V47c-0.1,0.1-0.1,0.1-0.2,0.2
	c-0.1,0-0.2,0-0.3,0c-0.1,0-0.2,0-0.3,0c-0.1,0-0.1-0.1-0.2-0.1C17.9,46.9,17.8,46.7,17.8,46.6"/>
<path fill="#FEFEFE" d="M19.7,45.5v-0.3h0.2v-0.6h0.4v0.6h0.4v0.3h-0.4v1.1c0,0.1,0,0.1,0.1,0.2c0,0,0.1,0.1,0.2,0.1h0.2v0.3h-0.2
	c-0.1,0-0.2,0-0.2,0C20.1,47.1,20,47,20,47c0-0.1-0.1-0.1-0.1-0.2s0-0.1,0-0.2v-1.1H19.7z"/>
<path fill="#FEFEFE" d="M21,47.2h0.4v-2H21V47.2z M21,44.7h0.4v-0.4H21V44.7z"/>
<path fill="#FEFEFE" d="M22.1,46.1c0,0.1,0,0.2,0,0.3c0,0.1,0,0.2,0.1,0.2c0.1,0.1,0.2,0.1,0.3,0.1c0.1,0,0.2,0,0.3-0.1
	c0.1-0.1,0.1-0.1,0.1-0.2c0-0.1,0-0.2,0-0.3c0-0.1,0-0.2,0-0.3c0-0.1-0.1-0.2-0.1-0.2c-0.1-0.1-0.2-0.1-0.3-0.1
	c-0.1,0-0.2,0-0.3,0.1c-0.1,0.1-0.1,0.1-0.1,0.2C22.2,45.9,22.1,46,22.1,46.1 M21.8,46.1c0-0.2,0-0.3,0-0.4c0-0.1,0.1-0.2,0.2-0.3
	c0.1-0.1,0.1-0.1,0.2-0.2c0.1,0,0.2-0.1,0.3-0.1c0.1,0,0.2,0,0.3,0.1c0.1,0,0.2,0.1,0.2,0.2c0.1,0.1,0.1,0.2,0.2,0.3
	c0,0.1,0,0.3,0,0.4c0,0.2,0,0.3,0,0.5c0,0.1-0.1,0.2-0.2,0.3C23,47,23,47.1,22.9,47.1c-0.1,0-0.2,0.1-0.3,0.1c-0.1,0-0.2,0-0.3-0.1
	c-0.1,0-0.2-0.1-0.2-0.2c-0.1-0.1-0.1-0.2-0.2-0.3C21.8,46.5,21.8,46.3,21.8,46.1"/>
<path fill="#FEFEFE" d="M23.7,47.2v-2h0.4v0.2c0.1-0.1,0.1-0.1,0.2-0.2c0.1,0,0.2-0.1,0.3-0.1c0.1,0,0.2,0,0.3,0c0.1,0,0.1,0.1,0.2,0.1
	c0.1,0.1,0.1,0.2,0.1,0.3c0,0.1,0,0.2,0,0.3v1.3h-0.4v-1.2c0-0.2,0-0.3-0.1-0.3c-0.1-0.1-0.2-0.1-0.3-0.1c-0.1,0-0.2,0-0.3,0.1
	c-0.1,0.1-0.1,0.2-0.1,0.3v1.2H23.7z"/>
<path fill="#FEFEFE" d="M25.5,46.9l0.2-0.3c0.1,0.1,0.2,0.1,0.2,0.2c0.1,0,0.2,0,0.3,0c0.1,0,0.2,0,0.3-0.1c0.1,0,0.1-0.1,0.1-0.2
	c0-0.1,0-0.1-0.1-0.2c0,0-0.1-0.1-0.2-0.1l-0.3,0c-0.2,0-0.3-0.1-0.4-0.2c-0.1-0.1-0.1-0.2-0.1-0.4c0-0.1,0-0.2,0.1-0.3
	c0-0.1,0.1-0.1,0.1-0.2c0.1-0.1,0.1-0.1,0.2-0.1c0.1,0,0.2,0,0.3,0c0.1,0,0.3,0,0.4,0.1c0.1,0,0.2,0.1,0.3,0.2l-0.2,0.3
	c-0.1-0.1-0.1-0.1-0.2-0.1c-0.1,0-0.2,0-0.2,0c-0.1,0-0.2,0-0.2,0.1c-0.1,0-0.1,0.1-0.1,0.2c0,0.1,0,0.1,0.1,0.2
	c0,0,0.1,0.1,0.2,0.1l0.3,0c0.2,0,0.3,0.1,0.4,0.2c0.1,0.1,0.1,0.2,0.1,0.4c0,0.1,0,0.2-0.1,0.3c0,0.1-0.1,0.1-0.2,0.2
	c-0.1,0.1-0.1,0.1-0.2,0.1c-0.1,0-0.2,0-0.3,0c-0.1,0-0.3,0-0.4-0.1C25.8,47.1,25.6,47,25.5,46.9"/>
<path fill="#FEFEFE" d="M28.1,46.9l0.2-0.3c0.1,0.1,0.2,0.1,0.2,0.2c0.1,0,0.2,0,0.3,0c0.1,0,0.2,0,0.3-0.1c0.1,0,0.1-0.1,0.1-0.2
	c0-0.1,0-0.1-0.1-0.2c0,0-0.1-0.1-0.2-0.1l-0.3,0c-0.2,0-0.3-0.1-0.4-0.2c-0.1-0.1-0.1-0.2-0.1-0.4c0-0.1,0-0.2,0.1-0.3
	c0-0.1,0.1-0.1,0.1-0.2c0.1-0.1,0.1-0.1,0.2-0.1c0.1,0,0.2,0,0.3,0c0.1,0,0.3,0,0.4,0.1c0.1,0,0.2,0.1,0.3,0.2l-0.2,0.3
	c-0.1-0.1-0.1-0.1-0.2-0.1c-0.1,0-0.2,0-0.2,0c-0.1,0-0.2,0-0.2,0.1c-0.1,0-0.1,0.1-0.1,0.2c0,0.1,0,0.1,0.1,0.2
	c0,0,0.1,0.1,0.2,0.1l0.3,0c0.2,0,0.3,0.1,0.4,0.2c0.1,0.1,0.1,0.2,0.1,0.4c0,0.1,0,0.2-0.1,0.3c0,0.1-0.1,0.1-0.2,0.2
	c-0.1,0.1-0.1,0.1-0.2,0.1c-0.1,0-0.2,0-0.3,0c-0.1,0-0.3,0-0.4-0.1C28.3,47.1,28.2,47,28.1,46.9"/>
<path fill="#FEFEFE" d="M30.2,46h0.8c0-0.1,0-0.1,0-0.1c0,0,0-0.1,0-0.1c0-0.1-0.1-0.1-0.1-0.2c-0.1,0-0.1-0.1-0.2-0.1
	c-0.1,0-0.2,0-0.2,0.1c-0.1,0-0.1,0.1-0.1,0.2c0,0,0,0.1,0,0.1C30.2,45.9,30.2,45.9,30.2,46 M29.9,46.1c0-0.3,0.1-0.6,0.2-0.8
	c0.1-0.2,0.3-0.3,0.6-0.3c0.1,0,0.2,0,0.3,0.1c0.1,0,0.2,0.1,0.2,0.2c0.1,0.1,0.1,0.2,0.2,0.3c0,0.1,0.1,0.3,0.1,0.4v0.2h-1.2
	c0,0.2,0,0.3,0.1,0.4c0.1,0.1,0.2,0.2,0.3,0.2c0.1,0,0.2,0,0.2-0.1c0.1,0,0.1-0.1,0.2-0.2l0.2,0.2c0,0.1-0.1,0.1-0.1,0.1
	c0,0-0.1,0.1-0.2,0.1c-0.1,0-0.1,0-0.2,0.1c-0.1,0-0.1,0-0.2,0c-0.1,0-0.2,0-0.3-0.1c-0.1,0-0.2-0.1-0.3-0.2
	c-0.1-0.1-0.1-0.2-0.2-0.3S29.9,46.3,29.9,46.1"/>
<polygon fill="#FEFEFE" points="31.6,47.2 32.2,46.1 31.6,45.1 32.1,45.1 32.4,45.8 32.8,45.1 33.2,45.1 32.6,46.1 33.2,47.2
	32.8,47.2 32.4,46.5 32,47.2 "/>
<path fill="#FEFEFE" d="M33.5,46.4v-1.3h0.4v1.2c0,0.2,0,0.3,0.1,0.3c0.1,0.1,0.2,0.1,0.3,0.1c0.1,0,0.1,0,0.1,0c0,0,0.1,0,0.1-0.1
	s0.1-0.1,0.1-0.1c0-0.1,0-0.1,0-0.2v-1.2H35v2h-0.4v-0.2c-0.1,0.1-0.1,0.1-0.2,0.2c-0.1,0-0.2,0.1-0.3,0.1c-0.1,0-0.2,0-0.3,0
	c-0.1,0-0.1-0.1-0.2-0.1c-0.1-0.1-0.1-0.2-0.1-0.3C33.5,46.6,33.5,46.5,33.5,46.4"/>
<path fill="#FEFEFE" d="M35.8,46h0.8c0-0.1,0-0.1,0-0.1c0,0,0-0.1,0-0.1c0-0.1-0.1-0.1-0.1-0.2c-0.1,0-0.1-0.1-0.2-0.1
	c-0.1,0-0.2,0-0.2,0.1c-0.1,0-0.1,0.1-0.1,0.2c0,0,0,0.1,0,0.1C35.8,45.9,35.8,45.9,35.8,46 M35.4,46.1c0-0.3,0.1-0.6,0.2-0.8
	c0.1-0.2,0.3-0.3,0.6-0.3c0.1,0,0.2,0,0.3,0.1c0.1,0,0.2,0.1,0.2,0.2c0.1,0.1,0.1,0.2,0.2,0.3c0,0.1,0.1,0.3,0.1,0.4v0.2h-1.2
	c0,0.2,0,0.3,0.1,0.4c0.1,0.1,0.2,0.2,0.3,0.2c0.1,0,0.2,0,0.2-0.1c0.1,0,0.1-0.1,0.2-0.2l0.2,0.2c0,0.1-0.1,0.1-0.1,0.1
	c0,0-0.1,0.1-0.2,0.1c-0.1,0-0.1,0-0.2,0.1c-0.1,0-0.1,0-0.2,0c-0.1,0-0.2,0-0.3-0.1c-0.1,0-0.2-0.1-0.3-0.2
	c-0.1-0.1-0.1-0.2-0.2-0.3C35.4,46.5,35.4,46.3,35.4,46.1"/>
<path fill="#FEFEFE" d="M37.4,46.6v-2.3h0.4v2.3c0,0.1,0,0.1,0,0.2c0,0,0.1,0.1,0.2,0.1h0.2v0.3h-0.2c-0.1,0-0.2,0-0.2,0
	c-0.1,0-0.1-0.1-0.2-0.1c0-0.1-0.1-0.1-0.1-0.2C37.4,46.7,37.4,46.7,37.4,46.6"/>
<path fill="#FEFEFE" d="M38.4,46.6v-2.3h0.4v2.3c0,0.1,0,0.1,0,0.2c0,0,0.1,0.1,0.2,0.1h0.2v0.3h-0.2c-0.1,0-0.2,0-0.2,0
	c-0.1,0-0.1-0.1-0.2-0.1c0-0.1-0.1-0.1-0.1-0.2C38.4,46.7,38.4,46.7,38.4,46.6"/>
<path fill="#FEFEFE" d="M39.7,46h0.8c0-0.1,0-0.1,0-0.1c0,0,0-0.1,0-0.1c0-0.1-0.1-0.1-0.1-0.2c-0.1,0-0.1-0.1-0.2-0.1
	c-0.1,0-0.2,0-0.2,0.1c-0.1,0-0.1,0.1-0.1,0.2c0,0,0,0.1,0,0.1C39.7,45.9,39.7,45.9,39.7,46 M39.3,46.1c0-0.3,0.1-0.6,0.2-0.8
	c0.1-0.2,0.3-0.3,0.6-0.3c0.1,0,0.2,0,0.3,0.1c0.1,0,0.2,0.1,0.2,0.2c0.1,0.1,0.1,0.2,0.2,0.3c0,0.1,0.1,0.3,0.1,0.4v0.2h-1.2
	c0,0.2,0,0.3,0.1,0.4c0.1,0.1,0.2,0.2,0.3,0.2c0.1,0,0.2,0,0.2-0.1c0.1,0,0.1-0.1,0.2-0.2l0.2,0.2c0,0.1-0.1,0.1-0.1,0.1
	c0,0-0.1,0.1-0.2,0.1c-0.1,0-0.1,0-0.2,0.1c-0.1,0-0.1,0-0.2,0c-0.1,0-0.2,0-0.3-0.1c-0.1,0-0.2-0.1-0.3-0.2
	c-0.1-0.1-0.1-0.2-0.2-0.3C39.3,46.5,39.3,46.3,39.3,46.1"/>
<path fill="#FEFEFE" d="M41.1,46.9l0.2-0.3c0.1,0.1,0.2,0.1,0.3,0.2c0.1,0,0.2,0,0.3,0c0.1,0,0.2,0,0.3-0.1c0.1,0,0.1-0.1,0.1-0.2
	c0-0.1,0-0.1-0.1-0.2c0,0-0.1-0.1-0.2-0.1l-0.3,0c-0.2,0-0.3-0.1-0.4-0.2c-0.1-0.1-0.1-0.2-0.1-0.4c0-0.1,0-0.2,0.1-0.3
	c0-0.1,0.1-0.1,0.1-0.2c0.1-0.1,0.1-0.1,0.2-0.1c0.1,0,0.2,0,0.3,0c0.1,0,0.3,0,0.4,0.1c0.1,0,0.2,0.1,0.3,0.2l-0.2,0.3
	c-0.1-0.1-0.1-0.1-0.2-0.1c-0.1,0-0.2,0-0.2,0c-0.1,0-0.2,0-0.2,0.1c-0.1,0-0.1,0.1-0.1,0.2c0,0.1,0,0.1,0.1,0.2
	c0,0,0.1,0.1,0.2,0.1l0.3,0c0.2,0,0.3,0.1,0.4,0.2c0.1,0.1,0.1,0.2,0.1,0.4c0,0.1,0,0.2-0.1,0.3c0,0.1-0.1,0.1-0.2,0.2
	c-0.1,0.1-0.1,0.1-0.2,0.1c-0.1,0-0.2,0-0.3,0c-0.1,0-0.3,0-0.4-0.1C41.3,47.1,41.2,47,41.1,46.9"/>
<path fill="#FEFEFE" d="M9.9,49.3V49h0.2v-0.3c0-0.1,0-0.1,0-0.2c0-0.1,0.1-0.1,0.1-0.2c0-0.1,0.1-0.1,0.2-0.1c0.1,0,0.1,0,0.2,0h0.2
	v0.3h-0.2c-0.1,0-0.1,0-0.2,0.1c0,0,0,0.1,0,0.2V49h0.4v0.3h-0.4V51h-0.4v-1.7H9.9z"/>
<path fill="#FEFEFE" d="M11.7,48.6l0.3-0.6h0.4l-0.4,0.6H11.7z M11.4,49.8h0.8c0-0.1,0-0.1,0-0.1c0,0,0-0.1,0-0.1
	c0-0.1-0.1-0.1-0.1-0.2c-0.1,0-0.1-0.1-0.2-0.1c-0.1,0-0.2,0-0.2,0.1c-0.1,0-0.1,0.1-0.1,0.2c0,0,0,0.1,0,0.1
	C11.4,49.7,11.4,49.7,11.4,49.8L11.4,49.8z M11.1,50c0-0.3,0.1-0.6,0.2-0.8c0.1-0.2,0.3-0.3,0.6-0.3c0.1,0,0.2,0,0.3,0.1
	c0.1,0,0.2,0.1,0.2,0.2c0.1,0.1,0.1,0.2,0.2,0.3c0,0.1,0.1,0.3,0.1,0.4v0.2h-1.2c0,0.2,0,0.3,0.1,0.4c0.1,0.1,0.2,0.2,0.3,0.2
	c0.1,0,0.2,0,0.2,0c0.1,0,0.1-0.1,0.2-0.2l0.2,0.2c0,0.1-0.1,0.1-0.1,0.1c0,0-0.1,0.1-0.2,0.1c-0.1,0-0.1,0-0.2,0.1
	c-0.1,0-0.1,0-0.2,0c-0.1,0-0.2,0-0.3-0.1c-0.1,0-0.2-0.1-0.3-0.2c-0.1-0.1-0.1-0.2-0.2-0.3C11.1,50.3,11.1,50.2,11.1,50L11.1,50z"
	/>
<path fill="#FEFEFE" d="M13,51v-2h0.4v0.2c0.1-0.1,0.1-0.1,0.2-0.2c0.1,0,0.2-0.1,0.3-0.1c0.2,0,0.4,0.1,0.5,0.3
	c0.1-0.2,0.3-0.3,0.6-0.3c0.1,0,0.2,0,0.3,0c0.1,0,0.1,0.1,0.2,0.1c0.1,0.1,0.1,0.2,0.1,0.3c0,0.1,0,0.2,0,0.3V51h-0.4v-1.2
	c0-0.2,0-0.3-0.1-0.3c-0.1-0.1-0.2-0.1-0.3-0.1c0,0-0.1,0-0.1,0c0,0-0.1,0-0.1,0.1c0,0-0.1,0.1-0.1,0.1c0,0.1,0,0.1,0,0.2V51h-0.4
	v-1.2c0-0.2,0-0.3-0.1-0.3c-0.1-0.1-0.2-0.1-0.3-0.1c-0.1,0-0.2,0-0.3,0.1c-0.1,0.1-0.1,0.2-0.1,0.3V51H13z"/>
<path fill="#FEFEFE" d="M16.1,51h0.4v-2h-0.4V51z M16.1,48.6h0.4v-0.4h-0.4V48.6z"/>
<path fill="#FEFEFE" d="M17,51v-2h0.4v0.2c0.1-0.1,0.1-0.1,0.2-0.2c0.1,0,0.2-0.1,0.3-0.1c0.1,0,0.2,0,0.3,0c0.1,0,0.1,0.1,0.2,0.1
	c0.1,0.1,0.1,0.2,0.1,0.3c0,0.1,0,0.2,0,0.3V51h-0.4v-1.2c0-0.2,0-0.3-0.1-0.3c-0.1-0.1-0.2-0.1-0.3-0.1c-0.1,0-0.2,0-0.3,0.1
	c-0.1,0.1-0.1,0.2-0.1,0.3V51H17z"/>
<path fill="#FEFEFE" d="M19,51h0.4v-2H19V51z M19,48.6h0.4v-0.4H19V48.6z"/>
<path fill="#FEFEFE" d="M19.9,51v-2h0.4v0.2c0.1-0.1,0.1-0.1,0.2-0.2c0.1,0,0.2-0.1,0.3-0.1c0.1,0,0.2,0,0.3,0c0.1,0,0.1,0.1,0.2,0.1
	c0.1,0.1,0.1,0.2,0.1,0.3c0,0.1,0,0.2,0,0.3V51H21v-1.2c0-0.2,0-0.3-0.1-0.3c-0.1-0.1-0.2-0.1-0.3-0.1c-0.1,0-0.2,0-0.3,0.1
	c-0.1,0.1-0.1,0.2-0.1,0.3V51H19.9z"/>
<path fill="#FEFEFE" d="M22.1,49.8h0.8c0-0.1,0-0.1,0-0.1c0,0,0-0.1,0-0.1c0-0.1-0.1-0.1-0.1-0.2c-0.1,0-0.1-0.1-0.2-0.1
	c-0.1,0-0.2,0-0.2,0.1c-0.1,0-0.1,0.1-0.1,0.2c0,0,0,0.1,0,0.1C22.1,49.7,22.1,49.7,22.1,49.8 M21.8,50c0-0.3,0.1-0.6,0.2-0.8
	c0.1-0.2,0.3-0.3,0.6-0.3c0.1,0,0.2,0,0.3,0.1c0.1,0,0.2,0.1,0.2,0.2c0.1,0.1,0.1,0.2,0.2,0.3c0,0.1,0.1,0.3,0.1,0.4v0.2h-1.2
	c0,0.2,0,0.3,0.1,0.4c0.1,0.1,0.2,0.2,0.3,0.2c0.1,0,0.2,0,0.2-0.1c0.1,0,0.1-0.1,0.2-0.2l0.2,0.2c0,0.1-0.1,0.1-0.1,0.1
	c0,0-0.1,0.1-0.2,0.1c-0.1,0-0.1,0-0.2,0.1c-0.1,0-0.1,0-0.2,0c-0.1,0-0.2,0-0.3-0.1c-0.1,0-0.2-0.1-0.3-0.2
	c-0.1-0.1-0.1-0.2-0.2-0.3C21.8,50.3,21.8,50.2,21.8,50"/>
<path fill="#FEFEFE" d="M23.5,50.7l0.2-0.3c0.1,0.1,0.2,0.1,0.3,0.2c0.1,0,0.2,0,0.3,0c0.1,0,0.2,0,0.3-0.1c0.1,0,0.1-0.1,0.1-0.2
	c0-0.1,0-0.1-0.1-0.2s-0.1-0.1-0.2-0.1l-0.3,0c-0.2,0-0.3-0.1-0.4-0.2c-0.1-0.1-0.1-0.2-0.1-0.4c0-0.1,0-0.2,0.1-0.3
	c0-0.1,0.1-0.1,0.1-0.2C23.9,49,24,49,24,49c0.1,0,0.2,0,0.3,0c0.1,0,0.3,0,0.4,0.1s0.2,0.1,0.3,0.2l-0.2,0.3
	c-0.1-0.1-0.1-0.1-0.2-0.1c-0.1,0-0.2,0-0.2,0c-0.1,0-0.2,0-0.2,0.1c-0.1,0-0.1,0.1-0.1,0.2c0,0.1,0,0.1,0.1,0.2
	c0,0,0.1,0.1,0.2,0.1l0.3,0c0.2,0,0.3,0.1,0.4,0.2c0.1,0.1,0.1,0.2,0.1,0.4c0,0.1,0,0.2-0.1,0.3c0,0.1-0.1,0.1-0.2,0.2
	c-0.1,0.1-0.1,0.1-0.2,0.1c-0.1,0-0.2,0-0.3,0c-0.1,0-0.3,0-0.4-0.1C23.8,50.9,23.6,50.8,23.5,50.7"/>
<path fill="#FEFEFE" d="M26.8,48.7c0,0.1,0,0.1,0.1,0.2c0,0.1,0.1,0.1,0.1,0.2c0,0,0,0,0.1-0.1c0,0,0,0,0,0c0,0,0.1-0.1,0.1-0.1
	c0,0,0.1-0.1,0.1-0.2c0-0.1,0-0.1-0.1-0.2c0-0.1-0.1-0.1-0.2-0.1c-0.1,0-0.1,0-0.2,0.1C26.8,48.6,26.8,48.7,26.8,48.7 M26.6,50.2
	c0,0.1,0,0.3,0.1,0.4c0.1,0.1,0.2,0.1,0.3,0.1c0.1,0,0.2,0,0.2,0c0.1,0,0.2-0.1,0.2-0.2l-0.6-0.8c0,0-0.1,0.1-0.1,0.1
	c0,0-0.1,0.1-0.1,0.1c0,0-0.1,0.1-0.1,0.1C26.6,50,26.6,50.1,26.6,50.2 M26.2,50.2c0-0.1,0-0.2,0-0.3c0-0.1,0.1-0.2,0.1-0.2
	c0-0.1,0.1-0.1,0.2-0.2c0.1-0.1,0.1-0.1,0.2-0.1c0,0-0.1-0.1-0.1-0.1c0,0-0.1-0.1-0.1-0.1c0-0.1,0-0.1-0.1-0.2c0-0.1,0-0.1,0-0.2
	c0-0.1,0-0.2,0-0.2c0-0.1,0.1-0.1,0.1-0.2c0.1-0.1,0.1-0.1,0.2-0.1c0.1,0,0.2,0,0.3,0c0.1,0,0.2,0,0.2,0c0.1,0,0.1,0.1,0.2,0.1
	c0.1,0.1,0.1,0.1,0.1,0.2c0,0.1,0,0.2,0,0.2c0,0.1,0,0.2-0.1,0.3c-0.1,0.1-0.1,0.2-0.2,0.2c0,0,0,0-0.1,0.1c0,0,0,0-0.1,0s0,0-0.1,0
	l0.5,0.7c0-0.1,0.1-0.2,0.1-0.2c0-0.1,0-0.2,0-0.3h0.4c0,0.2,0,0.4-0.1,0.5c0,0.1-0.1,0.3-0.2,0.4l0.4,0.6h-0.5l-0.2-0.3
	c0,0-0.1,0.1-0.1,0.1c0,0-0.1,0.1-0.1,0.1c-0.1,0-0.1,0.1-0.2,0.1c-0.1,0-0.2,0-0.3,0c-0.3,0-0.5-0.1-0.6-0.2
	C26.3,50.6,26.2,50.4,26.2,50.2"/>
<polygon fill="#FEFEFE" points="10.1,54.8 10.1,52 10.5,52 11.2,53.7 12,52 12.4,52 12.4,54.8 12,54.8 12,52.9 11.4,54.3 11.1,54.3
	10.5,52.9 10.5,54.8 "/>
<path fill="#FEFEFE" d="M13.1,54.2c0,0.1,0,0.2,0.1,0.2c0.1,0,0.1,0.1,0.3,0.1c0.1,0,0.1,0,0.2,0c0.1,0,0.1,0,0.2-0.1
	c0.1-0.1,0.1-0.2,0.1-0.3v-0.2h-0.4c-0.1,0-0.2,0-0.2,0.1C13.2,54,13.1,54.1,13.1,54.2 M12.8,54.2c0-0.2,0.1-0.3,0.2-0.4
	c0.1-0.1,0.3-0.2,0.5-0.2h0.5v-0.1c0-0.1,0-0.2-0.1-0.3c-0.1-0.1-0.2-0.1-0.3-0.1c-0.1,0-0.2,0-0.2,0c-0.1,0-0.1,0.1-0.2,0.2
	L12.8,53c0.1-0.1,0.2-0.2,0.3-0.2c0.1,0,0.2-0.1,0.4-0.1c0.5,0,0.8,0.2,0.8,0.7v1.4h-0.4v-0.2c-0.1,0.1-0.1,0.1-0.2,0.2
	c-0.1,0-0.2,0-0.3,0c-0.1,0-0.2,0-0.3,0c-0.1,0-0.1-0.1-0.2-0.1C12.8,54.5,12.8,54.4,12.8,54.2"/>
<path fill="#FEFEFE" d="M14.8,54.8v-2h0.4V53c0-0.1,0.1-0.1,0.2-0.2s0.2-0.1,0.3-0.1c0.1,0,0.2,0,0.2,0c0.1,0,0.1,0.1,0.2,0.1l-0.3,0.3
	c0,0-0.1-0.1-0.1-0.1c0,0-0.1,0-0.2,0c-0.1,0-0.2,0-0.3,0.1c-0.1,0.1-0.1,0.2-0.1,0.3v1.2H14.8z"/>
<path fill="#FEFEFE" d="M16.3,54.8h0.4v-2h-0.4V54.8z M16.3,52.4h0.4v-0.4h-0.4V52.4z"/>
<path fill="#FEFEFE" d="M17.4,54.2c0,0.1,0,0.2,0.1,0.2c0.1,0,0.1,0.1,0.3,0.1c0.1,0,0.1,0,0.2,0c0.1,0,0.1,0,0.2-0.1
	c0.1-0.1,0.1-0.2,0.1-0.3v-0.2h-0.4c-0.1,0-0.2,0-0.2,0.1C17.4,54,17.4,54.1,17.4,54.2 M17,54.2c0-0.2,0.1-0.3,0.2-0.4
	c0.1-0.1,0.3-0.2,0.5-0.2h0.5v-0.1c0-0.1,0-0.2-0.1-0.3c-0.1-0.1-0.2-0.1-0.3-0.1c-0.1,0-0.2,0-0.2,0c-0.1,0-0.1,0.1-0.2,0.2
	L17.1,53c0.1-0.1,0.2-0.2,0.3-0.2c0.1,0,0.2-0.1,0.4-0.1c0.5,0,0.8,0.2,0.8,0.7v1.4h-0.4v-0.2c-0.1,0.1-0.1,0.1-0.2,0.2
	c-0.1,0-0.2,0-0.3,0c-0.1,0-0.2,0-0.3,0c-0.1,0-0.1-0.1-0.2-0.1C17.1,54.5,17,54.4,17,54.2"/>
<path fill="#FEFEFE" d="M19.3,53.7c0,0.1,0,0.2,0,0.2c0,0.1,0,0.1,0,0.2c0,0.1,0.1,0.1,0.1,0.1c0,0,0.1,0.1,0.2,0.1
	c0.1,0,0.1,0,0.2-0.1c0,0,0.1-0.1,0.1-0.1c0-0.1,0-0.1,0.1-0.2c0-0.1,0-0.2,0-0.2c0-0.1,0-0.2,0-0.2c0-0.1,0-0.1-0.1-0.2
	c0-0.1-0.1-0.1-0.1-0.1c-0.1,0-0.1-0.1-0.2-0.1c-0.1,0-0.2,0-0.2,0.1s-0.1,0.1-0.1,0.1c0,0.1,0,0.1,0,0.2
	C19.3,53.6,19.3,53.7,19.3,53.7 M18.9,53.7c0-0.2,0-0.3,0-0.5c0-0.1,0.1-0.3,0.2-0.4c0.1-0.1,0.3-0.2,0.4-0.2c0.1,0,0.2,0,0.3,0
	c0.1,0,0.1,0.1,0.2,0.2v-0.2h0.4v2c0,0.1,0,0.2-0.1,0.3c0,0.1-0.1,0.2-0.2,0.3c-0.1,0.1-0.1,0.1-0.2,0.2c-0.1,0-0.2,0.1-0.3,0.1
	c-0.1,0-0.3,0-0.4-0.1c-0.1,0-0.2-0.1-0.3-0.2l0.2-0.3c0.1,0.1,0.1,0.1,0.2,0.1c0.1,0,0.1,0,0.2,0c0.1,0,0.1,0,0.2,0
	c0.1,0,0.1-0.1,0.1-0.1c0,0,0.1-0.1,0.1-0.2c0-0.1,0-0.1,0-0.2v-0.3c-0.1,0.1-0.1,0.1-0.2,0.2c-0.1,0-0.2,0-0.3,0
	c-0.1,0-0.2,0-0.2,0c-0.1,0-0.1-0.1-0.2-0.1c-0.1-0.1-0.1-0.2-0.2-0.4C18.9,54.1,18.9,53.9,18.9,53.7"/>
<path fill="#FEFEFE" d="M21.2,53.6H22c0-0.1,0-0.1,0-0.1c0,0,0-0.1,0-0.1c0-0.1-0.1-0.1-0.1-0.2c-0.1,0-0.1-0.1-0.2-0.1
	c-0.1,0-0.2,0-0.2,0.1c-0.1,0-0.1,0.1-0.1,0.2c0,0,0,0.1,0,0.1C21.2,53.5,21.2,53.6,21.2,53.6 M20.8,53.8c0-0.3,0.1-0.6,0.2-0.8
	c0.1-0.2,0.3-0.3,0.6-0.3c0.1,0,0.2,0,0.3,0.1c0.1,0,0.2,0.1,0.2,0.2c0.1,0.1,0.1,0.2,0.2,0.3c0,0.1,0.1,0.3,0.1,0.4v0.2h-1.2
	c0,0.2,0,0.3,0.1,0.4c0.1,0.1,0.2,0.2,0.3,0.2c0.1,0,0.2,0,0.2-0.1c0.1,0,0.1-0.1,0.2-0.2l0.2,0.2c0,0.1-0.1,0.1-0.1,0.1
	c0,0-0.1,0.1-0.2,0.1s-0.1,0-0.2,0.1c-0.1,0-0.1,0-0.2,0c-0.1,0-0.2,0-0.3-0.1c-0.1,0-0.2-0.1-0.3-0.2c-0.1-0.1-0.1-0.2-0.2-0.3
	C20.8,54.1,20.8,54,20.8,53.8"/>
<path fill="#FEFEFE" d="M22.6,54.5l0.2-0.3c0.1,0.1,0.2,0.1,0.3,0.2c0.1,0,0.2,0,0.3,0c0.1,0,0.2,0,0.3-0.1c0.1,0,0.1-0.1,0.1-0.2
	c0-0.1,0-0.1-0.1-0.2S23.6,54,23.5,54l-0.3,0c-0.2,0-0.3-0.1-0.4-0.2c-0.1-0.1-0.1-0.2-0.1-0.4c0-0.1,0-0.2,0.1-0.3
	c0-0.1,0.1-0.1,0.1-0.2c0.1-0.1,0.1-0.1,0.2-0.1c0.1,0,0.2,0,0.3,0c0.1,0,0.3,0,0.4,0.1S24,52.9,24,53l-0.2,0.3
	c-0.1-0.1-0.1-0.1-0.2-0.1c-0.1,0-0.2,0-0.2,0c-0.1,0-0.2,0-0.2,0.1c-0.1,0-0.1,0.1-0.1,0.2c0,0.1,0,0.1,0.1,0.2
	c0,0,0.1,0.1,0.2,0.1l0.3,0c0.2,0,0.3,0.1,0.4,0.2c0.1,0.1,0.1,0.2,0.1,0.4c0,0.1,0,0.2-0.1,0.3c0,0.1-0.1,0.1-0.2,0.2
	c-0.1,0.1-0.1,0.1-0.2,0.1c-0.1,0-0.2,0-0.3,0c-0.1,0-0.3,0-0.4-0.1C22.8,54.7,22.7,54.6,22.6,54.5"/>
<path fill="#FEFEFE" d="M25.1,53.1v-0.3h0.2v-0.3c0-0.1,0-0.1,0-0.2c0-0.1,0.1-0.1,0.1-0.2c0-0.1,0.1-0.1,0.2-0.1c0.1,0,0.1,0,0.2,0
	h0.2v0.3h-0.2c-0.1,0-0.1,0-0.2,0.1c0,0,0,0.1,0,0.2v0.3h0.4v0.3h-0.4v1.7h-0.4v-1.7H25.1z"/>
<path fill="#FEFEFE" d="M26.6,53.8c0,0.1,0,0.2,0,0.3c0,0.1,0,0.2,0.1,0.2c0.1,0.1,0.2,0.1,0.3,0.1c0.1,0,0.2,0,0.3-0.1
	c0.1-0.1,0.1-0.1,0.1-0.2c0-0.1,0-0.2,0-0.3c0-0.1,0-0.2,0-0.3c0-0.1-0.1-0.2-0.1-0.2c-0.1-0.1-0.2-0.1-0.3-0.1
	c-0.1,0-0.2,0-0.3,0.1c-0.1,0.1-0.1,0.1-0.1,0.2C26.6,53.6,26.6,53.7,26.6,53.8 M26.3,53.8c0-0.2,0-0.3,0-0.4c0-0.1,0.1-0.2,0.2-0.3
	c0.1-0.1,0.1-0.1,0.2-0.2c0.1,0,0.2-0.1,0.3-0.1c0.1,0,0.2,0,0.3,0.1c0.1,0,0.2,0.1,0.2,0.2c0.1,0.1,0.1,0.2,0.2,0.3
	c0,0.1,0,0.3,0,0.4c0,0.2,0,0.3,0,0.5c0,0.1-0.1,0.2-0.2,0.3c-0.1,0.1-0.1,0.1-0.2,0.2c-0.1,0-0.2,0.1-0.3,0.1c-0.1,0-0.2,0-0.3-0.1
	c-0.1,0-0.2-0.1-0.2-0.2c-0.1-0.1-0.1-0.2-0.2-0.3C26.3,54.1,26.3,54,26.3,53.8"/>
<path fill="#FEFEFE" d="M28.2,54.8v-2h0.4V53c0-0.1,0.1-0.1,0.2-0.2c0.1,0,0.2-0.1,0.3-0.1c0.1,0,0.2,0,0.2,0c0.1,0,0.1,0.1,0.2,0.1
	l-0.3,0.3c0,0-0.1-0.1-0.1-0.1c0,0-0.1,0-0.2,0c-0.1,0-0.2,0-0.3,0.1c-0.1,0.1-0.1,0.2-0.1,0.3v1.2H28.2z"/>
<path fill="#FEFEFE" d="M29.5,53.8c0-0.2,0-0.3,0.1-0.5c0-0.1,0.1-0.2,0.2-0.3c0.1-0.1,0.2-0.1,0.3-0.2s0.2-0.1,0.3-0.1
	c0.1,0,0.2,0,0.3,0.1c0.1,0,0.2,0.1,0.3,0.2l-0.3,0.3c-0.1-0.1-0.1-0.1-0.2-0.1c-0.1,0-0.1,0-0.2,0c-0.1,0-0.3,0.1-0.3,0.2
	c0,0.1-0.1,0.1-0.1,0.2c0,0.1,0,0.2,0,0.3c0,0.1,0,0.2,0,0.3c0,0.1,0,0.1,0.1,0.2c0.1,0.1,0.2,0.2,0.3,0.2c0.1,0,0.1,0,0.2,0
	c0.1,0,0.1-0.1,0.2-0.1l0.3,0.3c-0.1,0.1-0.2,0.2-0.3,0.2c-0.1,0-0.2,0.1-0.3,0.1c-0.1,0-0.2,0-0.3-0.1s-0.2-0.1-0.3-0.2
	c-0.1-0.1-0.1-0.2-0.2-0.3C29.5,54.1,29.5,54,29.5,53.8"/>
<path fill="#FEFEFE" d="M31.7,52.4l0.3-0.6h0.4L32,52.4H31.7z M31.5,53.6h0.8c0-0.1,0-0.1,0-0.1c0,0,0-0.1,0-0.1c0-0.1-0.1-0.1-0.1-0.2
	c-0.1,0-0.1-0.1-0.2-0.1c-0.1,0-0.2,0-0.2,0.1c-0.1,0-0.1,0.1-0.1,0.2c0,0,0,0.1,0,0.1C31.5,53.5,31.5,53.6,31.5,53.6L31.5,53.6z
	 M31.1,53.8c0-0.3,0.1-0.6,0.2-0.8c0.1-0.2,0.3-0.3,0.6-0.3c0.1,0,0.2,0,0.3,0.1c0.1,0,0.2,0.1,0.2,0.2c0.1,0.1,0.1,0.2,0.2,0.3
	c0,0.1,0.1,0.3,0.1,0.4v0.2h-1.2c0,0.2,0,0.3,0.1,0.4c0.1,0.1,0.2,0.2,0.3,0.2c0.1,0,0.2,0,0.2-0.1c0.1,0,0.1-0.1,0.2-0.2l0.2,0.2
	c0,0.1-0.1,0.1-0.1,0.1c0,0-0.1,0.1-0.2,0.1c-0.1,0-0.1,0-0.2,0.1c-0.1,0-0.1,0-0.2,0c-0.1,0-0.2,0-0.3-0.1c-0.1,0-0.2-0.1-0.3-0.2
	c-0.1-0.1-0.1-0.2-0.2-0.3C31.1,54.1,31.1,54,31.1,53.8L31.1,53.8z"/>
<path fill="#FEFEFE" d="M32.9,54.5l0.2-0.3c0.1,0.1,0.2,0.1,0.2,0.2c0.1,0,0.2,0,0.3,0c0.1,0,0.2,0,0.3-0.1c0.1,0,0.1-0.1,0.1-0.2
	c0-0.1,0-0.1-0.1-0.2S33.9,54,33.8,54l-0.3,0c-0.2,0-0.3-0.1-0.4-0.2c-0.1-0.1-0.1-0.2-0.1-0.4c0-0.1,0-0.2,0.1-0.3
	c0-0.1,0.1-0.1,0.1-0.2c0.1-0.1,0.1-0.1,0.2-0.1c0.1,0,0.2,0,0.3,0c0.1,0,0.3,0,0.4,0.1c0.1,0,0.2,0.1,0.3,0.2l-0.2,0.3
	c-0.1-0.1-0.1-0.1-0.2-0.1c-0.1,0-0.2,0-0.2,0c-0.1,0-0.2,0-0.2,0.1c-0.1,0-0.1,0.1-0.1,0.2c0,0.1,0,0.1,0.1,0.2
	c0,0,0.1,0.1,0.2,0.1l0.3,0c0.2,0,0.3,0.1,0.4,0.2c0.1,0.1,0.1,0.2,0.1,0.4c0,0.1,0,0.2-0.1,0.3c0,0.1-0.1,0.1-0.2,0.2
	c-0.1,0.1-0.1,0.1-0.2,0.1c-0.1,0-0.2,0-0.3,0c-0.1,0-0.3,0-0.4-0.1C33.1,54.7,33,54.6,32.9,54.5"/>
</svg>
