<svg xmlns="http://www.w3.org/2000/svg" x="0px" y="0px" viewBox="0 0 180 31">
<path fill="#FFFFFF" d="M19.9,9.3c-0.4,0.2-1,0.4-1,0.3c-0.1-0.2-0.1-0.3,0-0.4c0.1-0.3-0.3-0.7-0.1-0.6l0.2-6c0-0.3-0.3-0.4-0.1-0.6
	c0-0.2-0.2-0.2-0.2-0.4C18.6,1.1,18,1.1,18.1,1c-0.4,0.1-1.5,2-1.5,2c0.1-0.1-2.1,3.1-2.1,3.1S14.1,7.1,14.1,7
	c0-0.1-0.4,0.4-0.5,0.4c-0.2,0.7-3.1-2.6-3-2.6C9.9,4,9.1,3.8,8.2,2.8C7.1,2.5,7.1,1.8,7,3c0,0.3,0.2,1.4,0.2,1.4
	C7.1,5,7.9,7.7,8.2,8c0.4,0.5,1.2,2.7,1.2,2.6c-0.2,0.3-1,0.3-1.2,0.2H3.6l-2,0.3C1.3,11.2,1.4,11,1,11.4c0.1,0,1.7,1.2,1.4,1.1
	c0.5,0.4,3.8,2.2,3.8,2.2c-0.1-0.1,0.4,0.2,0.2,0.2c0.2,0.2,0.7,0.4,1.2,0.8l-5.4,5.8c-0.5,0.2-0.8,1.2-0.5,1.2
	C1.9,23,2.4,22.8,3,22.8l5.6-1.2l2.1-0.6c0.2,0,0.2,0.2,0.2,0.2s0,0.1-0.1,0.2c-0.2,0.9-0.4,6.9-0.4,7c0,0.1,0,0.2,0,0.3
	c0,0.3,0,0.6,0.2,0.7c-0.1-0.1,0.2,0.3,0.2,0.3c1.1,0.4,3.7-5.7,3.7-6c0,0.1,0.4-0.7,0.5-1.1c0.1,0,0.1-0.4,0.2-0.3
	c-0.2-0.1,0.1-0.3,0.1-0.4c0.1-0.2,0-0.4,0.1-0.4c0.1-0.4,0.4-0.2,0.4-0.2c0.1,0.1,0.3,0,0.3,0.3c-0.1,0.2,0.4,0.3,0.3,0.4
	c0-0.1,2.1,2.5,2.8,3c2,2,2.9,2.8,3.3,2.8c0.1,0,0.1-0.1,0.1-0.4l-0.1-0.4l-0.6-2.6l-0.3-0.9c-0.3-1-1.3-3.3-1.4-3.7
	c-0.4-0.7,0-0.8,0.5-0.9l4.9,0.2c0.4,0,0.8,0.1,1.2,0c0.2,0,1.3-0.1,1.3-0.1c0.4-0.1,0.3-0.3,0.4-0.6c-0.1,0.3,0.1-0.3-0.2-0.4
	l-2.4-1.5c-0.9-0.5-3.9-2.4-4.4-2.6c1-1.2,2-2.3,3-3.3c0.2-0.2,1.2-1.3,1.9-2c0.3-0.3,0.4-0.4,0.4-0.4C27,8,27.1,7.9,26.9,7.7
	c0-0.1-1.2,0-1.4,0C23.6,8,21.5,8.6,19.9,9.3L19.9,9.3z"/>
<path d="M35.7,9.5h4.9v14.9h-4.9V9.5z M36.4,7.9h-3.7L36,3.6h4.4l3.2,4.3h-3.7l-1.7-2.3L36.4,7.9z"/>
<rect x="42.9" y="3.8" width="4.9" height="20.4"/>
<path d="M53.9,15.3h6.1c-0.1-1.7-1.2-3-2.8-3C55.3,12.3,54.2,13.6,53.9,15.3L53.9,15.3z M53.9,18.1c0.1,2,1.2,3.4,3.3,3.4
	c1.2,0,2.3-0.5,2.8-1.6h4.5c-0.9,3.5-4.1,4.9-7.4,4.9c-4.8,0-8.1-2.9-8.1-7.9c0-4.5,3.7-7.8,8-7.8c5.3,0,8,4,7.7,9L53.9,18.1
	L53.9,18.1z"/>
<path d="M71.2,22.9c2.6,0,3.6-2.2,3.6-4.4c0-2.3-1.1-4.5-3.7-4.5s-3.5,2.2-3.5,4.5C67.6,20.8,68.7,22.9,71.2,22.9 M76.6,24.3h-1.9
	v-1.6h-0.1c-0.6,1.2-2.1,1.9-3.7,1.9c-3.6,0-5.3-2.8-5.3-6.1c0-3.3,1.8-6.1,5.3-6.1c1.2,0,2.9,0.4,3.7,1.8h0.1v-6h1.9V24.3z"/>
<path d="M79.8,17.4h6.7c-0.1-1.8-1.4-3.3-3.4-3.3S79.9,15.6,79.8,17.4z M88.3,20.6c-0.5,2.6-2.4,4-5,4c-3.7,0-5.5-2.6-5.6-6.1
	c0-3.5,2.3-6.1,5.5-6.1c4.1,0,5.4,3.8,5.3,6.7h-8.7c-0.1,2,1.1,3.8,3.7,3.8c1.6,0,2.7-0.8,3-2.3L88.3,20.6 M88.3,20.6L88.3,20.6
	L88.3,20.6z"/>
<polygon points="89.8,24.3 89.8,3.8 104.8,3.8 104.8,8.1 95.1,8.1 95.1,12.3 103.5,12.3 103.5,16.4 95.1,16.4 95.1,24.3 "/>
<path d="M105.8,9.5h4.7V12h0.1c0.7-1.9,2.4-2.8,4.5-2.8c0.4,0,0.8,0,1.2,0.1v4.5c-0.6-0.2-1.2-0.3-1.9-0.3c-2.4,0-3.7,1.7-3.7,3.6
	v7.4h-4.9 M105.8,24.3V9.5V24.3z"/>
<path d="M122.4,21.7c2.3,0,3.1-1.3,2.9-4.4c-0.7,0.4-2,0.5-3,0.8c-1.1,0.3-2,0.7-2,1.9C120.4,21.2,121.3,21.7,122.4,21.7 M116.1,14
	c0.1-2,1-3.2,2.3-4c1.3-0.7,3-1.1,4.7-1.1c3.5,0,6.9,0.8,6.9,5v6.5c0,1.2,0,2.7,0.5,3.8h-4.9c-0.2-0.4-0.3-0.9-0.3-1.4
	c-1.2,1.3-3.1,1.8-4.9,1.8c-2.8,0-5.1-1.4-5.1-4.5c0-4.8,5.3-4.5,8.6-5.2c0.8-0.2,1.2-0.4,1.2-1.3c0-1.2-1.3-1.5-2.3-1.5
	c-1.3,0-2.2,0.6-2.4,1.9L116.1,14L116.1,14z"/>
<path d="M131.9,9.5h4.7v2h0.1c0.9-1.5,2.8-2.5,4.6-2.5c5,0,5.3,3.6,5.3,5.7v9.5h-4.9V17c0-2,0.3-4.1-2.4-4.1c-1.8,0-2.7,1.5-2.7,3.2
	v8.1h-4.9 M131.8,24.2V9.5V24.2z"/>
<path d="M158.1,14.9c0-1.2-1.2-2.1-2.4-2.1c-2.7,0-3.1,2.3-3.1,4.4c0,1.9,0.8,3.9,2.8,3.9c1.7,0,2.6-1,2.8-2.6h4.7
	c-0.4,4-3.6,6.2-7.5,6.2c-4.5,0-7.7-3-7.7-7.6c0-4.7,3-8.1,7.7-8.1c3.7,0,6.9,2,7.3,5.9 M162.8,14.9h-4.7H162.8z"/>
<path d="M168.1,15.3h6.1c-0.1-1.7-1.2-3-2.8-3C169.5,12.3,168.4,13.6,168.1,15.3z M168.1,18.1c0.1,2,1.2,3.4,3.3,3.4
	c1.2,0,2.3-0.5,2.8-1.6h4.5c-0.9,3.5-4.1,4.9-7.4,4.9c-4.8,0-8.1-2.9-8.1-7.9c0-4.5,3.7-7.8,8-7.8c5.3,0,8,4,7.7,9L168.1,18.1
	L168.1,18.1z"/>
</svg>
