<svg xmlns="http://www.w3.org/2000/svg" x="0px" y="0px"
	 viewBox="0 0 202 34">
<path d="M22.3,10.3c-0.4,0.2-1.1,0.4-1.1,0.3c-0.1-0.2-0.1-0.3,0-0.5c0.1-0.3-0.3-0.8-0.1-0.7l0.2-6.7C21.3,2.4,21,2.2,21.2,2
	c0-0.2-0.2-0.2-0.2-0.4c-0.1-0.5-0.8-0.5-0.7-0.6c-0.4,0.1-1.7,2.2-1.7,2.3c0.1-0.1-2.4,3.5-2.4,3.5c0,0-0.4,1-0.4,0.9
	c0-0.1-0.5,0.5-0.6,0.5c-0.2,0.8-3.5-2.9-3.4-2.9c-0.7-0.9-1.6-1.2-2.6-2.3C8,2.7,7.9,1.9,7.8,3.3C7.8,3.6,8,4.9,8,4.9
	c-0.1,0.6,0.9,3.6,1.2,4c0.4,0.6,1.4,3,1.3,2.9c-0.2,0.3-1.1,0.3-1.4,0.2l-5.1,0l-2.2,0.3c-0.4,0.1-0.3-0.1-0.7,0.4
	c0.1,0,1.9,1.4,1.6,1.2c0.6,0.5,4.3,2.5,4.3,2.5c-0.1-0.1,0.4,0.2,0.2,0.2c0.2,0.2,0.8,0.5,1.3,0.9l-6.1,6.5
	c-0.6,0.2-0.9,1.4-0.6,1.4c0.3,0.3,0.9,0.1,1.5,0.1l6.3-1.4l2.4-0.7c0.2,0,0.2,0.2,0.2,0.2c0,0,0,0.1-0.1,0.2
	c-0.2,1-0.4,7.8-0.4,7.9c0,0.1,0,0.2,0,0.3c0,0.3,0,0.7,0.2,0.8c-0.1-0.1,0.2,0.3,0.2,0.3c1.2,0.5,4.1-6.4,4.2-6.7
	c0,0.1,0.5-0.8,0.6-1.2c0.1,0,0.1-0.4,0.2-0.3c-0.2-0.1,0.1-0.3,0.1-0.4c0.1-0.2,0-0.4,0.1-0.4c0.1-0.4,0.4-0.2,0.4-0.2
	c0.1,0.1,0.3,0,0.3,0.3c-0.1,0.2,0.4,0.3,0.3,0.4c0-0.1,2.4,2.8,3.1,3.4c2.3,2.2,3.3,3.2,3.7,3.2c0.1,0,0.1-0.1,0.1-0.5l-0.1-0.4
	l-0.7-2.9l-0.3-1c-0.3-1.1-1.5-3.7-1.6-4.2c-0.4-0.8,0-0.9,0.6-1l5.5,0.2c0.5,0,0.9,0.1,1.3,0c0.2,0,1.5-0.1,1.5-0.1
	c0.4-0.1,0.3-0.3,0.5-0.7c-0.1,0.3,0.1-0.3-0.2-0.5l-2.7-1.7c-1-0.6-4.4-2.7-4.9-2.9c1.1-1.3,2.2-2.6,3.4-3.7
	c0.2-0.2,1.4-1.5,2.1-2.2c0.3-0.3,0.5-0.5,0.5-0.5c0.2-0.2,0.3-0.4,0.1-0.6c0-0.1-1.4,0-1.6,0C26.5,8.9,24.1,9.5,22.3,10.3
	L22.3,10.3z"/>
<path d="M40.1,10.5h5.5v16.7h-5.5V10.5z M40.9,8.7h-4.1l3.6-4.8h4.9l3.6,4.8h-4.1l-1.9-2.6L40.9,8.7z"/>
<rect x="48.2" y="4.2" width="5.5" height="22.9"/>
<path d="M60.5,17.1h6.8c-0.1-1.9-1.4-3.4-3.2-3.4C62.1,13.7,60.8,15.1,60.5,17.1L60.5,17.1z M60.5,20.2c0.1,2.3,1.4,3.8,3.7,3.8
	c1.3,0,2.6-0.6,3.1-1.8h5.1c-1,3.9-4.6,5.5-8.3,5.5c-5.4,0-9.1-3.3-9.1-8.9c0-5.1,4.1-8.8,9-8.8c6,0,9,4.5,8.7,10.1L60.5,20.2
	L60.5,20.2z"/>
<path d="M79.9,25.6c2.9,0,4-2.5,4-4.9c0-2.6-1.2-5-4.1-5c-2.9,0-3.9,2.5-3.9,5.1C75.9,23.2,77.1,25.6,79.9,25.6 M86,27.2h-2.1v-1.8
	h-0.1c-0.7,1.4-2.4,2.1-4.2,2.1c-4,0-6-3.2-6-6.9c0-3.7,2-6.8,6-6.8c1.3,0,3.3,0.5,4.2,2h0.1V9.1H86V27.2z"/>
<path d="M89.6,19.4h7.5c-0.1-2-1.6-3.7-3.8-3.7C91.1,15.7,89.7,17.4,89.6,19.4z M99.2,23c-0.6,2.9-2.7,4.5-5.6,4.5
	c-4.2,0-6.2-2.9-6.3-6.9c0-3.9,2.6-6.8,6.2-6.8c4.6,0,6.1,4.3,5.9,7.5h-9.8c-0.1,2.3,1.2,4.3,4.1,4.3c1.8,0,3-0.9,3.4-2.6H99.2
	 M99.2,23L99.2,23L99.2,23z"/>
<polygon points="100.8,27.2 100.8,4.2 117.7,4.2 117.7,9 106.8,9 106.8,13.7 116.2,13.7 116.2,18.3 106.8,18.3 106.8,27.2 "/>
<path d="M118.8,10.5h5.3v2.9h0.1c0.8-2.1,2.7-3.2,5-3.2c0.4,0,0.9,0,1.3,0.1v5c-0.7-0.2-1.3-0.3-2.1-0.3c-2.7,0-4.1,1.9-4.1,4v8.3
	h-5.5 M118.8,27.2V10.5V27.2z"/>
<path d="M137.5,24.3c2.6,0,3.5-1.5,3.3-4.9c-0.8,0.5-2.2,0.6-3.4,0.9c-1.2,0.3-2.3,0.8-2.3,2.1C135.2,23.7,136.2,24.3,137.5,24.3
	 M130.4,15.6c0.1-2.2,1.1-3.6,2.6-4.5c1.5-0.8,3.4-1.2,5.3-1.2c3.9,0,7.8,0.9,7.8,5.6v7.3c0,1.4,0,3,0.6,4.3h-5.5
	c-0.2-0.5-0.3-1-0.3-1.6c-1.4,1.5-3.5,2-5.5,2c-3.2,0-5.7-1.6-5.7-5c0-5.4,5.9-5,9.7-5.8c0.9-0.2,1.4-0.5,1.4-1.5
	c0-1.3-1.5-1.7-2.6-1.7c-1.5,0-2.5,0.7-2.7,2.1L130.4,15.6L130.4,15.6z"/>
<path d="M148.1,10.5h5.3v2.3h0.1c1-1.7,3.2-2.8,5.2-2.8c5.6,0,6,4,6,6.4v10.7h-5.5v-8.1c0-2.3,0.3-4.6-2.7-4.6c-2,0-3,1.7-3,3.6v9.1
	H148 M148,27.1V10.5V27.1z"/>
<path d="M177.5,16.6c0-1.4-1.3-2.4-2.7-2.4c-3,0-3.5,2.6-3.5,4.9c0,2.1,0.9,4.4,3.2,4.4c1.9,0,2.9-1.1,3.1-2.9h5.3
	c-0.5,4.5-4,7-8.4,7c-5,0-8.7-3.4-8.7-8.5c0-5.3,3.4-9.1,8.7-9.1c4.1,0,7.8,2.2,8.2,6.6 M182.8,16.6h-5.3H182.8z"/>
<path d="M188.8,17.1h6.8c-0.1-1.9-1.4-3.4-3.2-3.4C190.4,13.7,189.1,15.1,188.8,17.1z M188.8,20.2c0.1,2.3,1.4,3.8,3.7,3.8
	c1.3,0,2.6-0.6,3.1-1.8h5.1c-1,3.9-4.6,5.5-8.3,5.5c-5.4,0-9.1-3.3-9.1-8.9c0-5.1,4.1-8.8,9-8.8c6,0,9,4.5,8.7,10.1L188.8,20.2
	L188.8,20.2z"/>
</svg>
