<svg xmlns="http://www.w3.org/2000/svg" x="0px" y="0px"
	 viewBox="0 0 80 37">
<path d="M40.6,23.4c0,0,1.6-0.1,2.5,0.8c0.5,0.4,0.7,1,0.7,1.7c0,0.8-0.5,1.6-1.3,2.3c-0.3,0.2-0.7,0.6-1.3,0.9
	c0.3,0.1,0.7,0.2,1,0.2c1-1,2.2-1.9,3.7-2.8c3.2-1.9,6.4-3.1,6.4-3.1l0.3-0.1l0,0.3c0,0-0.2,1.1-1,2.4c-0.8,1.2-2.3,2.7-5.2,3.4
	c-1.6,0.4-3,0.5-4.1,0.4c-0.2,0.2-0.4,0.4-0.5,0.6c-0.4,0.4-0.7,0.8-0.9,1.2c0.6,1,0.8,2,0.8,3.1c0,0,0,1.1-0.4,1.5
	c-0.2,0.2-0.4,0.3-0.6,0.3c-0.2,0-0.4-0.1-0.6-0.3c-0.4-0.4-0.4-1.5-0.4-1.5c0-1,0.2-2,0.8-3.1c-0.3-0.4-0.6-0.8-0.9-1.2
	c-0.2-0.2-0.4-0.4-0.5-0.6c-1.1,0.1-2.5,0-4.1-0.4c-2.9-0.7-4.4-2.2-5.2-3.4c-0.8-1.3-1-2.3-1-2.4l0-0.3l0.3,0.1
	c0,0,3.2,1.2,6.4,3.1c1.5,0.9,2.8,1.9,3.7,2.8c0.3,0,0.7-0.1,1-0.2c-0.6-0.3-1.1-0.7-1.3-0.9c-0.8-0.6-1.3-1.5-1.3-2.3
	c0-0.7,0.2-1.3,0.7-1.7C39,23.3,40.6,23.4,40.6,23.4z M34.9,28.9c1.3,0.3,2.5,0.4,3.6,0.4c-0.9-0.9-2.1-1.7-3.4-2.5
	c-2.6-1.6-5.1-2.6-6-3c0.1,0.4,0.3,1.1,0.9,1.9C30.7,26.8,32.2,28.3,34.9,28.9z M42.7,29.3c1.1,0.1,2.4-0.1,3.6-0.4
	c2.8-0.7,4.2-2.1,5-3.2c0.5-0.8,0.8-1.5,0.9-1.9c-0.9,0.3-3.5,1.4-6,3C44.7,27.6,43.6,28.5,42.7,29.3z M40.6,23.8
	c0,0-1.5-0.1-2.3,0.7c-0.4,0.4-0.5,0.8-0.5,1.4c0,0.6,0.4,1.4,1.1,2c0.5,0.4,1,0.7,1.7,1c0.6-0.3,1.2-0.6,1.7-1
	c0.7-0.6,1.1-1.4,1.1-2c0-0.6-0.2-1.1-0.5-1.4C42.1,23.7,40.6,23.8,40.6,23.8z M40.6,36c0.8,0,0.8-1.4,0.8-1.5
	c0-0.9-0.2-1.9-0.8-2.8c-0.5,0.9-0.8,1.9-0.8,2.8C39.8,34.6,39.8,36,40.6,36z M40.6,29.3c-0.4,0.1-0.8,0.2-1.2,0.3
	c0.1,0.1,0.2,0.2,0.3,0.4c0.3,0.4,0.6,0.7,0.8,1.1c0.2-0.4,0.5-0.7,0.8-1.1c0.1-0.1,0.2-0.2,0.3-0.4C41.4,29.6,41,29.4,40.6,29.3z"
	/>
<path d="M39.1,25.7c0,0.3,0.1,0,0.5,0c0.4,0,0.5,0.2,0.5,0c0-0.3-0.2-0.5-0.5-0.5C39.3,25.2,39.1,25.4,39.1,25.7"/>
<path d="M42.1,25.7c0,0.3-0.1,0-0.5,0c-0.4,0-0.5,0.2-0.5,0c0-0.3,0.2-0.5,0.5-0.5C41.9,25.2,42.1,25.4,42.1,25.7"/>
<path d="M40.6,24.7c0,0,0.3-0.4,1-0.4c0.8,0,1.3,0.7,1.3,1.4c0,0.9-0.9,2.1-2.3,2.5c-1.4-0.4-2.3-1.6-2.3-2.5
	c0-0.7,0.4-1.4,1.3-1.4C40.4,24.3,40.6,24.7,40.6,24.7 M39.7,24.7c-0.7,0-1,0.5-1,1.1c0,0.8,0.7,1.8,2,2.2c1.2-0.4,2-1.5,2-2.2
	c0-0.6-0.3-1.1-1-1.1c-0.6,0-0.9,0.4-0.9,0.4C40.6,25,40.3,24.7,39.7,24.7"/>
<path d="M40.6,26L40.6,26c0.1,0,0.3,0.1,0.3,0.3c0,0.2-0.2,0.6-0.3,0.6c-0.1,0-0.3-0.4-0.3-0.6
	C40.4,26.1,40.5,26,40.6,26"/>
<polygon points="1,12.4 4.1,12.4 4.1,12.9 1.6,12.9 1.6,14.6 3.6,14.6 3.6,15.1 1.6,15.1 1.6,17.6 1,17.6 "/>
<path d="M11.8,14.9c0-1.3-0.5-2.1-1.5-2.1c-0.9,0-1.4,0.8-1.4,2.2c0,1.3,0.5,2.1,1.5,2.1
	C11.3,17.1,11.8,16.3,11.8,14.9 M8.3,15c0-1.7,0.8-2.7,2.1-2.7c1.3,0,2.1,1,2.1,2.6c0,1.7-0.8,2.7-2.1,2.7C9.1,17.6,8.3,16.7,8.3,15
	"/>
<path d="M17.5,12.4h0.6v3.3c0,1,0.5,1.4,1.2,1.4c0.7,0,1.2-0.4,1.2-1.4v-3.3h0.6v3.3c0,1.4-0.7,2-1.8,2
	c-1.1,0-1.8-0.6-1.8-2V12.4z"/>
<polygon points="26.5,12.4 27,12.4 29.4,16.2 29.6,16.4 29.6,12.4 30.2,12.4 30.2,17.6 29.7,17.6 27.3,13.8 27.1,13.5
	27.1,17.6 26.5,17.6 "/>
<path d="M37.1,17.1c1.1,0,1.7-0.8,1.7-2.1c0-1.4-0.6-2.1-1.8-2.1h-0.8v4.2H37.1z M35.7,12.4H37c1.6,0,2.4,0.9,2.4,2.6
	c0,1.6-0.8,2.6-2.4,2.6h-1.3V12.4z"/>
<path d="M46.9,15.7l-0.9-2.7l-0.9,2.7H46.9z M43.9,17.5l1.8-5.1h0.6l1.8,5.1v0.1h-0.6L47,16.2h-2.1l-0.5,1.4L43.9,17.5
	L43.9,17.5z"/>
<polygon points="53.5,12.9 51.9,12.9 51.9,12.4 55.7,12.4 55.7,12.9 54.1,12.9 54.1,17.6 53.5,17.6 "/>
<polygon points="60.5,17.6 61.1,17.6 61.1,12.4 60.5,12.4 "/>
<path d="M69.8,14.9c0-1.3-0.5-2.1-1.5-2.1c-0.9,0-1.4,0.8-1.4,2.2c0,1.3,0.5,2.1,1.5,2.1
	C69.3,17.1,69.8,16.3,69.8,14.9 M66.3,15c0-1.7,0.8-2.7,2.1-2.7c1.3,0,2.1,1,2.1,2.6c0,1.7-0.8,2.7-2.1,2.7
	C67.1,17.6,66.3,16.7,66.3,15"/>
<polygon points="75.4,12.4 75.9,12.4 78.3,16.2 78.4,16.4 78.4,12.4 79,12.4 79,17.6 78.5,17.6 76.1,13.8 76,13.5
	76,17.6 75.4,17.6 "/>
<path d="M75,9.4c-3.8,0-5.5-2-5.5-4.2c0-2.3,1.8-4.2,5.4-4.2c1.3,0,2.6,0.3,3.7,0.7v0.9c-1.1-0.5-2.4-0.8-3.8-0.8
	c-3,0-4.4,1.5-4.4,3.4c0,1.9,1.5,3.4,4.6,3.4c1.2,0,2.4-0.3,3.1-0.6V6h-3.3l0.1-0.8H79v3.3C78,9,76.6,9.4,75,9.4L75,9.4z M62.1,9.2
	l-7.3-6.7h0v6.7h-0.9V1.2h0.8L62,7.9h0V1.2h0.9v7.9H62.1z M45.4,9.2h0.9V1.2h-0.9V9.2z M34.5,2h-3.1v3.4h3.1c1.3,0,2.1-0.6,2.1-1.7
	C36.6,2.6,35.7,2,34.5,2L34.5,2z M38.6,9.2c-0.8,0-1.3-0.3-1.9-1.1l-0.5-0.8c-0.5-0.7-1-1-2.1-1h-2.7v2.9h-0.9V1.2h4
	c2,0,3.1,1,3.1,2.5c0,1.2-0.8,1.9-1.8,2.2v0c0.5,0.2,0.8,0.5,1.1,1l0.5,0.6c0.4,0.6,0.8,0.8,1.2,0.8h0.3l-0.1,0.8H38.6z M15.9,9.2
	V1.2h6.9L22.9,2h-6.1v2.7h5.8v0.9h-5.8v2.6h6.5l-0.2,0.9H15.9z M9.2,9.2C8.4,9.2,7.9,8.9,7.3,8l-1-1.4c-0.5-0.7-1-1-2.1-1H1.9v3.6H1
	V1.2h0.9v3.6h1.6c1.1,0,1.6-0.4,2.2-1.2l1.8-2.4h1.1L6.6,3.8C6.1,4.4,5.8,4.7,5.3,5v0C6.1,5.2,6.5,5.6,7,6.2L8,7.5
	c0.4,0.6,0.8,0.8,1.2,0.8h0.3L9.4,9.2H9.2z"/>
</svg>
