<svg xmlns="http://www.w3.org/2000/svg" x="0px" y="0px"
	 viewBox="0 0 76 24">
<path d="M73.6,4.9c0-2.3-2.6-3.5-5.8-3.5c-3.9,0-7.7,2-7.7,5.6c0,6.1,12.3,5.5,12.3,11c0,2.8-2.6,4.8-5.9,4.8c-0.9,0-2-0.1-3.1-0.6
	c0.3-0.6,0.6-1.5,0.6-2.1c0-1.4-0.8-2.5-2.2-2.5c-0.8,0-1.6,0.6-1.6,1.7c0,2.3,2.8,3.8,6.3,3.8c4.2,0,8.5-1.9,8.5-6.4
	c0-6.9-12.1-6.4-12.1-10.9c0-2.7,2.8-4.1,4.9-4.1c1.4,0,1.9,0.2,2.7,0.4C70.2,2.9,70,3.6,70,4.2c0,1.3,0.7,2.4,2.1,2.4
	C72.9,6.6,73.6,6,73.6,4.9L73.6,4.9z M52.7,11.9c3.1-0.3,6.1-1.9,6.1-4.9c0-4-3.6-5.4-8-5.4h-9.6v0.1c1.5,0.6,2.6,0.6,2.6,3.8V19
	c0,3.4-1.1,3.2-2.6,3.8v0.1h10.3c4.9,0,8.1-1.5,8.1-5.6C59.6,13.7,55.8,12,52.7,11.9L52.7,11.9z M50.5,11.8H47V2.2h3.5
	c3.1,0,5.3,1.8,5.3,4.9C55.8,10.1,53.6,11.8,50.5,11.8L50.5,11.8z M56.5,17.3c0,3.3-2,5.2-5.5,5.2h-4V12.4h4
	C54.5,12.4,56.5,14,56.5,17.3L56.5,17.3z M42,12.4C42,5.6,36.7,1,30.6,1c-6,0-11.3,4.6-11.3,11.4s5.3,11,11.3,11S42,19.2,42,12.4
	L42,12.4z M38.1,12.4c0,6.2-2.1,10.6-7.5,10.6c-6.1,0.1-7.5-4.4-7.5-10.6c0-6.2,2.1-11,7.5-11C36.2,1.4,38.1,6.2,38.1,12.4
	L38.1,12.4z M17.1,22.9l1.7-7h-0.3c-1.6,3.2-4,6.4-7.4,6.4H6.6V5.5c0-2,0.6-3.1,2-3.7V1.6H1v0.1c1.5,0.6,2.4,1.8,2.4,3.8V19
	c0,2-0.8,3.1-2.3,3.7v0.1H17.1z M17.3,4.3c0-1.6-0.8-2.6-2.1-2.6c-1.1,0-2,0.9-2,2.1c0,0.8,0.4,1.4,0.9,1.7c0.9,0.6,1.3,1.4,1.3,2.2
	c0,0.8-1.2,2-1.5,2.3c-0.4,0.3-0.9,0.6-1.4,0.8h0.7C15.3,10.3,17.3,6.3,17.3,4.3L17.3,4.3z"/>
</svg>
