<svg xmlns="http://www.w3.org/2000/svg" x="0px" y="0px" viewBox="0 0 68 16">
<path d="M24.5,14.4c0,0,0,0.1,0,0.1c0,0-0.1,0.1-0.1,0.1h-1c0,0-0.1,0-0.1-0.1c0,0-0.1-0.1-0.1-0.1v-2.2c0-0.1,0-0.1,0.1-0.1
	c0,0,0.1,0,0.1,0c0,0,0.1,0,0.1,0c0,0,0.1,0.1,0.1,0.1v2h0.8c0.1,0,0.1,0,0.1,0.1C24.5,14.3,24.5,14.4,24.5,14.4z"/>
<path d="M25.1,12.5c0,0.1,0,0.1-0.1,0.2c0,0-0.1,0.1-0.1,0.1c0,0-0.1,0-0.1,0c0,0-0.1,0-0.1,0c0,0-0.1-0.1-0.1-0.1c0,0,0-0.1,0-0.1
	c0,0,0,0,0-0.1c0,0,0,0,0-0.1c0,0,0,0,0-0.1c0,0,0-0.1,0-0.1v-0.1c0-0.1,0-0.1,0.1-0.1c0,0,0.1,0,0.1,0c0,0,0.1,0,0.1,0
	c0,0,0.1,0.1,0.1,0.1v0.1C25.1,12.4,25.1,12.5,25.1,12.5z"/>
<path d="M26.6,14.5c0,0-0.1,0-0.1,0c0,0-0.1,0-0.1,0c0,0-0.1-0.1-0.1-0.1v-1c0-0.1,0-0.1-0.1-0.2c-0.1,0-0.1-0.1-0.2-0.1h0
	c-0.1,0-0.1,0-0.2,0.1c0,0.1-0.1,0.1-0.1,0.2v1c0,0.1,0,0.1-0.1,0.1c0,0-0.1,0-0.1,0s-0.1,0-0.1,0c0,0-0.1-0.1-0.1-0.1v-2.2
	c0-0.1,0-0.1,0.1-0.1c0,0,0.1,0,0.1,0s0.1,0,0.1,0c0,0,0.1,0.1,0.1,0.1v0.7c0,0,0.1-0.1,0.1-0.1c0.1,0,0.1,0,0.1,0h0
	c0.1,0,0.2,0,0.2,0c0.1,0,0.1,0.1,0.2,0.1c0.1,0.1,0.1,0.1,0.1,0.2c0,0.1,0,0.1,0,0.2v1C26.7,14.5,26.6,14.5,26.6,14.5z"/>
<path d="M28.2,14.5c0,0-0.1,0-0.1,0c0,0-0.1,0-0.1,0c0,0-0.1,0-0.1-0.1c-0.1,0-0.1,0.1-0.1,0.1c0,0-0.1,0-0.1,0h0
	c-0.1,0-0.2,0-0.2,0c-0.1,0-0.1-0.1-0.2-0.1c-0.1-0.1-0.1-0.1-0.1-0.2c0-0.1,0-0.1,0-0.2v-1c0-0.1,0-0.1,0.1-0.1c0,0,0.1,0,0.1,0
	c0,0,0.1,0,0.1,0s0.1,0.1,0.1,0.1v1c0,0.1,0,0.1,0.1,0.2c0,0,0.1,0.1,0.2,0.1h0c0.1,0,0.1,0,0.2-0.1c0,0,0.1-0.1,0.1-0.2v-1
	c0-0.1,0-0.1,0.1-0.1c0,0,0.1,0,0.1,0s0.1,0,0.1,0c0,0,0.1,0.1,0.1,0.1v1.4C28.3,14.5,28.2,14.5,28.2,14.5z"/>
<path d="M30.8,14.5c0,0-0.1,0-0.1,0c0,0-0.1,0-0.1,0c0,0-0.1-0.1-0.1-0.1v-1c0-0.1,0-0.1-0.1-0.2c-0.1,0-0.1-0.1-0.2-0.1h0
	c-0.1,0-0.1,0-0.2,0.1c-0.1,0-0.1,0.1-0.1,0.2v1c0,0.1,0,0.1-0.1,0.1c0,0-0.1,0-0.1,0c0,0-0.1,0-0.1,0c0,0-0.1-0.1-0.1-0.1v-1
	c0-0.1,0-0.1-0.1-0.2c-0.1,0-0.1-0.1-0.2-0.1h0c-0.1,0-0.1,0-0.2,0.1c-0.1,0-0.1,0.1-0.1,0.2v1c0,0.1,0,0.1-0.1,0.1c0,0-0.1,0-0.1,0
	c0,0-0.1,0-0.1,0c0,0-0.1-0.1-0.1-0.1V13c0-0.1,0-0.1,0.1-0.1c0,0,0.1,0,0.1,0c0,0,0.1,0,0.1,0c0,0,0.1,0,0.1,0.1
	c0,0,0.1-0.1,0.1-0.1c0,0,0.1,0,0.1,0h0c0.1,0,0.2,0,0.2,0c0.1,0,0.1,0.1,0.2,0.1c0.1-0.1,0.1-0.1,0.2-0.1c0.1,0,0.2,0,0.2,0h0
	c0.2,0,0.4,0.1,0.5,0.2c0.1,0.1,0.1,0.2,0.1,0.4v1C30.8,14.5,30.8,14.5,30.8,14.5z"/>
<path d="M32.6,14.4c0,0,0,0.1,0,0.1c0,0-0.1,0.1-0.1,0.1c-0.1,0-0.1,0-0.2,0c0,0-0.1-0.1-0.1-0.1c-0.1,0.1-0.2,0.1-0.4,0.1h0
	c-0.1,0-0.1,0-0.2,0s-0.1-0.1-0.2-0.1c-0.1,0-0.1-0.1-0.1-0.2c0-0.1-0.1-0.1-0.1-0.2v0c0-0.1,0-0.2,0.1-0.3c0.1-0.1,0.1-0.1,0.2-0.2
	c0.1,0,0.2-0.1,0.3-0.1c0.1,0,0.2,0,0.2,0c0,0,0,0,0,0c0,0,0,0,0,0c0-0.1,0-0.1-0.1-0.2c0,0-0.1-0.1-0.2-0.1h0c-0.1,0-0.1,0-0.1,0
	c0,0-0.1,0.1-0.1,0.1c0,0,0,0.1-0.1,0.1c0,0-0.1,0-0.1,0c0,0-0.1,0-0.1,0c0,0-0.1-0.1-0.1-0.1c0,0,0-0.1,0-0.1
	c0-0.1,0.1-0.1,0.1-0.2c0,0,0.1-0.1,0.1-0.1c0,0,0.1,0,0.2-0.1c0.1,0,0.1,0,0.2,0h0c0.1,0,0.1,0,0.2,0c0.1,0,0.1,0.1,0.2,0.1
	c0.1,0,0.1,0.1,0.1,0.2c0,0.1,0.1,0.1,0.1,0.2v0.8c0,0,0,0,0,0.1c0,0,0,0,0,0c0,0,0.1,0,0.1,0.1C32.6,14.4,32.6,14.4,32.6,14.4z
	 M32,13.8c-0.1,0-0.1,0-0.2,0c-0.1,0-0.1,0-0.2,0c-0.1,0-0.1,0-0.1,0.1c0,0,0,0.1,0,0.1c0,0.1,0,0.1,0.1,0.1c0,0,0.1,0.1,0.2,0.1h0
	c0.1,0,0.1,0,0.2-0.1c0,0,0.1-0.1,0.1-0.2L32,13.8L32,13.8z"/>
<path d="M34.1,14.5c0,0-0.1,0-0.1,0c0,0-0.1,0-0.1,0c0,0-0.1-0.1-0.1-0.1v-1c0-0.1,0-0.1-0.1-0.2c0,0-0.1-0.1-0.2-0.1h0
	c-0.1,0-0.1,0-0.2,0.1c0,0-0.1,0.1-0.1,0.2v1c0,0.1,0,0.1-0.1,0.1c0,0-0.1,0-0.1,0s-0.1,0-0.1,0c0,0-0.1-0.1-0.1-0.1V13
	c0-0.1,0-0.1,0.1-0.1c0,0,0.1,0,0.1,0c0,0,0.1,0,0.1,0c0,0,0.1,0,0.1,0.1c0.1,0,0.1-0.1,0.1-0.1c0,0,0.1,0,0.1,0h0
	c0.1,0,0.2,0,0.2,0c0.1,0,0.1,0.1,0.2,0.1c0.1,0.1,0.1,0.1,0.1,0.2c0,0.1,0,0.1,0,0.2v1C34.1,14.5,34.1,14.5,34.1,14.5z"/>
<path d="M34.9,14.5c0,0-0.1,0-0.1,0c0,0-0.1,0-0.1,0c0,0-0.1-0.1-0.1-0.1V13c0-0.1,0-0.1,0.1-0.1c0,0,0.1,0,0.1,0c0,0,0.1,0,0.1,0
	c0,0,0.1,0.1,0.1,0.1v1.4C34.9,14.5,34.9,14.5,34.9,14.5z M34.9,12.5c0,0-0.1,0-0.1,0c0,0-0.1,0-0.1,0c0,0-0.1-0.1-0.1-0.1v-0.1
	c0-0.1,0-0.1,0.1-0.1c0,0,0.1,0,0.1,0c0,0,0.1,0,0.1,0c0,0,0.1,0.1,0.1,0.1v0.1C34.9,12.4,34.9,12.4,34.9,12.5z"/>
<path d="M36.2,14.4c0,0,0,0.1,0,0.1c0,0-0.1,0.1-0.1,0.1c-0.1,0-0.1,0-0.2,0c-0.1,0-0.1-0.1-0.2-0.1c0,0-0.1-0.1-0.1-0.2
	c0-0.1,0-0.1,0-0.2v-0.9h-0.1c-0.1,0-0.1,0-0.1-0.1c0,0,0-0.1,0-0.1c0,0,0-0.1,0-0.1c0,0,0.1-0.1,0.1-0.1h0.1v-0.6
	c0-0.1,0-0.1,0.1-0.1c0,0,0.1,0,0.1,0c0,0,0.1,0,0.1,0c0,0,0.1,0.1,0.1,0.1v0.6H36c0.1,0,0.1,0,0.1,0.1c0,0,0,0.1,0,0.1
	c0,0,0,0.1,0,0.1c0,0-0.1,0.1-0.1,0.1h-0.1v0.9c0,0,0,0.1,0,0.1s0.1,0.1,0.1,0.1c0.1,0,0.1,0,0.1,0.1C36.2,14.3,36.2,14.4,36.2,14.4
	z"/>
<path d="M37.7,13.8c0,0-0.1,0.1-0.1,0.1h-0.7V14c0,0.1,0,0.1,0.1,0.2c0,0,0.1,0.1,0.2,0.1h0c0.1,0,0.1,0,0.1,0c0,0,0.1-0.1,0.1-0.1
	c0,0,0-0.1,0.1-0.1c0,0,0.1,0,0.1,0c0,0,0.1,0,0.1,0c0,0,0.1,0.1,0.1,0.1c0,0,0,0,0,0.1c-0.1,0.1-0.1,0.2-0.2,0.3
	c-0.1,0.1-0.2,0.1-0.3,0.1h0c-0.1,0-0.2,0-0.2,0c-0.1,0-0.1-0.1-0.2-0.1c-0.1-0.1-0.1-0.1-0.1-0.2c0-0.1,0-0.1,0-0.2v-0.6
	c0-0.1,0-0.2,0-0.2c0-0.1,0.1-0.1,0.1-0.2c0.1-0.1,0.1-0.1,0.2-0.1c0.1,0,0.1,0,0.2,0h0c0.1,0,0.2,0,0.2,0c0.1,0,0.1,0.1,0.2,0.1
	c0.1,0.1,0.1,0.1,0.1,0.2c0,0.1,0,0.2,0,0.2v0.3C37.7,13.8,37.7,13.8,37.7,13.8z M37.6,12.3C37.6,12.3,37.6,12.3,37.6,12.3
	c0,0.1-0.1,0.1-0.1,0.1l-0.6,0.3c0,0-0.1,0-0.1,0c0,0-0.1,0-0.1-0.1c0,0,0-0.1,0-0.1c0,0,0-0.1,0-0.1c0,0,0,0,0.1-0.1l0.6-0.3
	c0,0,0.1,0,0.1,0c0,0,0.1,0,0.1,0.1C37.6,12.2,37.6,12.2,37.6,12.3z M37.4,13.4c0-0.1,0-0.1-0.1-0.2c-0.1,0-0.1-0.1-0.2-0.1h0
	c-0.1,0-0.1,0-0.2,0.1c-0.1,0-0.1,0.1-0.1,0.2v0.2h0.5L37.4,13.4L37.4,13.4z"/>
<path d="M40.4,14.2c0,0.1-0.1,0.1-0.1,0.2c-0.1,0.1-0.1,0.1-0.2,0.1s-0.1,0-0.2,0h0c0,0-0.1,0-0.1,0c-0.1,0-0.1,0-0.1-0.1v0.7
	c0,0.1,0,0.1-0.1,0.1c0,0-0.1,0-0.1,0s-0.1,0-0.1,0c0,0-0.1-0.1-0.1-0.1V13c0-0.1,0-0.1,0.1-0.1c0,0,0.1,0,0.1,0c0.1,0,0.1,0,0.1,0
	c0,0,0,0,0.1,0.1c0,0,0.1-0.1,0.1-0.1c0.1,0,0.1,0,0.1,0h0c0.1,0,0.2,0,0.2,0c0.1,0,0.1,0.1,0.2,0.1c0.1,0.1,0.1,0.1,0.1,0.2
	s0,0.1,0,0.2V14C40.4,14.1,40.4,14.2,40.4,14.2z M40.1,13.4c0-0.1,0-0.1-0.1-0.2c0,0-0.1-0.1-0.2-0.1h0c-0.1,0-0.1,0-0.2,0.1
	c0,0.1-0.1,0.1-0.1,0.2V14c0,0.1,0,0.1,0.1,0.2c0,0,0.1,0.1,0.2,0.1h0c0.1,0,0.1,0,0.2-0.1c0,0,0.1-0.1,0.1-0.2V13.4z"/>
<path d="M42.2,14.4c0,0,0,0.1,0,0.1c0,0-0.1,0.1-0.1,0.1c-0.1,0-0.1,0-0.2,0c0,0-0.1-0.1-0.1-0.1c-0.1,0.1-0.2,0.1-0.4,0.1h0
	c-0.1,0-0.1,0-0.2,0c-0.1,0-0.1-0.1-0.2-0.1c-0.1,0-0.1-0.1-0.1-0.2c0-0.1-0.1-0.1-0.1-0.2v0c0-0.1,0-0.2,0.1-0.3
	c0.1-0.1,0.1-0.1,0.2-0.2c0.1,0,0.2-0.1,0.3-0.1c0.1,0,0.2,0,0.2,0c0,0,0,0,0,0c0,0,0,0,0,0c0-0.1,0-0.1-0.1-0.2
	c0,0-0.1-0.1-0.2-0.1h0c-0.1,0-0.1,0-0.1,0c0,0-0.1,0.1-0.1,0.1c0,0,0,0.1-0.1,0.1c0,0-0.1,0-0.1,0c0,0-0.1,0-0.1,0
	c0,0-0.1-0.1-0.1-0.1c0,0,0-0.1,0-0.1c0-0.1,0.1-0.1,0.1-0.2c0,0,0.1-0.1,0.1-0.1c0,0,0.1,0,0.2-0.1c0.1,0,0.1,0,0.2,0h0
	c0.1,0,0.1,0,0.2,0c0.1,0,0.1,0.1,0.2,0.1c0.1,0,0.1,0.1,0.1,0.2c0,0.1,0.1,0.1,0.1,0.2v0.8c0,0,0,0,0,0.1s0,0,0,0
	c0,0,0.1,0,0.1,0.1C42.2,14.4,42.2,14.4,42.2,14.4z M41.7,13.8c-0.1,0-0.1,0-0.2,0c-0.1,0-0.1,0-0.2,0c-0.1,0-0.1,0-0.1,0.1
	c0,0,0,0.1,0,0.1c0,0.1,0,0.1,0.1,0.1c0,0,0.1,0.1,0.2,0.1h0c0.1,0,0.1,0,0.2-0.1c0,0,0.1-0.1,0.1-0.2L41.7,13.8L41.7,13.8z"/>
<path d="M43.7,14.1c0,0.1,0,0.2-0.1,0.3c0,0.1-0.1,0.1-0.2,0.2c-0.1,0-0.1,0.1-0.2,0.1c-0.1,0-0.1,0-0.2,0H43c-0.1,0-0.2,0-0.3-0.1
	c-0.1-0.1-0.2-0.2-0.2-0.3c0,0,0-0.1,0-0.1c0,0,0-0.1,0.1-0.1c0,0,0.1,0,0.1,0c0,0,0.1,0,0.1,0c0,0,0.1,0.1,0.1,0.1
	c0,0,0.1,0.1,0.1,0.1c0,0,0.1,0,0.1,0h0.1c0.1,0,0.2,0,0.2-0.1c0,0,0.1-0.1,0.1-0.1c0,0,0-0.1,0-0.1c0,0,0-0.1-0.1-0.1
	c0,0-0.1,0-0.1,0c0,0-0.1,0-0.1,0c-0.1,0-0.1,0-0.2,0c-0.1,0-0.1,0-0.2-0.1c-0.1,0-0.1-0.1-0.1-0.1c0-0.1-0.1-0.1-0.1-0.2v-0.1
	c0-0.1,0-0.2,0.1-0.2c0-0.1,0.1-0.1,0.2-0.1c0.1,0,0.1-0.1,0.2-0.1c0.1,0,0.1,0,0.2,0h0c0.1,0,0.2,0,0.2,0c0.1,0,0.1,0,0.2,0.1
	c0.1,0,0.1,0.1,0.1,0.1c0,0,0,0.1,0,0.1c0,0,0,0.1,0,0.1c0,0-0.1,0-0.1,0c0,0-0.1,0-0.1,0c0,0,0,0-0.1,0c0,0-0.1,0-0.1,0
	c0,0-0.1,0-0.1,0h0c-0.1,0-0.1,0-0.2,0c-0.1,0-0.1,0.1-0.1,0.1v0c0,0,0,0.1,0.1,0.1c0,0,0.1,0,0.2,0.1c0.1,0,0.1,0,0.2,0.1
	c0.1,0,0.1,0,0.2,0.1c0.1,0,0.1,0.1,0.2,0.2S43.7,13.9,43.7,14.1z"/>
<path d="M45.3,14.1c0,0.1,0,0.2-0.1,0.3c0,0.1-0.1,0.1-0.2,0.2c-0.1,0-0.1,0.1-0.2,0.1c-0.1,0-0.1,0-0.2,0h-0.1
	c-0.1,0-0.2,0-0.3-0.1c-0.1-0.1-0.2-0.2-0.2-0.3c0,0,0-0.1,0-0.1c0,0,0-0.1,0.1-0.1c0,0,0.1,0,0.1,0c0,0,0.1,0,0.1,0
	c0,0,0.1,0.1,0.1,0.1c0,0,0.1,0.1,0.1,0.1c0,0,0.1,0,0.1,0h0.1c0.1,0,0.2,0,0.2-0.1c0,0,0.1-0.1,0.1-0.1c0,0,0-0.1,0-0.1
	c0,0,0-0.1-0.1-0.1c0,0-0.1,0-0.1,0c0,0-0.1,0-0.1,0c-0.1,0-0.1,0-0.2,0c-0.1,0-0.1,0-0.2-0.1c-0.1,0-0.1-0.1-0.1-0.1
	c0-0.1-0.1-0.1-0.1-0.2v-0.1c0-0.1,0-0.2,0.1-0.2c0-0.1,0.1-0.1,0.2-0.1c0.1,0,0.1-0.1,0.2-0.1c0.1,0,0.1,0,0.2,0h0
	c0.1,0,0.2,0,0.2,0s0.1,0,0.2,0.1c0.1,0,0.1,0.1,0.1,0.1c0,0,0,0.1,0,0.1c0,0,0,0.1,0,0.1c0,0-0.1,0-0.1,0c0,0-0.1,0-0.1,0
	c0,0,0,0-0.1,0c0,0-0.1,0-0.1,0c0,0-0.1,0-0.1,0h0c-0.1,0-0.1,0-0.2,0c-0.1,0-0.1,0.1-0.1,0.1v0c0,0,0,0.1,0.1,0.1
	c0,0,0.1,0,0.2,0.1c0.1,0,0.1,0,0.2,0.1c0.1,0,0.1,0,0.2,0.1c0.1,0,0.1,0.1,0.2,0.2S45.3,13.9,45.3,14.1z"/>
<path d="M46.8,13.8c0,0-0.1,0.1-0.1,0.1H46V14c0,0.1,0,0.1,0.1,0.2c0,0,0.1,0.1,0.2,0.1h0c0.1,0,0.1,0,0.1,0c0,0,0.1-0.1,0.1-0.1
	c0,0,0-0.1,0.1-0.1c0,0,0.1,0,0.1,0c0,0,0.1,0,0.1,0c0,0,0.1,0.1,0.1,0.1c0,0,0,0,0,0.1c-0.1,0.1-0.1,0.2-0.2,0.3
	c-0.1,0.1-0.2,0.1-0.3,0.1h0c-0.1,0-0.2,0-0.2,0c-0.1,0-0.1-0.1-0.2-0.1c-0.1-0.1-0.1-0.1-0.1-0.2c0-0.1,0-0.1,0-0.2v-0.6
	c0-0.1,0-0.2,0-0.2c0-0.1,0.1-0.1,0.1-0.2c0.1-0.1,0.1-0.1,0.2-0.1c0.1,0,0.1,0,0.2,0h0c0.1,0,0.2,0,0.2,0c0.1,0,0.1,0.1,0.2,0.1
	c0.1,0.1,0.1,0.1,0.1,0.2c0,0.1,0,0.2,0,0.2v0.3C46.8,13.8,46.8,13.8,46.8,13.8z M46.5,13.4c0-0.1,0-0.1-0.1-0.2
	c-0.1,0-0.1-0.1-0.2-0.1h0c-0.1,0-0.1,0-0.2,0.1c-0.1,0-0.1,0.1-0.1,0.2v0.2h0.5L46.5,13.4L46.5,13.4z"/>
<path d="M49.5,14.2c0,0.1-0.1,0.1-0.1,0.2c-0.1,0.1-0.1,0.1-0.2,0.1c-0.1,0-0.1,0-0.2,0h0c0,0-0.1,0-0.1,0c-0.1,0-0.1,0-0.1-0.1v0.7
	c0,0.1,0,0.1-0.1,0.1c0,0-0.1,0-0.1,0c0,0-0.1,0-0.1,0c0,0-0.1-0.1-0.1-0.1V13c0-0.1,0-0.1,0.1-0.1c0,0,0.1,0,0.1,0
	c0.1,0,0.1,0,0.1,0c0,0,0,0,0.1,0.1c0,0,0.1-0.1,0.1-0.1c0.1,0,0.1,0,0.1,0h0c0.1,0,0.2,0,0.2,0c0.1,0,0.1,0.1,0.2,0.1
	c0.1,0.1,0.1,0.1,0.1,0.2c0,0.1,0,0.1,0,0.2V14C49.5,14.1,49.5,14.2,49.5,14.2z M49.2,13.4c0-0.1,0-0.1-0.1-0.2c0,0-0.1-0.1-0.2-0.1
	h0c-0.1,0-0.1,0-0.2,0.1c0,0.1-0.1,0.1-0.1,0.2V14c0,0.1,0,0.1,0.1,0.2c0,0,0.1,0.1,0.2,0.1h0c0.1,0,0.1,0,0.2-0.1
	c0,0,0.1-0.1,0.1-0.2V13.4z"/>
<path d="M51.3,14.4c0,0,0,0.1,0,0.1c0,0-0.1,0.1-0.1,0.1c-0.1,0-0.1,0-0.2,0c0,0-0.1-0.1-0.1-0.1c-0.1,0.1-0.2,0.1-0.4,0.1h0
	c-0.1,0-0.1,0-0.2,0s-0.1-0.1-0.2-0.1c-0.1,0-0.1-0.1-0.1-0.2c0-0.1-0.1-0.1-0.1-0.2v0c0-0.1,0-0.2,0.1-0.3c0.1-0.1,0.1-0.1,0.2-0.2
	c0.1,0,0.2-0.1,0.3-0.1c0.1,0,0.2,0,0.2,0c0,0,0,0,0,0c0,0,0,0,0,0c0-0.1,0-0.1-0.1-0.2c0,0-0.1-0.1-0.2-0.1h0c-0.1,0-0.1,0-0.1,0
	c0,0-0.1,0.1-0.1,0.1c0,0,0,0.1-0.1,0.1c0,0-0.1,0-0.1,0c0,0-0.1,0-0.1,0c0,0-0.1-0.1-0.1-0.1c0,0,0-0.1,0-0.1C50,13.1,50,13,50,13
	c0,0,0.1-0.1,0.1-0.1c0,0,0.1,0,0.2-0.1c0.1,0,0.1,0,0.2,0h0c0.1,0,0.1,0,0.2,0c0.1,0,0.1,0.1,0.2,0.1c0.1,0,0.1,0.1,0.1,0.2
	c0,0.1,0.1,0.1,0.1,0.2v0.8c0,0,0,0,0,0.1c0,0,0,0,0,0c0,0,0.1,0,0.1,0.1C51.3,14.4,51.3,14.4,51.3,14.4z M50.7,13.8
	c-0.1,0-0.1,0-0.2,0c-0.1,0-0.1,0-0.2,0c-0.1,0-0.1,0-0.1,0.1c0,0,0,0.1,0,0.1c0,0.1,0,0.1,0.1,0.1c0,0,0.1,0.1,0.2,0.1h0
	c0.1,0,0.1,0,0.2-0.1c0,0,0.1-0.1,0.1-0.2V13.8L50.7,13.8z"/>
<path d="M52.6,13.2c0,0,0,0.1-0.1,0.1c0,0-0.1,0-0.1,0c0,0-0.1,0-0.1,0c0,0,0,0,0,0c0,0,0,0,0,0c0,0-0.1,0-0.1,0c-0.1,0-0.1,0-0.1,0
	c0,0-0.1,0.1-0.1,0.1v1.1c0,0.1,0,0.1-0.1,0.1c0,0-0.1,0-0.1,0c0,0-0.1,0-0.1,0c0,0-0.1-0.1-0.1-0.1V13c0-0.1,0-0.1,0.1-0.1
	c0,0,0.1,0,0.1,0c0.1,0,0.1,0,0.2,0.1c0,0,0,0,0.1-0.1c0,0,0.1,0,0.1,0c0.1,0,0.1,0,0.2,0c0.1,0,0.1,0,0.1,0.1c0,0,0.1,0.1,0.1,0.1
	C52.5,13,52.6,13.1,52.6,13.2C52.6,13.1,52.6,13.1,52.6,13.2z"/>
<path d="M54.6,14.4c0,0.1,0,0.1,0,0.1c0,0-0.1,0-0.1,0c-0.2,0-0.3,0-0.4-0.1c-0.1-0.1-0.1-0.2-0.1-0.4v-1.8c0-0.1,0-0.1,0-0.1
	c0,0,0.1,0,0.1,0c0,0,0.1,0,0.1,0c0,0,0.1,0.1,0.1,0.1v1.8c0,0,0,0.1,0,0.1c0,0,0.1,0,0.1,0c0,0,0.1,0,0.1,0
	C54.6,14.3,54.6,14.4,54.6,14.4z"/>
<path d="M55.2,12.5c0,0.1,0,0.1-0.1,0.2c0,0-0.1,0.1-0.1,0.1c0,0-0.1,0-0.1,0c0,0-0.1,0-0.1,0c0,0-0.1-0.1-0.1-0.1c0,0,0-0.1,0-0.1
	c0,0,0,0,0-0.1c0,0,0,0,0-0.1c0,0,0,0,0-0.1c0,0,0-0.1,0-0.1v-0.1c0-0.1,0-0.1,0.1-0.1c0,0,0.1,0,0.1,0c0,0,0.1,0,0.1,0
	c0,0,0.1,0.1,0.1,0.1v0.1C55.2,12.4,55.2,12.5,55.2,12.5z"/>
<path d="M56.9,14.4c0,0,0,0.1,0,0.1c0,0-0.1,0.1-0.1,0.1c-0.1,0-0.1,0-0.2,0c0,0-0.1-0.1-0.1-0.1c-0.1,0.1-0.2,0.1-0.4,0.1h0
	c-0.1,0-0.1,0-0.2,0s-0.1-0.1-0.2-0.1c-0.1,0-0.1-0.1-0.1-0.2c0-0.1-0.1-0.1-0.1-0.2v0c0-0.1,0-0.2,0.1-0.3c0.1-0.1,0.1-0.1,0.2-0.2
	c0.1,0,0.2-0.1,0.3-0.1c0.1,0,0.2,0,0.2,0c0,0,0,0,0,0c0,0,0,0,0,0c0-0.1,0-0.1-0.1-0.2c0,0-0.1-0.1-0.2-0.1h0c-0.1,0-0.1,0-0.1,0
	c0,0-0.1,0.1-0.1,0.1c0,0,0,0.1-0.1,0.1c0,0-0.1,0-0.1,0c0,0-0.1,0-0.1,0c0,0-0.1-0.1-0.1-0.1c0,0,0-0.1,0-0.1
	c0-0.1,0.1-0.1,0.1-0.2c0,0,0.1-0.1,0.1-0.1c0,0,0.1,0,0.2-0.1c0.1,0,0.1,0,0.2,0h0c0.1,0,0.1,0,0.2,0c0.1,0,0.1,0.1,0.2,0.1
	c0.1,0,0.1,0.1,0.1,0.2c0,0.1,0.1,0.1,0.1,0.2v0.8c0,0,0,0,0,0.1s0,0,0,0c0,0,0.1,0,0.1,0.1C56.9,14.4,56.9,14.4,56.9,14.4z
	 M56.3,13.8c-0.1,0-0.1,0-0.2,0c-0.1,0-0.1,0-0.2,0c-0.1,0-0.1,0-0.1,0.1c0,0,0,0.1,0,0.1c0,0.1,0,0.1,0.1,0.1c0,0,0.1,0.1,0.2,0.1
	h0c0.1,0,0.1,0,0.2-0.1c0,0,0.1-0.1,0.1-0.2V13.8L56.3,13.8z"/>
<path d="M58.4,14.5c0,0-0.1,0-0.1,0c0,0-0.1,0-0.1,0c0,0-0.1,0-0.1-0.1c-0.1,0-0.1,0.1-0.1,0.1c0,0-0.1,0-0.1,0h0
	c-0.1,0-0.2,0-0.2,0c-0.1,0-0.1-0.1-0.2-0.1c-0.1-0.1-0.1-0.1-0.1-0.2c0-0.1,0-0.1,0-0.2v-1c0-0.1,0-0.1,0.1-0.1c0,0,0.1,0,0.1,0
	c0,0,0.1,0,0.1,0c0,0,0.1,0.1,0.1,0.1v1c0,0.1,0,0.1,0.1,0.2c0,0,0.1,0.1,0.2,0.1h0c0.1,0,0.1,0,0.2-0.1c0,0,0.1-0.1,0.1-0.2v-1
	c0-0.1,0-0.1,0.1-0.1c0,0,0.1,0,0.1,0c0,0,0.1,0,0.1,0c0,0,0.1,0.1,0.1,0.1v1.4C58.4,14.5,58.4,14.5,58.4,14.5z"/>
<path d="M59.6,14.4c0,0,0,0.1,0,0.1c0,0-0.1,0.1-0.1,0.1c-0.1,0-0.1,0-0.2,0c-0.1,0-0.1-0.1-0.2-0.1c0,0-0.1-0.1-0.1-0.2
	c0-0.1,0-0.1,0-0.2v-0.9h-0.1c-0.1,0-0.1,0-0.1-0.1c0,0,0-0.1,0-0.1c0,0,0-0.1,0-0.1c0,0,0.1-0.1,0.1-0.1H59v-0.6
	c0-0.1,0-0.1,0.1-0.1c0,0,0.1,0,0.1,0c0,0,0.1,0,0.1,0c0,0,0.1,0.1,0.1,0.1v0.6h0.1c0.1,0,0.1,0,0.1,0.1c0,0,0,0.1,0,0.1
	c0,0,0,0.1,0,0.1c0,0-0.1,0.1-0.1,0.1h-0.1v0.9c0,0,0,0.1,0,0.1c0,0,0.1,0.1,0.1,0.1c0.1,0,0.1,0,0.1,0.1
	C59.6,14.3,59.6,14.4,59.6,14.4z"/>
<path d="M60.9,13.2c0,0,0,0.1-0.1,0.1c0,0-0.1,0-0.1,0c0,0-0.1,0-0.1,0c0,0,0,0,0,0c0,0,0,0,0,0c0,0-0.1,0-0.1,0c-0.1,0-0.1,0-0.1,0
	c0,0-0.1,0.1-0.1,0.1v1.1c0,0.1,0,0.1-0.1,0.1c0,0-0.1,0-0.1,0c0,0-0.1,0-0.1,0c0,0-0.1-0.1-0.1-0.1V13c0-0.1,0-0.1,0.1-0.1
	c0,0,0.1,0,0.1,0c0.1,0,0.1,0,0.2,0.1c0,0,0,0,0.1-0.1c0,0,0.1,0,0.1,0c0.1,0,0.1,0,0.2,0c0.1,0,0.1,0,0.1,0.1c0,0,0.1,0.1,0.1,0.1
	C60.9,13,60.9,13.1,60.9,13.2C60.9,13.1,60.9,13.1,60.9,13.2z"/>
<path d="M62.4,13.8c0,0-0.1,0.1-0.1,0.1h-0.7V14c0,0.1,0,0.1,0.1,0.2c0,0,0.1,0.1,0.2,0.1h0c0.1,0,0.1,0,0.1,0c0,0,0.1-0.1,0.1-0.1
	c0,0,0-0.1,0.1-0.1c0,0,0.1,0,0.1,0c0,0,0.1,0,0.1,0c0,0,0.1,0.1,0.1,0.1c0,0,0,0,0,0.1c-0.1,0.1-0.1,0.2-0.2,0.3
	c-0.1,0.1-0.2,0.1-0.3,0.1h0c-0.1,0-0.2,0-0.2,0c-0.1,0-0.1-0.1-0.2-0.1c-0.1-0.1-0.1-0.1-0.1-0.2c0-0.1,0-0.1,0-0.2v-0.6
	c0-0.1,0-0.2,0-0.2c0-0.1,0.1-0.1,0.1-0.2c0.1-0.1,0.1-0.1,0.2-0.1c0.1,0,0.1,0,0.2,0h0c0.1,0,0.2,0,0.2,0c0.1,0,0.1,0.1,0.2,0.1
	c0.1,0.1,0.1,0.1,0.1,0.2c0,0.1,0,0.2,0,0.2v0.3C62.4,13.8,62.4,13.8,62.4,13.8z M62.1,13.4c0-0.1,0-0.1-0.1-0.2
	c-0.1,0-0.1-0.1-0.2-0.1h0c-0.1,0-0.1,0-0.2,0.1c-0.1,0-0.1,0.1-0.1,0.2v0.2h0.5L62.1,13.4L62.1,13.4z"/>
<path d="M19.4,9.8L19.4,9.8c-0.2,0-0.4,0-0.5-0.1c-0.1,0-0.2-0.1-0.3-0.2c-0.1-0.1-0.2-0.2-0.2-0.3c-0.1-0.1-0.1-0.3-0.1-0.4V4.9
	c0-0.3,0.1-0.5,0.3-0.7C18.8,4,19,3.9,19.3,3.9h0.1c0.3,0,0.5,0.1,0.7,0.2c0.2,0.2,0.3,0.4,0.3,0.6c0,0.1,0.1,0.2,0.2,0.3
	c0.1,0.1,0.2,0.1,0.3,0.1c0.2,0,0.3-0.1,0.4-0.1c0.1-0.1,0.1-0.2,0.1-0.4v0c0-0.2-0.1-0.5-0.2-0.7c-0.1-0.2-0.3-0.4-0.5-0.5
	c-0.2-0.1-0.4-0.3-0.6-0.4C19.9,3,19.6,3,19.4,3h-0.1c-0.3,0-0.5,0-0.8,0.1c-0.2,0.1-0.5,0.2-0.6,0.4c-0.2,0.2-0.3,0.4-0.4,0.6
	c-0.1,0.2-0.2,0.5-0.2,0.8v3.9c0,0.3,0.1,0.5,0.2,0.8c0.1,0.2,0.2,0.4,0.4,0.6c0.2,0.2,0.4,0.3,0.6,0.4c0.2,0.1,0.5,0.1,0.8,0.1h0.1
	c0.2,0,0.5,0,0.7-0.1c0.2-0.1,0.5-0.2,0.6-0.3c0.2-0.2,0.3-0.3,0.5-0.5c0.1-0.2,0.2-0.4,0.2-0.7v0c0-0.2,0-0.3-0.1-0.4
	c-0.1-0.1-0.2-0.1-0.4-0.1c-0.1,0-0.2,0-0.3,0.1c-0.1,0.1-0.1,0.2-0.2,0.3c0,0.3-0.2,0.5-0.3,0.6C19.9,9.7,19.7,9.8,19.4,9.8"/>
<polygon fill="#FFFFFF" points="24.7,10.6 24.7,10.6 24.7,5.9 21.8,5.9 21.8,7.3 23.2,7.3 23.2,10.6 "/>
<path d="M26.2,6.2v4.1c0,0.2,0.1,0.3,0.2,0.4c0.1,0.1,0.2,0.1,0.3,0.1c0.1,0,0.2,0,0.3-0.1c0.1-0.1,0.2-0.2,0.2-0.4V7.4
	c0-0.2,0.1-0.4,0.2-0.5c0.1-0.1,0.3-0.2,0.5-0.2H28c0.2,0,0.4,0.1,0.5,0.2c0.1,0.1,0.2,0.3,0.2,0.5v2.9c0,0.2,0.1,0.3,0.2,0.4
	c0.1,0.1,0.2,0.1,0.3,0.1c0.1,0,0.2,0,0.3-0.1c0.1-0.1,0.2-0.2,0.2-0.4V7.4c0-0.2,0.1-0.4,0.2-0.5c0.1-0.1,0.3-0.2,0.5-0.2h0.1
	c0.2,0,0.4,0.1,0.5,0.2c0.1,0.1,0.2,0.3,0.2,0.5v2.9c0,0.2,0.1,0.3,0.2,0.4c0.1,0.1,0.2,0.1,0.3,0.1c0.1,0,0.2,0,0.3-0.1
	c0.1-0.1,0.2-0.2,0.2-0.4V7.3c0-0.5-0.1-0.9-0.4-1.2c-0.3-0.3-0.7-0.5-1.3-0.5h-0.1c-0.2,0-0.5,0-0.7,0.1c-0.2,0.1-0.4,0.2-0.5,0.4
	c-0.2-0.2-0.3-0.3-0.5-0.4c-0.2-0.1-0.4-0.1-0.7-0.1h-0.1c-0.1,0-0.3,0-0.4,0.1c-0.1,0-0.2,0.1-0.3,0.2c-0.1-0.1-0.1-0.2-0.2-0.2
	c-0.1,0-0.2-0.1-0.3-0.1c-0.1,0-0.2,0-0.3,0.1C26.3,5.9,26.2,6,26.2,6.2"/>
<path d="M11.6,9.8c-0.2,0-0.4-0.1-0.5-0.2c-0.1-0.1-0.2-0.2-0.2-0.4c0-0.2,0-0.3,0.1-0.4c0.1-0.1,0.2-0.1,0.4-0.2
	c0.1,0,0.3-0.1,0.5-0.1c0.2,0,0.4-0.1,0.5-0.1v0.6c0,0.2-0.1,0.4-0.2,0.5C12.1,9.7,11.9,9.8,11.6,9.8L11.6,9.8L11.6,9.8z M11,10.7
	c0.2,0.1,0.4,0.1,0.6,0.1h0.1c0.4,0,0.7-0.1,1-0.4c0.1,0.1,0.2,0.2,0.3,0.3c0.1,0.1,0.3,0.1,0.5,0.1c0.1,0,0.3,0,0.3-0.1
	c0.1-0.1,0.1-0.2,0.1-0.3c0-0.1,0-0.2-0.1-0.3c-0.1-0.1-0.2-0.2-0.3-0.2c-0.1,0-0.1-0.1-0.1-0.1c0,0,0-0.1,0-0.2V7.3
	c0-0.2,0-0.5-0.1-0.6c-0.1-0.2-0.2-0.4-0.4-0.5c-0.2-0.1-0.3-0.2-0.5-0.3c-0.2-0.1-0.4-0.1-0.6-0.1h-0.1c-0.1,0-0.3,0-0.4,0
	c-0.1,0-0.3,0.1-0.4,0.2c-0.1,0.1-0.3,0.2-0.4,0.3c-0.1,0.1-0.2,0.3-0.3,0.5c0,0.1,0,0.1,0,0.2c0,0.1,0.1,0.3,0.2,0.3
	c0.1,0.1,0.2,0.1,0.4,0.1c0.1,0,0.2,0,0.2-0.1c0.1,0,0.1-0.1,0.2-0.2c0.1-0.2,0.2-0.3,0.3-0.3c0.1-0.1,0.2-0.1,0.4-0.1h0.1
	c0.2,0,0.3,0.1,0.5,0.2c0.1,0.1,0.2,0.3,0.2,0.5c0,0,0,0.1,0,0.1c0,0-0.1,0.1-0.1,0.1c-0.2,0-0.4,0.1-0.7,0.1
	c-0.3,0-0.5,0.1-0.8,0.2c-0.2,0.1-0.5,0.3-0.6,0.5C10,8.5,9.9,8.8,9.9,9.2v0.1c0,0.3,0,0.5,0.1,0.7c0.1,0.2,0.2,0.3,0.4,0.5
	C10.6,10.5,10.8,10.6,11,10.7L11,10.7z"/>
<path d="M23.9,3.2c-0.5,0-1,0.4-1,1c0,0.5,0.4,1,1,1c0.5,0,1-0.4,1-1C24.8,3.6,24.4,3.2,23.9,3.2"/>
<path d="M35.1,9.8c-0.2,0-0.4-0.1-0.5-0.2c-0.1-0.1-0.2-0.2-0.2-0.4c0-0.2,0-0.3,0.1-0.4c0.1-0.1,0.2-0.1,0.4-0.2
	c0.1,0,0.3-0.1,0.5-0.1c0.2,0,0.4-0.1,0.5-0.1v0.6c0,0.2-0.1,0.4-0.2,0.5C35.5,9.7,35.4,9.8,35.1,9.8L35.1,9.8L35.1,9.8z M34.5,10.7
	c0.2,0.1,0.4,0.1,0.6,0.1h0.1c0.4,0,0.7-0.1,1-0.4c0.1,0.1,0.2,0.2,0.3,0.3c0.1,0.1,0.3,0.1,0.5,0.1c0.1,0,0.3,0,0.3-0.1
	c0.1-0.1,0.1-0.2,0.1-0.3c0-0.1,0-0.2-0.1-0.3c-0.1-0.1-0.2-0.2-0.3-0.2c-0.1,0-0.1-0.1-0.1-0.1c0,0,0-0.1,0-0.2V7.3
	c0-0.2,0-0.5-0.1-0.6c-0.1-0.2-0.2-0.4-0.4-0.5C36.2,6,36,5.9,35.8,5.8c-0.2-0.1-0.4-0.1-0.6-0.1h-0.1c-0.1,0-0.3,0-0.4,0
	c-0.2,0-0.3,0.1-0.4,0.2C34.2,6,34,6.1,33.9,6.2c-0.1,0.1-0.2,0.3-0.3,0.5c0,0.1,0,0.1,0,0.2c0,0.1,0.1,0.3,0.2,0.3
	c0.1,0.1,0.2,0.1,0.4,0.1c0.1,0,0.2,0,0.2-0.1c0.1,0,0.1-0.1,0.2-0.2c0.1-0.2,0.2-0.3,0.3-0.3c0.1-0.1,0.2-0.1,0.4-0.1h0.1
	c0.2,0,0.3,0.1,0.5,0.2c0.1,0.1,0.2,0.3,0.2,0.5c0,0,0,0.1,0,0.1c0,0-0.1,0.1-0.1,0.1c-0.2,0-0.4,0.1-0.7,0.1
	c-0.3,0-0.5,0.1-0.8,0.2c-0.2,0.1-0.5,0.3-0.6,0.5c-0.2,0.2-0.3,0.5-0.3,0.8v0.1c0,0.3,0,0.5,0.1,0.7c0.1,0.2,0.2,0.3,0.4,0.5
	C34.1,10.5,34.3,10.6,34.5,10.7L34.5,10.7z"/>
<path d="M42.2,10c-0.1-0.1-0.2-0.2-0.3-0.2c-0.1,0-0.1-0.1-0.1-0.1c0,0,0-0.1,0-0.2V7.3c0,0,0,0,0,0V1.5c0-0.2-0.1-0.3-0.2-0.4
	C41.5,1,41.4,1,41.3,1c-0.1,0-0.2,0-0.3,0.1c-0.1,0.1-0.2,0.2-0.2,0.4V6c-0.1-0.1-0.2-0.2-0.4-0.2c-0.1,0-0.3-0.1-0.3-0.1H40
	c-0.2,0-0.5,0-0.7,0.1c0,0-0.1,0-0.1,0c0,0,0,0-0.1,0c0,0,0,0,0,0C39,6,38.9,6.1,38.8,6.2c-0.2,0.1-0.3,0.3-0.4,0.5
	c-0.1,0.2-0.1,0.4-0.1,0.7v1.7c0,0.1,0,0.2,0,0.2c0,0.1,0.1,0.3,0.1,0.4c0.1,0.2,0.2,0.4,0.4,0.5c0.2,0.2,0.3,0.3,0.5,0.4
	c0.1,0.1,0.3,0.1,0.4,0.1c0.1,0,0.1,0,0.2,0c0,0,0,0,0,0h0.1c0,0,0,0,0,0c0,0,0.1,0,0.1,0c0.2,0,0.4-0.1,0.6-0.2
	c0.1-0.1,0.2-0.1,0.3-0.2c0.1,0.1,0.2,0.2,0.3,0.3c0,0,0.1,0,0.1,0.1c0.1,0,0.2,0.1,0.3,0.1c0.1,0,0.3,0,0.3-0.1
	c0.1-0.1,0.1-0.2,0.1-0.3C42.3,10.2,42.3,10.1,42.2,10z M40,9.8c-0.2,0-0.4-0.1-0.5-0.2c-0.1-0.1-0.2-0.3-0.2-0.5V7.4
	c0-0.1,0-0.1,0-0.2c0-0.1,0.1-0.2,0.2-0.3c0.1-0.1,0.3-0.2,0.5-0.2h0.1c0.2,0,0.3,0.1,0.5,0.2c0.1,0.1,0.2,0.3,0.2,0.5c0,0,0,0,0,0
	c0,0,0,0,0,0v1.7c0,0.2-0.1,0.3-0.2,0.5C40.4,9.7,40.3,9.8,40,9.8L40,9.8L40,9.8z"/>
<path d="M44,7.8V7.4c0-0.2,0.1-0.4,0.2-0.5c0.1-0.1,0.3-0.2,0.5-0.2h0.1c0.2,0,0.3,0.1,0.5,0.2c0.1,0.1,0.2,0.3,0.2,0.5v0.4L44,7.8
	L44,7.8z M44.1,10.6c0.2,0.1,0.4,0.1,0.7,0.1h0.1c0,0,0,0,0,0h21.6c0.1,0,0.3,0,0.3-0.1c0.1-0.1,0.1-0.2,0.1-0.3
	c0-0.1,0-0.2-0.1-0.3c-0.1-0.1-0.2-0.1-0.3-0.1H44.9l0,0h-0.1c-0.2,0-0.4-0.1-0.5-0.2c-0.1-0.1-0.2-0.3-0.2-0.5V8.7h2
	c0.1,0,0.3,0,0.3-0.1c0.1-0.1,0.1-0.2,0.1-0.3V7.4c0-0.2,0-0.5-0.1-0.7c-0.1-0.2-0.2-0.4-0.4-0.5c-0.2-0.1-0.3-0.3-0.5-0.3
	c-0.2-0.1-0.4-0.1-0.7-0.1h-0.1c-0.2,0-0.5,0-0.7,0.1c-0.2,0.1-0.4,0.2-0.5,0.4c-0.2,0.2-0.3,0.3-0.4,0.5c-0.1,0.2-0.1,0.4-0.1,0.6
	v1.7c0,0.2,0,0.4,0.1,0.6c0.1,0.2,0.2,0.4,0.4,0.5C43.7,10.4,43.9,10.6,44.1,10.6L44.1,10.6z"/>
<path d="M9.1,10C9,9.9,8.9,9.8,8.7,9.8c-0.1,0-0.2,0-0.3-0.1C8.4,9.6,8.3,9.5,8.3,9.4V4.1l0,0c0-0.5-0.4-1-1-1l0,0H1.5
	c-0.1,0-0.2,0-0.3,0.1C1,3.3,1,3.4,1,3.6c0,0.1,0,0.3,0.1,0.3C1.2,4,1.3,4,1.5,4c0,0,5.4,0,5.5,0c0.1,0,0.3,0.1,0.3,0.3
	c0,0.2,0,5.1,0,5.1c0,0.4,0.1,0.8,0.4,1c0.2,0.2,0.6,0.4,1,0.4c0.1,0,0.3,0,0.4-0.1c0.1-0.1,0.1-0.2,0.1-0.3C9.2,10.2,9.2,10,9.1,10
	z"/>
</svg>
