<svg xmlns="http://www.w3.org/2000/svg" x="0px" y="0px"
	 viewBox="0 0 62 62">
<path d="M61,31c0,16.6-13.4,30-30,30S1,47.6,1,31S14.4,1,31,1S61,14.4,61,31"/>
<path fill="#FFFFFF" d="M24.6,45.3c0.5,0.5,0.9,0.8,0.9,0.8c0.1,0.1,0.2,0.2,0.4,0.3c0.2,0.1,0.3,0.3,0.4,0.4c0.2-0.4,0.5-0.8,0.7-1.2
	c0.3-0.4,0.5-0.8,0.8-1.2C26.7,44.8,25.6,45.1,24.6,45.3 M25,50.3c-1.1,0.8-2.5,1.2-4.2,1.2c-0.9,0-1.7-0.3-2.3-0.8
	c-0.9-0.7-1.4-1.7-1.7-3c-0.1-0.4-0.1-0.7-0.1-1.1c0-1.3,0.4-2.9,1.1-4.8c0.5-1.3,1.1-2.6,1.9-3.7c0.8-1.1,1.6-1.9,2.6-2.4
	c0.5-0.2,1-0.4,1.6-0.4c1,0,1.8,0.3,2.4,0.8c0.6,0.6,1,1.3,1.2,2.3c0,0.1-0.1,0.2-0.2,0.3C27.2,38.9,27.1,39,27,39
	c-0.1,0-0.2-0.1-0.3-0.2c-0.1-0.4-0.3-0.7-0.4-1c-0.5-1-1.2-1.5-2.4-1.5c-0.9,0-1.8,0.4-2.6,1.2c-1.1,1-2,2.5-2.7,4.3
	c-0.7,1.9-1.1,3.4-1.1,4.6c0,1.2,0.2,2.1,0.6,2.9c0.6,1,1.5,1.5,2.8,1.5c2.1,0,3.5-0.5,4.3-1.6c0.3-0.4,0.4-0.8,0.5-1.3
	c0-0.1,0-0.1,0-0.2c0-0.1-0.1-0.2-0.2-0.3c-0.1-0.2-0.4-0.4-0.9-0.8c-0.4-0.4-0.8-0.7-1.2-0.9c-0.8,0.1-1.7,0.3-2.7,0.4
	c-0.2,0-0.4-0.1-0.4-0.3c0-0.1,0.1-0.3,0.2-0.4c0.8-0.5,1.5-0.8,2.1-0.8c0.3,0,0.7,0.1,1,0.3c1.5-0.3,3.1-0.7,4.9-1.2
	c0.3,0,0.4,0.1,0.4,0.3c0,0.1,0,0.1-0.1,0.3c-1.6,2.3-2.7,4.8-3.5,7.6c-0.1,0.4-0.3,1.1-0.4,1.6c0,0.1-0.1,0.2-0.2,0.3
	c-0.1,0.1-0.2,0.1-0.3,0.1c-0.2,0-0.5-0.2-0.4-0.5C24.5,51.6,24.7,51.3,25,50.3"/>
<path fill="#FFFFFF" d="M31.1,40.1c0.3,0,0.5,0.2,0.5,0.5c0,0.5-0.2,0.7-0.5,0.8c-0.1,0-0.2,0-0.3,0c-0.1,0-0.2-0.1-0.4-0.2
	c-0.1-0.1-0.2-0.2-0.2-0.4c0-0.2,0.1-0.3,0.3-0.5C30.7,40.2,30.9,40.1,31.1,40.1 M29.9,43.9v-0.2c0-0.1,0-0.3-0.1-0.5
	c0-0.1,0.1-0.3,0.2-0.4c0.1-0.1,0.2-0.2,0.4-0.2c0.1,0,0.3,0.1,0.4,0.3c0.1,0.2,0.1,0.3,0.1,0.5c0,0.2-0.3,1.4-0.8,3.6
	c-0.6,2.2-0.8,3.3-0.8,3.4c0,0.1,0.1,0.2,0.2,0.2c0.1,0,0.2-0.1,0.3-0.2c0.1-0.1,0.3-0.2,0.4-0.2c0.2,0,0.3,0.1,0.3,0.3
	s-0.2,0.4-0.6,0.6c-0.4,0.2-0.6,0.3-0.8,0.3c-0.4,0-0.6-0.3-0.6-0.9c0-0.1,0-0.3,0.1-0.4c0.1-0.2,0.1-0.4,0.2-0.6
	c0.1-0.3,0.2-0.6,0.3-1.1c0.1-0.5,0.2-1,0.4-1.5c0.1-0.5,0.3-1.1,0.4-1.8C29.8,44.3,29.9,44,29.9,43.9"/>
<path fill="#FFFFFF" d="M31.6,51.2l0.4-2c0.2-1,0.4-1.7,0.4-2.1c0.1-0.4,0.2-0.9,0.3-1.4c0.1-0.5,0.3-1.2,0.6-2.2c0,0,0-0.1,0-0.1v-0.1
	c0-0.3,0.1-0.4,0.3-0.6c0.1,0,0.1-0.1,0.2-0.1c0.3,0,0.4,0.2,0.4,0.5c0,0.2-0.1,0.5-0.3,1c-0.2,0.5-0.3,1-0.4,1.4
	c0.1-0.1,0.2-0.3,0.3-0.5c0.1-0.2,0.3-0.5,0.6-0.8c0.3-0.4,0.6-0.7,1-1c0.4-0.3,0.8-0.5,1.2-0.5c0.4,0,0.7,0.1,1,0.3
	c0.1,0.1,0.1,0.2,0.1,0.3c0,0.1-0.1,0.2-0.2,0.3c-0.1,0.1-0.2,0.1-0.3,0.1c-0.1,0-0.2,0-0.3-0.1c-0.1-0.1-0.2-0.1-0.4-0.1
	S36.3,43.8,36,44c-1.1,0.7-2.1,2.2-2.8,4.4c-0.2,0.6-0.3,1-0.4,1.2c0,0.2-0.1,0.4-0.1,0.5c-0.2,0.9-0.4,1.3-0.8,1.3
	C31.7,51.5,31.6,51.4,31.6,51.2"/>
<path fill="#FFFFFF" d="M40.1,50.2c0.3,0,0.4,0.1,0.4,0.4c0,0.2-0.2,0.4-0.5,0.6c-0.4,0.1-0.8,0.2-1.2,0.2c-0.5,0-0.8-0.1-1-0.3
	c-0.2-0.2-0.3-0.5-0.3-0.8c0-0.3,0-0.6,0.1-0.9c0-0.3,0.1-0.6,0.2-1.1c0.1-0.5,0.2-1,0.3-1.6c0.1-0.6,0.3-1.2,0.4-1.9
	c0.2-0.7,0.3-1.4,0.5-2.1c0.2-0.7,0.3-1.4,0.5-2.1c0.2-0.7,0.3-1.4,0.5-2c0.1-0.6,0.3-1.2,0.4-1.7c0.1-0.5,0.2-1,0.3-1.3
	c0.1-0.2,0.2-0.3,0.4-0.3c0.3,0,0.4,0.1,0.4,0.4v0.2c-0.2,1-0.5,2-0.7,2.9c-0.2,1-0.6,2.6-1.1,5c-0.5,2.4-0.9,3.9-1,4.8
	c-0.2,0.8-0.2,1.3-0.2,1.5c0,0.2,0.1,0.3,0.2,0.4c0.1,0.1,0.2,0.2,0.4,0.2c0.2,0,0.3,0,0.4-0.1c0.1,0,0.2-0.1,0.4-0.1
	c0.1-0.1,0.2-0.1,0.3-0.1C40,50.2,40.1,50.2,40.1,50.2"/>
<path fill="#FFFFFF" d="M44.1,43.5c-0.6,0-0.9,0.3-0.9,0.9c0,0.4,0.1,0.8,0.3,1.3c0.2,0.4,0.4,0.8,0.5,1.1c0.6,1,0.9,1.8,0.9,2.4
	c0,0.6-0.2,1-0.6,1.4c-0.4,0.4-0.9,0.6-1.6,0.7h-0.1c-0.7,0-1.2-0.4-1.5-1.1c0,0,0-0.1,0-0.1V50c0-0.1,0-0.2,0.1-0.3
	c0.1-0.1,0.2-0.1,0.2-0.1h0.1c0.1,0,0.2,0,0.3,0.1c0.1,0.1,0.1,0.2,0.2,0.3c0.1,0.1,0.1,0.2,0.2,0.3c0.1,0.1,0.2,0.1,0.4,0.1
	c0.4,0,0.7-0.1,1-0.3c0.2-0.2,0.4-0.5,0.4-0.8s0-0.5-0.1-0.8c-0.1-0.4-0.4-0.9-0.8-1.5c-0.6-1-0.9-1.8-0.9-2.4c0-0.6,0.2-1,0.5-1.4
	c0.3-0.4,0.8-0.5,1.3-0.5c0.4,0,0.7,0.1,0.9,0.2c0.5,0.3,0.7,0.5,0.7,0.9c0,0.3-0.1,0.5-0.4,0.5c-0.1,0-0.2,0-0.3-0.1
	c-0.1-0.1-0.1-0.2-0.2-0.2C44.6,43.6,44.4,43.5,44.1,43.5"/>
<polyline fill="#FFFFFF" points="39.3,35.5 48.7,35.5 48.7,31.5 44.3,31.5 44.3,12.4 39.3,12.4 "/>
<path fill="#FFFFFF" d="M19,19.4v2.2c2,0.1,3-0.8,3-2.8c0-2-1-2.7-3-2.7v5.5 M26.5,16.6c0.2,0.6,0.2,1.1,0.2,1.6c0,3.1-1.9,5.2-3.3,5.2
	c1.4,0,3.3,1.8,3.3,4.4V33c0.1,0.9,0.2,1.4,1,2.5h-4.9c-0.6-0.4-1-1.2-1-2.3v-6.1c0-1.6-1.4-2.3-3-2.1v10.5h-5.2V12.4h7.8
	c2.2,0,3.5,1.1,4.3,2.5l0-2.5h13.1v4.2h-3.9v18.9h-5.1l0-18.9"/>
</svg>
