<svg xmlns="http://www.w3.org/2000/svg" x="0px" y="0px" viewBox="0 0 402 63">
<style type="text/css">
	.st0{opacity:0.7}
</style>
<path d="M96.9,31.2l-4.4-17.8h-0.1L88,31.2h-5.8L75.3,5.1h5.8l4.1,17.8h0.1l4.5-17.8h5.4l4.4,18h0.1l4.3-18h5.6l-7,26.2
	C102.6,31.2,96.9,31.2,96.9,31.2z"/>
<path d="M112.1,12.8c0.6-1.6,1.4-3.1,2.5-4.4s2.4-2.3,4.1-3c1.6-0.7,3.4-1.1,5.4-1.1c2,0,3.8,0.4,5.5,1.1c1.6,0.7,3,1.7,4.1,3
	s1.9,2.7,2.5,4.4c0.6,1.6,0.9,3.5,0.9,5.5c0,1.9-0.3,3.7-0.9,5.3c-0.6,1.6-1.4,3.1-2.5,4.3c-1.1,1.2-2.4,2.2-4.1,2.9
	c-1.6,0.7-3.4,1-5.5,1s-3.8-0.3-5.4-1c-1.6-0.7-3-1.6-4.1-2.9c-1.1-1.2-1.9-2.6-2.5-4.3c-0.6-1.6-0.9-3.4-0.9-5.3
	C111.1,16.3,111.5,14.5,112.1,12.8z M117.3,21.5c0.2,1,0.7,1.9,1.2,2.8c0.5,0.9,1.3,1.5,2.2,2c0.9,0.5,2,0.8,3.3,0.8
	c1.3,0,2.4-0.2,3.3-0.8c0.9-0.5,1.6-1.2,2.2-2s0.9-1.8,1.2-2.8c0.2-1,0.4-2.1,0.4-3.2c0-1.2-0.2-2.3-0.4-3.3c-0.2-1.1-0.7-2-1.2-2.9
	c-0.5-0.9-1.3-1.5-2.2-2c-0.9-0.5-2-0.8-3.3-0.8c-1.3,0-2.4,0.2-3.3,0.8c-0.9,0.5-1.6,1.2-2.2,2s-0.9,1.8-1.2,2.9
	c-0.2,1.1-0.4,2.2-0.4,3.3C116.9,19.4,117.1,20.4,117.3,21.5z"/>
<path d="M148.9,5.1l6.2,18h0.1l5.8-18h8.1v26.2h-5.4V12.7h-0.1l-6.4,18.5h-4.4l-6.4-18.4h-0.1v18.4h-5.4V5.1H148.9z"/>
<path d="M193.6,5.1v4.8h-13.8v5.6h12.7v4.4h-12.7v6.4h14.1v4.8H174V5.1H193.6z"/>
<path d="M203.5,5.1l10.9,17.5h0.1V5.1h5.4v26.2H214l-10.9-17.5h-0.1v17.5h-5.4V5.1H203.5z"/>
<path d="M230.1,5.1v5.6c0,0.8-0.1,1.6-0.3,2.3c-0.2,0.7-0.6,1.3-1.1,1.9c-0.5,0.5-1,1-1.6,1.3c-0.6,0.4-1.3,0.5-2.1,0.7v-2.4
	c0.9-0.3,1.6-0.8,1.9-1.4s0.5-1.4,0.5-2.3H225V5.1H230.1z"/>
<path d="M239.4,24.8c0.3,0.6,0.7,1.1,1.2,1.5c0.5,0.4,1.2,0.6,1.9,0.9c0.7,0.2,1.4,0.3,2.2,0.3c0.5,0,1.1-0.1,1.6-0.2
	c0.6-0.1,1.2-0.2,1.6-0.5c0.5-0.2,0.9-0.5,1.2-1c0.3-0.4,0.5-0.9,0.5-1.6s-0.2-1.2-0.7-1.7c-0.5-0.5-1-0.8-1.8-1.1
	c-0.7-0.3-1.6-0.5-2.5-0.8c-0.9-0.2-1.9-0.5-2.8-0.7c-1-0.2-1.9-0.5-2.9-0.9c-0.9-0.4-1.8-0.8-2.5-1.4c-0.7-0.5-1.3-1.2-1.8-2.1
	c-0.5-0.9-0.7-1.9-0.7-3c0-1.3,0.3-2.5,0.9-3.5s1.3-1.8,2.3-2.5c0.9-0.6,1.9-1.2,3.1-1.5c1.2-0.3,2.3-0.5,3.5-0.5
	c1.4,0,2.6,0.2,4,0.5c1.2,0.3,2.3,0.8,3.3,1.5s1.7,1.6,2.3,2.6c0.5,1.1,0.9,2.3,0.9,3.9h-5.5c-0.1-0.8-0.2-1.4-0.5-1.9
	c-0.3-0.5-0.6-0.9-1.1-1.2c-0.5-0.3-1-0.5-1.6-0.6c-0.6-0.2-1.2-0.2-1.9-0.2c-0.5,0-0.9,0.1-1.4,0.2c-0.5,0.1-0.9,0.2-1.2,0.5
	c-0.4,0.2-0.7,0.5-0.9,0.9c-0.2,0.4-0.4,0.9-0.4,1.4s0.1,0.9,0.3,1.2c0.2,0.3,0.5,0.6,1.2,0.9c0.5,0.2,1.4,0.5,2.4,0.8
	c1,0.2,2.3,0.6,4,1c0.5,0.1,1.2,0.3,2,0.5s1.7,0.7,2.6,1.2s1.6,1.3,2.2,2.3c0.6,0.9,0.9,2.2,0.9,3.6c0,1.2-0.2,2.3-0.7,3.3
	c-0.5,1-1.2,1.9-2.1,2.6c-0.9,0.8-2,1.3-3.4,1.7c-1.3,0.4-3,0.6-4.7,0.6c-1.5,0-2.8-0.2-4.2-0.5c-1.3-0.4-2.6-0.9-3.6-1.6
	c-1-0.8-1.9-1.7-2.5-2.9c-0.6-1.2-0.9-2.6-0.9-4.2h5.5C239,23.4,239.1,24.1,239.4,24.8z"/>
<path d="M287.4,5.1v4.8h-12.6V16h11v4.4h-11v10.8H269V5.1H287.4z"/>
<path d="M290.5,12.8c0.6-1.6,1.4-3.1,2.5-4.4c1.1-1.2,2.4-2.3,4.1-3c1.6-0.7,3.4-1.1,5.4-1.1c2,0,3.8,0.4,5.5,1.1
	c1.6,0.7,3,1.7,4.1,3s1.9,2.7,2.5,4.4c0.6,1.6,0.9,3.5,0.9,5.5c0,1.9-0.3,3.7-0.9,5.3c-0.6,1.6-1.4,3.1-2.5,4.3
	c-1.1,1.2-2.4,2.2-4.1,2.9c-1.6,0.7-3.4,1-5.5,1s-3.8-0.3-5.4-1c-1.6-0.7-3-1.6-4.1-2.9c-1.1-1.2-1.9-2.6-2.5-4.3
	c-0.6-1.6-0.9-3.4-0.9-5.3C289.6,16.3,289.9,14.5,290.5,12.8z M295.8,21.5c0.2,1,0.7,1.9,1.2,2.8s1.3,1.5,2.2,2
	c0.9,0.5,2,0.8,3.3,0.8c1.3,0,2.4-0.2,3.3-0.8c0.9-0.5,1.6-1.2,2.2-2c0.5-0.9,0.9-1.8,1.2-2.8c0.2-1,0.4-2.1,0.4-3.2
	c0-1.2-0.2-2.3-0.4-3.3s-0.7-2-1.2-2.9c-0.5-0.9-1.3-1.5-2.2-2c-0.9-0.5-2-0.8-3.3-0.8c-1.3,0-2.4,0.2-3.3,0.8
	c-0.9,0.5-1.6,1.2-2.2,2c-0.5,0.9-0.9,1.8-1.2,2.9c-0.2,1.1-0.4,2.2-0.4,3.3C295.4,19.4,295.5,20.4,295.8,21.5z"/>
<path d="M333.4,5.1c1.2,0,2.3,0.2,3.2,0.5c0.9,0.4,1.7,0.9,2.4,1.6c0.7,0.6,1.2,1.4,1.6,2.3c0.4,0.9,0.5,1.8,0.5,2.8
	c0,1.6-0.3,2.9-0.9,4c-0.6,1.1-1.7,1.9-3.2,2.6v0.1c0.7,0.2,1.3,0.5,1.8,0.9c0.5,0.4,0.9,0.9,1.2,1.4c0.3,0.5,0.5,1.2,0.6,1.8
	c0.2,0.6,0.2,1.3,0.3,1.9c0,0.4,0.1,0.9,0.1,1.5s0.1,1.2,0.2,1.7c0.1,0.6,0.2,1.2,0.3,1.6c0.2,0.5,0.3,0.9,0.6,1.3h-5.8
	c-0.3-0.9-0.5-1.8-0.6-3s-0.2-2.3-0.3-3.3c-0.2-1.4-0.6-2.3-1.2-3c-0.6-0.6-1.6-0.9-3.1-0.9h-5.8v10.2h-5.8v-26H333.4z M331.3,16.9
	c1.3,0,2.3-0.3,3-0.9c0.6-0.5,1-1.6,1-2.9c0-1.2-0.3-2.2-1-2.8c-0.6-0.5-1.6-0.9-3-0.9H325v7.4C325,16.9,331.3,16.9,331.3,16.9z"/>
<path d="M364.9,29.2c-1.9,1.7-4.7,2.6-8.2,2.6c-3.5,0-6.3-0.9-8.3-2.6s-2.9-4.4-2.9-7.9V5.1h5.8v16.3c0,0.7,0.1,1.4,0.2,2.1
	c0.2,0.7,0.4,1.3,0.8,1.8c0.4,0.5,0.9,0.9,1.6,1.2c0.7,0.3,1.6,0.5,2.8,0.5c2,0,3.5-0.5,4.3-1.4c0.8-0.9,1.2-2.3,1.2-4.3V5.1h5.8
	v16.3C367.9,24.8,366.9,27.5,364.9,29.2z"/>
<path d="M380.9,5.1l6.2,18h0.1l5.8-18h8.1v26.2h-5.4V12.7h-0.1l-6.4,18.5h-4.4l-6.4-18.4h-0.1v18.4h-5.4V5.1H380.9z"/>
<path d="M86.8,43.6v1.2h-8.5v5.7h7.5v1.2h-7.5v7.5h-1.5V43.6H86.8z"/>
<path d="M88.2,48.4c0.3-1,0.8-1.9,1.4-2.6S91,44.5,92,44c0.9-0.5,2-0.7,3.3-0.7s2.3,0.2,3.2,0.7c0.9,0.5,1.7,1,2.3,1.8
	c0.6,0.8,1.1,1.6,1.4,2.6c0.3,0.9,0.5,2,0.5,3.1c0,1.1-0.2,2.1-0.5,3.1c-0.3,1-0.8,1.9-1.4,2.6c-0.6,0.8-1.4,1.3-2.3,1.8
	c-0.9,0.5-2,0.7-3.2,0.7c-1.2,0-2.3-0.2-3.3-0.7c-0.9-0.5-1.7-1-2.3-1.8s-1.1-1.6-1.4-2.6c-0.3-1-0.5-2-0.5-3.1
	C87.8,50.4,87.9,49.3,88.2,48.4z M89.6,54c0.2,0.9,0.5,1.6,1.1,2.2c0.5,0.6,1.1,1.2,1.9,1.6c0.8,0.4,1.6,0.6,2.6,0.6
	c1,0,1.9-0.2,2.6-0.6c0.7-0.4,1.3-0.9,1.8-1.6c0.5-0.6,0.9-1.4,1.1-2.2c0.2-0.9,0.3-1.6,0.3-2.5c0-0.9-0.1-1.7-0.3-2.5
	c-0.2-0.9-0.5-1.6-1.1-2.2c-0.5-0.6-1.1-1.2-1.8-1.6c-0.7-0.4-1.6-0.6-2.6-0.6c-1,0-1.9,0.2-2.6,0.6c-0.8,0.4-1.3,0.9-1.9,1.6
	c-0.5,0.6-0.9,1.4-1.1,2.2c-0.2,0.9-0.3,1.6-0.3,2.5C89.3,52.3,89.3,53.1,89.6,54z"/>
<path d="M112.1,43.6c0.6,0,1.2,0.1,1.9,0.2c0.5,0.2,1.1,0.4,1.5,0.7c0.5,0.3,0.8,0.8,1,1.2c0.2,0.5,0.4,1.2,0.4,1.9
	c0,1-0.2,1.9-0.8,2.6s-1.2,1.2-2.3,1.4v0.1c0.5,0.1,0.9,0.2,1.2,0.4c0.3,0.2,0.6,0.5,0.9,0.8c0.2,0.3,0.4,0.7,0.5,1.1
	s0.2,0.9,0.2,1.3c0,0.2,0,0.6,0.1,0.9c0,0.4,0.1,0.8,0.1,1.2c0.1,0.4,0.1,0.8,0.2,1.1c0.1,0.3,0.2,0.6,0.4,0.8h-1.6
	c-0.1-0.2-0.2-0.3-0.2-0.5c-0.1-0.2-0.1-0.5-0.1-0.6c0-0.2-0.1-0.5-0.1-0.7c0-0.2,0-0.4-0.1-0.5c0-0.5-0.1-1.1-0.2-1.6
	c-0.1-0.5-0.2-1-0.4-1.5c-0.2-0.5-0.5-0.8-0.9-1s-0.9-0.4-1.6-0.4h-5.7v6.9h-1.5V43.6H112.1z M111.9,51c0.5,0,0.9-0.1,1.3-0.2
	c0.4-0.2,0.8-0.3,1.1-0.6c0.3-0.2,0.5-0.5,0.7-0.9s0.3-0.8,0.3-1.3c0-0.9-0.3-1.7-0.9-2.3c-0.5-0.5-1.4-0.9-2.6-0.9h-5.6v6.2
	L111.9,51L111.9,51z"/>
<path d="M136.4,43.6v1.2h-5.5v14.4h-1.5V44.9H124v-1.2H136.4z"/>
<path d="M139.3,43.6v6.8h9.3v-6.8h1.5v15.7h-1.5v-7.6h-9.3v7.6h-1.5V43.6H139.3z"/>
<path d="M164.2,43.6v1.2h-9.3v5.7h8.7v1.2h-8.7V58h9.4v1.2h-10.9V43.6H164.2z"/>
<path d="M183.3,43.6v1.2h-9.3v5.7h8.7v1.2h-8.7V58h9.4v1.2h-10.9V43.6H183.3z"/>
<path d="M196.4,46.7c-0.3-0.5-0.7-0.9-1.1-1.2c-0.5-0.3-0.9-0.5-1.4-0.7c-0.5-0.2-1.1-0.2-1.6-0.2c-1,0-1.9,0.2-2.6,0.6
	s-1.3,0.9-1.9,1.6c-0.5,0.6-0.9,1.4-1.1,2.2c-0.2,0.9-0.3,1.6-0.3,2.5c0,0.9,0.1,1.7,0.3,2.5c0.2,0.9,0.5,1.6,1.1,2.2
	c0.5,0.6,1.1,1.2,1.9,1.6c0.8,0.4,1.6,0.6,2.6,0.6c0.7,0,1.4-0.2,1.9-0.4c0.6-0.2,1.1-0.6,1.5-1.1c0.4-0.5,0.8-1,1-1.6
	c0.2-0.6,0.5-1.2,0.5-1.9h1.5c-0.1,0.9-0.3,1.9-0.7,2.6c-0.4,0.8-0.8,1.4-1.3,1.9s-1.2,0.9-1.9,1.2s-1.6,0.5-2.5,0.5
	c-1.2,0-2.3-0.2-3.3-0.7c-0.9-0.5-1.7-1-2.3-1.8c-0.6-0.8-1.1-1.6-1.4-2.6c-0.3-1-0.5-2-0.5-3.1c0-1.1,0.2-2.1,0.5-3.1
	c0.3-1,0.8-1.9,1.4-2.6c0.6-0.8,1.4-1.3,2.3-1.8c0.9-0.5,2-0.7,3.3-0.7c0.8,0,1.5,0.1,2.2,0.3c0.7,0.2,1.3,0.5,1.9,1
	c0.6,0.5,1.1,0.9,1.5,1.6c0.4,0.6,0.6,1.3,0.7,2.2H197C196.8,47.7,196.6,47.2,196.4,46.7z"/>
<path d="M200.6,48.4c0.3-1,0.8-1.9,1.4-2.6s1.4-1.3,2.3-1.8c0.9-0.5,2-0.7,3.3-0.7s2.3,0.2,3.2,0.7c0.9,0.5,1.7,1,2.3,1.8
	c0.6,0.8,1.1,1.6,1.4,2.6c0.3,1,0.5,2,0.5,3.1c0,1.1-0.2,2.1-0.5,3.1c-0.3,1-0.8,1.9-1.4,2.6c-0.6,0.8-1.4,1.3-2.3,1.8
	c-0.9,0.5-2,0.7-3.2,0.7c-1.2,0-2.3-0.2-3.3-0.7c-0.9-0.5-1.7-1-2.3-1.8s-1.1-1.6-1.4-2.6c-0.3-1-0.5-2-0.5-3.1
	C200.1,50.4,200.3,49.3,200.6,48.4z M202,54c0.2,0.9,0.5,1.6,1.1,2.2c0.5,0.6,1.1,1.2,1.9,1.6c0.8,0.4,1.6,0.6,2.6,0.6
	s1.9-0.2,2.6-0.6c0.7-0.4,1.3-0.9,1.8-1.6c0.5-0.6,0.9-1.4,1.1-2.2c0.2-0.9,0.3-1.6,0.3-2.5c0-0.9-0.1-1.7-0.3-2.5
	c-0.2-0.9-0.5-1.6-1.1-2.2c-0.5-0.6-1.1-1.2-1.8-1.6c-0.8-0.4-1.6-0.6-2.6-0.6s-1.9,0.2-2.6,0.6c-0.8,0.4-1.3,0.9-1.9,1.6
	c-0.5,0.6-0.9,1.4-1.1,2.2c-0.2,0.9-0.3,1.6-0.3,2.5C201.7,52.3,201.7,53.1,202,54z"/>
<path d="M218.9,43.6l9.1,13.2h0.1V43.6h1.5v15.7h-1.6L218.8,46h-0.1v13.2h-1.5V43.6H218.9z"/>
<path d="M232.4,48.4c0.3-1,0.8-1.9,1.4-2.6c0.6-0.7,1.4-1.3,2.3-1.8c0.9-0.5,2-0.7,3.3-0.7s2.3,0.2,3.2,0.7c0.9,0.5,1.7,1,2.3,1.8
	c0.6,0.8,1.1,1.6,1.4,2.6c0.3,1,0.5,2,0.5,3.1c0,1.1-0.2,2.1-0.5,3.1c-0.3,1-0.8,1.9-1.4,2.6c-0.6,0.8-1.4,1.3-2.3,1.8
	c-0.9,0.5-2,0.7-3.2,0.7s-2.3-0.2-3.3-0.7c-0.9-0.5-1.7-1-2.3-1.8c-0.6-0.8-1.1-1.6-1.4-2.6c-0.3-1-0.5-2-0.5-3.1
	C231.9,50.4,232,49.3,232.4,48.4z M233.8,54c0.2,0.9,0.5,1.6,1.1,2.2c0.5,0.6,1.1,1.2,1.9,1.6c0.8,0.4,1.6,0.6,2.6,0.6
	c1,0,1.9-0.2,2.6-0.6c0.7-0.4,1.3-0.9,1.8-1.6c0.5-0.6,0.9-1.4,1.1-2.2c0.2-0.9,0.3-1.6,0.3-2.5c0-0.9-0.1-1.7-0.3-2.5
	c-0.2-0.9-0.5-1.6-1.1-2.2c-0.5-0.6-1.1-1.2-1.8-1.6c-0.8-0.4-1.6-0.6-2.6-0.6c-1,0-1.9,0.2-2.6,0.6c-0.8,0.4-1.3,0.9-1.9,1.6
	c-0.5,0.6-0.9,1.4-1.1,2.2c-0.2,0.9-0.3,1.6-0.3,2.5C233.4,52.3,233.5,53.1,233.8,54z"/>
<path d="M251.2,43.6l5.2,13.8l5.4-13.8h2.2v15.7h-1.5V45.7h-0.1L257,59.3h-1.4l-5.1-13.6h-0.1v13.6h-1.5V43.6H251.2z"/>
<path d="M265.3,43.6h1.8l5.1,7.9l5.1-7.9h1.8l-6.2,9.2v6.5h-1.5v-6.5L265.3,43.6z"/>
<path d="M293.2,59c-0.8,0.4-1.6,0.6-2.6,0.6c-0.7,0-1.3-0.1-1.9-0.3c-0.5-0.2-1.1-0.5-1.5-0.9c-0.4-0.4-0.8-0.9-1-1.3
	c-0.2-0.5-0.4-1.2-0.4-1.9c0-0.5,0.2-1.1,0.4-1.6c0.2-0.5,0.5-0.9,0.9-1.2c0.4-0.4,0.8-0.7,1.2-1c0.5-0.3,0.9-0.5,1.3-0.8
	c-0.2-0.3-0.5-0.5-0.7-0.9s-0.5-0.5-0.6-0.9c-0.2-0.3-0.3-0.6-0.5-0.9s-0.2-0.7-0.2-1.1c0-0.5,0.1-0.9,0.3-1.3
	c0.2-0.4,0.5-0.7,0.8-1c0.3-0.3,0.7-0.5,1.1-0.6c0.4-0.2,0.9-0.2,1.3-0.2s0.9,0.1,1.3,0.2c0.4,0.2,0.8,0.4,1.1,0.6
	c0.3,0.3,0.5,0.6,0.8,1c0.2,0.4,0.3,0.9,0.3,1.3c0,0.5-0.1,0.9-0.2,1.3c-0.2,0.4-0.4,0.8-0.7,1.1s-0.6,0.6-1,0.9
	c-0.4,0.2-0.8,0.5-1.2,0.8l3.4,4.1c0.2-0.4,0.3-0.8,0.4-1.2s0.1-0.9,0.1-1.5h1.4c0,0.5-0.1,1-0.2,1.7c-0.2,0.7-0.4,1.4-0.7,2
	l2.6,3.2h-1.7l-1.6-2C294.7,57.9,294,58.6,293.2,59z M289.3,52.2c-0.4,0.2-0.7,0.5-1,0.9s-0.5,0.7-0.8,1.1c-0.2,0.4-0.3,0.8-0.3,1.3
	c0,0.5,0.1,0.9,0.3,1.2c0.2,0.4,0.5,0.7,0.8,1s0.7,0.5,1.1,0.6c0.4,0.2,0.9,0.2,1.2,0.2c0.8,0,1.5-0.2,2.1-0.6
	c0.6-0.5,1.2-0.9,1.6-1.6l-3.9-4.8C290.1,51.6,289.7,51.9,289.3,52.2z M289.8,45.2c-0.4,0.3-0.6,0.9-0.6,1.5c0,0.3,0.1,0.5,0.2,0.9
	c0.1,0.3,0.2,0.5,0.5,0.9c0.2,0.2,0.4,0.5,0.5,0.8c0.2,0.2,0.4,0.5,0.5,0.7c0.3-0.2,0.5-0.4,0.9-0.5c0.3-0.2,0.5-0.5,0.8-0.7
	c0.2-0.2,0.4-0.5,0.5-0.9c0.2-0.3,0.2-0.7,0.2-1c0-0.6-0.2-1.2-0.6-1.5c-0.4-0.3-0.9-0.5-1.5-0.5C290.7,44.8,290.2,44.9,289.8,45.2z
	"/>
<path d="M307.2,56.2c0.2,0.5,0.6,1,1.1,1.3c0.5,0.3,1,0.5,1.6,0.7s1.3,0.2,2,0.2c0.4,0,0.9-0.1,1.3-0.2c0.5-0.2,0.9-0.3,1.3-0.5
	c0.4-0.2,0.8-0.6,1-1c0.3-0.4,0.4-0.9,0.4-1.5c0-0.5-0.1-0.9-0.3-1.2c-0.2-0.3-0.5-0.6-0.8-0.8c-0.3-0.2-0.7-0.4-1-0.5
	c-0.3-0.2-0.8-0.2-1.1-0.3l-3.5-0.9c-0.5-0.2-0.9-0.2-1.3-0.5c-0.5-0.2-0.8-0.4-1.2-0.7c-0.3-0.3-0.5-0.6-0.8-1.1
	c-0.2-0.4-0.3-0.9-0.3-1.6c0-0.4,0.1-0.9,0.2-1.3c0.2-0.5,0.4-1,0.9-1.5c0.4-0.5,0.9-0.9,1.6-1.2c0.7-0.3,1.6-0.5,2.7-0.5
	c0.8,0,1.5,0.1,2.2,0.3c0.7,0.2,1.3,0.5,1.9,0.9c0.5,0.4,0.9,0.9,1.2,1.6c0.3,0.6,0.5,1.3,0.5,2.1h-1.5c0-0.6-0.2-1.1-0.4-1.6
	c-0.2-0.5-0.5-0.9-0.9-1.1c-0.4-0.3-0.9-0.5-1.3-0.7c-0.5-0.2-1-0.2-1.6-0.2s-1,0.1-1.5,0.2c-0.5,0.1-0.9,0.3-1.2,0.5
	c-0.4,0.2-0.6,0.5-0.9,0.9s-0.3,0.9-0.3,1.5c0,0.4,0.1,0.7,0.2,0.9c0.2,0.2,0.3,0.5,0.5,0.7c0.2,0.2,0.5,0.3,0.8,0.5
	c0.3,0.2,0.6,0.2,0.9,0.3l3.8,0.9c0.5,0.2,1.1,0.3,1.6,0.5c0.5,0.2,0.9,0.5,1.3,0.8c0.4,0.3,0.7,0.7,0.9,1.2c0.2,0.5,0.3,1,0.3,1.6
	c0,0.2,0,0.4-0.1,0.7c0,0.3-0.2,0.6-0.2,0.9c-0.2,0.3-0.3,0.7-0.6,1c-0.2,0.3-0.6,0.6-1.1,0.9c-0.5,0.2-1,0.5-1.6,0.6
	c-0.6,0.2-1.5,0.2-2.3,0.2c-0.9,0-1.8-0.1-2.6-0.3c-0.8-0.2-1.5-0.5-2-1c-0.5-0.5-1-1-1.3-1.7c-0.3-0.7-0.5-1.5-0.4-2.5h1.5
	C306.8,54.9,307,55.6,307.2,56.2z"/>
<path d="M319.6,48.4c0.3-1,0.8-1.9,1.4-2.6s1.4-1.3,2.3-1.8c0.9-0.5,2-0.7,3.3-0.7c1.2,0,2.3,0.2,3.2,0.7c0.9,0.5,1.7,1,2.3,1.8
	s1.1,1.6,1.4,2.6c0.3,1,0.5,2,0.5,3.1c0,1.1-0.2,2.1-0.5,3.1c-0.3,1-0.8,1.9-1.4,2.6c-0.6,0.8-1.4,1.3-2.3,1.8
	c-0.9,0.5-2,0.7-3.2,0.7c-1.2,0-2.3-0.2-3.3-0.7c-0.9-0.5-1.7-1-2.3-1.8s-1.1-1.6-1.4-2.6c-0.3-1-0.5-2-0.5-3.1
	C319.1,50.4,319.3,49.3,319.6,48.4z M321,54c0.2,0.9,0.5,1.6,1.1,2.2c0.5,0.6,1.1,1.2,1.9,1.6c0.8,0.4,1.6,0.6,2.6,0.6
	c1,0,1.9-0.2,2.6-0.6c0.7-0.4,1.3-0.9,1.8-1.6c0.5-0.6,0.9-1.4,1.1-2.2c0.2-0.9,0.3-1.6,0.3-2.5c0-0.9-0.1-1.7-0.3-2.5
	c-0.2-0.9-0.5-1.6-1.1-2.2c-0.5-0.6-1.1-1.2-1.8-1.6c-0.8-0.4-1.6-0.6-2.6-0.6c-1,0-1.9,0.2-2.6,0.6c-0.8,0.4-1.3,0.9-1.9,1.6
	c-0.5,0.6-0.9,1.4-1.1,2.2c-0.2,0.9-0.3,1.6-0.3,2.5C320.6,52.3,320.8,53.1,321,54z"/>
<path d="M347.1,46.7c-0.3-0.5-0.7-0.9-1.1-1.2c-0.5-0.3-0.9-0.5-1.4-0.7c-0.5-0.2-1.1-0.2-1.6-0.2c-1,0-1.9,0.2-2.6,0.6
	c-0.7,0.4-1.3,0.9-1.9,1.6c-0.5,0.6-0.9,1.4-1.1,2.2c-0.2,0.9-0.3,1.6-0.3,2.5c0,0.9,0.1,1.7,0.3,2.5c0.2,0.9,0.5,1.6,1.1,2.2
	c0.5,0.6,1.1,1.2,1.9,1.6c0.8,0.4,1.6,0.6,2.6,0.6c0.7,0,1.4-0.2,1.9-0.4c0.6-0.2,1.1-0.6,1.5-1.1c0.4-0.5,0.8-1,1-1.6
	c0.2-0.6,0.5-1.2,0.5-1.9h1.5c-0.1,0.9-0.3,1.9-0.7,2.6c-0.4,0.8-0.8,1.4-1.3,1.9s-1.2,0.9-1.9,1.2c-0.7,0.3-1.6,0.5-2.5,0.5
	c-1.2,0-2.3-0.2-3.3-0.7c-0.9-0.5-1.7-1-2.3-1.8c-0.6-0.8-1.1-1.6-1.4-2.6c-0.3-1-0.5-2-0.5-3.1c0-1.1,0.2-2.1,0.5-3.1
	s0.8-1.9,1.4-2.6c0.6-0.8,1.4-1.3,2.3-1.8c0.9-0.5,2-0.7,3.3-0.7c0.8,0,1.5,0.1,2.2,0.3c0.7,0.2,1.3,0.5,1.9,1s1.1,0.9,1.5,1.6
	c0.4,0.6,0.6,1.3,0.7,2.2h-1.5C347.6,47.7,347.4,47.2,347.1,46.7z"/>
<path d="M353.3,43.6v15.7h-1.5V43.6H353.3z"/>
<path d="M367.4,43.6v1.2h-9.3v5.7h8.7v1.2h-8.7V58h9.4v1.2h-10.9V43.6H367.4z"/>
<path d="M380.4,43.6v1.2h-5.5v14.4h-1.5V44.9H368v-1.2H380.4z"/>
<path d="M380,43.6h1.8l5.1,7.9l5.1-7.9h1.8l-6.2,9.2v6.5h-1.5v-6.5L380,43.6z"/>
<path class="st0" fill="#FFFFFF" d="M41,1.3H23c-12.2,0-22,9.8-22,22v16.4c0,12.2,9.8,22,22,22h18c12.2,0,22-9.8,22-22V23.3
	C62.9,11.1,53.1,1.3,41,1.3z M56.2,35.4c0,10.7-8.7,19.6-19.6,19.6h-9.3C16.6,55,7.8,46.3,7.8,35.4v-7.9c0-10.7,8.7-19.6,19.6-19.6
	h9.3c10.7,0,19.6,8.7,19.6,19.6C56.2,27.5,56.2,35.4,56.2,35.4z"/>
<path fill="#FFFFFF" d="M33.2,9.6h-2.3c-11.7,0-21.2,9.5-21.2,21.2V32c0,11.7,9.5,21.2,21.2,21.2h2.3c11.7,0,21.2-9.5,21.2-21.2v-1.2
	C54.4,19.2,44.9,9.6,33.2,9.6z"/>
</svg>
