<svg xmlns="http://www.w3.org/2000/svg" width="466" height="117" viewBox="0 0 466 117">
    <g fill="none" fill-rule="evenodd">
        <path fill="#FFF" d="M27.062 29.048l-.068.783.242-.86 3.674-10.848h1.005l.29 10.935-.048.831.222-.908 3.094-10.858h1.092L32.437 32.2h-1.14l-.233-11.66-3.906 11.66h-1.15l.28-14.077h1.073l-.3 10.925zm11.73-7.309h4.738l-1.644 9.436h3.461l-.184 1.025h-8.188l.183-1.025h3.578l1.46-8.401h-3.587l.183-1.035zm3.751-2.842a.975.975 0 0 1 .261-.643.867.867 0 0 1 .639-.266c.257-.006.464.074.618.242a.825.825 0 0 1 .213.628.896.896 0 0 1-.9.88c-.257.006-.463-.07-.618-.227-.155-.158-.225-.363-.213-.614zm10.31 13.496c-.703-.019-1.315-.174-1.837-.464-.522-.29-.95-.67-1.281-1.14a4.58 4.58 0 0 1-.71-1.615 5.69 5.69 0 0 1-.117-1.876l.049-.425a6.7 6.7 0 0 1 .314-1.325c.151-.438.343-.857.575-1.256.232-.4.503-.77.812-1.112.31-.342.653-.635 1.03-.88a4.872 4.872 0 0 1 1.223-.57c.438-.136.899-.197 1.382-.184.664.02 1.231.167 1.702.445.47.277.85.638 1.136 1.082.287.445.483.951.59 1.518.106.567.127 1.15.062 1.75l-.087.706h-7.599l-.048.232c-.07.49-.063.976.024 1.46.087.483.253.92.498 1.31a3 3 0 0 0 .962.957c.397.248.865.382 1.407.401a3.624 3.624 0 0 0 1.755-.348 5.498 5.498 0 0 0 1.464-1.044l.687.551a4.97 4.97 0 0 1-1.789 1.378 5.07 5.07 0 0 1-2.204.45zm1.382-9.861c-.522-.02-.995.07-1.42.27-.426.2-.805.466-1.137.798a5.086 5.086 0 0 0-.855 1.146 7.86 7.86 0 0 0-.58 1.315l6.41.01.028-.146a3.675 3.675 0 0 0-.029-1.218 2.97 2.97 0 0 0-.43-1.078 2.38 2.38 0 0 0-1.987-1.097zm21.402 4.399l-1.701 1.353-.687 3.916h-1.16l2.581-14.85h1.16l-1.653 9.475 1.364-1.16 4.776-3.926h1.566l-5.366 4.457 3.916 6.004h-1.364l-3.432-5.269zM90.636 32.2a4.504 4.504 0 0 1-.034-.75c.01-.247.034-.5.072-.758a5.816 5.816 0 0 1-1.73 1.257c-.651.309-1.35.457-2.098.444a3.767 3.767 0 0 1-1.185-.222 2.909 2.909 0 0 1-.966-.575 2.517 2.517 0 0 1-.634-.9 2.643 2.643 0 0 1-.183-1.193c.025-.445.122-.838.29-1.18.167-.341.383-.638.647-.89.265-.25.57-.462.914-.633.345-.17.707-.306 1.088-.406.38-.1.767-.172 1.16-.217a10.09 10.09 0 0 1 1.15-.068l2.253.01.174-1.199a2.32 2.32 0 0 0-.097-1.01 1.868 1.868 0 0 0-.473-.745 2.175 2.175 0 0 0-.774-.469 3.254 3.254 0 0 0-.996-.183 3.95 3.95 0 0 0-1.034.116 3.076 3.076 0 0 0-.919.391 2.85 2.85 0 0 0-.725.667 2.53 2.53 0 0 0-.444.933H84.96c.084-.515.268-.966.552-1.353a3.849 3.849 0 0 1 1.024-.967c.4-.258.841-.45 1.325-.575a5.49 5.49 0 0 1 1.46-.18 4.52 4.52 0 0 1 1.406.252c.435.155.808.377 1.117.667.31.29.543.643.701 1.059.158.416.211.891.16 1.426l-.842 5.066c-.058.355-.08.7-.067 1.035l.038 1.024-.01.126h-1.188zm-3.616-.831a4.186 4.186 0 0 0 2.18-.523c.325-.18.627-.4.904-.662a4.92 4.92 0 0 0 .735-.875l.396-2.3-1.963-.01c-.277 0-.568.01-.875.033a6.78 6.78 0 0 0-.913.131 5.148 5.148 0 0 0-.88.27 3.08 3.08 0 0 0-.759.44 2.255 2.255 0 0 0-.551.644 2.166 2.166 0 0 0-.266.889c-.032.31.002.583.102.822.1.238.241.441.425.609.184.167.403.296.657.387.255.09.524.138.808.145zm11.18-9.63l-.33 1.963a6.37 6.37 0 0 1 .73-.875 4.72 4.72 0 0 1 .875-.691 4.102 4.102 0 0 1 1.01-.445 3.855 3.855 0 0 1 1.137-.145c.567.013 1.047.13 1.44.353.393.222.703.514.928.875.226.36.377.776.455 1.247.077.47.087.963.029 1.48l-1.122 6.699h-1.15l1.121-6.69c.045-.387.047-.756.005-1.107a2.443 2.443 0 0 0-.295-.933 1.741 1.741 0 0 0-.662-.653c-.287-.164-.65-.253-1.088-.266-.4-.006-.775.054-1.126.18a3.922 3.922 0 0 0-.976.512c-.3.216-.573.469-.817.759-.245.29-.458.599-.639.928L96.47 32.2h-1.15l1.817-10.46h1.063zm11.72 0l-.329 1.963c.22-.316.463-.608.73-.875a4.72 4.72 0 0 1 .875-.691 4.102 4.102 0 0 1 1.01-.445 3.855 3.855 0 0 1 1.137-.145c.567.013 1.047.13 1.44.353.393.222.703.514.928.875.226.36.377.776.455 1.247.077.47.087.963.029 1.48l-1.122 6.699h-1.15l1.121-6.69c.045-.387.047-.756.005-1.107a2.443 2.443 0 0 0-.295-.933 1.741 1.741 0 0 0-.662-.653c-.287-.164-.65-.253-1.088-.266-.4-.006-.775.054-1.126.18a3.922 3.922 0 0 0-.977.512c-.3.216-.572.469-.817.759-.244.29-.457.599-.638.928l-1.256 7.27h-1.15l1.817-10.46h1.063zm22.436-.01l-.25 1.17c.283-.425.62-.76 1.01-1.005.39-.245.845-.364 1.367-.358.458.007.856.123 1.194.348.339.226.553.57.643 1.035a3.767 3.767 0 0 1 1.05-1c.402-.255.868-.38 1.396-.373.413.006.753.093 1.02.26.268.169.476.388.624.658.148.271.245.577.29.919.045.341.048.69.01 1.044l-1.325 7.773h-1.073l1.295-7.783c.026-.225.03-.45.01-.676a1.686 1.686 0 0 0-.16-.605 1.068 1.068 0 0 0-.381-.43c-.168-.11-.39-.164-.667-.164-.245 0-.479.04-.701.12-.223.081-.424.194-.605.339a2.2 2.2 0 0 0-.464.512 2.074 2.074 0 0 0-.28.653l-1.383 8.034h-1.073l1.315-7.89c.02-.225.018-.444-.005-.656a1.49 1.49 0 0 0-.169-.566 1.037 1.037 0 0 0-.387-.396c-.167-.1-.383-.15-.647-.15-.245 0-.479.04-.701.12-.223.081-.422.196-.6.344-.177.148-.33.322-.459.522s-.222.419-.28.657l-1.383 8.015h-1.083l1.818-10.46 1.034-.01zM149.24 32.2a4.504 4.504 0 0 1-.034-.75c.01-.247.034-.5.073-.758a5.816 5.816 0 0 1-1.73 1.257c-.652.309-1.351.457-2.099.444a3.767 3.767 0 0 1-1.184-.222 2.909 2.909 0 0 1-.967-.575 2.517 2.517 0 0 1-.633-.9 2.643 2.643 0 0 1-.184-1.193c.026-.445.123-.838.29-1.18.168-.341.384-.638.648-.89.264-.25.569-.462.914-.633.344-.17.707-.306 1.087-.406.38-.1.767-.172 1.16-.217a10.09 10.09 0 0 1 1.15-.068l2.253.01.174-1.199a2.32 2.32 0 0 0-.096-1.01 1.868 1.868 0 0 0-.474-.745 2.175 2.175 0 0 0-.773-.469 3.254 3.254 0 0 0-.996-.183 3.95 3.95 0 0 0-1.035.116 3.076 3.076 0 0 0-.918.391 2.85 2.85 0 0 0-.725.667 2.53 2.53 0 0 0-.445.933h-1.131c.084-.515.267-.966.551-1.353a3.849 3.849 0 0 1 1.025-.967c.4-.258.84-.45 1.324-.575a5.49 5.49 0 0 1 1.46-.18 4.52 4.52 0 0 1 1.407.252c.435.155.807.377 1.117.667.309.29.543.643.7 1.059.158.416.212.891.16 1.426l-.841 5.066c-.058.355-.08.7-.068 1.035l.039 1.024-.01.126h-1.189zm-3.616-.831a4.186 4.186 0 0 0 2.18-.523c.326-.18.627-.4.904-.662a4.92 4.92 0 0 0 .735-.875l.396-2.3-1.962-.01c-.277 0-.569.01-.875.033a6.78 6.78 0 0 0-.914.131 5.148 5.148 0 0 0-.88.27 3.08 3.08 0 0 0-.758.44 2.255 2.255 0 0 0-.552.644 2.166 2.166 0 0 0-.265.889c-.033.31.001.583.101.822.1.238.242.441.426.609.183.167.402.296.657.387.255.09.524.138.807.145zm11.18-9.63l-.329 1.963a6.37 6.37 0 0 1 .73-.875 4.72 4.72 0 0 1 .875-.691 4.102 4.102 0 0 1 1.01-.445 3.855 3.855 0 0 1 1.136-.145c.567.013 1.048.13 1.44.353.394.222.703.514.929.875.225.36.377.776.454 1.247.078.47.087.963.03 1.48l-1.122 6.699h-1.15l1.12-6.69c.046-.387.047-.756.006-1.107a2.443 2.443 0 0 0-.295-.933 1.741 1.741 0 0 0-.663-.653c-.286-.164-.649-.253-1.087-.266-.4-.006-.775.054-1.127.18a3.922 3.922 0 0 0-.976.512c-.3.216-.572.469-.817.759-.245.29-.458.599-.638.928l-1.257 7.27h-1.15l1.817-10.46h1.064z"/>
        <path fill="#F8E71C" d="M12.637 3.725H4.2v108.72h8.437v3.725H0V0h12.637z"/>
        <path fill="#000" d="M39.645 55.405h-8.993v6.181h10.512V65H26.411V43.103h14.708v3.444H30.652v5.52h8.993v3.338zm19.596-12.302l.015 14.513c0 1.223-.168 2.31-.504 3.263-.336.953-.822 1.757-1.459 2.414a6.204 6.204 0 0 1-2.33 1.496c-.918.341-1.963.512-3.136.512-1.103 0-2.098-.17-2.985-.512a6.247 6.247 0 0 1-2.279-1.488c-.632-.652-1.12-1.457-1.466-2.414-.346-.958-.52-2.048-.52-3.271l.016-14.513h4.226l.015 14.513c.01 1.413.268 2.481.774 3.203.507.722 1.246 1.083 2.219 1.083 1.032 0 1.822-.361 2.368-1.083.547-.722.825-1.79.835-3.203l.015-14.513h4.196zM70.565 56.82h-3.203V65h-4.226V43.103h7.34c1.212 0 2.31.143 3.293.429.982.285 1.822.704 2.519 1.256a5.51 5.51 0 0 1 1.609 2.06c.376.822.564 1.774.564 2.857 0 .782-.093 1.487-.278 2.113a5.801 5.801 0 0 1-.797 1.685c-.346.496-.762.93-1.249 1.3a8.278 8.278 0 0 1-1.631.963l4.707 9.038V65h-4.527l-4.12-8.181zm-3.203-3.43h3.128c1.193 0 2.113-.302 2.76-.909.647-.607.97-1.436.97-2.489 0-1.093-.316-1.943-.948-2.55-.631-.606-1.564-.909-2.797-.909h-3.113v6.858zM96.9 55.662c0 1.403-.186 2.697-.557 3.88-.37 1.183-.907 2.2-1.609 3.053a7.346 7.346 0 0 1-2.564 1.992c-1.008.477-2.143.715-3.406.715-1.264 0-2.386-.238-3.37-.715a6.979 6.979 0 0 1-2.48-2c-.672-.857-1.184-1.875-1.534-3.053-.351-1.178-.527-2.469-.527-3.872v-3.189c0-1.403.176-2.697.527-3.88.35-1.183.862-2.203 1.534-3.06a7.073 7.073 0 0 1 2.473-2.008c.978-.481 2.098-.722 3.362-.722 1.273 0 2.413.241 3.421.722a7.387 7.387 0 0 1 2.564 2.008c.702.857 1.238 1.877 1.61 3.06.37 1.183.556 2.477.556 3.88v3.189zm-4.286-3.219c0-.892-.073-1.714-.218-2.466-.146-.752-.374-1.399-.685-1.94a3.561 3.561 0 0 0-1.195-1.27c-.487-.307-1.076-.46-1.767-.46-.682 0-1.254.153-1.715.46-.461.305-.832.729-1.113 1.27-.28.541-.48 1.188-.601 1.94-.12.752-.18 1.574-.18 2.466v3.219c0 .882.06 1.7.18 2.451.12.752.32 1.404.601 1.955.281.552.652.983 1.113 1.294.461.31 1.038.466 1.73.466.681 0 1.265-.156 1.752-.466.486-.311.882-.74 1.188-1.286.306-.547.534-1.196.684-1.948.15-.752.226-1.574.226-2.466v-3.219zm11.986 4.527V65h-4.226V43.103h7.49c1.192 0 2.27.173 3.233.519.962.346 1.782.827 2.459 1.444a6.282 6.282 0 0 1 1.564 2.218c.366.862.549 1.82.549 2.872 0 .983-.183 1.89-.55 2.723a6.238 6.238 0 0 1-1.563 2.158c-.677.606-1.497 1.08-2.46 1.42-.962.342-2.04.512-3.233.512H104.6zm0-3.429h3.263c.602 0 1.123-.09 1.564-.27.442-.18.81-.427 1.106-.737.296-.311.516-.67.661-1.076.146-.406.219-.83.219-1.27 0-.512-.073-.988-.219-1.43a3.234 3.234 0 0 0-.661-1.157 3.114 3.114 0 0 0-1.106-.782c-.44-.19-.962-.286-1.564-.286H104.6v7.008zm24.754 6.888h-6.572L121.488 65h-4.452l7.174-21.897h3.835L135.083 65h-4.452l-1.278-4.572zm-5.534-3.594h4.542l-2.241-8.061-2.301 8.06zm-3.414-17.611a1.828 1.828 0 0 1 .571-1.338c.18-.17.396-.304.647-.399.25-.095.526-.143.827-.143.301 0 .577.048.827.143.251.095.467.228.647.399a1.828 1.828 0 0 1 .571 1.338c0 .26-.05.506-.15.737-.1.23-.24.429-.421.594-.18.165-.396.296-.647.391-.25.095-.526.143-.827.143-.3 0-.576-.048-.827-.143a1.992 1.992 0 0 1-.647-.391 1.733 1.733 0 0 1-.42-.594c-.101-.23-.151-.476-.151-.737zm7.219 0c0-.26.05-.506.15-.737.1-.23.24-.428.421-.594.18-.165.396-.296.647-.39.25-.096.526-.144.827-.144.3 0 .576.048.827.143.25.095.466.226.647.391.18.166.32.364.42.594.101.23.151.476.151.737a1.812 1.812 0 0 1-.571 1.354c-.18.17-.396.303-.647.398-.25.095-.526.143-.827.143-.3 0-.577-.048-.827-.143a1.926 1.926 0 0 1-.647-.398c-.18-.17-.32-.371-.421-.602-.1-.23-.15-.481-.15-.752zM138 43.103h12.662v3.414h-4.27v15.084h4.27V65h-12.662v-3.399h4.165V46.517h-4.165v-3.414zm28.92 16.182c0-.39-.068-.757-.203-1.098-.136-.34-.366-.659-.692-.955-.326-.295-.752-.566-1.278-.812-.527-.245-1.181-.474-1.963-.684a18.53 18.53 0 0 1-2.73-.978 9.939 9.939 0 0 1-2.293-1.413 6.546 6.546 0 0 1-1.587-1.925c-.396-.732-.594-1.574-.594-2.527 0-.922.196-1.76.587-2.511a5.752 5.752 0 0 1 1.624-1.925c.692-.532 1.509-.94 2.451-1.226.943-.286 1.965-.429 3.068-.429 1.143 0 2.189.166 3.136.497.947.33 1.762.794 2.444 1.39a6.338 6.338 0 0 1 1.594 2.129c.381.822.571 1.724.571 2.707h-4.12a4.301 4.301 0 0 0-.263-1.354 2.863 2.863 0 0 0-.692-1.06 3.174 3.174 0 0 0-1.143-.692c-.456-.165-.99-.248-1.602-.248a5.05 5.05 0 0 0-1.496.203 3.248 3.248 0 0 0-1.106.572 2.44 2.44 0 0 0-.684.872c-.155.336-.233.7-.233 1.09 0 .411.103.782.308 1.113.206.331.504.63.895.895a7.35 7.35 0 0 0 1.421.73c.557.22 1.186.425 1.888.616 1.002.29 1.925.647 2.767 1.068.842.42 1.566.92 2.173 1.496a6.31 6.31 0 0 1 1.414 1.97c.336.737.504 1.557.504 2.46 0 .962-.193 1.816-.58 2.563a5.546 5.546 0 0 1-1.601 1.895c-.682.517-1.494.908-2.436 1.173-.943.266-1.97.399-3.083.399-.692 0-1.382-.063-2.068-.188a9.6 9.6 0 0 1-1.97-.58 8.666 8.666 0 0 1-1.753-.977 6.625 6.625 0 0 1-1.406-1.368 6.236 6.236 0 0 1-.932-1.775c-.226-.662-.338-1.394-.338-2.196h4.15c.02.662.136 1.229.346 1.7.21.471.504.857.88 1.158.376.3.827.521 1.354.661.526.14 1.105.211 1.737.211a5.23 5.23 0 0 0 1.496-.195c.436-.13.805-.311 1.105-.542.301-.23.532-.509.692-.835.16-.325.24-.684.24-1.075zm22.318-1.143c-.07 1.103-.309 2.096-.715 2.978a6.938 6.938 0 0 1-1.631 2.256 7.111 7.111 0 0 1-2.437 1.436c-.942.336-1.985.504-3.128.504-1.293 0-2.441-.238-3.444-.715a7.046 7.046 0 0 1-2.526-2c-.682-.857-1.204-1.887-1.564-3.09-.361-1.203-.542-2.527-.542-3.97v-2.948c0-1.454.19-2.782.572-3.986.38-1.203.922-2.235 1.624-3.098a7.309 7.309 0 0 1 2.549-2.007c.998-.477 2.118-.715 3.361-.715 1.203 0 2.274.17 3.211.512.937.34 1.737.827 2.399 1.458.662.632 1.183 1.404 1.564 2.316.38.913.621 1.94.722 3.083h-4.211a7.169 7.169 0 0 0-.293-1.714c-.156-.491-.381-.9-.677-1.226a2.779 2.779 0 0 0-1.113-.737c-.446-.165-.98-.248-1.602-.248-.651 0-1.218.14-1.7.421-.48.281-.879.692-1.195 1.234-.316.541-.549 1.205-.7 1.992-.15.787-.225 1.682-.225 2.685v2.977c0 2.156.304 3.75.91 4.783.607 1.033 1.567 1.549 2.88 1.549 1.103 0 1.975-.293 2.617-.88.642-.586.998-1.536 1.068-2.85h4.226zM206.969 65h-4.18v-9.49h-6.196V65h-4.196V43.103h4.196v8.978h6.196v-8.978h4.18V65zm17.506-9.595h-8.993v6.181h10.512V65h-14.753V43.103h14.708v3.444h-10.467v5.52h8.993v3.338zM247.876 65V43.103h5.67c1.453 0 2.77.248 3.947.745a8.792 8.792 0 0 1 3.023 2.075c.837.887 1.484 1.948 1.94 3.18.457 1.234.685 2.587.685 4.061v1.805c0 1.474-.228 2.825-.685 4.053-.456 1.228-1.095 2.286-1.917 3.173a8.56 8.56 0 0 1-2.963 2.068c-1.153.491-2.426.737-3.82.737h-5.88zm4.256-18.468v15.07h1.624c.792 0 1.502-.151 2.128-.452a4.356 4.356 0 0 0 1.594-1.308c.437-.572.77-1.266 1-2.083.231-.817.346-1.747.346-2.79v-1.835c0-.982-.112-1.877-.338-2.684-.226-.807-.561-1.502-1.008-2.083a4.608 4.608 0 0 0-1.654-1.354c-.657-.32-1.416-.481-2.278-.481h-1.414zm15.25-3.429h12.663v3.414h-4.272v15.084h4.272V65h-12.663v-3.399h4.165V46.517h-4.165v-3.414zm32.604 19.34c-.27.331-.641.667-1.113 1.008-.47.34-1.03.65-1.676.925-.647.276-1.371.499-2.174.67-.802.17-1.664.255-2.586.255-1.244 0-2.366-.22-3.369-.662a7.111 7.111 0 0 1-2.572-1.91c-.712-.832-1.26-1.852-1.646-3.06-.386-1.208-.58-2.58-.58-4.114v-2.977c0-1.534.204-2.905.61-4.113.406-1.209.967-2.234 1.684-3.076a7.23 7.23 0 0 1 2.527-1.925c.967-.441 2.017-.662 3.15-.662 1.233 0 2.309.156 3.226.467.917.31 1.692.759 2.324 1.346a6.147 6.147 0 0 1 1.481 2.143c.356.842.589 1.79.7 2.842h-4.121c-.14-1.123-.48-1.968-1.016-2.534-.536-.567-1.366-.85-2.489-.85-.54 0-1.042.138-1.503.414-.462.276-.863.679-1.204 1.21-.34.532-.611 1.191-.812 1.978-.2.787-.3 1.697-.3 2.73v3.007c.01 2.046.35 3.612 1.022 4.7s1.7 1.637 3.083 1.647a6.323 6.323 0 0 0 1.88-.286c.28-.09.529-.193.745-.308.215-.115.378-.238.488-.369l.015-3.97h-3.624v-3.158h7.835l.015 8.632zm4.362-19.34h12.663v3.414h-4.272v15.084h4.272V65h-12.663v-3.399h4.165V46.517h-4.165v-3.414zm33.642 3.444h-6.752V65h-4.242V46.547h-6.662v-3.444h17.656v3.444zm13.16 13.881h-6.573L343.284 65h-4.452l7.174-21.897h3.835L356.879 65h-4.451l-1.279-4.572zm-5.535-3.594h4.542l-2.241-8.061-2.301 8.06zm17.776 4.752h10.257V65H359.15V43.103h4.241v18.483zm27.431-6.18h-8.993v6.18h10.512V65h-14.753V43.103h14.708v3.444H381.83v5.52h8.993v3.338z"/>
        <path fill="#FFF" d="M41.375 88.942c-.07 1.103-.309 2.096-.715 2.978a6.938 6.938 0 0 1-1.631 2.256 7.111 7.111 0 0 1-2.437 1.436c-.942.336-1.985.504-3.128.504-1.293 0-2.441-.238-3.444-.715a7.046 7.046 0 0 1-2.526-2c-.682-.857-1.204-1.887-1.565-3.09-.36-1.203-.54-2.527-.54-3.97v-2.948c0-1.454.19-2.782.57-3.986.382-1.203.923-2.235 1.625-3.098a7.309 7.309 0 0 1 2.549-2.007c.998-.477 2.118-.715 3.361-.715 1.203 0 2.274.17 3.211.512.937.34 1.737.827 2.399 1.458.661.632 1.183 1.404 1.564 2.316.38.913.621 1.94.722 3.083h-4.211a7.169 7.169 0 0 0-.294-1.714c-.155-.491-.38-.9-.676-1.226a2.779 2.779 0 0 0-1.113-.737c-.446-.165-.98-.248-1.602-.248-.652 0-1.218.14-1.7.421-.48.281-.88.692-1.195 1.234-.316.541-.549 1.205-.7 1.992-.15.787-.225 1.682-.225 2.685v2.977c0 2.156.304 3.75.91 4.783.607 1.033 1.567 1.549 2.88 1.549 1.103 0 1.975-.293 2.617-.88.642-.586.997-1.536 1.068-2.85h4.226zm17.73 6.858h-4.18v-9.49h-6.196v9.49h-4.196V73.903h4.196v8.978h6.196v-8.978h4.18V95.8zm14.8-4.572h-6.573L66.039 95.8h-4.452l7.174-21.897h3.835L79.634 95.8h-4.452l-1.278-4.572zm-5.535-3.594h4.542l-2.241-8.061-2.301 8.06zm18.438-13.73l2.075 8.225 2.361-8.226h5.249V95.8h-3.88v-6.482l.18-10.241-2.872 9.504h-2.09l-2.572-9.098.18 9.835V95.8h-3.88V73.903h5.249zm17.79 13.865V95.8h-4.225V73.903h7.49c1.192 0 2.27.173 3.233.519.962.346 1.782.827 2.459 1.444a6.282 6.282 0 0 1 1.564 2.218c.366.862.549 1.82.549 2.872 0 .983-.183 1.89-.55 2.723a6.238 6.238 0 0 1-1.563 2.158c-.677.606-1.497 1.08-2.46 1.42-.962.342-2.04.512-3.233.512H104.6zm0-3.429h3.264c.602 0 1.123-.09 1.564-.27.442-.18.81-.427 1.106-.737.296-.311.516-.67.661-1.076.146-.406.219-.83.219-1.27 0-.512-.073-.988-.219-1.43a3.234 3.234 0 0 0-.661-1.157 3.114 3.114 0 0 0-1.106-.782c-.44-.19-.962-.286-1.564-.286H104.6v7.008zm14.92-10.437h12.662v3.414h-4.27v15.084h4.27V95.8h-12.662v-3.399h4.165V77.317h-4.165v-3.414zm32.83 12.558c0 1.403-.186 2.697-.557 3.88-.37 1.183-.907 2.2-1.609 3.053a7.346 7.346 0 0 1-2.564 1.992c-1.008.477-2.143.715-3.406.715-1.264 0-2.386-.238-3.369-.715a6.979 6.979 0 0 1-2.481-2c-.672-.857-1.184-1.875-1.534-3.053-.351-1.178-.527-2.469-.527-3.872v-3.189c0-1.403.176-2.697.527-3.88.35-1.183.862-2.203 1.534-3.06a7.073 7.073 0 0 1 2.473-2.008c.978-.481 2.098-.722 3.362-.722 1.273 0 2.413.241 3.421.722a7.387 7.387 0 0 1 2.564 2.008c.702.857 1.238 1.877 1.61 3.06.37 1.183.556 2.477.556 3.88v3.189zm-4.286-3.219c0-.892-.073-1.714-.218-2.466-.146-.752-.374-1.399-.685-1.94a3.561 3.561 0 0 0-1.195-1.27c-.486-.307-1.076-.46-1.767-.46-.682 0-1.254.153-1.715.46-.461.305-.832.729-1.113 1.27-.28.541-.48 1.188-.601 1.94-.12.752-.18 1.574-.18 2.466v3.219c0 .882.06 1.7.18 2.451.12.752.32 1.404.601 1.955.281.552.652.983 1.113 1.294.461.31 1.038.466 1.73.466.681 0 1.266-.156 1.752-.466.486-.311.882-.74 1.188-1.286.306-.547.534-1.196.684-1.948.15-.752.226-1.574.226-2.466v-3.219zM169.989 95.8h-4.211l-6.091-14.122V95.8h-4.256V73.903h4.256l6.046 14.062.015-14.062h4.24V95.8zm15.415-5.715c0-.39-.068-.757-.203-1.098-.136-.34-.366-.659-.692-.955-.326-.295-.752-.566-1.278-.812-.527-.245-1.181-.474-1.963-.684a18.53 18.53 0 0 1-2.73-.978 9.939 9.939 0 0 1-2.293-1.413 6.546 6.546 0 0 1-1.587-1.925c-.396-.732-.594-1.574-.594-2.527 0-.922.196-1.76.587-2.511a5.752 5.752 0 0 1 1.624-1.925c.692-.532 1.509-.94 2.451-1.226.943-.286 1.965-.429 3.068-.429 1.143 0 2.189.166 3.136.497.947.33 1.762.794 2.444 1.39a6.338 6.338 0 0 1 1.594 2.129c.381.822.571 1.724.571 2.707h-4.12a4.301 4.301 0 0 0-.263-1.354 2.863 2.863 0 0 0-.692-1.06 3.174 3.174 0 0 0-1.143-.692c-.456-.165-.99-.248-1.602-.248a5.05 5.05 0 0 0-1.496.203 3.248 3.248 0 0 0-1.106.572 2.44 2.44 0 0 0-.684.872c-.155.336-.233.7-.233 1.09 0 .411.103.782.308 1.113.206.331.504.63.895.895a7.35 7.35 0 0 0 1.421.73c.557.22 1.186.425 1.888.616 1.002.29 1.925.647 2.767 1.068.842.42 1.566.92 2.173 1.496a6.31 6.31 0 0 1 1.414 1.97c.336.737.504 1.557.504 2.46 0 .962-.193 1.816-.58 2.563a5.546 5.546 0 0 1-1.601 1.895c-.682.517-1.494.908-2.436 1.173-.943.266-1.97.399-3.083.399-.692 0-1.382-.063-2.068-.188a9.6 9.6 0 0 1-1.97-.58 8.666 8.666 0 0 1-1.753-.977 6.625 6.625 0 0 1-1.406-1.368 6.235 6.235 0 0 1-.932-1.775c-.226-.662-.338-1.394-.338-2.196h4.15c.02.662.136 1.229.346 1.7.21.471.504.857.88 1.158.376.3.827.521 1.354.661.526.14 1.105.211 1.737.211a5.23 5.23 0 0 0 1.496-.195c.436-.13.805-.311 1.105-.542.301-.23.532-.509.692-.835.16-.325.24-.684.24-1.075zm40.049 5.715h-4.181v-9.49h-6.196v9.49h-4.196V73.903h4.196v8.978h6.196v-8.978h4.18V95.8zm17.505-9.595h-8.993v6.181h10.512V95.8h-14.753V73.903h14.708v3.444h-10.467v5.52h8.993v3.338zm12.438 1.414h-3.204V95.8h-4.226V73.903h7.34c1.212 0 2.31.143 3.293.429.982.285 1.822.704 2.519 1.256a5.51 5.51 0 0 1 1.61 2.06c.375.822.563 1.774.563 2.857 0 .782-.093 1.487-.278 2.113a5.801 5.801 0 0 1-.797 1.685c-.346.496-.762.93-1.249 1.3a8.278 8.278 0 0 1-1.631.963l4.707 9.038v.196h-4.527l-4.12-8.181zm-3.204-3.43h3.128c1.193 0 2.113-.302 2.76-.909.647-.607.97-1.436.97-2.489 0-1.093-.316-1.943-.947-2.55-.632-.606-1.565-.909-2.798-.909h-3.113v6.858zm21.506 5.49l4.136-15.776h4.662L275.864 95.8h-4.301l-6.618-21.897h4.662l4.091 15.776zm26.514-3.218c0 1.403-.186 2.697-.557 3.88-.37 1.183-.907 2.2-1.609 3.053a7.346 7.346 0 0 1-2.564 1.992c-1.007.477-2.143.715-3.406.715-1.264 0-2.386-.238-3.369-.715a6.979 6.979 0 0 1-2.481-2c-.672-.857-1.183-1.875-1.534-3.053s-.527-2.469-.527-3.872v-3.189c0-1.403.176-2.697.527-3.88.35-1.183.862-2.203 1.534-3.06a7.073 7.073 0 0 1 2.474-2.008c.977-.481 2.097-.722 3.36-.722 1.274 0 2.415.241 3.422.722a7.387 7.387 0 0 1 2.564 2.008c.702.857 1.239 1.877 1.61 3.06.37 1.183.556 2.477.556 3.88v3.189zm-4.286-3.219c0-.892-.073-1.714-.218-2.466-.146-.752-.374-1.399-.685-1.94a3.561 3.561 0 0 0-1.195-1.27c-.486-.307-1.075-.46-1.767-.46-.682 0-1.254.153-1.715.46-.46.305-.832.729-1.113 1.27-.28.541-.48 1.188-.601 1.94-.12.752-.18 1.574-.18 2.466v3.219c0 .882.06 1.7.18 2.451.12.752.32 1.404.601 1.955.281.552.652.983 1.113 1.294.461.31 1.038.466 1.73.466.682 0 1.266-.156 1.752-.466.486-.311.882-.74 1.188-1.286.306-.547.534-1.196.684-1.948.15-.752.226-1.574.226-2.466v-3.219zm14.919 4.377h-3.204V95.8h-4.226V73.903h7.34c1.212 0 2.31.143 3.293.429.982.285 1.822.704 2.519 1.256a5.51 5.51 0 0 1 1.61 2.06c.375.822.563 1.774.563 2.857 0 .782-.093 1.487-.278 2.113a5.801 5.801 0 0 1-.797 1.685c-.346.496-.762.93-1.248 1.3a8.278 8.278 0 0 1-1.632.963l4.707 9.038v.196h-4.527l-4.12-8.181zm-3.204-3.43h3.128c1.193 0 2.113-.302 2.76-.909.647-.607.97-1.436.97-2.489 0-1.093-.316-1.943-.947-2.55-.632-.606-1.564-.909-2.798-.909h-3.113v6.858zM321.868 95.8V73.903h7.354c1.193 0 2.279.12 3.256.361.978.24 1.812.607 2.504 1.098a4.997 4.997 0 0 1 1.602 1.865c.376.752.564 1.639.564 2.662-.01 1.022-.283 1.94-.82 2.752-.536.812-1.326 1.429-2.368 1.85.631.16 1.178.4 1.639.722a4.59 4.59 0 0 1 1.827 2.564c.145.516.218 1.05.218 1.601 0 1.053-.18 1.98-.541 2.783a5.39 5.39 0 0 1-1.55 2.015c-.671.541-1.488.947-2.45 1.218-.963.27-2.046.406-3.25.406h-7.985zm4.241-9.655v6.241h3.76c1.153-.01 2.033-.293 2.64-.85.606-.556.91-1.285.91-2.188.01-1.002-.262-1.784-.813-2.346-.551-.561-1.404-.847-2.557-.857h-3.94zm0-3.053h3.143c1.173-.01 2.076-.256 2.707-.737.632-.481.953-1.188.963-2.12 0-1.023-.316-1.757-.948-2.204-.631-.446-1.544-.674-2.737-.684h-3.128v5.745zm21.702 4.527h-3.204V95.8h-4.226V73.903h7.34c1.212 0 2.31.143 3.293.429.982.285 1.822.704 2.519 1.256a5.51 5.51 0 0 1 1.61 2.06c.375.822.563 1.774.563 2.857 0 .782-.093 1.487-.278 2.113a5.801 5.801 0 0 1-.797 1.685c-.346.496-.762.93-1.248 1.3a8.278 8.278 0 0 1-1.632.963l4.707 9.038v.196h-4.527l-4.12-8.181zm-3.204-3.43h3.128c1.193 0 2.113-.302 2.76-.909.647-.607.97-1.436.97-2.489 0-1.093-.316-1.943-.947-2.55-.632-.606-1.564-.909-2.798-.909h-3.113v6.858zm15.19-10.286h12.663v3.414h-4.272v15.084h4.272V95.8h-12.663v-3.399h4.166V77.317h-4.166v-3.414zM391.785 95.8h-4.211l-6.091-14.122V95.8h-4.256V73.903h4.256l6.046 14.062.015-14.062h4.24V95.8zm19.1-2.557c-.271.331-.642.667-1.114 1.008-.47.34-1.03.65-1.676.925-.647.276-1.371.499-2.174.67-.802.17-1.664.255-2.586.255-1.243 0-2.366-.22-3.369-.662a7.111 7.111 0 0 1-2.572-1.91c-.712-.832-1.26-1.852-1.646-3.06-.386-1.208-.58-2.58-.58-4.114v-2.977c0-1.534.204-2.905.61-4.113.406-1.209.967-2.234 1.684-3.076a7.23 7.23 0 0 1 2.527-1.925c.967-.441 2.017-.662 3.15-.662 1.233 0 2.309.156 3.226.467.918.31 1.692.759 2.324 1.346a6.147 6.147 0 0 1 1.481 2.143c.356.842.59 1.79.7 2.842h-4.121c-.14-1.123-.48-1.968-1.015-2.534-.537-.567-1.367-.85-2.49-.85-.54 0-1.042.138-1.503.414-.462.276-.863.679-1.203 1.21-.341.532-.612 1.191-.813 1.978-.2.787-.3 1.697-.3 2.73v3.007c.01 2.046.35 3.612 1.022 4.7s1.7 1.637 3.083 1.647a6.323 6.323 0 0 0 1.88-.286c.28-.09.529-.193.745-.308.215-.115.378-.238.488-.369l.015-3.97h-3.624v-3.158h7.835l.015 8.632zm16.903-7.038h-8.993v6.181h10.512V95.8h-14.753V73.903h14.708v3.444h-10.467v5.52h8.993v3.338zm19.446 9.595h-4.211l-6.091-14.122V95.8h-4.256V73.903h4.256l6.046 14.062.015-14.062h4.24V95.8zm9.58-6.647c0-.692.017-1.279.052-1.76.035-.481.118-.915.248-1.3.13-.387.326-.743.587-1.068.26-.326.627-.675 1.098-1.046.34-.31.682-.639 1.022-.985.341-.346.65-.702.925-1.068.276-.365.5-.739.67-1.12.17-.38.255-.762.255-1.143 0-.912-.245-1.579-.737-2-.49-.421-1.208-.632-2.15-.632-.361 0-.712.048-1.053.143-.34.095-.644.248-.91.459a2.37 2.37 0 0 0-.646.812c-.166.33-.254.727-.264 1.188h-4.196c.01-1.023.201-1.912.572-2.67a5.413 5.413 0 0 1 1.504-1.887 6.377 6.377 0 0 1 2.226-1.12 9.955 9.955 0 0 1 2.767-.369c1.113 0 2.11.126 2.993.376.882.25 1.626.624 2.233 1.12a4.87 4.87 0 0 1 1.391 1.843c.32.732.481 1.58.481 2.542 0 .711-.12 1.36-.36 1.947a7.363 7.363 0 0 1-.933 1.64c-.381.506-.815.987-1.301 1.443-.486.456-.975.9-1.466 1.331-.301.3-.537.567-.707.797-.17.23-.293.466-.369.707-.075.24-.122.504-.142.79-.02.285-.03.629-.03 1.03h-3.76zm-.617 4.557c0-.331.055-.64.166-.925.11-.286.27-.534.48-.745.211-.21.467-.373.768-.489a2.84 2.84 0 0 1 1.022-.172c.371 0 .71.057 1.016.172.305.116.564.279.774.49.21.21.374.458.489.744.115.285.173.594.173.925 0 .32-.058.621-.173.902-.115.28-.278.521-.489.722-.21.2-.469.358-.774.474a2.857 2.857 0 0 1-1.016.172 2.84 2.84 0 0 1-1.022-.172 2.28 2.28 0 0 1-.767-.474c-.21-.2-.371-.441-.481-.722a2.445 2.445 0 0 1-.166-.902z"/>
    </g>
</svg>
