<svg xmlns="http://www.w3.org/2000/svg" width="375" height="117" viewBox="0 0 375 117">
    <g fill="none" fill-rule="evenodd">
        <path fill="#FFF" d="M34.177 29.917a7.088 7.088 0 0 1-.652 1.755 5.633 5.633 0 0 1-1.083 1.44c-.429.41-.923.73-1.484.962-.56.232-1.18.339-1.856.32-.542-.02-1.017-.123-1.426-.31a3.316 3.316 0 0 1-1.054-.75 3.994 3.994 0 0 1-.72-1.082 6.033 6.033 0 0 1-.421-1.296 7.673 7.673 0 0 1-.155-1.392c-.01-.474.018-.933.082-1.377l.33-2.04c.083-.484.2-.975.352-1.475.152-.5.343-.981.575-1.445.232-.464.501-.9.808-1.305a5.511 5.511 0 0 1 1.044-1.059c.39-.3.822-.533 1.295-.7a4.32 4.32 0 0 1 1.552-.233c.644.013 1.205.143 1.682.392.477.248.875.576 1.194.986.32.409.558.883.716 1.421.158.538.24 1.107.246 1.706h-1.131a6.117 6.117 0 0 0-.174-1.285 3.585 3.585 0 0 0-.479-1.122 2.509 2.509 0 0 0-.846-.798c-.348-.203-.77-.31-1.266-.323a3.148 3.148 0 0 0-1.252.203 3.596 3.596 0 0 0-1.025.613 4.4 4.4 0 0 0-.807.914 7.506 7.506 0 0 0-.61 1.107c-.173.39-.318.79-.434 1.199-.116.41-.207.804-.271 1.184l-.348 2.07a8.51 8.51 0 0 0-.039 2.223c.045.38.126.747.242 1.102.116.354.279.669.488.943.21.274.47.497.783.672.313.174.688.267 1.127.28.541.02 1.023-.063 1.445-.247a3.59 3.59 0 0 0 1.117-.759c.322-.322.597-.699.826-1.13.23-.433.418-.88.566-1.345l1.063-.019zm2.794-1.034a7.203 7.203 0 0 1 .87-2.62c.226-.4.492-.769.798-1.107a5.122 5.122 0 0 1 1.02-.87c.374-.242.78-.43 1.218-.561a4.466 4.466 0 0 1 1.412-.18 3.93 3.93 0 0 1 1.29.238 3.5 3.5 0 0 1 1.016.585c.293.245.541.535.744.87.203.335.363.694.479 1.078.116.383.191.784.227 1.203.035.42.03.842-.015 1.267l-.038.329a7.132 7.132 0 0 1-.566 1.996 6.262 6.262 0 0 1-1.112 1.702 5.14 5.14 0 0 1-1.605 1.174 4.436 4.436 0 0 1-2.035.406c-.709-.019-1.316-.18-1.822-.483a3.601 3.601 0 0 1-1.218-1.184A4.71 4.71 0 0 1 37 31.072a6.269 6.269 0 0 1-.067-1.87l.038-.32zm1.112.328c-.051.47-.048.951.01 1.44.058.49.19.939.396 1.345.207.406.492.74.856 1.005.364.264.826.406 1.387.426a3.161 3.161 0 0 0 1.605-.348c.477-.252.89-.584 1.238-.996.348-.413.628-.88.84-1.402a6.763 6.763 0 0 0 .436-1.576l.038-.31c.052-.47.049-.953-.01-1.45a4.083 4.083 0 0 0-.396-1.363 2.822 2.822 0 0 0-.86-1.025c-.367-.27-.831-.415-1.392-.435-.6-.019-1.136.1-1.61.358a4.234 4.234 0 0 0-1.233 1.01 5.231 5.231 0 0 0-.84 1.417 6.59 6.59 0 0 0-.426 1.576l-.039.328zM50.11 23.73l-.251 1.17c.283-.426.62-.761 1.01-1.006s.846-.364 1.368-.358c.458.007.856.123 1.194.348.338.226.553.57.643 1.035a3.767 3.767 0 0 1 1.049-1c.403-.255.869-.38 1.397-.373.413.006.753.093 1.02.26.267.169.475.388.624.658.148.271.244.577.29.919.045.341.048.69.01 1.044L57.138 34.2h-1.073l1.295-7.783c.026-.225.03-.45.01-.676a1.686 1.686 0 0 0-.16-.605 1.068 1.068 0 0 0-.382-.43c-.167-.11-.39-.164-.667-.164-.245 0-.478.04-.7.12-.223.081-.424.194-.605.339a2.2 2.2 0 0 0-.464.512 2.074 2.074 0 0 0-.28.653L52.73 34.2h-1.073l1.315-7.89c.02-.225.018-.444-.005-.656a1.49 1.49 0 0 0-.17-.566 1.037 1.037 0 0 0-.386-.396c-.167-.1-.383-.15-.648-.15-.245 0-.478.04-.7.12-.223.081-.423.196-.6.344-.177.148-.33.322-.46.522-.128.2-.222.419-.28.657L48.341 34.2h-1.083l1.818-10.46 1.034-.01zm11.621 0l-.251 1.17c.283-.426.62-.761 1.01-1.006s.846-.364 1.368-.358c.458.007.856.123 1.194.348.338.226.553.57.643 1.035a3.767 3.767 0 0 1 1.049-1c.403-.255.868-.38 1.397-.373.412.006.752.093 1.02.26.267.169.475.388.623.658.149.271.245.577.29.919.046.341.049.69.01 1.044L68.76 34.2h-1.073l1.295-7.783c.026-.225.029-.45.01-.676a1.686 1.686 0 0 0-.16-.605 1.068 1.068 0 0 0-.382-.43c-.167-.11-.39-.164-.667-.164-.245 0-.478.04-.7.12-.223.081-.425.194-.605.339a2.2 2.2 0 0 0-.464.512 2.074 2.074 0 0 0-.28.653L64.35 34.2h-1.073l1.315-7.89c.02-.225.017-.444-.005-.656a1.49 1.49 0 0 0-.17-.566 1.037 1.037 0 0 0-.386-.396c-.168-.1-.383-.15-.648-.15-.245 0-.478.04-.7.12-.223.081-.423.196-.6.344-.177.148-.33.322-.46.522-.128.2-.222.419-.28.657L59.962 34.2h-1.083l1.818-10.46 1.034-.01zm14.164 10.663c-.703-.019-1.315-.174-1.837-.464-.522-.29-.95-.67-1.281-1.14a4.58 4.58 0 0 1-.71-1.615 5.69 5.69 0 0 1-.117-1.876l.048-.425a6.7 6.7 0 0 1 .315-1.325c.151-.438.343-.857.575-1.256.232-.4.503-.77.812-1.112.31-.342.653-.635 1.03-.88a4.872 4.872 0 0 1 1.223-.57c.438-.136.899-.197 1.382-.184.664.02 1.231.167 1.702.445.47.277.849.638 1.136 1.082.287.445.483.951.59 1.518.106.567.127 1.15.062 1.75l-.087.706H73.14l-.048.232c-.071.49-.063.976.024 1.46.087.483.253.92.498 1.31a3 3 0 0 0 .962.957c.396.248.865.382 1.407.401a3.624 3.624 0 0 0 1.754-.348 5.498 5.498 0 0 0 1.465-1.044l.687.551a4.97 4.97 0 0 1-1.79 1.378 5.07 5.07 0 0 1-2.203.45zm1.382-9.861c-.522-.02-.996.07-1.421.27-.425.2-.804.466-1.136.798a5.086 5.086 0 0 0-.856 1.146 7.86 7.86 0 0 0-.58 1.315l6.41.01.03-.146a3.675 3.675 0 0 0-.03-1.218 2.97 2.97 0 0 0-.43-1.078 2.38 2.38 0 0 0-1.987-1.097zm8.701-.793l-.328 1.963a6.37 6.37 0 0 1 .73-.875 4.72 4.72 0 0 1 .874-.691 4.102 4.102 0 0 1 1.01-.445 3.855 3.855 0 0 1 1.137-.145c.567.013 1.047.13 1.44.353.393.222.703.514.928.875.226.36.377.776.455 1.247.077.47.087.963.029 1.48L91.13 34.2h-1.15l1.121-6.69c.045-.387.047-.756.005-1.107a2.443 2.443 0 0 0-.295-.933 1.741 1.741 0 0 0-.662-.653c-.287-.164-.65-.253-1.088-.266-.4-.006-.775.054-1.126.18a3.922 3.922 0 0 0-.976.512c-.3.216-.572.469-.817.759-.245.29-.458.599-.638.928l-1.257 7.27h-1.15l1.817-10.46h1.063zm14.792-2.678l-.473 2.678h3.77l-.174.948h-3.751L99.04 31.28c-.071.651.043 1.157.343 1.518.3.361.778.551 1.436.57.309.013.615-.001.918-.043a29.5 29.5 0 0 0 .909-.14l.087.89a5.32 5.32 0 0 1-1.068.256c-.365.048-.73.066-1.098.053-.477-.007-.892-.087-1.247-.242a2.36 2.36 0 0 1-.875-.638 2.406 2.406 0 0 1-.488-.977 3.835 3.835 0 0 1-.087-1.266l1.092-6.574H96.14l.174-.948h2.814l.473-2.678h1.17zm26.694 3.626h-4.032l-1.644 9.513H120.6l1.663-9.513h-2.765l.165-.948h2.765l.116-.831c.09-.625.262-1.181.517-1.668.254-.487.58-.894.976-1.223a4.027 4.027 0 0 1 1.378-.74 5.552 5.552 0 0 1 1.73-.236c.361.006.716.035 1.064.087.348.051.696.116 1.044.193l-.26.976a7.224 7.224 0 0 0-1.79-.26 4.329 4.329 0 0 0-1.31.169c-.396.119-.744.298-1.044.536-.3.239-.546.538-.74.9-.193.36-.328.78-.405 1.256l-.126.841h4.06l-.173.948zm9.165 9.513a4.504 4.504 0 0 1-.034-.75c.01-.247.034-.5.072-.758a5.816 5.816 0 0 1-1.73 1.257c-.651.309-1.35.457-2.098.444a3.767 3.767 0 0 1-1.184-.222 2.909 2.909 0 0 1-.967-.575 2.517 2.517 0 0 1-.633-.9 2.643 2.643 0 0 1-.184-1.193c.026-.445.122-.838.29-1.18.168-.341.383-.638.648-.89.264-.25.568-.462.913-.633.345-.17.708-.306 1.088-.406.38-.1.767-.172 1.16-.217a10.09 10.09 0 0 1 1.15-.068l2.253.01.174-1.199a2.32 2.32 0 0 0-.096-1.01 1.868 1.868 0 0 0-.474-.745 2.175 2.175 0 0 0-.774-.469 3.254 3.254 0 0 0-.995-.183 3.95 3.95 0 0 0-1.035.116 3.076 3.076 0 0 0-.918.391 2.85 2.85 0 0 0-.725.667 2.53 2.53 0 0 0-.445.933h-1.131c.084-.515.267-.966.55-1.353a3.849 3.849 0 0 1 1.026-.967c.4-.258.84-.45 1.324-.575a5.49 5.49 0 0 1 1.46-.18 4.52 4.52 0 0 1 1.407.252c.435.155.807.377 1.116.667.31.29.543.643.701 1.059.158.416.211.891.16 1.426l-.841 5.066c-.058.355-.08.7-.068 1.035l.039 1.024-.01.126h-1.19zm-3.616-.831a4.186 4.186 0 0 0 2.18-.523c.326-.18.627-.4.904-.662a4.92 4.92 0 0 0 .735-.875l.396-2.3-1.962-.01c-.278 0-.57.01-.875.033-.306.023-.611.067-.914.131a5.148 5.148 0 0 0-.88.27 3.08 3.08 0 0 0-.759.44 2.255 2.255 0 0 0-.55.644 2.166 2.166 0 0 0-.267.889c-.032.31.002.583.102.822.1.238.242.441.425.609.184.167.403.296.658.387.254.09.523.138.807.145zm10.277-9.63h4.737l-1.643 9.436h3.46l-.183 1.025h-8.189l.184-1.025h3.577l1.46-8.401h-3.587l.184-1.035zm3.751-2.842a.975.975 0 0 1 .261-.643.867.867 0 0 1 .638-.266c.258-.006.464.074.62.242a.825.825 0 0 1 .212.628.896.896 0 0 1-.9.88c-.257.006-.463-.07-.618-.227-.155-.158-.226-.363-.213-.614zm14.29 2.64c.547 0 1.076.07 1.585.212l-.28 1.102a12.91 12.91 0 0 0-.774-.13 6.997 6.997 0 0 0-.783-.063 5.065 5.065 0 0 0-2.663.72 4.3 4.3 0 0 0-1.05.9 3.316 3.316 0 0 0-.657 1.241l-1.131 6.681h-1.19l1.818-10.46h1.112l-.3 1.798-.057.232a5.64 5.64 0 0 1 1.904-1.663c.741-.394 1.563-.584 2.465-.57zm7.54 10.856c-.702-.019-1.314-.174-1.836-.464-.522-.29-.95-.67-1.281-1.14a4.58 4.58 0 0 1-.711-1.615 5.69 5.69 0 0 1-.116-1.876l.048-.425a6.7 6.7 0 0 1 .315-1.325c.151-.438.343-.857.575-1.256.232-.4.502-.77.812-1.112.31-.342.652-.635 1.03-.88a4.872 4.872 0 0 1 1.222-.57c.439-.136.9-.197 1.383-.184.664.02 1.231.167 1.702.445.47.277.849.638 1.136 1.082.286.445.483.951.59 1.518.106.567.127 1.15.062 1.75l-.087.706h-7.599l-.048.232c-.071.49-.063.976.024 1.46.087.483.253.92.498 1.31a3 3 0 0 0 .962.957c.396.248.865.382 1.406.401a3.624 3.624 0 0 0 1.755-.348 5.498 5.498 0 0 0 1.465-1.044l.686.551a4.97 4.97 0 0 1-1.788 1.378 5.07 5.07 0 0 1-2.205.45zm1.383-9.861c-.522-.02-.996.07-1.421.27-.426.2-.804.466-1.136.798a5.086 5.086 0 0 0-.856 1.146 7.86 7.86 0 0 0-.58 1.315l6.41.01.029-.146a3.675 3.675 0 0 0-.029-1.218 2.97 2.97 0 0 0-.43-1.078 2.38 2.38 0 0 0-1.987-1.097zm21.86 9.861c-.703-.019-1.316-.174-1.838-.464-.522-.29-.949-.67-1.28-1.14a4.58 4.58 0 0 1-.711-1.615 5.69 5.69 0 0 1-.116-1.876l.048-.425a6.7 6.7 0 0 1 .314-1.325c.152-.438.344-.857.576-1.256.232-.4.502-.77.812-1.112.309-.342.652-.635 1.03-.88a4.873 4.873 0 0 1 1.222-.57c.439-.136.9-.197 1.383-.184.664.02 1.23.167 1.701.445.47.277.85.638 1.136 1.082.287.445.484.951.59 1.518.106.567.127 1.15.063 1.75l-.087.706h-7.6l-.047.232c-.071.49-.063.976.024 1.46.087.483.253.92.498 1.31a3 3 0 0 0 .962.957c.396.248.865.382 1.406.401a3.624 3.624 0 0 0 1.755-.348 5.498 5.498 0 0 0 1.465-1.044l.686.551a4.97 4.97 0 0 1-1.788 1.378 5.07 5.07 0 0 1-2.205.45zm1.382-9.861c-.522-.02-.996.07-1.421.27-.426.2-.804.466-1.136.798a5.086 5.086 0 0 0-.856 1.146 7.86 7.86 0 0 0-.58 1.315l6.41.01.029-.146a3.675 3.675 0 0 0-.03-1.218 2.97 2.97 0 0 0-.43-1.078 2.38 2.38 0 0 0-1.987-1.097zm1.866-4.911h1.46l-2.572 2.562h-1.025l2.137-2.562zm5.83 4.109l-.252 1.17c.284-.426.62-.761 1.01-1.006s.846-.364 1.368-.358c.458.007.856.123 1.194.348.339.226.553.57.643 1.035a3.767 3.767 0 0 1 1.05-1c.402-.255.868-.38 1.396-.373.413.006.753.093 1.02.26.268.169.476.388.624.658.148.271.245.577.29.919.045.341.048.69.01 1.044L208.22 34.2h-1.073l1.295-7.783c.026-.225.03-.45.01-.676a1.686 1.686 0 0 0-.16-.605 1.068 1.068 0 0 0-.381-.43c-.168-.11-.39-.164-.667-.164-.245 0-.479.04-.701.12-.223.081-.424.194-.605.339a2.2 2.2 0 0 0-.464.512 2.074 2.074 0 0 0-.28.653l-1.382 8.034h-1.074l1.315-7.89c.02-.225.018-.444-.005-.656a1.49 1.49 0 0 0-.169-.566 1.037 1.037 0 0 0-.387-.396c-.167-.1-.383-.15-.647-.15-.245 0-.479.04-.701.12-.223.081-.422.196-.6.344-.177.148-.33.322-.459.522s-.222.419-.28.657l-1.383 8.015h-1.083l1.818-10.46 1.035-.01zm14.163 10.663c-.702-.019-1.315-.174-1.837-.464-.522-.29-.949-.67-1.28-1.14a4.58 4.58 0 0 1-.711-1.615 5.69 5.69 0 0 1-.116-1.876l.048-.425a6.7 6.7 0 0 1 .314-1.325c.152-.438.343-.857.575-1.256.232-.4.503-.77.812-1.112.31-.342.653-.635 1.03-.88a4.872 4.872 0 0 1 1.223-.57c.438-.136.9-.197 1.383-.184.663.02 1.23.167 1.701.445.47.277.85.638 1.136 1.082.287.445.484.951.59 1.518.106.567.127 1.15.063 1.75l-.087.706h-7.6l-.048.232c-.07.49-.062.976.025 1.46.087.483.253.92.497 1.31a3 3 0 0 0 .962.957c.397.248.866.382 1.407.401a3.624 3.624 0 0 0 1.755-.348 5.498 5.498 0 0 0 1.465-1.044l.686.551a4.97 4.97 0 0 1-1.789 1.378 5.07 5.07 0 0 1-2.204.45zm1.383-9.861c-.522-.02-.996.07-1.422.27-.425.2-.804.466-1.136.798a5.086 5.086 0 0 0-.855 1.146 7.86 7.86 0 0 0-.58 1.315l6.41.01.029-.146a3.675 3.675 0 0 0-.03-1.218 2.97 2.97 0 0 0-.43-1.078 2.38 2.38 0 0 0-1.987-1.097zm14.318-.996c.548 0 1.076.071 1.585.213l-.28 1.102a12.91 12.91 0 0 0-.773-.13 6.997 6.997 0 0 0-.784-.063 5.065 5.065 0 0 0-2.663.72 4.3 4.3 0 0 0-1.049.9 3.316 3.316 0 0 0-.657 1.241l-1.132 6.681h-1.189l1.818-10.46h1.112l-.3 1.798-.058.232a5.64 5.64 0 0 1 1.905-1.663c.74-.394 1.563-.584 2.465-.57zm3.732 5.395c.058-.432.15-.865.275-1.3.126-.435.285-.854.479-1.257.193-.403.42-.78.681-1.131a4.5 4.5 0 0 1 .904-.914c.342-.258.72-.458 1.136-.6a3.896 3.896 0 0 1 1.368-.193c.606.02 1.154.17 1.644.45s.883.681 1.18 1.203l.338-1.45h1.083l-1.76 10.277a6.052 6.052 0 0 1-.537 1.73c-.26.536-.594 1.002-1 1.398-.406.396-.88.704-1.421.923a4.4 4.4 0 0 1-1.799.3 4.008 4.008 0 0 1-.98-.14 4.28 4.28 0 0 1-.91-.363 4.027 4.027 0 0 1-.797-.565 3.71 3.71 0 0 1-.638-.76l.705-.676c.31.451.68.817 1.112 1.097.432.28.928.427 1.489.44.51.013.967-.064 1.373-.232a3.284 3.284 0 0 0 1.068-.706c.306-.303.558-.659.754-1.068.197-.41.34-.85.43-1.32l.242-1.189c-.425.477-.909.85-1.45 1.122-.541.27-1.138.4-1.789.386a3.153 3.153 0 0 1-1.213-.256 2.838 2.838 0 0 1-.904-.633 3.433 3.433 0 0 1-.619-.909 5.257 5.257 0 0 1-.372-1.092 6.301 6.301 0 0 1-.15-1.185 7.834 7.834 0 0 1 .049-1.174l.029-.213zm1.121.203a7.175 7.175 0 0 0-.058.928c0 .322.024.638.073.948.048.309.125.605.232.889.106.284.251.533.435.75.183.215.41.39.681.521.271.132.593.205.967.218.335.013.654-.026.957-.116a3.49 3.49 0 0 0 .851-.382c.264-.164.508-.363.73-.595.222-.232.42-.483.595-.754l.85-4.998c-.09-.29-.21-.554-.357-.793a2.685 2.685 0 0 0-.532-.623 2.36 2.36 0 0 0-.701-.416 2.692 2.692 0 0 0-.856-.17 2.972 2.972 0 0 0-2.006.658 3.742 3.742 0 0 0-.71.75 5.33 5.33 0 0 0-.532.923c-.148.328-.27.668-.367 1.02a8.95 8.95 0 0 0-.223 1.039l-.029.203zm14.309 5.26c-.703-.02-1.315-.175-1.837-.465-.522-.29-.95-.67-1.281-1.14a4.58 4.58 0 0 1-.71-1.615 5.69 5.69 0 0 1-.117-1.876l.049-.425a6.7 6.7 0 0 1 .314-1.325c.151-.438.343-.857.575-1.256.232-.4.503-.77.812-1.112.31-.342.653-.635 1.03-.88a4.872 4.872 0 0 1 1.223-.57c.438-.136.899-.197 1.382-.184.664.02 1.231.167 1.702.445.47.277.849.638 1.136 1.082.287.445.483.951.59 1.518.106.567.127 1.15.062 1.75l-.087.706h-7.599l-.048.232c-.07.49-.063.976.024 1.46.087.483.253.92.498 1.31a3 3 0 0 0 .962.957c.396.248.865.382 1.407.401a3.624 3.624 0 0 0 1.755-.348 5.498 5.498 0 0 0 1.464-1.044l.687.551a4.97 4.97 0 0 1-1.789 1.378 5.07 5.07 0 0 1-2.204.45zm1.382-9.862c-.522-.02-.995.07-1.42.27-.426.2-.805.466-1.137.798a5.086 5.086 0 0 0-.855 1.146 7.86 7.86 0 0 0-.58 1.315l6.41.01.028-.146a3.675 3.675 0 0 0-.029-1.218 2.97 2.97 0 0 0-.43-1.078 2.38 2.38 0 0 0-1.987-1.097zm14.319-.996c.547 0 1.076.071 1.585.213l-.28 1.102a12.91 12.91 0 0 0-.774-.13 6.997 6.997 0 0 0-.783-.063 5.065 5.065 0 0 0-2.663.72 4.3 4.3 0 0 0-1.05.9 3.316 3.316 0 0 0-.657 1.241l-1.13 6.681h-1.19l1.818-10.46h1.111l-.3 1.798-.057.232a5.64 5.64 0 0 1 1.904-1.663c.741-.394 1.563-.584 2.466-.57zm15.333 5.395c.058-.432.15-.865.275-1.3.126-.435.286-.856.48-1.262.192-.406.423-.783.69-1.131.268-.348.572-.651.914-.909a3.94 3.94 0 0 1 1.136-.595 3.973 3.973 0 0 1 1.368-.188 3.399 3.399 0 0 1 1.62.43c.486.274.878.672 1.174 1.194l1.044-5.82h1.141l-2.572 14.85h-1.083l.261-1.354c-.418.497-.9.883-1.445 1.16a3.695 3.695 0 0 1-1.813.387 3.095 3.095 0 0 1-1.213-.26 2.943 2.943 0 0 1-.904-.634 3.42 3.42 0 0 1-.623-.909 5.003 5.003 0 0 1-.373-1.097 6.881 6.881 0 0 1-.15-1.184 7.436 7.436 0 0 1 .044-1.175l.029-.203zm1.131.203a7.175 7.175 0 0 0-.058.928c0 .322.024.638.073.948.048.309.125.604.232.884.106.28.251.529.435.745.183.216.409.391.676.527.268.135.589.209.962.222.336.013.655-.024.958-.111.302-.087.584-.21.846-.368a3.72 3.72 0 0 0 .725-.575c.222-.226.423-.474.604-.744l.86-5.086a3.398 3.398 0 0 0-.362-.773 2.498 2.498 0 0 0-1.233-1.02 2.62 2.62 0 0 0-.841-.17 2.972 2.972 0 0 0-1.107.16c-.332.12-.632.284-.9.493-.267.21-.505.458-.715.745-.209.287-.388.594-.536.923-.148.329-.272.67-.372 1.025-.1.354-.173.702-.218 1.044l-.029.203zm14.318 5.26c-.702-.02-1.314-.175-1.837-.465-.522-.29-.949-.67-1.28-1.14a4.58 4.58 0 0 1-.711-1.615 5.69 5.69 0 0 1-.116-1.876l.048-.425a6.7 6.7 0 0 1 .314-1.325c.152-.438.344-.857.576-1.256.232-.4.502-.77.812-1.112.31-.342.652-.635 1.03-.88a4.873 4.873 0 0 1 1.222-.57c.439-.136.9-.197 1.383-.184.664.02 1.231.167 1.701.445.471.277.85.638 1.136 1.082.287.445.484.951.59 1.518.107.567.127 1.15.063 1.75l-.087.706h-7.599l-.048.232c-.071.49-.063.976.024 1.46.087.483.253.92.498 1.31a3 3 0 0 0 .962.957c.396.248.865.382 1.406.401a3.624 3.624 0 0 0 1.755-.348 5.498 5.498 0 0 0 1.465-1.044l.686.551a4.97 4.97 0 0 1-1.788 1.378 5.07 5.07 0 0 1-2.205.45zm1.383-9.862c-.522-.02-.996.07-1.421.27-.426.2-.804.466-1.136.798a5.086 5.086 0 0 0-.856 1.146 7.86 7.86 0 0 0-.58 1.315l6.41.01.029-.146a3.675 3.675 0 0 0-.03-1.218 2.97 2.97 0 0 0-.43-1.078 2.38 2.38 0 0 0-1.987-1.097zm13.419 6.942c.039-.355-.02-.651-.179-.89a2 2 0 0 0-.628-.6 3.725 3.725 0 0 0-.86-.386 14.89 14.89 0 0 0-.866-.242 29.764 29.764 0 0 1-.783-.212 7.095 7.095 0 0 1-.798-.28 5.248 5.248 0 0 1-.734-.378 2.671 2.671 0 0 1-.6-.503 2.119 2.119 0 0 1-.396-.662 2.061 2.061 0 0 1-.111-.855c.019-.342.095-.651.227-.928.132-.278.303-.526.512-.745.21-.22.45-.408.72-.566.271-.157.558-.288.86-.391a5.44 5.44 0 0 1 1.838-.29c.477.006.936.076 1.377.208.442.132.83.327 1.165.585.336.257.601.581.798.971.197.39.292.846.285 1.368l-1.14-.01a1.792 1.792 0 0 0-.194-.927 2.006 2.006 0 0 0-.565-.663 2.512 2.512 0 0 0-.817-.4 3.628 3.628 0 0 0-.948-.146 4.307 4.307 0 0 0-.952.092 3.559 3.559 0 0 0-.928.324c-.287.148-.53.345-.73.59-.2.244-.32.54-.358.889-.039.348.021.635.179.86.158.226.366.411.623.556.258.145.54.258.846.339.307.08.592.153.856.217.258.065.525.137.802.218.278.08.547.179.808.295.26.116.507.25.74.4.231.152.431.33.599.533.167.203.296.433.387.69.09.259.125.549.106.871a2.56 2.56 0 0 1-.237.976 2.87 2.87 0 0 1-.532.769 3.287 3.287 0 0 1-.754.575 4.838 4.838 0 0 1-.899.392 6.185 6.185 0 0 1-1.929.276 5.672 5.672 0 0 1-1.411-.199 3.888 3.888 0 0 1-1.243-.575 2.991 2.991 0 0 1-.88-.972c-.222-.39-.33-.852-.323-1.387h1.14c.013.387.099.715.257.986.158.27.364.492.619.662.254.171.544.297.87.377.325.08.662.124 1.01.13.31 0 .641-.03.996-.091.354-.061.685-.168.99-.319a2.51 2.51 0 0 0 .789-.604c.219-.252.35-.561.396-.928z"/>
        <path fill="#F8E71C" d="M12.637 3.725H4.2v108.72h8.437v3.725H0V0h12.637z"/>
        <path fill="#000" d="M41.375 58.142c-.07 1.103-.309 2.096-.715 2.978a6.938 6.938 0 0 1-1.631 2.256 7.111 7.111 0 0 1-2.437 1.436c-.942.336-1.985.504-3.128.504-1.293 0-2.441-.238-3.444-.715a7.046 7.046 0 0 1-2.526-2c-.682-.857-1.204-1.887-1.565-3.09-.36-1.203-.54-2.527-.54-3.97v-2.948c0-1.454.19-2.782.57-3.986.382-1.203.923-2.235 1.625-3.098a7.309 7.309 0 0 1 2.549-2.007c.998-.477 2.118-.715 3.361-.715 1.203 0 2.274.17 3.211.512.937.34 1.737.827 2.399 1.458.661.632 1.183 1.404 1.564 2.316.38.913.621 1.94.722 3.083h-4.211a7.169 7.169 0 0 0-.294-1.714c-.155-.491-.38-.9-.676-1.226a2.779 2.779 0 0 0-1.113-.737c-.446-.165-.98-.248-1.602-.248-.652 0-1.218.14-1.7.421-.48.281-.88.692-1.195 1.234-.316.541-.549 1.205-.7 1.992-.15.787-.225 1.682-.225 2.685v2.977c0 2.156.304 3.75.91 4.783.607 1.033 1.567 1.549 2.88 1.549 1.103 0 1.975-.293 2.617-.88.642-.586.997-1.536 1.068-2.85h4.226zM59.105 65h-4.18v-9.49h-6.196V65h-4.196V43.103h4.196v8.978h6.196v-8.978h4.18V65zm14.8-4.572h-6.573L66.039 65h-4.452l7.174-21.897h3.835L79.634 65h-4.452l-1.278-4.572zm-5.535-3.594h4.542l-2.241-8.061-2.301 8.06zm18.438-13.73l2.075 8.225 2.361-8.226h5.249V65h-3.88v-6.482l.18-10.241-2.872 9.504h-2.09l-2.572-9.098.18 9.835V65h-3.88V43.103h5.249zm17.79 13.865V65h-4.225V43.103h7.49c1.192 0 2.27.173 3.233.519.962.346 1.782.827 2.459 1.444a6.282 6.282 0 0 1 1.564 2.218c.366.862.549 1.82.549 2.872 0 .983-.183 1.89-.55 2.723a6.238 6.238 0 0 1-1.563 2.158c-.677.606-1.497 1.08-2.46 1.42-.962.342-2.04.512-3.233.512H104.6zm0-3.429h3.264c.602 0 1.123-.09 1.564-.27.442-.18.81-.427 1.106-.737.296-.311.516-.67.661-1.076.146-.406.219-.83.219-1.27 0-.512-.073-.988-.219-1.43a3.234 3.234 0 0 0-.661-1.157 3.114 3.114 0 0 0-1.106-.782c-.44-.19-.962-.286-1.564-.286H104.6v7.008zm14.92-10.437h12.662v3.414h-4.27v15.084h4.27V65h-12.662v-3.399h4.165V46.517h-4.165v-3.414zm32.83 12.558c0 1.403-.186 2.697-.557 3.88-.37 1.183-.907 2.2-1.609 3.053a7.346 7.346 0 0 1-2.564 1.992c-1.008.477-2.143.715-3.406.715-1.264 0-2.386-.238-3.369-.715a6.979 6.979 0 0 1-2.481-2c-.672-.857-1.184-1.875-1.534-3.053-.351-1.178-.527-2.469-.527-3.872v-3.189c0-1.403.176-2.697.527-3.88.35-1.183.862-2.203 1.534-3.06a7.073 7.073 0 0 1 2.473-2.008c.978-.481 2.098-.722 3.362-.722 1.273 0 2.413.241 3.421.722a7.387 7.387 0 0 1 2.564 2.008c.702.857 1.238 1.877 1.61 3.06.37 1.183.556 2.477.556 3.88v3.189zm-4.286-3.219c0-.892-.073-1.714-.218-2.466-.146-.752-.374-1.399-.685-1.94a3.561 3.561 0 0 0-1.195-1.27c-.486-.307-1.076-.46-1.767-.46-.682 0-1.254.153-1.715.46-.461.305-.832.729-1.113 1.27-.28.541-.48 1.188-.601 1.94-.12.752-.18 1.574-.18 2.466v3.219c0 .882.06 1.7.18 2.451.12.752.32 1.404.601 1.955.281.552.652.983 1.113 1.294.461.31 1.038.466 1.73.466.681 0 1.266-.156 1.752-.466.486-.311.882-.74 1.188-1.286.306-.547.534-1.196.684-1.948.15-.752.226-1.574.226-2.466v-3.219zM169.989 65h-4.211l-6.091-14.122V65h-4.256V43.103h4.256l6.046 14.062.015-14.062h4.24V65zm15.415-5.715c0-.39-.068-.757-.203-1.098-.136-.34-.366-.659-.692-.955-.326-.295-.752-.566-1.278-.812-.527-.245-1.181-.474-1.963-.684a18.53 18.53 0 0 1-2.73-.978 9.939 9.939 0 0 1-2.293-1.413 6.546 6.546 0 0 1-1.587-1.925c-.396-.732-.594-1.574-.594-2.527 0-.922.196-1.76.587-2.511a5.752 5.752 0 0 1 1.624-1.925c.692-.532 1.509-.94 2.451-1.226.943-.286 1.965-.429 3.068-.429 1.143 0 2.189.166 3.136.497.947.33 1.762.794 2.444 1.39a6.338 6.338 0 0 1 1.594 2.129c.381.822.571 1.724.571 2.707h-4.12a4.301 4.301 0 0 0-.263-1.354 2.863 2.863 0 0 0-.692-1.06 3.174 3.174 0 0 0-1.143-.692c-.456-.165-.99-.248-1.602-.248a5.05 5.05 0 0 0-1.496.203 3.248 3.248 0 0 0-1.106.572 2.44 2.44 0 0 0-.684.872c-.155.336-.233.7-.233 1.09 0 .411.103.782.308 1.113.206.331.504.63.895.895a7.35 7.35 0 0 0 1.421.73c.557.22 1.186.425 1.888.616 1.002.29 1.925.647 2.767 1.068.842.42 1.566.92 2.173 1.496a6.31 6.31 0 0 1 1.414 1.97c.336.737.504 1.557.504 2.46 0 .962-.193 1.816-.58 2.563a5.546 5.546 0 0 1-1.601 1.895c-.682.517-1.494.908-2.436 1.173-.943.266-1.97.399-3.083.399-.692 0-1.382-.063-2.068-.188a9.6 9.6 0 0 1-1.97-.58 8.666 8.666 0 0 1-1.753-.977 6.625 6.625 0 0 1-1.406-1.368 6.235 6.235 0 0 1-.932-1.775c-.226-.662-.338-1.394-.338-2.196h4.15c.02.662.136 1.229.346 1.7.21.471.504.857.88 1.158.376.3.827.521 1.354.661.526.14 1.105.211 1.737.211a5.23 5.23 0 0 0 1.496-.195c.436-.13.805-.311 1.105-.542.301-.23.532-.509.692-.835.16-.325.24-.684.24-1.075zm39.071-3.88h-8.993v6.181h10.512V65h-14.753V43.103h14.708v3.444h-10.467v5.52h8.993v3.338zm19.596-12.302l.015 14.513c0 1.223-.168 2.31-.504 3.263-.336.953-.822 1.757-1.458 2.414a6.204 6.204 0 0 1-2.332 1.496c-.917.341-1.962.512-3.135.512-1.103 0-2.098-.17-2.985-.512a6.247 6.247 0 0 1-2.279-1.488c-.631-.652-1.12-1.457-1.466-2.414-.346-.958-.519-2.048-.519-3.271l.015-14.513h4.226l.015 14.513c.01 1.413.268 2.481.775 3.203.506.722 1.245 1.083 2.218 1.083 1.033 0 1.822-.361 2.368-1.083.547-.722.825-1.79.835-3.203l.015-14.513h4.196zm11.325 13.716h-3.204V65h-4.226V43.103h7.34c1.212 0 2.31.143 3.293.429.982.285 1.822.704 2.519 1.256a5.51 5.51 0 0 1 1.61 2.06c.375.822.563 1.774.563 2.857 0 .782-.093 1.487-.278 2.113a5.801 5.801 0 0 1-.797 1.685c-.346.496-.762.93-1.249 1.3a8.278 8.278 0 0 1-1.631.963l4.707 9.038V65h-4.527l-4.12-8.181zm-3.204-3.43h3.128c1.193 0 2.113-.302 2.76-.909.647-.607.97-1.436.97-2.489 0-1.093-.316-1.943-.947-2.55-.632-.606-1.565-.909-2.798-.909h-3.113v6.858zm29.537 2.272c0 1.403-.186 2.697-.557 3.88-.37 1.183-.907 2.2-1.609 3.053A7.346 7.346 0 0 1 277 64.586c-1.007.477-2.143.715-3.406.715-1.264 0-2.386-.238-3.369-.715a6.979 6.979 0 0 1-2.481-2c-.672-.857-1.183-1.875-1.534-3.053s-.527-2.469-.527-3.872v-3.189c0-1.403.176-2.697.527-3.88.35-1.183.862-2.203 1.534-3.06a7.073 7.073 0 0 1 2.474-2.008c.977-.481 2.097-.722 3.36-.722 1.274 0 2.415.241 3.422.722a7.387 7.387 0 0 1 2.564 2.008c.702.857 1.239 1.877 1.61 3.06.37 1.183.556 2.477.556 3.88v3.189zm-4.286-3.219c0-.892-.073-1.714-.218-2.466-.146-.752-.374-1.399-.685-1.94a3.561 3.561 0 0 0-1.195-1.27c-.486-.307-1.075-.46-1.767-.46-.682 0-1.254.153-1.715.46-.46.305-.832.729-1.113 1.27-.28.541-.48 1.188-.601 1.94-.12.752-.18 1.574-.18 2.466v3.219c0 .882.06 1.7.18 2.451.12.752.32 1.404.601 1.955.281.552.652.983 1.113 1.294.461.31 1.038.466 1.73.466.682 0 1.266-.156 1.752-.466.486-.311.882-.74 1.188-1.286.306-.547.534-1.196.684-1.948.15-.752.226-1.574.226-2.466v-3.219zm11.986 4.527V65h-4.226V43.103h7.49c1.192 0 2.27.173 3.233.519.962.346 1.782.827 2.459 1.444a6.282 6.282 0 0 1 1.564 2.218c.366.862.549 1.82.549 2.872 0 .983-.183 1.89-.55 2.723a6.238 6.238 0 0 1-1.563 2.158c-.677.606-1.497 1.08-2.46 1.42-.962.342-2.04.512-3.233.512h-3.263zm0-3.429h3.263c.602 0 1.123-.09 1.564-.27.442-.18.81-.427 1.106-.737.296-.311.516-.67.662-1.076.145-.406.218-.83.218-1.27 0-.512-.073-.988-.218-1.43a3.234 3.234 0 0 0-.662-1.157 3.114 3.114 0 0 0-1.106-.782c-.44-.19-.962-.286-1.564-.286h-3.263v7.008zm27.461 1.865h-8.993v6.181h10.512V65h-14.753V43.103h14.708v3.444h-10.467v5.52h8.993v3.338zm-4.737-17.686h4.602l-4.166 4.196h-3.248l2.812-4.196zm23.22 17.686h-8.993v6.181h10.512V65H322.14V43.103h14.708v3.444H326.38v5.52h8.993v3.338zM354.82 65h-4.211l-6.091-14.122V65h-4.256V43.103h4.256l6.046 14.062.015-14.062h4.24V65zm15.415-5.715c0-.39-.068-.757-.203-1.098-.136-.34-.366-.659-.692-.955-.326-.295-.752-.566-1.278-.812-.527-.245-1.18-.474-1.963-.684a18.53 18.53 0 0 1-2.73-.978 9.939 9.939 0 0 1-2.293-1.413 6.546 6.546 0 0 1-1.587-1.925c-.396-.732-.594-1.574-.594-2.527 0-.922.196-1.76.587-2.511a5.752 5.752 0 0 1 1.624-1.925c.692-.532 1.509-.94 2.451-1.226.943-.286 1.966-.429 3.068-.429 1.143 0 2.189.166 3.136.497.948.33 1.762.794 2.444 1.39a6.338 6.338 0 0 1 1.594 2.129c.381.822.572 1.724.572 2.707h-4.121a4.301 4.301 0 0 0-.263-1.354 2.863 2.863 0 0 0-.692-1.06 3.174 3.174 0 0 0-1.143-.692c-.456-.165-.99-.248-1.602-.248a5.05 5.05 0 0 0-1.496.203 3.248 3.248 0 0 0-1.106.572 2.44 2.44 0 0 0-.684.872c-.155.336-.233.7-.233 1.09 0 .411.103.782.308 1.113.206.331.504.63.895.895a7.35 7.35 0 0 0 1.421.73c.557.22 1.186.425 1.888.616 1.002.29 1.925.647 2.767 1.068.842.42 1.567.92 2.173 1.496a6.31 6.31 0 0 1 1.414 1.97c.336.737.504 1.557.504 2.46 0 .962-.193 1.816-.58 2.563a5.546 5.546 0 0 1-1.601 1.895c-.682.517-1.494.908-2.436 1.173-.943.266-1.97.399-3.083.399-.692 0-1.381-.063-2.068-.188a9.6 9.6 0 0 1-1.97-.58 8.666 8.666 0 0 1-1.752-.977 6.625 6.625 0 0 1-1.407-1.368 6.235 6.235 0 0 1-.932-1.775c-.226-.662-.338-1.394-.338-2.196h4.15c.02.662.136 1.229.346 1.7.21.471.504.857.88 1.158.376.3.827.521 1.354.661.526.14 1.105.211 1.737.211a5.23 5.23 0 0 0 1.496-.195c.436-.13.805-.311 1.105-.542.301-.23.532-.509.692-.835.16-.325.24-.684.24-1.075z"/>
        <path fill="#FFF" d="M26.08 95.8V73.903h5.67c1.453 0 2.77.248 3.947.745a8.792 8.792 0 0 1 3.023 2.075c.837.887 1.484 1.948 1.94 3.18.456 1.234.685 2.587.685 4.061v1.805c0 1.474-.229 2.825-.685 4.053-.456 1.228-1.095 2.286-1.917 3.173a8.56 8.56 0 0 1-2.963 2.068c-1.153.491-2.426.737-3.82.737h-5.88zm4.256-18.468v15.07h1.624c.792 0 1.502-.151 2.128-.452a4.356 4.356 0 0 0 1.594-1.308c.436-.572.77-1.266 1-2.083.231-.817.346-1.747.346-2.79v-1.835c0-.982-.112-1.877-.338-2.684-.226-.807-.562-1.502-1.008-2.083a4.608 4.608 0 0 0-1.654-1.354c-.657-.32-1.416-.481-2.278-.481h-1.414zm28.905-3.429l.015 14.513c0 1.223-.168 2.31-.504 3.263-.336.953-.822 1.757-1.459 2.414a6.204 6.204 0 0 1-2.33 1.496c-.918.341-1.963.512-3.136.512-1.103 0-2.098-.17-2.985-.512a6.247 6.247 0 0 1-2.279-1.488c-.632-.652-1.12-1.457-1.466-2.414-.346-.958-.52-2.048-.52-3.271l.016-14.513h4.226l.015 14.513c.01 1.414.268 2.481.774 3.203.507.722 1.246 1.083 2.219 1.083 1.032 0 1.822-.361 2.368-1.083.547-.722.825-1.79.835-3.203l.015-14.513h4.196zM96.057 95.8h-4.211l-6.091-14.122V95.8h-4.256V73.903h4.256L91.8 87.965l.015-14.062h4.24V95.8zm18.633-21.897l.015 14.513c0 1.223-.168 2.31-.504 3.263-.336.953-.822 1.757-1.459 2.414a6.204 6.204 0 0 1-2.33 1.496c-.918.341-1.963.512-3.136.512-1.103 0-2.098-.17-2.985-.512a6.247 6.247 0 0 1-2.279-1.488c-.632-.652-1.12-1.457-1.466-2.414-.346-.958-.519-2.048-.519-3.271l.015-14.513h4.226l.015 14.513c.01 1.414.268 2.481.775 3.203.506.722 1.245 1.083 2.218 1.083 1.032 0 1.822-.361 2.368-1.083.547-.722.825-1.79.835-3.203l.015-14.513h4.196zm9.084 0l2.075 8.226 2.361-8.226h5.249V95.8h-3.88v-6.482l.18-10.241-2.872 9.504h-2.09l-2.572-9.098.18 9.835V95.8h-3.88V73.903h5.249zm26.77 12.302h-8.994v6.181h10.512V95.8H137.31V73.903h14.708v3.444H141.55v5.52h8.993v3.338zm-4.738-17.686h4.602l-4.166 4.196h-3.248l2.812-4.196zm17.174 19.1h-3.203V95.8h-4.226V73.903h7.34c1.212 0 2.31.143 3.293.429.982.285 1.822.704 2.519 1.256a5.51 5.51 0 0 1 1.609 2.06c.376.822.564 1.774.564 2.857 0 .782-.093 1.487-.278 2.113a5.801 5.801 0 0 1-.797 1.685c-.346.496-.762.93-1.249 1.3a8.278 8.278 0 0 1-1.631.963l4.707 9.038v.196H167.1l-4.12-8.181zm-3.203-3.43h3.128c1.193 0 2.113-.302 2.76-.909.647-.607.97-1.436.97-2.489 0-1.093-.316-1.943-.947-2.55-.632-.606-1.565-.909-2.798-.909h-3.113v6.858zm15.19-10.286h12.662v3.414h-4.27v15.084h4.27V95.8h-12.662v-3.399h4.165V77.317h-4.165v-3.414zm32.965 13.22a10.729 10.729 0 0 1-.7 3.797 8.222 8.222 0 0 1-2.007 3.045l3.625 3.279-2.722 2.421-4.166-3.85c-.351.09-.71.16-1.076.21a8.36 8.36 0 0 1-1.135.076c-1.263 0-2.386-.243-3.369-.73a7.434 7.434 0 0 1-2.489-1.97 8.72 8.72 0 0 1-1.541-2.865 11.004 11.004 0 0 1-.527-3.414v-3.79c0-1.413.176-2.714.527-3.902.35-1.188.865-2.213 1.541-3.076a7.166 7.166 0 0 1 2.49-2.022c.982-.487 2.105-.73 3.368-.73 1.273 0 2.416.243 3.429.73a7.409 7.409 0 0 1 2.572 2.022c.701.863 1.24 1.888 1.616 3.076.376 1.188.564 2.489.564 3.903v3.79zm-4.286-3.82c0-.903-.073-1.732-.218-2.49-.145-.756-.373-1.41-.684-1.962a3.504 3.504 0 0 0-1.203-1.286c-.492-.306-1.088-.459-1.79-.459-.692 0-1.27.156-1.737.467-.466.31-.84.74-1.12 1.285-.281.547-.482 1.199-.602 1.956-.12.757-.18 1.586-.18 2.489v3.82c0 .681.06 1.35.18 2.007s.32 1.243.602 1.76c.28.516.654.935 1.12 1.256.466.32 1.045.48 1.737.48.702 0 1.298-.157 1.79-.473a3.75 3.75 0 0 0 1.203-1.256c.31-.521.539-1.11.684-1.767a9.261 9.261 0 0 0 .218-2.008v-3.82zm21.942-9.4l.015 14.513c0 1.223-.168 2.31-.504 3.263-.336.953-.822 1.757-1.458 2.414a6.204 6.204 0 0 1-2.332 1.496c-.917.341-1.962.512-3.135.512-1.103 0-2.098-.17-2.985-.512a6.247 6.247 0 0 1-2.279-1.488c-.631-.652-1.12-1.457-1.466-2.414-.346-.958-.519-2.048-.519-3.271l.015-14.513h4.226l.015 14.513c.01 1.414.268 2.481.775 3.203.506.722 1.245 1.083 2.218 1.083 1.033 0 1.822-.361 2.368-1.083.547-.722.825-1.79.835-3.203l.015-14.513h4.196zm17.37 12.302h-8.993v6.181h10.512V95.8h-14.753V73.903h14.708v3.444h-10.467v5.52h8.993v3.338zm29.026 2.948c0-.692.017-1.279.052-1.76.035-.481.118-.915.248-1.3.13-.387.326-.743.587-1.068.26-.326.627-.675 1.098-1.046.34-.31.682-.639 1.022-.985.341-.346.65-.702.925-1.068.276-.365.5-.739.67-1.12.17-.38.255-.762.255-1.143 0-.912-.245-1.579-.737-2-.491-.421-1.208-.632-2.15-.632-.361 0-.712.048-1.053.143-.34.095-.644.248-.91.459a2.37 2.37 0 0 0-.647.812c-.165.33-.253.727-.263 1.188h-4.196c.01-1.023.2-1.912.572-2.67a5.413 5.413 0 0 1 1.504-1.887 6.377 6.377 0 0 1 2.226-1.12 9.955 9.955 0 0 1 2.767-.369c1.113 0 2.11.126 2.992.376.883.25 1.627.624 2.234 1.12a4.87 4.87 0 0 1 1.39 1.843c.322.732.482 1.58.482 2.542 0 .711-.12 1.36-.36 1.947a7.363 7.363 0 0 1-.933 1.64c-.381.506-.815.987-1.301 1.443-.486.456-.975.9-1.466 1.331-.301.3-.537.567-.707.797-.17.23-.293.466-.369.707-.075.24-.123.504-.143.79-.02.285-.03.629-.03 1.03h-3.76zm-.617 4.557c0-.331.055-.64.165-.925.11-.286.271-.534.482-.745.21-.21.466-.373.767-.489a2.84 2.84 0 0 1 1.022-.172c.371 0 .71.057 1.015.172.306.116.564.279.775.49.21.21.373.458.489.744.115.285.173.594.173.925 0 .32-.058.621-.173.902-.116.28-.278.521-.489.722-.21.2-.469.358-.775.474a2.857 2.857 0 0 1-1.015.172 2.84 2.84 0 0 1-1.022-.172 2.28 2.28 0 0 1-.767-.474c-.21-.2-.371-.441-.482-.722a2.445 2.445 0 0 1-.165-.902zm27.537 5.353h-13.716V95.8h13.716v3.263z"/>
    </g>
</svg>
