<svg xmlns="http://www.w3.org/2000/svg" width="51" height="27" viewBox="0 0 51 27">
    <g fill="none" fill-rule="nonzero">
        <path fill="#FFF" fill-opacity=".65" d="M25.187 12.347h2.928V.181h-2.928zM36.714.18l-.017 2.679h8.17V.18zM44.789 12.344l.079-2.678h-8.216l-.017 2.678zM44.693 7.502v-2.61h-8.01l-.017 2.61z"/>
        <path fill="#FFF" fill-opacity=".5" d="M12.942 12.347h3.112l.596-1.811h3.725l.561 1.811h3.113l-.66-1.826h-9.786zM16.825.18l2.767 7.861h2.898L19.643.181z"/>
        <path fill="#FFF" fill-opacity=".65" d="M.074 12.347h2.977V5.598L.074.181zM3.445 23.38c-.273-.36-.443-.753-.443-2.974 0-2.222.17-2.632.443-2.99.22-.291.646-.53 1.19-.53V14.22c-1.48 0-2.5.478-3.385 1.367C-.025 16.87.026 18.577.026 20.406c0 1.828-.051 3.537 1.224 4.818.885.889 1.905 1.368 3.385 1.368v-2.666c-.544 0-.97-.257-1.19-.547z"/>
        <path fill="#ED1844" d="M15.37 14.324l.002-.002h-1.005v.002z"/>
        <path fill="#FFF" fill-opacity=".65" d="M19.128 15.396a3.719 3.719 0 0 0-.766-.554l-.014.029c.262.132.53.307.78.525m-2.94 6.566h-.816l2.142 4.527h3.453l-2.604-5.046c-.596.326-1.323.52-2.176.52"/>
        <path fill="#ED1844" d="M14.367 21.96v.002h1.005l-.001-.001zM18.363 21.443c.285-.156.54-.343.765-.554-.25.218-.518.393-.78.525l.015.029z"/>
        <path fill="#FFF" fill-opacity=".65" d="M11.39 14.322V26.49h2.977V14.322zM28.469 22.149c0 .461-.12.957-.46 1.298-.272.29-.697.479-1.326.479-.545 0-.953-.222-1.174-.513-.272-.359-.442-.786-.442-3.007 0-2.222.17-2.632.442-2.99.221-.291.63-.53 1.174-.53 1.02 0 1.497.444 1.735 1.367h2.993c-.289-2-1.616-4.033-4.728-4.033-1.463 0-2.484.478-3.368 1.367-1.276 1.282-1.225 2.99-1.225 4.819 0 1.828-.051 3.537 1.225 4.818.884.889 1.956 1.368 3.368 1.368 1.326 0 2.483-.291 3.52-1.368.789-.806 1.125-1.765 1.205-3.262h-2.94v.187z"/>
        <path fill="#ED1844" d="M6.057 11.07l.206-.42-.218.398z"/>
        <path fill="#FFF" fill-opacity=".65" d="M9.09.18l-.051.095-2.994 5.533-1.429 2.64 1.429 2.6.218-.398L9.04 5.598 12.015.181z"/>
        <path fill="#FFF" d="M36.666 12.347h2.928V4.915h-2.928zM35.41.18h-3.383L30.09 3.562l-1.55 2.703 1.55 2.703 1.938 3.38h3.383l-3.684-6.083zM19.592 8.041h-5.091l-.898 2.48h9.785l-.898-2.48zM12.015.18v12.167H9.038V5.598zM3.05.275L3 .181H.074l2.977 5.417 1.565 2.85 1.429-2.64zM8.02 15.587c-.884-.889-1.905-1.367-3.385-1.367v2.666c.545 0 .97.239 1.191.53.272.358.442.768.442 2.99 0 2.221-.17 2.614-.442 2.973-.221.29-.646.547-1.19.547v2.665c1.48 0 2.5-.478 3.384-1.366 1.276-1.282 1.225-2.99 1.225-4.82 0-1.828.051-3.536-1.225-4.818zm11.108-.19a3.748 3.748 0 0 0-.78-.526l.014-.029c-.595-.327-1.322-.52-2.175-.52h-.815l-.001.002h-1.004v2.681h1.684c.776 0 1.244.54 1.289 1.137.002.031.004.063.004.094 0 .632-.476 1.23-1.293 1.23h-1.684v2.495h1.004v.001h.816c.853 0 1.58-.193 2.175-.52l-.014-.028c.262-.132.53-.307.78-.525.762-.718 1.168-1.717 1.19-2.747l.003-.093c0-1.2-.536-2.078-1.193-2.653zm7.555 4.086v2.48h4.726c.012-.248.02-.51.02-.788v-1.692h-4.746zM49.085 8.892a1.875 1.875 0 0 0-1.879 1.887c0 1.033.835 1.888 1.88 1.888a1.886 1.886 0 0 0 1.878-1.888 1.875 1.875 0 0 0-1.879-1.887z"/>
    </g>
</svg>
