<?xml version="1.0" encoding="UTF-8"?>
<svg width="100px" height="80px" viewBox="0 0 100 80" version="1.1" xmlns="http://www.w3.org/2000/svg" xmlns:xlink="http://www.w3.org/1999/xlink">
    <!-- Generator: Sketch 44.1 (41455) - http://www.bohemiancoding.com/sketch -->
    <title>Artboard</title>
    <desc>Created with Sketch.</desc>
    <defs></defs>
    <g id="Page-1" stroke="none" stroke-width="1" fill="none" fill-rule="evenodd">
        <g id="Artboard" fill-rule="nonzero">
            <g id="logo-wwf" transform="translate(30.000000, 10.000000)">
                <path d="M9.58307692,6.22902062 C10.3707692,5.93087629 12.3076923,5.48969072 15,6.41752577 C18,6.18556701 18.9230769,5.72164948 21.6153846,5.25773196 C24.3076923,4.79381443 28.6153846,4.87113402 31.8461538,7.11340206 C35.0769231,9.3556701 38.1538462,9.43298969 38.7692308,16.0051546 C39.3846154,22.5773196 38.2307692,24.8969072 37.5384615,26.3659794 C36.8461538,27.8350515 28.6153846,30 27.1538462,30.5412371 C25.6923077,31.0824742 19.8461538,32.3195876 18.3846154,31.9329897 C16.9230769,31.5463918 7.53846154,29.9226804 6.23076923,28.9175258 C4.92307692,27.9123711 1.07692308,19.6391753 1.38461538,18.2474227 C1.69230769,16.8556701 3.61538462,10.3608247 5.07692308,9.12371134 C6.53846154,7.88659794 8.24292308,6.73654639 9.58307692,6.22902062 Z" id="background" fill="#FFFFFF"></path>
                <path d="M18.4998462,0.124484536 C17.642,0.144278351 16.7381538,0.429742268 16.0870769,0.993865979 C14.9296923,1.99670103 13.7738462,3.03865979 13.8138462,4.40273196 C13.8538462,5.76680412 14.6104615,6.53056701 14.6104615,6.53056701 C14.6104615,6.53056701 15.1293846,6.93015464 14.6104615,7.33128866 C14.0916923,7.73257732 7.94646154,11.6650515 8.26569231,19.7687629 C8.26569231,19.7687629 8.42553846,21.877732 8.186,24.1243299 C8.014,25.738299 8.57830769,27.6951031 8.91153846,28.674433 C8.91984615,28.683866 9.07507692,29.0863918 8.72369231,28.8516495 C7.05784615,27.8052062 5.69769231,26.2323711 4.55830769,24.2788144 C3.51292308,22.3702577 2.91661538,20.1647938 2.91661538,17.8184536 C2.91661538,12.8345876 5.60876923,8.4935567 9.57430769,6.25902062 C4.13369231,7.76690722 0.122769231,12.8885567 0.122769231,18.9708247 C0.122769231,19.4358247 0.145384615,19.8966495 0.191076923,20.3492784 C0.235384615,21.3980412 0.350461538,23.0715464 0.643384615,23.741134 C1.08246154,24.7441237 1.04169231,26.9090722 1.04169231,27.2701546 C1.04169231,27.6310825 1.16153846,39.5045876 8.14615385,39.4645361 C8.14615385,39.4645361 11.4750769,39.547732 11.4976923,38.1833505 C11.5176923,36.9797938 11.176,36.853299 10.8603077,36.1557216 C10.5610769,35.4940206 10.3421538,35.4535052 10.5018462,33.3275258 C10.5018462,33.3275258 10.51,32.8971649 10.6696923,32.8869588 C10.8293846,32.8767526 12.7758462,38.7035567 15.2903077,41.7525773 C17.8046154,44.8014433 20.3195385,45.1213918 22.2352308,45.1213918 C22.2352308,45.1213918 25.826,45.1221649 25.826,43.3169072 C25.826,41.5114948 24.1898462,42.232732 24.1898462,36.4962371 C24.1898462,30.759433 26.9432308,31.0425773 27.2627692,32.4465464 C27.5821538,33.8506701 27.8615385,34.9730412 27.3026154,38.7440722 C26.7438462,42.5151031 28.2615385,42.9565979 29.6584615,42.9565979 C31.0553846,42.9565979 38.3993846,43.1955155 39.6764615,22.0940722 C39.6764615,22.0940722 39.8350769,18.6852062 38.7176923,15.7566495 C38.7176923,15.7566495 39.1969231,21.3731443 35.7246154,24.3819588 C32.2523077,27.3907732 30.2561538,26.9500515 30.2561538,26.9500515 C30.2561538,26.9500515 28.5815385,26.8281959 27.9032308,27.6706701 C27.2247692,28.5131443 27.3426154,29.1157732 25.9061538,28.6745876 C24.4692308,28.2332474 24.4632308,27.8734021 23.1463077,28.0339175 C21.8293846,28.194433 21.0363077,28.3534021 20.5173846,27.2703093 C19.9983077,26.1872165 19.4183077,25.4890206 18.3409231,25.2884536 C17.2632308,25.0878866 12.5283077,22.8236598 12.6561538,16.44 C12.7758462,10.5026289 15.4501538,8.45536082 15.4501538,8.45536082 C15.4501538,8.45536082 15.8903077,7.97458763 16.3292308,8.17515464 C16.7683077,8.37572165 17.4855385,8.41685567 18.3236923,7.65463918 C19.1618462,6.89242268 19.7206154,6.28871134 21.2372308,5.7671134 C21.2372308,5.7671134 22.2758462,5.60613402 22.2358462,4.56309278 C22.1958462,3.52005155 21.356,1.23556701 20.2781538,0.553608247 C19.8066154,0.255 19.1669231,0.108865979 18.4998462,0.124484536 Z M22.1216923,28.8371134 C22.3626154,28.8281443 22.7104615,28.9885052 23.0776923,29.1289175 C23.6118462,29.3328866 24.8333846,29.2365464 25.3113846,29.2031443 C25.7890769,29.1698969 26.1093846,29.3737113 25.7266154,29.829433 C25.1992308,30.4578866 24.5683077,30.4346907 23.772,30.4900515 C22.9756923,30.5454124 22.1216923,29.7607732 22.1216923,29.7607732 C22.0764615,29.6834536 21.6887692,29.2682474 21.8684615,28.9742784 C21.9246154,28.8825773 22.0121538,28.8412887 22.1216923,28.8371134 Z M18.0438462,16.0374742 C18.9663077,14.8999485 19.4806154,14.7536598 20.2787692,14.7536598 C21.0770769,14.7536598 22.1846154,15.2681443 22.5138462,16.518866 C22.8729231,17.8827835 23.0555385,18.0918557 21.7616923,19.6141237 C20.8336923,20.7063402 19.1612308,23.0979897 17.4849231,21.5735567 C15.8087692,20.0491237 16.4312308,18.0259794 18.0438462,16.0374742 Z M33.0352308,18.1614433 C32.4946154,16.798299 32.0475385,16.5035567 31.2861538,16.2629381 C30.5247692,16.0221649 29.3149231,16.1791237 28.6273846,17.2728866 C27.8776923,18.4656186 27.6181538,18.5783505 28.3978462,20.4207216 C28.9572308,21.7424227 29.862,24.5599485 31.916,23.6112371 C33.97,22.6623711 33.98,20.5447423 33.0352308,18.1614433 Z M24.1932308,27.114433 C24.6201538,26.4423711 25.6156923,26.2141237 26.1927692,26.1961856 C26.9478462,26.1728351 26.9370769,25.5180928 26.9370769,25.5180928 C26.9370769,25.5180928 26.9904615,24.8497423 24.2635385,24.583299 C21.5396923,24.3170103 21.4652308,25.0235567 21.4652308,25.0235567 C21.4652308,25.0235567 21.3366154,25.6654639 22.0749231,25.8258247 C22.6373846,25.9481443 23.5693846,26.3613402 23.8723077,27.0944845 C23.9318462,27.2723196 24.1003077,27.2758763 24.1932308,27.114433 Z M37.0558462,10.6588144 C36.5975385,10.8092784 35.8790769,10.7690722 35.13,9.91824742 C34.3809231,9.06742268 33.8918462,8.4071134 32.442,7.71989691 C32.442,7.71989691 31.4284615,7.44494845 31.5830769,6.41273196 C31.7376923,5.38051546 32.8226154,3.20134021 33.9687692,2.64340206 C35.1149231,2.08561856 37.0453846,2.42304124 38.0852308,3.54865979 C39.1249231,4.67427835 40.1601538,5.83979381 39.9701538,7.19087629 C39.7803077,8.54195876 38.9426154,9.21510309 38.9426154,9.21510309 L38.9572308,9.21742268 C38.5583077,9.73902062 37.0558462,10.6588144 37.0558462,10.6588144 Z" id="foreground" fill="#000000"></path>
                <path d="M8.06523077,40.56 C7.58861538,40.5601546 7.14046154,40.7469588 6.80369231,41.0859278 C6.46692308,41.4245876 6.28138462,41.8752062 6.28169231,42.354433 C6.28184615,42.8347423 6.46769231,43.2853608 6.80492308,43.623866 C7.14215385,43.9623711 7.59030769,44.148866 8.06692308,44.1487113 C9.05092308,44.1482474 9.85092308,43.3431959 9.85046154,42.3542784 L9.85046154,42.3528866 C9.85030769,41.8738144 9.66446154,41.4235052 9.32723077,41.0848454 C8.99,40.7461856 8.54184615,40.5596907 8.06523077,40.56 Z M7.23984615,43.1862371 C7.01892308,42.9641753 6.89723077,42.6692784 6.89707692,42.3553608 C6.89692308,42.0400515 7.01830769,41.7451546 7.23907692,41.5229381 C7.45969231,41.3008763 7.75323077,41.1785567 8.06553846,41.1784021 C8.37784615,41.1782474 8.67138462,41.3002577 8.89246154,41.5221649 C9.11338462,41.7440722 9.23507692,42.0391237 9.23523077,42.3528866 L9.23523077,42.354433 C9.23553846,43.0022165 8.71138462,43.5296907 8.06676923,43.5301546 C7.75430769,43.5301546 7.46076923,43.4081443 7.23984615,43.1862371 Z M8.45953846,42.5321134 L8.76569231,42.6296907 C8.71876923,42.8011856 8.64061538,42.9287629 8.53153846,43.0121134 C8.42230769,43.0954639 8.28384615,43.1370619 8.116,43.1370619 C7.90830769,43.1370619 7.73753846,43.0657732 7.60384615,42.9230412 C7.47015385,42.7801546 7.40323077,42.5851546 7.40323077,42.3380412 C7.40323077,42.0763918 7.47046154,41.8731959 7.60492308,41.7284536 C7.73938462,41.5837113 7.91615385,41.5114948 8.13523077,41.5114948 C8.32661538,41.5114948 8.482,41.5682474 8.60153846,41.6820619 C8.67261538,41.7493299 8.726,41.8459794 8.76153846,41.971701 L8.44892308,42.046701 C8.43046154,41.9652062 8.39184615,41.9008763 8.33323077,41.8534021 C8.27461538,41.8062371 8.20323077,41.782732 8.11923077,41.782732 C8.00338462,41.782732 7.90923077,41.8246392 7.83707692,41.908299 C7.76492308,41.9919588 7.72876923,42.1274227 7.72876923,42.3146907 C7.72876923,42.5134021 7.76430769,42.6550515 7.83538462,42.7393299 C7.90646154,42.8237629 7.99892308,42.8658247 8.11276923,42.8658247 C8.19661538,42.8658247 8.26892308,42.8389175 8.32938462,42.7852577 C8.38984615,42.7315979 8.43323077,42.6471649 8.45953846,42.5321134 L8.45953846,42.5321134 Z" id="cw" fill="#6D6D6D"></path>
                <path d="M37.4726154,44.4378866 C36.996,44.4380412 36.548,44.6248454 36.2110769,44.9636598 C35.8741538,45.3024742 35.6886154,45.7530928 35.6889231,46.2321649 C35.6892308,47.2226289 36.4903077,48.0267526 37.4741538,48.0262887 C37.9507692,48.0262887 38.3987692,47.8393299 38.7356923,47.5005155 C39.0723077,47.161701 39.258,46.7112371 39.2576923,46.2320103 L39.2576923,46.2306186 C39.2575385,45.7513918 39.0716923,45.3010825 38.7344615,44.9625773 C38.3973846,44.6239175 37.9492308,44.437732 37.4726154,44.4378866 Z M36.6472308,47.064433 C36.4263077,46.8423711 36.3043077,46.5474742 36.3043077,46.2335567 C36.304,45.5842268 36.828,45.0569072 37.4727692,45.0565979 C37.7850769,45.0562887 38.0786154,45.1786082 38.2995385,45.4003608 C38.5204615,45.6221134 38.6421538,45.9171649 38.6423077,46.2310825 L38.6423077,46.2324742 C38.6424615,46.5463918 38.5210769,46.8414433 38.3003077,47.0635052 C38.0795385,47.2857216 37.786,47.4080412 37.4738462,47.4080412 C37.1615385,47.4080412 36.8681538,47.2861856 36.6472308,47.064433 Z M36.8615385,47.0183505 L36.8615385,45.446134 L37.5261538,45.446134 C37.6932308,45.446134 37.8147692,45.4603608 37.8904615,45.4885052 C37.966,45.5168041 38.0269231,45.5669072 38.0724615,45.6392784 C38.1181538,45.7116495 38.1407692,45.7940722 38.1407692,45.8871649 C38.1407692,46.0051546 38.106,46.1025773 38.0372308,46.179433 C37.9683077,46.2562887 37.8650769,46.305 37.7276923,46.3247938 C37.796,46.3648454 37.8524615,46.4087629 37.8969231,46.456701 C37.9413846,46.5046392 38.0013846,46.5896907 38.0767692,46.711701 L38.2676923,47.0183505 L37.89,47.0183505 L37.6616923,46.6762887 C37.5806154,46.5539691 37.5250769,46.4769588 37.4952308,46.4452577 C37.4655385,46.4132474 37.4336923,46.3914433 37.4003077,46.3796907 C37.3669231,46.3679381 37.3138462,46.3622165 37.2413846,46.3622165 L37.1773846,46.3622165 L37.1773846,47.0183505 L36.8615385,47.0183505 L36.8615385,47.0183505 Z M37.1769231,46.1112371 L37.4107692,46.1112371 C37.5621538,46.1112371 37.6569231,46.1045876 37.6947692,46.0919072 C37.7323077,46.0789175 37.762,46.0568041 37.7832308,46.0252577 C37.8047692,45.9937113 37.8152308,45.954433 37.8152308,45.907268 C37.8152308,45.8543814 37.8012308,45.8115464 37.7732308,45.7790722 C37.7449231,45.7465979 37.7055385,45.7260309 37.6543077,45.7176804 C37.6286154,45.7141237 37.5518462,45.712268 37.4238462,45.712268 L37.1773846,45.712268 L37.1773846,46.1112371 L37.1769231,46.1112371 Z" id="Rmark" fill="#6D6D6D"></path>
                <path d="M1.40953846,49.1229897 L1.40953846,49.1229897 L3.44153846,49.1229897 C3.44153846,49.1229897 3.968,49.0271134 4.17538462,49.5640206 C4.41953846,50.1968041 5.42507692,54.2520619 5.42507692,54.2520619 L6.86553846,52.1095361 C6.86553846,52.1095361 6.278,49.1089175 7.308,49.1229897 C8.54969231,49.1396907 9.24123077,49.1229897 9.24123077,49.1229897 C9.24123077,49.1229897 9.736,49.0753608 10.0455385,49.9045361 C10.41,50.8809278 11.2970769,54.3180928 11.2970769,54.3180928 L13.3473846,49.6209278 C13.3473846,49.6209278 13.6295385,49.1231443 14.0812308,49.1231443 C14.5609231,49.1231443 14.8646154,49.4611856 14.7584615,49.8480928 C14.5969231,50.437268 11.2026154,59.4075773 11.2026154,59.4075773 C11.2026154,59.4075773 10.9767692,59.9463402 10.4970769,59.9463402 C10.0172308,59.9463402 9.81969231,59.662732 9.56569231,59.0103093 C9.31169231,58.3578866 7.70307692,53.9893299 7.70307692,53.9893299 L5.276,59.5209278 C5.276,59.5209278 5.09261538,59.9461856 4.71153846,59.9461856 C4.26,59.9461856 4.09061538,59.7477835 3.86492308,59.3222165 C3.63907692,58.8968041 0.788769231,50.6986082 0.788769231,50.6986082 C0.788769231,50.6986082 0.224153846,49.1229897 1.40953846,49.1229897 Z M16.4161538,49.1229897 L16.4161538,49.1229897 L18.4481538,49.1229897 C18.4481538,49.1229897 18.9746154,49.0271134 19.182,49.5640206 C19.4261538,50.1968041 20.4318462,54.2520619 20.4318462,54.2520619 L21.872,52.1095361 C21.872,52.1095361 21.2846154,49.1089175 22.3144615,49.1229897 C23.556,49.1396907 24.2475385,49.1229897 24.2475385,49.1229897 C24.2475385,49.1229897 24.7424615,49.0753608 25.0518462,49.9045361 C25.4164615,50.8809278 26.3035385,54.3180928 26.3035385,54.3180928 L28.3536923,49.6209278 C28.3536923,49.6209278 28.6358462,49.1231443 29.0875385,49.1231443 C29.5673846,49.1231443 29.8710769,49.4611856 29.7647692,49.8480928 C29.6033846,50.437268 26.2089231,59.4075773 26.2089231,59.4075773 C26.2089231,59.4075773 25.9832308,59.9463402 25.5033846,59.9463402 C25.0235385,59.9463402 24.8263077,59.662732 24.572,59.0103093 C24.318,58.3578866 22.7095385,53.9893299 22.7095385,53.9893299 L20.2824615,59.5209278 C20.2824615,59.5209278 20.0990769,59.9461856 19.718,59.9461856 C19.2664615,59.9461856 19.0970769,59.7477835 18.8713846,59.3222165 C18.6455385,58.8968041 15.7952308,50.6986082 15.7952308,50.6986082 C15.7952308,50.6986082 15.2307692,49.1229897 16.4161538,49.1229897 Z M31.4341538,59.9461856 C31.4341538,59.9461856 30.7356923,60.0057216 30.7356923,58.9023711 C30.7356923,57.7993299 30.7356923,49.7958247 30.7356923,49.7958247 C30.7356923,49.7958247 30.7356923,49.113866 31.7333846,49.113866 C32.7310769,49.113866 38.5581538,49.113866 38.5581538,49.113866 C38.5581538,49.113866 39.3850769,49.0736598 39.3850769,49.8762371 C39.3850769,50.6788144 38.618,50.5984021 38.618,50.5984021 L34.5470769,50.5984021 C34.5470769,50.5984021 34.0681538,50.5984021 34.0681538,51.0595361 C34.0681538,51.5208247 34.0681538,53.3059794 34.0681538,53.3059794 L37.2012308,53.3059794 C37.2012308,53.3059794 38.048,53.3059794 38.048,53.9679897 C38.048,54.6296907 37.3407692,54.6700515 37.3407692,54.6700515 L34.0483077,54.6700515 L34.0483077,59.0489691 C34.0483077,59.0489691 34.0967692,59.9463402 33.5183077,59.9463402 C33.1189231,59.9461856 31.4341538,59.9254639 31.4341538,59.9461856 Z" id="WWF" fill="#000000"></path>
            </g>
        </g>
    </g>
</svg>