<?xml version="1.0" encoding="UTF-8"?>
<svg width="33px" height="33px" viewBox="0 0 33 33" version="1.1" xmlns="http://www.w3.org/2000/svg" xmlns:xlink="http://www.w3.org/1999/xlink">
    <!-- Generator: Sketch 44.1 (41455) - http://www.bohemiancoding.com/sketch -->
    <title>fermer</title>
    <desc>Created with Sketch.</desc>
    <defs></defs>
    <g id="Page-1" stroke="none" stroke-width="1" fill="none" fill-rule="evenodd">
        <g id="proposition---desktop" transform="translate(-1366.000000, -123.000000)" fill="#FFFFFF">
            <g id="background" transform="translate(0.000000, 80.000000)">
                <path d="M1379.28427,56.2842712 L1363.28427,56.2842712 L1363.28427,56.2842712 C1362.73199,56.2842712 1362.28427,56.7319865 1362.28427,57.2842712 L1362.28427,61.2842712 C1362.28427,61.836556 1362.73199,62.2842712 1363.28427,62.2842712 L1379.28427,62.2842712 L1379.28427,78.2842712 C1379.28427,78.836556 1379.73199,79.2842712 1380.28427,79.2842712 L1384.28427,79.2842712 C1384.83656,79.2842712 1385.28427,78.836556 1385.28427,78.2842712 L1385.28427,62.2842712 L1401.28427,62.2842712 C1401.83656,62.2842712 1402.28427,61.836556 1402.28427,61.2842712 L1402.28427,57.2842712 C1402.28427,56.7319865 1401.83656,56.2842712 1401.28427,56.2842712 L1385.28427,56.2842712 L1385.28427,40.2842712 L1385.28427,40.2842712 C1385.28427,39.7319865 1384.83656,39.2842712 1384.28427,39.2842712 L1380.28427,39.2842712 C1379.73199,39.2842712 1379.28427,39.7319865 1379.28427,40.2842712 L1379.28427,56.2842712 Z" id="fermer" transform="translate(1382.284271, 59.284271) rotate(45.000000) translate(-1382.284271, -59.284271) "></path>
            </g>
        </g>
    </g>
</svg>