<?xml version="1.0" encoding="UTF-8"?>
<svg width="16px" height="16px" viewBox="0 0 16 16" version="1.1" xmlns="http://www.w3.org/2000/svg" xmlns:xlink="http://www.w3.org/1999/xlink">
    <!-- Generator: Sketch 44.1 (41455) - http://www.bohemiancoding.com/sketch -->
    <title>fermer</title>
    <desc>Created with Sketch.</desc>
    <defs></defs>
    <g id="Page-1" stroke="none" stroke-width="1" fill="none" fill-rule="evenodd">
        <g id="fermer" transform="translate(-5.000000, -5.000000)" fill-rule="nonzero" fill="#000000">
            <path d="M11.9767595,11.9767597 L4.39781218,11.9767597 L4.39781218,11.9767597 C4.13620586,11.9767597 3.92412797,12.1888353 3.92412797,12.4504439 L3.92412797,14.3451807 C3.92412797,14.6067893 4.13620586,14.8188649 4.39781218,14.8188649 L11.9767595,14.8188649 L11.9767595,22.3978123 C11.9767595,22.6594209 12.1888374,22.8714965 12.4504438,22.8714965 L14.3451806,22.8714965 C14.6067917,22.8714965 14.8188648,22.6594209 14.8188648,22.3978123 L14.8188648,14.8188649 L22.3978122,14.8188649 C22.6594232,14.8188649 22.8714964,14.6067893 22.8714964,14.3451807 L22.8714964,12.4504439 C22.8714964,12.1888353 22.6594232,11.9767597 22.3978122,11.9767597 L14.8188648,11.9767597 L14.8188648,4.39781231 L14.8188648,4.39781231 C14.8188648,4.13620377 14.6067917,3.9241281 14.3451806,3.9241281 L12.4504438,3.9241281 C12.1888374,3.9241281 11.9767595,4.13620377 11.9767595,4.39781231 L11.9767595,11.9767597 Z" transform="translate(13.397812, 13.397812) rotate(45.000000) translate(-13.397812, -13.397812) "></path>
        </g>
    </g>
</svg>