<?xml version="1.0" encoding="UTF-8"?>
<svg width="24px" height="24px" viewBox="0 0 24 24" version="1.1" xmlns="http://www.w3.org/2000/svg" xmlns:xlink="http://www.w3.org/1999/xlink">
    <!-- Generator: Sketch 44.1 (41455) - http://www.bohemiancoding.com/sketch -->
    <title>flag new</title>
    <desc>Created with Sketch.</desc>
    <defs></defs>
    <g id="Page-1" stroke="none" stroke-width="1" fill="none" fill-rule="evenodd">
        <g id="page-thème---desktop" transform="translate(-374.000000, -1996.000000)">
            <g id="4-col" transform="translate(150.000000, 773.000000)">
                <g id="col-gauche">
                    <g id="card-small" transform="translate(0.000000, 1214.000000)">
                        <g id="card-2">
                            <g id="flag-new" transform="translate(224.000000, 9.000000)">
                                <rect id="Rectangle-5" fill="#FF6E00" x="0" y="0" width="24" height="24" rx="12"></rect>
                                <path d="M3.701,12.309 L3.701,15.4 L2.425,15.4 L2.425,10.043 L3.668,10.043 L3.668,10.758 C3.83666751,10.4646652 4.06216526,10.2465007 4.3445,10.1035 C4.62683475,9.96049929 4.92933172,9.889 5.252,9.889 C5.88266982,9.889 6.36299835,10.086998 6.693,10.483 C7.02300165,10.879002 7.188,11.3886636 7.188,12.012 L7.188,15.4 L5.912,15.4 L5.912,12.232 C5.912,11.8726649 5.82400088,11.5848344 5.648,11.3685 C5.47199912,11.1521656 5.19333524,11.044 4.812,11.044 C4.45999824,11.044 4.18683431,11.1631655 3.9925,11.4015 C3.7981657,11.6398345 3.701,11.9423315 3.701,12.309 Z M9.63,12.133 L12.259,12.133 C12.2443333,11.795665 12.1251678,11.5133345 11.9015,11.286 C11.6778322,11.0586655 11.3570021,10.945 10.939,10.945 C10.5576648,10.945 10.2496678,11.0641655 10.015,11.3025 C9.78033216,11.5408345 9.65200011,11.8176651 9.63,12.133 Z M12.402,13.53 L13.48,13.871 C13.3259992,14.3623358 13.0381688,14.7674984 12.6165,15.0865 C12.1948312,15.4055016 11.6760031,15.565 11.06,15.565 C10.2973295,15.565 9.65016933,15.3046693 9.1185,14.784 C8.58683068,14.2633307 8.321,13.566671 8.321,12.694 C8.321,11.8726626 8.57949742,11.1980026 9.0965,10.67 C9.61350259,10.1419974 10.2239965,9.878 10.928,9.878 C11.7493374,9.878 12.3909977,10.1291642 12.853,10.6315 C13.3150023,11.1338358 13.546,11.8103291 13.546,12.661 C13.546,12.8883345 13.5350001,13.0239998 13.513,13.068 L9.597,13.068 C9.61166674,13.4713354 9.76016526,13.8049987 10.0425,14.069 C10.3248347,14.3330013 10.663998,14.465 11.06,14.465 C11.7493368,14.465 12.1966656,14.1533365 12.402,13.53 Z M17.726,10.043 L19.046,10.043 L20.311,13.75 L21.378,10.043 L22.676,10.043 L20.96,15.4 L19.684,15.4 L18.353,11.55 L17.055,15.4 L15.746,15.4 L14.008,10.043 L15.372,10.043 L16.461,13.75 L17.726,10.043 Z" id="new" fill="#FFFFFF"></path>
                            </g>
                        </g>
                    </g>
                </g>
            </g>
        </g>
    </g>
</svg>