<?xml version="1.0" encoding="UTF-8"?>
<svg width="24px" height="24px" viewBox="0 0 24 24" version="1.1" xmlns="http://www.w3.org/2000/svg" xmlns:xlink="http://www.w3.org/1999/xlink">
    <!-- Generator: Sketch 44.1 (41455) - http://www.bohemiancoding.com/sketch -->
    <title>flag trending</title>
    <desc>Created with Sketch.</desc>
    <defs></defs>
    <g id="Page-1" stroke="none" stroke-width="1" fill="none" fill-rule="evenodd">
        <g id="page-thème---desktop" transform="translate(-1252.000000, -781.000000)">
            <g id="4-col" transform="translate(150.000000, 773.000000)">
                <g id="col-gauche">
                    <g id="card-2" transform="translate(878.000000, 0.000000)">
                        <g id="flag-trending" transform="translate(224.000000, 8.000000)">
                            <rect id="Rectangle-5" fill="#FF6E00" x="0" y="0" width="24" height="24" rx="12"></rect>
                            <path d="M9.66624692,20 C8.66660581,17.9197489 9.19903729,16.727848 9.9673807,15.6047578 C10.8087828,14.3749542 11.0256519,13.1576018 11.0256519,13.1576018 C11.0256519,13.1576018 11.686989,14.0174609 11.4224761,15.3622907 C12.5909397,14.0615158 12.8115074,11.9890284 12.6351411,11.1953799 C15.2764246,13.0411473 16.4052277,17.0378441 14.883885,20 C22.9752396,15.4217997 16.8966071,8.57167445 15.8382993,7.80007178 C16.1910686,8.57167445 16.2580116,9.87786925 15.545332,10.5118871 C14.3390024,5.93756866 11.3562655,5 11.3562655,5 C11.7090348,7.3590461 10.0775364,9.93865997 8.50441177,11.8661286 C8.44904095,10.9254471 8.39037424,10.2764147 7.89573555,9.37619933 C7.78470093,11.0850777 6.47879911,12.4779542 6.12504107,14.1901285 C5.64611274,16.5087085 6.48396265,18.2064174 9.66624692,20 Z" id="Fill-1" fill="#FFFFFF"></path>
                        </g>
                    </g>
                </g>
            </g>
        </g>
    </g>
</svg>