<?xml version="1.0" encoding="UTF-8"?>
<svg width="24px" height="24px" viewBox="0 0 24 24" version="1.1" xmlns="http://www.w3.org/2000/svg" xmlns:xlink="http://www.w3.org/1999/xlink">
    <!-- Generator: Sketch 44.1 (41455) - http://www.bohemiancoding.com/sketch -->
    <title>flag trending</title>
    <desc>Created with Sketch.</desc>
    <defs></defs>
    <g id="Page-1" stroke="none" stroke-width="1" fill="none" fill-rule="evenodd">
        <g id="page-thème---desktop" transform="translate(-374.000000, -1591.000000)">
            <g id="4-col" transform="translate(150.000000, 773.000000)">
                <g id="col-gauche">
                    <g id="card-thumb-down" transform="translate(0.000000, 810.000000)">
                        <g id="flag-trending" transform="translate(224.000000, 8.000000)">
                            <rect id="Rectangle-5" fill="#FF6E00" x="0" y="0" width="24" height="24" rx="12"></rect>
                            <path d="M18.4000153,16.4 L18.4000153,17.200001 L5.6,17.200001 L5.6,7.59998951 L6.40000095,7.59998951 L6.40000095,16.4 L18.4000153,16.4 Z M17.6000143,8.5999907 L17.6000143,11.3187439 C17.6000143,11.4937442 17.3875141,11.5874943 17.2562639,11.4562441 L16.500013,10.6999932 L12.5437583,14.6562479 C12.4625082,14.737498 12.337508,14.737498 12.2562579,14.6562479 L10.8000062,13.1999962 L8.2000031,15.7999993 L7.00000167,14.5999979 L10.656256,10.9437435 C10.7375061,10.8624934 10.8625063,10.8624934 10.9437564,10.9437435 L12.4000081,12.3999952 L15.3000116,9.49999177 L14.5437607,8.74374087 C14.4125105,8.61249072 14.5062606,8.39999046 14.6812608,8.39999046 L17.4000141,8.39999046 C17.5125142,8.39999046 17.6000143,8.48749057 17.6000143,8.5999907 Z" id="" fill="#FFFFFF"></path>
                        </g>
                    </g>
                </g>
            </g>
        </g>
    </g>
</svg>