<?xml version="1.0" encoding="UTF-8"?>
<svg width="13px" height="17px" viewBox="0 0 13 17" version="1.1" xmlns="http://www.w3.org/2000/svg" xmlns:xlink="http://www.w3.org/1999/xlink">
    <!-- Generator: Sketch 44.1 (41455) - http://www.bohemiancoding.com/sketch -->
    <title></title>
    <desc>Created with Sketch.</desc>
    <defs></defs>
    <g id="Page-1" stroke="none" stroke-width="1" fill="none" fill-rule="evenodd">
        <g id="proposition---inscription---desktop" transform="translate(-719.000000, -412.000000)" fill="#ED1844">
            <g id="Group-2" transform="translate(345.000000, 229.000000)">
                <g id="réseaux-+-form" transform="translate(0.000000, 144.000000)">
                    <g id="formulaire" transform="translate(354.000000, 27.000000)">
                        <g id="prenom">
                            <path d="M32.9285714,25.6238839 C32.9285714,26.3537983 32.7193101,26.9799081 32.3007812,27.5022321 C31.8822524,28.0245562 31.3783512,28.2857143 30.7890625,28.2857143 L22.2109375,28.2857143 C21.6216488,28.2857143 21.1177476,28.0245562 20.6992188,27.5022321 C20.2806899,26.9799081 20.0714286,26.3537983 20.0714286,25.6238839 C20.0714286,25.0546847 20.0998881,24.5173016 20.156808,24.0117188 C20.213728,23.5061359 20.3191957,22.9972124 20.4732143,22.484933 C20.6272329,21.9726537 20.8231015,21.534042 21.0608259,21.1690848 C21.2985503,20.8041276 21.6132793,20.5061395 22.0050223,20.2751116 C22.3967654,20.0440837 22.8470957,19.9285714 23.3560268,19.9285714 C24.2332633,20.7857186 25.2812439,21.2142857 26.5,21.2142857 C27.7187561,21.2142857 28.7667367,20.7857186 29.6439732,19.9285714 C30.1529043,19.9285714 30.6032346,20.0440837 30.9949777,20.2751116 C31.3867207,20.5061395 31.7014497,20.8041276 31.9391741,21.1690848 C32.1768985,21.534042 32.3727671,21.9726537 32.5267857,22.484933 C32.6808043,22.9972124 32.786272,23.5061359 32.843192,24.0117188 C32.9001119,24.5173016 32.9285714,25.0546847 32.9285714,25.6238839 Z M30.3571429,16.7142857 C30.3571429,17.7790232 29.9804725,18.6880543 29.2271205,19.4414062 C28.4737686,20.1947582 27.5647375,20.5714286 26.5,20.5714286 C25.4352625,20.5714286 24.5262314,20.1947582 23.7728795,19.4414062 C23.0195275,18.6880543 22.6428571,17.7790232 22.6428571,16.7142857 C22.6428571,15.6495482 23.0195275,14.7405172 23.7728795,13.9871652 C24.5262314,13.2338132 25.4352625,12.8571429 26.5,12.8571429 C27.5647375,12.8571429 28.4737686,13.2338132 29.2271205,13.9871652 C29.9804725,14.7405172 30.3571429,15.6495482 30.3571429,16.7142857 Z" id=""></path>
                        </g>
                    </g>
                </g>
            </g>
        </g>
    </g>
</svg>