<?xml version="1.0" encoding="UTF-8"?>
<svg width="13px" height="17px" viewBox="0 0 13 17" version="1.1" xmlns="http://www.w3.org/2000/svg" xmlns:xlink="http://www.w3.org/1999/xlink">
    <!-- Generator: Sketch 44.1 (41455) - http://www.bohemiancoding.com/sketch -->
    <title></title>
    <desc>Created with Sketch.</desc>
    <defs></defs>
    <g id="Page-1" stroke="none" stroke-width="1" fill="none" fill-rule="evenodd">
        <g id="proposition---inscription---desktop" transform="translate(-719.000000, -465.000000)" fill="#ED1844">
            <g id="Group-2" transform="translate(345.000000, 229.000000)">
                <g id="réseaux-+-form" transform="translate(0.000000, 144.000000)">
                    <g id="formulaire" transform="translate(354.000000, 27.000000)">
                        <g id="prenom" transform="translate(0.000000, 49.000000)">
                            <path d="M32.0044643,20.0758929 L29.0714286,23.0089286 L29.0714286,31.2857143 C29.0714286,31.5937515 28.9609386,31.8582578 28.7399554,32.0792411 C28.5189721,32.3002243 28.2544658,32.4107143 27.9464286,32.4107143 C27.6383913,32.4107143 27.373885,32.3002243 27.1529018,32.0792411 C26.9319185,31.8582578 26.8214286,31.5937515 26.8214286,31.2857143 L26.8214286,27.4285714 L26.1785714,27.4285714 L26.1785714,31.2857143 C26.1785714,31.5937515 26.0680815,31.8582578 25.8470982,32.0792411 C25.626115,32.3002243 25.3616087,32.4107143 25.0535714,32.4107143 C24.7455342,32.4107143 24.4810279,32.3002243 24.2600446,32.0792411 C24.0390614,31.8582578 23.9285714,31.5937515 23.9285714,31.2857143 L23.9285714,23.0089286 L20.9955357,20.0758929 C20.8080348,19.8883919 20.7142857,19.6607156 20.7142857,19.3928571 C20.7142857,19.1249987 20.8080348,18.8973224 20.9955357,18.7098214 C21.1897331,18.5223205 21.4190835,18.4285714 21.6835938,18.4285714 C21.948104,18.4285714 22.1741062,18.5223205 22.3616071,18.7098214 L24.6517857,21 L28.3482143,21 L30.6383929,18.7098214 C30.8258938,18.5223205 31.0535701,18.4285714 31.3214286,18.4285714 C31.5892871,18.4285714 31.8169633,18.5223205 32.0044643,18.7098214 C32.1919652,18.9040188 32.2857143,19.1333692 32.2857143,19.3978795 C32.2857143,19.6623897 32.1919652,19.8883919 32.0044643,20.0758929 Z M28.75,18.4285714 C28.75,19.0513424 28.5306942,19.5820291 28.0920759,20.0206473 C27.6534576,20.4592656 27.122771,20.6785714 26.5,20.6785714 C25.877229,20.6785714 25.3465424,20.4592656 24.9079241,20.0206473 C24.4693058,19.5820291 24.25,19.0513424 24.25,18.4285714 C24.25,17.8058005 24.4693058,17.2751138 24.9079241,16.8364955 C25.3465424,16.3978773 25.877229,16.1785714 26.5,16.1785714 C27.122771,16.1785714 27.6534576,16.3978773 28.0920759,16.8364955 C28.5306942,17.2751138 28.75,17.8058005 28.75,18.4285714 Z" id=""></path>
                        </g>
                    </g>
                </g>
            </g>
        </g>
    </g>
</svg>