<?xml version="1.0" encoding="UTF-8"?>
<svg width="18px" height="15px" viewBox="0 0 18 15" version="1.1" xmlns="http://www.w3.org/2000/svg" xmlns:xlink="http://www.w3.org/1999/xlink">
    <!-- Generator: Sketch 44.1 (41455) - http://www.bohemiancoding.com/sketch -->
    <title></title>
    <desc>Created with Sketch.</desc>
    <defs></defs>
    <g id="Page-1" stroke="none" stroke-width="1" fill="none" fill-rule="evenodd">
        <g id="proposition---inscription---desktop" transform="translate(-717.000000, -519.000000)" fill="#ED1844">
            <g id="Group-2" transform="translate(345.000000, 229.000000)">
                <g id="réseaux-+-form" transform="translate(0.000000, 144.000000)">
                    <g id="formulaire" transform="translate(354.000000, 27.000000)">
                        <g id="email" transform="translate(0.000000, 106.000000)">
                            <path d="M34.7142857,25.6785714 L34.7142857,17.9642857 C34.4999989,18.2053583 34.2689745,18.4263383 34.0212054,18.6272321 C32.2265535,20.0067033 30.8002285,21.1383884 29.7421875,22.0223214 C29.4006679,22.3102693 29.1227689,22.5345974 28.9084821,22.6953125 C28.6941954,22.8560276 28.4045777,23.0184144 28.0396205,23.1824777 C27.6746634,23.346541 27.3314748,23.4285714 27.0100446,23.4285714 L26.9899554,23.4285714 C26.6685252,23.4285714 26.3253366,23.346541 25.9603795,23.1824777 C25.5954223,23.0184144 25.3058046,22.8560276 25.0915179,22.6953125 C24.8772311,22.5345974 24.5993321,22.3102693 24.2578125,22.0223214 C23.1997715,21.1383884 21.7734465,20.0067033 19.9787946,18.6272321 C19.7310255,18.4263383 19.5000011,18.2053583 19.2857143,17.9642857 L19.2857143,25.6785714 C19.2857143,25.7656254 19.317522,25.8409595 19.3811384,25.9045759 C19.4447548,25.9681923 19.5200889,26 19.6071429,26 L34.3928571,26 C34.4799111,26 34.5552452,25.9681923 34.6188616,25.9045759 C34.682478,25.8409595 34.7142857,25.7656254 34.7142857,25.6785714 Z M34.7142857,15.1216518 L34.7142857,14.875558 C34.7142857,14.845424 34.7126116,14.8018976 34.7092634,14.7449777 C34.7059152,14.6880578 34.6958706,14.6462055 34.6791295,14.6194196 C34.6623883,14.5926338 34.6439733,14.5625002 34.6238839,14.5290179 C34.6037945,14.4955355 34.5736609,14.4704242 34.5334821,14.453683 C34.4933034,14.4369419 34.4464288,14.4285714 34.3928571,14.4285714 L19.6071429,14.4285714 C19.5200889,14.4285714 19.4447548,14.4603791 19.3811384,14.5239955 C19.317522,14.5876119 19.2857143,14.662946 19.2857143,14.75 C19.2857143,15.8750056 19.7778969,16.825889 20.7622768,17.6026786 C22.054694,18.6205408 23.3973145,19.6819141 24.7901786,20.7868304 C24.8303573,20.8203127 24.9475437,20.919084 25.1417411,21.0831473 C25.3359385,21.2472106 25.4899548,21.3727674 25.6037946,21.4598214 C25.7176345,21.5468754 25.8666285,21.6523431 26.0507812,21.7762277 C26.234934,21.9001122 26.4040171,21.9921872 26.5580357,22.0524554 C26.7120543,22.1127235 26.8560261,22.1428571 26.9899554,22.1428571 L27.0100446,22.1428571 C27.1439739,22.1428571 27.2879457,22.1127235 27.4419643,22.0524554 C27.5959829,21.9921872 27.765066,21.9001122 27.9492188,21.7762277 C28.1333715,21.6523431 28.2823655,21.5468754 28.3962054,21.4598214 C28.5100452,21.3727674 28.6640615,21.2472106 28.8582589,21.0831473 C29.0524563,20.919084 29.1696427,20.8203127 29.2098214,20.7868304 C30.6026855,19.6819141 31.945306,18.6205408 33.2377232,17.6026786 C33.5993322,17.3147307 33.9358243,16.9280158 34.2472098,16.4425223 C34.5585953,15.9570288 34.7142857,15.516743 34.7142857,15.1216518 Z M36,14.75 L36,25.6785714 C36,26.1205379 35.8426355,26.4988824 35.5279018,26.8136161 C35.2131681,27.1283498 34.8348236,27.2857143 34.3928571,27.2857143 L19.6071429,27.2857143 C19.1651764,27.2857143 18.7868319,27.1283498 18.4720982,26.8136161 C18.1573645,26.4988824 18,26.1205379 18,25.6785714 L18,14.75 C18,14.3080335 18.1573645,13.9296891 18.4720982,13.6149554 C18.7868319,13.3002216 19.1651764,13.1428571 19.6071429,13.1428571 L34.3928571,13.1428571 C34.8348236,13.1428571 35.2131681,13.3002216 35.5279018,13.6149554 C35.8426355,13.9296891 36,14.3080335 36,14.75 Z" id=""></path>
                        </g>
                    </g>
                </g>
            </g>
        </g>
    </g>
</svg>