<?xml version="1.0" encoding="UTF-8"?>
<svg width="12px" height="15px" viewBox="0 0 12 15" version="1.1" xmlns="http://www.w3.org/2000/svg" xmlns:xlink="http://www.w3.org/1999/xlink">
    <!-- Generator: Sketch 44.1 (41455) - http://www.bohemiancoding.com/sketch -->
    <title></title>
    <desc>Created with Sketch.</desc>
    <defs></defs>
    <g id="Page-1" stroke="none" stroke-width="1" fill="none" fill-rule="evenodd">
        <g id="proposition---inscription---desktop" transform="translate(-720.000000, -625.000000)" fill="#ED1844">
            <g id="Group-2" transform="translate(345.000000, 229.000000)">
                <g id="réseaux-+-form" transform="translate(0.000000, 144.000000)">
                    <g id="formulaire" transform="translate(354.000000, 27.000000)">
                        <g id="mdp" transform="translate(0.000000, 214.000000)">
                            <path d="M24.4285714,18.2857143 L29.5714286,18.2857143 L29.5714286,16.3571429 C29.5714286,15.6473179 29.320315,15.0412972 28.8180804,14.5390625 C28.3158457,14.0368278 27.709825,13.7857143 27,13.7857143 C26.290175,13.7857143 25.6841543,14.0368278 25.1819196,14.5390625 C24.679685,15.0412972 24.4285714,15.6473179 24.4285714,16.3571429 L24.4285714,18.2857143 Z M32.7857143,19.25 L32.7857143,25.0357143 C32.7857143,25.3035728 32.6919652,25.5312491 32.5044643,25.71875 C32.3169633,25.9062509 32.0892871,26 31.8214286,26 L22.1785714,26 C21.9107129,26 21.6830367,25.9062509 21.4955357,25.71875 C21.3080348,25.5312491 21.2142857,25.3035728 21.2142857,25.0357143 L21.2142857,19.25 C21.2142857,18.9821415 21.3080348,18.7544652 21.4955357,18.5669643 C21.6830367,18.3794633 21.9107129,18.2857143 22.1785714,18.2857143 L22.5,18.2857143 L22.5,16.3571429 C22.5,15.1249938 22.9419599,14.0669687 23.8258929,13.1830357 C24.7098258,12.2991027 25.767851,11.8571429 27,11.8571429 C28.232149,11.8571429 29.2901742,12.2991027 30.1741071,13.1830357 C31.0580401,14.0669687 31.5,15.1249938 31.5,16.3571429 L31.5,18.2857143 L31.8214286,18.2857143 C32.0892871,18.2857143 32.3169633,18.3794633 32.5044643,18.5669643 C32.6919652,18.7544652 32.7857143,18.9821415 32.7857143,19.25 Z" id=""></path>
                        </g>
                    </g>
                </g>
            </g>
        </g>
    </g>
</svg>