<?xml version="1.0" encoding="UTF-8"?>
<svg width="18px" height="16px" viewBox="0 0 18 16" version="1.1" xmlns="http://www.w3.org/2000/svg" xmlns:xlink="http://www.w3.org/1999/xlink">
    <!-- Generator: Sketch 44.1 (41455) - http://www.bohemiancoding.com/sketch -->
    <title></title>
    <desc>Created with Sketch.</desc>
    <defs></defs>
    <g id="Page-1" stroke="none" stroke-width="1" fill="none" fill-rule="evenodd">
        <g id="proposition---inscription---desktop" transform="translate(-717.000000, -569.000000)" fill="#ED1844">
            <g id="Group-2" transform="translate(345.000000, 229.000000)">
                <g id="réseaux-+-form" transform="translate(0.000000, 144.000000)">
                    <g id="formulaire" transform="translate(354.000000, 27.000000)">
                        <g id="profession" transform="translate(0.000000, 159.000000)">
                            <path d="M24.4285714,13.1428571 L29.5714286,13.1428571 L29.5714286,11.8571429 L24.4285714,11.8571429 L24.4285714,13.1428571 Z M36,19.5714286 L36,24.3928571 C36,24.8348236 35.8426355,25.2131681 35.5279018,25.5279018 C35.2131681,25.8426355 34.8348236,26 34.3928571,26 L19.6071429,26 C19.1651764,26 18.7868319,25.8426355 18.4720982,25.5279018 C18.1573645,25.2131681 18,24.8348236 18,24.3928571 L18,19.5714286 L24.75,19.5714286 L24.75,21.1785714 C24.75,21.3526794 24.8136154,21.5033476 24.9408482,21.6305804 C25.068081,21.7578131 25.2187491,21.8214286 25.3928571,21.8214286 L28.6071429,21.8214286 C28.7812509,21.8214286 28.931919,21.7578131 29.0591518,21.6305804 C29.1863846,21.5033476 29.25,21.3526794 29.25,21.1785714 L29.25,19.5714286 L36,19.5714286 Z M28.2857143,19.5714286 L28.2857143,20.8571429 L25.7142857,20.8571429 L25.7142857,19.5714286 L28.2857143,19.5714286 Z M36,14.75 L36,18.6071429 L18,18.6071429 L18,14.75 C18,14.3080335 18.1573645,13.9296891 18.4720982,13.6149554 C18.7868319,13.3002216 19.1651764,13.1428571 19.6071429,13.1428571 L23.1428571,13.1428571 L23.1428571,11.5357143 C23.1428571,11.2678558 23.2366062,11.0401795 23.4241071,10.8526786 C23.6116081,10.6651776 23.8392844,10.5714286 24.1071429,10.5714286 L29.8928571,10.5714286 C30.1607156,10.5714286 30.3883919,10.6651776 30.5758929,10.8526786 C30.7633938,11.0401795 30.8571429,11.2678558 30.8571429,11.5357143 L30.8571429,13.1428571 L34.3928571,13.1428571 C34.8348236,13.1428571 35.2131681,13.3002216 35.5279018,13.6149554 C35.8426355,13.9296891 36,14.3080335 36,14.75 Z" id=""></path>
                        </g>
                    </g>
                </g>
            </g>
        </g>
    </g>
</svg>