<?xml version="1.0" encoding="UTF-8"?>
<svg width="65px" height="100px" viewBox="0 0 65 100" version="1.1" xmlns="http://www.w3.org/2000/svg" xmlns:xlink="http://www.w3.org/1999/xlink">
    <!-- Generator: Sketch 45.2 (43514) - http://www.bohemiancoding.com/sketch -->
    <title></title>
    <desc>Created with Sketch.</desc>
    <defs></defs>
    <g id="Home" stroke="none" stroke-width="1" fill="none" fill-rule="evenodd" fill-opacity="0.05">
        <g id="home-color" transform="translate(-1210.000000, -707.000000)" fill="#000000">
            <g id="home-color-main-content-(minus-à-la-une)" transform="translate(0.000000, 116.000000)">
                <g id="bloc-écologie" transform="translate(0.000000, 387.000000)">
                    <g id="card-04-proposition" transform="translate(1027.000000, 156.000000)">
                        <g id="card-2">
                            <path d="M229.71875,77.1666667 C229.71875,78.2734375 228.766602,79.25 227.6875,79.25 C226.608398,79.25 225.65625,78.2734375 225.65625,77.1666667 C225.65625,72.6744792 218.864258,70.9166667 215.5,70.9166667 C214.420898,70.9166667 213.46875,69.9401042 213.46875,68.8333333 C213.46875,67.7265625 214.420898,66.75 215.5,66.75 C221.40332,66.75 229.71875,69.9401042 229.71875,77.1666667 Z M239.875,77.1666667 C239.875,64.1458333 226.989258,56.3333333 215.5,56.3333333 C204.010742,56.3333333 191.125,64.1458333 191.125,77.1666667 C191.125,81.3333333 192.775391,85.6953125 195.441406,88.8854167 C196.647461,90.3177083 198.043945,91.6848958 199.313477,93.1822917 C203.820313,98.7161458 207.628906,105.226562 208.263672,112.583333 L222.736328,112.583333 C223.371094,105.226562 227.179688,98.7161458 231.686523,93.1822917 C232.956055,91.6848958 234.352539,90.3177083 235.558594,88.8854167 C238.224609,85.6953125 239.875,81.3333333 239.875,77.1666667 Z M248,77.1666667 C248,83.8723958 245.841797,89.6666667 241.461914,94.6145833 C237.082031,99.5625 231.305664,106.528646 230.797852,113.494792 C232.638672,114.601563 233.78125,116.684896 233.78125,118.833333 C233.78125,120.395833 233.209961,121.893229 232.194336,123 C233.209961,124.106771 233.78125,125.604167 233.78125,127.166667 C233.78125,129.315104 232.702148,131.268229 230.924805,132.440104 C231.432617,133.351563 231.75,134.458333 231.75,135.5 C231.75,139.731771 228.512695,141.75 224.831055,141.75 C223.180664,145.526042 219.499023,148 215.5,148 C211.500977,148 207.819336,145.526042 206.168945,141.75 C202.487305,141.75 199.25,139.731771 199.25,135.5 C199.25,134.458333 199.567383,133.351563 200.075195,132.440104 C198.297852,131.268229 197.21875,129.315104 197.21875,127.166667 C197.21875,125.604167 197.790039,124.106771 198.805664,123 C197.790039,121.893229 197.21875,120.395833 197.21875,118.833333 C197.21875,116.684896 198.361328,114.601563 200.202148,113.494792 C199.694336,106.528646 193.917969,99.5625 189.538086,94.6145833 C185.158203,89.6666667 183,83.8723958 183,77.1666667 C183,59.4583333 199.44043,48 215.5,48 C231.55957,48 248,59.4583333 248,77.1666667 Z" id=""></path>
                        </g>
                    </g>
                </g>
            </g>
        </g>
    </g>
</svg>