<?xml version="1.0" encoding="UTF-8"?>
<svg width="17px" height="26px" viewBox="0 0 17 26" version="1.1" xmlns="http://www.w3.org/2000/svg" xmlns:xlink="http://www.w3.org/1999/xlink">
    <!-- Generator: Sketch 44.1 (41455) - http://www.bohemiancoding.com/sketch -->
    <title></title>
    <desc>Created with Sketch.</desc>
    <defs></defs>
    <g id="Symbols" stroke="none" stroke-width="1" fill="none" fill-rule="evenodd">
        <g id="champ-proposition" transform="translate(-28.000000, -16.000000)" fill="#ED1844">
            <g id="idee">
                <g transform="translate(21.000000, 11.000000)">
                    <path d="M19.21875,12.5833333 C19.21875,12.8710938 18.9697266,13.125 18.6875,13.125 C18.4052734,13.125 18.15625,12.8710938 18.15625,12.5833333 C18.15625,11.4153646 16.3798828,10.9583333 15.5,10.9583333 C15.2177734,10.9583333 14.96875,10.7044271 14.96875,10.4166667 C14.96875,10.1289063 15.2177734,9.875 15.5,9.875 C17.0439453,9.875 19.21875,10.7044271 19.21875,12.5833333 Z M21.875,12.5833333 C21.875,9.19791667 18.5048828,7.16666667 15.5,7.16666667 C12.4951172,7.16666667 9.125,9.19791667 9.125,12.5833333 C9.125,13.6666667 9.55664062,14.8007812 10.2539062,15.6302083 C10.5693359,16.0026042 10.9345703,16.3580729 11.2666016,16.7473958 C12.4453125,18.1861979 13.4414062,19.8789062 13.6074219,21.7916667 L17.3925781,21.7916667 C17.5585938,19.8789062 18.5546875,18.1861979 19.7333984,16.7473958 C20.0654297,16.3580729 20.4306641,16.0026042 20.7460938,15.6302083 C21.4433594,14.8007812 21.875,13.6666667 21.875,12.5833333 Z M24,12.5833333 C24,14.3268229 23.4355469,15.8333333 22.2900391,17.1197917 C21.1445312,18.40625 19.6337891,20.2174479 19.5009766,22.0286458 C19.9824219,22.3164062 20.28125,22.8580729 20.28125,23.4166667 C20.28125,23.8229167 20.1318359,24.2122396 19.8662109,24.5 C20.1318359,24.7877604 20.28125,25.1770833 20.28125,25.5833333 C20.28125,26.1419271 19.9990234,26.6497396 19.5341797,26.9544271 C19.6669922,27.1914062 19.75,27.4791667 19.75,27.75 C19.75,28.8502604 18.9033203,29.375 17.9404297,29.375 C17.5087891,30.3567708 16.5458984,31 15.5,31 C14.4541016,31 13.4912109,30.3567708 13.0595703,29.375 C12.0966797,29.375 11.25,28.8502604 11.25,27.75 C11.25,27.4791667 11.3330078,27.1914062 11.4658203,26.9544271 C11.0009766,26.6497396 10.71875,26.1419271 10.71875,25.5833333 C10.71875,25.1770833 10.8681641,24.7877604 11.1337891,24.5 C10.8681641,24.2122396 10.71875,23.8229167 10.71875,23.4166667 C10.71875,22.8580729 11.0175781,22.3164062 11.4990234,22.0286458 C11.3662109,20.2174479 9.85546875,18.40625 8.70996094,17.1197917 C7.56445312,15.8333333 7,14.3268229 7,12.5833333 C7,7.97916667 11.2998047,5 15.5,5 C19.7001953,5 24,7.97916667 24,12.5833333 Z" id=""></path>
                </g>
            </g>
        </g>
    </g>
</svg>