<?xml version="1.0" encoding="UTF-8"?>
<svg width="75px" height="70px" viewBox="0 0 75 70" version="1.1" xmlns="http://www.w3.org/2000/svg" xmlns:xlink="http://www.w3.org/1999/xlink">
    <!-- Generator: Sketch 44.1 (41455) - http://www.bohemiancoding.com/sketch -->
    <title></title>
    <desc>Created with Sketch.</desc>
    <defs></defs>
    <g id="Page-1" stroke="none" stroke-width="1" fill="none" fill-rule="evenodd">
        <g id="parcours-séquence-rebond---desktop" transform="translate(-1040.000000, -475.000000)" fill="#000000">
            <g id="carroussel" transform="translate(0.000000, 213.000000)">
                <g id="card-2" transform="translate(150.000000, 101.000000)">
                    <g id="mini-card-agissez" transform="translate(764.000000, 103.000000)">
                        <path d="M149.164062,93 C144.945291,93.130209 141.494805,94.796859 138.8125,98 L133.578125,98 C131.442698,98 129.645841,97.4726615 128.1875,96.4179688 C126.729159,95.363276 126,93.8203227 126,91.7890625 C126,82.5963082 127.614567,78 130.84375,78 C131.000001,78 131.566401,78.2734348 132.542969,78.8203125 C133.519536,79.3671902 134.789055,79.9205701 136.351562,80.4804688 C137.91407,81.0403674 139.463534,81.3203125 141,81.3203125 C142.7448,81.3203125 144.476554,81.0208363 146.195312,80.421875 C146.065104,81.3854215 146,82.2447879 146,83 C146,86.6198098 147.054677,89.9531098 149.164062,93 Z M191,117.882812 C191,121.007828 190.049489,123.475251 188.148438,125.285156 C186.247386,127.095061 183.72137,128 180.570312,128 L146.429688,128 C143.27863,128 140.752614,127.095061 138.851562,125.285156 C136.950511,123.475251 136,121.007828 136,117.882812 C136,116.502597 136.045572,115.154954 136.136719,113.839844 C136.227865,112.524733 136.410155,111.105476 136.683594,109.582031 C136.957033,108.058586 137.302081,106.64584 137.71875,105.34375 C138.135419,104.04166 138.695309,102.772142 139.398438,101.535156 C140.101566,100.298171 140.90885,99.2434939 141.820312,98.3710938 C142.731775,97.4986936 143.845046,96.8020859 145.160156,96.28125 C146.475267,95.7604141 147.927075,95.5 149.515625,95.5 C149.776043,95.5 150.335933,95.7799451 151.195312,96.3398438 C152.054692,96.8997424 153.005203,97.5247361 154.046875,98.2148438 C155.088547,98.9049514 156.481762,99.5299451 158.226562,100.089844 C159.971363,100.649742 161.729158,100.929688 163.5,100.929688 C165.270842,100.929688 167.028637,100.649742 168.773438,100.089844 C170.518238,99.5299451 171.911453,98.9049514 172.953125,98.2148438 C173.994797,97.5247361 174.945308,96.8997424 175.804688,96.3398438 C176.664067,95.7799451 177.223957,95.5 177.484375,95.5 C179.072925,95.5 180.524733,95.7604141 181.839844,96.28125 C183.154954,96.8020859 184.268225,97.4986936 185.179688,98.3710938 C186.09115,99.2434939 186.898434,100.298171 187.601562,101.535156 C188.304691,102.772142 188.864581,104.04166 189.28125,105.34375 C189.697919,106.64584 190.042967,108.058586 190.316406,109.582031 C190.589845,111.105476 190.772135,112.524733 190.863281,113.839844 C190.954428,115.154954 191,116.502597 191,117.882812 Z M151,68 C151,70.7604305 150.023447,73.1171777 148.070312,75.0703125 C146.117178,77.0234473 143.76043,78 141,78 C138.23957,78 135.882822,77.0234473 133.929688,75.0703125 C131.976553,73.1171777 131,70.7604305 131,68 C131,65.2395695 131.976553,62.8828223 133.929688,60.9296875 C135.882822,58.9765527 138.23957,58 141,58 C143.76043,58 146.117178,58.9765527 148.070312,60.9296875 C150.023447,62.8828223 151,65.2395695 151,68 Z M178.5,83 C178.5,87.1406457 177.035171,90.6757666 174.105469,93.6054688 C171.175767,96.5351709 167.640646,98 163.5,98 C159.359354,98 155.824233,96.5351709 152.894531,93.6054688 C149.964829,90.6757666 148.5,87.1406457 148.5,83 C148.5,78.8593543 149.964829,75.3242334 152.894531,72.3945312 C155.824233,69.4648291 159.359354,68 163.5,68 C167.640646,68 171.175767,69.4648291 174.105469,72.3945312 C177.035171,75.3242334 178.5,78.8593543 178.5,83 Z M201,91.7890625 C201,93.8203227 200.270841,95.363276 198.8125,96.4179688 C197.354159,97.4726615 195.557302,98 193.421875,98 L188.1875,98 C185.505195,94.796859 182.054709,93.130209 177.835938,93 C179.945323,89.9531098 181,86.6198098 181,83 C181,82.2447879 180.934896,81.3854215 180.804688,80.421875 C182.523446,81.0208363 184.2552,81.3203125 186,81.3203125 C187.536466,81.3203125 189.08593,81.0403674 190.648438,80.4804688 C192.210945,79.9205701 193.480464,79.3671902 194.457031,78.8203125 C195.433599,78.2734348 195.999999,78 196.15625,78 C199.385433,78 201,82.5963082 201,91.7890625 Z M196,68 C196,70.7604305 195.023447,73.1171777 193.070312,75.0703125 C191.117178,77.0234473 188.76043,78 186,78 C183.23957,78 180.882822,77.0234473 178.929688,75.0703125 C176.976553,73.1171777 176,70.7604305 176,68 C176,65.2395695 176.976553,62.8828223 178.929688,60.9296875 C180.882822,58.9765527 183.23957,58 186,58 C188.76043,58 191.117178,58.9765527 193.070312,60.9296875 C195.023447,62.8828223 196,65.2395695 196,68 Z" id=""></path>
                    </g>
                </g>
            </g>
        </g>
    </g>
</svg>