<?xml version="1.0" encoding="UTF-8"?>
<svg width="66px" height="70px" viewBox="0 0 66 70" version="1.1" xmlns="http://www.w3.org/2000/svg" xmlns:xlink="http://www.w3.org/1999/xlink">
    <!-- Generator: Sketch 44.1 (41455) - http://www.bohemiancoding.com/sketch -->
    <title></title>
    <desc>Created with Sketch.</desc>
    <defs></defs>
    <g id="Page-1" stroke="none" stroke-width="1" fill="none" fill-rule="evenodd">
        <g id="parcours-séquence-rebond---desktop" transform="translate(-687.000000, -475.000000)" fill="#000000">
            <g id="carroussel" transform="translate(0.000000, 213.000000)">
                <g id="card-2" transform="translate(150.000000, 101.000000)">
                    <g id="mini-card-interpelez" transform="translate(407.000000, 103.000000)">
                        <path d="M163.625,124.25 C163.625,123.833331 163.416669,123.625 163,123.625 C161.463534,123.625 160.141933,123.07162 159.035156,121.964844 C157.92838,120.858067 157.375,119.536466 157.375,118 C157.375,117.583331 157.166669,117.375 156.75,117.375 C156.333331,117.375 156.125,117.583331 156.125,118 C156.125,119.901051 156.795566,121.522129 158.136719,122.863281 C159.477871,124.204434 161.098949,124.875 163,124.875 C163.416669,124.875 163.625,124.666669 163.625,124.25 Z M137.609375,113 L188.390625,113 C181.463507,105.187461 178,94.3542359 178,80.5 C178,79.1718684 177.687503,77.8046945 177.0625,76.3984375 C176.437497,74.9921805 175.539068,73.651048 174.367188,72.375 C173.195307,71.098952 171.613291,70.0507854 169.621094,69.2304688 C167.628896,68.4101521 165.421887,68 163,68 C160.578113,68 158.371104,68.4101521 156.378906,69.2304688 C154.386709,70.0507854 152.804693,71.098952 151.632812,72.375 C150.460932,73.651048 149.562503,74.9921805 148.9375,76.3984375 C148.312497,77.8046945 148,79.1718684 148,80.5 C148,94.3542359 144.536493,105.187461 137.609375,113 Z M195.5,113 C195.5,114.354173 195.005213,115.526037 194.015625,116.515625 C193.026037,117.505213 191.854173,118 190.5,118 L173,118 C173,120.76043 172.023447,123.117178 170.070312,125.070312 C168.117178,127.023447 165.76043,128 163,128 C160.23957,128 157.882822,127.023447 155.929688,125.070312 C153.976553,123.117178 153,120.76043 153,118 L135.5,118 C134.145827,118 132.973963,117.505213 131.984375,116.515625 C130.994787,115.526037 130.5,114.354173 130.5,113 C131.80209,111.906245 132.986974,110.760423 134.054688,109.5625 C135.122401,108.364577 136.229161,106.808603 137.375,104.894531 C138.520839,102.980459 139.490881,100.916678 140.285156,98.703125 C141.079431,96.4895723 141.730466,93.8073074 142.238281,90.65625 C142.746096,87.5051926 143,84.1198098 143,80.5 C143,76.5416469 144.523422,72.8632982 147.570312,69.4648438 C150.617203,66.0663893 154.614559,64.0026078 159.5625,63.2734375 C159.354166,62.7786434 159.25,62.2708359 159.25,61.75 C159.25,60.7083281 159.61458,59.8229203 160.34375,59.09375 C161.07292,58.3645797 161.958328,58 163,58 C164.041672,58 164.92708,58.3645797 165.65625,59.09375 C166.38542,59.8229203 166.75,60.7083281 166.75,61.75 C166.75,62.2708359 166.645834,62.7786434 166.4375,63.2734375 C171.385441,64.0026078 175.382797,66.0663893 178.429688,69.4648438 C181.476578,72.8632982 183,76.5416469 183,80.5 C183,84.1198098 183.253904,87.5051926 183.761719,90.65625 C184.269534,93.8073074 184.920569,96.4895723 185.714844,98.703125 C186.509119,100.916678 187.479161,102.980459 188.625,104.894531 C189.770839,106.808603 190.877599,108.364577 191.945312,109.5625 C193.013026,110.760423 194.19791,111.906245 195.5,113 Z" id=""></path>
                    </g>
                </g>
            </g>
        </g>
    </g>
</svg>