<?xml version="1.0" encoding="UTF-8"?>
<svg width="100px" height="80px" viewBox="0 0 100 80" version="1.1" xmlns="http://www.w3.org/2000/svg" xmlns:xlink="http://www.w3.org/1999/xlink">
    <!-- Generator: Sketch 44.1 (41455) - http://www.bohemiancoding.com/sketch -->
    <title></title>
    <desc>Created with Sketch.</desc>
    <defs></defs>
    <g id="Page-1" stroke="none" stroke-width="1" fill="none" fill-rule="evenodd">
        <g id="parcours-séquence-rebond---desktop" transform="translate(-314.000000, -474.000000)" fill="#000000">
            <g id="carroussel" transform="translate(0.000000, 213.000000)">
                <g id="card-2" transform="translate(150.000000, 101.000000)">
                    <g id="mini-card-debattez" transform="translate(51.000000, 103.000000)">
                        <path d="M191.571429,86.1428571 C191.571429,91.314014 189.822934,96.0944721 186.325893,100.484375 C182.828852,104.874278 178.057694,108.343365 172.012277,110.891741 C165.96686,113.440117 159.391405,114.714286 152.285714,114.714286 C149.086294,114.714286 145.812517,114.41667 142.464286,113.821429 C137.851167,117.095254 132.680088,119.476183 126.950893,120.964286 C125.6116,121.299109 124.011914,121.596725 122.151786,121.857143 L121.984375,121.857143 C121.575147,121.857143 121.193826,121.708335 120.840402,121.410714 C120.486977,121.113094 120.273066,120.722473 120.198661,120.238839 C120.161458,120.127232 120.142857,120.006325 120.142857,119.876116 C120.142857,119.745907 120.152158,119.625001 120.170759,119.513393 C120.18936,119.401785 120.226562,119.290179 120.282366,119.178571 L120.421875,118.899554 C120.459078,118.825148 120.524181,118.722843 120.617188,118.592634 C120.710194,118.462425 120.784598,118.36942 120.840402,118.313616 C120.896206,118.257812 120.97991,118.164807 121.091518,118.034598 C121.203126,117.904389 121.27753,117.820685 121.314732,117.783482 C121.500745,117.560267 121.928568,117.095242 122.598214,116.388393 C123.26786,115.681544 123.751487,115.132814 124.049107,114.742188 C124.346728,114.351561 124.76525,113.812131 125.304688,113.123884 C125.844125,112.435636 126.30915,111.719498 126.699777,110.975446 C127.090404,110.231395 127.471724,109.412951 127.84375,108.520089 C123.230632,105.841504 119.603436,102.549127 116.962054,98.6428571 C114.320671,94.7365876 113,90.5699626 113,86.1428571 C113,80.9717003 114.748494,76.1912422 118.245536,71.8013393 C121.742577,67.4114364 126.513735,63.9423491 132.559152,61.3939732 C138.604569,58.8455974 145.180024,57.5714286 152.285714,57.5714286 C159.391405,57.5714286 165.96686,58.8455974 172.012277,61.3939732 C178.057694,63.9423491 182.828852,67.4114364 186.325893,71.8013393 C189.822934,76.1912422 191.571429,80.9717003 191.571429,86.1428571 Z M213,100.428571 C213,104.892879 211.679329,109.068805 209.037946,112.956473 C206.396564,116.844141 202.769368,120.127219 198.15625,122.805804 C198.528276,123.698665 198.909596,124.517109 199.300223,125.261161 C199.69085,126.005212 200.155875,126.721351 200.695312,127.409598 C201.23475,128.097846 201.653272,128.637275 201.950893,129.027902 C202.248513,129.418529 202.73214,129.967258 203.401786,130.674107 C204.071432,131.380956 204.499255,131.845981 204.685268,132.069196 C204.72247,132.106399 204.796874,132.190104 204.908482,132.320312 C205.02009,132.450521 205.103794,132.543527 205.159598,132.59933 C205.215402,132.655134 205.289806,132.748139 205.382812,132.878348 C205.475819,133.008557 205.540922,133.110863 205.578125,133.185268 L205.717634,133.464286 C205.773438,133.575893 205.81064,133.687499 205.829241,133.799107 C205.847842,133.910715 205.857143,134.031621 205.857143,134.16183 C205.857143,134.292039 205.838542,134.412946 205.801339,134.524554 C205.689732,135.04539 205.447919,135.454612 205.075893,135.752232 C204.703867,136.049853 204.294645,136.18006 203.848214,136.142857 C201.988086,135.882439 200.3884,135.584823 199.049107,135.25 C193.319912,133.761897 188.148833,131.380969 183.535714,128.107143 C180.187483,128.702384 176.913706,129 173.714286,129 C163.63239,129 154.852716,126.544667 147.375,121.633929 C149.532749,121.782739 151.169637,121.857143 152.285714,121.857143 C158.275328,121.857143 164.023038,121.020098 169.529018,119.345982 C175.034998,117.671867 179.945663,115.272337 184.261161,112.147321 C188.911482,108.724685 192.482874,104.781272 194.975446,100.316964 C197.468018,95.8526562 198.714286,91.1280011 198.714286,86.1428571 C198.714286,83.2782595 198.286463,80.4509068 197.430804,77.6607143 C202.229935,80.3020965 206.02454,83.6130753 208.814732,87.59375 C211.604925,91.5744247 213,95.8526557 213,100.428571 Z" id=""></path>
                    </g>
                </g>
            </g>
        </g>
    </g>
</svg>