<?xml version="1.0" encoding="UTF-8"?>
<svg width="129px" height="82px" viewBox="0 0 129 82" version="1.1" xmlns="http://www.w3.org/2000/svg" xmlns:xlink="http://www.w3.org/1999/xlink">
    <!-- Generator: Sketch 45.1 (43504) - http://www.bohemiancoding.com/sketch -->
    <title>Group 5</title>
    <desc>Created with Sketch.</desc>
    <defs></defs>
    <g id="Page-thème" stroke="none" stroke-width="1" fill="none" fill-rule="evenodd">
        <g id="page-thème---50-shades-of-card-color" transform="translate(-535.000000, -1171.000000)">
            <g id="card-04" transform="translate(443.000000, 673.000000)">
                <g id="card-thumb-up" transform="translate(0.000000, 78.000000)">
                    <g id="Group-2" transform="translate(26.000000, 161.000000)">
                        <g id="Group-7">
                            <g id="Group-5" transform="translate(66.000000, 260.000000)">
                                <path d="M10.456,7.392 L10,8.736 C9.56799784,8.55199908 9.14000212,8.46 8.716,8.46 C8.0359966,8.46 7.45800238,8.65399806 6.982,9.042 C6.50599762,9.43000194 6.22400044,9.97999644 6.136,10.692 C6.2960008,10.4519988 6.53799838,10.2480008 6.862,10.08 C7.18600162,9.91199916 7.55999788,9.828 7.984,9.828 C8.79200404,9.828 9.44199754,10.0639976 9.934,10.536 C10.4260025,11.0080024 10.672,11.643996 10.672,12.444 C10.672,13.236004 10.3860029,13.8899974 9.814,14.406 C9.24199714,14.9220026 8.52400432,15.18 7.66,15.18 C6.76399552,15.18 6.01400302,14.8660031 5.41,14.238 C4.80599698,13.6099969 4.504,12.7320056 4.504,11.604 C4.504,10.211993 4.89999604,9.10200414 5.692,8.274 C6.48400396,7.44599586 7.52799352,7.032 8.824,7.032 C9.5040034,7.032 10.047998,7.1519988 10.456,7.392 Z M6.28,12.48 C6.28,12.8640019 6.41399866,13.1779988 6.682,13.422 C6.95000134,13.6660012 7.27199812,13.788 7.648,13.788 C8.04000196,13.788 8.36799868,13.6680012 8.632,13.428 C8.89600132,13.1879988 9.028,12.872002 9.028,12.48 C9.028,12.087998 8.89600132,11.7740012 8.632,11.538 C8.36799868,11.3019988 8.04000196,11.184 7.648,11.184 C7.26399808,11.184 6.94000132,11.3019988 6.676,11.538 C6.41199868,11.7740012 6.28,12.087998 6.28,12.48 Z M11.668,14.04 C11.668,13.7519986 11.771999,13.512001 11.98,13.32 C12.188001,13.127999 12.4479984,13.032 12.76,13.032 C13.1200018,13.032 13.4079989,13.1619987 13.624,13.422 C13.8400011,13.6820013 13.948,14.011998 13.948,14.412 C13.948,15.212004 13.7300022,15.8319978 13.294,16.272 C12.8579978,16.7120022 12.3720027,16.9639997 11.836,17.028 L11.836,16.26 C12.1240014,16.1959997 12.3839988,16.0420012 12.616,15.798 C12.8480012,15.5539988 12.968,15.2760016 12.976,14.964 C12.9119997,15.0120002 12.8080007,15.036 12.664,15.036 C12.3679985,15.036 12.1280009,14.9420009 11.944,14.754 C11.7599991,14.5659991 11.668,14.3280014 11.668,14.04 Z M15.028,12.816 L16.576,12.468 C16.5920001,12.8360018 16.7299987,13.1459987 16.99,13.398 C17.2500013,13.6500013 17.583998,13.776 17.992,13.776 C18.3760019,13.776 18.6959987,13.6600012 18.952,13.428 C19.2080013,13.1959988 19.336,12.8880019 19.336,12.504 C19.336,12.0799979 19.2020013,11.7560011 18.934,11.532 C18.6659987,11.3079989 18.3400019,11.196 17.956,11.196 C17.4679976,11.196 17.0680016,11.3719982 16.756,11.724 C16.1879972,11.5079989 15.6840022,11.3360006 15.244,11.208 L16.168,7.212 L20.56,7.212 L20.56,8.64 L17.296,8.64 L16.912,10.356 C17.2560017,10.0359984 17.723997,9.876 18.316,9.876 C19.116004,9.876 19.7599976,10.1059977 20.248,10.566 C20.7360024,11.0260023 20.98,11.6639959 20.98,12.48 C20.98,13.2320038 20.7080027,13.8719974 20.164,14.4 C19.6199973,14.9280026 18.8960045,15.192 17.992,15.192 C17.1759959,15.192 16.4900028,14.9560024 15.934,14.484 C15.3779972,14.0119976 15.0760002,13.4560032 15.028,12.816 Z M27.484,15 L25.012,11.472 L23.956,12.636 L23.956,15 L22.3,15 L22.3,6.492 L23.956,6.492 L23.956,10.344 L27.364,6.492 L29.536,6.492 L26.164,10.2 L29.56,15 L27.484,15 Z M33.328,11.196 C33.328,8.93198868 34.0879924,7.02400776 35.608,5.472 L36.292,6.072 C34.9639934,7.56000744 34.3,9.26799036 34.3,11.196 C34.3,13.1240096 34.9639934,14.8319926 36.292,16.32 L35.608,16.92 C34.0879924,15.3679922 33.328,13.4600113 33.328,11.196 Z M39.652,10.536 C40.0680021,10.528 40.4119986,10.4080012 40.684,10.176 C40.9560014,9.94399884 41.092,9.64000188 41.092,9.264 C41.092,8.91199824 40.9600013,8.6160012 40.696,8.376 C40.4319987,8.1359988 40.0840022,8.016 39.652,8.016 C39.2199978,8.016 38.8720013,8.1359988 38.608,8.376 C38.3439987,8.6160012 38.212,8.91199824 38.212,9.264 C38.212,9.64000188 38.3479986,9.94399884 38.62,10.176 C38.8920014,10.4080012 39.2359979,10.528 39.652,10.536 Z M39.652,14.16 C40.1560025,14.16 40.5539985,14.0360012 40.846,13.788 C41.1380015,13.5399988 41.284,13.2280019 41.284,12.852 C41.284,12.4679981 41.1380015,12.1500013 40.846,11.898 C40.5539985,11.6459987 40.1560025,11.52 39.652,11.52 C39.1479975,11.52 38.7500015,11.6459987 38.458,11.898 C38.1659985,12.1500013 38.02,12.4679981 38.02,12.852 C38.02,13.2280019 38.1659985,13.5399988 38.458,13.788 C38.7500015,14.0360012 39.1479975,14.16 39.652,14.16 Z M39.652,15.18 C38.7799956,15.18 38.0920025,14.9700021 37.588,14.55 C37.0839975,14.1299979 36.832,13.5960032 36.832,12.948 C36.832,12.4919977 36.9699986,12.0940017 37.246,11.754 C37.5220014,11.4139983 37.8759978,11.1720007 38.308,11.028 C37.9399982,10.8919993 37.6360012,10.6580017 37.396,10.326 C37.1559988,9.99399834 37.036,9.62000208 37.036,9.204 C37.036,8.57199684 37.2839975,8.05400202 37.78,7.65 C38.2760025,7.24599798 38.8999962,7.044 39.652,7.044 C40.4040038,7.044 41.0279975,7.24599798 41.524,7.65 C42.0200025,8.05400202 42.268,8.57199684 42.268,9.204 C42.268,9.61200204 42.1480012,9.98399832 41.908,10.32 C41.6679988,10.6560017 41.3640018,10.8919993 40.996,11.028 C41.4280022,11.1640007 41.7819986,11.4039983 42.058,11.748 C42.3340014,12.0920017 42.472,12.4919977 42.472,12.948 C42.472,13.5960032 42.2200025,14.1299979 41.716,14.55 C41.2119975,14.9700021 40.5240044,15.18 39.652,15.18 Z M43.432,13.248 L43.432,11.892 L46.768,7.224 L48.388,7.224 L48.388,12.156 L49.72,12.156 L49.72,13.248 L48.388,13.248 L48.388,15 L47.248,15 L47.248,13.248 L43.432,13.248 Z M47.248,12.156 L47.248,8.352 L44.512,12.156 L47.248,12.156 Z M51.436,9.024 C51.436,9.29600136 51.5239991,9.5219991 51.7,9.702 C51.8760009,9.8820009 52.0959987,9.972 52.36,9.972 C52.6240013,9.972 52.8439991,9.8820009 53.02,9.702 C53.1960009,9.5219991 53.284,9.29600136 53.284,9.024 C53.284,8.75199864 53.1960009,8.52800088 53.02,8.352 C52.8439991,8.17599912 52.6240013,8.088 52.36,8.088 C52.0959987,8.088 51.8760009,8.17599912 51.7,8.352 C51.5239991,8.52800088 51.436,8.75199864 51.436,9.024 Z M50.44,9.024 C50.44,8.5039974 50.6299981,8.06000184 51.01,7.692 C51.3900019,7.32399816 51.8399974,7.14 52.36,7.14 C52.8800026,7.14 53.3319981,7.32399816 53.716,7.692 C54.1000019,8.06000184 54.292,8.5039974 54.292,9.024 C54.292,9.55200264 54.1000019,9.99999816 53.716,10.368 C53.3319981,10.7360018 52.8800026,10.92 52.36,10.92 C51.8399974,10.92 51.3900019,10.7360018 51.01,10.368 C50.6299981,9.99999816 50.44,9.55200264 50.44,9.024 Z M56.188,13.2 C56.188,13.4720014 56.2759991,13.6979991 56.452,13.878 C56.6280009,14.0580009 56.8479987,14.148 57.112,14.148 C57.3760013,14.148 57.5959991,14.0580009 57.772,13.878 C57.9480009,13.6979991 58.036,13.4720014 58.036,13.2 C58.036,12.9279986 57.9480009,12.7040009 57.772,12.528 C57.5959991,12.3519991 57.3760013,12.264 57.112,12.264 C56.8479987,12.264 56.6280009,12.3519991 56.452,12.528 C56.2759991,12.7040009 56.188,12.9279986 56.188,13.2 Z M55.192,13.2 C55.192,12.6799974 55.3819981,12.2360018 55.762,11.868 C56.1420019,11.4999982 56.5919974,11.316 57.112,11.316 C57.6320026,11.316 58.0839981,11.4999982 58.468,11.868 C58.8520019,12.2360018 59.044,12.6799974 59.044,13.2 C59.044,13.7280026 58.8520019,14.1759982 58.468,14.544 C58.0839981,14.9120018 57.6320026,15.096 57.112,15.096 C56.5919974,15.096 56.1420019,14.9120018 55.762,14.544 C55.3819981,14.1759982 55.192,13.7280026 55.192,13.2 Z M52.504,15 L51.4,15 L56.992,7.224 L58.072,7.224 L52.504,15 Z M62.548,11.196 C62.548,13.4600113 61.7880076,15.3679922 60.268,16.92 L59.584,16.32 C60.9120066,14.8319926 61.576,13.1240096 61.576,11.196 C61.576,9.26799036 60.9120066,7.56000744 59.584,6.072 L60.268,5.472 C61.7880076,7.02400776 62.548,8.93198868 62.548,11.196 Z" id="6,5K-(84%)" fill="#FFFFFF"></path>
                                <path d="M1,0 L1,80" id="Line-2" stroke="#FFFFFF" opacity="0.300000012" stroke-linecap="square"></path>
                                <rect id="Rectangle-5" fill="#6EB620" x="1.5" y="18" width="127" height="5"></rect>
                                <path d="M7.408,34.404 C7.76000176,34.396 8.03999896,34.296001 8.248,34.104 C8.45600104,33.911999 8.56,33.6720014 8.56,33.384 C8.56,33.1119986 8.45600104,32.880001 8.248,32.688 C8.03999896,32.495999 7.76000176,32.4 7.408,32.4 C7.06399828,32.4 6.78800104,32.495999 6.58,32.688 C6.37199896,32.880001 6.268,33.1119986 6.268,33.384 C6.268,33.6720014 6.36999898,33.911999 6.574,34.104 C6.77800102,34.296001 7.05599824,34.396 7.408,34.404 Z M7.408,37.812 C7.81600204,37.812 8.13799882,37.7060011 8.374,37.494 C8.61000118,37.2819989 8.728,37.0280015 8.728,36.732 C8.728,36.4279985 8.61200116,36.1680011 8.38,35.952 C8.14799884,35.7359989 7.82400208,35.628 7.408,35.628 C6.99199792,35.628 6.67000114,35.7359989 6.442,35.952 C6.21399886,36.1680011 6.1,36.4279985 6.1,36.732 C6.1,37.0280015 6.21599884,37.2819989 6.448,37.494 C6.68000116,37.7060011 6.99999796,37.812 7.408,37.812 Z M7.408,39.18 C6.5279956,39.18 5.8180027,38.9680021 5.278,38.544 C4.7379973,38.1199979 4.468,37.5720034 4.468,36.9 C4.468,36.4839979 4.59399874,36.1040017 4.846,35.76 C5.09800126,35.4159983 5.43199792,35.1640008 5.848,35.004 C5.47199812,34.8679993 5.1740011,34.6340017 4.954,34.302 C4.7339989,33.9699983 4.624,33.6240018 4.624,33.264 C4.624,32.6079967 4.88599738,32.0720021 5.41,31.656 C5.93400262,31.2399979 6.59999596,31.032 7.408,31.032 C8.21600404,31.032 8.88199738,31.2399979 9.406,31.656 C9.93000262,32.0720021 10.192,32.6079967 10.192,33.264 C10.192,33.6240018 10.0840011,33.9699983 9.868,34.302 C9.65199892,34.6340017 9.35600188,34.8679993 8.98,35.004 C9.38800204,35.1560008 9.71799874,35.4059983 9.97,35.754 C10.2220013,36.1020017 10.348,36.4839979 10.348,36.9 C10.348,37.5720034 10.0780027,38.1199979 9.538,38.544 C8.9979973,38.9680021 8.2880044,39.18 7.408,39.18 Z M11.128,36.816 L12.676,36.468 C12.6920001,36.8360018 12.8299987,37.1459987 13.09,37.398 C13.3500013,37.6500013 13.683998,37.776 14.092,37.776 C14.4760019,37.776 14.7959987,37.6600012 15.052,37.428 C15.3080013,37.1959988 15.436,36.8880019 15.436,36.504 C15.436,36.0799979 15.3020013,35.7560011 15.034,35.532 C14.7659987,35.3079989 14.4400019,35.196 14.056,35.196 C13.5679976,35.196 13.1680016,35.3719982 12.856,35.724 C12.2879972,35.5079989 11.7840022,35.3360006 11.344,35.208 L12.268,31.212 L16.66,31.212 L16.66,32.64 L13.396,32.64 L13.012,34.356 C13.3560017,34.0359984 13.823997,33.876 14.416,33.876 C15.216004,33.876 15.8599976,34.1059977 16.348,34.566 C16.8360024,35.0260023 17.08,35.6639959 17.08,36.48 C17.08,37.2320038 16.8080027,37.8719974 16.264,38.4 C15.7199973,38.9280026 14.9960045,39.192 14.092,39.192 C13.2759959,39.192 12.5900028,38.9560024 12.034,38.484 C11.4779972,38.0119976 11.1760002,37.4560032 11.128,36.816 Z M21.208,39 L19.564,39 L19.564,33.792 L17.692,33.792 L17.692,32.676 C18.2520028,32.668 18.7199981,32.5260014 19.096,32.25 C19.4720019,31.9739986 19.6999996,31.6280021 19.78,31.212 L21.208,31.212 L21.208,39 Z M25.696,35.196 C25.696,32.9319887 26.4559924,31.0240078 27.976,29.472 L28.66,30.072 C27.3319934,31.5600074 26.668,33.2679904 26.668,35.196 C26.668,37.1240096 27.3319934,38.8319926 28.66,40.32 L27.976,40.92 C26.4559924,39.3679922 25.696,37.4600113 25.696,35.196 Z M31.936,39 L30.784,39 L30.784,33.516 L28.9,33.516 L28.9,32.688 C29.4280026,32.68 29.8719982,32.5420013 30.232,32.274 C30.5920018,32.0059987 30.8159996,31.6560022 30.904,31.224 L31.936,31.224 L31.936,39 Z M36.172,39 L35.02,39 L35.02,33.516 L33.136,33.516 L33.136,32.688 C33.6640026,32.68 34.1079982,32.5420013 34.468,32.274 C34.8280018,32.0059987 35.0519996,31.6560022 35.14,31.224 L36.172,31.224 L36.172,39 Z M38.608,33.024 C38.608,33.2960014 38.6959991,33.5219991 38.872,33.702 C39.0480009,33.8820009 39.2679987,33.972 39.532,33.972 C39.7960013,33.972 40.0159991,33.8820009 40.192,33.702 C40.3680009,33.5219991 40.456,33.2960014 40.456,33.024 C40.456,32.7519986 40.3680009,32.5280009 40.192,32.352 C40.0159991,32.1759991 39.7960013,32.088 39.532,32.088 C39.2679987,32.088 39.0480009,32.1759991 38.872,32.352 C38.6959991,32.5280009 38.608,32.7519986 38.608,33.024 Z M37.612,33.024 C37.612,32.5039974 37.8019981,32.0600018 38.182,31.692 C38.5620019,31.3239982 39.0119974,31.14 39.532,31.14 C40.0520026,31.14 40.5039981,31.3239982 40.888,31.692 C41.2720019,32.0600018 41.464,32.5039974 41.464,33.024 C41.464,33.5520026 41.2720019,33.9999982 40.888,34.368 C40.5039981,34.7360018 40.0520026,34.92 39.532,34.92 C39.0119974,34.92 38.5620019,34.7360018 38.182,34.368 C37.8019981,33.9999982 37.612,33.5520026 37.612,33.024 Z M43.36,37.2 C43.36,37.4720014 43.4479991,37.6979991 43.624,37.878 C43.8000009,38.0580009 44.0199987,38.148 44.284,38.148 C44.5480013,38.148 44.7679991,38.0580009 44.944,37.878 C45.1200009,37.6979991 45.208,37.4720014 45.208,37.2 C45.208,36.9279986 45.1200009,36.7040009 44.944,36.528 C44.7679991,36.3519991 44.5480013,36.264 44.284,36.264 C44.0199987,36.264 43.8000009,36.3519991 43.624,36.528 C43.4479991,36.7040009 43.36,36.9279986 43.36,37.2 Z M42.364,37.2 C42.364,36.6799974 42.5539981,36.2360018 42.934,35.868 C43.3140019,35.4999982 43.7639974,35.316 44.284,35.316 C44.8040026,35.316 45.2559981,35.4999982 45.64,35.868 C46.0240019,36.2360018 46.216,36.6799974 46.216,37.2 C46.216,37.7280026 46.0240019,38.1759982 45.64,38.544 C45.2559981,38.9120018 44.8040026,39.096 44.284,39.096 C43.7639974,39.096 43.3140019,38.9120018 42.934,38.544 C42.5539981,38.1759982 42.364,37.7280026 42.364,37.2 Z M39.676,39 L38.572,39 L44.164,31.224 L45.244,31.224 L39.676,39 Z M49.72,35.196 C49.72,37.4600113 48.9600076,39.3679922 47.44,40.92 L46.756,40.32 C48.0840066,38.8319926 48.748,37.1240096 48.748,35.196 C48.748,33.2679904 48.0840066,31.5600074 46.756,30.072 L47.44,29.472 C48.9600076,31.0240078 49.72,32.9319887 49.72,35.196 Z" id="851-(11%)" fill="#FFFFFF"></path>
                                <rect id="Rectangle-5" fill="#DA001B" x="1.5" y="42" width="16.6299992" height="5"></rect>
                                <path d="M6.568,59.544 L5.836,58.392 L7.876,56.64 L4.468,56.64 L4.468,55.212 L9.976,55.212 L9.976,56.544 L7.96,58.224 C8.57600308,58.2480001 9.10599778,58.4779978 9.55,58.914 C9.99400222,59.3500022 10.216,59.9119966 10.216,60.6 C10.216,61.3040035 9.94400272,61.9099975 9.4,62.418 C8.85599728,62.9260025 8.13200452,63.18 7.228,63.18 C6.35599564,63.18 5.64800272,62.9380024 5.104,62.454 C4.55999728,61.9699976 4.26400024,61.3840034 4.216,60.696 L5.812,60.384 C5.82800008,60.784002 5.9659987,61.1119987 6.226,61.368 C6.4860013,61.6240013 6.81999796,61.752 7.228,61.752 C7.628002,61.752 7.9479988,61.6400011 8.188,61.416 C8.4280012,61.1919989 8.548,60.9120017 8.548,60.576 C8.548,60.2159982 8.43000118,59.934001 8.194,59.73 C7.95799882,59.525999 7.65200188,59.424 7.276,59.424 C7.02799876,59.424 6.79200112,59.4639996 6.568,59.544 Z M13.996,58.404 C14.3480018,58.396 14.627999,58.296001 14.836,58.104 C15.044001,57.911999 15.148,57.6720014 15.148,57.384 C15.148,57.1119986 15.044001,56.880001 14.836,56.688 C14.627999,56.495999 14.3480018,56.4 13.996,56.4 C13.6519983,56.4 13.376001,56.495999 13.168,56.688 C12.959999,56.880001 12.856,57.1119986 12.856,57.384 C12.856,57.6720014 12.957999,57.911999 13.162,58.104 C13.366001,58.296001 13.6439982,58.396 13.996,58.404 Z M13.996,61.812 C14.404002,61.812 14.7259988,61.7060011 14.962,61.494 C15.1980012,61.2819989 15.316,61.0280015 15.316,60.732 C15.316,60.4279985 15.2000012,60.1680011 14.968,59.952 C14.7359988,59.7359989 14.4120021,59.628 13.996,59.628 C13.5799979,59.628 13.2580011,59.7359989 13.03,59.952 C12.8019989,60.1680011 12.688,60.4279985 12.688,60.732 C12.688,61.0280015 12.8039988,61.2819989 13.036,61.494 C13.2680012,61.7060011 13.587998,61.812 13.996,61.812 Z M13.996,63.18 C13.1159956,63.18 12.4060027,62.9680021 11.866,62.544 C11.3259973,62.1199979 11.056,61.5720034 11.056,60.9 C11.056,60.4839979 11.1819987,60.1040017 11.434,59.76 C11.6860013,59.4159983 12.0199979,59.1640008 12.436,59.004 C12.0599981,58.8679993 11.7620011,58.6340017 11.542,58.302 C11.3219989,57.9699983 11.212,57.6240018 11.212,57.264 C11.212,56.6079967 11.4739974,56.0720021 11.998,55.656 C12.5220026,55.2399979 13.187996,55.032 13.996,55.032 C14.804004,55.032 15.4699974,55.2399979 15.994,55.656 C16.5180026,56.0720021 16.78,56.6079967 16.78,57.264 C16.78,57.6240018 16.6720011,57.9699983 16.456,58.302 C16.2399989,58.6340017 15.9440019,58.8679993 15.568,59.004 C15.976002,59.1560008 16.3059987,59.4059983 16.558,59.754 C16.8100013,60.1020017 16.936,60.4839979 16.936,60.9 C16.936,61.5720034 16.6660027,62.1199979 16.126,62.544 C15.5859973,62.9680021 14.8760044,63.18 13.996,63.18 Z M23.38,55.212 L23.38,56.592 C23.1959991,56.7440008 23.0200008,56.9039992 22.852,57.072 C22.6839992,57.2400008 22.4460015,57.525998 22.138,57.93 C21.8299985,58.334002 21.5600012,58.7559978 21.328,59.196 C21.0959988,59.6360022 20.876001,60.1959966 20.668,60.876 C20.459999,61.5560034 20.3240003,62.2639963 20.26,63 L18.544,63 C18.6080003,62.2159961 18.7499989,61.4620036 18.97,60.738 C19.1900011,60.0139964 19.4379986,59.4140024 19.714,58.938 C19.9900014,58.4619976 20.2619987,58.0420018 20.53,57.678 C20.7980013,57.3139982 21.0199991,57.0480008 21.196,56.88 L21.472,56.64 L17.464,56.64 L17.464,55.212 L23.38,55.212 Z M27.064,59.196 C27.064,56.9319887 27.8239924,55.0240078 29.344,53.472 L30.028,54.072 C28.6999934,55.5600074 28.036,57.2679904 28.036,59.196 C28.036,61.1240096 28.6999934,62.8319926 30.028,64.32 L29.344,64.92 C27.8239924,63.3679922 27.064,61.4600113 27.064,59.196 Z M30.148,60.888 L31.276,60.552 C31.3080002,61.0320024 31.4859984,61.4199985 31.81,61.716 C32.1340016,62.0120015 32.5399976,62.16 33.028,62.16 C33.5000024,62.16 33.8959984,62.0160014 34.216,61.728 C34.5360016,61.4399986 34.696,61.0600024 34.696,60.588 C34.696,60.0759974 34.5360016,59.6800014 34.216,59.4 C33.8959984,59.1199986 33.4960024,58.98 33.016,58.98 C32.4319971,58.98 31.9600018,59.1679981 31.6,59.544 C31.4879994,59.5039998 31.3040013,59.4320005 31.048,59.328 C30.7919987,59.2239995 30.5920007,59.1440003 30.448,59.088 L31.456,55.224 L35.56,55.224 L35.56,56.304 L32.236,56.304 L31.66,58.536 C32.0040017,58.1519981 32.5319964,57.96 33.244,57.96 C34.0200039,57.96 34.6539975,58.1919977 35.146,58.656 C35.6380025,59.1200023 35.884,59.747996 35.884,60.54 C35.884,61.2920038 35.6200026,61.9219975 35.092,62.43 C34.5639974,62.9380025 33.8760042,63.192 33.028,63.192 C32.227996,63.192 31.5620027,62.9680022 31.03,62.52 C30.4979973,62.0719978 30.2040003,61.5280032 30.148,60.888 Z M37.84,57.024 C37.84,57.2960014 37.9279991,57.5219991 38.104,57.702 C38.2800009,57.8820009 38.4999987,57.972 38.764,57.972 C39.0280013,57.972 39.2479991,57.8820009 39.424,57.702 C39.6000009,57.5219991 39.688,57.2960014 39.688,57.024 C39.688,56.7519986 39.6000009,56.5280009 39.424,56.352 C39.2479991,56.1759991 39.0280013,56.088 38.764,56.088 C38.4999987,56.088 38.2800009,56.1759991 38.104,56.352 C37.9279991,56.5280009 37.84,56.7519986 37.84,57.024 Z M36.844,57.024 C36.844,56.5039974 37.0339981,56.0600018 37.414,55.692 C37.7940019,55.3239982 38.2439974,55.14 38.764,55.14 C39.2840026,55.14 39.7359981,55.3239982 40.12,55.692 C40.5040019,56.0600018 40.696,56.5039974 40.696,57.024 C40.696,57.5520026 40.5040019,57.9999982 40.12,58.368 C39.7359981,58.7360018 39.2840026,58.92 38.764,58.92 C38.2439974,58.92 37.7940019,58.7360018 37.414,58.368 C37.0339981,57.9999982 36.844,57.5520026 36.844,57.024 Z M42.592,61.2 C42.592,61.4720014 42.6799991,61.6979991 42.856,61.878 C43.0320009,62.0580009 43.2519987,62.148 43.516,62.148 C43.7800013,62.148 43.9999991,62.0580009 44.176,61.878 C44.3520009,61.6979991 44.44,61.4720014 44.44,61.2 C44.44,60.9279986 44.3520009,60.7040009 44.176,60.528 C43.9999991,60.3519991 43.7800013,60.264 43.516,60.264 C43.2519987,60.264 43.0320009,60.3519991 42.856,60.528 C42.6799991,60.7040009 42.592,60.9279986 42.592,61.2 Z M41.596,61.2 C41.596,60.6799974 41.7859981,60.2360018 42.166,59.868 C42.5460019,59.4999982 42.9959974,59.316 43.516,59.316 C44.0360026,59.316 44.4879981,59.4999982 44.872,59.868 C45.2560019,60.2360018 45.448,60.6799974 45.448,61.2 C45.448,61.7280026 45.2560019,62.1759982 44.872,62.544 C44.4879981,62.9120018 44.0360026,63.096 43.516,63.096 C42.9959974,63.096 42.5460019,62.9120018 42.166,62.544 C41.7859981,62.1759982 41.596,61.7280026 41.596,61.2 Z M38.908,63 L37.804,63 L43.396,55.224 L44.476,55.224 L38.908,63 Z M48.952,59.196 C48.952,61.4600113 48.1920076,63.3679922 46.672,64.92 L45.988,64.32 C47.3160066,62.8319926 47.98,61.1240096 47.98,59.196 C47.98,57.2679904 47.3160066,55.5600074 45.988,54.072 L46.672,53.472 C48.1920076,55.0240078 48.952,56.9319887 48.952,59.196 Z" id="387-(5%)" fill="#FFFFFF"></path>
                                <rect id="Rectangle-5" fill="#FFFFFF" x="1.5" y="66" width="7.55999994" height="5"></rect>
                            </g>
                        </g>
                    </g>
                </g>
            </g>
        </g>
    </g>
</svg>