<?xml version="1.0" encoding="UTF-8"?>
<svg width="19px" height="19px" viewBox="0 0 19 19" version="1.1" xmlns="http://www.w3.org/2000/svg" xmlns:xlink="http://www.w3.org/1999/xlink">
    <!-- Generator: Sketch 44.1 (41455) - http://www.bohemiancoding.com/sketch -->
    <title></title>
    <desc>Created with Sketch.</desc>
    <defs></defs>
    <g id="Page-1" stroke="none" stroke-width="1" fill="none" fill-rule="evenodd">
        <g id="page-thème---desktop" transform="translate(-323.000000, -29.000000)" fill="#ED1844">
            <g id="header">
                <g id="search" transform="translate(307.000000, 20.000000)">
                    <path d="M28.8571429,17.1428571 C28.8571429,15.7663622 28.3679364,14.5889186 27.3895089,13.6104911 C26.4110814,12.6320636 25.2336378,12.1428571 23.8571429,12.1428571 C22.4806479,12.1428571 21.3032043,12.6320636 20.3247768,13.6104911 C19.3463493,14.5889186 18.8571429,15.7663622 18.8571429,17.1428571 C18.8571429,18.5193521 19.3463493,19.6967957 20.3247768,20.6752232 C21.3032043,21.6536507 22.4806479,22.1428571 23.8571429,22.1428571 C25.2336378,22.1428571 26.4110814,21.6536507 27.3895089,20.6752232 C28.3679364,19.6967957 28.8571429,18.5193521 28.8571429,17.1428571 Z M34.5714286,26.4285714 C34.5714286,26.8154781 34.4300609,27.1502962 34.1473214,27.4330357 C33.8645819,27.7157752 33.5297638,27.8571429 33.1428571,27.8571429 C32.7410694,27.8571429 32.4062513,27.7157752 32.1383929,27.4330357 L28.3102679,23.6160714 C26.978416,24.5386951 25.4940558,25 23.8571429,25 C22.7931494,25 21.7756745,24.7935289 20.8046875,24.3805804 C19.8337005,23.9676319 18.9966553,23.4096017 18.2935268,22.7064732 C17.5903983,22.0033447 17.0323681,21.1662995 16.6194196,20.1953125 C16.2064711,19.2243255 16,18.2068506 16,17.1428571 C16,16.0788637 16.2064711,15.0613888 16.6194196,14.0904018 C17.0323681,13.1194148 17.5903983,12.2823696 18.2935268,11.5792411 C18.9966553,10.8761126 19.8337005,10.3180824 20.8046875,9.90513393 C21.7756745,9.49218544 22.7931494,9.28571429 23.8571429,9.28571429 C24.9211363,9.28571429 25.9386112,9.49218544 26.9095982,9.90513393 C27.8805852,10.3180824 28.7176304,10.8761126 29.4207589,11.5792411 C30.1238874,12.2823696 30.6819176,13.1194148 31.0948661,14.0904018 C31.5078146,15.0613888 31.7142857,16.0788637 31.7142857,17.1428571 C31.7142857,18.7797701 31.2529808,20.2641302 30.3303571,21.5959821 L34.1584821,25.4241071 C34.4337811,25.6994061 34.5714286,26.0342242 34.5714286,26.4285714 Z" id=""></path>
                </g>
            </g>
        </g>
    </g>
</svg>