<svg xmlns="http://www.w3.org/2000/svg" width="50" height="50" viewBox="0 0 50 50">
    <path fill="#000" fill-rule="evenodd" d="M29.867 24.378c.089.194.133.402.133.622 0 .22-.044.428-.133.622L49.485 44.69c.343.334.515.718.515 1.153 0 .434-.172.818-.515 1.152l-2.578 2.505c-.343.334-.739.501-1.185.501-.447 0-.842-.167-1.186-.501L25 30.511 5.464 49.499c-.344.334-.739.501-1.186.501-.446 0-.842-.167-1.185-.501L.515 46.994C.172 46.66 0 46.276 0 45.842c0-.435.172-.819.515-1.153l19.618-19.067A1.485 1.485 0 0 1 20 25c0-.22.044-.428.133-.622L.515 5.31C.172 4.977 0 4.593 0 4.158c0-.434.172-.818.515-1.152L3.093.501C3.436.167 3.832 0 4.278 0c.447 0 .842.167 1.186.501L25 19.489 44.536.501C44.88.167 45.275 0 45.722 0c.446 0 .842.167 1.185.501l2.578 2.505c.343.334.515.718.515 1.152 0 .435-.172.819-.515 1.153L29.867 24.378z"/>
</svg>
