<?xml version="1.0" encoding="utf-8"?>
<!-- Generator: Adobe Illustrator 21.0.0, SVG Export Plug-In . SVG Version: 6.00 Build 0)  -->
<svg version="1.1" xmlns="http://www.w3.org/2000/svg" xmlns:xlink="http://www.w3.org/1999/xlink" x="0px" y="0px"
	 viewBox="0 0 62 62" style="enable-background:new 0 0 62 62;" xml:space="preserve">
<style type="text/css">
	.st0{filter:url(#Adobe_OpacityMaskFilter);}
	.st1{fill:#FFFFFF;}
	.st2{mask:url(#mask-2);fill:#F8E71C;}
	.st3{fill:#E9863E;}
	.st4{fill:#ED9552;}
	.st5{fill:#FFFFFE;}
	.st6{fill:#E4792D;}
	.st7{fill:#F5B969;}
</style>
<defs>
	<filter id="Adobe_OpacityMaskFilter" filterUnits="userSpaceOnUse" x="1" y="1" width="60" height="60">
		<feColorMatrix  type="matrix" values="1 0 0 0 0  0 1 0 0 0  0 0 1 0 0  0 0 0 1 0"/>
	</filter>
</defs>
<mask maskUnits="userSpaceOnUse" x="1" y="1" width="60" height="60" id="mask-2">
	<g class="st0">
		<polygon id="path-1" class="st1" points="1,61 1,1 61,1 61,61 		"/>
	</g>
</mask>
<path id="Fill-1" class="st2" d="M31,1c16.6,0,30,13.4,30,30S47.6,61,31,61S1,47.6,1,31S14.4,1,31,1"/>
<polyline id="Fill-5" class="st3" points="31,35.5 14.9,40.8 31,46 47.1,40.8 31,35.5 "/>
<path id="Fill-6" class="st4" d="M31.7,15.2h-1.5l-8.9,25.6c0,0.7,4.3,1.3,9.6,1.3c5.3,0,9.6-0.6,9.6-1.3L31.7,15.2"/>
<path id="Fill-7" class="st5" d="M38.5,34.8L38.5,34.8l-1.8-5.1c0,0.4-2.6,0.8-5.8,0.8c-3.2,0-5.8-0.4-5.8-0.8l-1.7,5l0,0.1
	c0,0,0,0,0,0c0,0.6,3.4,1,7.5,1C35.2,35.8,38.5,35.4,38.5,34.8C38.5,34.8,38.5,34.8,38.5,34.8"/>
<path id="Fill-8" class="st5" d="M35.6,26.2l-1.8-5.1c0,0.2-1.3,0.4-2.8,0.4c-1.5,0-2.8-0.2-2.8-0.4l-1.8,5.1c0,0,0,0,0,0v0
	c0,0.3,2,0.6,4.6,0.6C33.5,26.9,35.6,26.6,35.6,26.2L35.6,26.2C35.6,26.2,35.6,26.2,35.6,26.2"/>
<polyline id="Fill-10" class="st6" points="31,46.9 47.1,41.7 47.1,40.8 31,46 31,46.9 "/>
<polyline id="Fill-11" class="st6" points="31,46.9 14.9,41.7 14.9,40.8 31,46 31,46.9 "/>
<path id="Fill-12" class="st7" d="M28.4,30.4l0.5-3.6c-0.8-0.1-1.5-0.1-2-0.3l-1,3.5C26.5,30.2,27.4,30.3,28.4,30.4"/>
<path id="Fill-13" class="st7" d="M24.4,35.3l-1.8,6.1c0.9,0.2,2.4,0.4,4.1,0.6l0.9-6.2C26.3,35.6,25.1,35.5,24.4,35.3"/>
<path id="Fill-14" class="st7" d="M29.8,21.5l0.9-6.2c-0.1,0-0.2,0-0.3,0l-1.8,6.1C28.8,21.4,29.3,21.4,29.8,21.5"/>
</svg>
