<?xml version="1.0" encoding="UTF-8"?>
<svg width="105px" height="56px" viewBox="0 0 105 56" version="1.1" xmlns="http://www.w3.org/2000/svg" xmlns:xlink="http://www.w3.org/1999/xlink">
    <!-- Generator: Sketch 44.1 (41455) - http://www.bohemiancoding.com/sketch -->
    <title>logo</title>
    <desc>Created with Sketch.</desc>
    <defs></defs>
    <g id="Page-1" stroke="none" stroke-width="1" fill="none" fill-rule="evenodd">
        <g id="accueil-thèmes---desktop" transform="translate(-150.000000, -12.000000)" fill-rule="nonzero">
            <g id="header">
                <g id="logo" transform="translate(150.000000, 12.000000)">
                    <g id="Group">
                        <polygon id="Shape" fill="#ED1844" points="51.8556475 25.6389189 57.883705 25.6389189 57.883705 0.375351351 51.8556475 0.375351351"></polygon>
                        <polygon id="Shape" fill="#ED1844" points="75.5879137 0.375351351 75.5516547 5.936 92.3750719 5.936 92.3750719 0.375351351"></polygon>
                        <polygon id="Shape" fill="#ED1844" points="92.2119065 25.6328649 92.3750719 20.0722162 75.4610072 20.0722162 75.4247482 25.6328649"></polygon>
                        <polygon id="Shape" fill="#ED1844" points="92.0147482 15.5785946 92.0147482 10.1564324 75.5244604 10.1564324 75.4889568 15.5785946"></polygon>
                        <polygon id="Shape" fill="#ED1844" points="26.6443165 25.6389189 33.0530935 25.6389189 34.2791007 21.8778378 41.9486331 21.8778378 43.1043885 25.6389189 49.5131655 25.6389189 48.1519424 21.8475676 28.0055396 21.8475676"></polygon>
                        <polygon id="Shape" fill="#ED1844" points="34.6401799 0.375351351 40.3373741 16.6970811 46.3019784 16.6970811 40.4423741 0.375351351"></polygon>
                        <polygon id="Shape" fill="#ED1844" points="0.152589928 25.6389189 6.28111511 25.6389189 6.28111511 11.6252973 0.152589928 0.375351351"></polygon>
                        <g transform="translate(0.000000, 0.122595)" id="Shape">
                            <path d="M7.09195137,48.4240676 C6.53160225,47.6788416 6.18151496,46.8627806 6.18151496,42.2500196 C6.18151496,37.6372587 6.53160225,36.7856476 7.09195137,36.0406868 C7.5473005,35.4373959 8.42264963,34.9404902 9.54334787,34.9404902 L9.54334787,29.4052831 C6.49651496,29.4052831 4.39546758,30.3988295 2.57433291,32.2439869 C-0.0522381546,34.9052053 0.0527618454,38.4533197 0.0527618454,42.2500196 C0.0527618454,46.0467196 -0.0522381546,49.5950993 2.57433291,52.2560524 C4.39546758,54.1012098 6.49651496,55.0947561 9.54334787,55.0947561 L9.54334787,49.5592838 C8.42264963,49.5592838 7.5473005,49.0270932 7.09195137,48.4240676 L7.09195137,48.4240676 Z" fill="#ED1844"></path>
                            <polygon fill="#ED1844" points="31.6457914 29.6217297 31.6473022 29.6179459 29.5797842 29.6179459 29.5797842 29.6217297"></polygon>
                            <path d="M39.3806297,31.8478418 C38.9187344,31.4090366 38.3924252,31.0214341 37.805106,30.6969729 L37.77447,30.7569306 C38.3149189,31.0307196 38.8658416,31.3939145 39.3806297,31.8478418 M33.3268429,45.4824277 L31.6476284,45.4824277 L36.0584139,54.881986 L43.167778,54.881986 L37.8051845,44.403455 C36.5781771,45.0818256 35.0814688,45.4824277 33.3268429,45.4824277" fill="#ED1844"></path>
                            <polygon fill="#ED1844" points="29.5797842 45.4788108 29.5797842 45.4825946 31.6473022 45.4825946 31.6457914 45.4788108"></polygon>
                            <path d="M37.8052107,44.4035877 C38.39253,44.0791265 38.9188391,43.691524 39.3807344,43.2527188 C38.8659464,43.7066461 38.3150237,44.069841 37.7745748,44.34363 L37.8052107,44.4035877 Z" fill="#ED1844"></path>
                            <polygon fill="#ED1844" points="23.451259 29.6179459 23.451259 54.8815135 29.5797842 54.8815135 29.5797842 45.4825946 29.5797842 45.4788108 29.5797842 29.6217297 29.5797842 29.6179459"></polygon>
                            <path d="M58.6120212,45.8692343 C58.6120212,46.8274957 58.3669339,47.8563269 57.6664975,48.5660028 C57.1061484,49.1690284 56.2305374,49.5592838 54.9349264,49.5592838 C53.8142282,49.5592838 52.9737045,49.0981934 52.5183554,48.4949026 C51.9582681,47.7499418 51.6079189,46.8627806 51.6079189,42.2500196 C51.6079189,37.6372587 51.9582681,36.7856476 52.5183554,36.0406868 C52.9737045,35.4373959 53.8142282,34.9404902 54.9349264,34.9404902 C57.0362357,34.9404902 58.0168466,35.8632015 58.5070212,37.7791939 L64.6705998,37.7791939 C64.0754252,33.6277886 61.3435923,29.4052831 54.9349264,29.4052831 C51.9231808,29.4052831 49.8218716,30.3988295 48.0007369,32.2439869 C45.3741659,34.9052053 45.4791659,38.4533197 45.4791659,42.2500196 C45.4791659,46.0467196 45.3741659,49.5950993 48.0007369,52.2560524 C49.8218716,54.1012098 52.0281808,55.0947561 54.9349264,55.0947561 C57.6664975,55.0947561 60.0479813,54.4914653 62.1841159,52.2560524 C63.8067718,50.5817478 64.4993529,48.5904104 64.6640536,45.4824277 L58.6120212,45.4824277 L58.6120212,45.8692343 Z" fill="#ED1844"></path>
                            <polygon fill="#ED1844" points="12.4700719 22.8638919 12.8953597 21.9913514 12.4451439 22.8177297"></polygon>
                            <polygon fill="#ED1844" points="18.7141727 0.252756757 18.6091727 0.448756757 12.4451439 11.9385946 9.50438849 17.4197838 12.4451439 22.8177297 12.8953597 21.9913514 18.6091727 11.5027027 24.7369424 0.252756757"></polygon>
                            <polygon fill="#253186" points="75.4889568 25.5163243 81.5170144 25.5163243 81.5170144 10.083027 75.4889568 10.083027"></polygon>
                            <polygon fill="#253186" points="72.9032374 0.252756757 65.9384892 0.252756757 61.9469784 7.27243243 58.7569424 12.8845405 61.9469784 18.4966486 65.9384892 25.5163243 72.9032374 25.5163243 65.317554 12.8845405"></polygon>
                            <polygon fill="#253186" points="40.3373741 16.5744865 35.9946043 16.5744865 29.8547482 16.5744865 28.0055396 21.724973 48.1519424 21.724973 46.3027338 16.5744865"></polygon>
                            <polygon fill="#253186" points="24.7376978 0.252756757 24.7376978 25.5163243 18.6084173 25.5163243 18.6084173 11.5027027"></polygon>
                            <polygon fill="#253186" points="6.28111511 0.448756757 6.17611511 0.252756757 0.152589928 0.252756757 6.28111511 11.5027027 9.50438849 17.4197838 12.4451439 11.9385946"></polygon>
                            <path d="M16.5125723,32.2438808 C14.6914377,30.3987233 12.5903903,29.4054423 9.54355734,29.4054423 L9.54355734,34.9406493 C10.6642556,34.9406493 11.5396048,35.4372898 11.9949539,36.0405807 C12.555303,36.7858068 12.9053903,37.6371526 12.9053903,42.2499135 C12.9053903,46.8626745 12.555303,47.6790008 11.9949539,48.4239615 C11.5396048,49.0272524 10.6642556,49.559443 9.54355734,49.559443 L9.54355734,55.09465 C12.5903903,55.09465 14.6914377,54.101369 16.5125723,52.2562116 C19.1391434,49.5949931 19.0341434,46.0468787 19.0341434,42.2499135 C19.0341434,38.4534789 19.1391434,34.9050992 16.5125723,32.2438808 L16.5125723,32.2438808 Z M39.3806297,31.8478418 C38.8658416,31.3939145 38.3149189,31.0307196 37.77447,30.7569306 L37.805106,30.6969729 C36.5780985,30.0188677 35.0813903,29.6180002 33.3267643,29.6180002 L31.6475499,29.6180002 L31.6459788,29.6217144 L29.5797568,29.6217144 L29.5797568,34.8019508 L29.5797568,35.1890226 L33.0465898,35.1890226 C34.6446322,35.1890226 35.6076995,36.3115045 35.6993454,37.5501874 C35.7040586,37.6146552 35.7082482,37.6791229 35.7082482,37.743856 C35.7082482,39.0565575 34.7276372,40.2984241 33.0465898,40.2984241 L29.5797568,40.2984241 L29.5797568,45.4789258 L31.6459788,45.4789258 L31.6475499,45.4823747 L33.3267643,45.4823747 C35.0813903,45.4823747 36.5780985,45.0817726 37.805106,44.4036673 L37.77447,44.3434443 C38.3149189,44.0696553 38.8658416,43.7064604 39.3806297,43.2525331 C40.9496072,41.7615503 41.784894,39.6874395 41.8325499,37.5501874 C41.8341209,37.4857197 41.8367394,37.4212519 41.8367394,37.3567841 C41.8367394,34.8635002 40.7341084,33.0408933 39.3806297,31.8478418 L39.3806297,31.8478418 Z M54.9348741,40.3339742 L54.9348741,45.4823747 L58.6119688,45.4823747 L64.6640012,45.4823747 C64.6912332,44.9679591 64.7056347,44.4262177 64.7056347,43.8465385 L64.7056347,40.3339742 L54.9348741,40.3339742 Z M101.057604,18.3417138 C98.9086388,18.3417138 97.1893612,20.0836698 97.1893612,22.2609821 C97.1893612,24.4048667 98.9086388,26.1802504 101.057604,26.1802504 C103.206568,26.1802504 104.925845,24.4048667 104.925845,22.2609821 C104.925845,20.0836698 103.206568,18.3417138 101.057604,18.3417138 L101.057604,18.3417138 Z" fill="#253186"></path>
                        </g>
                    </g>
                </g>
            </g>
        </g>
    </g>
</svg>