<?xml version="1.0" encoding="UTF-8"?>
<svg width="443px" height="480px" viewBox="0 0 443 480" version="1.1" xmlns="http://www.w3.org/2000/svg" xmlns:xlink="http://www.w3.org/1999/xlink">
    <!-- Generator: Sketch 46.2 (44496) - http://www.bohemiancoding.com/sketch -->
    <title></title>
    <desc>Created with Sketch.</desc>
    <defs></defs>
    <g id="Site-corpo" stroke="none" stroke-width="1" fill="none" fill-rule="evenodd" fill-opacity="0.05">
        <g id="qui-sommes-nous" transform="translate(-498.000000, -308.000000)" fill="#000000">
            <g id="btn-soumettre" transform="translate(498.000000, 309.000000)">
                <path d="M73.7142857,386.714286 C73.7142857,381.723189 71.8906432,377.404036 68.2433036,373.756696 C64.5959639,370.109357 60.2768107,368.285714 55.2857143,368.285714 C50.2946179,368.285714 45.9754647,370.109357 42.328125,373.756696 C38.6807853,377.404036 36.8571429,381.723189 36.8571429,386.714286 C36.8571429,391.705382 38.6807853,396.024535 42.328125,399.671875 C45.9754647,403.319215 50.2946179,405.142857 55.2857143,405.142857 C60.2768107,405.142857 64.5959639,403.319215 68.2433036,399.671875 C71.8906432,396.024535 73.7142857,391.705382 73.7142857,386.714286 Z M405.428571,220.857143 C405.428571,211.066915 401.685305,202.476599 394.198661,195.085938 C386.712016,187.695276 378.169691,184 368.571429,184 L267.214286,184 C267.214286,172.866016 271.821382,157.557017 281.035714,138.072545 C290.250046,118.588072 294.857143,103.183092 294.857143,91.8571429 C294.857143,73.0445488 291.785745,59.1272773 285.642857,50.1049107 C279.499969,41.0825442 267.214378,36.5714286 248.785714,36.5714286 C243.794618,41.562525 240.147333,49.7209255 237.84375,61.046875 C235.540167,72.3728245 232.612741,84.418463 229.061384,97.1841518 C225.510027,109.949841 219.799146,120.45978 211.928571,128.714286 C207.705336,133.129486 200.314785,141.863774 189.756696,154.917411 C188.988835,155.877237 186.781268,158.756672 183.133929,163.555804 C179.486589,168.354935 176.463182,172.290163 174.063616,175.361607 C171.664051,178.433051 168.3527,182.512251 164.129464,187.59933 C159.906229,192.686409 156.066982,196.909581 152.611607,200.268973 C149.156233,203.628365 145.460957,207.035697 141.52567,210.491071 C137.590382,213.946446 133.751135,216.537938 130.007812,218.265625 C126.26449,219.993312 122.857158,220.857143 119.785714,220.857143 L110.571429,220.857143 L110.571429,405.142857 L119.785714,405.142857 C122.281262,405.142857 125.30467,405.430801 128.856027,406.006696 C132.407384,406.582592 135.574763,407.20647 138.358259,407.878348 C141.141755,408.550227 144.78904,409.60602 149.300223,411.045759 C153.811406,412.485498 157.170748,413.589282 159.378348,414.357143 C161.585949,415.125004 164.993281,416.324769 169.600446,417.956473 C174.207612,419.588178 176.991067,420.59598 177.950893,420.979911 C218.45556,434.993374 251.281124,442 276.428571,442 L311.270089,442 C348.127416,442 366.555804,425.971142 366.555804,393.912946 C366.555804,388.92185 366.075898,383.546904 365.116071,377.787946 C370.875029,374.716503 375.434135,369.67749 378.793527,362.670759 C382.152919,355.664027 383.832589,348.609411 383.832589,341.506696 C383.832589,334.403982 382.104928,327.781281 378.649554,321.638393 C388.823712,312.040131 393.910714,300.61837 393.910714,287.372768 C393.910714,282.573637 392.950902,277.246681 391.03125,271.391741 C389.111598,265.536801 386.712068,260.977695 383.832589,257.714286 C389.975477,257.52232 395.11047,253.011205 399.237723,244.180804 C403.364976,235.350402 405.428571,227.575926 405.428571,220.857143 Z M442.285714,220.569196 C442.285714,237.654103 437.582636,253.299036 428.176339,267.504464 C429.904026,273.839317 430.767857,280.462019 430.767857,287.372768 C430.767857,302.154092 427.120572,315.975382 419.825893,328.837054 C420.401789,332.868324 420.689732,336.995515 420.689732,341.21875 C420.689732,360.60724 414.930861,377.69189 403.412946,392.473214 C403.604912,419.156383 395.446511,440.224253 378.9375,455.677455 C362.428489,471.130658 340.64076,478.857143 313.573661,478.857143 L276.428571,478.857143 C257.999908,478.857143 239.811474,476.697566 221.862723,472.378348 C203.913973,468.05913 183.134047,461.772363 159.522321,453.517857 C137.254353,445.839247 124.00895,442 119.785714,442 L36.8571429,442 C26.6829848,442 17.9966878,438.400706 10.7979911,431.202009 C3.59929436,424.003312 0,415.317015 0,405.142857 L0,220.857143 C0,210.682985 3.59929436,201.996688 10.7979911,194.797991 C17.9966878,187.599294 26.6829848,184 36.8571429,184 L115.754464,184 C122.665213,179.392834 135.814635,164.515751 155.203125,139.368304 C166.337109,124.97091 176.607096,112.685319 186.013393,102.511161 C190.620559,97.7120296 194.027891,89.5056384 196.235491,77.8917411 C198.443091,66.2778437 201.370517,54.1362241 205.017857,41.4665179 C208.665197,28.7968117 214.61603,18.4308439 222.870536,10.3683036 C230.35718,3.26558949 238.995487,-0.285714286 248.785714,-0.285714286 C264.910795,-0.285714286 279.403954,2.83367416 292.265625,9.07254464 C305.127296,15.3114151 314.917377,25.0535052 321.636161,38.2991071 C328.354944,51.5447091 331.714286,69.3972091 331.714286,91.8571429 C331.714286,109.709911 327.107189,128.138298 317.892857,147.142857 L368.571429,147.142857 C388.535814,147.142857 405.812427,154.437427 420.401786,169.026786 C434.991144,183.616144 442.285714,200.796776 442.285714,220.569196 Z" id=""></path>
            </g>
        </g>
    </g>
</svg>