<svg xmlns="http://www.w3.org/2000/svg" xmlns:xlink="http://www.w3.org/1999/xlink" width="40" height="40" viewBox="0 0 40 40">
    <defs>
        <path id="a" d="M0 39.52h39.946V.052H0z"/>
    </defs>
    <g fill="none" fill-rule="evenodd">
        <path fill="#FEFEFE" d="M0 39.573h39.946V.107H0z"/>
        <g transform="translate(0 .054)">
            <path fill="#94C01F" d="M24.14 3.132c-1.395 0-2.67.56-3.587 1.486.346.307.741.652 1.1.952.645-.625 1.525-1 2.486-1 1.965 0 3.563 1.579 3.563 3.52 0 .954-.362 1.815-1.046 2.492l-6.69 6.62-5.533-5.475c-.514.173-1.043.315-1.638.412l6.657 6.588c.136.135.367.3.514.3.154 0 .379-.165.515-.3l7.203-7.13a4.836 4.836 0 0 0 1.472-3.507c0-2.733-2.25-4.958-5.017-4.958"/>
            <path fill="#104496" d="M31.304 11.089a23.61 23.61 0 0 1-1.94-.406c-.365.602-.568.863-.923 1.243.505.144 1.023.272 1.558.383l-.216.335c-2.412 3.742-4.029 6.25-1.63 11.047-.494.546-1.24 1.077-2.194 1.558-1.368-.533-2.603-.802-3.672-.802-2.117 0-3.279 1.049-3.742 2.2-3.59-.322-5.814-2.123-6.623-2.907 1.634-2.625 2.051-5.078 1.241-7.296-.87-2.382-3.018-3.69-4.3-4.252-.02-.207-.05-.634-.084-.873.69.122 1.376.184 2.05.184 3.07 0 6.045-1.3 8.678-3.772a13.824 13.824 0 0 1-1.098-.95c-2.345 2.18-4.889 3.285-7.58 3.286-.9 0-1.827-.127-2.757-.377-.243-.065-.646-.163-.834.011-.182.168-.12.579-.07.823.144.715.26 1.835.272 2.173.015.495.057.53.518.689.542.188 2.961 1.146 3.837 3.545.695 1.902.222 4.085-1.395 6.493-.268.4-.256.471.035.845.117.148 2.957 3.587 8.61 3.851.673.031.636-.036.746-.584.21-1.049 1.111-1.652 2.496-1.652.957 0 2.104.283 3.423.815.28.113.32.113.594-.015 1.536-.723 2.648-1.567 3.304-2.497.236-.335.232-.402.047-.747-2.32-4.33-1.087-6.236 1.355-10.024.254-.394.518-.806.792-1.238.3-.473.348-.949-.498-1.09"/>
            <path fill="#104496" d="M12.392 9.138a3.492 3.492 0 0 1-.161-1.048c0-1.941 1.598-3.52 3.562-3.52.812 0 1.566.265 2.171.727 1.24.992 1.772 1.593 2.735 2.402 1.52 1.277 3.107 2.312 4.684 3.07.276-.287.646-.686 1.028-1.109-1.673-.753-3.489-1.97-4.97-3.225a93.422 93.422 0 0 1-2.138-1.89 5.028 5.028 0 0 0-3.51-1.413c-2.766 0-5.016 2.225-5.016 4.958 0 .403.048.798.142 1.179.477.002.993-.044 1.473-.131"/>
            <path fill="#94C01F" d="M3.608 30.668h.599c.117 0 .204-.083.204-.288 0-.208-.077-.304-.198-.304h-.605v.592zm1.585 1.259h-.672c-.361-.628-.528-.823-.672-.823h-.241v.823h-.539v-2.304h1.302c.478 0 .638.294.638.674 0 .33-.14.618-.582.641.158.057.332.265.766.989zM5.895 30.856h.596c-.007-.235-.084-.285-.285-.285-.214 0-.28.07-.31.285zm-.03-.807l.412-.426h.525l-.502.426h-.435zm.957 1.832c-.17.056-.425.092-.619.092-.482 0-.84-.208-.84-.902 0-.681.315-.883.807-.883.568 0 .816.172.769 1.041H5.892c.007.271.13.32.378.32.124 0 .348-.022.475-.055l.077.387zM8.327 30.638a.735.735 0 0 0-.261-.047c-.244 0-.324.06-.324.493 0 .357.07.453.31.453.151 0 .275-.046.275-.12v-.78zm-.415 1.325c-.441 0-.69-.185-.69-.87 0-.69.262-.905.844-.905.267 0 .588.05.776.12v1.483c0 .678-.405.81-.947.81-.22 0-.468-.043-.625-.1l.09-.396c.177.047.348.076.525.076.278 0 .442-.07.442-.314a.958.958 0 0 1-.415.096z"/>
            <mask id="b" fill="#fff">
                <use xlink:href="#a"/>
            </mask>
            <path fill="#94C01F" d="M9.307 31.927h.885v-1.693h-.885v1.693zm.943-2.185c0 .228-.127.268-.5.268-.38 0-.5-.04-.5-.268 0-.208.12-.241.5-.241.373 0 .5.033.5.24z" mask="url(#b)"/>
            <path fill="#94C01F" d="M10.684 31.08c0 .427.07.496.311.496.245 0 .315-.069.315-.495 0-.443-.07-.496-.315-.496-.24 0-.31.053-.31.496m-.52-.01c0-.691.285-.883.83-.883.556 0 .837.192.837.883 0 .694-.278.902-.837.902-.552 0-.83-.208-.83-.902M12.72 31.927h-.514V30.34c.22-.08.562-.152.87-.152.471 0 .705.195.705.803v.936h-.515v-.896c0-.307-.05-.39-.3-.39-.085 0-.161.01-.245.03v1.256z" mask="url(#b)"/>
            <path fill="#104496" d="M3.79 36.483h-.709v-3.03h.71v1.105h1.153v-1.104h.71v3.03h-.71v-1.279H3.79zM7.235 36.048c.128 0 .269-.021.374-.06v-.422a1.545 1.545 0 0 0-.365-.03c-.243 0-.33.026-.33.247 0 .227.057.265.321.265zm1.017.322c-.303.109-.74.174-1.07.174-.744 0-.965-.156-.965-.739 0-.626.344-.726.881-.726.168 0 .34.022.511.057 0-.309-.07-.396-.51-.396-.26 0-.511.048-.7.105l-.107-.531a4.32 4.32 0 0 1 .97-.117c.673 0 .99.204.99.865v1.308zM10.19 34.258h.67v2.09c-.286.1-.74.2-1.14.2-.626 0-.926-.26-.926-1.056v-1.234h.67v1.182c0 .4.07.513.4.513.11 0 .208-.018.326-.044v-1.651zM12.23 34.831v.83c0 .227.066.318.304.318.14 0 .255-.026.361-.06l.11.512a1.96 1.96 0 0 1-.678.113c-.498 0-.775-.148-.775-.813v-.9h-.366v-.573h.366v-.33l.678-.27v.6h.705v.573h-.705zM14.833 34.814a2.765 2.765 0 0 0-.665-.096c-.211 0-.317.018-.317.192 0 .117.062.147.41.19.524.066.757.223.757.679 0 .604-.44.765-1.008.765-.243 0-.595-.048-.802-.122l.132-.504c.168.048.418.092.639.092.264 0 .387-.022.387-.196 0-.122-.075-.17-.449-.205-.471-.043-.722-.178-.722-.652 0-.604.436-.76 1-.76.242 0 .559.048.77.122l-.132.495zM15.283 35.566h1.158v-.639h-1.158zM18.216 34.91c0-.096-.154-.17-.352-.17-.317 0-.419.14-.419.613 0 .54.106.63.427.63.115 0 .26-.017.344-.052V34.91zm.678 1.478c-.247.09-.67.156-1.022.156-.766 0-1.11-.27-1.11-1.182 0-.896.397-1.165.956-1.165.22 0 .37.043.498.096v-.948h.678v3.043zM20.088 35.075h.784c-.009-.309-.11-.374-.374-.374-.282 0-.37.091-.41.374zm1.22 1.347c-.224.074-.56.122-.815.122-.634 0-1.105-.274-1.105-1.187 0-.895.414-1.16 1.061-1.16.749 0 1.075.226 1.013 1.37h-1.378c.009.356.172.42.498.42a3.1 3.1 0 0 0 .625-.073l.101.508zM21.753 35.566h1.159v-.639h-1.159zM25.63 33.454v.613H24.1v.704h1.132v.6H24.1v1.112h-.71v-3.03zM25.92 34.258h.679v.174c.074-.131.22-.235.546-.235.066 0 .145.004.224.013v.621a1.2 1.2 0 0 0-.317-.034c-.242 0-.453.078-.453.226v1.46h-.679v-2.225zM28.598 36.048c.128 0 .269-.021.375-.06v-.422a1.546 1.546 0 0 0-.366-.03c-.242 0-.33.026-.33.247 0 .227.057.265.321.265zm1.018.322a3.54 3.54 0 0 1-1.07.174c-.745 0-.965-.156-.965-.739 0-.626.343-.726.88-.726.168 0 .34.022.512.057 0-.309-.07-.396-.511-.396-.26 0-.511.048-.7.105l-.106-.531c.26-.065.634-.117.969-.117.674 0 .99.204.99.865v1.308zM30.854 36.483h-.679v-2.086c.291-.104.74-.2 1.146-.2.62 0 .929.256.929 1.056v1.23h-.678v-1.178c0-.404-.067-.513-.397-.513-.11 0-.211.013-.321.04v1.651zM34.549 36.431c-.18.074-.484.113-.71.113-.673 0-1.122-.274-1.122-1.187 0-.904.453-1.16 1.123-1.16.233 0 .533.035.709.096l-.141.564a1.575 1.575 0 0 0-.51-.09c-.33 0-.498.056-.498.604 0 .521.167.6.497.6.194 0 .383-.048.511-.1l.141.56zM35.496 35.075h.784c-.009-.309-.11-.374-.374-.374-.282 0-.37.091-.41.374zm1.22 1.347c-.224.074-.56.122-.815.122-.634 0-1.105-.274-1.105-1.187 0-.895.414-1.16 1.061-1.16.749 0 1.075.226 1.013 1.37h-1.378c.009.356.172.42.497.42.164 0 .459-.03.626-.073l.101.508z" mask="url(#b)"/>
        </g>
    </g>
</svg>
