<svg xmlns="http://www.w3.org/2000/svg" xmlns:xlink="http://www.w3.org/1999/xlink" width="463" height="106" viewBox="0 0 463 106">
    <defs>
        <path id="a" d="M0 105.714h105.858V.142H0z"/>
    </defs>
    <g fill="none" fill-rule="evenodd">
        <path fill="#FFF" d="M150.888 91.8h-14.64a.69.69 0 0 1-.504-.216.69.69 0 0 1-.216-.504V73.704a.69.69 0 0 1 .216-.504.69.69 0 0 1 .504-.216h13.992a.69.69 0 0 1 .504.216.69.69 0 0 1 .216.504v3.504a.718.718 0 0 1-.216.528.69.69 0 0 1-.504.216h-8.064v1.92h6.888a.69.69 0 0 1 .504.216.69.69 0 0 1 .216.504v3.456a.718.718 0 0 1-.216.528.69.69 0 0 1-.504.216l-6.888.024v2.016h8.712a.68.68 0 0 1 .516.216.74.74 0 0 1 .204.528v3.504a.71.71 0 0 1-.204.504.68.68 0 0 1-.516.216zm12.504-12.984c.464.608.92 1.22 1.368 1.836l1.368 1.884v-8.832a.69.69 0 0 1 .216-.504.718.718 0 0 1 .528-.216h4.68c.208 0 .384.072.528.216a.69.69 0 0 1 .216.504V91.08a.69.69 0 0 1-.216.504.718.718 0 0 1-.528.216h-5.376a.828.828 0 0 1-.312-.084.74.74 0 0 1-.288-.204l-6.768-9.12v8.688a.69.69 0 0 1-.216.504.718.718 0 0 1-.528.216h-4.68a.69.69 0 0 1-.504-.216.69.69 0 0 1-.216-.504V73.704a.69.69 0 0 1 .216-.504.69.69 0 0 1 .504-.216h5.328a.85.85 0 0 1 .348.096c.136.064.22.136.252.216l2.052 2.796c.664.904 1.34 1.812 2.028 2.724zm17.064-5.832h5.28c.208 0 .384.072.528.216a.69.69 0 0 1 .216.504v6.024h6.12v-6.024a.69.69 0 0 1 .216-.504.718.718 0 0 1 .528-.216h5.28c.208 0 .384.072.528.216a.69.69 0 0 1 .216.504V91.08a.69.69 0 0 1-.216.504.718.718 0 0 1-.528.216h-5.28a.718.718 0 0 1-.528-.216.69.69 0 0 1-.216-.504v-6.408h-6.12v6.408a.69.69 0 0 1-.216.504.718.718 0 0 1-.528.216h-5.28a.69.69 0 0 1-.504-.216.69.69 0 0 1-.216-.504V73.704a.69.69 0 0 1 .216-.504.69.69 0 0 1 .504-.216zM224.568 91.8h-5.616a.748.748 0 0 1-.372-.12.632.632 0 0 1-.276-.288l-1.224-2.352h-9l-1.224 2.352a.826.826 0 0 1-.288.288.72.72 0 0 1-.384.12h-4.968c-.32 0-.552-.112-.696-.336-.144-.224-.136-.472.024-.744l9.864-17.352c.048-.096.144-.184.288-.264.144-.08.264-.12.36-.12h4.248c.112 0 .232.04.36.12.128.08.224.176.288.288l9.288 17.352c.128.272.128.516 0 .732-.128.216-.352.324-.672.324zm-11.832-11.16l-2.304 4.176h4.464l-2.16-4.176zm24.984 2.856V73.68a.69.69 0 0 1 .216-.504.718.718 0 0 1 .528-.216h4.944a.69.69 0 0 1 .504.216.69.69 0 0 1 .216.504v12.192c0 2.32-.888 3.96-2.664 4.92-1.632.864-4 1.296-7.104 1.296-3.2 0-5.576-.432-7.128-1.296-1.712-.96-2.568-2.68-2.568-5.16V73.68a.69.69 0 0 1 .216-.504.718.718 0 0 1 .528-.216h4.92c.208 0 .384.072.528.216a.69.69 0 0 1 .216.504v9.888c0 1.104.26 1.888.78 2.352.52.464 1.388.696 2.604.696 1.152 0 1.984-.244 2.496-.732s.768-1.284.768-2.388zm19.296 8.304h-5.256a.69.69 0 0 1-.504-.216.69.69 0 0 1-.216-.504V77.712h-4.968a.68.68 0 0 1-.516-.216.74.74 0 0 1-.204-.528v-3.264a.71.71 0 0 1 .204-.504.68.68 0 0 1 .516-.216h16.608c.208 0 .384.072.528.216a.69.69 0 0 1 .216.504v3.264a.718.718 0 0 1-.216.528.718.718 0 0 1-.528.216h-4.944V91.08a.71.71 0 0 1-.204.504.68.68 0 0 1-.516.216zm23.76-6.096c0 1.04-.196 1.956-.588 2.748a5.444 5.444 0 0 1-1.68 1.992c-.728.536-1.616.944-2.664 1.224s-2.228.42-3.54.42a26.174 26.174 0 0 1-4.176-.336c-.16-.032-.3-.056-.42-.072a3.374 3.374 0 0 1-.372-.072v.024a27.25 27.25 0 0 1-1.188-.228c-.328-.072-.58-.124-.756-.156a.712.712 0 0 1-.384-.24.74.74 0 0 1-.192-.408l-.384-4.56c-.032-.304.064-.532.288-.684.224-.152.472-.164.744-.036.784.384 1.872.824 3.264 1.32 1.44.48 2.744.72 3.912.72.72 0 1.3-.088 1.74-.264.44-.176.66-.432.66-.768 0-.176-.128-.352-.384-.528-.416-.256-1.36-.528-2.832-.816-2.768-.56-4.688-1.288-5.76-2.184-1.168-.96-1.752-2.304-1.752-4.032 0-2.016.716-3.544 2.148-4.584 1.432-1.04 3.428-1.56 5.988-1.56 1.12 0 2.312.112 3.576.336.608.112 1.14.216 1.596.312.456.096.836.192 1.14.288a.658.658 0 0 1 .348.24.764.764 0 0 1 .18.384l.48 4.2c.032.304-.064.54-.288.708-.224.168-.472.18-.744.036a19.884 19.884 0 0 0-1.56-.672 23.61 23.61 0 0 0-1.704-.576c-1.184-.336-2.248-.504-3.192-.504-.72 0-1.276.056-1.668.168-.392.112-.588.304-.588.576 0 .256.2.456.6.6.368.128.816.268 1.344.42.528.152 1.152.292 1.872.42 2.592.512 4.368 1.248 5.328 2.208 1.072 1.024 1.608 2.336 1.608 3.936zm1.728-4.2h7.248c.192 0 .352.052.48.156a.466.466 0 0 1 .192.372v2.352c0 .16-.064.292-.192.396a.736.736 0 0 1-.48.156h-7.248a.75.75 0 0 1-.468-.156.479.479 0 0 1-.204-.396v-2.352c0-.144.068-.268.204-.372a.75.75 0 0 1 .468-.156zm9.72-8.52h10.464c2.864 0 5.192.872 6.984 2.616 1.776 1.728 2.664 3.992 2.664 6.792 0 2.736-.896 4.992-2.688 6.768-1.776 1.76-4.064 2.64-6.864 2.64h-10.56a.718.718 0 0 1-.528-.216.69.69 0 0 1-.216-.504V73.704a.69.69 0 0 1 .216-.504.718.718 0 0 1 .528-.216zm13.584 9.432c0-1.232-.28-2.16-.84-2.784-.56-.624-1.384-.936-2.472-.936h-4.224v7.392h4.032c1.152 0 2.024-.308 2.616-.924.592-.616.888-1.532.888-2.748zm22.944 9.384h-14.64a.69.69 0 0 1-.504-.216.69.69 0 0 1-.216-.504V73.704a.69.69 0 0 1 .216-.504.69.69 0 0 1 .504-.216h13.992a.69.69 0 0 1 .504.216.69.69 0 0 1 .216.504v3.504a.718.718 0 0 1-.216.528.69.69 0 0 1-.504.216h-8.064v1.92h6.888a.69.69 0 0 1 .504.216.69.69 0 0 1 .216.504v3.456a.718.718 0 0 1-.216.528.69.69 0 0 1-.504.216l-6.888.024v2.016h8.712a.68.68 0 0 1 .516.216.74.74 0 0 1 .204.528v3.504a.71.71 0 0 1-.204.504.68.68 0 0 1-.516.216zm2.448-10.296h7.248c.192 0 .352.052.48.156a.466.466 0 0 1 .192.372v2.352c0 .16-.064.292-.192.396a.736.736 0 0 1-.48.156H331.2a.75.75 0 0 1-.468-.156.479.479 0 0 1-.204-.396v-2.352c0-.144.068-.268.204-.372a.75.75 0 0 1 .468-.156zM346.104 91.8h-5.184a.718.718 0 0 1-.528-.216.69.69 0 0 1-.216-.504V73.704a.69.69 0 0 1 .216-.504.718.718 0 0 1 .528-.216h14.736a.68.68 0 0 1 .516.216.71.71 0 0 1 .204.504v3.504a.74.74 0 0 1-.204.528.68.68 0 0 1-.516.216h-8.832v2.28h6.528a.71.71 0 0 1 .504.204.68.68 0 0 1 .216.516l-.024 3.48a.69.69 0 0 1-.216.504.69.69 0 0 1-.504.216h-6.504v5.928a.71.71 0 0 1-.204.504.68.68 0 0 1-.516.216zm20.448-6.648h-2.328v5.928a.69.69 0 0 1-.216.504.718.718 0 0 1-.528.216h-5.328a.69.69 0 0 1-.504-.216.69.69 0 0 1-.216-.504V73.704a.69.69 0 0 1 .216-.504.69.69 0 0 1 .504-.216H370.2c2.064 0 3.72.456 4.968 1.368 1.344.992 2.016 2.296 2.016 3.912 0 1.824-.552 3.144-1.656 3.96a6.213 6.213 0 0 1-.948.588c-.36.184-.756.348-1.188.492a6.67 6.67 0 0 1 1.308.888c.36.32.66.64.9.96l3.288 5.544c.16.272.172.524.036.756-.136.232-.356.348-.66.348h-6.096a.662.662 0 0 1-.372-.12.859.859 0 0 1-.276-.288l-3.072-5.712.024.048a5.426 5.426 0 0 0-.204-.24 1.004 1.004 0 0 0-.228-.192c-.128-.096-.624-.144-1.488-.144zm1.272-7.872h-3.744v3.576h2.88c1.168 0 2.056-.136 2.664-.408.608-.272.912-.76.912-1.464 0-.592-.232-1.024-.696-1.296-.464-.272-1.136-.408-2.016-.408zM403.56 91.8h-5.616a.748.748 0 0 1-.372-.12.632.632 0 0 1-.276-.288l-1.224-2.352h-9l-1.224 2.352a.826.826 0 0 1-.288.288.72.72 0 0 1-.384.12h-4.968c-.32 0-.552-.112-.696-.336-.144-.224-.136-.472.024-.744l9.864-17.352c.048-.096.144-.184.288-.264.144-.08.264-.12.36-.12h4.248c.112 0 .232.04.36.12.128.08.224.176.288.288l9.288 17.352c.128.272.128.516 0 .732-.128.216-.352.324-.672.324zm-11.832-11.16l-2.304 4.176h4.464l-2.16-4.176zm23.712-1.824c.464.608.92 1.22 1.368 1.836l1.368 1.884v-8.832a.69.69 0 0 1 .216-.504.718.718 0 0 1 .528-.216h4.68c.208 0 .384.072.528.216a.69.69 0 0 1 .216.504V91.08a.69.69 0 0 1-.216.504.718.718 0 0 1-.528.216h-5.376a.828.828 0 0 1-.312-.084.74.74 0 0 1-.288-.204l-6.768-9.12v8.688a.69.69 0 0 1-.216.504.718.718 0 0 1-.528.216h-4.68a.69.69 0 0 1-.504-.216.69.69 0 0 1-.216-.504V73.704a.69.69 0 0 1 .216-.504.69.69 0 0 1 .504-.216h5.328a.85.85 0 0 1 .348.096c.136.064.22.136.252.216l2.052 2.796c.664.904 1.34 1.812 2.028 2.724zm16.608 3.72h-.024c0 .736.132 1.396.396 1.98a4.31 4.31 0 0 0 1.116 1.5c1.024.864 2.432 1.296 4.224 1.296 1.232 0 2.424-.144 3.576-.432h-.048a334.43 334.43 0 0 0 1.644-.48c.488-.144.924-.296 1.308-.456.256-.096.488-.072.696.072.208.144.312.352.312.624l-.072 3.6a.69.69 0 0 1-.144.396.728.728 0 0 1-.336.276c-1.104.4-2.308.696-3.612.888a29.141 29.141 0 0 1-4.236.288c-3.536 0-6.304-.8-8.304-2.4-2.096-1.632-3.144-3.968-3.144-7.008 0-1.632.248-3.072.744-4.32.496-1.248 1.224-2.296 2.184-3.144.96-.848 2.136-1.492 3.528-1.932 1.392-.44 2.976-.66 4.752-.66 1.552 0 2.936.1 4.152.3 1.216.2 2.256.444 3.12.732.128.032.24.112.336.24a.81.81 0 0 1 .168.384l.264 3.528c.032.288-.056.508-.264.66a.697.697 0 0 1-.696.084c-.704-.256-1.608-.528-2.712-.816a14.958 14.958 0 0 0-1.62-.336 10.96 10.96 0 0 0-1.62-.12c-1.792 0-3.188.456-4.188 1.368-1 .912-1.5 2.208-1.5 3.888zm29.616 9.264h-14.64a.69.69 0 0 1-.504-.216.69.69 0 0 1-.216-.504V73.704a.69.69 0 0 1 .216-.504.69.69 0 0 1 .504-.216h13.992a.69.69 0 0 1 .504.216.69.69 0 0 1 .216.504v3.504a.718.718 0 0 1-.216.528.69.69 0 0 1-.504.216h-8.064v1.92h6.888a.69.69 0 0 1 .504.216.69.69 0 0 1 .216.504v3.456a.718.718 0 0 1-.216.528.69.69 0 0 1-.504.216l-6.888.024v2.016h8.712a.68.68 0 0 1 .516.216.74.74 0 0 1 .204.528v3.504a.71.71 0 0 1-.204.504.68.68 0 0 1-.516.216zM142.176 28.736h-.024c0 .736.132 1.396.396 1.98a4.31 4.31 0 0 0 1.116 1.5c1.024.864 2.432 1.296 4.224 1.296 1.232 0 2.424-.144 3.576-.432h-.048c.608-.176 1.156-.336 1.644-.48.488-.144.924-.296 1.308-.456.256-.096.488-.072.696.072.208.144.312.352.312.624l-.072 3.6a.69.69 0 0 1-.144.396.728.728 0 0 1-.336.276c-1.104.4-2.308.696-3.612.888a29.141 29.141 0 0 1-4.236.288c-3.536 0-6.304-.8-8.304-2.4-2.096-1.632-3.144-3.968-3.144-7.008 0-1.632.248-3.072.744-4.32.496-1.248 1.224-2.296 2.184-3.144.96-.848 2.136-1.492 3.528-1.932 1.392-.44 2.976-.66 4.752-.66 1.552 0 2.936.1 4.152.3 1.216.2 2.256.444 3.12.732.128.032.24.112.336.24a.81.81 0 0 1 .168.384l.264 3.528c.032.288-.056.508-.264.66a.697.697 0 0 1-.696.084c-.704-.256-1.608-.528-2.712-.816a14.958 14.958 0 0 0-1.62-.336 10.96 10.96 0 0 0-1.62-.12c-1.792 0-3.188.456-4.188 1.368-1 .912-1.5 2.208-1.5 3.888zm36.816-.168c0 3.28-.952 5.72-2.856 7.32-1.904 1.6-4.712 2.4-8.424 2.4-3.712 0-6.52-.8-8.424-2.4-1.904-1.6-2.856-4.04-2.856-7.32 0-3.28.952-5.724 2.856-7.332 1.904-1.608 4.712-2.412 8.424-2.412 3.712 0 6.52.804 8.424 2.412 1.904 1.608 2.856 4.052 2.856 7.332zm-6.648 0c0-1.376-.396-2.412-1.188-3.108-.792-.696-1.94-1.044-3.444-1.044s-2.648.348-3.432 1.044c-.784.696-1.176 1.732-1.176 3.108 0 1.376.392 2.412 1.176 3.108.784.696 1.928 1.044 3.432 1.044s2.652-.348 3.444-1.044c.792-.696 1.188-1.732 1.188-3.108zm18.432-3.552c.464.608.92 1.22 1.368 1.836l1.368 1.884v-8.832a.69.69 0 0 1 .216-.504.718.718 0 0 1 .528-.216h4.68c.208 0 .384.072.528.216a.69.69 0 0 1 .216.504V37.28a.69.69 0 0 1-.216.504.718.718 0 0 1-.528.216h-5.376a.828.828 0 0 1-.312-.084.74.74 0 0 1-.288-.204l-6.768-9.12v8.688a.69.69 0 0 1-.216.504.718.718 0 0 1-.528.216h-4.68a.69.69 0 0 1-.504-.216.69.69 0 0 1-.216-.504V19.904a.69.69 0 0 1 .216-.504.69.69 0 0 1 .504-.216h5.328a.85.85 0 0 1 .348.096c.136.064.22.136.252.216l2.052 2.796c.664.904 1.34 1.812 2.028 2.724zm26.424 6.888c0 1.04-.196 1.956-.588 2.748a5.444 5.444 0 0 1-1.68 1.992c-.728.536-1.616.944-2.664 1.224s-2.228.42-3.54.42a26.174 26.174 0 0 1-4.176-.336c-.16-.032-.3-.056-.42-.072a3.374 3.374 0 0 1-.372-.072v.024a27.25 27.25 0 0 1-1.188-.228c-.328-.072-.58-.124-.756-.156a.712.712 0 0 1-.384-.24.74.74 0 0 1-.192-.408l-.384-4.56c-.032-.304.064-.532.288-.684.224-.152.472-.164.744-.036.784.384 1.872.824 3.264 1.32 1.44.48 2.744.72 3.912.72.72 0 1.3-.088 1.74-.264.44-.176.66-.432.66-.768 0-.176-.128-.352-.384-.528-.416-.256-1.36-.528-2.832-.816-2.768-.56-4.688-1.288-5.76-2.184-1.168-.96-1.752-2.304-1.752-4.032 0-2.016.716-3.544 2.148-4.584 1.432-1.04 3.428-1.56 5.988-1.56 1.12 0 2.312.112 3.576.336.608.112 1.14.216 1.596.312.456.096.836.192 1.14.288a.658.658 0 0 1 .348.24.764.764 0 0 1 .18.384l.48 4.2c.032.304-.064.54-.288.708-.224.168-.472.18-.744.036a19.884 19.884 0 0 0-1.56-.672 23.61 23.61 0 0 0-1.704-.576c-1.184-.336-2.248-.504-3.192-.504-.72 0-1.276.056-1.668.168-.392.112-.588.304-.588.576 0 .256.2.456.6.6.368.128.816.268 1.344.42.528.152 1.152.292 1.872.42 2.592.512 4.368 1.248 5.328 2.208 1.072 1.024 1.608 2.336 1.608 3.936zM228.672 38h-5.256a.69.69 0 0 1-.504-.216.69.69 0 0 1-.216-.504V23.912h-4.968a.68.68 0 0 1-.516-.216.74.74 0 0 1-.204-.528v-3.264a.71.71 0 0 1 .204-.504.68.68 0 0 1 .516-.216h16.608c.208 0 .384.072.528.216a.69.69 0 0 1 .216.504v3.264a.718.718 0 0 1-.216.528.718.718 0 0 1-.528.216h-4.944V37.28a.71.71 0 0 1-.204.504.68.68 0 0 1-.516.216zm16.416-6.648h-2.328v5.928a.69.69 0 0 1-.216.504.718.718 0 0 1-.528.216h-5.328a.69.69 0 0 1-.504-.216.69.69 0 0 1-.216-.504V19.904a.69.69 0 0 1 .216-.504.69.69 0 0 1 .504-.216h12.048c2.064 0 3.72.456 4.968 1.368 1.344.992 2.016 2.296 2.016 3.912 0 1.824-.552 3.144-1.656 3.96a6.213 6.213 0 0 1-.948.588c-.36.184-.756.348-1.188.492a6.67 6.67 0 0 1 1.308.888c.36.32.66.64.9.96l3.288 5.544c.16.272.172.524.036.756-.136.232-.356.348-.66.348h-6.096a.662.662 0 0 1-.372-.12.859.859 0 0 1-.276-.288l-3.072-5.712.024.048a5.426 5.426 0 0 0-.204-.24 1.004 1.004 0 0 0-.228-.192c-.128-.096-.624-.144-1.488-.144zm1.272-7.872h-3.744v3.576h2.88c1.168 0 2.056-.136 2.664-.408.608-.272.912-.76.912-1.464 0-.592-.232-1.024-.696-1.296-.464-.272-1.136-.408-2.016-.408zm24.168 6.216V19.88a.69.69 0 0 1 .216-.504.718.718 0 0 1 .528-.216h4.944a.69.69 0 0 1 .504.216.69.69 0 0 1 .216.504v12.192c0 2.32-.888 3.96-2.664 4.92-1.632.864-4 1.296-7.104 1.296-3.2 0-5.576-.432-7.128-1.296-1.712-.96-2.568-2.68-2.568-5.16V19.88a.69.69 0 0 1 .216-.504.718.718 0 0 1 .528-.216h4.92c.208 0 .384.072.528.216a.69.69 0 0 1 .216.504v9.888c0 1.104.26 1.888.78 2.352.52.464 1.388.696 2.604.696 1.152 0 1.984-.244 2.496-.732s.768-1.284.768-2.388zM283.08 38h-4.464a.556.556 0 0 1-.444-.216.763.763 0 0 1-.18-.504V19.904c0-.192.06-.36.18-.504a.556.556 0 0 1 .444-.216h4.464c.176 0 .324.072.444.216.12.144.18.312.18.504V37.28c0 .192-.06.36-.18.504a.556.556 0 0 1-.444.216zm10.8-6.648h-2.328v5.928a.69.69 0 0 1-.216.504.718.718 0 0 1-.528.216h-5.328a.69.69 0 0 1-.504-.216.69.69 0 0 1-.216-.504V19.904a.69.69 0 0 1 .216-.504.69.69 0 0 1 .504-.216h12.048c2.064 0 3.72.456 4.968 1.368 1.344.992 2.016 2.296 2.016 3.912 0 1.824-.552 3.144-1.656 3.96a6.213 6.213 0 0 1-.948.588c-.36.184-.756.348-1.188.492a6.67 6.67 0 0 1 1.308.888c.36.32.66.64.9.96l3.288 5.544c.16.272.172.524.036.756-.136.232-.356.348-.66.348h-6.096a.662.662 0 0 1-.372-.12.859.859 0 0 1-.276-.288l-3.072-5.712.024.048a5.426 5.426 0 0 0-.204-.24 1.004 1.004 0 0 0-.228-.192c-.128-.096-.624-.144-1.488-.144zm1.272-7.872h-3.744v3.576h2.88c1.168 0 2.056-.136 2.664-.408.608-.272.912-.76.912-1.464 0-.592-.232-1.024-.696-1.296-.464-.272-1.136-.408-2.016-.408zm27.6 14.52h-14.64a.69.69 0 0 1-.504-.216.69.69 0 0 1-.216-.504V19.904a.69.69 0 0 1 .216-.504.69.69 0 0 1 .504-.216h13.992a.69.69 0 0 1 .504.216.69.69 0 0 1 .216.504v3.504a.718.718 0 0 1-.216.528.69.69 0 0 1-.504.216h-8.064v1.92h6.888a.69.69 0 0 1 .504.216.69.69 0 0 1 .216.504v3.456a.718.718 0 0 1-.216.528.69.69 0 0 1-.504.216l-6.888.024v2.016h8.712a.68.68 0 0 1 .516.216.74.74 0 0 1 .204.528v3.504a.71.71 0 0 1-.204.504.68.68 0 0 1-.516.216zm14.832-18.096l-.024 12.528h9.072c.192 0 .364.068.516.204a.662.662 0 0 1 .228.516v4.128a.69.69 0 0 1-.216.504.69.69 0 0 1-.504.216h-15a.718.718 0 0 1-.528-.216.69.69 0 0 1-.216-.504V19.904a.71.71 0 0 1 .204-.504.68.68 0 0 1 .516-.216h5.208a.73.73 0 0 1 .516.216.674.674 0 0 1 .228.504zm14.928-.552v3.504l-1.056 3.096a.534.534 0 0 1-.216.288.548.548 0 0 1-.312.12h-1.464a.552.552 0 0 1-.504-.276.682.682 0 0 1-.048-.612l.72-2.088h-.624a.523.523 0 0 1-.408-.192.67.67 0 0 1-.168-.456v-3.384c0-.176.056-.332.168-.468a.511.511 0 0 1 .408-.204h2.928c.16 0 .296.068.408.204a.715.715 0 0 1 .168.468zM377.712 38h-5.616a.748.748 0 0 1-.372-.12.632.632 0 0 1-.276-.288l-1.224-2.352h-9L360 37.592a.826.826 0 0 1-.288.288.72.72 0 0 1-.384.12h-4.968c-.32 0-.552-.112-.696-.336-.144-.224-.136-.472.024-.744l9.864-17.352c.048-.096.144-.184.288-.264.144-.08.264-.12.36-.12h4.248c.112 0 .232.04.36.12.128.08.224.176.288.288l9.288 17.352c.128.272.128.516 0 .732-.128.216-.352.324-.672.324zM365.88 26.84l-2.304 4.176h4.464l-2.16-4.176zm21.36-7.68h5.232c.304 0 .524.108.66.324.136.216.14.46.012.732l-8.736 17.664a.802.802 0 0 1-.3.288.748.748 0 0 1-.372.12h-3.144a.76.76 0 0 1-.384-.132.682.682 0 0 1-.288-.3l-8.664-17.664c-.128-.272-.12-.512.024-.72.144-.208.36-.312.648-.312h5.448a.72.72 0 0 1 .384.12.77.77 0 0 1 .288.312l4.344 9.312 4.176-9.312a.695.695 0 0 1 .276-.3.73.73 0 0 1 .396-.132zM409.008 38h-14.64a.69.69 0 0 1-.504-.216.69.69 0 0 1-.216-.504V19.904a.69.69 0 0 1 .216-.504.69.69 0 0 1 .504-.216h13.992a.69.69 0 0 1 .504.216.69.69 0 0 1 .216.504v3.504a.718.718 0 0 1-.216.528.69.69 0 0 1-.504.216h-8.064v1.92h6.888a.69.69 0 0 1 .504.216.69.69 0 0 1 .216.504v3.456a.718.718 0 0 1-.216.528.69.69 0 0 1-.504.216l-6.888.024v2.016h8.712a.68.68 0 0 1 .516.216.74.74 0 0 1 .204.528v3.504a.71.71 0 0 1-.204.504.68.68 0 0 1-.516.216zm12.504-12.984c.464.608.92 1.22 1.368 1.836l1.368 1.884v-8.832a.69.69 0 0 1 .216-.504.718.718 0 0 1 .528-.216h4.68c.208 0 .384.072.528.216a.69.69 0 0 1 .216.504V37.28a.69.69 0 0 1-.216.504.718.718 0 0 1-.528.216h-5.376a.828.828 0 0 1-.312-.084.74.74 0 0 1-.288-.204l-6.768-9.12v8.688a.69.69 0 0 1-.216.504.718.718 0 0 1-.528.216h-4.68a.69.69 0 0 1-.504-.216.69.69 0 0 1-.216-.504V19.904A.69.69 0 0 1 411 19.4a.69.69 0 0 1 .504-.216h5.328a.85.85 0 0 1 .348.096c.136.064.22.136.252.216l2.052 2.796c.664.904 1.34 1.812 2.028 2.724zM436.56 38h-4.464a.556.556 0 0 1-.444-.216.763.763 0 0 1-.18-.504V19.904c0-.192.06-.36.18-.504a.556.556 0 0 1 .444-.216h4.464c.176 0 .324.072.444.216.12.144.18.312.18.504V37.28c0 .192-.06.36-.18.504a.556.556 0 0 1-.444.216zm10.8-6.648h-2.328v5.928a.69.69 0 0 1-.216.504.718.718 0 0 1-.528.216h-5.328a.69.69 0 0 1-.504-.216.69.69 0 0 1-.216-.504V19.904a.69.69 0 0 1 .216-.504.69.69 0 0 1 .504-.216h12.048c2.064 0 3.72.456 4.968 1.368 1.344.992 2.016 2.296 2.016 3.912 0 1.824-.552 3.144-1.656 3.96a6.213 6.213 0 0 1-.948.588c-.36.184-.756.348-1.188.492a6.67 6.67 0 0 1 1.308.888c.36.32.66.64.9.96l3.288 5.544c.16.272.172.524.036.756-.136.232-.356.348-.66.348h-6.096a.662.662 0 0 1-.372-.12.859.859 0 0 1-.276-.288l-3.072-5.712.024.048a5.426 5.426 0 0 0-.204-.24 1.004 1.004 0 0 0-.228-.192c-.128-.096-.624-.144-1.488-.144zm1.272-7.872h-3.744v3.576h2.88c1.168 0 2.056-.136 2.664-.408.608-.272.912-.76.912-1.464 0-.592-.232-1.024-.696-1.296-.464-.272-1.136-.408-2.016-.408z"/>
        <path fill="#000" d="M136.484 45.048h12.208c3.341 0 6.057 1.017 8.148 3.052 2.072 2.016 3.108 4.657 3.108 7.924 0 3.192-1.045 5.824-3.136 7.896-2.072 2.053-4.741 3.08-8.008 3.08h-12.32a.838.838 0 0 1-.616-.252.806.806 0 0 1-.252-.588V45.888c0-.224.084-.42.252-.588a.838.838 0 0 1 .616-.252zm15.848 11.004c0-1.437-.327-2.52-.98-3.248-.653-.728-1.615-1.092-2.884-1.092h-4.928v8.624h4.704c1.344 0 2.361-.36 3.052-1.078.69-.719 1.036-1.787 1.036-3.206zM179.1 67h-17.08a.806.806 0 0 1-.588-.252.806.806 0 0 1-.252-.588V45.888c0-.224.084-.42.252-.588a.806.806 0 0 1 .588-.252h16.324c.224 0 .42.084.588.252a.806.806 0 0 1 .252.588v4.088a.838.838 0 0 1-.252.616.806.806 0 0 1-.588.252h-9.408v2.24h8.036c.224 0 .42.084.588.252a.806.806 0 0 1 .252.588v4.032a.838.838 0 0 1-.252.616.806.806 0 0 1-.588.252l-8.036.028v2.352H179.1c.243 0 .443.084.602.252a.864.864 0 0 1 .238.616v4.088a.83.83 0 0 1-.238.588.793.793 0 0 1-.602.252zm21.28-7.112c0 1.213-.229 2.282-.686 3.206a6.351 6.351 0 0 1-1.96 2.324c-.85.625-1.885 1.101-3.108 1.428-1.223.327-2.6.49-4.13.49a30.536 30.536 0 0 1-4.872-.392 7.795 7.795 0 0 0-.49-.084 3.936 3.936 0 0 1-.434-.084v.028a31.792 31.792 0 0 1-1.386-.266 26.766 26.766 0 0 0-.882-.182.831.831 0 0 1-.448-.28.863.863 0 0 1-.224-.476l-.448-5.32c-.037-.355.075-.62.336-.798.261-.177.55-.191.868-.042.915.448 2.184.961 3.808 1.54 1.68.56 3.201.84 4.564.84.84 0 1.517-.103 2.03-.308.513-.205.77-.504.77-.896 0-.205-.15-.41-.448-.616-.485-.299-1.587-.616-3.304-.952-3.23-.653-5.47-1.503-6.72-2.548-1.363-1.12-2.044-2.688-2.044-4.704 0-2.352.835-4.135 2.506-5.348 1.67-1.213 4-1.82 6.986-1.82 1.307 0 2.697.13 4.172.392.71.13 1.33.252 1.862.364.532.112.975.224 1.33.336.15.037.285.13.406.28.121.15.191.299.21.448l.56 4.9c.037.355-.075.63-.336.826-.261.196-.55.21-.868.042a23.198 23.198 0 0 0-1.82-.784 27.544 27.544 0 0 0-1.988-.672c-1.381-.392-2.623-.588-3.724-.588-.84 0-1.489.065-1.946.196-.457.13-.686.355-.686.672 0 .299.233.532.7.7.43.15.952.313 1.568.49.616.177 1.344.34 2.184.49 3.024.597 5.096 1.456 6.216 2.576 1.25 1.195 1.876 2.725 1.876 4.592zm18.088-15.064h5.992c.224 0 .415.084.574.252a.864.864 0 0 1 .238.616v14.392c0 2.277-.784 4.153-2.352 5.628-1.53 1.419-3.519 2.128-5.964 2.128-1.307 0-2.66-.224-4.06-.672a65.64 65.64 0 0 1-1.666-.56c-.42-.15-.723-.28-.91-.392a.83.83 0 0 1-.266-.294 1.175 1.175 0 0 1-.154-.35l-.812-6.384c-.037-.224-.01-.415.084-.574a.854.854 0 0 1 .882-.42c.177.028.34.126.49.294.299.355.896.784 1.792 1.288.821.467 1.708.7 2.66.7 1.755 0 2.632-.803 2.632-2.408V45.692c0-.243.084-.448.252-.616a.806.806 0 0 1 .588-.252zM244.424 67h-17.08a.806.806 0 0 1-.588-.252.806.806 0 0 1-.252-.588V45.888c0-.224.084-.42.252-.588a.806.806 0 0 1 .588-.252h16.324c.224 0 .42.084.588.252a.806.806 0 0 1 .252.588v4.088a.838.838 0 0 1-.252.616.806.806 0 0 1-.588.252h-9.408v2.24h8.036c.224 0 .42.084.588.252a.806.806 0 0 1 .252.588v4.032a.838.838 0 0 1-.252.616.806.806 0 0 1-.588.252l-8.036.028v2.352h10.164c.243 0 .443.084.602.252a.864.864 0 0 1 .238.616v4.088a.83.83 0 0 1-.238.588.793.793 0 0 1-.602.252zm17.304-9.688V45.86c0-.224.084-.42.252-.588a.838.838 0 0 1 .616-.252h5.768c.224 0 .42.084.588.252a.806.806 0 0 1 .252.588v14.224c0 2.707-1.036 4.62-3.108 5.74-1.904 1.008-4.667 1.512-8.288 1.512-3.733 0-6.505-.504-8.316-1.512-1.997-1.12-2.996-3.127-2.996-6.02V45.86c0-.224.084-.42.252-.588a.838.838 0 0 1 .616-.252h5.74c.243 0 .448.084.616.252a.806.806 0 0 1 .252.588v11.536c0 1.288.303 2.203.91 2.744.607.541 1.62.812 3.038.812 1.344 0 2.315-.285 2.912-.854.597-.57.896-1.498.896-2.786zm21.224-5.46c.541.71 1.073 1.423 1.596 2.142.523.719 1.055 1.451 1.596 2.198V45.888c0-.224.084-.42.252-.588a.838.838 0 0 1 .616-.252h5.46c.243 0 .448.084.616.252a.806.806 0 0 1 .252.588V66.16c0 .224-.084.42-.252.588a.838.838 0 0 1-.616.252H286.2a.966.966 0 0 1-.364-.098.863.863 0 0 1-.336-.238l-7.896-10.64V66.16c0 .224-.084.42-.252.588a.838.838 0 0 1-.616.252h-5.46a.806.806 0 0 1-.588-.252.806.806 0 0 1-.252-.588V45.888c0-.224.084-.42.252-.588a.806.806 0 0 1 .588-.252h6.216a.99.99 0 0 1 .406.112c.159.075.257.159.294.252l2.394 3.262a309.879 309.879 0 0 0 2.366 3.178zM312.996 67h-17.08a.806.806 0 0 1-.588-.252.806.806 0 0 1-.252-.588V45.888c0-.224.084-.42.252-.588a.806.806 0 0 1 .588-.252h16.324c.224 0 .42.084.588.252a.806.806 0 0 1 .252.588v4.088a.838.838 0 0 1-.252.616.806.806 0 0 1-.588.252h-9.408v2.24h8.036c.224 0 .42.084.588.252a.806.806 0 0 1 .252.588v4.032a.838.838 0 0 1-.252.616.806.806 0 0 1-.588.252l-8.036.028v2.352h10.164c.243 0 .443.084.602.252a.864.864 0 0 1 .238.616v4.088a.83.83 0 0 1-.238.588.793.793 0 0 1-.602.252zm21.28-7.112c0 1.213-.229 2.282-.686 3.206a6.351 6.351 0 0 1-1.96 2.324c-.85.625-1.885 1.101-3.108 1.428-1.223.327-2.6.49-4.13.49a30.536 30.536 0 0 1-4.872-.392 7.795 7.795 0 0 0-.49-.084 3.936 3.936 0 0 1-.434-.084v.028a31.792 31.792 0 0 1-1.386-.266 26.767 26.767 0 0 0-.882-.182.831.831 0 0 1-.448-.28.863.863 0 0 1-.224-.476l-.448-5.32c-.037-.355.075-.62.336-.798.261-.177.55-.191.868-.042.915.448 2.184.961 3.808 1.54 1.68.56 3.201.84 4.564.84.84 0 1.517-.103 2.03-.308.513-.205.77-.504.77-.896 0-.205-.15-.41-.448-.616-.485-.299-1.587-.616-3.304-.952-3.23-.653-5.47-1.503-6.72-2.548-1.363-1.12-2.044-2.688-2.044-4.704 0-2.352.835-4.135 2.506-5.348 1.67-1.213 4-1.82 6.986-1.82 1.307 0 2.697.13 4.172.392.71.13 1.33.252 1.862.364.532.112.975.224 1.33.336.15.037.285.13.406.28.121.15.191.299.21.448l.56 4.9c.037.355-.075.63-.336.826-.261.196-.55.21-.868.042a23.198 23.198 0 0 0-1.82-.784 27.544 27.544 0 0 0-1.988-.672c-1.381-.392-2.623-.588-3.724-.588-.84 0-1.489.065-1.946.196-.457.13-.686.355-.686.672 0 .299.233.532.7.7.43.15.952.313 1.568.49.616.177 1.344.34 2.184.49 3.024.597 5.096 1.456 6.216 2.576 1.25 1.195 1.876 2.725 1.876 4.592z"/>
        <g>
            <path fill="#FEFEFE" d="M0 105.858h105.858V.286H0z"/>
            <g transform="translate(0 .144)">
                <path fill="#94C01F" d="M63.969 8.38a13.262 13.262 0 0 0-9.502 3.974 141.4 141.4 0 0 0 2.911 2.545 9.404 9.404 0 0 1 6.59-2.675c5.207 0 9.443 4.224 9.443 9.417 0 2.55-.96 4.856-2.772 6.665L52.91 46.016 38.25 31.369a26.603 26.603 0 0 1-4.341 1.104l17.64 17.62c.361.362.972.806 1.363.806.408 0 1.003-.444 1.364-.806l19.089-19.069c2.551-2.546 3.9-5.79 3.9-9.383C77.264 14.33 71.3 8.38 63.97 8.38"/>
                <path fill="#104496" d="M82.956 29.662a62.056 62.056 0 0 1-5.141-1.086c-.968 1.61-1.505 2.31-2.446 3.326a57.84 57.84 0 0 0 4.129 1.025c-.194.301-.384.6-.573.896-6.392 10.009-10.676 16.72-4.321 29.55-1.306 1.46-3.287 2.88-5.812 4.167-3.627-1.425-6.897-2.145-9.732-2.145-5.61 0-8.689 2.806-9.916 5.884-9.516-.86-15.406-5.677-17.552-7.775 4.33-7.02 5.437-13.582 3.29-19.517-2.303-6.37-7.998-9.87-11.395-11.374-.055-.553-.132-1.697-.223-2.334a30.93 30.93 0 0 0 5.432.492h.003c8.132 0 16.016-3.476 22.995-10.09-.86-.663-1.824-1.501-2.909-2.54-6.215 5.83-12.956 8.785-20.086 8.787h-.003c-2.383 0-4.842-.34-7.306-1.009-.644-.172-1.711-.435-2.21.031-.483.45-.317 1.548-.186 2.201.384 1.914.692 4.91.721 5.815.042 1.322.151 1.415 1.373 1.841 1.436.503 7.848 3.065 10.17 9.483 1.84 5.088.587 10.927-3.699 17.369-.71 1.07-.679 1.26.095 2.26.308.396 7.835 9.595 22.814 10.302 1.783.083 1.688-.097 1.978-1.563.556-2.804 2.945-4.418 6.614-4.418 2.535 0 5.575.758 9.07 2.18.744.303.85.303 1.574-.04 4.073-1.934 7.018-4.192 8.757-6.68.627-.897.615-1.076.126-2-6.15-11.583-2.882-16.68 3.59-26.813a588.008 588.008 0 0 0 2.099-3.312c.794-1.265.921-2.536-1.32-2.913"/>
                <path fill="#104496" d="M32.837 24.444a9.422 9.422 0 0 1-.426-2.803c0-5.193 4.236-9.417 9.441-9.417a9.38 9.38 0 0 1 5.753 1.946c3.285 2.653 4.695 4.26 7.247 6.424 4.029 3.417 8.234 6.185 12.412 8.215.733-.77 1.712-1.836 2.724-2.968-4.434-2.014-9.244-5.27-13.171-8.628-2.158-1.847-4.84-4.297-5.663-5.054 0 0-.002 0-.002-.002a13.26 13.26 0 0 0-9.3-3.778c-7.33 0-13.294 5.95-13.294 13.262 0 1.077.13 2.133.378 3.153 1.264.006 2.63-.117 3.901-.35"/>
                <path fill="#94C01F" d="M9.56 82.036h1.588c.31 0 .54-.222.54-.77 0-.557-.204-.813-.523-.813H9.561v1.583zm4.202 3.368h-1.781c-.957-1.68-1.4-2.202-1.782-2.202h-.638v2.202H8.134v-6.163h3.448c1.267 0 1.693.787 1.693 1.804 0 .884-.372 1.653-1.542 1.715.417.15.877.708 2.03 2.644zM15.622 82.54H17.2c-.017-.628-.221-.761-.753-.761-.567 0-.745.185-.825.76zm-.079-2.158l1.09-1.14h1.392l-1.33 1.14h-1.152zm2.535 4.899c-.452.15-1.125.246-1.64.246-1.276 0-2.225-.556-2.225-2.413 0-1.821.834-2.36 2.136-2.36 1.508 0 2.164.459 2.04 2.785h-2.775c.018.725.345.857 1.001.857.329 0 .923-.062 1.259-.15l.204 1.035zM22.066 81.956a1.93 1.93 0 0 0-.691-.124c-.648 0-.86.16-.86 1.317 0 .955.186 1.212.824 1.212.399 0 .727-.124.727-.319v-2.086zm-1.1 3.545c-1.169 0-1.826-.495-1.826-2.325 0-1.848.692-2.423 2.235-2.423.709 0 1.56.133 2.056.318v3.97c0 1.813-1.073 2.167-2.508 2.167-.586 0-1.242-.115-1.658-.266l.24-1.06c.469.123.921.203 1.39.203.737 0 1.171-.186 1.171-.84a2.52 2.52 0 0 1-1.1.256z"/>
                <mask id="b" fill="#fff">
                    <use xlink:href="#a"/>
                </mask>
                <path fill="#94C01F" d="M24.6 85.404h1.365v-4.527H24.6v4.527zm1.453-5.844c0 .61-.194.716-.77.716-.585 0-.772-.106-.772-.716 0-.557.187-.646.772-.646.576 0 .77.09.77.646zM28.313 83.14c0 1.141.186 1.327.824 1.327.648 0 .834-.186.834-1.327 0-1.184-.186-1.326-.834-1.326-.638 0-.824.142-.824 1.326m-1.374-.026c0-1.848.754-2.36 2.198-2.36 1.472 0 2.217.512 2.217 2.36 0 1.857-.736 2.413-2.217 2.413-1.462 0-2.198-.556-2.198-2.413M33.71 85.404h-1.365V81.16a7.352 7.352 0 0 1 2.305-.407c1.25 0 1.87.522 1.87 2.15v2.501h-1.365v-2.396c0-.822-.133-1.044-.798-1.044-.221 0-.425.027-.647.08v3.36z" mask="url(#b)"/>
                <path fill="#104496" d="M10.044 97.593H8.165v-8.105h1.88v2.954h3.058v-2.954h1.879v8.105h-1.88v-3.42h-3.058zM19.173 96.43c.338 0 .712-.059.992-.163V95.14c-.268-.07-.607-.081-.969-.081-.642 0-.876.07-.876.662 0 .606.152.71.853.71zm2.696.86c-.805.29-1.96.466-2.836.466-1.973 0-2.557-.42-2.557-1.977 0-1.674.91-1.942 2.335-1.942.443 0 .898.058 1.354.151 0-.826-.187-1.058-1.354-1.058-.689 0-1.354.128-1.856.28l-.28-1.42c.689-.174 1.68-.314 2.568-.314 1.786 0 2.626.547 2.626 2.314v3.5zM27.005 91.64h1.774v5.592c-.759.268-1.96.535-3.023.535-1.657 0-2.451-.698-2.451-2.826V91.64h1.774v3.163c0 1.069.187 1.372 1.062 1.372.292 0 .549-.047.864-.117V91.64zM32.41 93.174v2.221c0 .605.174.848.805.848.373 0 .677-.07.957-.162l.292 1.372c-.444.186-1.156.303-1.798.303-1.319 0-2.054-.395-2.054-2.175v-2.407h-.969V91.64h.97v-.883l1.796-.72v1.603h1.868v1.535h-1.868zM39.308 93.127c-.467-.127-1.155-.255-1.762-.255-.561 0-.84.046-.84.512 0 .313.163.395 1.085.51 1.388.176 2.007.594 2.007 1.814 0 1.617-1.167 2.048-2.673 2.048-.642 0-1.576-.128-2.124-.326l.35-1.349c.444.128 1.109.244 1.692.244.7 0 1.027-.058 1.027-.524 0-.324-.198-.452-1.19-.546-1.249-.116-1.914-.476-1.914-1.744 0-1.615 1.155-2.035 2.65-2.035.642 0 1.482.128 2.042.327l-.35 1.324zM40.499 95.14h3.07v-1.71h-3.07zM48.273 93.383c0-.256-.41-.453-.934-.453-.84 0-1.109.372-1.109 1.64 0 1.441.28 1.685 1.132 1.685.304 0 .689-.047.91-.14v-2.732zm1.797 3.954c-.654.243-1.774.419-2.708.419-2.03 0-2.94-.722-2.94-3.164 0-2.394 1.05-3.116 2.531-3.116.584 0 .981.117 1.32.257v-2.535h1.797v8.139zM53.234 93.825h2.077c-.023-.825-.291-1-.992-1-.747 0-.98.244-1.085 1zm3.233 3.604c-.595.198-1.482.327-2.16.327-1.68 0-2.929-.733-2.929-3.175 0-2.395 1.097-3.105 2.813-3.105 1.984 0 2.848.605 2.684 3.663h-3.653c.023.954.455 1.128 1.319 1.128.432 0 1.213-.082 1.658-.198l.268 1.36zM57.646 95.14h3.07v-1.71h-3.07zM67.918 89.488v1.64h-4.05v1.884h2.999v1.604h-3v2.977H61.99v-8.105zM68.688 91.64h1.798v.465c.198-.35.583-.629 1.448-.629.175 0 .385.012.595.035v1.663c-.234-.07-.549-.093-.84-.093-.642 0-1.203.21-1.203.605v3.907h-1.798v-5.954zM75.786 96.43c.338 0 .712-.059.992-.163V95.14c-.269-.07-.607-.081-.969-.081-.642 0-.876.07-.876.662 0 .606.152.71.853.71zm2.696.86c-.806.29-1.961.466-2.837.466-1.972 0-2.555-.42-2.555-1.977 0-1.674.91-1.942 2.334-1.942.443 0 .899.058 1.354.151 0-.826-.187-1.058-1.354-1.058-.688 0-1.354.128-1.856.28l-.28-1.42a11.353 11.353 0 0 1 2.568-.314c1.785 0 2.626.547 2.626 2.314v3.5zM81.762 97.593h-1.797V92.01c.77-.278 1.96-.535 3.034-.535 1.646 0 2.463.687 2.463 2.826v3.29h-1.797v-3.15c0-1.082-.175-1.372-1.05-1.372-.293 0-.561.034-.853.104v4.419zM91.555 97.453c-.478.198-1.284.303-1.88.303-1.785 0-2.976-.733-2.976-3.175 0-2.418 1.203-3.105 2.977-3.105.618 0 1.412.094 1.879.257l-.374 1.51A4.138 4.138 0 0 0 89.827 93c-.874 0-1.318.15-1.318 1.616 0 1.395.444 1.604 1.318 1.604.514 0 1.016-.127 1.354-.267l.374 1.5zM94.065 93.825h2.078c-.024-.825-.293-1-.993-1-.746 0-.98.244-1.085 1zm3.233 3.604c-.595.198-1.483.327-2.16.327-1.68 0-2.929-.733-2.929-3.175 0-2.395 1.097-3.105 2.813-3.105 1.984 0 2.848.605 2.684 3.663h-3.653c.024.954.456 1.128 1.319 1.128.433 0 1.214-.082 1.657-.198l.269 1.36z" mask="url(#b)"/>
            </g>
        </g>
    </g>
</svg>
